<svg xmlns="http://www.w3.org/2000/svg" width="512" height="512" viewBox="0 0 512 512">
<rect width="100%" height="100%" fill="black"/>
<circle cx="256.00" cy="256.00" r="2" fill="hsl(0, 80%, 65%)" />
<circle cx="250.69" cy="260.86" r="3" fill="hsl(7, 80%, 65%)" />
<circle cx="256.89" cy="245.86" r="4" fill="hsl(14, 80%, 65%)" />
<circle cx="263.59" cy="265.90" r="5" fill="hsl(21, 80%, 65%)" />
<circle cx="241.82" cy="253.49" r="6" fill="hsl(28, 80%, 65%)" />
<circle cx="269.58" cy="247.36" r="2" fill="hsl(35, 80%, 65%)" />
<circle cx="251.42" cy="273.03" r="3" fill="hsl(42, 80%, 65%)" />
<circle cx="247.22" cy="239.09" r="4" fill="hsl(49, 80%, 65%)" />
<circle cx="275.13" cy="262.99" r="5" fill="hsl(56, 80%, 65%)" />
<circle cx="236.03" cy="264.24" r="6" fill="hsl(63, 80%, 65%)" />
<circle cx="265.65" cy="235.38" r="2" fill="hsl(70, 80%, 65%)" />
<circle cx="263.15" cy="278.79" r="3" fill="hsl(77, 80%, 65%)" />
<circle cx="234.42" cy="243.49" r="4" fill="hsl(84, 80%, 65%)" />
<circle cx="281.35" cy="250.43" r="5" fill="hsl(91, 80%, 65%)" />
<circle cx="240.51" cy="278.04" r="6" fill="hsl(98, 80%, 65%)" />
<circle cx="252.42" cy="228.35" r="2" fill="hsl(105, 80%, 65%)" />
<circle cx="278.02" cy="274.56" r="3" fill="hsl(112, 80%, 65%)" />
<circle cx="226.34" cy="257.23" r="4" fill="hsl(119, 80%, 65%)" />
<circle cx="277.65" cy="234.45" r="5" fill="hsl(126, 80%, 65%)" />
<circle cx="254.55" cy="287.35" r="6" fill="hsl(133, 80%, 65%)" />
<circle cx="235.37" cy="231.28" r="2" fill="hsl(140, 80%, 65%)" />
<circle cx="288.70" cy="260.40" r="3" fill="hsl(147, 80%, 65%)" />
<circle cx="228.28" cy="275.29" r="4" fill="hsl(154, 80%, 65%)" />
<circle cx="263.58" cy="222.31" r="5" fill="hsl(161, 80%, 65%)" />
<circle cx="273.54" cy="286.60" r="6" fill="hsl(168, 80%, 65%)" />
<circle cx="221.70" cy="245.06" r="2" fill="hsl(175, 80%, 65%)" />
<circle cx="289.33" cy="240.60" r="3" fill="hsl(182, 80%, 65%)" />
<circle cx="241.56" cy="290.51" r="4" fill="hsl(189, 80%, 65%)" />
<circle cx="243.11" cy="220.15" r="5" fill="hsl(196, 80%, 65%)" />
<circle cx="290.32" cy="274.04" r="6" fill="hsl(203, 80%, 65%)" />
<circle cx="217.87" cy="266.05" r="2" fill="hsl(210, 80%, 65%)" />
<circle cx="277.68" cy="222.28" r="3" fill="hsl(217, 80%, 65%)" />
<circle cx="262.90" cy="296.14" r="4" fill="hsl(224, 80%, 65%)" />
<circle cx="223.30" cy="230.67" r="5" fill="hsl(231, 80%, 65%)" />
<circle cx="297.84" cy="252.53" r="6" fill="hsl(238, 80%, 65%)" />
<circle cx="227.07" cy="287.27" r="2" fill="hsl(245, 80%, 65%)" />
<circle cx="256.21" cy="212.80" r="3" fill="hsl(252, 80%, 65%)" />
<circle cx="285.43" cy="288.44" r="4" fill="hsl(259, 80%, 65%)" />
<circle cx="211.81" cy="251.90" r="5" fill="hsl(266, 80%, 65%)" />
<circle cx="291.82" cy="228.82" r="6" fill="hsl(273, 80%, 65%)" />
<circle cx="247.85" cy="300.80" r="2" fill="hsl(280, 80%, 65%)" />
<circle cx="231.45" cy="216.98" r="3" fill="hsl(287, 80%, 65%)" />
<circle cx="301.00" cy="268.33" r="4" fill="hsl(294, 80%, 65%)" />
<circle cx="213.99" cy="277.56" r="5" fill="hsl(301, 80%, 65%)" />
<circle cx="272.60" cy="211.22" r="6" fill="hsl(308, 80%, 65%)" />
<circle cx="274.21" cy="300.73" r="2" fill="hsl(315, 80%, 65%)" />
<circle cx="211.87" cy="235.09" r="3" fill="hsl(322, 80%, 65%)" />
<circle cx="303.17" cy="241.46" r="4" fill="hsl(329, 80%, 65%)" />
<circle cx="230.78" cy="299.04" r="5" fill="hsl(336, 80%, 65%)" />
<circle cx="245.42" cy="206.72" r="6" fill="hsl(343, 80%, 65%)" />
<circle cx="297.51" cy="285.48" r="2" fill="hsl(350, 80%, 65%)" />
<circle cx="204.98" cy="262.36" r="3" fill="hsl(357, 80%, 65%)" />
<circle cx="289.65" cy="216.46" r="4" fill="hsl(4, 80%, 65%)" />
<circle cx="257.91" cy="308.38" r="5" fill="hsl(11, 80%, 65%)" />
<circle cx="218.86" cy="218.31" r="6" fill="hsl(18, 80%, 65%)" />
<circle cx="309.33" cy="258.73" r="2" fill="hsl(25, 80%, 65%)" />
<circle cx="214.46" cy="290.32" r="3" fill="hsl(32, 80%, 65%)" />
<circle cx="263.51" cy="202.16" r="4" fill="hsl(39, 80%, 65%)" />
<circle cx="287.10" cy="301.16" r="5" fill="hsl(46, 80%, 65%)" />
<circle cx="202.10" cy="243.60" r="6" fill="hsl(53, 80%, 65%)" />
<circle cx="304.52" cy="228.51" r="2" fill="hsl(60, 80%, 65%)" />
<circle cx="238.65" cy="309.49" r="3" fill="hsl(67, 80%, 65%)" />
<circle cx="232.47" cy="204.42" r="4" fill="hsl(74, 80%, 65%)" />
<circle cx="308.61" cy="278.32" r="5" fill="hsl(81, 80%, 65%)" />
<circle cx="201.70" cy="275.23" r="6" fill="hsl(88, 80%, 65%)" />
<circle cx="283.26" cy="204.75" r="2" fill="hsl(95, 80%, 65%)" />
<circle cx="270.63" cy="312.63" r="3" fill="hsl(102, 80%, 65%)" />
<circle cx="206.58" cy="223.88" r="4" fill="hsl(109, 80%, 65%)" />
<circle cx="314.56" cy="246.23" r="5" fill="hsl(116, 80%, 65%)" />
<circle cx="219.15" cy="303.11" r="6" fill="hsl(123, 80%, 65%)" />
<circle cx="251.32" cy="195.94" r="2" fill="hsl(130, 80%, 65%)" />
<circle cx="300.33" cy="297.42" r="3" fill="hsl(137, 80%, 65%)" />
<circle cx="194.91" cy="255.40" r="4" fill="hsl(144, 80%, 65%)" />
<circle cx="301.76" cy="214.89" r="5" fill="hsl(151, 80%, 65%)" />
<circle cx="249.98" cy="317.64" r="6" fill="hsl(158, 80%, 65%)" />
<circle cx="218.55" cy="206.15" r="2" fill="hsl(165, 80%, 65%)" />
<circle cx="317.70" cy="267.54" r="3" fill="hsl(172, 80%, 65%)" />
<circle cx="202.36" cy="289.39" r="4" fill="hsl(179, 80%, 65%)" />
<circle cx="273.11" cy="194.76" r="5" fill="hsl(186, 80%, 65%)" />
<circle cx="284.94" cy="313.08" r="6" fill="hsl(193, 80%, 65%)" />
<circle cx="195.73" cy="233.32" r="2" fill="hsl(200, 80%, 65%)" />
<circle cx="316.14" cy="231.86" r="3" fill="hsl(207, 80%, 65%)" />
<circle cx="227.79" cy="314.78" r="4" fill="hsl(214, 80%, 65%)" />
<circle cx="236.98" cy="193.22" r="5" fill="hsl(221, 80%, 65%)" />
<circle cx="312.77" cy="289.64" r="6" fill="hsl(228, 80%, 65%)" />
<circle cx="191.03" cy="269.62" r="2" fill="hsl(235, 80%, 65%)" />
<circle cx="294.93" cy="201.76" r="3" fill="hsl(242, 80%, 65%)" />
<circle cx="263.98" cy="322.68" r="4" fill="hsl(249, 80%, 65%)" />
<circle cx="204.78" cy="211.97" r="5" fill="hsl(256, 80%, 65%)" />
<circle cx="323.89" cy="253.86" r="6" fill="hsl(263, 80%, 65%)" />
<circle cx="207.12" cy="303.71" r="2" fill="hsl(270, 80%, 65%)" />
<circle cx="259.84" cy="187.42" r="3" fill="hsl(277, 80%, 65%)" />
<circle cx="299.73" cy="309.45" r="4" fill="hsl(284, 80%, 65%)" />
<circle cx="187.28" cy="246.07" r="5" fill="hsl(291, 80%, 65%)" />
<circle cx="313.69" cy="216.69" r="6" fill="hsl(298, 80%, 65%)" />
<circle cx="239.93" cy="324.31" r="2" fill="hsl(305, 80%, 65%)" />
<circle cx="221.53" cy="194.45" r="3" fill="hsl(312, 80%, 65%)" />
<circle cx="323.34" cy="278.21" r="4" fill="hsl(319, 80%, 65%)" />
<circle cx="191.01" cy="285.26" r="5" fill="hsl(326, 80%, 65%)" />
<circle cx="284.30" cy="190.19" r="6" fill="hsl(333, 80%, 65%)" />
<circle cx="279.71" cy="323.99" r="2" fill="hsl(340, 80%, 65%)" />
<circle cx="192.28" cy="221.71" r="3" fill="hsl(347, 80%, 65%)" />
<circle cx="326.49" cy="238.15" r="4" fill="hsl(354, 80%, 65%)" />
<circle cx="215.88" cy="317.07" r="5" fill="hsl(1, 80%, 65%)" />
<circle cx="244.27" cy="183.52" r="6" fill="hsl(8, 80%, 65%)" />
<circle cx="313.89" cy="301.74" r="2" fill="hsl(15, 80%, 65%)" />
<circle cx="182.07" cy="261.40" r="3" fill="hsl(22, 80%, 65%)" />
<circle cx="307.11" cy="201.82" r="4" fill="hsl(29, 80%, 65%)" />
<circle cx="254.90" cy="330.82" r="5" fill="hsl(36, 80%, 65%)" />
<circle cx="206.04" cy="199.83" r="6" fill="hsl(43, 80%, 65%)" />
<circle cx="331.12" cy="263.70" r="2" fill="hsl(50, 80%, 65%)" />
<circle cx="195.13" cy="301.27" r="3" fill="hsl(57, 80%, 65%)" />
<circle cx="270.37" cy="181.17" r="4" fill="hsl(64, 80%, 65%)" />
<circle cx="296.13" cy="321.17" r="5" fill="hsl(71, 80%, 65%)" />
<circle cx="182.06" cy="234.96" r="6" fill="hsl(78, 80%, 65%)" />
<circle cx="325.03" cy="221.42" r="2" fill="hsl(85, 80%, 65%)" />
<circle cx="228.34" cy="328.44" r="3" fill="hsl(92, 80%, 65%)" />
<circle cx="227.34" cy="183.58" r="4" fill="hsl(99, 80%, 65%)" />
<circle cx="326.35" cy="290.18" r="5" fill="hsl(106, 80%, 65%)" />
<circle cx="180.72" cy="278.41" r="6" fill="hsl(113, 80%, 65%)" />
<circle cx="296.54" cy="188.35" r="2" fill="hsl(120, 80%, 65%)" />
<circle cx="271.87" cy="333.59" r="3" fill="hsl(127, 80%, 65%)" />
<circle cx="191.62" cy="209.31" r="4" fill="hsl(134, 80%, 65%)" />
<circle cx="335.33" cy="246.90" r="5" fill="hsl(141, 80%, 65%)" />
<circle cx="203.44" cy="316.54" r="6" fill="hsl(148, 80%, 65%)" />
<circle cx="253.85" cy="175.53" r="2" fill="hsl(155, 80%, 65%)" />
<circle cx="312.16" cy="314.12" r="3" fill="hsl(162, 80%, 65%)" />
<circle cx="175.01" cy="251.07" r="4" fill="hsl(169, 80%, 65%)" />
<circle cx="319.30" cy="204.73" r="5" fill="hsl(176, 80%, 65%)" />
<circle cx="243.91" cy="336.88" r="6" fill="hsl(183, 80%, 65%)" />
<circle cx="210.11" cy="187.93" r="2" fill="hsl(190, 80%, 65%)" />
<circle cx="336.13" cy="275.26" r="3" fill="hsl(197, 80%, 65%)" />
<circle cx="183.63" cy="296.07" r="4" fill="hsl(204, 80%, 65%)" />
<circle cx="282.39" cy="177.27" r="5" fill="hsl(211, 80%, 65%)" />
<circle cx="289.85" cy="332.16" r="6" fill="hsl(218, 80%, 65%)" />
<circle cx="179.31" cy="222.58" r="2" fill="hsl(225, 80%, 65%)" />
<circle cx="335.42" cy="228.74" r="3" fill="hsl(232, 80%, 65%)" />
<circle cx="215.71" cy="330.02" r="4" fill="hsl(239, 80%, 65%)" />
<circle cx="235.64" cy="173.91" r="5" fill="hsl(246, 80%, 65%)" />
<circle cx="326.72" cy="302.95" r="6" fill="hsl(253, 80%, 65%)" />
<circle cx="171.84" cy="269.20" r="2" fill="hsl(260, 80%, 65%)" />
<circle cx="309.33" cy="189.18" r="3" fill="hsl(267, 80%, 65%)" />
<circle cx="261.83" cy="341.60" r="4" fill="hsl(274, 80%, 65%)" />
<circle cx="193.66" cy="196.61" r="5" fill="hsl(281, 80%, 65%)" />
<circle cx="342.38" cy="257.69" r="6" fill="hsl(288, 80%, 65%)" />
<circle cx="190.94" cy="313.31" r="2" fill="hsl(295, 80%, 65%)" />
<circle cx="265.30" cy="169.50" r="3" fill="hsl(302, 80%, 65%)" />
<circle cx="307.75" cy="326.30" r="4" fill="hsl(309, 80%, 65%)" />
<circle cx="170.06" cy="239.06" r="5" fill="hsl(316, 80%, 65%)" />
<circle cx="331.06" cy="210.28" r="6" fill="hsl(323, 80%, 65%)" />
<circle cx="231.45" cy="340.70" r="2" fill="hsl(330, 80%, 65%)" />
<circle cx="216.76" cy="176.70" r="3" fill="hsl(337, 80%, 65%)" />
<circle cx="338.77" cy="288.07" r="4" fill="hsl(344, 80%, 65%)" />
<circle cx="173.03" cy="288.37" r="5" fill="hsl(351, 80%, 65%)" />
<circle cx="295.44" cy="175.83" r="6" fill="hsl(358, 80%, 65%)" />
<circle cx="281.15" cy="342.04" r="2" fill="hsl(5, 80%, 65%)" />
<circle cx="179.09" cy="209.40" r="3" fill="hsl(12, 80%, 65%)" />
<circle cx="344.47" cy="238.35" r="4" fill="hsl(19, 80%, 65%)" />
<circle cx="202.51" cy="329.01" r="5" fill="hsl(26, 80%, 65%)" />
<circle cx="246.09" cy="165.75" r="6" fill="hsl(33, 80%, 65%)" />
<circle cx="324.48" cy="316.04" r="2" fill="hsl(40, 80%, 65%)" />
<circle cx="164.66" cy="257.99" r="3" fill="hsl(47, 80%, 65%)" />
<circle cx="322.21" cy="192.64" r="4" fill="hsl(54, 80%, 65%)" />
<circle cx="249.96" cy="347.72" r="5" fill="hsl(61, 80%, 65%)" />
<circle cx="198.32" cy="184.07" r="6" fill="hsl(68, 80%, 65%)" />
<circle cx="347.40" cy="270.12" r="2" fill="hsl(75, 80%, 65%)" />
<circle cx="178.83" cy="307.49" r="3" fill="hsl(82, 80%, 65%)" />
<circle cx="278.19" cy="165.64" r="4" fill="hsl(89, 80%, 65%)" />
<circle cx="300.81" cy="337.86" r="5" fill="hsl(96, 80%, 65%)" />
<circle cx="167.40" cy="225.82" r="6" fill="hsl(103, 80%, 65%)" />
<circle cx="341.97" cy="218.30" r="2" fill="hsl(110, 80%, 65%)" />
<circle cx="217.96" cy="342.13" r="3" fill="hsl(117, 80%, 65%)" />
<circle cx="225.78" cy="166.54" r="4" fill="hsl(124, 80%, 65%)" />
<circle cx="338.95" cy="301.69" r="5" fill="hsl(131, 80%, 65%)" />
<circle cx="163.71" cy="278.41" r="6" fill="hsl(138, 80%, 65%)" />
<circle cx="309.07" cy="176.91" r="2" fill="hsl(145, 80%, 65%)" />
<circle cx="270.34" cy="350.44" r="3" fill="hsl(152, 80%, 65%)" />
<circle cx="181.43" cy="195.88" r="4" fill="hsl(159, 80%, 65%)" />
<circle cx="351.87" cy="249.94" r="5" fill="hsl(166, 80%, 65%)" />
<circle cx="189.22" cy="325.42" r="6" fill="hsl(173, 80%, 65%)" />
<circle cx="258.36" cy="159.43" r="2" fill="hsl(180, 80%, 65%)" />
<circle cx="319.67" cy="329.00" r="3" fill="hsl(187, 80%, 65%)" />
<circle cx="159.47" cy="245.15" r="4" fill="hsl(194, 80%, 65%)" />
<circle cx="334.72" cy="198.64" r="5" fill="hsl(201, 80%, 65%)" />
<circle cx="236.65" cy="351.73" r="6" fill="hsl(208, 80%, 65%)" />
<circle cx="205.47" cy="172.11" r="2" fill="hsl(215, 80%, 65%)" />
<circle cx="350.18" cy="283.80" r="3" fill="hsl(222, 80%, 65%)" />
<circle cx="167.54" cy="299.24" r="4" fill="hsl(229, 80%, 65%)" />
<circle cx="292.12" cy="164.12" r="5" fill="hsl(236, 80%, 65%)" />
<circle cx="291.53" cy="348.39" r="6" fill="hsl(243, 80%, 65%)" />
<circle cx="167.16" cy="211.76" r="2" fill="hsl(250, 80%, 65%)" />
<circle cx="351.64" cy="228.54" r="3" fill="hsl(257, 80%, 65%)" />
<circle cx="203.89" cy="341.07" r="4" fill="hsl(264, 80%, 65%)" />
<circle cx="236.91" cy="157.81" r="5" fill="hsl(271, 80%, 65%)" />
<circle cx="336.61" cy="315.66" r="6" fill="hsl(278, 80%, 65%)" />
<circle cx="156.01" cy="266.49" r="2" fill="hsl(285, 80%, 65%)" />
<circle cx="322.82" cy="180.53" r="3" fill="hsl(292, 80%, 65%)" />
<circle cx="257.71" cy="357.04" r="4" fill="hsl(299, 80%, 65%)" />
<circle cx="186.31" cy="182.46" r="5" fill="hsl(306, 80%, 65%)" />
<circle cx="357.32" cy="263.16" r="6" fill="hsl(313, 80%, 65%)" />
<circle cx="176.25" cy="319.31" r="2" fill="hsl(320, 80%, 65%)" />
<circle cx="272.08" cy="155.20" r="3" fill="hsl(327, 80%, 65%)" />
<circle cx="312.38" cy="341.40" r="4" fill="hsl(334, 80%, 65%)" />
<circle cx="156.50" cy="231.05" r="5" fill="hsl(341, 80%, 65%)" />
<circle cx="346.45" cy="207.06" r="6" fill="hsl(348, 80%, 65%)" />
<circle cx="222.28" cy="353.42" r="2" fill="hsl(355, 80%, 65%)" />
<circle cx="214.96" cy="161.16" r="3" fill="hsl(2, 80%, 65%)" />
<circle cx="350.56" cy="298.31" r="4" fill="hsl(9, 80%, 65%)" />
<circle cx="157.46" cy="288.75" r="5" fill="hsl(16, 80%, 65%)" />
<circle cx="306.66" cy="165.07" r="6" fill="hsl(23, 80%, 65%)" />
<circle cx="280.13" cy="357.51" r="2" fill="hsl(30, 80%, 65%)" />
<circle cx="169.44" cy="197.31" r="3" fill="hsl(37, 80%, 65%)" />
<circle cx="359.72" cy="240.77" r="4" fill="hsl(44, 80%, 65%)" />
<circle cx="189.65" cy="337.49" r="5" fill="hsl(51, 80%, 65%)" />
<circle cx="249.87" cy="150.85" r="6" fill="hsl(58, 80%, 65%)" />
<circle cx="331.73" cy="329.56" r="2" fill="hsl(65, 80%, 65%)" />
<circle cx="150.23" cy="252.90" r="3" fill="hsl(72, 80%, 65%)" />
<circle cx="336.27" cy="186.68" r="4" fill="hsl(79, 80%, 65%)" />
<circle cx="243.61" cy="361.58" r="5" fill="hsl(86, 80%, 65%)" />
<circle cx="193.67" cy="169.58" r="6" fill="hsl(93, 80%, 65%)" />
<circle cx="360.57" cy="277.67" r="2" fill="hsl(100, 80%, 65%)" />
<circle cx="164.05" cy="310.78" r="3" fill="hsl(107, 80%, 65%)" />
<circle cx="286.87" cy="153.26" r="4" fill="hsl(114, 80%, 65%)" />
<circle cx="302.74" cy="352.83" r="5" fill="hsl(121, 80%, 65%)" />
<circle cx="155.90" cy="216.09" r="6" fill="hsl(128, 80%, 65%)" />
<circle cx="356.99" cy="217.73" r="2" fill="hsl(135, 80%, 65%)" />
<circle cx="207.27" cy="352.65" r="3" fill="hsl(142, 80%, 65%)" />
<circle cx="226.58" cy="151.59" r="4" fill="hsl(149, 80%, 65%)" />
<circle cx="348.43" cy="313.24" r="5" fill="hsl(156, 80%, 65%)" />
<circle cx="148.95" cy="276.27" r="6" fill="hsl(163, 80%, 65%)" />
<circle cx="321.39" cy="168.55" r="2" fill="hsl(170, 80%, 65%)" />
<circle cx="266.88" cy="364.89" r="3" fill="hsl(177, 80%, 65%)" />
<circle cx="174.25" cy="182.90" r="4" fill="hsl(184, 80%, 65%)" />
<circle cx="365.90" cy="254.67" r="5" fill="hsl(191, 80%, 65%)" />
<circle cx="175.69" cy="331.37" r="6" fill="hsl(198, 80%, 65%)" />
<circle cx="264.32" cy="145.94" r="2" fill="hsl(205, 80%, 65%)" />
<circle cx="324.35" cy="342.96" r="3" fill="hsl(212, 80%, 65%)" />
<circle cx="146.63" cy="238.01" r="4" fill="hsl(219, 80%, 65%)" />
<circle cx="349.00" cy="195.26" r="5" fill="hsl(226, 80%, 65%)" />
<circle cx="228.40" cy="363.83" r="6" fill="hsl(233, 80%, 65%)" />
<circle cx="203.40" cy="157.64" r="2" fill="hsl(240, 80%, 65%)" />
<circle cx="361.45" cy="293.07" r="3" fill="hsl(247, 80%, 65%)" />
<circle cx="152.99" cy="299.98" r="4" fill="hsl(254, 80%, 65%)" />
<circle cx="302.34" cy="153.78" r="5" fill="hsl(261, 80%, 65%)" />
<circle cx="290.95" cy="362.90" r="6" fill="hsl(268, 80%, 65%)" />
<circle cx="157.82" cy="200.67" r="2" fill="hsl(275, 80%, 65%)" />
<circle cx="365.99" cy="230.42" r="3" fill="hsl(282, 80%, 65%)" />
<circle cx="192.04" cy="349.35" r="4" fill="hsl(289, 80%, 65%)" />
<circle cx="240.07" cy="143.74" r="5" fill="hsl(296, 80%, 65%)" />
<circle cx="343.75" cy="328.17" r="6" fill="hsl(303, 80%, 65%)" />
<circle cx="142.32" cy="262.08" r="2" fill="hsl(310, 80%, 65%)" />
<circle cx="335.88" cy="174.57" r="3" fill="hsl(317, 80%, 65%)" />
<circle cx="252.10" cy="370.23" r="4" fill="hsl(324, 80%, 65%)" />
<circle cx="181.57" cy="168.96" r="5" fill="hsl(331, 80%, 65%)" />
<circle cx="369.90" cy="269.93" r="6" fill="hsl(338, 80%, 65%)" />
<circle cx="162.42" cy="322.80" r="2" fill="hsl(345, 80%, 65%)" />
<circle cx="279.93" cy="143.31" r="3" fill="hsl(352, 80%, 65%)" />
<circle cx="314.59" cy="355.45" r="4" fill="hsl(359, 80%, 65%)" />
<circle cx="145.41" cy="222.18" r="5" fill="hsl(6, 80%, 65%)" />
<circle cx="360.59" cy="206.14" r="6" fill="hsl(13, 80%, 65%)" />
</svg>
