<svg xmlns="http://www.w3.org/2000/svg" width="512" height="512" viewBox="0 0 512 512">
<rect width="100%" height="100%" fill="#0b1020"/>
<circle cx="399" cy="93" r="40" fill="#f8f3c9" opacity="0.95" />
<circle cx="176.0" cy="76.0" r="2.6" fill="white" />
<circle cx="36.0" cy="83.0" r="1.6" fill="white" />
<circle cx="200.0" cy="71.0" r="1.6" fill="white" />
<circle cx="43.0" cy="141.0" r="3.1" fill="white" />
<circle cx="276.0" cy="40.0" r="2.5" fill="white" />
<circle cx="367.0" cy="28.0" r="3.4" fill="white" />
<circle cx="98.0" cy="49.0" r="1.7" fill="white" />
<circle cx="26.0" cy="111.0" r="3.0" fill="white" />
<circle cx="483.0" cy="32.0" r="2.4" fill="white" />
<circle cx="151.0" cy="162.0" r="3.1" fill="white" />
<circle cx="471.0" cy="100.0" r="2.7" fill="white" />
<circle cx="326.0" cy="170.0" r="1.6" fill="white" />
<circle cx="408.0" cy="25.0" r="2.1" fill="white" />
<path d="M 20 430 C 104 429, 165 442, 320 427 S 450 387, 512 417" stroke="#5dade2" stroke-width="5" fill="none" opacity="0.85" />
<line x1="0" y1="402" x2="512" y2="402" stroke="#445566" stroke-width="3" />
<polygon points="178,365 218,305 258,325 278,295 298,315 310,355 278,377 228,381" fill="#1e1e1e" />
<polygon points="253,305 266,283 276,307" fill="#1e1e1e" />
<line x1="308" y1="350" x2="338" y2="325" stroke="#1e1e1e" stroke-width="6" />
</svg>
