<svg xmlns="http://www.w3.org/2000/svg" width="512" height="512" viewBox="0 0 512 512">
<rect width="100%" height="100%" fill="#0b1020"/>
<circle cx="456" cy="89" r="48" fill="#f8f3c9" opacity="0.95" />
<circle cx="198.0" cy="58.0" r="1.6" fill="white" />
<circle cx="450.0" cy="76.0" r="3.0" fill="white" />
<circle cx="355.0" cy="85.0" r="1.8" fill="white" />
<circle cx="372.0" cy="63.0" r="1.6" fill="white" />
<circle cx="134.0" cy="101.0" r="3.2" fill="white" />
<circle cx="305.0" cy="145.0" r="2.3" fill="white" />
<circle cx="296.0" cy="74.0" r="2.7" fill="white" />
<circle cx="87.0" cy="30.0" r="2.8" fill="white" />
<circle cx="457.0" cy="44.0" r="1.8" fill="white" />
<circle cx="133.0" cy="178.0" r="1.7" fill="white" />
<circle cx="95.0" cy="167.0" r="3.2" fill="white" />
<circle cx="430.0" cy="44.0" r="2.1" fill="white" />
<circle cx="69.0" cy="125.0" r="2.3" fill="white" />
<circle cx="283.0" cy="119.0" r="2.5" fill="white" />
<circle cx="66.0" cy="26.0" r="2.9" fill="white" />
<path d="M 20 430 C 136 423, 185 443, 284 427 S 450 402, 512 432" stroke="#5dade2" stroke-width="6" fill="none" opacity="0.85" />
<line x1="0" y1="385" x2="512" y2="385" stroke="#445566" stroke-width="3" />
<polygon points="220,360 260,300 300,320 320,290 340,310 352,350 320,372 270,376" fill="#1e1e1e" />
<polygon points="295,300 308,278 318,302" fill="#1e1e1e" />
<line x1="350" y1="345" x2="380" y2="320" stroke="#1e1e1e" stroke-width="6" />
</svg>
