<svg xmlns="http://www.w3.org/2000/svg" width="512" height="512" viewBox="0 0 512 512">
<rect width="100%" height="100%" fill="#0b1020"/>
<circle cx="455" cy="105" r="40" fill="#f8f3c9" opacity="0.95" />
<circle cx="366.0" cy="71.0" r="2.2" fill="white" />
<circle cx="183.0" cy="151.0" r="3.3" fill="white" />
<circle cx="235.0" cy="70.0" r="2.3" fill="white" />
<circle cx="259.0" cy="40.0" r="3.1" fill="white" />
<circle cx="492.0" cy="180.0" r="3.1" fill="white" />
<circle cx="29.0" cy="75.0" r="2.7" fill="white" />
<circle cx="197.0" cy="134.0" r="2.5" fill="white" />
<circle cx="368.0" cy="41.0" r="3.0" fill="white" />
<circle cx="324.0" cy="85.0" r="1.7" fill="white" />
<path d="M 20 430 C 103 414, 193 457, 302 420 S 450 389, 512 419" stroke="#5dade2" stroke-width="5" fill="none" opacity="0.85" />
<line x1="0" y1="394" x2="512" y2="394" stroke="#445566" stroke-width="4" />
<polygon points="217,355 257,295 297,315 317,285 337,305 349,345 317,367 267,371" fill="#1e1e1e" />
<polygon points="292,295 305,273 315,297" fill="#1e1e1e" />
<line x1="347" y1="340" x2="377" y2="315" stroke="#1e1e1e" stroke-width="6" />
</svg>
