<svg xmlns="http://www.w3.org/2000/svg" width="512" height="512" viewBox="0 0 512 512">
<rect width="100%" height="100%" fill="#0b1020"/>
<circle cx="347" cy="123" r="55" fill="#f8f3c9" opacity="0.95" />
<circle cx="149.0" cy="70.0" r="2.5" fill="white" />
<circle cx="392.0" cy="93.0" r="1.5" fill="white" />
<circle cx="169.0" cy="81.0" r="3.4" fill="white" />
<circle cx="396.0" cy="178.0" r="3.0" fill="white" />
<circle cx="122.0" cy="119.0" r="2.5" fill="white" />
<circle cx="180.0" cy="141.0" r="2.7" fill="white" />
<circle cx="440.0" cy="126.0" r="2.3" fill="white" />
<circle cx="271.0" cy="126.0" r="3.5" fill="white" />
<circle cx="477.0" cy="173.0" r="3.5" fill="white" />
<circle cx="236.0" cy="149.0" r="3.5" fill="white" />
<circle cx="257.0" cy="163.0" r="3.2" fill="white" />
<circle cx="203.0" cy="26.0" r="3.4" fill="white" />
<circle cx="213.0" cy="128.0" r="3.3" fill="white" />
<circle cx="20.0" cy="22.0" r="2.9" fill="white" />
<circle cx="438.0" cy="157.0" r="3.3" fill="white" />
<path d="M 20 430 C 113 417, 173 447, 285 426 S 450 405, 512 435" stroke="#5dade2" stroke-width="7" fill="none" opacity="0.85" />
<line x1="0" y1="407" x2="512" y2="407" stroke="#445566" stroke-width="4" />
<polygon points="191,361 231,301 271,321 291,291 311,311 323,351 291,373 241,377" fill="#1e1e1e" />
<polygon points="266,301 279,279 289,303" fill="#1e1e1e" />
<line x1="321" y1="346" x2="351" y2="321" stroke="#1e1e1e" stroke-width="6" />
</svg>
