<svg xmlns="http://www.w3.org/2000/svg" width="512" height="512" viewBox="0 0 512 512">
<rect width="100%" height="100%" fill="#0b1020"/>
<circle cx="412" cy="138" r="52" fill="#f8f3c9" opacity="0.95" />
<circle cx="35.0" cy="88.0" r="2.5" fill="white" />
<circle cx="157.0" cy="158.0" r="1.5" fill="white" />
<circle cx="250.0" cy="150.0" r="1.7" fill="white" />
<circle cx="41.0" cy="125.0" r="2.4" fill="white" />
<circle cx="468.0" cy="111.0" r="3.2" fill="white" />
<path d="M 20 430 C 114 427, 190 443, 301 428 S 450 386, 512 416" stroke="#5dade2" stroke-width="5" fill="none" opacity="0.85" />
<line x1="0" y1="401" x2="512" y2="401" stroke="#445566" stroke-width="4" />
<polygon points="211,365 251,305 291,325 311,295 331,315 343,355 311,377 261,381" fill="#1e1e1e" />
<polygon points="286,305 299,283 309,307" fill="#1e1e1e" />
<line x1="341" y1="350" x2="371" y2="325" stroke="#1e1e1e" stroke-width="6" />
</svg>
