<svg xmlns="http://www.w3.org/2000/svg" width="512" height="512" viewBox="0 0 512 512">
<rect width="100%" height="100%" fill="#0b1020"/>
<circle cx="345" cy="82" r="52" fill="#f8f3c9" opacity="0.95" />
<circle cx="174.0" cy="122.0" r="3.4" fill="white" />
<circle cx="327.0" cy="123.0" r="3.3" fill="white" />
<circle cx="93.0" cy="73.0" r="3.2" fill="white" />
<circle cx="141.0" cy="79.0" r="3.3" fill="white" />
<circle cx="432.0" cy="134.0" r="2.0" fill="white" />
<circle cx="168.0" cy="54.0" r="2.4" fill="white" />
<circle cx="64.0" cy="50.0" r="2.0" fill="white" />
<circle cx="370.0" cy="31.0" r="1.9" fill="white" />
<circle cx="103.0" cy="150.0" r="2.5" fill="white" />
<path d="M 20 430 C 117 429, 199 459, 320 439 S 450 383, 512 413" stroke="#5dade2" stroke-width="6" fill="none" opacity="0.85" />
<line x1="0" y1="411" x2="512" y2="411" stroke="#445566" stroke-width="3" />
<polygon points="199,350 239,290 279,310 299,280 319,300 331,340 299,362 249,366" fill="#1e1e1e" />
<polygon points="274,290 287,268 297,292" fill="#1e1e1e" />
<line x1="329" y1="335" x2="359" y2="310" stroke="#1e1e1e" stroke-width="6" />
</svg>
