<svg xmlns="http://www.w3.org/2000/svg" width="512" height="512" viewBox="0 0 512 512">
<rect width="100%" height="100%" fill="#0b1020"/>
<circle cx="381" cy="111" r="52" fill="#f8f3c9" opacity="0.95" />
<circle cx="117.0" cy="31.0" r="2.5" fill="white" />
<circle cx="380.0" cy="22.0" r="3.5" fill="white" />
<circle cx="145.0" cy="83.0" r="2.0" fill="white" />
<circle cx="250.0" cy="97.0" r="2.9" fill="white" />
<circle cx="169.0" cy="128.0" r="3.3" fill="white" />
<circle cx="119.0" cy="134.0" r="3.2" fill="white" />
<path d="M 20 430 C 136 411, 183 458, 316 422 S 450 403, 512 433" stroke="#5dade2" stroke-width="5" fill="none" opacity="0.85" />
<line x1="0" y1="411" x2="512" y2="411" stroke="#445566" stroke-width="3" />
<polygon points="154,354 194,294 234,314 254,284 274,304 286,344 254,366 204,370" fill="#1e1e1e" />
<polygon points="229,294 242,272 252,296" fill="#1e1e1e" />
<line x1="284" y1="339" x2="314" y2="314" stroke="#1e1e1e" stroke-width="6" />
</svg>
