<svg xmlns="http://www.w3.org/2000/svg" width="512" height="512" viewBox="0 0 512 512">
<rect width="100%" height="100%" fill="#0b1020"/>
<circle cx="449" cy="88" r="49" fill="#f8f3c9" opacity="0.95" />
<circle cx="252.0" cy="151.0" r="2.1" fill="white" />
<circle cx="452.0" cy="41.0" r="2.7" fill="white" />
<circle cx="274.0" cy="87.0" r="2.6" fill="white" />
<circle cx="319.0" cy="61.0" r="2.5" fill="white" />
<circle cx="422.0" cy="114.0" r="2.7" fill="white" />
<circle cx="234.0" cy="153.0" r="1.7" fill="white" />
<circle cx="466.0" cy="68.0" r="1.6" fill="white" />
<circle cx="309.0" cy="93.0" r="1.6" fill="white" />
<circle cx="199.0" cy="146.0" r="2.2" fill="white" />
<circle cx="286.0" cy="46.0" r="2.8" fill="white" />
<circle cx="293.0" cy="128.0" r="1.6" fill="white" />
<circle cx="424.0" cy="56.0" r="2.7" fill="white" />
<path d="M 20 430 C 111 426, 163 451, 302 428 S 450 393, 512 423" stroke="#5dade2" stroke-width="5" fill="none" opacity="0.85" />
<line x1="0" y1="392" x2="512" y2="392" stroke="#445566" stroke-width="3" />
<polygon points="182,351 222,291 262,311 282,281 302,301 314,341 282,363 232,367" fill="#1e1e1e" />
<polygon points="257,291 270,269 280,293" fill="#1e1e1e" />
<line x1="312" y1="336" x2="342" y2="311" stroke="#1e1e1e" stroke-width="6" />
</svg>
