<svg xmlns="http://www.w3.org/2000/svg" width="512" height="512" viewBox="0 0 512 512">
<rect width="100%" height="100%" fill="#0b1020"/>
<circle cx="416" cy="132" r="50" fill="#f8f3c9" opacity="0.95" />
<circle cx="79.0" cy="129.0" r="3.4" fill="white" />
<circle cx="254.0" cy="70.0" r="2.2" fill="white" />
<circle cx="471.0" cy="63.0" r="3.0" fill="white" />
<circle cx="466.0" cy="122.0" r="2.4" fill="white" />
<circle cx="275.0" cy="152.0" r="2.5" fill="white" />
<circle cx="255.0" cy="113.0" r="2.2" fill="white" />
<circle cx="381.0" cy="111.0" r="2.1" fill="white" />
<circle cx="110.0" cy="172.0" r="2.3" fill="white" />
<circle cx="131.0" cy="165.0" r="2.6" fill="white" />
<circle cx="213.0" cy="42.0" r="1.8" fill="white" />
<path d="M 20 430 C 131 424, 200 447, 280 439 S 450 403, 512 433" stroke="#5dade2" stroke-width="7" fill="none" opacity="0.85" />
<line x1="0" y1="386" x2="512" y2="386" stroke="#445566" stroke-width="2" />
<polygon points="159,361 199,301 239,321 259,291 279,311 291,351 259,373 209,377" fill="#1e1e1e" />
<polygon points="234,301 247,279 257,303" fill="#1e1e1e" />
<line x1="289" y1="346" x2="319" y2="321" stroke="#1e1e1e" stroke-width="6" />
</svg>
