<svg xmlns="http://www.w3.org/2000/svg" width="512" height="512" viewBox="0 0 512 512">
<rect width="100%" height="100%" fill="#0b1020"/>
<circle cx="342" cy="127" r="49" fill="#f8f3c9" opacity="0.95" />
<circle cx="432.0" cy="156.0" r="2.2" fill="white" />
<circle cx="249.0" cy="141.0" r="1.9" fill="white" />
<circle cx="33.0" cy="61.0" r="3.4" fill="white" />
<circle cx="33.0" cy="41.0" r="3.2" fill="white" />
<circle cx="51.0" cy="134.0" r="2.5" fill="white" />
<circle cx="200.0" cy="86.0" r="2.0" fill="white" />
<circle cx="244.0" cy="78.0" r="1.9" fill="white" />
<circle cx="130.0" cy="32.0" r="2.8" fill="white" />
<circle cx="303.0" cy="159.0" r="2.0" fill="white" />
<circle cx="450.0" cy="33.0" r="2.8" fill="white" />
<circle cx="210.0" cy="138.0" r="1.7" fill="white" />
<circle cx="407.0" cy="98.0" r="2.7" fill="white" />
<path d="M 20 430 C 113 413, 161 440, 297 429 S 450 403, 512 433" stroke="#5dade2" stroke-width="8" fill="none" opacity="0.85" />
<line x1="0" y1="402" x2="512" y2="402" stroke="#445566" stroke-width="4" />
<polygon points="161,358 201,298 241,318 261,288 281,308 293,348 261,370 211,374" fill="#1e1e1e" />
<polygon points="236,298 249,276 259,300" fill="#1e1e1e" />
<line x1="291" y1="343" x2="321" y2="318" stroke="#1e1e1e" stroke-width="6" />
</svg>
