<svg xmlns="http://www.w3.org/2000/svg" width="512" height="512" viewBox="0 0 512 512">
<rect width="100%" height="100%" fill="black"/>
<polyline points="0.00,256.00 4.00,257.63 8.00,259.25 12.00,260.86 16.00,262.45 20.00,264.02 24.00,265.55 28.00,267.05 32.00,268.51 36.00,269.92 40.00,271.28 44.00,272.58 48.00,273.82 52.00,275.00 56.00,276.10 60.00,277.12 64.00,278.07 68.00,278.93 72.00,279.71 76.00,280.39 80.00,280.99 84.00,281.49 88.00,281.90 92.00,282.21 96.00,282.42 100.00,282.53 104.00,282.54 108.00,282.45 112.00,282.26 116.00,281.97 120.00,281.58 124.00,281.10 128.00,280.53 132.00,279.86 136.00,279.10 140.00,278.26 144.00,277.33 148.00,276.32 152.00,275.23 156.00,274.07 160.00,272.85 164.00,271.56 168.00,270.21 172.00,268.81 176.00,267.36 180.00,265.87 184.00,264.34 188.00,262.78 192.00,261.19 196.00,259.59 200.00,257.97 204.00,256.34 208.00,254.71 212.00,253.09 216.00,251.48 220.00,249.88 224.00,248.31 228.00,246.77 232.00,245.26 236.00,243.79 240.00,242.37 244.00,241.00 248.00,239.68 252.00,238.43 256.00,237.24 260.00,236.13 264.00,235.09 268.00,234.12 272.00,233.24 276.00,232.45 280.00,231.74 284.00,231.13 288.00,230.61 292.00,230.18 296.00,229.85 300.00,229.62 304.00,229.49 308.00,229.46 312.00,229.53 316.00,229.69 320.00,229.96 324.00,230.33 328.00,230.79 332.00,231.35 336.00,231.99 340.00,232.73 344.00,233.56 348.00,234.47 352.00,235.47 356.00,236.54 360.00,237.68 364.00,238.89 368.00,240.17 372.00,241.50 376.00,242.89 380.00,244.33 384.00,245.82 388.00,247.34 392.00,248.89 396.00,250.47 400.00,252.08 404.00,253.69 408.00,255.32 412.00,256.95 416.00,258.57 420.00,260.19 424.00,261.79 428.00,263.36 432.00,264.91 436.00,266.43 440.00,267.91 444.00,269.34 448.00,270.72 452.00,272.05 456.00,273.31 460.00,274.51 464.00,275.65 468.00,276.70 472.00,277.68 476.00,278.58 480.00,279.39 484.00,280.12 488.00,280.75 492.00,281.29 496.00,281.74 500.00,282.09 504.00,282.34 508.00,282.49 512.00,282.54" fill="none" stroke="#66ccff" stroke-width="2"/>
<polyline points="0.00,321.46 4.00,323.22 8.00,324.58 12.00,325.54 16.00,326.09 20.00,326.22 24.00,325.94 28.00,325.25 32.00,324.15 36.00,322.65 40.00,320.76 44.00,318.48 48.00,315.83 52.00,312.84 56.00,309.50 60.00,305.85 64.00,301.91 68.00,297.70 72.00,293.24 76.00,288.56 80.00,283.69 84.00,278.65 88.00,273.48 92.00,268.21 96.00,262.87 100.00,257.48 104.00,252.09 108.00,246.72 112.00,241.41 116.00,236.18 120.00,231.06 124.00,226.10 128.00,221.31 132.00,216.73 136.00,212.38 140.00,208.28 144.00,204.47 148.00,200.96 152.00,197.77 156.00,194.93 160.00,192.45 164.00,190.34 168.00,188.62 172.00,187.30 176.00,186.39 180.00,185.88 184.00,185.79 188.00,186.11 192.00,186.84 196.00,187.98 200.00,189.53 204.00,191.46 208.00,193.78 212.00,196.46 216.00,199.50 220.00,202.86 224.00,206.54 228.00,210.52 232.00,214.76 236.00,219.24 240.00,223.94 244.00,228.83 248.00,233.88 252.00,239.06 256.00,244.34 260.00,249.69 264.00,255.08 268.00,260.47 272.00,265.83 276.00,271.14 280.00,276.36 284.00,281.46 288.00,286.41 292.00,291.17 296.00,295.74 300.00,300.06 304.00,304.13 308.00,307.91 312.00,311.39 316.00,314.54 320.00,317.34 324.00,319.79 328.00,321.85 332.00,323.53 336.00,324.81 340.00,325.69 344.00,326.15 348.00,326.20 352.00,325.83 356.00,325.06 360.00,323.87 364.00,322.29 368.00,320.31 372.00,317.96 376.00,315.24 380.00,312.17 384.00,308.77 388.00,305.06 392.00,301.06 396.00,296.79 400.00,292.28 404.00,287.56 408.00,282.65 412.00,277.59 416.00,272.39 420.00,267.11 424.00,261.75 428.00,256.36 432.00,250.97 436.00,245.61 440.00,240.31 444.00,235.10 448.00,230.02 452.00,225.09 456.00,220.34 460.00,215.80 464.00,211.50 468.00,207.46 472.00,203.71 476.00,200.27 480.00,197.15 484.00,194.39 488.00,191.98 492.00,189.95 496.00,188.32 500.00,187.08 504.00,186.25 508.00,185.83 512.00,185.82" fill="none" stroke="#ff66cc" stroke-width="2"/>
<polyline points="0.00,311.21 4.00,303.84 8.00,295.83 12.00,287.29 16.00,278.32 20.00,269.05 24.00,259.60 28.00,250.11 32.00,240.69 36.00,231.48 40.00,222.60 44.00,214.18 48.00,206.31 52.00,199.12 56.00,192.70 60.00,187.13 64.00,182.49 68.00,178.84 72.00,176.24 76.00,174.71 80.00,174.27 84.00,174.95 88.00,176.71 92.00,179.55 96.00,183.42 100.00,188.27 104.00,194.03 108.00,200.63 112.00,207.97 116.00,215.97 120.00,224.51 124.00,233.47 128.00,242.73 132.00,252.17 136.00,261.67 140.00,271.09 144.00,280.30 148.00,289.19 152.00,297.63 156.00,305.51 160.00,312.72 164.00,319.16 168.00,324.75 172.00,329.41 176.00,333.08 180.00,335.72 184.00,337.27 188.00,337.73 192.00,337.08 196.00,335.34 200.00,332.53 204.00,328.69 208.00,323.86 212.00,318.12 216.00,311.54 220.00,304.21 224.00,296.23 228.00,287.70 232.00,278.75 236.00,269.49 240.00,260.05 244.00,250.55 248.00,241.13 252.00,231.91 256.00,223.01 260.00,214.56 264.00,206.67 268.00,199.44 272.00,192.98 276.00,187.37 280.00,182.69 284.00,178.99 288.00,176.33 292.00,174.75 296.00,174.27 300.00,174.89 304.00,176.60 308.00,179.39 312.00,183.21 316.00,188.02 320.00,193.74 324.00,200.30 328.00,207.61 332.00,215.58 336.00,224.09 340.00,233.03 344.00,242.29 348.00,251.73 352.00,261.22 356.00,270.65 360.00,279.88 364.00,288.78 368.00,297.24 372.00,305.15 376.00,312.39 380.00,318.87 384.00,324.51 388.00,329.21 392.00,332.93 396.00,335.62 400.00,337.22 404.00,337.73 408.00,337.14 412.00,335.45 416.00,332.69 420.00,328.89 424.00,324.11 428.00,318.41 432.00,311.87 436.00,304.57 440.00,296.62 444.00,288.12 448.00,279.18 452.00,269.93 456.00,260.50 460.00,251.00 464.00,241.57 468.00,232.34 472.00,223.43 476.00,214.95 480.00,207.03 484.00,199.77 488.00,193.27 492.00,187.62 496.00,182.89 500.00,179.14 504.00,176.44 508.00,174.80 512.00,174.27" fill="none" stroke="#ffee66" stroke-width="2"/>
<line x1="0" y1="256" x2="512" y2="256" stroke="#223344" stroke-width="1"/>
</svg>
