<svg xmlns="http://www.w3.org/2000/svg" width="512" height="512" viewBox="0 0 512 512">
<rect width="100%" height="100%" fill="#0b1020"/>
<circle cx="405" cy="70" r="45" fill="#f8f3c9" opacity="0.95" />
<circle cx="466.0" cy="65.0" r="2.2" fill="white" />
<circle cx="203.0" cy="41.0" r="1.7" fill="white" />
<circle cx="305.0" cy="160.0" r="2.2" fill="white" />
<circle cx="189.0" cy="114.0" r="3.4" fill="white" />
<circle cx="51.0" cy="118.0" r="2.3" fill="white" />
<circle cx="230.0" cy="178.0" r="3.4" fill="white" />
<circle cx="462.0" cy="108.0" r="3.5" fill="white" />
<circle cx="431.0" cy="163.0" r="2.2" fill="white" />
<circle cx="418.0" cy="73.0" r="2.7" fill="white" />
<circle cx="208.0" cy="83.0" r="2.2" fill="white" />
<circle cx="444.0" cy="100.0" r="2.5" fill="white" />
<circle cx="130.0" cy="62.0" r="3.0" fill="white" />
<circle cx="343.0" cy="178.0" r="2.5" fill="white" />
<circle cx="86.0" cy="30.0" r="2.1" fill="white" />
<path d="M 20 430 C 112 414, 179 441, 307 427 S 450 397, 512 427" stroke="#5dade2" stroke-width="8" fill="none" opacity="0.85" />
<line x1="0" y1="392" x2="512" y2="392" stroke="#445566" stroke-width="2" />
<polygon points="198,357 238,297 278,317 298,287 318,307 330,347 298,369 248,373" fill="#1e1e1e" />
<polygon points="273,297 286,275 296,299" fill="#1e1e1e" />
<line x1="328" y1="342" x2="358" y2="317" stroke="#1e1e1e" stroke-width="6" />
</svg>
