<svg xmlns="http://www.w3.org/2000/svg" width="512" height="512" viewBox="0 0 512 512">
<rect width="100%" height="100%" fill="#0b1020"/>
<circle cx="362" cy="67" r="44" fill="#f8f3c9" opacity="0.95" />
<circle cx="471.0" cy="103.0" r="3.1" fill="white" />
<circle cx="68.0" cy="25.0" r="3.3" fill="white" />
<circle cx="282.0" cy="72.0" r="3.2" fill="white" />
<circle cx="303.0" cy="107.0" r="1.9" fill="white" />
<circle cx="30.0" cy="63.0" r="1.8" fill="white" />
<circle cx="286.0" cy="140.0" r="3.3" fill="white" />
<circle cx="70.0" cy="101.0" r="2.2" fill="white" />
<circle cx="175.0" cy="56.0" r="3.2" fill="white" />
<circle cx="291.0" cy="117.0" r="2.3" fill="white" />
<circle cx="167.0" cy="116.0" r="2.5" fill="white" />
<circle cx="115.0" cy="136.0" r="1.6" fill="white" />
<circle cx="188.0" cy="43.0" r="3.0" fill="white" />
<path d="M 20 430 C 109 413, 192 440, 313 438 S 450 393, 512 423" stroke="#5dade2" stroke-width="5" fill="none" opacity="0.85" />
<line x1="0" y1="400" x2="512" y2="400" stroke="#445566" stroke-width="3" />
<polygon points="193,365 233,305 273,325 293,295 313,315 325,355 293,377 243,381" fill="#1e1e1e" />
<polygon points="268,305 281,283 291,307" fill="#1e1e1e" />
<line x1="323" y1="350" x2="353" y2="325" stroke="#1e1e1e" stroke-width="6" />
</svg>
