<svg xmlns="http://www.w3.org/2000/svg" width="512" height="512" viewBox="0 0 512 512">
<rect width="100%" height="100%" fill="black"/>
<circle cx="256.00" cy="256.00" r="2" fill="hsl(0, 80%, 65%)" />
<circle cx="250.59" cy="260.95" r="3" fill="hsl(5, 80%, 65%)" />
<circle cx="256.91" cy="245.67" r="4" fill="hsl(10, 80%, 65%)" />
<circle cx="263.73" cy="266.08" r="5" fill="hsl(15, 80%, 65%)" />
<circle cx="241.56" cy="253.45" r="6" fill="hsl(20, 80%, 65%)" />
<circle cx="269.83" cy="247.20" r="2" fill="hsl(25, 80%, 65%)" />
<circle cx="251.34" cy="273.34" r="3" fill="hsl(30, 80%, 65%)" />
<circle cx="247.06" cy="238.79" r="4" fill="hsl(35, 80%, 65%)" />
<circle cx="275.48" cy="263.11" r="5" fill="hsl(40, 80%, 65%)" />
<circle cx="235.67" cy="264.39" r="6" fill="hsl(45, 80%, 65%)" />
<circle cx="265.83" cy="235.00" r="2" fill="hsl(50, 80%, 65%)" />
<circle cx="263.28" cy="279.20" r="3" fill="hsl(55, 80%, 65%)" />
<circle cx="234.03" cy="243.27" r="4" fill="hsl(60, 80%, 65%)" />
<circle cx="281.82" cy="250.32" r="5" fill="hsl(65, 80%, 65%)" />
<circle cx="240.22" cy="278.44" r="6" fill="hsl(70, 80%, 65%)" />
<circle cx="252.35" cy="227.84" r="2" fill="hsl(75, 80%, 65%)" />
<circle cx="278.42" cy="274.90" r="3" fill="hsl(80, 80%, 65%)" />
<circle cx="225.80" cy="257.25" r="4" fill="hsl(85, 80%, 65%)" />
<circle cx="278.05" cy="234.06" r="5" fill="hsl(90, 80%, 65%)" />
<circle cx="254.52" cy="287.92" r="6" fill="hsl(95, 80%, 65%)" />
<circle cx="234.99" cy="230.83" r="2" fill="hsl(100, 80%, 65%)" />
<circle cx="289.29" cy="260.48" r="3" fill="hsl(105, 80%, 65%)" />
<circle cx="227.77" cy="275.64" r="4" fill="hsl(110, 80%, 65%)" />
<circle cx="263.72" cy="221.70" r="5" fill="hsl(115, 80%, 65%)" />
<circle cx="273.86" cy="287.16" r="6" fill="hsl(120, 80%, 65%)" />
<circle cx="221.08" cy="244.86" r="2" fill="hsl(125, 80%, 65%)" />
<circle cx="289.93" cy="240.32" r="3" fill="hsl(130, 80%, 65%)" />
<circle cx="241.29" cy="291.14" r="4" fill="hsl(135, 80%, 65%)" />
<circle cx="242.87" cy="219.50" r="5" fill="hsl(140, 80%, 65%)" />
<circle cx="290.95" cy="274.37" r="6" fill="hsl(145, 80%, 65%)" />
<circle cx="217.17" cy="266.23" r="2" fill="hsl(150, 80%, 65%)" />
<circle cx="278.08" cy="221.67" r="3" fill="hsl(155, 80%, 65%)" />
<circle cx="263.02" cy="296.87" r="4" fill="hsl(160, 80%, 65%)" />
<circle cx="222.70" cy="230.21" r="5" fill="hsl(165, 80%, 65%)" />
<circle cx="298.60" cy="252.47" r="6" fill="hsl(170, 80%, 65%)" />
<circle cx="226.55" cy="287.84" r="2" fill="hsl(175, 80%, 65%)" />
<circle cx="256.21" cy="212.02" r="3" fill="hsl(180, 80%, 65%)" />
<circle cx="285.96" cy="289.03" r="4" fill="hsl(185, 80%, 65%)" />
<circle cx="211.00" cy="251.83" r="5" fill="hsl(190, 80%, 65%)" />
<circle cx="292.47" cy="228.32" r="6" fill="hsl(195, 80%, 65%)" />
<circle cx="247.70" cy="301.62" r="2" fill="hsl(200, 80%, 65%)" />
<circle cx="231.00" cy="216.27" r="3" fill="hsl(205, 80%, 65%)" />
<circle cx="301.82" cy="268.56" r="4" fill="hsl(210, 80%, 65%)" />
<circle cx="213.23" cy="277.95" r="5" fill="hsl(215, 80%, 65%)" />
<circle cx="272.90" cy="210.41" r="6" fill="hsl(220, 80%, 65%)" />
<circle cx="274.54" cy="301.55" r="2" fill="hsl(225, 80%, 65%)" />
<circle cx="211.07" cy="234.71" r="3" fill="hsl(230, 80%, 65%)" />
<circle cx="304.03" cy="241.19" r="4" fill="hsl(235, 80%, 65%)" />
<circle cx="230.32" cy="299.82" r="5" fill="hsl(240, 80%, 65%)" />
<circle cx="245.23" cy="205.83" r="6" fill="hsl(245, 80%, 65%)" />
<circle cx="298.26" cy="286.02" r="2" fill="hsl(250, 80%, 65%)" />
<circle cx="204.05" cy="262.47" r="3" fill="hsl(255, 80%, 65%)" />
<circle cx="290.26" cy="215.74" r="4" fill="hsl(260, 80%, 65%)" />
<circle cx="257.94" cy="309.33" r="5" fill="hsl(265, 80%, 65%)" />
<circle cx="218.19" cy="217.63" r="6" fill="hsl(270, 80%, 65%)" />
<circle cx="310.30" cy="258.78" r="2" fill="hsl(275, 80%, 65%)" />
<circle cx="213.71" cy="290.94" r="3" fill="hsl(280, 80%, 65%)" />
<circle cx="263.65" cy="201.18" r="4" fill="hsl(285, 80%, 65%)" />
<circle cx="287.66" cy="301.98" r="5" fill="hsl(290, 80%, 65%)" />
<circle cx="201.12" cy="243.37" r="6" fill="hsl(295, 80%, 65%)" />
<circle cx="305.41" cy="228.01" r="2" fill="hsl(300, 80%, 65%)" />
<circle cx="238.33" cy="310.46" r="3" fill="hsl(305, 80%, 65%)" />
<circle cx="232.05" cy="203.48" r="4" fill="hsl(310, 80%, 65%)" />
<circle cx="309.57" cy="278.73" r="5" fill="hsl(315, 80%, 65%)" />
<circle cx="200.72" cy="275.58" r="6" fill="hsl(320, 80%, 65%)" />
<circle cx="283.75" cy="203.82" r="2" fill="hsl(325, 80%, 65%)" />
<circle cx="270.90" cy="313.66" r="3" fill="hsl(330, 80%, 65%)" />
<circle cx="205.69" cy="223.30" r="4" fill="hsl(335, 80%, 65%)" />
<circle cx="315.63" cy="246.05" r="5" fill="hsl(340, 80%, 65%)" />
<circle cx="218.48" cy="303.96" r="6" fill="hsl(345, 80%, 65%)" />
<circle cx="251.23" cy="194.85" r="2" fill="hsl(350, 80%, 65%)" />
<circle cx="301.14" cy="298.17" r="3" fill="hsl(355, 80%, 65%)" />
<circle cx="193.80" cy="255.39" r="4" fill="hsl(0, 80%, 65%)" />
<circle cx="302.60" cy="214.14" r="5" fill="hsl(5, 80%, 65%)" />
<circle cx="249.87" cy="318.76" r="6" fill="hsl(10, 80%, 65%)" />
<circle cx="217.87" cy="205.24" r="2" fill="hsl(15, 80%, 65%)" />
<circle cx="318.82" cy="267.75" r="3" fill="hsl(20, 80%, 65%)" />
<circle cx="201.39" cy="290.00" r="4" fill="hsl(25, 80%, 65%)" />
<circle cx="273.42" cy="193.64" r="5" fill="hsl(30, 80%, 65%)" />
<circle cx="285.47" cy="314.11" r="6" fill="hsl(35, 80%, 65%)" />
<circle cx="194.63" cy="232.91" r="2" fill="hsl(40, 80%, 65%)" />
<circle cx="317.23" cy="231.42" r="3" fill="hsl(45, 80%, 65%)" />
<circle cx="227.28" cy="315.85" r="4" fill="hsl(50, 80%, 65%)" />
<circle cx="236.63" cy="192.08" r="5" fill="hsl(55, 80%, 65%)" />
<circle cx="313.80" cy="290.25" r="6" fill="hsl(60, 80%, 65%)" />
<circle cx="189.85" cy="269.87" r="2" fill="hsl(65, 80%, 65%)" />
<circle cx="295.64" cy="200.77" r="3" fill="hsl(70, 80%, 65%)" />
<circle cx="264.13" cy="323.89" r="4" fill="hsl(75, 80%, 65%)" />
<circle cx="203.85" cy="211.17" r="5" fill="hsl(80, 80%, 65%)" />
<circle cx="325.12" cy="253.82" r="6" fill="hsl(85, 80%, 65%)" />
<circle cx="206.23" cy="304.57" r="2" fill="hsl(90, 80%, 65%)" />
<circle cx="259.91" cy="186.18" r="3" fill="hsl(95, 80%, 65%)" />
<circle cx="300.52" cy="310.42" r="4" fill="hsl(100, 80%, 65%)" />
<circle cx="186.03" cy="245.89" r="5" fill="hsl(105, 80%, 65%)" />
<circle cx="314.74" cy="215.98" r="6" fill="hsl(110, 80%, 65%)" />
<circle cx="239.64" cy="325.55" r="2" fill="hsl(115, 80%, 65%)" />
<circle cx="220.90" cy="193.33" r="3" fill="hsl(120, 80%, 65%)" />
<circle cx="324.57" cy="278.61" r="4" fill="hsl(125, 80%, 65%)" />
<circle cx="189.83" cy="285.79" r="5" fill="hsl(130, 80%, 65%)" />
<circle cx="284.81" cy="188.99" r="6" fill="hsl(135, 80%, 65%)" />
<circle cx="280.14" cy="325.22" r="2" fill="hsl(140, 80%, 65%)" />
<circle cx="191.12" cy="221.09" r="3" fill="hsl(145, 80%, 65%)" />
<circle cx="327.77" cy="237.83" r="4" fill="hsl(150, 80%, 65%)" />
<circle cx="215.15" cy="318.18" r="5" fill="hsl(155, 80%, 65%)" />
<circle cx="244.06" cy="182.20" r="6" fill="hsl(160, 80%, 65%)" />
<circle cx="314.94" cy="302.57" r="2" fill="hsl(165, 80%, 65%)" />
<circle cx="180.72" cy="261.50" r="3" fill="hsl(170, 80%, 65%)" />
<circle cx="308.04" cy="200.84" r="4" fill="hsl(175, 80%, 65%)" />
<circle cx="254.89" cy="332.18" r="5" fill="hsl(180, 80%, 65%)" />
<circle cx="205.13" cy="198.81" r="6" fill="hsl(185, 80%, 65%)" />
<circle cx="332.49" cy="263.84" r="2" fill="hsl(190, 80%, 65%)" />
<circle cx="194.02" cy="302.09" r="3" fill="hsl(195, 80%, 65%)" />
<circle cx="270.63" cy="179.81" r="4" fill="hsl(200, 80%, 65%)" />
<circle cx="296.86" cy="322.36" r="5" fill="hsl(205, 80%, 65%)" />
<circle cx="180.72" cy="234.58" r="6" fill="hsl(210, 80%, 65%)" />
<circle cx="326.29" cy="220.79" r="2" fill="hsl(215, 80%, 65%)" />
<circle cx="227.83" cy="329.76" r="3" fill="hsl(220, 80%, 65%)" />
<circle cx="226.82" cy="182.27" r="4" fill="hsl(225, 80%, 65%)" />
<circle cx="327.63" cy="290.80" r="5" fill="hsl(230, 80%, 65%)" />
<circle cx="179.35" cy="278.81" r="6" fill="hsl(235, 80%, 65%)" />
<circle cx="297.28" cy="187.12" r="2" fill="hsl(240, 80%, 65%)" />
<circle cx="272.16" cy="335.00" r="3" fill="hsl(245, 80%, 65%)" />
<circle cx="190.45" cy="208.47" r="4" fill="hsl(250, 80%, 65%)" />
<circle cx="336.77" cy="246.73" r="5" fill="hsl(255, 80%, 65%)" />
<circle cx="202.48" cy="317.64" r="6" fill="hsl(260, 80%, 65%)" />
<circle cx="253.81" cy="174.07" r="2" fill="hsl(265, 80%, 65%)" />
<circle cx="313.19" cy="315.17" r="3" fill="hsl(270, 80%, 65%)" />
<circle cx="173.54" cy="250.98" r="4" fill="hsl(275, 80%, 65%)" />
<circle cx="320.45" cy="203.80" r="5" fill="hsl(280, 80%, 65%)" />
<circle cx="243.69" cy="338.35" r="6" fill="hsl(285, 80%, 65%)" />
<circle cx="209.27" cy="186.70" r="2" fill="hsl(290, 80%, 65%)" />
<circle cx="337.58" cy="275.61" r="3" fill="hsl(295, 80%, 65%)" />
<circle cx="182.32" cy="296.80" r="4" fill="hsl(300, 80%, 65%)" />
<circle cx="282.87" cy="175.84" r="5" fill="hsl(305, 80%, 65%)" />
<circle cx="290.46" cy="333.55" r="6" fill="hsl(310, 80%, 65%)" />
<circle cx="177.92" cy="221.97" r="2" fill="hsl(315, 80%, 65%)" />
<circle cx="336.86" cy="228.25" r="3" fill="hsl(320, 80%, 65%)" />
<circle cx="214.97" cy="331.36" r="4" fill="hsl(325, 80%, 65%)" />
<circle cx="235.27" cy="172.41" r="5" fill="hsl(330, 80%, 65%)" />
<circle cx="328.01" cy="303.80" r="6" fill="hsl(335, 80%, 65%)" />
<circle cx="170.31" cy="269.44" r="2" fill="hsl(340, 80%, 65%)" />
<circle cx="310.30" cy="187.96" r="3" fill="hsl(345, 80%, 65%)" />
<circle cx="261.94" cy="343.16" r="4" fill="hsl(350, 80%, 65%)" />
<circle cx="192.53" cy="195.53" r="5" fill="hsl(355, 80%, 65%)" />
<circle cx="343.95" cy="257.72" r="6" fill="hsl(0, 80%, 65%)" />
<circle cx="189.76" cy="314.35" r="2" fill="hsl(5, 80%, 65%)" />
<circle cx="265.46" cy="167.93" r="3" fill="hsl(10, 80%, 65%)" />
<circle cx="308.69" cy="327.58" r="4" fill="hsl(15, 80%, 65%)" />
<circle cx="168.50" cy="238.76" r="5" fill="hsl(20, 80%, 65%)" />
<circle cx="332.43" cy="209.45" r="6" fill="hsl(25, 80%, 65%)" />
<circle cx="231.00" cy="342.24" r="2" fill="hsl(30, 80%, 65%)" />
<circle cx="216.05" cy="175.26" r="3" fill="hsl(35, 80%, 65%)" />
<circle cx="340.28" cy="288.65" r="4" fill="hsl(40, 80%, 65%)" />
<circle cx="171.52" cy="288.96" r="5" fill="hsl(45, 80%, 65%)" />
<circle cx="296.16" cy="174.37" r="6" fill="hsl(50, 80%, 65%)" />
<circle cx="281.61" cy="343.60" r="2" fill="hsl(55, 80%, 65%)" />
<circle cx="177.69" cy="208.55" r="3" fill="hsl(60, 80%, 65%)" />
<circle cx="346.08" cy="238.03" r="4" fill="hsl(65, 80%, 65%)" />
<circle cx="201.54" cy="330.33" r="5" fill="hsl(70, 80%, 65%)" />
<circle cx="245.91" cy="164.11" r="6" fill="hsl(75, 80%, 65%)" />
<circle cx="325.73" cy="317.13" r="2" fill="hsl(80, 80%, 65%)" />
<circle cx="163.00" cy="258.03" r="3" fill="hsl(85, 80%, 65%)" />
<circle cx="323.41" cy="191.49" r="4" fill="hsl(90, 80%, 65%)" />
<circle cx="249.85" cy="349.39" r="5" fill="hsl(95, 80%, 65%)" />
<circle cx="197.27" cy="182.76" r="6" fill="hsl(100, 80%, 65%)" />
<circle cx="349.06" cy="270.38" r="2" fill="hsl(105, 80%, 65%)" />
<circle cx="177.43" cy="308.42" r="3" fill="hsl(110, 80%, 65%)" />
<circle cx="278.59" cy="164.00" r="4" fill="hsl(115, 80%, 65%)" />
<circle cx="301.62" cy="339.35" r="5" fill="hsl(120, 80%, 65%)" />
<circle cx="165.79" cy="225.27" r="6" fill="hsl(125, 80%, 65%)" />
<circle cx="343.54" cy="217.61" r="2" fill="hsl(130, 80%, 65%)" />
<circle cx="217.27" cy="343.69" r="3" fill="hsl(135, 80%, 65%)" />
<circle cx="225.23" cy="164.91" r="4" fill="hsl(140, 80%, 65%)" />
<circle cx="340.46" cy="302.52" r="5" fill="hsl(145, 80%, 65%)" />
<circle cx="162.03" cy="278.82" r="6" fill="hsl(150, 80%, 65%)" />
<circle cx="310.03" cy="175.47" r="2" fill="hsl(155, 80%, 65%)" />
<circle cx="270.60" cy="352.15" r="3" fill="hsl(160, 80%, 65%)" />
<circle cx="180.07" cy="194.79" r="4" fill="hsl(165, 80%, 65%)" />
<circle cx="353.61" cy="249.83" r="5" fill="hsl(170, 80%, 65%)" />
<circle cx="188.00" cy="326.68" r="6" fill="hsl(175, 80%, 65%)" />
<circle cx="258.40" cy="157.68" r="2" fill="hsl(180, 80%, 65%)" />
<circle cx="320.83" cy="330.33" r="3" fill="hsl(185, 80%, 65%)" />
<circle cx="157.72" cy="244.95" r="4" fill="hsl(190, 80%, 65%)" />
<circle cx="336.15" cy="197.60" r="5" fill="hsl(195, 80%, 65%)" />
<circle cx="236.30" cy="353.47" r="6" fill="hsl(200, 80%, 65%)" />
<circle cx="204.55" cy="170.59" r="2" fill="hsl(205, 80%, 65%)" />
<circle cx="351.89" cy="284.30" r="3" fill="hsl(210, 80%, 65%)" />
<circle cx="165.93" cy="300.02" r="4" fill="hsl(215, 80%, 65%)" />
<circle cx="292.77" cy="162.45" r="5" fill="hsl(220, 80%, 65%)" />
<circle cx="292.17" cy="350.07" r="6" fill="hsl(225, 80%, 65%)" />
<circle cx="165.55" cy="210.95" r="2" fill="hsl(230, 80%, 65%)" />
<circle cx="353.38" cy="228.04" r="3" fill="hsl(235, 80%, 65%)" />
<circle cx="202.94" cy="342.62" r="4" fill="hsl(240, 80%, 65%)" />
<circle cx="236.56" cy="156.03" r="5" fill="hsl(245, 80%, 65%)" />
<circle cx="338.07" cy="316.74" r="6" fill="hsl(250, 80%, 65%)" />
<circle cx="154.19" cy="266.68" r="2" fill="hsl(255, 80%, 65%)" />
<circle cx="324.04" cy="179.16" r="3" fill="hsl(260, 80%, 65%)" />
<circle cx="257.74" cy="358.88" r="4" fill="hsl(265, 80%, 65%)" />
<circle cx="185.04" cy="181.13" r="5" fill="hsl(270, 80%, 65%)" />
<circle cx="359.16" cy="263.29" r="6" fill="hsl(275, 80%, 65%)" />
<circle cx="174.80" cy="320.46" r="2" fill="hsl(280, 80%, 65%)" />
<circle cx="272.37" cy="153.36" r="3" fill="hsl(285, 80%, 65%)" />
<circle cx="313.40" cy="342.95" r="4" fill="hsl(290, 80%, 65%)" />
<circle cx="154.69" cy="230.60" r="5" fill="hsl(295, 80%, 65%)" />
<circle cx="348.09" cy="206.17" r="6" fill="hsl(300, 80%, 65%)" />
<circle cx="221.67" cy="355.19" r="2" fill="hsl(305, 80%, 65%)" />
<circle cx="214.21" cy="159.44" r="3" fill="hsl(310, 80%, 65%)" />
<circle cx="352.27" cy="299.08" r="4" fill="hsl(315, 80%, 65%)" />
<circle cx="155.67" cy="289.35" r="5" fill="hsl(320, 80%, 65%)" />
<circle cx="307.58" cy="163.42" r="6" fill="hsl(325, 80%, 65%)" />
<circle cx="280.56" cy="359.36" r="2" fill="hsl(330, 80%, 65%)" />
<circle cx="167.86" cy="196.24" r="3" fill="hsl(335, 80%, 65%)" />
<circle cx="361.61" cy="240.49" r="4" fill="hsl(340, 80%, 65%)" />
<circle cx="188.45" cy="338.97" r="5" fill="hsl(345, 80%, 65%)" />
<circle cx="249.75" cy="148.94" r="6" fill="hsl(350, 80%, 65%)" />
<circle cx="333.10" cy="330.90" r="2" fill="hsl(355, 80%, 65%)" />
<circle cx="148.30" cy="252.85" r="3" fill="hsl(0, 80%, 65%)" />
<circle cx="337.73" cy="185.42" r="4" fill="hsl(5, 80%, 65%)" />
<circle cx="243.39" cy="363.50" r="5" fill="hsl(10, 80%, 65%)" />
<circle cx="192.54" cy="168.01" r="6" fill="hsl(15, 80%, 65%)" />
<circle cx="362.47" cy="278.07" r="2" fill="hsl(20, 80%, 65%)" />
<circle cx="162.37" cy="311.78" r="3" fill="hsl(25, 80%, 65%)" />
<circle cx="287.43" cy="151.39" r="4" fill="hsl(30, 80%, 65%)" />
<circle cx="303.59" cy="354.59" r="5" fill="hsl(35, 80%, 65%)" />
<circle cx="154.08" cy="215.36" r="6" fill="hsl(40, 80%, 65%)" />
<circle cx="358.83" cy="217.04" r="2" fill="hsl(45, 80%, 65%)" />
<circle cx="206.39" cy="354.41" r="3" fill="hsl(50, 80%, 65%)" />
<circle cx="226.04" cy="149.69" r="4" fill="hsl(55, 80%, 65%)" />
<circle cx="350.11" cy="314.28" r="5" fill="hsl(60, 80%, 65%)" />
<circle cx="147.00" cy="276.64" r="6" fill="hsl(65, 80%, 65%)" />
<circle cx="322.58" cy="166.96" r="2" fill="hsl(70, 80%, 65%)" />
<circle cx="267.08" cy="366.87" r="3" fill="hsl(75, 80%, 65%)" />
<circle cx="172.76" cy="181.57" r="4" fill="hsl(80, 80%, 65%)" />
<circle cx="367.89" cy="254.65" r="5" fill="hsl(85, 80%, 65%)" />
<circle cx="174.23" cy="332.74" r="6" fill="hsl(90, 80%, 65%)" />
<circle cx="264.47" cy="143.94" r="2" fill="hsl(95, 80%, 65%)" />
<circle cx="325.59" cy="344.54" r="3" fill="hsl(100, 80%, 65%)" />
<circle cx="144.64" cy="237.68" r="4" fill="hsl(105, 80%, 65%)" />
<circle cx="350.69" cy="194.15" r="5" fill="hsl(110, 80%, 65%)" />
<circle cx="227.90" cy="365.79" r="6" fill="hsl(115, 80%, 65%)" />
<circle cx="202.44" cy="155.85" r="2" fill="hsl(120, 80%, 65%)" />
<circle cx="363.36" cy="293.75" r="3" fill="hsl(125, 80%, 65%)" />
<circle cx="151.12" cy="300.78" r="4" fill="hsl(130, 80%, 65%)" />
<circle cx="303.18" cy="151.92" r="5" fill="hsl(135, 80%, 65%)" />
<circle cx="291.59" cy="364.84" r="6" fill="hsl(140, 80%, 65%)" />
<circle cx="156.03" cy="199.67" r="2" fill="hsl(145, 80%, 65%)" />
<circle cx="367.99" cy="229.96" r="3" fill="hsl(150, 80%, 65%)" />
<circle cx="190.88" cy="351.04" r="4" fill="hsl(155, 80%, 65%)" />
<circle cx="239.78" cy="141.70" r="5" fill="hsl(160, 80%, 65%)" />
<circle cx="345.35" cy="329.48" r="6" fill="hsl(165, 80%, 65%)" />
<circle cx="140.25" cy="262.19" r="2" fill="hsl(170, 80%, 65%)" />
<circle cx="337.33" cy="173.09" r="3" fill="hsl(175, 80%, 65%)" />
<circle cx="252.03" cy="372.31" r="4" fill="hsl(180, 80%, 65%)" />
<circle cx="180.22" cy="167.38" r="5" fill="hsl(185, 80%, 65%)" />
<circle cx="371.97" cy="270.18" r="6" fill="hsl(190, 80%, 65%)" />
<circle cx="160.72" cy="324.01" r="2" fill="hsl(195, 80%, 65%)" />
<circle cx="280.36" cy="141.26" r="3" fill="hsl(200, 80%, 65%)" />
<circle cx="315.66" cy="357.26" r="4" fill="hsl(205, 80%, 65%)" />
<circle cx="143.40" cy="221.57" r="5" fill="hsl(210, 80%, 65%)" />
<circle cx="362.50" cy="205.23" r="6" fill="hsl(215, 80%, 65%)" />
<circle cx="211.68" cy="365.59" r="2" fill="hsl(220, 80%, 65%)" />
<circle cx="214.57" cy="145.05" r="3" fill="hsl(225, 80%, 65%)" />
<circle cx="361.70" cy="309.93" r="4" fill="hsl(230, 80%, 65%)" />
<circle cx="141.41" cy="287.69" r="5" fill="hsl(235, 80%, 65%)" />
<circle cx="319.21" cy="155.04" r="6" fill="hsl(240, 80%, 65%)" />
<circle cx="277.63" cy="373.36" r="2" fill="hsl(245, 80%, 65%)" />
<circle cx="160.59" cy="183.94" r="3" fill="hsl(250, 80%, 65%)" />
<circle cx="375.25" cy="244.67" r="4" fill="hsl(255, 80%, 65%)" />
<circle cx="175.57" cy="345.07" r="5" fill="hsl(260, 80%, 65%)" />
<circle cx="255.14" cy="135.77" r="6" fill="hsl(265, 80%, 65%)" />
<circle cx="338.00" cy="344.24" r="2" fill="hsl(270, 80%, 65%)" />
<circle cx="135.71" cy="246.31" r="3" fill="hsl(275, 80%, 65%)" />
<circle cx="351.42" cy="181.75" r="4" fill="hsl(280, 80%, 65%)" />
<circle cx="235.76" cy="375.42" r="5" fill="hsl(285, 80%, 65%)" />
<circle cx="190.14" cy="154.08" r="6" fill="hsl(290, 80%, 65%)" />
<circle cx="373.62" cy="286.72" r="2" fill="hsl(295, 80%, 65%)" />
<circle cx="148.32" cy="312.91" r="3" fill="hsl(300, 80%, 65%)" />
<circle cx="297.03" cy="141.10" r="4" fill="hsl(305, 80%, 65%)" />
<circle cx="303.45" cy="368.65" r="5" fill="hsl(310, 80%, 65%)" />
<circle cx="144.72" cy="204.90" r="6" fill="hsl(315, 80%, 65%)" />
<circle cx="372.78" cy="218.45" r="2" fill="hsl(320, 80%, 65%)" />
<circle cx="195.15" cy="362.76" r="3" fill="hsl(325, 80%, 65%)" />
<circle cx="228.70" cy="135.96" r="4" fill="hsl(330, 80%, 65%)" />
<circle cx="357.39" cy="326.20" r="5" fill="hsl(335, 80%, 65%)" />
<circle cx="133.60" cy="272.76" r="6" fill="hsl(340, 80%, 65%)" />
<circle cx="335.07" cy="160.80" r="2" fill="hsl(345, 80%, 65%)" />
<circle cx="262.01" cy="379.83" r="3" fill="hsl(350, 80%, 65%)" />
<circle cx="167.77" cy="168.60" r="4" fill="hsl(355, 80%, 65%)" />
<circle cx="380.31" cy="260.85" r="5" fill="hsl(0, 80%, 65%)" />
<circle cx="160.89" cy="336.53" r="6" fill="hsl(5, 80%, 65%)" />
<circle cx="271.76" cy="132.16" r="2" fill="hsl(10, 80%, 65%)" />
<circle cx="328.16" cy="358.14" r="3" fill="hsl(15, 80%, 65%)" />
<circle cx="133.59" cy="229.38" r="4" fill="hsl(20, 80%, 65%)" />
</svg>
