<svg xmlns="http://www.w3.org/2000/svg" width="512" height="512" viewBox="0 0 512 512">
<rect width="100%" height="100%" fill="black"/>
<polyline points="262.00,256.00 263.00,257.37 263.66,259.13 263.87,261.17 263.54,263.38 262.62,265.63 261.10,267.77 258.98,269.65 256.32,271.10 253.21,272.00 249.77,272.23 246.16,271.69 242.55,270.34 239.11,268.14 236.06,265.14 233.56,261.40 231.81,257.02 230.94,252.18 231.07,247.04 232.28,241.82 234.61,236.76 238.03,232.09 242.47,228.06 247.81,224.87 253.89,222.74 260.48,221.83 267.33,222.25 274.18,224.08 280.73,227.31 286.68,231.90 291.76,237.74 295.70,244.66 298.28,252.41 299.31,260.74 298.67,269.33 296.31,277.84 292.23,285.91 286.52,293.21 279.32,299.39 270.87,304.16 261.44,307.25 251.37,308.47 241.04,307.69 230.85,304.86 221.21,300.00 212.53,293.22 205.18,284.71 199.53,274.75 195.84,263.68 194.35,251.88 195.20,239.79 198.44,227.89 204.01,216.65 211.80,206.53 221.57,197.97 233.00,191.35 245.71,187.01 259.24,185.18 273.08,186.02 286.70,189.59 299.58,195.82 311.19,204.56 321.02,215.54 328.66,228.41 333.73,242.72 335.97,257.96 335.21,273.56 331.39,288.94 324.58,303.48 314.95,316.61 302.80,327.78 288.53,336.50 272.64,342.38 255.70,345.10 238.33,344.50 221.19,340.49 204.95,333.16 190.25,322.70 177.70,309.44 167.83,293.82 161.09,276.38 157.80,257.75 158.18,238.61 162.30,219.70 170.07,201.73 181.30,185.42 195.62,171.44 212.56,160.36 231.52,152.68 251.82,148.76 272.72,148.84 293.42,152.99 313.14,161.14 331.09,173.07 346.56,188.40 358.91,206.60 367.60,227.05 372.22,249.01 372.52,271.66 368.40,294.16 359.94,315.65 347.37,335.29 331.10,352.30 311.67,365.97 289.77,375.72 266.19,381.12 241.78,381.87 217.48,377.87 194.19,369.17 172.84,356.03 154.25,338.87 139.20,318.27 128.31,294.96 122.06,269.76 120.78,243.62 124.60,217.50 133.46,192.40 147.10,169.30 165.09,149.09 186.82,132.60 211.51,120.51 238.28,113.35 266.16,111.47 294.09,115.03 321.01,123.97 345.90,138.05 367.78,156.81 385.76,179.60 399.11,205.63 407.26,233.96 409.81,263.54 406.59,293.28 397.63,322.06 383.18,348.75 363.72,372.34 339.91,391.86 312.59,406.54 282.74,415.74 251.46,419.04 219.91,416.23 189.28,407.32 160.75,392.58 135.42,372.49 114.29,347.71 98.23,319.14 87.91,287.80 83.79,254.85 86.12,221.49 94.89,189.00 109.85,158.61 130.53,131.49 156.20,108.73 185.97,91.22 218.77,79.71 253.38,74.70 288.53,76.47 322.90,85.03 355.17,100.14 384.10,121.32 408.56,147.84 427.56,178.76 440.33,212.98 446.30,249.22 445.17,286.16 436.90,322.41 421.71,356.58 400.09,387.36 372.78,413.56 340.76,434.12 305.17,448.20 267.32,455.21 228.60,454.79 190.48,446.88 154.39,431.68 121.72,409.69 93.75,381.67 71.58,348.59 56.10,311.67 47.99,272.24 47.63,231.76 55.11,191.76 70.23,153.74 92.52,119.16 121.20,89.36 155.27,65.52 193.49,48.61 234.47,39.32 276.69,38.09 318.57,45.06 358.53,60.04 395.05,82.56 426.71,111.83 452.26,146.83 470.69,186.30 481.22,228.80 483.38,272.74 477.00,316.50 462.24,358.42 439.57,396.90 409.77,430.45 373.89,457.77 333.21,477.77 289.24,489.61 243.59,492.78 197.97,487.06 154.09,472.60 113.63,449.85 78.14,419.59 49.00,382.89 27.38,341.06 14.16,295.65 9.91,248.32 14.88,200.84 28.97,154.99 51.73,112.52 82.38,75.06 119.84,44.07 162.76,20.76 209.58,6.10 258.57,0.70" fill="none" stroke="cyan" stroke-width="2"/>
</svg>
