<svg xmlns="http://www.w3.org/2000/svg" width="512" height="512" viewBox="0 0 512 512">
<rect width="100%" height="100%" fill="#0b1020"/>
<circle cx="435" cy="140" r="48" fill="#f8f3c9" opacity="0.95" />
<circle cx="243.0" cy="68.0" r="3.2" fill="white" />
<circle cx="379.0" cy="159.0" r="1.9" fill="white" />
<circle cx="340.0" cy="154.0" r="1.9" fill="white" />
<circle cx="254.0" cy="37.0" r="3.2" fill="white" />
<circle cx="374.0" cy="33.0" r="2.4" fill="white" />
<path d="M 20 430 C 113 422, 184 440, 318 427 S 450 375, 512 405" stroke="#5dade2" stroke-width="5" fill="none" opacity="0.85" />
<line x1="0" y1="395" x2="512" y2="395" stroke="#445566" stroke-width="4" />
<polygon points="206,360 246,300 286,320 306,290 326,310 338,350 306,372 256,376" fill="#1e1e1e" />
<polygon points="281,300 294,278 304,302" fill="#1e1e1e" />
<line x1="336" y1="345" x2="366" y2="320" stroke="#1e1e1e" stroke-width="6" />
</svg>
