<svg xmlns="http://www.w3.org/2000/svg" width="512" height="512" viewBox="0 0 512 512">
<rect width="100%" height="100%" fill="#0b1020"/>
<circle cx="450" cy="83" r="56" fill="#f8f3c9" opacity="0.95" />
<circle cx="491.0" cy="42.0" r="1.6" fill="white" />
<circle cx="205.0" cy="96.0" r="2.1" fill="white" />
<circle cx="406.0" cy="155.0" r="2.6" fill="white" />
<circle cx="474.0" cy="57.0" r="2.0" fill="white" />
<circle cx="392.0" cy="88.0" r="2.1" fill="white" />
<circle cx="398.0" cy="70.0" r="3.4" fill="white" />
<circle cx="378.0" cy="116.0" r="3.0" fill="white" />
<circle cx="382.0" cy="124.0" r="1.6" fill="white" />
<circle cx="239.0" cy="161.0" r="3.3" fill="white" />
<circle cx="129.0" cy="104.0" r="2.9" fill="white" />
<circle cx="49.0" cy="122.0" r="2.1" fill="white" />
<circle cx="451.0" cy="148.0" r="1.7" fill="white" />
<circle cx="331.0" cy="103.0" r="2.8" fill="white" />
<circle cx="354.0" cy="115.0" r="2.7" fill="white" />
<circle cx="455.0" cy="73.0" r="1.8" fill="white" />
<path d="M 20 430 C 128 422, 196 446, 287 437 S 450 393, 512 423" stroke="#5dade2" stroke-width="8" fill="none" opacity="0.85" />
<line x1="0" y1="398" x2="512" y2="398" stroke="#445566" stroke-width="3" />
<polygon points="204,355 244,295 284,315 304,285 324,305 336,345 304,367 254,371" fill="#1e1e1e" />
<polygon points="279,295 292,273 302,297" fill="#1e1e1e" />
<line x1="334" y1="340" x2="364" y2="315" stroke="#1e1e1e" stroke-width="6" />
</svg>
