<svg xmlns="http://www.w3.org/2000/svg" width="512" height="512" viewBox="0 0 512 512">
<rect width="100%" height="100%" fill="black"/>
<circle cx="291" cy="275" r="5" fill="hsl(0, 80%, 65%)" />
<circle cx="141" cy="164" r="7" fill="hsl(9, 80%, 65%)" />
<circle cx="75" cy="432" r="2" fill="hsl(18, 80%, 65%)" />
<circle cx="232" cy="397" r="8" fill="hsl(27, 80%, 65%)" />
<circle cx="184" cy="81" r="3" fill="hsl(36, 80%, 65%)" />
<circle cx="380" cy="147" r="8" fill="hsl(45, 80%, 65%)" />
<circle cx="374" cy="298" r="6" fill="hsl(54, 80%, 65%)" />
<circle cx="258" cy="78" r="4" fill="hsl(63, 80%, 65%)" />
<circle cx="292" cy="125" r="7" fill="hsl(72, 80%, 65%)" />
<circle cx="349" cy="256" r="8" fill="hsl(81, 80%, 65%)" />
<circle cx="86" cy="276" r="5" fill="hsl(90, 80%, 65%)" />
<circle cx="214" cy="160" r="2" fill="hsl(99, 80%, 65%)" />
<circle cx="309" cy="350" r="2" fill="hsl(108, 80%, 65%)" />
<circle cx="256" cy="440" r="4" fill="hsl(117, 80%, 65%)" />
<circle cx="189" cy="331" r="8" fill="hsl(126, 80%, 65%)" />
<circle cx="97" cy="268" r="8" fill="hsl(135, 80%, 65%)" />
<circle cx="85" cy="90" r="3" fill="hsl(144, 80%, 65%)" />
<circle cx="274" cy="174" r="4" fill="hsl(153, 80%, 65%)" />
<circle cx="88" cy="421" r="4" fill="hsl(162, 80%, 65%)" />
<circle cx="184" cy="210" r="6" fill="hsl(171, 80%, 65%)" />
<circle cx="421" cy="184" r="2" fill="hsl(180, 80%, 65%)" />
<circle cx="184" cy="212" r="3" fill="hsl(189, 80%, 65%)" />
<circle cx="99" cy="333" r="5" fill="hsl(198, 80%, 65%)" />
<circle cx="151" cy="408" r="5" fill="hsl(207, 80%, 65%)" />
<circle cx="279" cy="338" r="7" fill="hsl(216, 80%, 65%)" />
<circle cx="282" cy="261" r="2" fill="hsl(225, 80%, 65%)" />
<circle cx="280" cy="315" r="4" fill="hsl(234, 80%, 65%)" />
<circle cx="249" cy="288" r="8" fill="hsl(243, 80%, 65%)" />
<circle cx="126" cy="132" r="7" fill="hsl(252, 80%, 65%)" />
<circle cx="149" cy="274" r="5" fill="hsl(261, 80%, 65%)" />
<circle cx="246" cy="249" r="5" fill="hsl(270, 80%, 65%)" />
<circle cx="284" cy="179" r="3" fill="hsl(279, 80%, 65%)" />
<circle cx="248" cy="420" r="7" fill="hsl(288, 80%, 65%)" />
<circle cx="280" cy="436" r="6" fill="hsl(297, 80%, 65%)" />
<circle cx="138" cy="352" r="3" fill="hsl(306, 80%, 65%)" />
<circle cx="255" cy="325" r="5" fill="hsl(315, 80%, 65%)" />
<circle cx="118" cy="169" r="6" fill="hsl(324, 80%, 65%)" />
<circle cx="225" cy="276" r="4" fill="hsl(333, 80%, 65%)" />
<circle cx="417" cy="70" r="6" fill="hsl(342, 80%, 65%)" />
<circle cx="350" cy="107" r="6" fill="hsl(351, 80%, 65%)" />
<circle cx="293" cy="143" r="5" fill="hsl(0, 80%, 65%)" />
<circle cx="105" cy="156" r="8" fill="hsl(9, 80%, 65%)" />
<circle cx="413" cy="211" r="5" fill="hsl(18, 80%, 65%)" />
<circle cx="287" cy="219" r="5" fill="hsl(27, 80%, 65%)" />
<circle cx="439" cy="85" r="6" fill="hsl(36, 80%, 65%)" />
<circle cx="318" cy="214" r="4" fill="hsl(45, 80%, 65%)" />
<circle cx="424" cy="376" r="2" fill="hsl(54, 80%, 65%)" />
<circle cx="271" cy="249" r="2" fill="hsl(63, 80%, 65%)" />
<circle cx="199" cy="70" r="6" fill="hsl(72, 80%, 65%)" />
<circle cx="180" cy="408" r="3" fill="hsl(81, 80%, 65%)" />
<circle cx="401" cy="137" r="6" fill="hsl(90, 80%, 65%)" />
<circle cx="430" cy="140" r="8" fill="hsl(99, 80%, 65%)" />
<circle cx="283" cy="279" r="3" fill="hsl(108, 80%, 65%)" />
<circle cx="246" cy="268" r="2" fill="hsl(117, 80%, 65%)" />
<circle cx="142" cy="86" r="4" fill="hsl(126, 80%, 65%)" />
<circle cx="347" cy="262" r="6" fill="hsl(135, 80%, 65%)" />
<circle cx="109" cy="188" r="6" fill="hsl(144, 80%, 65%)" />
<circle cx="417" cy="380" r="8" fill="hsl(153, 80%, 65%)" />
<circle cx="327" cy="276" r="4" fill="hsl(162, 80%, 65%)" />
<circle cx="435" cy="128" r="8" fill="hsl(171, 80%, 65%)" />
<circle cx="285" cy="142" r="8" fill="hsl(180, 80%, 65%)" />
<circle cx="266" cy="190" r="2" fill="hsl(189, 80%, 65%)" />
<circle cx="311" cy="130" r="5" fill="hsl(198, 80%, 65%)" />
<circle cx="99" cy="259" r="8" fill="hsl(207, 80%, 65%)" />
<circle cx="252" cy="386" r="6" fill="hsl(216, 80%, 65%)" />
<circle cx="337" cy="395" r="7" fill="hsl(225, 80%, 65%)" />
<circle cx="114" cy="243" r="3" fill="hsl(234, 80%, 65%)" />
<circle cx="349" cy="181" r="2" fill="hsl(243, 80%, 65%)" />
<circle cx="355" cy="160" r="2" fill="hsl(252, 80%, 65%)" />
<circle cx="361" cy="117" r="2" fill="hsl(261, 80%, 65%)" />
<circle cx="351" cy="130" r="2" fill="hsl(270, 80%, 65%)" />
<circle cx="390" cy="107" r="2" fill="hsl(279, 80%, 65%)" />
<circle cx="181" cy="188" r="7" fill="hsl(288, 80%, 65%)" />
<circle cx="385" cy="305" r="5" fill="hsl(297, 80%, 65%)" />
<circle cx="327" cy="268" r="2" fill="hsl(306, 80%, 65%)" />
<circle cx="136" cy="88" r="3" fill="hsl(315, 80%, 65%)" />
<circle cx="171" cy="225" r="3" fill="hsl(324, 80%, 65%)" />
<circle cx="151" cy="210" r="3" fill="hsl(333, 80%, 65%)" />
<circle cx="163" cy="245" r="5" fill="hsl(342, 80%, 65%)" />
<circle cx="174" cy="439" r="3" fill="hsl(351, 80%, 65%)" />
<circle cx="222" cy="103" r="7" fill="hsl(0, 80%, 65%)" />
<circle cx="234" cy="111" r="5" fill="hsl(9, 80%, 65%)" />
<circle cx="319" cy="194" r="2" fill="hsl(18, 80%, 65%)" />
<circle cx="327" cy="182" r="2" fill="hsl(27, 80%, 65%)" />
<circle cx="96" cy="154" r="6" fill="hsl(36, 80%, 65%)" />
<circle cx="384" cy="388" r="8" fill="hsl(45, 80%, 65%)" />
<circle cx="155" cy="76" r="3" fill="hsl(54, 80%, 65%)" />
<circle cx="165" cy="353" r="5" fill="hsl(63, 80%, 65%)" />
<circle cx="181" cy="365" r="8" fill="hsl(72, 80%, 65%)" />
<circle cx="183" cy="231" r="3" fill="hsl(81, 80%, 65%)" />
<circle cx="355" cy="162" r="8" fill="hsl(90, 80%, 65%)" />
<circle cx="298" cy="93" r="2" fill="hsl(99, 80%, 65%)" />
<circle cx="412" cy="211" r="8" fill="hsl(108, 80%, 65%)" />
<circle cx="192" cy="305" r="3" fill="hsl(117, 80%, 65%)" />
<circle cx="80" cy="77" r="6" fill="hsl(126, 80%, 65%)" />
<circle cx="397" cy="401" r="4" fill="hsl(135, 80%, 65%)" />
<circle cx="192" cy="281" r="3" fill="hsl(144, 80%, 65%)" />
<circle cx="341" cy="333" r="2" fill="hsl(153, 80%, 65%)" />
<circle cx="294" cy="176" r="8" fill="hsl(162, 80%, 65%)" />
<circle cx="416" cy="348" r="3" fill="hsl(171, 80%, 65%)" />
<circle cx="220" cy="219" r="2" fill="hsl(180, 80%, 65%)" />
<circle cx="369" cy="377" r="8" fill="hsl(189, 80%, 65%)" />
<circle cx="254" cy="169" r="5" fill="hsl(198, 80%, 65%)" />
<circle cx="95" cy="301" r="6" fill="hsl(207, 80%, 65%)" />
<circle cx="191" cy="154" r="5" fill="hsl(216, 80%, 65%)" />
<circle cx="223" cy="357" r="3" fill="hsl(225, 80%, 65%)" />
<circle cx="321" cy="366" r="7" fill="hsl(234, 80%, 65%)" />
<circle cx="254" cy="436" r="4" fill="hsl(243, 80%, 65%)" />
<circle cx="176" cy="246" r="3" fill="hsl(252, 80%, 65%)" />
<circle cx="343" cy="421" r="4" fill="hsl(261, 80%, 65%)" />
<circle cx="313" cy="383" r="4" fill="hsl(270, 80%, 65%)" />
<circle cx="94" cy="260" r="3" fill="hsl(279, 80%, 65%)" />
<circle cx="294" cy="169" r="4" fill="hsl(288, 80%, 65%)" />
<circle cx="141" cy="390" r="3" fill="hsl(297, 80%, 65%)" />
<circle cx="151" cy="219" r="8" fill="hsl(306, 80%, 65%)" />
<circle cx="158" cy="280" r="3" fill="hsl(315, 80%, 65%)" />
<circle cx="413" cy="148" r="5" fill="hsl(324, 80%, 65%)" />
<circle cx="184" cy="323" r="4" fill="hsl(333, 80%, 65%)" />
<circle cx="237" cy="379" r="8" fill="hsl(342, 80%, 65%)" />
<circle cx="361" cy="86" r="2" fill="hsl(351, 80%, 65%)" />
<circle cx="81" cy="420" r="5" fill="hsl(0, 80%, 65%)" />
<circle cx="334" cy="106" r="7" fill="hsl(9, 80%, 65%)" />
<circle cx="291" cy="176" r="2" fill="hsl(18, 80%, 65%)" />
<circle cx="435" cy="331" r="4" fill="hsl(27, 80%, 65%)" />
<circle cx="250" cy="286" r="3" fill="hsl(36, 80%, 65%)" />
<circle cx="319" cy="416" r="7" fill="hsl(45, 80%, 65%)" />
<circle cx="94" cy="392" r="6" fill="hsl(54, 80%, 65%)" />
<circle cx="405" cy="332" r="4" fill="hsl(63, 80%, 65%)" />
<circle cx="188" cy="399" r="2" fill="hsl(72, 80%, 65%)" />
<circle cx="324" cy="316" r="6" fill="hsl(81, 80%, 65%)" />
<circle cx="300" cy="102" r="4" fill="hsl(90, 80%, 65%)" />
<circle cx="153" cy="185" r="2" fill="hsl(99, 80%, 65%)" />
<circle cx="277" cy="116" r="3" fill="hsl(108, 80%, 65%)" />
<circle cx="145" cy="230" r="7" fill="hsl(117, 80%, 65%)" />
<circle cx="132" cy="383" r="7" fill="hsl(126, 80%, 65%)" />
<circle cx="433" cy="432" r="5" fill="hsl(135, 80%, 65%)" />
<circle cx="147" cy="353" r="3" fill="hsl(144, 80%, 65%)" />
<circle cx="432" cy="143" r="8" fill="hsl(153, 80%, 65%)" />
<circle cx="218" cy="192" r="6" fill="hsl(162, 80%, 65%)" />
<circle cx="415" cy="219" r="7" fill="hsl(171, 80%, 65%)" />
<circle cx="277" cy="268" r="6" fill="hsl(180, 80%, 65%)" />
<circle cx="324" cy="411" r="3" fill="hsl(189, 80%, 65%)" />
<circle cx="355" cy="265" r="4" fill="hsl(198, 80%, 65%)" />
<circle cx="191" cy="378" r="2" fill="hsl(207, 80%, 65%)" />
<circle cx="223" cy="382" r="3" fill="hsl(216, 80%, 65%)" />
<circle cx="91" cy="376" r="4" fill="hsl(225, 80%, 65%)" />
<circle cx="371" cy="439" r="4" fill="hsl(234, 80%, 65%)" />
<circle cx="87" cy="270" r="4" fill="hsl(243, 80%, 65%)" />
<circle cx="309" cy="76" r="8" fill="hsl(252, 80%, 65%)" />
<circle cx="437" cy="128" r="5" fill="hsl(261, 80%, 65%)" />
<circle cx="242" cy="358" r="3" fill="hsl(270, 80%, 65%)" />
<circle cx="438" cy="92" r="4" fill="hsl(279, 80%, 65%)" />
<circle cx="150" cy="319" r="4" fill="hsl(288, 80%, 65%)" />
<circle cx="261" cy="99" r="6" fill="hsl(297, 80%, 65%)" />
<circle cx="372" cy="305" r="7" fill="hsl(306, 80%, 65%)" />
<circle cx="434" cy="321" r="3" fill="hsl(315, 80%, 65%)" />
<circle cx="272" cy="155" r="5" fill="hsl(324, 80%, 65%)" />
<circle cx="428" cy="123" r="5" fill="hsl(333, 80%, 65%)" />
<circle cx="317" cy="86" r="7" fill="hsl(342, 80%, 65%)" />
<circle cx="88" cy="440" r="2" fill="hsl(351, 80%, 65%)" />
<circle cx="292" cy="319" r="7" fill="hsl(0, 80%, 65%)" />
<circle cx="255" cy="439" r="4" fill="hsl(9, 80%, 65%)" />
<circle cx="115" cy="214" r="3" fill="hsl(18, 80%, 65%)" />
<circle cx="119" cy="340" r="3" fill="hsl(27, 80%, 65%)" />
<circle cx="120" cy="371" r="6" fill="hsl(36, 80%, 65%)" />
<circle cx="189" cy="72" r="5" fill="hsl(45, 80%, 65%)" />
<circle cx="370" cy="205" r="4" fill="hsl(54, 80%, 65%)" />
<circle cx="273" cy="417" r="4" fill="hsl(63, 80%, 65%)" />
<circle cx="96" cy="93" r="4" fill="hsl(72, 80%, 65%)" />
<circle cx="356" cy="165" r="3" fill="hsl(81, 80%, 65%)" />
<circle cx="268" cy="274" r="8" fill="hsl(90, 80%, 65%)" />
<circle cx="257" cy="195" r="5" fill="hsl(99, 80%, 65%)" />
<circle cx="297" cy="285" r="6" fill="hsl(108, 80%, 65%)" />
<circle cx="300" cy="178" r="7" fill="hsl(117, 80%, 65%)" />
<circle cx="357" cy="255" r="5" fill="hsl(126, 80%, 65%)" />
<circle cx="72" cy="121" r="5" fill="hsl(135, 80%, 65%)" />
<circle cx="285" cy="428" r="8" fill="hsl(144, 80%, 65%)" />
<circle cx="151" cy="129" r="7" fill="hsl(153, 80%, 65%)" />
<circle cx="270" cy="132" r="3" fill="hsl(162, 80%, 65%)" />
<circle cx="236" cy="391" r="2" fill="hsl(171, 80%, 65%)" />
<line x1="259" y1="108" x2="219" y2="169" stroke="#223344" stroke-width="1"/>
<line x1="266" y1="216" x2="246" y2="145" stroke="#223344" stroke-width="1"/>
<line x1="360" y1="148" x2="352" y2="178" stroke="#223344" stroke-width="1"/>
<line x1="338" y1="156" x2="384" y2="223" stroke="#223344" stroke-width="1"/>
<line x1="205" y1="373" x2="141" y2="404" stroke="#223344" stroke-width="1"/>
<line x1="210" y1="386" x2="236" y2="465" stroke="#223344" stroke-width="1"/>
<line x1="432" y1="92" x2="453" y2="118" stroke="#223344" stroke-width="1"/>
<line x1="275" y1="185" x2="222" y2="110" stroke="#223344" stroke-width="1"/>
<line x1="82" y1="107" x2="142" y2="73" stroke="#223344" stroke-width="1"/>
<line x1="283" y1="190" x2="255" y2="262" stroke="#223344" stroke-width="1"/>
<line x1="401" y1="60" x2="370" y2="-6" stroke="#223344" stroke-width="1"/>
<line x1="241" y1="418" x2="220" y2="373" stroke="#223344" stroke-width="1"/>
<line x1="443" y1="192" x2="523" y2="248" stroke="#223344" stroke-width="1"/>
<line x1="88" y1="361" x2="140" y2="381" stroke="#223344" stroke-width="1"/>
<line x1="81" y1="299" x2="40" y2="317" stroke="#223344" stroke-width="1"/>
<line x1="136" y1="278" x2="179" y2="339" stroke="#223344" stroke-width="1"/>
<line x1="412" y1="193" x2="417" y2="192" stroke="#223344" stroke-width="1"/>
<line x1="377" y1="308" x2="440" y2="270" stroke="#223344" stroke-width="1"/>
<line x1="209" y1="345" x2="179" y2="374" stroke="#223344" stroke-width="1"/>
<line x1="183" y1="397" x2="211" y2="350" stroke="#223344" stroke-width="1"/>
<line x1="257" y1="439" x2="258" y2="363" stroke="#223344" stroke-width="1"/>
<line x1="109" y1="378" x2="115" y2="404" stroke="#223344" stroke-width="1"/>
<line x1="347" y1="300" x2="424" y2="269" stroke="#223344" stroke-width="1"/>
<line x1="345" y1="292" x2="411" y2="276" stroke="#223344" stroke-width="1"/>
</svg>
