<svg xmlns="http://www.w3.org/2000/svg" width="512" height="512" viewBox="0 0 512 512">
<rect width="100%" height="100%" fill="#0b1020"/>
<circle cx="410" cy="91" r="43" fill="#f8f3c9" opacity="0.95" />
<circle cx="408.0" cy="179.0" r="3.1" fill="white" />
<circle cx="155.0" cy="96.0" r="1.7" fill="white" />
<circle cx="401.0" cy="176.0" r="3.0" fill="white" />
<circle cx="182.0" cy="129.0" r="1.9" fill="white" />
<circle cx="433.0" cy="57.0" r="3.0" fill="white" />
<circle cx="358.0" cy="128.0" r="2.3" fill="white" />
<path d="M 20 430 C 127 412, 196 445, 313 422 S 450 390, 512 420" stroke="#5dade2" stroke-width="6" fill="none" opacity="0.85" />
<line x1="0" y1="393" x2="512" y2="393" stroke="#445566" stroke-width="4" />
<polygon points="199,362 239,302 279,322 299,292 319,312 331,352 299,374 249,378" fill="#1e1e1e" />
<polygon points="274,302 287,280 297,304" fill="#1e1e1e" />
<line x1="329" y1="347" x2="359" y2="322" stroke="#1e1e1e" stroke-width="6" />
</svg>
