<svg xmlns="http://www.w3.org/2000/svg" width="512" height="512" viewBox="0 0 512 512">
<rect width="100%" height="100%" fill="black"/>
<circle cx="256.00" cy="256.00" r="2" fill="hsl(0, 80%, 65%)" />
<circle cx="250.55" cy="260.99" r="3" fill="hsl(7, 80%, 65%)" />
<circle cx="256.91" cy="245.59" r="4" fill="hsl(14, 80%, 65%)" />
<circle cx="263.79" cy="266.16" r="5" fill="hsl(21, 80%, 65%)" />
<circle cx="241.44" cy="253.43" r="6" fill="hsl(28, 80%, 65%)" />
<circle cx="269.95" cy="247.13" r="2" fill="hsl(35, 80%, 65%)" />
<circle cx="251.30" cy="273.48" r="3" fill="hsl(42, 80%, 65%)" />
<circle cx="246.99" cy="238.65" r="4" fill="hsl(49, 80%, 65%)" />
<circle cx="275.64" cy="263.17" r="5" fill="hsl(56, 80%, 65%)" />
<circle cx="235.50" cy="264.46" r="6" fill="hsl(63, 80%, 65%)" />
<circle cx="265.91" cy="234.83" r="2" fill="hsl(70, 80%, 65%)" />
<circle cx="263.34" cy="279.39" r="3" fill="hsl(77, 80%, 65%)" />
<circle cx="233.85" cy="243.16" r="4" fill="hsl(84, 80%, 65%)" />
<circle cx="282.03" cy="250.28" r="5" fill="hsl(91, 80%, 65%)" />
<circle cx="240.09" cy="278.62" r="6" fill="hsl(98, 80%, 65%)" />
<circle cx="252.32" cy="227.61" r="2" fill="hsl(105, 80%, 65%)" />
<circle cx="278.61" cy="275.05" r="3" fill="hsl(112, 80%, 65%)" />
<circle cx="225.55" cy="257.26" r="4" fill="hsl(119, 80%, 65%)" />
<circle cx="278.23" cy="233.88" r="5" fill="hsl(126, 80%, 65%)" />
<circle cx="254.51" cy="288.18" r="6" fill="hsl(133, 80%, 65%)" />
<circle cx="234.82" cy="230.62" r="2" fill="hsl(140, 80%, 65%)" />
<circle cx="289.57" cy="260.52" r="3" fill="hsl(147, 80%, 65%)" />
<circle cx="227.54" cy="275.80" r="4" fill="hsl(154, 80%, 65%)" />
<circle cx="263.78" cy="221.42" r="5" fill="hsl(161, 80%, 65%)" />
<circle cx="274.00" cy="287.42" r="6" fill="hsl(168, 80%, 65%)" />
<circle cx="220.79" cy="244.77" r="2" fill="hsl(175, 80%, 65%)" />
<circle cx="290.21" cy="240.19" r="3" fill="hsl(182, 80%, 65%)" />
<circle cx="241.17" cy="291.43" r="4" fill="hsl(189, 80%, 65%)" />
<circle cx="242.76" cy="219.20" r="5" fill="hsl(196, 80%, 65%)" />
<circle cx="291.23" cy="274.52" r="6" fill="hsl(203, 80%, 65%)" />
<circle cx="216.85" cy="266.32" r="2" fill="hsl(210, 80%, 65%)" />
<circle cx="278.26" cy="221.38" r="3" fill="hsl(217, 80%, 65%)" />
<circle cx="263.08" cy="297.21" r="4" fill="hsl(224, 80%, 65%)" />
<circle cx="222.43" cy="230.00" r="5" fill="hsl(231, 80%, 65%)" />
<circle cx="298.95" cy="252.44" r="6" fill="hsl(238, 80%, 65%)" />
<circle cx="226.31" cy="288.10" r="2" fill="hsl(245, 80%, 65%)" />
<circle cx="256.22" cy="211.65" r="3" fill="hsl(252, 80%, 65%)" />
<circle cx="286.21" cy="289.30" r="4" fill="hsl(259, 80%, 65%)" />
<circle cx="210.63" cy="251.80" r="5" fill="hsl(266, 80%, 65%)" />
<circle cx="292.77" cy="228.09" r="6" fill="hsl(273, 80%, 65%)" />
<circle cx="247.63" cy="301.99" r="2" fill="hsl(280, 80%, 65%)" />
<circle cx="230.79" cy="215.94" r="3" fill="hsl(287, 80%, 65%)" />
<circle cx="302.20" cy="268.66" r="4" fill="hsl(294, 80%, 65%)" />
<circle cx="212.88" cy="278.13" r="5" fill="hsl(301, 80%, 65%)" />
<circle cx="273.04" cy="210.03" r="6" fill="hsl(308, 80%, 65%)" />
<circle cx="274.69" cy="301.92" r="2" fill="hsl(315, 80%, 65%)" />
<circle cx="210.70" cy="234.53" r="3" fill="hsl(322, 80%, 65%)" />
<circle cx="304.42" cy="241.07" r="4" fill="hsl(329, 80%, 65%)" />
<circle cx="230.11" cy="300.18" r="5" fill="hsl(336, 80%, 65%)" />
<circle cx="245.14" cy="205.41" r="6" fill="hsl(343, 80%, 65%)" />
<circle cx="298.61" cy="286.27" r="2" fill="hsl(350, 80%, 65%)" />
<circle cx="203.62" cy="262.53" r="3" fill="hsl(357, 80%, 65%)" />
<circle cx="290.55" cy="215.41" r="4" fill="hsl(4, 80%, 65%)" />
<circle cx="257.96" cy="309.77" r="5" fill="hsl(11, 80%, 65%)" />
<circle cx="217.88" cy="217.31" r="6" fill="hsl(18, 80%, 65%)" />
<circle cx="310.74" cy="258.80" r="2" fill="hsl(25, 80%, 65%)" />
<circle cx="213.36" cy="291.23" r="3" fill="hsl(32, 80%, 65%)" />
<circle cx="263.71" cy="200.73" r="4" fill="hsl(39, 80%, 65%)" />
<circle cx="287.92" cy="302.36" r="5" fill="hsl(46, 80%, 65%)" />
<circle cx="200.67" cy="243.27" r="6" fill="hsl(53, 80%, 65%)" />
<circle cx="305.81" cy="227.78" r="2" fill="hsl(60, 80%, 65%)" />
<circle cx="238.19" cy="310.91" r="3" fill="hsl(67, 80%, 65%)" />
<circle cx="231.85" cy="203.05" r="4" fill="hsl(74, 80%, 65%)" />
<circle cx="310.01" cy="278.91" r="5" fill="hsl(81, 80%, 65%)" />
<circle cx="200.26" cy="275.74" r="6" fill="hsl(88, 80%, 65%)" />
<circle cx="283.98" cy="203.39" r="2" fill="hsl(95, 80%, 65%)" />
<circle cx="271.02" cy="314.14" r="3" fill="hsl(102, 80%, 65%)" />
<circle cx="205.27" cy="223.03" r="4" fill="hsl(109, 80%, 65%)" />
<circle cx="316.12" cy="245.97" r="5" fill="hsl(116, 80%, 65%)" />
<circle cx="218.17" cy="304.36" r="6" fill="hsl(123, 80%, 65%)" />
<circle cx="251.19" cy="194.35" r="2" fill="hsl(130, 80%, 65%)" />
<circle cx="301.51" cy="298.52" r="3" fill="hsl(137, 80%, 65%)" />
<circle cx="193.29" cy="255.39" r="4" fill="hsl(144, 80%, 65%)" />
<circle cx="302.98" cy="213.80" r="5" fill="hsl(151, 80%, 65%)" />
<circle cx="249.82" cy="319.28" r="6" fill="hsl(158, 80%, 65%)" />
<circle cx="217.55" cy="204.82" r="2" fill="hsl(165, 80%, 65%)" />
<circle cx="319.34" cy="267.84" r="3" fill="hsl(172, 80%, 65%)" />
<circle cx="200.94" cy="290.28" r="4" fill="hsl(179, 80%, 65%)" />
<circle cx="273.56" cy="193.13" r="5" fill="hsl(186, 80%, 65%)" />
<circle cx="285.71" cy="314.59" r="6" fill="hsl(193, 80%, 65%)" />
<circle cx="194.13" cy="232.72" r="2" fill="hsl(200, 80%, 65%)" />
<circle cx="317.73" cy="231.22" r="3" fill="hsl(207, 80%, 65%)" />
<circle cx="227.04" cy="316.34" r="4" fill="hsl(214, 80%, 65%)" />
<circle cx="236.47" cy="191.55" r="5" fill="hsl(221, 80%, 65%)" />
<circle cx="314.28" cy="290.54" r="6" fill="hsl(228, 80%, 65%)" />
<circle cx="189.30" cy="269.98" r="2" fill="hsl(235, 80%, 65%)" />
<circle cx="295.97" cy="200.31" r="3" fill="hsl(242, 80%, 65%)" />
<circle cx="264.19" cy="324.45" r="4" fill="hsl(249, 80%, 65%)" />
<circle cx="203.42" cy="210.80" r="5" fill="hsl(256, 80%, 65%)" />
<circle cx="325.70" cy="253.80" r="6" fill="hsl(263, 80%, 65%)" />
<circle cx="205.82" cy="304.97" r="2" fill="hsl(270, 80%, 65%)" />
<circle cx="259.94" cy="185.60" r="3" fill="hsl(277, 80%, 65%)" />
<circle cx="300.89" cy="310.87" r="4" fill="hsl(284, 80%, 65%)" />
<circle cx="185.45" cy="245.81" r="5" fill="hsl(291, 80%, 65%)" />
<circle cx="315.22" cy="215.65" r="6" fill="hsl(298, 80%, 65%)" />
<circle cx="239.50" cy="326.13" r="2" fill="hsl(305, 80%, 65%)" />
<circle cx="220.61" cy="192.82" r="3" fill="hsl(312, 80%, 65%)" />
<circle cx="325.13" cy="278.80" r="4" fill="hsl(319, 80%, 65%)" />
<circle cx="189.28" cy="286.04" r="5" fill="hsl(326, 80%, 65%)" />
<circle cx="285.05" cy="188.44" r="6" fill="hsl(333, 80%, 65%)" />
<circle cx="280.34" cy="325.79" r="2" fill="hsl(340, 80%, 65%)" />
<circle cx="190.59" cy="220.80" r="3" fill="hsl(347, 80%, 65%)" />
<circle cx="328.37" cy="237.68" r="4" fill="hsl(354, 80%, 65%)" />
<circle cx="214.82" cy="318.70" r="5" fill="hsl(1, 80%, 65%)" />
<circle cx="243.96" cy="181.59" r="6" fill="hsl(8, 80%, 65%)" />
<circle cx="315.43" cy="302.96" r="2" fill="hsl(15, 80%, 65%)" />
<circle cx="180.10" cy="261.54" r="3" fill="hsl(22, 80%, 65%)" />
<circle cx="308.47" cy="200.39" r="4" fill="hsl(29, 80%, 65%)" />
<circle cx="254.88" cy="332.80" r="5" fill="hsl(36, 80%, 65%)" />
<circle cx="204.71" cy="198.34" r="6" fill="hsl(43, 80%, 65%)" />
<circle cx="333.12" cy="263.91" r="2" fill="hsl(50, 80%, 65%)" />
<circle cx="193.51" cy="302.47" r="3" fill="hsl(57, 80%, 65%)" />
<circle cx="270.75" cy="179.18" r="4" fill="hsl(64, 80%, 65%)" />
<circle cx="297.20" cy="322.90" r="5" fill="hsl(71, 80%, 65%)" />
<circle cx="180.10" cy="234.40" r="6" fill="hsl(78, 80%, 65%)" />
<circle cx="326.87" cy="220.50" r="2" fill="hsl(85, 80%, 65%)" />
<circle cx="227.60" cy="330.37" r="3" fill="hsl(92, 80%, 65%)" />
<circle cx="226.58" cy="181.66" r="4" fill="hsl(99, 80%, 65%)" />
<circle cx="328.22" cy="291.09" r="5" fill="hsl(106, 80%, 65%)" />
<circle cx="178.72" cy="279.00" r="6" fill="hsl(113, 80%, 65%)" />
<circle cx="297.62" cy="186.55" r="2" fill="hsl(120, 80%, 65%)" />
<circle cx="272.29" cy="335.66" r="3" fill="hsl(127, 80%, 65%)" />
<circle cx="189.91" cy="208.07" r="4" fill="hsl(134, 80%, 65%)" />
<circle cx="337.44" cy="246.66" r="5" fill="hsl(141, 80%, 65%)" />
<circle cx="202.04" cy="318.15" r="6" fill="hsl(148, 80%, 65%)" />
<circle cx="253.79" cy="173.39" r="2" fill="hsl(155, 80%, 65%)" />
<circle cx="313.66" cy="315.66" r="3" fill="hsl(162, 80%, 65%)" />
<circle cx="172.86" cy="250.94" r="4" fill="hsl(169, 80%, 65%)" />
<circle cx="320.98" cy="203.37" r="5" fill="hsl(176, 80%, 65%)" />
<circle cx="243.59" cy="339.03" r="6" fill="hsl(183, 80%, 65%)" />
<circle cx="208.89" cy="186.13" r="2" fill="hsl(190, 80%, 65%)" />
<circle cx="338.25" cy="275.77" r="3" fill="hsl(197, 80%, 65%)" />
<circle cx="181.71" cy="297.14" r="4" fill="hsl(204, 80%, 65%)" />
<circle cx="283.09" cy="175.18" r="5" fill="hsl(211, 80%, 65%)" />
<circle cx="290.75" cy="334.19" r="6" fill="hsl(218, 80%, 65%)" />
<circle cx="177.27" cy="221.69" r="2" fill="hsl(225, 80%, 65%)" />
<circle cx="337.53" cy="228.02" r="3" fill="hsl(232, 80%, 65%)" />
<circle cx="214.63" cy="331.98" r="4" fill="hsl(239, 80%, 65%)" />
<circle cx="235.10" cy="171.72" r="5" fill="hsl(246, 80%, 65%)" />
<circle cx="328.60" cy="304.20" r="6" fill="hsl(253, 80%, 65%)" />
<circle cx="169.60" cy="269.55" r="2" fill="hsl(260, 80%, 65%)" />
<circle cx="310.75" cy="187.40" r="3" fill="hsl(267, 80%, 65%)" />
<circle cx="261.99" cy="343.87" r="4" fill="hsl(274, 80%, 65%)" />
<circle cx="192.00" cy="195.03" r="5" fill="hsl(281, 80%, 65%)" />
<circle cx="344.68" cy="257.73" r="6" fill="hsl(288, 80%, 65%)" />
<circle cx="189.21" cy="314.83" r="2" fill="hsl(295, 80%, 65%)" />
<circle cx="265.54" cy="167.20" r="3" fill="hsl(302, 80%, 65%)" />
<circle cx="309.13" cy="328.17" r="4" fill="hsl(309, 80%, 65%)" />
<circle cx="167.78" cy="238.61" r="5" fill="hsl(316, 80%, 65%)" />
<circle cx="333.06" cy="209.07" r="6" fill="hsl(323, 80%, 65%)" />
<circle cx="230.80" cy="342.95" r="2" fill="hsl(330, 80%, 65%)" />
<circle cx="215.72" cy="174.59" r="3" fill="hsl(337, 80%, 65%)" />
<circle cx="340.97" cy="288.92" r="4" fill="hsl(344, 80%, 65%)" />
<circle cx="170.83" cy="289.23" r="5" fill="hsl(351, 80%, 65%)" />
<circle cx="296.49" cy="173.70" r="6" fill="hsl(358, 80%, 65%)" />
<circle cx="281.82" cy="344.32" r="2" fill="hsl(5, 80%, 65%)" />
<circle cx="177.04" cy="208.16" r="3" fill="hsl(12, 80%, 65%)" />
<circle cx="346.82" cy="237.88" r="4" fill="hsl(19, 80%, 65%)" />
<circle cx="201.09" cy="330.95" r="5" fill="hsl(26, 80%, 65%)" />
<circle cx="245.83" cy="163.36" r="6" fill="hsl(33, 80%, 65%)" />
<circle cx="326.30" cy="317.64" r="2" fill="hsl(40, 80%, 65%)" />
<circle cx="162.24" cy="258.05" r="3" fill="hsl(47, 80%, 65%)" />
<circle cx="323.97" cy="190.95" r="4" fill="hsl(54, 80%, 65%)" />
<circle cx="249.80" cy="350.16" r="5" fill="hsl(61, 80%, 65%)" />
<circle cx="196.78" cy="182.16" r="6" fill="hsl(68, 80%, 65%)" />
<circle cx="349.83" cy="270.49" r="2" fill="hsl(75, 80%, 65%)" />
<circle cx="176.78" cy="308.85" r="3" fill="hsl(82, 80%, 65%)" />
<circle cx="278.78" cy="163.24" r="4" fill="hsl(89, 80%, 65%)" />
<circle cx="302.00" cy="340.04" r="5" fill="hsl(96, 80%, 65%)" />
<circle cx="165.05" cy="225.02" r="6" fill="hsl(103, 80%, 65%)" />
<circle cx="344.26" cy="217.29" r="2" fill="hsl(110, 80%, 65%)" />
<circle cx="216.95" cy="344.42" r="3" fill="hsl(117, 80%, 65%)" />
<circle cx="224.98" cy="164.16" r="4" fill="hsl(124, 80%, 65%)" />
<circle cx="341.16" cy="302.90" r="5" fill="hsl(131, 80%, 65%)" />
<circle cx="161.25" cy="279.01" r="6" fill="hsl(138, 80%, 65%)" />
<circle cx="310.48" cy="174.80" r="2" fill="hsl(145, 80%, 65%)" />
<circle cx="270.72" cy="352.95" r="3" fill="hsl(152, 80%, 65%)" />
<circle cx="179.44" cy="194.28" r="4" fill="hsl(159, 80%, 65%)" />
<circle cx="354.42" cy="249.78" r="5" fill="hsl(166, 80%, 65%)" />
<circle cx="187.44" cy="327.27" r="6" fill="hsl(173, 80%, 65%)" />
<circle cx="258.42" cy="156.86" r="2" fill="hsl(180, 80%, 65%)" />
<circle cx="321.36" cy="330.94" r="3" fill="hsl(187, 80%, 65%)" />
<circle cx="156.91" cy="244.86" r="4" fill="hsl(194, 80%, 65%)" />
<circle cx="336.81" cy="197.12" r="5" fill="hsl(201, 80%, 65%)" />
<circle cx="236.13" cy="354.27" r="6" fill="hsl(208, 80%, 65%)" />
<circle cx="204.13" cy="169.88" r="2" fill="hsl(215, 80%, 65%)" />
<circle cx="352.68" cy="284.54" r="3" fill="hsl(222, 80%, 65%)" />
<circle cx="165.19" cy="300.38" r="4" fill="hsl(229, 80%, 65%)" />
<circle cx="293.08" cy="161.68" r="5" fill="hsl(236, 80%, 65%)" />
<circle cx="292.47" cy="350.84" r="6" fill="hsl(243, 80%, 65%)" />
<circle cx="164.80" cy="210.58" r="2" fill="hsl(250, 80%, 65%)" />
<circle cx="354.18" cy="227.81" r="3" fill="hsl(257, 80%, 65%)" />
<circle cx="202.50" cy="343.33" r="4" fill="hsl(264, 80%, 65%)" />
<circle cx="236.40" cy="155.20" r="5" fill="hsl(271, 80%, 65%)" />
<circle cx="338.75" cy="317.25" r="6" fill="hsl(278, 80%, 65%)" />
<circle cx="153.35" cy="266.76" r="2" fill="hsl(285, 80%, 65%)" />
<circle cx="324.60" cy="178.52" r="3" fill="hsl(292, 80%, 65%)" />
<circle cx="257.76" cy="359.73" r="4" fill="hsl(299, 80%, 65%)" />
<circle cx="184.46" cy="180.51" r="5" fill="hsl(306, 80%, 65%)" />
<circle cx="360.01" cy="263.36" r="6" fill="hsl(313, 80%, 65%)" />
<circle cx="174.13" cy="321.00" r="2" fill="hsl(320, 80%, 65%)" />
<circle cx="272.50" cy="152.52" r="3" fill="hsl(327, 80%, 65%)" />
<circle cx="313.88" cy="343.67" r="4" fill="hsl(334, 80%, 65%)" />
<circle cx="153.85" cy="230.39" r="5" fill="hsl(341, 80%, 65%)" />
<circle cx="348.85" cy="205.76" r="6" fill="hsl(348, 80%, 65%)" />
<circle cx="221.39" cy="356.01" r="2" fill="hsl(355, 80%, 65%)" />
<circle cx="213.87" cy="158.64" r="3" fill="hsl(2, 80%, 65%)" />
<circle cx="353.07" cy="299.44" r="4" fill="hsl(9, 80%, 65%)" />
<circle cx="154.84" cy="289.62" r="5" fill="hsl(16, 80%, 65%)" />
<circle cx="308.00" cy="162.65" r="6" fill="hsl(23, 80%, 65%)" />
<circle cx="280.77" cy="360.21" r="2" fill="hsl(30, 80%, 65%)" />
<circle cx="167.13" cy="195.75" r="3" fill="hsl(37, 80%, 65%)" />
<circle cx="362.48" cy="240.36" r="4" fill="hsl(44, 80%, 65%)" />
<circle cx="187.89" cy="339.65" r="5" fill="hsl(51, 80%, 65%)" />
<circle cx="249.70" cy="148.06" r="6" fill="hsl(58, 80%, 65%)" />
<circle cx="333.74" cy="331.52" r="2" fill="hsl(65, 80%, 65%)" />
<circle cx="147.42" cy="252.82" r="3" fill="hsl(72, 80%, 65%)" />
<circle cx="338.40" cy="184.83" r="4" fill="hsl(79, 80%, 65%)" />
<circle cx="243.28" cy="364.39" r="5" fill="hsl(86, 80%, 65%)" />
<circle cx="192.02" cy="167.28" r="6" fill="hsl(93, 80%, 65%)" />
<circle cx="363.35" cy="278.25" r="2" fill="hsl(100, 80%, 65%)" />
<circle cx="161.60" cy="312.24" r="3" fill="hsl(107, 80%, 65%)" />
<circle cx="287.69" cy="150.53" r="4" fill="hsl(114, 80%, 65%)" />
<circle cx="303.98" cy="355.40" r="5" fill="hsl(121, 80%, 65%)" />
<circle cx="153.24" cy="215.03" r="6" fill="hsl(128, 80%, 65%)" />
<circle cx="359.68" cy="216.71" r="2" fill="hsl(135, 80%, 65%)" />
<circle cx="205.98" cy="355.22" r="3" fill="hsl(142, 80%, 65%)" />
<circle cx="225.80" cy="148.81" r="4" fill="hsl(149, 80%, 65%)" />
<circle cx="350.88" cy="314.76" r="5" fill="hsl(156, 80%, 65%)" />
<circle cx="146.10" cy="276.81" r="6" fill="hsl(163, 80%, 65%)" />
<circle cx="323.13" cy="166.22" r="2" fill="hsl(170, 80%, 65%)" />
<circle cx="267.17" cy="367.78" r="3" fill="hsl(177, 80%, 65%)" />
<circle cx="172.07" cy="180.96" r="4" fill="hsl(184, 80%, 65%)" />
<circle cx="368.82" cy="254.64" r="5" fill="hsl(191, 80%, 65%)" />
<circle cx="173.56" cy="333.37" r="6" fill="hsl(198, 80%, 65%)" />
<circle cx="264.54" cy="143.02" r="2" fill="hsl(205, 80%, 65%)" />
<circle cx="326.17" cy="345.27" r="3" fill="hsl(212, 80%, 65%)" />
<circle cx="143.72" cy="237.53" r="4" fill="hsl(219, 80%, 65%)" />
<circle cx="351.47" cy="193.64" r="5" fill="hsl(226, 80%, 65%)" />
<circle cx="227.67" cy="366.70" r="6" fill="hsl(233, 80%, 65%)" />
<circle cx="202.00" cy="155.03" r="2" fill="hsl(240, 80%, 65%)" />
<circle cx="364.25" cy="294.06" r="3" fill="hsl(247, 80%, 65%)" />
<circle cx="150.25" cy="301.15" r="4" fill="hsl(254, 80%, 65%)" />
<circle cx="303.57" cy="151.06" r="5" fill="hsl(261, 80%, 65%)" />
<circle cx="291.88" cy="365.74" r="6" fill="hsl(268, 80%, 65%)" />
<circle cx="155.21" cy="199.20" r="2" fill="hsl(275, 80%, 65%)" />
<circle cx="368.92" cy="229.74" r="3" fill="hsl(282, 80%, 65%)" />
<circle cx="190.34" cy="351.83" r="4" fill="hsl(289, 80%, 65%)" />
<circle cx="239.65" cy="140.75" r="5" fill="hsl(296, 80%, 65%)" />
<circle cx="346.08" cy="330.08" r="6" fill="hsl(303, 80%, 65%)" />
<circle cx="139.30" cy="262.24" r="2" fill="hsl(310, 80%, 65%)" />
<circle cx="338.00" cy="172.40" r="3" fill="hsl(317, 80%, 65%)" />
<circle cx="251.99" cy="373.27" r="4" fill="hsl(324, 80%, 65%)" />
<circle cx="179.59" cy="166.65" r="5" fill="hsl(331, 80%, 65%)" />
<circle cx="372.93" cy="270.30" r="6" fill="hsl(338, 80%, 65%)" />
<circle cx="159.93" cy="324.57" r="2" fill="hsl(345, 80%, 65%)" />
<circle cx="280.56" cy="140.32" r="3" fill="hsl(352, 80%, 65%)" />
<circle cx="316.15" cy="358.09" r="4" fill="hsl(359, 80%, 65%)" />
<circle cx="142.47" cy="221.28" r="5" fill="hsl(6, 80%, 65%)" />
</svg>
