<svg xmlns="http://www.w3.org/2000/svg" width="512" height="512" viewBox="0 0 512 512">
<rect width="100%" height="100%" fill="#0b1020"/>
<circle cx="347" cy="129" r="56" fill="#f8f3c9" opacity="0.95" />
<circle cx="454.0" cy="164.0" r="3.1" fill="white" />
<circle cx="396.0" cy="173.0" r="3.5" fill="white" />
<circle cx="381.0" cy="138.0" r="2.7" fill="white" />
<circle cx="185.0" cy="178.0" r="2.9" fill="white" />
<circle cx="70.0" cy="129.0" r="1.5" fill="white" />
<circle cx="487.0" cy="85.0" r="2.0" fill="white" />
<circle cx="260.0" cy="70.0" r="3.4" fill="white" />
<circle cx="437.0" cy="111.0" r="3.4" fill="white" />
<path d="M 20 430 C 123 418, 172 447, 303 438 S 450 387, 512 417" stroke="#5dade2" stroke-width="7" fill="none" opacity="0.85" />
<line x1="0" y1="409" x2="512" y2="409" stroke="#445566" stroke-width="2" />
<polygon points="220,361 260,301 300,321 320,291 340,311 352,351 320,373 270,377" fill="#1e1e1e" />
<polygon points="295,301 308,279 318,303" fill="#1e1e1e" />
<line x1="350" y1="346" x2="380" y2="321" stroke="#1e1e1e" stroke-width="6" />
</svg>
