<svg xmlns="http://www.w3.org/2000/svg" width="512" height="512" viewBox="0 0 512 512">
<rect width="100%" height="100%" fill="#0b1020"/>
<circle cx="345" cy="129" r="54" fill="#f8f3c9" opacity="0.95" />
<circle cx="492.0" cy="62.0" r="2.1" fill="white" />
<circle cx="371.0" cy="141.0" r="2.6" fill="white" />
<circle cx="295.0" cy="133.0" r="2.5" fill="white" />
<circle cx="224.0" cy="90.0" r="2.3" fill="white" />
<circle cx="410.0" cy="46.0" r="1.6" fill="white" />
<circle cx="254.0" cy="81.0" r="1.6" fill="white" />
<circle cx="255.0" cy="49.0" r="3.0" fill="white" />
<circle cx="320.0" cy="160.0" r="3.0" fill="white" />
<circle cx="163.0" cy="35.0" r="1.6" fill="white" />
<path d="M 20 430 C 123 426, 187 449, 299 437 S 450 389, 512 419" stroke="#5dade2" stroke-width="7" fill="none" opacity="0.85" />
<line x1="0" y1="403" x2="512" y2="403" stroke="#445566" stroke-width="3" />
<polygon points="165,362 205,302 245,322 265,292 285,312 297,352 265,374 215,378" fill="#1e1e1e" />
<polygon points="240,302 253,280 263,304" fill="#1e1e1e" />
<line x1="295" y1="347" x2="325" y2="322" stroke="#1e1e1e" stroke-width="6" />
</svg>
