<svg xmlns="http://www.w3.org/2000/svg" width="512" height="512" viewBox="0 0 512 512">
<rect width="100%" height="100%" fill="#0b1020"/>
<circle cx="342" cy="77" r="45" fill="#f8f3c9" opacity="0.95" />
<circle cx="484.0" cy="78.0" r="2.3" fill="white" />
<circle cx="443.0" cy="153.0" r="3.1" fill="white" />
<circle cx="188.0" cy="170.0" r="2.8" fill="white" />
<circle cx="50.0" cy="141.0" r="1.8" fill="white" />
<circle cx="186.0" cy="102.0" r="2.9" fill="white" />
<circle cx="404.0" cy="78.0" r="2.8" fill="white" />
<path d="M 20 430 C 115 417, 184 448, 315 439 S 450 397, 512 427" stroke="#5dade2" stroke-width="8" fill="none" opacity="0.85" />
<line x1="0" y1="407" x2="512" y2="407" stroke="#445566" stroke-width="2" />
<polygon points="203,365 243,305 283,325 303,295 323,315 335,355 303,377 253,381" fill="#1e1e1e" />
<polygon points="278,305 291,283 301,307" fill="#1e1e1e" />
<line x1="333" y1="350" x2="363" y2="325" stroke="#1e1e1e" stroke-width="6" />
</svg>
