<svg xmlns="http://www.w3.org/2000/svg" width="512" height="512" viewBox="0 0 512 512">
<rect width="100%" height="100%" fill="black"/>
<circle cx="317" cy="205" r="2" fill="hsl(0, 80%, 65%)" />
<circle cx="352" cy="251" r="8" fill="hsl(9, 80%, 65%)" />
<circle cx="349" cy="83" r="7" fill="hsl(18, 80%, 65%)" />
<circle cx="395" cy="245" r="7" fill="hsl(27, 80%, 65%)" />
<circle cx="271" cy="108" r="6" fill="hsl(36, 80%, 65%)" />
<circle cx="363" cy="133" r="6" fill="hsl(45, 80%, 65%)" />
<circle cx="431" cy="404" r="2" fill="hsl(54, 80%, 65%)" />
<circle cx="226" cy="355" r="4" fill="hsl(63, 80%, 65%)" />
<circle cx="331" cy="334" r="2" fill="hsl(72, 80%, 65%)" />
<circle cx="342" cy="315" r="8" fill="hsl(81, 80%, 65%)" />
<circle cx="295" cy="123" r="8" fill="hsl(90, 80%, 65%)" />
<circle cx="113" cy="175" r="2" fill="hsl(99, 80%, 65%)" />
<circle cx="324" cy="431" r="4" fill="hsl(108, 80%, 65%)" />
<circle cx="170" cy="141" r="4" fill="hsl(117, 80%, 65%)" />
<circle cx="154" cy="215" r="2" fill="hsl(126, 80%, 65%)" />
<circle cx="326" cy="276" r="7" fill="hsl(135, 80%, 65%)" />
<circle cx="79" cy="390" r="6" fill="hsl(144, 80%, 65%)" />
<circle cx="211" cy="257" r="6" fill="hsl(153, 80%, 65%)" />
<circle cx="221" cy="80" r="4" fill="hsl(162, 80%, 65%)" />
<circle cx="393" cy="102" r="8" fill="hsl(171, 80%, 65%)" />
<circle cx="281" cy="313" r="3" fill="hsl(180, 80%, 65%)" />
<circle cx="141" cy="174" r="6" fill="hsl(189, 80%, 65%)" />
<circle cx="210" cy="238" r="6" fill="hsl(198, 80%, 65%)" />
<circle cx="101" cy="113" r="2" fill="hsl(207, 80%, 65%)" />
<circle cx="247" cy="212" r="4" fill="hsl(216, 80%, 65%)" />
<circle cx="177" cy="228" r="8" fill="hsl(225, 80%, 65%)" />
<circle cx="177" cy="156" r="3" fill="hsl(234, 80%, 65%)" />
<circle cx="401" cy="173" r="2" fill="hsl(243, 80%, 65%)" />
<circle cx="222" cy="338" r="4" fill="hsl(252, 80%, 65%)" />
<circle cx="431" cy="184" r="4" fill="hsl(261, 80%, 65%)" />
<circle cx="393" cy="328" r="6" fill="hsl(270, 80%, 65%)" />
<circle cx="139" cy="410" r="4" fill="hsl(279, 80%, 65%)" />
<circle cx="148" cy="433" r="6" fill="hsl(288, 80%, 65%)" />
<circle cx="333" cy="95" r="5" fill="hsl(297, 80%, 65%)" />
<circle cx="175" cy="423" r="8" fill="hsl(306, 80%, 65%)" />
<circle cx="112" cy="218" r="3" fill="hsl(315, 80%, 65%)" />
<circle cx="303" cy="407" r="7" fill="hsl(324, 80%, 65%)" />
<circle cx="124" cy="261" r="8" fill="hsl(333, 80%, 65%)" />
<circle cx="391" cy="94" r="5" fill="hsl(342, 80%, 65%)" />
<circle cx="94" cy="227" r="4" fill="hsl(351, 80%, 65%)" />
<circle cx="152" cy="124" r="8" fill="hsl(0, 80%, 65%)" />
<circle cx="391" cy="414" r="3" fill="hsl(9, 80%, 65%)" />
<circle cx="307" cy="143" r="6" fill="hsl(18, 80%, 65%)" />
<circle cx="249" cy="272" r="8" fill="hsl(27, 80%, 65%)" />
<circle cx="102" cy="79" r="7" fill="hsl(36, 80%, 65%)" />
<circle cx="116" cy="412" r="2" fill="hsl(45, 80%, 65%)" />
<circle cx="229" cy="351" r="8" fill="hsl(54, 80%, 65%)" />
<circle cx="148" cy="226" r="4" fill="hsl(63, 80%, 65%)" />
<circle cx="164" cy="126" r="6" fill="hsl(72, 80%, 65%)" />
<circle cx="253" cy="105" r="5" fill="hsl(81, 80%, 65%)" />
<circle cx="440" cy="130" r="8" fill="hsl(90, 80%, 65%)" />
<circle cx="171" cy="333" r="4" fill="hsl(99, 80%, 65%)" />
<circle cx="81" cy="409" r="6" fill="hsl(108, 80%, 65%)" />
<circle cx="134" cy="312" r="7" fill="hsl(117, 80%, 65%)" />
<circle cx="192" cy="387" r="4" fill="hsl(126, 80%, 65%)" />
<circle cx="164" cy="163" r="3" fill="hsl(135, 80%, 65%)" />
<circle cx="138" cy="158" r="8" fill="hsl(144, 80%, 65%)" />
<circle cx="284" cy="100" r="5" fill="hsl(153, 80%, 65%)" />
<circle cx="437" cy="153" r="2" fill="hsl(162, 80%, 65%)" />
<circle cx="129" cy="122" r="8" fill="hsl(171, 80%, 65%)" />
<circle cx="273" cy="373" r="3" fill="hsl(180, 80%, 65%)" />
<circle cx="421" cy="373" r="2" fill="hsl(189, 80%, 65%)" />
<circle cx="237" cy="212" r="3" fill="hsl(198, 80%, 65%)" />
<circle cx="279" cy="340" r="3" fill="hsl(207, 80%, 65%)" />
<circle cx="111" cy="324" r="8" fill="hsl(216, 80%, 65%)" />
<circle cx="356" cy="152" r="2" fill="hsl(225, 80%, 65%)" />
<circle cx="376" cy="350" r="7" fill="hsl(234, 80%, 65%)" />
<circle cx="158" cy="298" r="4" fill="hsl(243, 80%, 65%)" />
<circle cx="86" cy="237" r="2" fill="hsl(252, 80%, 65%)" />
<circle cx="72" cy="255" r="6" fill="hsl(261, 80%, 65%)" />
<circle cx="117" cy="346" r="6" fill="hsl(270, 80%, 65%)" />
<circle cx="91" cy="294" r="3" fill="hsl(279, 80%, 65%)" />
<circle cx="147" cy="247" r="3" fill="hsl(288, 80%, 65%)" />
<circle cx="166" cy="413" r="2" fill="hsl(297, 80%, 65%)" />
<circle cx="343" cy="237" r="6" fill="hsl(306, 80%, 65%)" />
<circle cx="257" cy="379" r="8" fill="hsl(315, 80%, 65%)" />
<circle cx="144" cy="336" r="8" fill="hsl(324, 80%, 65%)" />
<circle cx="302" cy="223" r="7" fill="hsl(333, 80%, 65%)" />
<circle cx="411" cy="415" r="7" fill="hsl(342, 80%, 65%)" />
<circle cx="330" cy="281" r="4" fill="hsl(351, 80%, 65%)" />
<circle cx="182" cy="149" r="3" fill="hsl(0, 80%, 65%)" />
<circle cx="278" cy="127" r="4" fill="hsl(9, 80%, 65%)" />
<circle cx="315" cy="388" r="6" fill="hsl(18, 80%, 65%)" />
<circle cx="131" cy="170" r="8" fill="hsl(27, 80%, 65%)" />
<circle cx="189" cy="149" r="8" fill="hsl(36, 80%, 65%)" />
<circle cx="311" cy="315" r="6" fill="hsl(45, 80%, 65%)" />
<circle cx="166" cy="112" r="5" fill="hsl(54, 80%, 65%)" />
<circle cx="250" cy="197" r="6" fill="hsl(63, 80%, 65%)" />
<circle cx="413" cy="218" r="2" fill="hsl(72, 80%, 65%)" />
<circle cx="283" cy="99" r="4" fill="hsl(81, 80%, 65%)" />
<circle cx="243" cy="269" r="7" fill="hsl(90, 80%, 65%)" />
<circle cx="356" cy="211" r="5" fill="hsl(99, 80%, 65%)" />
<circle cx="221" cy="371" r="8" fill="hsl(108, 80%, 65%)" />
<circle cx="184" cy="360" r="5" fill="hsl(117, 80%, 65%)" />
<circle cx="86" cy="274" r="4" fill="hsl(126, 80%, 65%)" />
<circle cx="394" cy="279" r="2" fill="hsl(135, 80%, 65%)" />
<circle cx="321" cy="206" r="6" fill="hsl(144, 80%, 65%)" />
<circle cx="106" cy="242" r="7" fill="hsl(153, 80%, 65%)" />
<circle cx="146" cy="421" r="2" fill="hsl(162, 80%, 65%)" />
<circle cx="400" cy="253" r="8" fill="hsl(171, 80%, 65%)" />
<circle cx="254" cy="107" r="6" fill="hsl(180, 80%, 65%)" />
<circle cx="367" cy="108" r="4" fill="hsl(189, 80%, 65%)" />
<circle cx="132" cy="362" r="4" fill="hsl(198, 80%, 65%)" />
<circle cx="75" cy="178" r="5" fill="hsl(207, 80%, 65%)" />
<circle cx="272" cy="203" r="5" fill="hsl(216, 80%, 65%)" />
<circle cx="282" cy="410" r="6" fill="hsl(225, 80%, 65%)" />
<circle cx="124" cy="155" r="2" fill="hsl(234, 80%, 65%)" />
<circle cx="370" cy="360" r="2" fill="hsl(243, 80%, 65%)" />
<circle cx="110" cy="108" r="2" fill="hsl(252, 80%, 65%)" />
<circle cx="403" cy="259" r="6" fill="hsl(261, 80%, 65%)" />
<circle cx="134" cy="262" r="8" fill="hsl(270, 80%, 65%)" />
<circle cx="350" cy="311" r="2" fill="hsl(279, 80%, 65%)" />
<circle cx="431" cy="82" r="2" fill="hsl(288, 80%, 65%)" />
<circle cx="142" cy="189" r="4" fill="hsl(297, 80%, 65%)" />
<circle cx="191" cy="242" r="6" fill="hsl(306, 80%, 65%)" />
<circle cx="147" cy="146" r="4" fill="hsl(315, 80%, 65%)" />
<circle cx="262" cy="173" r="5" fill="hsl(324, 80%, 65%)" />
<circle cx="413" cy="383" r="5" fill="hsl(333, 80%, 65%)" />
<circle cx="388" cy="274" r="2" fill="hsl(342, 80%, 65%)" />
<circle cx="283" cy="292" r="7" fill="hsl(351, 80%, 65%)" />
<circle cx="78" cy="167" r="3" fill="hsl(0, 80%, 65%)" />
<circle cx="141" cy="275" r="6" fill="hsl(9, 80%, 65%)" />
<circle cx="76" cy="432" r="7" fill="hsl(18, 80%, 65%)" />
<circle cx="426" cy="337" r="8" fill="hsl(27, 80%, 65%)" />
<circle cx="344" cy="288" r="5" fill="hsl(36, 80%, 65%)" />
<circle cx="358" cy="171" r="4" fill="hsl(45, 80%, 65%)" />
<circle cx="181" cy="213" r="3" fill="hsl(54, 80%, 65%)" />
<circle cx="128" cy="136" r="5" fill="hsl(63, 80%, 65%)" />
<circle cx="313" cy="277" r="6" fill="hsl(72, 80%, 65%)" />
<circle cx="336" cy="374" r="7" fill="hsl(81, 80%, 65%)" />
<circle cx="103" cy="319" r="6" fill="hsl(90, 80%, 65%)" />
<circle cx="76" cy="96" r="6" fill="hsl(99, 80%, 65%)" />
<circle cx="161" cy="269" r="4" fill="hsl(108, 80%, 65%)" />
<circle cx="146" cy="436" r="6" fill="hsl(117, 80%, 65%)" />
<circle cx="356" cy="148" r="5" fill="hsl(126, 80%, 65%)" />
<circle cx="413" cy="302" r="5" fill="hsl(135, 80%, 65%)" />
<circle cx="383" cy="324" r="4" fill="hsl(144, 80%, 65%)" />
<circle cx="296" cy="208" r="3" fill="hsl(153, 80%, 65%)" />
<circle cx="300" cy="183" r="2" fill="hsl(162, 80%, 65%)" />
<circle cx="279" cy="74" r="6" fill="hsl(171, 80%, 65%)" />
<circle cx="348" cy="86" r="8" fill="hsl(180, 80%, 65%)" />
<circle cx="422" cy="434" r="8" fill="hsl(189, 80%, 65%)" />
<circle cx="183" cy="291" r="5" fill="hsl(198, 80%, 65%)" />
<circle cx="224" cy="111" r="2" fill="hsl(207, 80%, 65%)" />
<circle cx="192" cy="292" r="7" fill="hsl(216, 80%, 65%)" />
<circle cx="120" cy="104" r="8" fill="hsl(225, 80%, 65%)" />
<circle cx="210" cy="261" r="6" fill="hsl(234, 80%, 65%)" />
<circle cx="136" cy="153" r="5" fill="hsl(243, 80%, 65%)" />
<circle cx="270" cy="434" r="7" fill="hsl(252, 80%, 65%)" />
<circle cx="438" cy="344" r="6" fill="hsl(261, 80%, 65%)" />
<circle cx="303" cy="232" r="2" fill="hsl(270, 80%, 65%)" />
<circle cx="382" cy="389" r="8" fill="hsl(279, 80%, 65%)" />
<circle cx="182" cy="293" r="8" fill="hsl(288, 80%, 65%)" />
<circle cx="357" cy="82" r="8" fill="hsl(297, 80%, 65%)" />
<circle cx="284" cy="129" r="6" fill="hsl(306, 80%, 65%)" />
<circle cx="334" cy="429" r="7" fill="hsl(315, 80%, 65%)" />
<circle cx="338" cy="96" r="2" fill="hsl(324, 80%, 65%)" />
<circle cx="368" cy="118" r="2" fill="hsl(333, 80%, 65%)" />
<circle cx="406" cy="313" r="8" fill="hsl(342, 80%, 65%)" />
<circle cx="141" cy="144" r="8" fill="hsl(351, 80%, 65%)" />
<circle cx="301" cy="357" r="7" fill="hsl(0, 80%, 65%)" />
<circle cx="408" cy="324" r="4" fill="hsl(9, 80%, 65%)" />
<circle cx="418" cy="198" r="4" fill="hsl(18, 80%, 65%)" />
<circle cx="409" cy="149" r="6" fill="hsl(27, 80%, 65%)" />
<circle cx="429" cy="227" r="6" fill="hsl(36, 80%, 65%)" />
<circle cx="300" cy="159" r="5" fill="hsl(45, 80%, 65%)" />
<circle cx="277" cy="80" r="3" fill="hsl(54, 80%, 65%)" />
<circle cx="139" cy="393" r="6" fill="hsl(63, 80%, 65%)" />
<circle cx="258" cy="409" r="2" fill="hsl(72, 80%, 65%)" />
<circle cx="140" cy="351" r="8" fill="hsl(81, 80%, 65%)" />
<circle cx="101" cy="416" r="4" fill="hsl(90, 80%, 65%)" />
<circle cx="153" cy="408" r="8" fill="hsl(99, 80%, 65%)" />
<circle cx="126" cy="308" r="4" fill="hsl(108, 80%, 65%)" />
<circle cx="134" cy="335" r="3" fill="hsl(117, 80%, 65%)" />
<circle cx="148" cy="155" r="4" fill="hsl(126, 80%, 65%)" />
<circle cx="215" cy="161" r="5" fill="hsl(135, 80%, 65%)" />
<circle cx="229" cy="386" r="8" fill="hsl(144, 80%, 65%)" />
<circle cx="198" cy="202" r="2" fill="hsl(153, 80%, 65%)" />
<circle cx="161" cy="237" r="2" fill="hsl(162, 80%, 65%)" />
<circle cx="327" cy="226" r="6" fill="hsl(171, 80%, 65%)" />
<line x1="429" y1="405" x2="366" y2="439" stroke="#223344" stroke-width="1"/>
<line x1="247" y1="111" x2="262" y2="46" stroke="#223344" stroke-width="1"/>
<line x1="367" y1="370" x2="319" y2="316" stroke="#223344" stroke-width="1"/>
<line x1="308" y1="220" x2="319" y2="221" stroke="#223344" stroke-width="1"/>
<line x1="287" y1="355" x2="287" y2="279" stroke="#223344" stroke-width="1"/>
<line x1="111" y1="240" x2="88" y2="195" stroke="#223344" stroke-width="1"/>
<line x1="383" y1="425" x2="326" y2="356" stroke="#223344" stroke-width="1"/>
<line x1="275" y1="109" x2="297" y2="119" stroke="#223344" stroke-width="1"/>
<line x1="357" y1="97" x2="286" y2="66" stroke="#223344" stroke-width="1"/>
<line x1="114" y1="70" x2="82" y2="116" stroke="#223344" stroke-width="1"/>
<line x1="334" y1="292" x2="297" y2="340" stroke="#223344" stroke-width="1"/>
<line x1="232" y1="107" x2="295" y2="83" stroke="#223344" stroke-width="1"/>
<line x1="251" y1="135" x2="189" y2="166" stroke="#223344" stroke-width="1"/>
<line x1="282" y1="343" x2="248" y2="298" stroke="#223344" stroke-width="1"/>
<line x1="154" y1="374" x2="103" y2="357" stroke="#223344" stroke-width="1"/>
<line x1="183" y1="68" x2="165" y2="119" stroke="#223344" stroke-width="1"/>
<line x1="153" y1="187" x2="109" y2="162" stroke="#223344" stroke-width="1"/>
<line x1="356" y1="447" x2="300" y2="477" stroke="#223344" stroke-width="1"/>
<line x1="213" y1="401" x2="272" y2="383" stroke="#223344" stroke-width="1"/>
<line x1="260" y1="315" x2="298" y2="254" stroke="#223344" stroke-width="1"/>
<line x1="143" y1="426" x2="175" y2="439" stroke="#223344" stroke-width="1"/>
<line x1="297" y1="132" x2="242" y2="147" stroke="#223344" stroke-width="1"/>
<line x1="374" y1="109" x2="424" y2="186" stroke="#223344" stroke-width="1"/>
<line x1="94" y1="82" x2="142" y2="156" stroke="#223344" stroke-width="1"/>
</svg>
