<svg xmlns="http://www.w3.org/2000/svg" width="512" height="512" viewBox="0 0 512 512">
<rect width="100%" height="100%" fill="#0b1020"/>
<circle cx="422" cy="70" r="50" fill="#f8f3c9" opacity="0.95" />
<circle cx="367.0" cy="159.0" r="2.3" fill="white" />
<circle cx="390.0" cy="70.0" r="3.0" fill="white" />
<circle cx="140.0" cy="160.0" r="2.7" fill="white" />
<circle cx="235.0" cy="72.0" r="1.9" fill="white" />
<circle cx="445.0" cy="68.0" r="1.5" fill="white" />
<circle cx="40.0" cy="45.0" r="1.6" fill="white" />
<circle cx="53.0" cy="165.0" r="2.6" fill="white" />
<circle cx="371.0" cy="114.0" r="3.3" fill="white" />
<path d="M 20 430 C 105 416, 186 445, 298 434 S 450 398, 512 428" stroke="#5dade2" stroke-width="6" fill="none" opacity="0.85" />
<line x1="0" y1="410" x2="512" y2="410" stroke="#445566" stroke-width="3" />
<polygon points="193,351 233,291 273,311 293,281 313,301 325,341 293,363 243,367" fill="#1e1e1e" />
<polygon points="268,291 281,269 291,293" fill="#1e1e1e" />
<line x1="323" y1="336" x2="353" y2="311" stroke="#1e1e1e" stroke-width="6" />
</svg>
