<svg xmlns="http://www.w3.org/2000/svg" width="512" height="512" viewBox="0 0 512 512">
<rect width="100%" height="100%" fill="black"/>
<circle cx="256.00" cy="256.00" r="2" fill="hsl(0, 80%, 65%)" />
<circle cx="250.07" cy="261.43" r="3" fill="hsl(6, 80%, 65%)" />
<circle cx="256.99" cy="244.67" r="4" fill="hsl(12, 80%, 65%)" />
<circle cx="264.48" cy="267.06" r="5" fill="hsl(18, 80%, 65%)" />
<circle cx="240.16" cy="253.20" r="6" fill="hsl(24, 80%, 65%)" />
<circle cx="271.18" cy="246.35" r="2" fill="hsl(30, 80%, 65%)" />
<circle cx="250.88" cy="275.03" r="3" fill="hsl(36, 80%, 65%)" />
<circle cx="246.19" cy="237.11" r="4" fill="hsl(42, 80%, 65%)" />
<circle cx="277.37" cy="263.81" r="5" fill="hsl(48, 80%, 65%)" />
<circle cx="233.69" cy="265.21" r="6" fill="hsl(54, 80%, 65%)" />
<circle cx="266.78" cy="232.96" r="2" fill="hsl(60, 80%, 65%)" />
<circle cx="263.98" cy="281.46" r="3" fill="hsl(66, 80%, 65%)" />
<circle cx="231.89" cy="242.03" r="4" fill="hsl(72, 80%, 65%)" />
<circle cx="284.33" cy="249.77" r="5" fill="hsl(78, 80%, 65%)" />
<circle cx="238.69" cy="280.62" r="6" fill="hsl(84, 80%, 65%)" />
<circle cx="252.00" cy="225.10" r="2" fill="hsl(90, 80%, 65%)" />
<circle cx="280.60" cy="276.74" r="3" fill="hsl(96, 80%, 65%)" />
<circle cx="222.86" cy="257.37" r="4" fill="hsl(102, 80%, 65%)" />
<circle cx="280.19" cy="231.93" r="5" fill="hsl(108, 80%, 65%)" />
<circle cx="254.38" cy="291.03" r="6" fill="hsl(114, 80%, 65%)" />
<circle cx="232.95" cy="228.38" r="2" fill="hsl(120, 80%, 65%)" />
<circle cx="292.53" cy="260.92" r="3" fill="hsl(126, 80%, 65%)" />
<circle cx="225.03" cy="277.55" r="4" fill="hsl(132, 80%, 65%)" />
<circle cx="264.47" cy="218.36" r="5" fill="hsl(138, 80%, 65%)" />
<circle cx="275.59" cy="290.19" r="6" fill="hsl(144, 80%, 65%)" />
<circle cx="217.68" cy="243.78" r="2" fill="hsl(150, 80%, 65%)" />
<circle cx="293.24" cy="238.80" r="3" fill="hsl(156, 80%, 65%)" />
<circle cx="239.86" cy="294.56" r="4" fill="hsl(162, 80%, 65%)" />
<circle cx="241.59" cy="215.95" r="5" fill="hsl(168, 80%, 65%)" />
<circle cx="294.35" cy="276.15" r="6" fill="hsl(174, 80%, 65%)" />
<circle cx="213.39" cy="267.23" r="2" fill="hsl(180, 80%, 65%)" />
<circle cx="280.22" cy="218.33" r="3" fill="hsl(186, 80%, 65%)" />
<circle cx="263.71" cy="300.85" r="4" fill="hsl(192, 80%, 65%)" />
<circle cx="219.46" cy="227.70" r="5" fill="hsl(198, 80%, 65%)" />
<circle cx="302.75" cy="252.13" r="6" fill="hsl(204, 80%, 65%)" />
<circle cx="223.68" cy="290.94" r="2" fill="hsl(210, 80%, 65%)" />
<circle cx="256.24" cy="207.73" r="3" fill="hsl(216, 80%, 65%)" />
<circle cx="288.88" cy="292.24" r="4" fill="hsl(222, 80%, 65%)" />
<circle cx="206.62" cy="251.42" r="5" fill="hsl(228, 80%, 65%)" />
<circle cx="296.02" cy="225.63" r="6" fill="hsl(234, 80%, 65%)" />
<circle cx="246.89" cy="306.06" r="2" fill="hsl(240, 80%, 65%)" />
<circle cx="228.57" cy="212.40" r="3" fill="hsl(246, 80%, 65%)" />
<circle cx="306.28" cy="269.78" r="4" fill="hsl(252, 80%, 65%)" />
<circle cx="209.07" cy="280.08" r="5" fill="hsl(258, 80%, 65%)" />
<circle cx="274.55" cy="205.97" r="6" fill="hsl(264, 80%, 65%)" />
<circle cx="276.35" cy="305.98" r="2" fill="hsl(270, 80%, 65%)" />
<circle cx="206.70" cy="232.63" r="3" fill="hsl(276, 80%, 65%)" />
<circle cx="308.70" cy="239.75" r="4" fill="hsl(282, 80%, 65%)" />
<circle cx="227.82" cy="304.08" r="5" fill="hsl(288, 80%, 65%)" />
<circle cx="244.18" cy="200.94" r="6" fill="hsl(294, 80%, 65%)" />
<circle cx="302.37" cy="288.94" r="2" fill="hsl(300, 80%, 65%)" />
<circle cx="198.99" cy="263.10" r="3" fill="hsl(306, 80%, 65%)" />
<circle cx="293.60" cy="211.83" r="4" fill="hsl(312, 80%, 65%)" />
<circle cx="258.13" cy="314.53" r="5" fill="hsl(318, 80%, 65%)" />
<circle cx="214.51" cy="213.90" r="6" fill="hsl(324, 80%, 65%)" />
<circle cx="315.58" cy="259.05" r="2" fill="hsl(330, 80%, 65%)" />
<circle cx="209.59" cy="294.34" r="3" fill="hsl(336, 80%, 65%)" />
<circle cx="264.39" cy="195.85" r="4" fill="hsl(342, 80%, 65%)" />
<circle cx="290.74" cy="306.46" r="5" fill="hsl(348, 80%, 65%)" />
<circle cx="195.78" cy="242.14" r="6" fill="hsl(354, 80%, 65%)" />
<circle cx="310.21" cy="225.28" r="2" fill="hsl(0, 80%, 65%)" />
<circle cx="236.61" cy="315.76" r="3" fill="hsl(6, 80%, 65%)" />
<circle cx="229.71" cy="198.37" r="4" fill="hsl(12, 80%, 65%)" />
<circle cx="314.78" cy="280.94" r="5" fill="hsl(18, 80%, 65%)" />
<circle cx="195.34" cy="277.49" r="6" fill="hsl(24, 80%, 65%)" />
<circle cx="286.45" cy="198.74" r="2" fill="hsl(30, 80%, 65%)" />
<circle cx="272.35" cy="319.27" r="3" fill="hsl(36, 80%, 65%)" />
<circle cx="200.79" cy="220.12" r="4" fill="hsl(42, 80%, 65%)" />
<circle cx="321.43" cy="245.08" r="5" fill="hsl(48, 80%, 65%)" />
<circle cx="214.83" cy="308.63" r="6" fill="hsl(54, 80%, 65%)" />
<circle cx="250.77" cy="188.90" r="2" fill="hsl(60, 80%, 65%)" />
<circle cx="305.53" cy="302.27" r="3" fill="hsl(66, 80%, 65%)" />
<circle cx="187.74" cy="255.33" r="4" fill="hsl(72, 80%, 65%)" />
<circle cx="307.13" cy="210.07" r="5" fill="hsl(78, 80%, 65%)" />
<circle cx="249.28" cy="324.87" r="6" fill="hsl(84, 80%, 65%)" />
<circle cx="214.15" cy="200.30" r="2" fill="hsl(90, 80%, 65%)" />
<circle cx="324.93" cy="268.89" r="3" fill="hsl(96, 80%, 65%)" />
<circle cx="196.07" cy="293.30" r="4" fill="hsl(102, 80%, 65%)" />
<circle cx="275.11" cy="187.57" r="5" fill="hsl(108, 80%, 65%)" />
<circle cx="288.33" cy="319.77" r="6" fill="hsl(114, 80%, 65%)" />
<circle cx="188.66" cy="230.66" r="2" fill="hsl(120, 80%, 65%)" />
<circle cx="323.19" cy="229.03" r="3" fill="hsl(126, 80%, 65%)" />
<circle cx="224.48" cy="321.67" r="4" fill="hsl(132, 80%, 65%)" />
<circle cx="234.75" cy="185.86" r="5" fill="hsl(138, 80%, 65%)" />
<circle cx="319.43" cy="293.59" r="6" fill="hsl(144, 80%, 65%)" />
<circle cx="183.41" cy="271.22" r="2" fill="hsl(150, 80%, 65%)" />
<circle cx="299.50" cy="195.39" r="3" fill="hsl(156, 80%, 65%)" />
<circle cx="264.92" cy="330.50" r="4" fill="hsl(162, 80%, 65%)" />
<circle cx="198.77" cy="206.81" r="5" fill="hsl(168, 80%, 65%)" />
<circle cx="331.85" cy="253.60" r="6" fill="hsl(174, 80%, 65%)" />
<circle cx="201.38" cy="309.30" r="2" fill="hsl(180, 80%, 65%)" />
<circle cx="260.29" cy="179.38" r="3" fill="hsl(186, 80%, 65%)" />
<circle cx="304.86" cy="315.72" r="4" fill="hsl(192, 80%, 65%)" />
<circle cx="179.22" cy="244.91" r="5" fill="hsl(198, 80%, 65%)" />
<circle cx="320.45" cy="212.08" r="6" fill="hsl(204, 80%, 65%)" />
<circle cx="238.05" cy="332.32" r="2" fill="hsl(210, 80%, 65%)" />
<circle cx="217.48" cy="187.23" r="3" fill="hsl(216, 80%, 65%)" />
<circle cx="331.24" cy="280.82" r="4" fill="hsl(222, 80%, 65%)" />
<circle cx="183.39" cy="288.69" r="5" fill="hsl(228, 80%, 65%)" />
<circle cx="287.62" cy="182.47" r="6" fill="hsl(234, 80%, 65%)" />
<circle cx="282.49" cy="331.96" r="2" fill="hsl(240, 80%, 65%)" />
<circle cx="184.81" cy="217.69" r="3" fill="hsl(246, 80%, 65%)" />
<circle cx="334.76" cy="236.06" r="4" fill="hsl(252, 80%, 65%)" />
<circle cx="211.18" cy="324.24" r="5" fill="hsl(258, 80%, 65%)" />
<circle cx="242.89" cy="175.02" r="6" fill="hsl(264, 80%, 65%)" />
<circle cx="320.68" cy="307.11" r="2" fill="hsl(270, 80%, 65%)" />
<circle cx="173.40" cy="262.03" r="3" fill="hsl(276, 80%, 65%)" />
<circle cx="313.10" cy="195.47" r="4" fill="hsl(282, 80%, 65%)" />
<circle cx="254.78" cy="339.59" r="5" fill="hsl(288, 80%, 65%)" />
<circle cx="200.18" cy="193.25" r="6" fill="hsl(294, 80%, 65%)" />
<circle cx="339.93" cy="264.61" r="2" fill="hsl(300, 80%, 65%)" />
<circle cx="187.99" cy="306.58" r="3" fill="hsl(306, 80%, 65%)" />
<circle cx="272.05" cy="172.39" r="4" fill="hsl(312, 80%, 65%)" />
<circle cx="300.84" cy="328.82" r="5" fill="hsl(318, 80%, 65%)" />
<circle cx="173.39" cy="232.49" r="6" fill="hsl(324, 80%, 65%)" />
<circle cx="333.13" cy="217.36" r="2" fill="hsl(330, 80%, 65%)" />
<circle cx="225.09" cy="336.94" r="3" fill="hsl(336, 80%, 65%)" />
<circle cx="223.98" cy="175.09" r="4" fill="hsl(342, 80%, 65%)" />
<circle cx="334.60" cy="294.19" r="5" fill="hsl(348, 80%, 65%)" />
<circle cx="171.89" cy="281.04" r="6" fill="hsl(354, 80%, 65%)" />
<circle cx="301.30" cy="180.41" r="2" fill="hsl(0, 80%, 65%)" />
<circle cx="273.73" cy="342.69" r="3" fill="hsl(6, 80%, 65%)" />
<circle cx="184.07" cy="203.84" r="4" fill="hsl(12, 80%, 65%)" />
<circle cx="344.63" cy="245.83" r="5" fill="hsl(18, 80%, 65%)" />
<circle cx="197.28" cy="323.64" r="6" fill="hsl(24, 80%, 65%)" />
<circle cx="253.60" cy="166.09" r="2" fill="hsl(30, 80%, 65%)" />
<circle cx="318.75" cy="320.93" r="3" fill="hsl(36, 80%, 65%)" />
<circle cx="165.51" cy="250.49" r="4" fill="hsl(42, 80%, 65%)" />
<circle cx="326.72" cy="198.72" r="5" fill="hsl(48, 80%, 65%)" />
<circle cx="242.49" cy="346.36" r="6" fill="hsl(54, 80%, 65%)" />
<circle cx="204.72" cy="179.95" r="2" fill="hsl(60, 80%, 65%)" />
<circle cx="345.52" cy="277.52" r="3" fill="hsl(66, 80%, 65%)" />
<circle cx="175.15" cy="300.77" r="4" fill="hsl(72, 80%, 65%)" />
<circle cx="285.49" cy="168.04" r="5" fill="hsl(78, 80%, 65%)" />
<circle cx="293.82" cy="341.10" r="6" fill="hsl(84, 80%, 65%)" />
<circle cx="170.32" cy="218.66" r="2" fill="hsl(90, 80%, 65%)" />
<circle cx="344.73" cy="225.54" r="3" fill="hsl(96, 80%, 65%)" />
<circle cx="210.98" cy="338.70" r="4" fill="hsl(102, 80%, 65%)" />
<circle cx="233.25" cy="164.28" r="5" fill="hsl(108, 80%, 65%)" />
<circle cx="335.01" cy="308.46" r="6" fill="hsl(114, 80%, 65%)" />
<circle cx="161.97" cy="270.75" r="2" fill="hsl(120, 80%, 65%)" />
<circle cx="315.59" cy="181.34" r="3" fill="hsl(126, 80%, 65%)" />
<circle cx="262.52" cy="351.64" r="4" fill="hsl(132, 80%, 65%)" />
<circle cx="186.35" cy="189.65" r="5" fill="hsl(138, 80%, 65%)" />
<circle cx="352.51" cy="257.88" r="6" fill="hsl(144, 80%, 65%)" />
<circle cx="183.31" cy="320.03" r="2" fill="hsl(150, 80%, 65%)" />
<circle cx="266.39" cy="159.36" r="3" fill="hsl(156, 80%, 65%)" />
<circle cx="313.82" cy="334.55" r="4" fill="hsl(162, 80%, 65%)" />
<circle cx="159.98" cy="237.08" r="5" fill="hsl(168, 80%, 65%)" />
<circle cx="339.86" cy="204.92" r="6" fill="hsl(174, 80%, 65%)" />
<circle cx="228.57" cy="350.63" r="2" fill="hsl(180, 80%, 65%)" />
<circle cx="212.16" cy="167.40" r="3" fill="hsl(186, 80%, 65%)" />
<circle cx="348.48" cy="291.83" r="4" fill="hsl(192, 80%, 65%)" />
<circle cx="163.30" cy="292.16" r="5" fill="hsl(198, 80%, 65%)" />
<circle cx="300.07" cy="166.43" r="6" fill="hsl(204, 80%, 65%)" />
<circle cx="284.10" cy="352.13" r="2" fill="hsl(210, 80%, 65%)" />
<circle cx="170.07" cy="203.93" r="3" fill="hsl(216, 80%, 65%)" />
<circle cx="354.85" cy="236.28" r="4" fill="hsl(222, 80%, 65%)" />
<circle cx="196.24" cy="337.57" r="5" fill="hsl(228, 80%, 65%)" />
<circle cx="244.93" cy="155.17" r="6" fill="hsl(234, 80%, 65%)" />
<circle cx="332.51" cy="323.08" r="2" fill="hsl(240, 80%, 65%)" />
<circle cx="153.95" cy="258.23" r="3" fill="hsl(246, 80%, 65%)" />
<circle cx="329.97" cy="185.21" r="4" fill="hsl(252, 80%, 65%)" />
<circle cx="249.26" cy="358.48" r="5" fill="hsl(258, 80%, 65%)" />
<circle cx="191.55" cy="175.63" r="6" fill="hsl(264, 80%, 65%)" />
<circle cx="358.12" cy="271.77" r="2" fill="hsl(270, 80%, 65%)" />
<circle cx="169.78" cy="313.52" r="3" fill="hsl(276, 80%, 65%)" />
<circle cx="280.79" cy="155.04" r="4" fill="hsl(282, 80%, 65%)" />
<circle cx="306.06" cy="347.46" r="5" fill="hsl(288, 80%, 65%)" />
<circle cx="157.01" cy="222.28" r="6" fill="hsl(294, 80%, 65%)" />
<circle cx="352.05" cy="213.87" r="2" fill="hsl(300, 80%, 65%)" />
<circle cx="213.50" cy="352.23" r="3" fill="hsl(306, 80%, 65%)" />
<circle cx="222.24" cy="156.05" r="4" fill="hsl(312, 80%, 65%)" />
<circle cx="348.68" cy="307.04" r="5" fill="hsl(318, 80%, 65%)" />
<circle cx="152.88" cy="281.04" r="6" fill="hsl(324, 80%, 65%)" />
<circle cx="315.29" cy="167.63" r="2" fill="hsl(330, 80%, 65%)" />
<circle cx="272.02" cy="361.51" r="3" fill="hsl(336, 80%, 65%)" />
<circle cx="172.68" cy="188.83" r="4" fill="hsl(342, 80%, 65%)" />
<circle cx="363.11" cy="249.23" r="5" fill="hsl(348, 80%, 65%)" />
<circle cx="181.39" cy="333.56" r="6" fill="hsl(354, 80%, 65%)" />
<circle cx="258.63" cy="148.11" r="2" fill="hsl(0, 80%, 65%)" />
<circle cx="327.14" cy="337.56" r="3" fill="hsl(6, 80%, 65%)" />
<circle cx="148.15" cy="243.88" r="4" fill="hsl(12, 80%, 65%)" />
<circle cx="343.95" cy="191.91" r="5" fill="hsl(18, 80%, 65%)" />
<circle cx="234.38" cy="362.96" r="6" fill="hsl(24, 80%, 65%)" />
<circle cx="199.54" cy="162.28" r="2" fill="hsl(30, 80%, 65%)" />
<circle cx="361.22" cy="287.06" r="3" fill="hsl(36, 80%, 65%)" />
<circle cx="157.17" cy="304.31" r="4" fill="hsl(42, 80%, 65%)" />
<circle cx="296.35" cy="153.35" r="5" fill="hsl(48, 80%, 65%)" />
<circle cx="295.69" cy="359.22" r="6" fill="hsl(54, 80%, 65%)" />
<circle cx="156.74" cy="206.57" r="2" fill="hsl(60, 80%, 65%)" />
<circle cx="362.86" cy="225.32" r="3" fill="hsl(66, 80%, 65%)" />
<circle cx="197.77" cy="351.05" r="4" fill="hsl(72, 80%, 65%)" />
<circle cx="234.67" cy="146.30" r="5" fill="hsl(78, 80%, 65%)" />
<circle cx="346.06" cy="322.66" r="6" fill="hsl(84, 80%, 65%)" />
<circle cx="144.28" cy="267.71" r="2" fill="hsl(90, 80%, 65%)" />
<circle cx="330.66" cy="171.68" r="3" fill="hsl(96, 80%, 65%)" />
<circle cx="257.91" cy="368.89" r="4" fill="hsl(102, 80%, 65%)" />
<circle cx="178.14" cy="173.84" r="5" fill="hsl(108, 80%, 65%)" />
<circle cx="369.20" cy="264.00" r="6" fill="hsl(114, 80%, 65%)" />
<circle cx="166.90" cy="326.74" r="2" fill="hsl(120, 80%, 65%)" />
<circle cx="273.96" cy="143.37" r="3" fill="hsl(126, 80%, 65%)" />
<circle cx="318.99" cy="351.42" r="4" fill="hsl(132, 80%, 65%)" />
<circle cx="144.83" cy="228.12" r="5" fill="hsl(138, 80%, 65%)" />
<circle cx="357.05" cy="201.32" r="6" fill="hsl(144, 80%, 65%)" />
<circle cx="218.33" cy="364.84" r="2" fill="hsl(150, 80%, 65%)" />
<circle cx="210.14" cy="150.04" r="3" fill="hsl(156, 80%, 65%)" />
<circle cx="361.64" cy="303.27" r="4" fill="hsl(162, 80%, 65%)" />
<circle cx="145.90" cy="292.59" r="5" fill="hsl(168, 80%, 65%)" />
<circle cx="312.60" cy="154.41" r="6" fill="hsl(174, 80%, 65%)" />
<circle cx="282.96" cy="369.41" r="2" fill="hsl(180, 80%, 65%)" />
<circle cx="159.28" cy="190.42" r="3" fill="hsl(186, 80%, 65%)" />
<circle cx="371.89" cy="238.98" r="4" fill="hsl(192, 80%, 65%)" />
<circle cx="181.87" cy="347.04" r="5" fill="hsl(198, 80%, 65%)" />
<circle cx="249.15" cy="138.52" r="6" fill="hsl(204, 80%, 65%)" />
<circle cx="340.61" cy="338.19" r="2" fill="hsl(210, 80%, 65%)" />
<circle cx="137.82" cy="252.54" r="3" fill="hsl(216, 80%, 65%)" />
<circle cx="345.68" cy="178.55" r="4" fill="hsl(222, 80%, 65%)" />
<circle cx="242.16" cy="373.96" r="5" fill="hsl(228, 80%, 65%)" />
<circle cx="186.36" cy="159.45" r="6" fill="hsl(234, 80%, 65%)" />
<circle cx="372.83" cy="280.21" r="2" fill="hsl(240, 80%, 65%)" />
<circle cx="153.26" cy="317.21" r="3" fill="hsl(246, 80%, 65%)" />
<circle cx="290.49" cy="141.21" r="4" fill="hsl(252, 80%, 65%)" />
<circle cx="308.22" cy="364.18" r="5" fill="hsl(258, 80%, 65%)" />
<circle cx="144.17" cy="211.41" r="6" fill="hsl(264, 80%, 65%)" />
<circle cx="368.84" cy="213.24" r="2" fill="hsl(270, 80%, 65%)" />
<circle cx="201.56" cy="363.99" r="3" fill="hsl(276, 80%, 65%)" />
<circle cx="223.13" cy="139.34" r="4" fill="hsl(282, 80%, 65%)" />
<circle cx="359.27" cy="319.95" r="5" fill="hsl(288, 80%, 65%)" />
<circle cx="136.39" cy="278.65" r="6" fill="hsl(294, 80%, 65%)" />
<circle cx="329.06" cy="158.29" r="2" fill="hsl(300, 80%, 65%)" />
<circle cx="268.16" cy="377.66" r="3" fill="hsl(306, 80%, 65%)" />
<circle cx="164.66" cy="174.33" r="4" fill="hsl(312, 80%, 65%)" />
<circle cx="378.78" cy="254.52" r="5" fill="hsl(318, 80%, 65%)" />
<circle cx="166.27" cy="340.21" r="6" fill="hsl(324, 80%, 65%)" />
<circle cx="265.30" cy="133.03" r="2" fill="hsl(330, 80%, 65%)" />
<circle cx="332.37" cy="353.16" r="3" fill="hsl(336, 80%, 65%)" />
<circle cx="133.80" cy="235.90" r="4" fill="hsl(342, 80%, 65%)" />
<circle cx="359.90" cy="188.13" r="5" fill="hsl(348, 80%, 65%)" />
<circle cx="225.17" cy="376.48" r="6" fill="hsl(354, 80%, 65%)" />
<circle cx="197.23" cy="146.10" r="2" fill="hsl(0, 80%, 65%)" />
<circle cx="373.81" cy="297.42" r="3" fill="hsl(6, 80%, 65%)" />
<circle cx="140.91" cy="305.14" r="4" fill="hsl(12, 80%, 65%)" />
<circle cx="307.78" cy="141.79" r="5" fill="hsl(18, 80%, 65%)" />
<circle cx="295.05" cy="375.44" r="6" fill="hsl(24, 80%, 65%)" />
<circle cx="146.30" cy="194.18" r="2" fill="hsl(30, 80%, 65%)" />
<circle cx="378.89" cy="227.42" r="3" fill="hsl(36, 80%, 65%)" />
<circle cx="184.54" cy="360.29" r="4" fill="hsl(42, 80%, 65%)" />
<circle cx="238.21" cy="130.57" r="5" fill="hsl(48, 80%, 65%)" />
<circle cx="354.04" cy="336.63" r="6" fill="hsl(54, 80%, 65%)" />
<circle cx="128.99" cy="262.79" r="2" fill="hsl(60, 80%, 65%)" />
<circle cx="345.25" cy="165.02" r="3" fill="hsl(66, 80%, 65%)" />
<circle cx="251.64" cy="383.63" r="4" fill="hsl(72, 80%, 65%)" />
<circle cx="172.84" cy="158.76" r="5" fill="hsl(78, 80%, 65%)" />
<circle cx="383.26" cy="271.56" r="6" fill="hsl(84, 80%, 65%)" />
<circle cx="151.45" cy="330.63" r="2" fill="hsl(90, 80%, 65%)" />
<circle cx="282.73" cy="130.10" r="3" fill="hsl(96, 80%, 65%)" />
<circle cx="321.46" cy="367.11" r="4" fill="hsl(102, 80%, 65%)" />
<circle cx="132.44" cy="218.22" r="5" fill="hsl(108, 80%, 65%)" />
<circle cx="372.86" cy="200.29" r="6" fill="hsl(114, 80%, 65%)" />
<circle cx="207.37" cy="376.25" r="2" fill="hsl(120, 80%, 65%)" />
<circle cx="210.54" cy="134.25" r="3" fill="hsl(126, 80%, 65%)" />
<circle cx="371.98" cy="315.18" r="4" fill="hsl(132, 80%, 65%)" />
<circle cx="130.26" cy="290.77" r="5" fill="hsl(138, 80%, 65%)" />
</svg>
