<svg xmlns="http://www.w3.org/2000/svg" width="512" height="512" viewBox="0 0 512 512">
<rect width="100%" height="100%" fill="#0b1020"/>
<circle cx="434" cy="112" r="51" fill="#f8f3c9" opacity="0.95" />
<circle cx="332.0" cy="64.0" r="2.1" fill="white" />
<circle cx="479.0" cy="96.0" r="2.5" fill="white" />
<circle cx="469.0" cy="98.0" r="2.9" fill="white" />
<circle cx="244.0" cy="26.0" r="2.9" fill="white" />
<circle cx="305.0" cy="143.0" r="2.1" fill="white" />
<circle cx="209.0" cy="125.0" r="3.2" fill="white" />
<path d="M 20 430 C 128 426, 200 440, 305 428 S 450 379, 512 409" stroke="#5dade2" stroke-width="6" fill="none" opacity="0.85" />
<line x1="0" y1="414" x2="512" y2="414" stroke="#445566" stroke-width="4" />
<polygon points="147,354 187,294 227,314 247,284 267,304 279,344 247,366 197,370" fill="#1e1e1e" />
<polygon points="222,294 235,272 245,296" fill="#1e1e1e" />
<line x1="277" y1="339" x2="307" y2="314" stroke="#1e1e1e" stroke-width="6" />
</svg>
