<svg xmlns="http://www.w3.org/2000/svg" width="512" height="512" viewBox="0 0 512 512">
<rect width="100%" height="100%" fill="#0b1020"/>
<circle cx="378" cy="101" r="48" fill="#f8f3c9" opacity="0.95" />
<circle cx="265.0" cy="30.0" r="3.4" fill="white" />
<circle cx="476.0" cy="108.0" r="2.5" fill="white" />
<circle cx="489.0" cy="65.0" r="2.7" fill="white" />
<circle cx="392.0" cy="71.0" r="1.5" fill="white" />
<circle cx="215.0" cy="36.0" r="3.3" fill="white" />
<circle cx="358.0" cy="24.0" r="2.0" fill="white" />
<path d="M 20 430 C 128 423, 184 441, 287 440 S 450 398, 512 428" stroke="#5dade2" stroke-width="5" fill="none" opacity="0.85" />
<line x1="0" y1="397" x2="512" y2="397" stroke="#445566" stroke-width="2" />
<polygon points="166,363 206,303 246,323 266,293 286,313 298,353 266,375 216,379" fill="#1e1e1e" />
<polygon points="241,303 254,281 264,305" fill="#1e1e1e" />
<line x1="296" y1="348" x2="326" y2="323" stroke="#1e1e1e" stroke-width="6" />
</svg>
