<svg xmlns="http://www.w3.org/2000/svg" width="512" height="512" viewBox="0 0 512 512">
<rect width="100%" height="100%" fill="#0b1020"/>
<circle cx="410" cy="130" r="47" fill="#f8f3c9" opacity="0.95" />
<circle cx="312.0" cy="159.0" r="2.2" fill="white" />
<circle cx="115.0" cy="110.0" r="2.7" fill="white" />
<circle cx="449.0" cy="126.0" r="2.0" fill="white" />
<circle cx="292.0" cy="67.0" r="2.4" fill="white" />
<circle cx="153.0" cy="92.0" r="3.4" fill="white" />
<circle cx="422.0" cy="118.0" r="2.8" fill="white" />
<path d="M 20 430 C 140 428, 184 441, 280 435 S 450 377, 512 407" stroke="#5dade2" stroke-width="7" fill="none" opacity="0.85" />
<line x1="0" y1="408" x2="512" y2="408" stroke="#445566" stroke-width="4" />
<polygon points="190,362 230,302 270,322 290,292 310,312 322,352 290,374 240,378" fill="#1e1e1e" />
<polygon points="265,302 278,280 288,304" fill="#1e1e1e" />
<line x1="320" y1="347" x2="350" y2="322" stroke="#1e1e1e" stroke-width="6" />
</svg>
