<svg xmlns="http://www.w3.org/2000/svg" width="512" height="512" viewBox="0 0 512 512">
<rect width="100%" height="100%" fill="#0b1020"/>
<circle cx="384" cy="127" r="48" fill="#f8f3c9" opacity="0.95" />
<circle cx="52.0" cy="62.0" r="2.9" fill="white" />
<circle cx="408.0" cy="94.0" r="1.9" fill="white" />
<circle cx="459.0" cy="115.0" r="2.8" fill="white" />
<circle cx="318.0" cy="129.0" r="3.1" fill="white" />
<circle cx="337.0" cy="68.0" r="2.4" fill="white" />
<circle cx="88.0" cy="135.0" r="2.2" fill="white" />
<path d="M 20 430 C 119 427, 179 444, 320 428 S 450 397, 512 427" stroke="#5dade2" stroke-width="6" fill="none" opacity="0.85" />
<line x1="0" y1="414" x2="512" y2="414" stroke="#445566" stroke-width="4" />
<polygon points="212,363 252,303 292,323 312,293 332,313 344,353 312,375 262,379" fill="#1e1e1e" />
<polygon points="287,303 300,281 310,305" fill="#1e1e1e" />
<line x1="342" y1="348" x2="372" y2="323" stroke="#1e1e1e" stroke-width="6" />
</svg>
