<svg xmlns="http://www.w3.org/2000/svg" width="512" height="512" viewBox="0 0 512 512">
<rect width="100%" height="100%" fill="#0b1020"/>
<circle cx="404" cy="140" r="41" fill="#f8f3c9" opacity="0.95" />
<circle cx="332.0" cy="176.0" r="2.3" fill="white" />
<circle cx="159.0" cy="134.0" r="3.3" fill="white" />
<circle cx="380.0" cy="123.0" r="2.6" fill="white" />
<circle cx="254.0" cy="157.0" r="3.2" fill="white" />
<circle cx="296.0" cy="165.0" r="3.5" fill="white" />
<circle cx="213.0" cy="34.0" r="3.5" fill="white" />
<circle cx="210.0" cy="160.0" r="3.2" fill="white" />
<circle cx="217.0" cy="65.0" r="3.2" fill="white" />
<circle cx="440.0" cy="60.0" r="3.0" fill="white" />
<circle cx="127.0" cy="73.0" r="2.5" fill="white" />
<circle cx="157.0" cy="93.0" r="3.0" fill="white" />
<circle cx="365.0" cy="118.0" r="1.9" fill="white" />
<circle cx="173.0" cy="77.0" r="2.3" fill="white" />
<path d="M 20 430 C 134 425, 186 440, 300 430 S 450 390, 512 420" stroke="#5dade2" stroke-width="7" fill="none" opacity="0.85" />
<line x1="0" y1="388" x2="512" y2="388" stroke="#445566" stroke-width="3" />
<polygon points="183,351 223,291 263,311 283,281 303,301 315,341 283,363 233,367" fill="#1e1e1e" />
<polygon points="258,291 271,269 281,293" fill="#1e1e1e" />
<line x1="313" y1="336" x2="343" y2="311" stroke="#1e1e1e" stroke-width="6" />
</svg>
