<svg xmlns="http://www.w3.org/2000/svg" width="512" height="512" viewBox="0 0 512 512">
<rect width="100%" height="100%" fill="#0b1020"/>
<circle cx="399" cy="129" r="44" fill="#f8f3c9" opacity="0.95" />
<circle cx="289.0" cy="138.0" r="2.8" fill="white" />
<circle cx="410.0" cy="33.0" r="2.6" fill="white" />
<circle cx="183.0" cy="51.0" r="2.6" fill="white" />
<circle cx="58.0" cy="129.0" r="1.8" fill="white" />
<circle cx="227.0" cy="84.0" r="3.1" fill="white" />
<circle cx="214.0" cy="179.0" r="2.0" fill="white" />
<circle cx="331.0" cy="97.0" r="2.1" fill="white" />
<circle cx="286.0" cy="94.0" r="1.7" fill="white" />
<circle cx="119.0" cy="67.0" r="1.9" fill="white" />
<circle cx="66.0" cy="110.0" r="3.2" fill="white" />
<circle cx="381.0" cy="102.0" r="1.9" fill="white" />
<circle cx="407.0" cy="124.0" r="1.6" fill="white" />
<path d="M 20 430 C 104 414, 181 446, 319 429 S 450 379, 512 409" stroke="#5dade2" stroke-width="6" fill="none" opacity="0.85" />
<line x1="0" y1="407" x2="512" y2="407" stroke="#445566" stroke-width="2" />
<polygon points="175,361 215,301 255,321 275,291 295,311 307,351 275,373 225,377" fill="#1e1e1e" />
<polygon points="250,301 263,279 273,303" fill="#1e1e1e" />
<line x1="305" y1="346" x2="335" y2="321" stroke="#1e1e1e" stroke-width="6" />
</svg>
