<svg xmlns="http://www.w3.org/2000/svg" width="512" height="512" viewBox="0 0 512 512">
<rect width="100%" height="100%" fill="#0b1020"/>
<circle cx="407" cy="140" r="45" fill="#f8f3c9" opacity="0.95" />
<circle cx="45.0" cy="99.0" r="2.1" fill="white" />
<circle cx="468.0" cy="35.0" r="3.4" fill="white" />
<circle cx="470.0" cy="156.0" r="1.9" fill="white" />
<circle cx="477.0" cy="136.0" r="2.6" fill="white" />
<circle cx="400.0" cy="119.0" r="2.1" fill="white" />
<path d="M 20 430 C 107 416, 162 453, 319 432 S 450 378, 512 408" stroke="#5dade2" stroke-width="8" fill="none" opacity="0.85" />
<line x1="0" y1="408" x2="512" y2="408" stroke="#445566" stroke-width="2" />
<polygon points="180,355 220,295 260,315 280,285 300,305 312,345 280,367 230,371" fill="#1e1e1e" />
<polygon points="255,295 268,273 278,297" fill="#1e1e1e" />
<line x1="310" y1="340" x2="340" y2="315" stroke="#1e1e1e" stroke-width="6" />
</svg>
