<svg xmlns="http://www.w3.org/2000/svg" width="512" height="512" viewBox="0 0 512 512">
<rect width="100%" height="100%" fill="#0b1020"/>
<circle cx="340" cy="67" r="53" fill="#f8f3c9" opacity="0.95" />
<circle cx="181.0" cy="162.0" r="1.9" fill="white" />
<circle cx="206.0" cy="129.0" r="2.7" fill="white" />
<circle cx="477.0" cy="33.0" r="2.5" fill="white" />
<circle cx="449.0" cy="49.0" r="3.1" fill="white" />
<circle cx="237.0" cy="102.0" r="3.5" fill="white" />
<circle cx="352.0" cy="59.0" r="3.4" fill="white" />
<circle cx="56.0" cy="170.0" r="2.8" fill="white" />
<circle cx="381.0" cy="67.0" r="2.6" fill="white" />
<circle cx="411.0" cy="29.0" r="2.3" fill="white" />
<circle cx="318.0" cy="54.0" r="1.8" fill="white" />
<circle cx="147.0" cy="45.0" r="3.0" fill="white" />
<path d="M 20 430 C 127 430, 183 450, 314 423 S 450 387, 512 417" stroke="#5dade2" stroke-width="6" fill="none" opacity="0.85" />
<line x1="0" y1="385" x2="512" y2="385" stroke="#445566" stroke-width="4" />
<polygon points="168,363 208,303 248,323 268,293 288,313 300,353 268,375 218,379" fill="#1e1e1e" />
<polygon points="243,303 256,281 266,305" fill="#1e1e1e" />
<line x1="298" y1="348" x2="328" y2="323" stroke="#1e1e1e" stroke-width="6" />
</svg>
