<svg xmlns="http://www.w3.org/2000/svg" width="512" height="512" viewBox="0 0 512 512">
<rect width="100%" height="100%" fill="#0b1020"/>
<circle cx="437" cy="82" r="45" fill="#f8f3c9" opacity="0.95" />
<circle cx="185.0" cy="64.0" r="2.9" fill="white" />
<circle cx="277.0" cy="34.0" r="2.6" fill="white" />
<circle cx="453.0" cy="156.0" r="1.7" fill="white" />
<circle cx="175.0" cy="97.0" r="2.0" fill="white" />
<circle cx="365.0" cy="109.0" r="1.7" fill="white" />
<circle cx="457.0" cy="23.0" r="2.3" fill="white" />
<circle cx="37.0" cy="52.0" r="2.9" fill="white" />
<circle cx="196.0" cy="108.0" r="3.3" fill="white" />
<circle cx="376.0" cy="154.0" r="2.2" fill="white" />
<path d="M 20 430 C 104 418, 171 451, 320 434 S 450 403, 512 433" stroke="#5dade2" stroke-width="6" fill="none" opacity="0.85" />
<line x1="0" y1="390" x2="512" y2="390" stroke="#445566" stroke-width="2" />
<polygon points="168,362 208,302 248,322 268,292 288,312 300,352 268,374 218,378" fill="#1e1e1e" />
<polygon points="243,302 256,280 266,304" fill="#1e1e1e" />
<line x1="298" y1="347" x2="328" y2="322" stroke="#1e1e1e" stroke-width="6" />
</svg>
