<svg xmlns="http://www.w3.org/2000/svg" width="512" height="512" viewBox="0 0 512 512">
<rect width="100%" height="100%" fill="#0b1020"/>
<circle cx="373" cy="105" r="40" fill="#f8f3c9" opacity="0.95" />
<circle cx="342.0" cy="30.0" r="2.3" fill="white" />
<circle cx="161.0" cy="64.0" r="2.1" fill="white" />
<circle cx="482.0" cy="163.0" r="1.8" fill="white" />
<circle cx="477.0" cy="75.0" r="3.0" fill="white" />
<circle cx="430.0" cy="176.0" r="3.4" fill="white" />
<circle cx="316.0" cy="133.0" r="2.3" fill="white" />
<circle cx="41.0" cy="70.0" r="3.2" fill="white" />
<path d="M 20 430 C 133 421, 160 446, 319 437 S 450 382, 512 412" stroke="#5dade2" stroke-width="7" fill="none" opacity="0.85" />
<line x1="0" y1="402" x2="512" y2="402" stroke="#445566" stroke-width="4" />
<polygon points="208,355 248,295 288,315 308,285 328,305 340,345 308,367 258,371" fill="#1e1e1e" />
<polygon points="283,295 296,273 306,297" fill="#1e1e1e" />
<line x1="338" y1="340" x2="368" y2="315" stroke="#1e1e1e" stroke-width="6" />
</svg>
