<svg xmlns="http://www.w3.org/2000/svg" width="512" height="512" viewBox="0 0 512 512">
<rect width="100%" height="100%" fill="#0b1020"/>
<circle cx="441" cy="102" r="41" fill="#f8f3c9" opacity="0.95" />
<circle cx="469.0" cy="37.0" r="2.3" fill="white" />
<circle cx="451.0" cy="167.0" r="2.9" fill="white" />
<circle cx="442.0" cy="152.0" r="2.0" fill="white" />
<circle cx="286.0" cy="94.0" r="1.5" fill="white" />
<circle cx="410.0" cy="28.0" r="3.4" fill="white" />
<circle cx="339.0" cy="52.0" r="2.2" fill="white" />
<circle cx="373.0" cy="38.0" r="2.8" fill="white" />
<circle cx="428.0" cy="74.0" r="2.2" fill="white" />
<circle cx="72.0" cy="151.0" r="2.8" fill="white" />
<circle cx="351.0" cy="144.0" r="3.2" fill="white" />
<circle cx="178.0" cy="134.0" r="2.9" fill="white" />
<circle cx="470.0" cy="60.0" r="1.7" fill="white" />
<circle cx="41.0" cy="87.0" r="2.8" fill="white" />
<circle cx="291.0" cy="143.0" r="1.6" fill="white" />
<path d="M 20 430 C 140 423, 200 454, 305 435 S 450 403, 512 433" stroke="#5dade2" stroke-width="6" fill="none" opacity="0.85" />
<line x1="0" y1="415" x2="512" y2="415" stroke="#445566" stroke-width="3" />
<polygon points="157,359 197,299 237,319 257,289 277,309 289,349 257,371 207,375" fill="#1e1e1e" />
<polygon points="232,299 245,277 255,301" fill="#1e1e1e" />
<line x1="287" y1="344" x2="317" y2="319" stroke="#1e1e1e" stroke-width="6" />
</svg>
