<svg xmlns="http://www.w3.org/2000/svg" width="512" height="512" viewBox="0 0 512 512">
<rect width="100%" height="100%" fill="black"/>
<circle cx="256.00" cy="256.00" r="2" fill="hsl(0, 80%, 65%)" />
<circle cx="250.68" cy="260.87" r="3" fill="hsl(8, 80%, 65%)" />
<circle cx="256.89" cy="245.83" r="4" fill="hsl(16, 80%, 65%)" />
<circle cx="263.61" cy="265.92" r="5" fill="hsl(24, 80%, 65%)" />
<circle cx="241.79" cy="253.49" r="6" fill="hsl(32, 80%, 65%)" />
<circle cx="269.62" cy="247.34" r="2" fill="hsl(40, 80%, 65%)" />
<circle cx="251.41" cy="273.07" r="3" fill="hsl(48, 80%, 65%)" />
<circle cx="247.20" cy="239.06" r="4" fill="hsl(56, 80%, 65%)" />
<circle cx="275.17" cy="263.00" r="5" fill="hsl(64, 80%, 65%)" />
<circle cx="235.99" cy="264.26" r="6" fill="hsl(72, 80%, 65%)" />
<circle cx="265.67" cy="235.33" r="2" fill="hsl(80, 80%, 65%)" />
<circle cx="263.16" cy="278.84" r="3" fill="hsl(88, 80%, 65%)" />
<circle cx="234.37" cy="243.47" r="4" fill="hsl(96, 80%, 65%)" />
<circle cx="281.41" cy="250.41" r="5" fill="hsl(104, 80%, 65%)" />
<circle cx="240.47" cy="278.09" r="6" fill="hsl(112, 80%, 65%)" />
<circle cx="252.41" cy="228.28" r="2" fill="hsl(120, 80%, 65%)" />
<circle cx="278.07" cy="274.60" r="3" fill="hsl(128, 80%, 65%)" />
<circle cx="226.27" cy="257.23" r="4" fill="hsl(136, 80%, 65%)" />
<circle cx="277.70" cy="234.40" r="5" fill="hsl(144, 80%, 65%)" />
<circle cx="254.55" cy="287.42" r="6" fill="hsl(152, 80%, 65%)" />
<circle cx="235.32" cy="231.22" r="2" fill="hsl(160, 80%, 65%)" />
<circle cx="288.78" cy="260.41" r="3" fill="hsl(168, 80%, 65%)" />
<circle cx="228.21" cy="275.33" r="4" fill="hsl(176, 80%, 65%)" />
<circle cx="263.60" cy="222.23" r="5" fill="hsl(184, 80%, 65%)" />
<circle cx="273.58" cy="286.67" r="6" fill="hsl(192, 80%, 65%)" />
<circle cx="221.62" cy="245.03" r="2" fill="hsl(200, 80%, 65%)" />
<circle cx="289.40" cy="240.57" r="3" fill="hsl(208, 80%, 65%)" />
<circle cx="241.52" cy="290.59" r="4" fill="hsl(216, 80%, 65%)" />
<circle cx="243.08" cy="220.07" r="5" fill="hsl(224, 80%, 65%)" />
<circle cx="290.40" cy="274.08" r="6" fill="hsl(232, 80%, 65%)" />
<circle cx="217.78" cy="266.08" r="2" fill="hsl(240, 80%, 65%)" />
<circle cx="277.73" cy="222.20" r="3" fill="hsl(248, 80%, 65%)" />
<circle cx="262.91" cy="296.23" r="4" fill="hsl(256, 80%, 65%)" />
<circle cx="223.22" cy="230.62" r="5" fill="hsl(264, 80%, 65%)" />
<circle cx="297.94" cy="252.53" r="6" fill="hsl(272, 80%, 65%)" />
<circle cx="227.01" cy="287.34" r="2" fill="hsl(280, 80%, 65%)" />
<circle cx="256.21" cy="212.70" r="3" fill="hsl(288, 80%, 65%)" />
<circle cx="285.49" cy="288.51" r="4" fill="hsl(296, 80%, 65%)" />
<circle cx="211.70" cy="251.89" r="5" fill="hsl(304, 80%, 65%)" />
<circle cx="291.90" cy="228.75" r="6" fill="hsl(312, 80%, 65%)" />
<circle cx="247.83" cy="300.90" r="2" fill="hsl(320, 80%, 65%)" />
<circle cx="231.39" cy="216.89" r="3" fill="hsl(328, 80%, 65%)" />
<circle cx="301.11" cy="268.36" r="4" fill="hsl(336, 80%, 65%)" />
<circle cx="213.90" cy="277.61" r="5" fill="hsl(344, 80%, 65%)" />
<circle cx="272.64" cy="211.12" r="6" fill="hsl(352, 80%, 65%)" />
<circle cx="274.25" cy="300.84" r="2" fill="hsl(0, 80%, 65%)" />
<circle cx="211.77" cy="235.04" r="3" fill="hsl(8, 80%, 65%)" />
<circle cx="303.28" cy="241.42" r="4" fill="hsl(16, 80%, 65%)" />
<circle cx="230.72" cy="299.14" r="5" fill="hsl(24, 80%, 65%)" />
<circle cx="245.39" cy="206.61" r="6" fill="hsl(32, 80%, 65%)" />
<circle cx="297.60" cy="285.55" r="2" fill="hsl(40, 80%, 65%)" />
<circle cx="204.86" cy="262.37" r="3" fill="hsl(48, 80%, 65%)" />
<circle cx="289.73" cy="216.37" r="4" fill="hsl(56, 80%, 65%)" />
<circle cx="257.91" cy="308.50" r="5" fill="hsl(64, 80%, 65%)" />
<circle cx="218.78" cy="218.23" r="6" fill="hsl(72, 80%, 65%)" />
<circle cx="309.45" cy="258.73" r="2" fill="hsl(80, 80%, 65%)" />
<circle cx="214.37" cy="290.40" r="3" fill="hsl(88, 80%, 65%)" />
<circle cx="263.53" cy="202.04" r="4" fill="hsl(96, 80%, 65%)" />
<circle cx="287.17" cy="301.27" r="5" fill="hsl(104, 80%, 65%)" />
<circle cx="201.98" cy="243.57" r="6" fill="hsl(112, 80%, 65%)" />
<circle cx="304.64" cy="228.44" r="2" fill="hsl(120, 80%, 65%)" />
<circle cx="238.61" cy="309.61" r="3" fill="hsl(128, 80%, 65%)" />
<circle cx="232.42" cy="204.30" r="4" fill="hsl(136, 80%, 65%)" />
<circle cx="308.73" cy="278.37" r="5" fill="hsl(144, 80%, 65%)" />
<circle cx="201.58" cy="275.27" r="6" fill="hsl(152, 80%, 65%)" />
<circle cx="283.32" cy="204.63" r="2" fill="hsl(160, 80%, 65%)" />
<circle cx="270.67" cy="312.76" r="3" fill="hsl(168, 80%, 65%)" />
<circle cx="206.47" cy="223.81" r="4" fill="hsl(176, 80%, 65%)" />
<circle cx="314.70" cy="246.21" r="5" fill="hsl(184, 80%, 65%)" />
<circle cx="219.06" cy="303.21" r="6" fill="hsl(192, 80%, 65%)" />
<circle cx="251.31" cy="195.80" r="2" fill="hsl(200, 80%, 65%)" />
<circle cx="300.44" cy="297.51" r="3" fill="hsl(208, 80%, 65%)" />
<circle cx="194.77" cy="255.40" r="4" fill="hsl(216, 80%, 65%)" />
<circle cx="301.87" cy="214.80" r="5" fill="hsl(224, 80%, 65%)" />
<circle cx="249.97" cy="317.79" r="6" fill="hsl(232, 80%, 65%)" />
<circle cx="218.46" cy="206.03" r="2" fill="hsl(240, 80%, 65%)" />
<circle cx="317.84" cy="267.56" r="3" fill="hsl(248, 80%, 65%)" />
<circle cx="202.24" cy="289.47" r="4" fill="hsl(256, 80%, 65%)" />
<circle cx="273.15" cy="194.61" r="5" fill="hsl(264, 80%, 65%)" />
<circle cx="285.01" cy="313.21" r="6" fill="hsl(272, 80%, 65%)" />
<circle cx="195.59" cy="233.27" r="2" fill="hsl(280, 80%, 65%)" />
<circle cx="316.27" cy="231.80" r="3" fill="hsl(288, 80%, 65%)" />
<circle cx="227.73" cy="314.92" r="4" fill="hsl(296, 80%, 65%)" />
<circle cx="236.94" cy="193.08" r="5" fill="hsl(304, 80%, 65%)" />
<circle cx="312.90" cy="289.72" r="6" fill="hsl(312, 80%, 65%)" />
<circle cx="190.88" cy="269.65" r="2" fill="hsl(320, 80%, 65%)" />
<circle cx="295.02" cy="201.63" r="3" fill="hsl(328, 80%, 65%)" />
<circle cx="264.00" cy="322.84" r="4" fill="hsl(336, 80%, 65%)" />
<circle cx="204.66" cy="211.87" r="5" fill="hsl(344, 80%, 65%)" />
<circle cx="324.05" cy="253.85" r="6" fill="hsl(352, 80%, 65%)" />
<circle cx="207.00" cy="303.82" r="2" fill="hsl(0, 80%, 65%)" />
<circle cx="259.85" cy="187.27" r="3" fill="hsl(8, 80%, 65%)" />
<circle cx="299.83" cy="309.58" r="4" fill="hsl(16, 80%, 65%)" />
<circle cx="187.12" cy="246.05" r="5" fill="hsl(24, 80%, 65%)" />
<circle cx="313.82" cy="216.60" r="6" fill="hsl(32, 80%, 65%)" />
<circle cx="239.89" cy="324.47" r="2" fill="hsl(40, 80%, 65%)" />
<circle cx="221.45" cy="194.31" r="3" fill="hsl(48, 80%, 65%)" />
<circle cx="323.50" cy="278.26" r="4" fill="hsl(56, 80%, 65%)" />
<circle cx="190.86" cy="285.33" r="5" fill="hsl(64, 80%, 65%)" />
<circle cx="284.37" cy="190.04" r="6" fill="hsl(72, 80%, 65%)" />
<circle cx="279.76" cy="324.14" r="2" fill="hsl(80, 80%, 65%)" />
<circle cx="192.13" cy="221.63" r="3" fill="hsl(88, 80%, 65%)" />
<circle cx="326.65" cy="238.11" r="4" fill="hsl(96, 80%, 65%)" />
<circle cx="215.79" cy="317.22" r="5" fill="hsl(104, 80%, 65%)" />
<circle cx="244.24" cy="183.35" r="6" fill="hsl(112, 80%, 65%)" />
<circle cx="314.02" cy="301.85" r="2" fill="hsl(120, 80%, 65%)" />
<circle cx="181.90" cy="261.41" r="3" fill="hsl(128, 80%, 65%)" />
<circle cx="307.22" cy="201.70" r="4" fill="hsl(136, 80%, 65%)" />
<circle cx="254.90" cy="330.99" r="5" fill="hsl(144, 80%, 65%)" />
<circle cx="205.92" cy="199.71" r="6" fill="hsl(152, 80%, 65%)" />
<circle cx="331.29" cy="263.72" r="2" fill="hsl(160, 80%, 65%)" />
<circle cx="194.99" cy="301.37" r="3" fill="hsl(168, 80%, 65%)" />
<circle cx="270.40" cy="181.00" r="4" fill="hsl(176, 80%, 65%)" />
<circle cx="296.22" cy="321.32" r="5" fill="hsl(184, 80%, 65%)" />
<circle cx="181.89" cy="234.91" r="6" fill="hsl(192, 80%, 65%)" />
<circle cx="325.19" cy="221.34" r="2" fill="hsl(200, 80%, 65%)" />
<circle cx="228.27" cy="328.61" r="3" fill="hsl(208, 80%, 65%)" />
<circle cx="227.27" cy="183.42" r="4" fill="hsl(216, 80%, 65%)" />
<circle cx="326.51" cy="290.26" r="5" fill="hsl(224, 80%, 65%)" />
<circle cx="180.55" cy="278.46" r="6" fill="hsl(232, 80%, 65%)" />
<circle cx="296.64" cy="188.19" r="2" fill="hsl(240, 80%, 65%)" />
<circle cx="271.91" cy="333.77" r="3" fill="hsl(248, 80%, 65%)" />
<circle cx="191.47" cy="209.21" r="4" fill="hsl(256, 80%, 65%)" />
<circle cx="335.51" cy="246.88" r="5" fill="hsl(264, 80%, 65%)" />
<circle cx="203.32" cy="316.68" r="6" fill="hsl(272, 80%, 65%)" />
<circle cx="253.85" cy="175.34" r="2" fill="hsl(280, 80%, 65%)" />
<circle cx="312.29" cy="314.25" r="3" fill="hsl(288, 80%, 65%)" />
<circle cx="174.82" cy="251.05" r="4" fill="hsl(296, 80%, 65%)" />
<circle cx="319.45" cy="204.61" r="5" fill="hsl(304, 80%, 65%)" />
<circle cx="243.88" cy="337.06" r="6" fill="hsl(312, 80%, 65%)" />
<circle cx="210.00" cy="187.78" r="2" fill="hsl(320, 80%, 65%)" />
<circle cx="336.31" cy="275.31" r="3" fill="hsl(328, 80%, 65%)" />
<circle cx="183.47" cy="296.17" r="4" fill="hsl(336, 80%, 65%)" />
<circle cx="282.45" cy="177.09" r="5" fill="hsl(344, 80%, 65%)" />
<circle cx="289.92" cy="332.34" r="6" fill="hsl(352, 80%, 65%)" />
<circle cx="179.13" cy="222.50" r="2" fill="hsl(0, 80%, 65%)" />
<circle cx="335.60" cy="228.68" r="3" fill="hsl(8, 80%, 65%)" />
<circle cx="215.61" cy="330.19" r="4" fill="hsl(16, 80%, 65%)" />
<circle cx="235.59" cy="173.72" r="5" fill="hsl(24, 80%, 65%)" />
<circle cx="326.88" cy="303.06" r="6" fill="hsl(32, 80%, 65%)" />
<circle cx="171.64" cy="269.23" r="2" fill="hsl(40, 80%, 65%)" />
<circle cx="309.46" cy="189.02" r="3" fill="hsl(48, 80%, 65%)" />
<circle cx="261.85" cy="341.80" r="4" fill="hsl(56, 80%, 65%)" />
<circle cx="193.52" cy="196.48" r="5" fill="hsl(64, 80%, 65%)" />
<circle cx="342.58" cy="257.69" r="6" fill="hsl(72, 80%, 65%)" />
<circle cx="190.79" cy="313.44" r="2" fill="hsl(80, 80%, 65%)" />
<circle cx="265.32" cy="169.30" r="3" fill="hsl(88, 80%, 65%)" />
<circle cx="307.87" cy="326.46" r="4" fill="hsl(96, 80%, 65%)" />
<circle cx="169.86" cy="239.02" r="5" fill="hsl(104, 80%, 65%)" />
<circle cx="331.23" cy="210.18" r="6" fill="hsl(112, 80%, 65%)" />
<circle cx="231.39" cy="340.89" r="2" fill="hsl(120, 80%, 65%)" />
<circle cx="216.67" cy="176.52" r="3" fill="hsl(128, 80%, 65%)" />
<circle cx="338.96" cy="288.15" r="4" fill="hsl(136, 80%, 65%)" />
<circle cx="172.84" cy="288.44" r="5" fill="hsl(144, 80%, 65%)" />
<circle cx="295.53" cy="175.64" r="6" fill="hsl(152, 80%, 65%)" />
<circle cx="281.21" cy="342.24" r="2" fill="hsl(160, 80%, 65%)" />
<circle cx="178.91" cy="209.29" r="3" fill="hsl(168, 80%, 65%)" />
<circle cx="344.68" cy="238.31" r="4" fill="hsl(176, 80%, 65%)" />
<circle cx="202.39" cy="329.18" r="5" fill="hsl(184, 80%, 65%)" />
<circle cx="246.07" cy="165.55" r="6" fill="hsl(192, 80%, 65%)" />
<circle cx="324.64" cy="316.18" r="2" fill="hsl(200, 80%, 65%)" />
<circle cx="164.45" cy="258.00" r="3" fill="hsl(208, 80%, 65%)" />
<circle cx="322.36" cy="192.49" r="4" fill="hsl(216, 80%, 65%)" />
<circle cx="249.95" cy="347.94" r="5" fill="hsl(224, 80%, 65%)" />
<circle cx="198.18" cy="183.90" r="6" fill="hsl(232, 80%, 65%)" />
<circle cx="347.61" cy="270.15" r="2" fill="hsl(240, 80%, 65%)" />
<circle cx="178.66" cy="307.60" r="3" fill="hsl(248, 80%, 65%)" />
<circle cx="278.24" cy="165.43" r="4" fill="hsl(256, 80%, 65%)" />
<circle cx="300.91" cy="338.05" r="5" fill="hsl(264, 80%, 65%)" />
<circle cx="167.20" cy="225.75" r="6" fill="hsl(272, 80%, 65%)" />
<circle cx="342.17" cy="218.21" r="2" fill="hsl(280, 80%, 65%)" />
<circle cx="217.88" cy="342.33" r="3" fill="hsl(288, 80%, 65%)" />
<circle cx="225.71" cy="166.33" r="4" fill="hsl(296, 80%, 65%)" />
<circle cx="339.14" cy="301.79" r="5" fill="hsl(304, 80%, 65%)" />
<circle cx="163.49" cy="278.46" r="6" fill="hsl(312, 80%, 65%)" />
<circle cx="309.19" cy="176.72" r="2" fill="hsl(320, 80%, 65%)" />
<circle cx="270.37" cy="350.65" r="3" fill="hsl(328, 80%, 65%)" />
<circle cx="181.25" cy="195.74" r="4" fill="hsl(336, 80%, 65%)" />
<circle cx="352.09" cy="249.92" r="5" fill="hsl(344, 80%, 65%)" />
<circle cx="189.06" cy="325.58" r="6" fill="hsl(352, 80%, 65%)" />
<circle cx="258.36" cy="159.21" r="2" fill="hsl(0, 80%, 65%)" />
<circle cx="319.82" cy="329.17" r="3" fill="hsl(8, 80%, 65%)" />
<circle cx="159.25" cy="245.13" r="4" fill="hsl(16, 80%, 65%)" />
<circle cx="334.90" cy="198.51" r="5" fill="hsl(24, 80%, 65%)" />
<circle cx="236.60" cy="351.95" r="6" fill="hsl(32, 80%, 65%)" />
<circle cx="205.35" cy="171.92" r="2" fill="hsl(40, 80%, 65%)" />
<circle cx="350.40" cy="283.86" r="3" fill="hsl(48, 80%, 65%)" />
<circle cx="167.34" cy="299.34" r="4" fill="hsl(56, 80%, 65%)" />
<circle cx="292.20" cy="163.91" r="5" fill="hsl(64, 80%, 65%)" />
<circle cx="291.61" cy="348.60" r="6" fill="hsl(72, 80%, 65%)" />
<circle cx="166.96" cy="211.65" r="2" fill="hsl(80, 80%, 65%)" />
<circle cx="351.86" cy="228.48" r="3" fill="hsl(88, 80%, 65%)" />
<circle cx="203.77" cy="341.27" r="4" fill="hsl(96, 80%, 65%)" />
<circle cx="236.87" cy="157.59" r="5" fill="hsl(104, 80%, 65%)" />
<circle cx="336.79" cy="315.80" r="6" fill="hsl(112, 80%, 65%)" />
<circle cx="155.77" cy="266.51" r="2" fill="hsl(120, 80%, 65%)" />
<circle cx="322.97" cy="180.36" r="3" fill="hsl(128, 80%, 65%)" />
<circle cx="257.72" cy="357.28" r="4" fill="hsl(136, 80%, 65%)" />
<circle cx="186.15" cy="182.30" r="5" fill="hsl(144, 80%, 65%)" />
<circle cx="357.55" cy="263.18" r="6" fill="hsl(152, 80%, 65%)" />
<circle cx="176.07" cy="319.46" r="2" fill="hsl(160, 80%, 65%)" />
<circle cx="272.11" cy="154.96" r="3" fill="hsl(168, 80%, 65%)" />
<circle cx="312.51" cy="341.60" r="4" fill="hsl(176, 80%, 65%)" />
<circle cx="156.27" cy="230.99" r="5" fill="hsl(184, 80%, 65%)" />
<circle cx="346.66" cy="206.95" r="6" fill="hsl(192, 80%, 65%)" />
<circle cx="222.20" cy="353.64" r="2" fill="hsl(200, 80%, 65%)" />
<circle cx="214.86" cy="160.94" r="3" fill="hsl(208, 80%, 65%)" />
<circle cx="350.77" cy="298.41" r="4" fill="hsl(216, 80%, 65%)" />
<circle cx="157.23" cy="288.83" r="5" fill="hsl(224, 80%, 65%)" />
<circle cx="306.78" cy="164.86" r="6" fill="hsl(232, 80%, 65%)" />
<circle cx="280.18" cy="357.74" r="2" fill="hsl(240, 80%, 65%)" />
<circle cx="169.24" cy="197.17" r="3" fill="hsl(248, 80%, 65%)" />
<circle cx="359.96" cy="240.73" r="4" fill="hsl(256, 80%, 65%)" />
<circle cx="189.50" cy="337.67" r="5" fill="hsl(264, 80%, 65%)" />
<circle cx="249.85" cy="150.61" r="6" fill="hsl(272, 80%, 65%)" />
<circle cx="331.90" cy="329.73" r="2" fill="hsl(280, 80%, 65%)" />
<circle cx="149.98" cy="252.90" r="3" fill="hsl(288, 80%, 65%)" />
<circle cx="336.46" cy="186.52" r="4" fill="hsl(296, 80%, 65%)" />
<circle cx="243.58" cy="361.83" r="5" fill="hsl(304, 80%, 65%)" />
<circle cx="193.53" cy="169.38" r="6" fill="hsl(312, 80%, 65%)" />
<circle cx="360.81" cy="277.72" r="2" fill="hsl(320, 80%, 65%)" />
<circle cx="163.83" cy="310.91" r="3" fill="hsl(328, 80%, 65%)" />
</svg>
