<svg xmlns="http://www.w3.org/2000/svg" width="512" height="512" viewBox="0 0 512 512">
<rect width="100%" height="100%" fill="#0b1020"/>
<circle cx="351" cy="104" r="47" fill="#f8f3c9" opacity="0.95" />
<circle cx="371.0" cy="109.0" r="2.1" fill="white" />
<circle cx="115.0" cy="58.0" r="3.0" fill="white" />
<circle cx="249.0" cy="123.0" r="2.4" fill="white" />
<circle cx="311.0" cy="96.0" r="3.4" fill="white" />
<circle cx="305.0" cy="107.0" r="1.9" fill="white" />
<circle cx="78.0" cy="136.0" r="3.3" fill="white" />
<circle cx="414.0" cy="97.0" r="2.4" fill="white" />
<circle cx="339.0" cy="140.0" r="1.8" fill="white" />
<circle cx="451.0" cy="102.0" r="1.6" fill="white" />
<circle cx="202.0" cy="145.0" r="2.6" fill="white" />
<circle cx="373.0" cy="90.0" r="2.3" fill="white" />
<circle cx="191.0" cy="102.0" r="2.6" fill="white" />
<circle cx="76.0" cy="112.0" r="2.5" fill="white" />
<circle cx="374.0" cy="68.0" r="1.7" fill="white" />
<circle cx="123.0" cy="33.0" r="3.1" fill="white" />
<path d="M 20 430 C 101 426, 185 455, 280 429 S 450 377, 512 407" stroke="#5dade2" stroke-width="6" fill="none" opacity="0.85" />
<line x1="0" y1="411" x2="512" y2="411" stroke="#445566" stroke-width="4" />
<polygon points="220,361 260,301 300,321 320,291 340,311 352,351 320,373 270,377" fill="#1e1e1e" />
<polygon points="295,301 308,279 318,303" fill="#1e1e1e" />
<line x1="350" y1="346" x2="380" y2="321" stroke="#1e1e1e" stroke-width="6" />
</svg>
