<svg xmlns="http://www.w3.org/2000/svg" width="512" height="512" viewBox="0 0 512 512">
<rect width="100%" height="100%" fill="#0b1020"/>
<circle cx="411" cy="99" r="49" fill="#f8f3c9" opacity="0.95" />
<circle cx="455.0" cy="98.0" r="2.0" fill="white" />
<circle cx="67.0" cy="102.0" r="2.6" fill="white" />
<circle cx="72.0" cy="119.0" r="1.9" fill="white" />
<circle cx="323.0" cy="102.0" r="2.6" fill="white" />
<circle cx="92.0" cy="177.0" r="2.0" fill="white" />
<path d="M 20 430 C 114 421, 172 453, 315 427 S 450 386, 512 416" stroke="#5dade2" stroke-width="5" fill="none" opacity="0.85" />
<line x1="0" y1="398" x2="512" y2="398" stroke="#445566" stroke-width="4" />
<polygon points="212,350 252,290 292,310 312,280 332,300 344,340 312,362 262,366" fill="#1e1e1e" />
<polygon points="287,290 300,268 310,292" fill="#1e1e1e" />
<line x1="342" y1="335" x2="372" y2="310" stroke="#1e1e1e" stroke-width="6" />
</svg>
