<svg xmlns="http://www.w3.org/2000/svg" width="512" height="512" viewBox="0 0 512 512">
<rect width="100%" height="100%" fill="#0b1020"/>
<circle cx="408" cy="102" r="53" fill="#f8f3c9" opacity="0.95" />
<circle cx="166.0" cy="48.0" r="2.0" fill="white" />
<circle cx="111.0" cy="102.0" r="3.5" fill="white" />
<circle cx="469.0" cy="59.0" r="2.1" fill="white" />
<circle cx="91.0" cy="152.0" r="3.3" fill="white" />
<circle cx="224.0" cy="94.0" r="2.2" fill="white" />
<circle cx="69.0" cy="157.0" r="2.0" fill="white" />
<circle cx="256.0" cy="32.0" r="1.7" fill="white" />
<circle cx="152.0" cy="158.0" r="2.4" fill="white" />
<circle cx="334.0" cy="65.0" r="2.0" fill="white" />
<path d="M 20 430 C 140 419, 162 453, 285 422 S 450 396, 512 426" stroke="#5dade2" stroke-width="8" fill="none" opacity="0.85" />
<line x1="0" y1="392" x2="512" y2="392" stroke="#445566" stroke-width="4" />
<polygon points="190,362 230,302 270,322 290,292 310,312 322,352 290,374 240,378" fill="#1e1e1e" />
<polygon points="265,302 278,280 288,304" fill="#1e1e1e" />
<line x1="320" y1="347" x2="350" y2="322" stroke="#1e1e1e" stroke-width="6" />
</svg>
