<svg xmlns="http://www.w3.org/2000/svg" width="512" height="512" viewBox="0 0 512 512">
<rect width="100%" height="100%" fill="#0b1020"/>
<circle cx="398" cy="76" r="50" fill="#f8f3c9" opacity="0.95" />
<circle cx="338.0" cy="132.0" r="1.5" fill="white" />
<circle cx="125.0" cy="167.0" r="3.2" fill="white" />
<circle cx="380.0" cy="176.0" r="2.8" fill="white" />
<circle cx="458.0" cy="86.0" r="2.2" fill="white" />
<circle cx="234.0" cy="106.0" r="3.1" fill="white" />
<circle cx="297.0" cy="91.0" r="2.8" fill="white" />
<circle cx="465.0" cy="110.0" r="2.7" fill="white" />
<circle cx="234.0" cy="118.0" r="2.3" fill="white" />
<path d="M 20 430 C 120 420, 172 453, 283 440 S 450 375, 512 405" stroke="#5dade2" stroke-width="6" fill="none" opacity="0.85" />
<line x1="0" y1="399" x2="512" y2="399" stroke="#445566" stroke-width="4" />
<polygon points="168,350 208,290 248,310 268,280 288,300 300,340 268,362 218,366" fill="#1e1e1e" />
<polygon points="243,290 256,268 266,292" fill="#1e1e1e" />
<line x1="298" y1="335" x2="328" y2="310" stroke="#1e1e1e" stroke-width="6" />
</svg>
