<svg xmlns="http://www.w3.org/2000/svg" width="512" height="512" viewBox="0 0 512 512">
<rect width="100%" height="100%" fill="#0b1020"/>
<circle cx="453" cy="63" r="47" fill="#f8f3c9" opacity="0.95" />
<circle cx="168.0" cy="91.0" r="2.3" fill="white" />
<circle cx="254.0" cy="125.0" r="2.2" fill="white" />
<circle cx="140.0" cy="91.0" r="3.0" fill="white" />
<circle cx="128.0" cy="61.0" r="1.7" fill="white" />
<circle cx="265.0" cy="170.0" r="1.6" fill="white" />
<circle cx="45.0" cy="86.0" r="2.4" fill="white" />
<circle cx="322.0" cy="166.0" r="2.6" fill="white" />
<circle cx="489.0" cy="163.0" r="2.5" fill="white" />
<circle cx="41.0" cy="174.0" r="2.2" fill="white" />
<circle cx="63.0" cy="128.0" r="2.7" fill="white" />
<circle cx="76.0" cy="93.0" r="2.8" fill="white" />
<path d="M 20 430 C 137 415, 180 448, 314 439 S 450 403, 512 433" stroke="#5dade2" stroke-width="8" fill="none" opacity="0.85" />
<line x1="0" y1="390" x2="512" y2="390" stroke="#445566" stroke-width="4" />
<polygon points="218,352 258,292 298,312 318,282 338,302 350,342 318,364 268,368" fill="#1e1e1e" />
<polygon points="293,292 306,270 316,294" fill="#1e1e1e" />
<line x1="348" y1="337" x2="378" y2="312" stroke="#1e1e1e" stroke-width="6" />
</svg>
