<svg xmlns="http://www.w3.org/2000/svg" width="512" height="512" viewBox="0 0 512 512">
<rect width="100%" height="100%" fill="black"/>
<circle cx="256.00" cy="256.00" r="2" fill="hsl(0, 80%, 65%)" />
<circle cx="250.86" cy="260.71" r="3" fill="hsl(10, 80%, 65%)" />
<circle cx="256.86" cy="246.18" r="4" fill="hsl(20, 80%, 65%)" />
<circle cx="263.34" cy="265.58" r="5" fill="hsl(30, 80%, 65%)" />
<circle cx="242.28" cy="253.57" r="6" fill="hsl(40, 80%, 65%)" />
<circle cx="269.15" cy="247.64" r="2" fill="hsl(50, 80%, 65%)" />
<circle cx="251.57" cy="272.48" r="3" fill="hsl(60, 80%, 65%)" />
<circle cx="247.50" cy="239.64" r="4" fill="hsl(70, 80%, 65%)" />
<circle cx="274.51" cy="262.76" r="5" fill="hsl(80, 80%, 65%)" />
<circle cx="236.68" cy="263.98" r="6" fill="hsl(90, 80%, 65%)" />
<circle cx="265.34" cy="236.04" r="2" fill="hsl(100, 80%, 65%)" />
<circle cx="262.92" cy="278.05" r="3" fill="hsl(110, 80%, 65%)" />
<circle cx="235.11" cy="243.90" r="4" fill="hsl(120, 80%, 65%)" />
<circle cx="280.54" cy="250.61" r="5" fill="hsl(130, 80%, 65%)" />
<circle cx="241.00" cy="277.33" r="6" fill="hsl(140, 80%, 65%)" />
<circle cx="252.53" cy="229.24" r="2" fill="hsl(150, 80%, 65%)" />
<circle cx="277.31" cy="273.96" r="3" fill="hsl(160, 80%, 65%)" />
<circle cx="227.29" cy="257.19" r="4" fill="hsl(170, 80%, 65%)" />
<circle cx="276.96" cy="235.15" r="5" fill="hsl(180, 80%, 65%)" />
<circle cx="254.60" cy="286.34" r="6" fill="hsl(190, 80%, 65%)" />
<circle cx="236.03" cy="232.07" r="2" fill="hsl(200, 80%, 65%)" />
<circle cx="287.65" cy="260.26" r="3" fill="hsl(210, 80%, 65%)" />
<circle cx="229.17" cy="274.67" r="4" fill="hsl(220, 80%, 65%)" />
<circle cx="263.33" cy="223.40" r="5" fill="hsl(230, 80%, 65%)" />
<circle cx="272.97" cy="285.62" r="6" fill="hsl(240, 80%, 65%)" />
<circle cx="222.81" cy="245.41" r="2" fill="hsl(250, 80%, 65%)" />
<circle cx="288.26" cy="241.10" r="3" fill="hsl(260, 80%, 65%)" />
<circle cx="242.02" cy="289.40" r="4" fill="hsl(270, 80%, 65%)" />
<circle cx="243.52" cy="221.30" r="5" fill="hsl(280, 80%, 65%)" />
<circle cx="289.22" cy="273.46" r="6" fill="hsl(290, 80%, 65%)" />
<circle cx="219.09" cy="265.73" r="2" fill="hsl(300, 80%, 65%)" />
<circle cx="276.98" cy="223.37" r="3" fill="hsl(310, 80%, 65%)" />
<circle cx="262.68" cy="294.85" r="4" fill="hsl(320, 80%, 65%)" />
<circle cx="224.35" cy="231.49" r="5" fill="hsl(330, 80%, 65%)" />
<circle cx="296.49" cy="252.65" r="6" fill="hsl(340, 80%, 65%)" />
<circle cx="228.00" cy="286.26" r="2" fill="hsl(350, 80%, 65%)" />
<circle cx="256.20" cy="214.19" r="3" fill="hsl(0, 80%, 65%)" />
<circle cx="284.48" cy="287.39" r="4" fill="hsl(10, 80%, 65%)" />
<circle cx="213.23" cy="252.04" r="5" fill="hsl(20, 80%, 65%)" />
<circle cx="290.66" cy="229.69" r="6" fill="hsl(30, 80%, 65%)" />
<circle cx="248.11" cy="299.36" r="2" fill="hsl(40, 80%, 65%)" />
<circle cx="232.24" cy="218.24" r="3" fill="hsl(50, 80%, 65%)" />
<circle cx="299.55" cy="267.94" r="4" fill="hsl(60, 80%, 65%)" />
<circle cx="215.35" cy="276.86" r="5" fill="hsl(70, 80%, 65%)" />
<circle cx="272.07" cy="212.66" r="6" fill="hsl(80, 80%, 65%)" />
<circle cx="273.62" cy="299.29" r="2" fill="hsl(90, 80%, 65%)" />
<circle cx="213.29" cy="235.76" r="3" fill="hsl(100, 80%, 65%)" />
<circle cx="301.65" cy="241.93" r="4" fill="hsl(110, 80%, 65%)" />
<circle cx="231.59" cy="297.65" r="5" fill="hsl(120, 80%, 65%)" />
<circle cx="245.76" cy="208.31" r="6" fill="hsl(130, 80%, 65%)" />
<circle cx="296.17" cy="284.53" r="2" fill="hsl(140, 80%, 65%)" />
<circle cx="206.62" cy="262.15" r="3" fill="hsl(150, 80%, 65%)" />
<circle cx="288.57" cy="217.74" r="4" fill="hsl(160, 80%, 65%)" />
<circle cx="257.85" cy="306.70" r="5" fill="hsl(170, 80%, 65%)" />
<circle cx="220.06" cy="219.53" r="6" fill="hsl(180, 80%, 65%)" />
<circle cx="307.61" cy="258.64" r="2" fill="hsl(190, 80%, 65%)" />
<circle cx="215.80" cy="289.21" r="3" fill="hsl(200, 80%, 65%)" />
<circle cx="263.27" cy="203.89" r="4" fill="hsl(210, 80%, 65%)" />
<circle cx="286.10" cy="299.71" r="5" fill="hsl(220, 80%, 65%)" />
<circle cx="203.84" cy="244.00" r="6" fill="hsl(230, 80%, 65%)" />
<circle cx="302.96" cy="229.39" r="2" fill="hsl(240, 80%, 65%)" />
<circle cx="239.21" cy="307.77" r="3" fill="hsl(250, 80%, 65%)" />
<circle cx="233.23" cy="206.08" r="4" fill="hsl(260, 80%, 65%)" />
<circle cx="306.92" cy="277.60" r="5" fill="hsl(270, 80%, 65%)" />
<circle cx="203.45" cy="274.61" r="6" fill="hsl(280, 80%, 65%)" />
<circle cx="282.38" cy="206.40" r="2" fill="hsl(290, 80%, 65%)" />
<circle cx="270.16" cy="310.81" r="3" fill="hsl(300, 80%, 65%)" />
<circle cx="208.17" cy="224.92" r="4" fill="hsl(310, 80%, 65%)" />
<circle cx="312.68" cy="246.54" r="5" fill="hsl(320, 80%, 65%)" />
<circle cx="220.34" cy="301.59" r="6" fill="hsl(330, 80%, 65%)" />
<circle cx="251.47" cy="197.88" r="2" fill="hsl(340, 80%, 65%)" />
<circle cx="298.91" cy="296.08" r="3" fill="hsl(350, 80%, 65%)" />
<circle cx="196.87" cy="255.42" r="4" fill="hsl(0, 80%, 65%)" />
<circle cx="300.29" cy="216.21" r="5" fill="hsl(10, 80%, 65%)" />
<circle cx="250.18" cy="315.66" r="6" fill="hsl(20, 80%, 65%)" />
<circle cx="219.75" cy="207.75" r="2" fill="hsl(30, 80%, 65%)" />
<circle cx="315.71" cy="267.16" r="3" fill="hsl(40, 80%, 65%)" />
<circle cx="204.09" cy="288.31" r="4" fill="hsl(50, 80%, 65%)" />
<circle cx="272.56" cy="196.73" r="5" fill="hsl(60, 80%, 65%)" />
<circle cx="284.01" cy="311.24" r="6" fill="hsl(70, 80%, 65%)" />
<circle cx="197.67" cy="234.05" r="2" fill="hsl(80, 80%, 65%)" />
<circle cx="314.20" cy="232.64" r="3" fill="hsl(90, 80%, 65%)" />
<circle cx="228.70" cy="312.89" r="4" fill="hsl(100, 80%, 65%)" />
<circle cx="237.59" cy="195.24" r="5" fill="hsl(110, 80%, 65%)" />
<circle cx="310.94" cy="288.56" r="6" fill="hsl(120, 80%, 65%)" />
<circle cx="193.12" cy="269.18" r="2" fill="hsl(130, 80%, 65%)" />
<circle cx="293.68" cy="203.50" r="3" fill="hsl(140, 80%, 65%)" />
<circle cx="263.72" cy="320.54" r="4" fill="hsl(150, 80%, 65%)" />
<circle cx="206.43" cy="213.39" r="5" fill="hsl(160, 80%, 65%)" />
<circle cx="321.71" cy="253.92" r="6" fill="hsl(170, 80%, 65%)" />
<circle cx="208.69" cy="302.17" r="2" fill="hsl(180, 80%, 65%)" />
<circle cx="259.72" cy="189.63" r="3" fill="hsl(190, 80%, 65%)" />
<circle cx="298.32" cy="307.73" r="4" fill="hsl(200, 80%, 65%)" />
<circle cx="189.49" cy="246.39" r="5" fill="hsl(210, 80%, 65%)" />
<circle cx="311.83" cy="217.96" r="6" fill="hsl(220, 80%, 65%)" />
<circle cx="240.45" cy="322.11" r="2" fill="hsl(230, 80%, 65%)" />
<circle cx="222.63" cy="196.43" r="3" fill="hsl(240, 80%, 65%)" />
<circle cx="321.18" cy="277.50" r="4" fill="hsl(250, 80%, 65%)" />
<circle cx="193.10" cy="284.32" r="5" fill="hsl(260, 80%, 65%)" />
<circle cx="283.39" cy="192.31" r="6" fill="hsl(270, 80%, 65%)" />
<circle cx="278.94" cy="321.80" r="2" fill="hsl(280, 80%, 65%)" />
<circle cx="194.33" cy="222.82" r="3" fill="hsl(290, 80%, 65%)" />
<circle cx="324.22" cy="238.73" r="4" fill="hsl(300, 80%, 65%)" />
<circle cx="217.17" cy="315.11" r="5" fill="hsl(310, 80%, 65%)" />
<circle cx="244.65" cy="185.85" r="6" fill="hsl(320, 80%, 65%)" />
<circle cx="312.02" cy="300.27" r="2" fill="hsl(330, 80%, 65%)" />
<circle cx="184.45" cy="261.23" r="3" fill="hsl(340, 80%, 65%)" />
<circle cx="305.46" cy="203.57" r="4" fill="hsl(350, 80%, 65%)" />
<circle cx="254.94" cy="328.41" r="5" fill="hsl(0, 80%, 65%)" />
<circle cx="207.65" cy="201.64" r="6" fill="hsl(10, 80%, 65%)" />
<circle cx="328.70" cy="263.45" r="2" fill="hsl(20, 80%, 65%)" />
<circle cx="197.09" cy="299.81" r="3" fill="hsl(30, 80%, 65%)" />
<circle cx="269.91" cy="183.58" r="4" fill="hsl(40, 80%, 65%)" />
<circle cx="294.84" cy="319.08" r="5" fill="hsl(50, 80%, 65%)" />
<circle cx="184.44" cy="235.64" r="6" fill="hsl(60, 80%, 65%)" />
<circle cx="322.81" cy="222.53" r="2" fill="hsl(70, 80%, 65%)" />
<circle cx="229.23" cy="326.11" r="3" fill="hsl(80, 80%, 65%)" />
<circle cx="228.26" cy="185.92" r="4" fill="hsl(90, 80%, 65%)" />
<circle cx="324.08" cy="289.08" r="5" fill="hsl(100, 80%, 65%)" />
<circle cx="183.14" cy="277.69" r="6" fill="hsl(110, 80%, 65%)" />
<circle cx="295.24" cy="190.52" r="2" fill="hsl(120, 80%, 65%)" />
<circle cx="271.36" cy="331.10" r="3" fill="hsl(130, 80%, 65%)" />
<circle cx="193.69" cy="210.82" r="4" fill="hsl(140, 80%, 65%)" />
<circle cx="332.78" cy="247.19" r="5" fill="hsl(150, 80%, 65%)" />
<circle cx="205.13" cy="314.60" r="6" fill="hsl(160, 80%, 65%)" />
<circle cx="253.92" cy="178.12" r="2" fill="hsl(170, 80%, 65%)" />
<circle cx="310.36" cy="312.25" r="3" fill="hsl(180, 80%, 65%)" />
<circle cx="177.62" cy="251.23" r="4" fill="hsl(190, 80%, 65%)" />
<circle cx="317.26" cy="206.38" r="5" fill="hsl(200, 80%, 65%)" />
<circle cx="244.30" cy="334.28" r="6" fill="hsl(210, 80%, 65%)" />
<circle cx="211.58" cy="190.12" r="2" fill="hsl(220, 80%, 65%)" />
<circle cx="333.55" cy="274.64" r="3" fill="hsl(230, 80%, 65%)" />
<circle cx="185.96" cy="294.78" r="4" fill="hsl(240, 80%, 65%)" />
<circle cx="281.54" cy="179.80" r="5" fill="hsl(250, 80%, 65%)" />
<circle cx="288.76" cy="329.71" r="6" fill="hsl(260, 80%, 65%)" />
<circle cx="181.78" cy="223.65" r="2" fill="hsl(270, 80%, 65%)" />
<circle cx="332.86" cy="229.62" r="3" fill="hsl(280, 80%, 65%)" />
<circle cx="217.00" cy="327.63" r="4" fill="hsl(290, 80%, 65%)" />
<circle cx="236.30" cy="176.55" r="5" fill="hsl(300, 80%, 65%)" />
<circle cx="324.45" cy="301.44" r="6" fill="hsl(310, 80%, 65%)" />
<circle cx="174.55" cy="268.77" r="2" fill="hsl(320, 80%, 65%)" />
<circle cx="307.62" cy="191.33" r="3" fill="hsl(330, 80%, 65%)" />
<circle cx="261.64" cy="338.85" r="4" fill="hsl(340, 80%, 65%)" />
<circle cx="195.67" cy="198.52" r="5" fill="hsl(350, 80%, 65%)" />
<circle cx="339.60" cy="257.63" r="6" fill="hsl(0, 80%, 65%)" />
<circle cx="193.03" cy="311.46" r="2" fill="hsl(10, 80%, 65%)" />
<circle cx="265.00" cy="172.28" r="3" fill="hsl(20, 80%, 65%)" />
<circle cx="306.09" cy="324.04" r="4" fill="hsl(30, 80%, 65%)" />
<circle cx="172.83" cy="239.61" r="5" fill="hsl(40, 80%, 65%)" />
<circle cx="328.65" cy="211.76" r="6" fill="hsl(50, 80%, 65%)" />
<circle cx="232.24" cy="337.97" r="2" fill="hsl(60, 80%, 65%)" />
<circle cx="218.02" cy="179.25" r="3" fill="hsl(70, 80%, 65%)" />
<circle cx="336.11" cy="287.04" r="4" fill="hsl(80, 80%, 65%)" />
<circle cx="175.70" cy="287.33" r="5" fill="hsl(90, 80%, 65%)" />
<circle cx="294.17" cy="178.41" r="6" fill="hsl(100, 80%, 65%)" />
<circle cx="280.34" cy="339.27" r="2" fill="hsl(110, 80%, 65%)" />
<circle cx="181.56" cy="210.90" r="3" fill="hsl(120, 80%, 65%)" />
<circle cx="341.63" cy="238.92" r="4" fill="hsl(130, 80%, 65%)" />
<circle cx="204.24" cy="326.66" r="5" fill="hsl(140, 80%, 65%)" />
<circle cx="246.41" cy="168.66" r="6" fill="hsl(150, 80%, 65%)" />
<circle cx="322.28" cy="314.11" r="2" fill="hsl(160, 80%, 65%)" />
<circle cx="167.60" cy="257.93" r="3" fill="hsl(170, 80%, 65%)" />
<circle cx="320.08" cy="194.68" r="4" fill="hsl(180, 80%, 65%)" />
<circle cx="250.16" cy="344.77" r="5" fill="hsl(190, 80%, 65%)" />
<circle cx="200.17" cy="186.38" r="6" fill="hsl(200, 80%, 65%)" />
<circle cx="344.46" cy="269.66" r="2" fill="hsl(210, 80%, 65%)" />
<circle cx="181.32" cy="305.83" r="3" fill="hsl(220, 80%, 65%)" />
<circle cx="277.47" cy="168.55" r="4" fill="hsl(230, 80%, 65%)" />
<circle cx="299.37" cy="335.23" r="5" fill="hsl(240, 80%, 65%)" />
<circle cx="170.25" cy="226.79" r="6" fill="hsl(250, 80%, 65%)" />
<circle cx="339.21" cy="219.51" r="2" fill="hsl(260, 80%, 65%)" />
<circle cx="219.19" cy="339.36" r="3" fill="hsl(270, 80%, 65%)" />
<circle cx="226.75" cy="169.42" r="4" fill="hsl(280, 80%, 65%)" />
<circle cx="336.28" cy="300.22" r="5" fill="hsl(290, 80%, 65%)" />
<circle cx="166.68" cy="277.69" r="6" fill="hsl(300, 80%, 65%)" />
<circle cx="307.36" cy="179.45" r="2" fill="hsl(310, 80%, 65%)" />
<circle cx="269.88" cy="347.40" r="3" fill="hsl(320, 80%, 65%)" />
<circle cx="183.82" cy="197.82" r="4" fill="hsl(330, 80%, 65%)" />
<circle cx="348.78" cy="250.13" r="5" fill="hsl(340, 80%, 65%)" />
<circle cx="191.37" cy="323.19" r="6" fill="hsl(350, 80%, 65%)" />
<circle cx="258.28" cy="162.54" r="2" fill="hsl(0, 80%, 65%)" />
<circle cx="317.62" cy="326.65" r="3" fill="hsl(10, 80%, 65%)" />
<circle cx="162.58" cy="245.50" r="4" fill="hsl(20, 80%, 65%)" />
<circle cx="332.19" cy="200.49" r="5" fill="hsl(30, 80%, 65%)" />
<circle cx="237.27" cy="348.65" r="6" fill="hsl(40, 80%, 65%)" />
<circle cx="207.09" cy="174.81" r="2" fill="hsl(50, 80%, 65%)" />
<circle cx="347.15" cy="282.90" r="3" fill="hsl(60, 80%, 65%)" />
<circle cx="170.39" cy="297.84" r="4" fill="hsl(70, 80%, 65%)" />
<circle cx="290.95" cy="167.08" r="5" fill="hsl(80, 80%, 65%)" />
<circle cx="290.38" cy="345.42" r="6" fill="hsl(90, 80%, 65%)" />
<circle cx="170.02" cy="213.18" r="2" fill="hsl(100, 80%, 65%)" />
<circle cx="348.57" cy="229.43" r="3" fill="hsl(110, 80%, 65%)" />
<circle cx="205.56" cy="338.34" r="4" fill="hsl(120, 80%, 65%)" />
<circle cx="237.53" cy="160.97" r="5" fill="hsl(130, 80%, 65%)" />
<circle cx="334.01" cy="313.74" r="6" fill="hsl(140, 80%, 65%)" />
<circle cx="159.22" cy="266.15" r="2" fill="hsl(150, 80%, 65%)" />
<circle cx="320.67" cy="182.96" r="3" fill="hsl(160, 80%, 65%)" />
<circle cx="257.66" cy="353.79" r="4" fill="hsl(170, 80%, 65%)" />
<circle cx="188.55" cy="184.83" r="5" fill="hsl(180, 80%, 65%)" />
<circle cx="354.06" cy="262.93" r="6" fill="hsl(190, 80%, 65%)" />
<circle cx="178.82" cy="317.28" r="2" fill="hsl(200, 80%, 65%)" />
<circle cx="271.56" cy="158.44" r="3" fill="hsl(210, 80%, 65%)" />
<circle cx="310.56" cy="338.65" r="4" fill="hsl(220, 80%, 65%)" />
<circle cx="159.70" cy="231.85" r="5" fill="hsl(230, 80%, 65%)" />
<circle cx="343.54" cy="208.64" r="6" fill="hsl(240, 80%, 65%)" />
<circle cx="223.37" cy="350.28" r="2" fill="hsl(250, 80%, 65%)" />
<circle cx="216.28" cy="164.21" r="3" fill="hsl(260, 80%, 65%)" />
<circle cx="347.51" cy="296.95" r="4" fill="hsl(270, 80%, 65%)" />
<circle cx="160.63" cy="287.70" r="5" fill="hsl(280, 80%, 65%)" />
<circle cx="305.03" cy="168.00" r="6" fill="hsl(290, 80%, 65%)" />
<circle cx="279.35" cy="354.24" r="2" fill="hsl(300, 80%, 65%)" />
<circle cx="172.22" cy="199.20" r="3" fill="hsl(310, 80%, 65%)" />
<circle cx="356.38" cy="241.26" r="4" fill="hsl(320, 80%, 65%)" />
<circle cx="191.79" cy="334.86" r="5" fill="hsl(330, 80%, 65%)" />
<circle cx="250.06" cy="154.24" r="6" fill="hsl(340, 80%, 65%)" />
<circle cx="329.29" cy="327.19" r="2" fill="hsl(350, 80%, 65%)" />
<circle cx="153.63" cy="253.00" r="3" fill="hsl(0, 80%, 65%)" />
<circle cx="333.69" cy="188.91" r="4" fill="hsl(10, 80%, 65%)" />
<circle cx="244.01" cy="358.18" r="5" fill="hsl(20, 80%, 65%)" />
<circle cx="195.68" cy="172.36" r="6" fill="hsl(30, 80%, 65%)" />
<circle cx="357.21" cy="276.97" r="2" fill="hsl(40, 80%, 65%)" />
<circle cx="167.00" cy="309.02" r="3" fill="hsl(50, 80%, 65%)" />
<circle cx="285.88" cy="156.57" r="4" fill="hsl(60, 80%, 65%)" />
<circle cx="301.24" cy="349.71" r="5" fill="hsl(70, 80%, 65%)" />
<circle cx="159.12" cy="217.37" r="6" fill="hsl(80, 80%, 65%)" />
<circle cx="353.74" cy="218.96" r="2" fill="hsl(90, 80%, 65%)" />
<circle cx="208.84" cy="349.54" r="3" fill="hsl(100, 80%, 65%)" />
<circle cx="227.52" cy="154.95" r="4" fill="hsl(110, 80%, 65%)" />
<circle cx="345.45" cy="311.40" r="5" fill="hsl(120, 80%, 65%)" />
<circle cx="152.39" cy="275.62" r="6" fill="hsl(130, 80%, 65%)" />
<circle cx="319.28" cy="171.36" r="2" fill="hsl(140, 80%, 65%)" />
<circle cx="266.53" cy="361.38" r="3" fill="hsl(150, 80%, 65%)" />
<circle cx="176.88" cy="185.25" r="4" fill="hsl(160, 80%, 65%)" />
<circle cx="362.36" cy="254.72" r="5" fill="hsl(170, 80%, 65%)" />
<circle cx="178.27" cy="328.95" r="6" fill="hsl(180, 80%, 65%)" />
<circle cx="264.06" cy="149.48" r="2" fill="hsl(190, 80%, 65%)" />
<circle cx="322.15" cy="340.16" r="3" fill="hsl(200, 80%, 65%)" />
<circle cx="150.15" cy="238.59" r="4" fill="hsl(210, 80%, 65%)" />
<circle cx="346.00" cy="197.21" r="5" fill="hsl(220, 80%, 65%)" />
<circle cx="229.29" cy="360.36" r="6" fill="hsl(230, 80%, 65%)" />
<circle cx="205.09" cy="160.80" r="2" fill="hsl(240, 80%, 65%)" />
<circle cx="358.05" cy="291.88" r="3" fill="hsl(250, 80%, 65%)" />
<circle cx="156.31" cy="298.57" r="4" fill="hsl(260, 80%, 65%)" />
<circle cx="300.85" cy="157.07" r="5" fill="hsl(270, 80%, 65%)" />
<circle cx="289.83" cy="359.46" r="6" fill="hsl(280, 80%, 65%)" />
<circle cx="160.98" cy="202.45" r="2" fill="hsl(290, 80%, 65%)" />
<circle cx="362.45" cy="231.25" r="3" fill="hsl(300, 80%, 65%)" />
<circle cx="194.10" cy="346.34" r="4" fill="hsl(310, 80%, 65%)" />
<circle cx="240.59" cy="147.35" r="5" fill="hsl(320, 80%, 65%)" />
<circle cx="340.93" cy="325.84" r="6" fill="hsl(330, 80%, 65%)" />
<circle cx="145.98" cy="261.88" r="2" fill="hsl(340, 80%, 65%)" />
<circle cx="333.31" cy="177.19" r="3" fill="hsl(350, 80%, 65%)" />
<circle cx="252.22" cy="366.55" r="4" fill="hsl(0, 80%, 65%)" />
<circle cx="183.96" cy="171.76" r="5" fill="hsl(10, 80%, 65%)" />
<circle cx="366.24" cy="269.48" r="6" fill="hsl(20, 80%, 65%)" />
<circle cx="165.43" cy="320.65" r="2" fill="hsl(30, 80%, 65%)" />
<circle cx="279.16" cy="146.94" r="3" fill="hsl(40, 80%, 65%)" />
<circle cx="312.71" cy="352.25" r="4" fill="hsl(50, 80%, 65%)" />
<circle cx="148.96" cy="223.27" r="5" fill="hsl(60, 80%, 65%)" />
<circle cx="357.23" cy="207.74" r="6" fill="hsl(70, 80%, 65%)" />
<circle cx="213.87" cy="360.17" r="2" fill="hsl(80, 80%, 65%)" />
<circle cx="216.62" cy="150.53" r="3" fill="hsl(90, 80%, 65%)" />
<circle cx="356.47" cy="307.27" r="4" fill="hsl(100, 80%, 65%)" />
<circle cx="147.08" cy="286.12" r="5" fill="hsl(110, 80%, 65%)" />
<circle cx="316.08" cy="160.03" r="6" fill="hsl(120, 80%, 65%)" />
<circle cx="276.56" cy="367.56" r="2" fill="hsl(130, 80%, 65%)" />
<circle cx="165.31" cy="187.50" r="3" fill="hsl(140, 80%, 65%)" />
<circle cx="369.35" cy="245.23" r="4" fill="hsl(150, 80%, 65%)" />
<circle cx="179.55" cy="340.67" r="5" fill="hsl(160, 80%, 65%)" />
<circle cx="255.18" cy="141.71" r="6" fill="hsl(170, 80%, 65%)" />
<circle cx="333.95" cy="339.87" r="2" fill="hsl(180, 80%, 65%)" />
<circle cx="141.66" cy="246.79" r="3" fill="hsl(190, 80%, 65%)" />
<circle cx="346.70" cy="185.42" r="4" fill="hsl(200, 80%, 65%)" />
<circle cx="236.76" cy="369.52" r="5" fill="hsl(210, 80%, 65%)" />
<circle cx="193.39" cy="159.12" r="6" fill="hsl(220, 80%, 65%)" />
<circle cx="367.81" cy="285.20" r="2" fill="hsl(230, 80%, 65%)" />
<circle cx="153.65" cy="310.09" r="3" fill="hsl(240, 80%, 65%)" />
<circle cx="295.00" cy="146.78" r="4" fill="hsl(250, 80%, 65%)" />
<circle cx="301.10" cy="363.07" r="5" fill="hsl(260, 80%, 65%)" />
<circle cx="150.23" cy="207.43" r="6" fill="hsl(270, 80%, 65%)" />
<circle cx="367.00" cy="220.30" r="2" fill="hsl(280, 80%, 65%)" />
<circle cx="198.16" cy="357.48" r="3" fill="hsl(290, 80%, 65%)" />
<circle cx="230.05" cy="141.89" r="4" fill="hsl(300, 80%, 65%)" />
<circle cx="352.38" cy="322.73" r="5" fill="hsl(310, 80%, 65%)" />
<circle cx="139.65" cy="271.93" r="6" fill="hsl(320, 80%, 65%)" />
<circle cx="331.16" cy="165.51" r="2" fill="hsl(330, 80%, 65%)" />
<circle cx="261.71" cy="373.71" r="3" fill="hsl(340, 80%, 65%)" />
<circle cx="172.13" cy="172.92" r="4" fill="hsl(350, 80%, 65%)" />
<circle cx="374.17" cy="260.61" r="5" fill="hsl(0, 80%, 65%)" />
<circle cx="165.59" cy="332.55" r="6" fill="hsl(10, 80%, 65%)" />
<circle cx="270.98" cy="138.28" r="2" fill="hsl(20, 80%, 65%)" />
<circle cx="324.59" cy="353.09" r="3" fill="hsl(30, 80%, 65%)" />
<circle cx="139.64" cy="230.70" r="4" fill="hsl(40, 80%, 65%)" />
<circle cx="359.06" cy="195.96" r="5" fill="hsl(50, 80%, 65%)" />
<circle cx="220.50" cy="370.09" r="6" fill="hsl(60, 80%, 65%)" />
<circle cx="205.02" cy="147.71" r="2" fill="hsl(70, 80%, 65%)" />
<circle cx="366.92" cy="301.49" r="3" fill="hsl(80, 80%, 65%)" />
<circle cx="143.29" cy="297.46" r="4" fill="hsl(90, 80%, 65%)" />
<circle cx="311.20" cy="149.12" r="5" fill="hsl(100, 80%, 65%)" />
<circle cx="287.55" cy="372.29" r="6" fill="hsl(110, 80%, 65%)" />
</svg>
