<svg xmlns="http://www.w3.org/2000/svg" width="512" height="512" viewBox="0 0 512 512">
<rect width="100%" height="100%" fill="#dff1ff"/>
<polygon points="40,400 160,210 280,400" fill="#2f3d4f" />
<polygon points="180,400 320,180 460,400" fill="#394b60" />
<line x1="0" y1="400" x2="512" y2="400" stroke="#445566" stroke-width="3" />
<rect x="110" y="330" width="14" height="70" fill="#6b4f35" />
<circle cx="117" cy="312" r="28" fill="#2e8b57" />
<rect x="370" y="330" width="14" height="70" fill="#6b4f35" />
<circle cx="377" cy="312" r="28" fill="#2e8b57" />
<polygon points="180,360 220,300 260,320 280,290 300,310 312,350 280,372 230,376" fill="#1e1e1e" />
<polygon points="255,300 268,278 278,302" fill="#1e1e1e" />
<line x1="310" y1="345" x2="340" y2="320" stroke="#1e1e1e" stroke-width="6" />
</svg>
