<svg xmlns="http://www.w3.org/2000/svg" width="512" height="512" viewBox="0 0 512 512">
<rect width="100%" height="100%" fill="#0b1020"/>
<circle cx="407" cy="86" r="41" fill="#f8f3c9" opacity="0.95" />
<circle cx="251.0" cy="53.0" r="3.0" fill="white" />
<circle cx="111.0" cy="74.0" r="3.0" fill="white" />
<circle cx="274.0" cy="39.0" r="2.4" fill="white" />
<circle cx="346.0" cy="110.0" r="1.7" fill="white" />
<circle cx="31.0" cy="145.0" r="3.3" fill="white" />
<circle cx="300.0" cy="93.0" r="3.1" fill="white" />
<circle cx="68.0" cy="179.0" r="1.6" fill="white" />
<circle cx="330.0" cy="72.0" r="2.7" fill="white" />
<path d="M 20 430 C 127 418, 172 444, 313 436 S 450 375, 512 405" stroke="#5dade2" stroke-width="8" fill="none" opacity="0.85" />
<line x1="0" y1="408" x2="512" y2="408" stroke="#445566" stroke-width="3" />
<polygon points="158,357 198,297 238,317 258,287 278,307 290,347 258,369 208,373" fill="#1e1e1e" />
<polygon points="233,297 246,275 256,299" fill="#1e1e1e" />
<line x1="288" y1="342" x2="318" y2="317" stroke="#1e1e1e" stroke-width="6" />
</svg>
