<svg xmlns="http://www.w3.org/2000/svg" width="512" height="512" viewBox="0 0 512 512">
<rect width="100%" height="100%" fill="#0b1020"/>
<circle cx="427" cy="108" r="49" fill="#f8f3c9" opacity="0.95" />
<circle cx="447.0" cy="142.0" r="2.6" fill="white" />
<circle cx="72.0" cy="164.0" r="2.1" fill="white" />
<circle cx="62.0" cy="59.0" r="2.6" fill="white" />
<circle cx="55.0" cy="104.0" r="2.6" fill="white" />
<circle cx="61.0" cy="100.0" r="2.8" fill="white" />
<circle cx="61.0" cy="92.0" r="3.5" fill="white" />
<circle cx="368.0" cy="160.0" r="3.1" fill="white" />
<circle cx="195.0" cy="66.0" r="1.6" fill="white" />
<path d="M 20 430 C 115 417, 194 459, 290 425 S 450 397, 512 427" stroke="#5dade2" stroke-width="7" fill="none" opacity="0.85" />
<line x1="0" y1="407" x2="512" y2="407" stroke="#445566" stroke-width="2" />
<polygon points="169,353 209,293 249,313 269,283 289,303 301,343 269,365 219,369" fill="#1e1e1e" />
<polygon points="244,293 257,271 267,295" fill="#1e1e1e" />
<line x1="299" y1="338" x2="329" y2="313" stroke="#1e1e1e" stroke-width="6" />
</svg>
