<svg xmlns="http://www.w3.org/2000/svg" width="512" height="512" viewBox="0 0 512 512">
<rect width="100%" height="100%" fill="#0b1020"/>
<circle cx="356" cy="132" r="50" fill="#f8f3c9" opacity="0.95" />
<circle cx="288.0" cy="51.0" r="3.0" fill="white" />
<circle cx="183.0" cy="172.0" r="1.8" fill="white" />
<circle cx="240.0" cy="58.0" r="2.6" fill="white" />
<circle cx="391.0" cy="167.0" r="1.6" fill="white" />
<circle cx="316.0" cy="38.0" r="2.9" fill="white" />
<path d="M 20 430 C 108 425, 162 460, 305 430 S 450 381, 512 411" stroke="#5dade2" stroke-width="5" fill="none" opacity="0.85" />
<line x1="0" y1="394" x2="512" y2="394" stroke="#445566" stroke-width="2" />
<polygon points="214,363 254,303 294,323 314,293 334,313 346,353 314,375 264,379" fill="#1e1e1e" />
<polygon points="289,303 302,281 312,305" fill="#1e1e1e" />
<line x1="344" y1="348" x2="374" y2="323" stroke="#1e1e1e" stroke-width="6" />
</svg>
