<svg xmlns="http://www.w3.org/2000/svg" width="512" height="512" viewBox="0 0 512 512">
<rect width="100%" height="100%" fill="#0b1020"/>
<circle cx="413" cy="109" r="55" fill="#f8f3c9" opacity="0.95" />
<circle cx="414.0" cy="73.0" r="2.8" fill="white" />
<circle cx="323.0" cy="142.0" r="1.6" fill="white" />
<circle cx="341.0" cy="134.0" r="2.2" fill="white" />
<circle cx="464.0" cy="29.0" r="1.6" fill="white" />
<circle cx="50.0" cy="169.0" r="2.0" fill="white" />
<circle cx="429.0" cy="71.0" r="2.2" fill="white" />
<circle cx="402.0" cy="113.0" r="2.1" fill="white" />
<circle cx="384.0" cy="61.0" r="3.4" fill="white" />
<circle cx="367.0" cy="96.0" r="1.7" fill="white" />
<path d="M 20 430 C 113 418, 173 445, 285 432 S 450 393, 512 423" stroke="#5dade2" stroke-width="8" fill="none" opacity="0.85" />
<line x1="0" y1="411" x2="512" y2="411" stroke="#445566" stroke-width="4" />
<polygon points="151,352 191,292 231,312 251,282 271,302 283,342 251,364 201,368" fill="#1e1e1e" />
<polygon points="226,292 239,270 249,294" fill="#1e1e1e" />
<line x1="281" y1="337" x2="311" y2="312" stroke="#1e1e1e" stroke-width="6" />
</svg>
