<svg xmlns="http://www.w3.org/2000/svg" width="512" height="512" viewBox="0 0 512 512">
<rect width="100%" height="100%" fill="#0b1020"/>
<circle cx="419" cy="94" r="56" fill="#f8f3c9" opacity="0.95" />
<circle cx="61.0" cy="136.0" r="3.3" fill="white" />
<circle cx="121.0" cy="88.0" r="3.5" fill="white" />
<circle cx="352.0" cy="170.0" r="2.3" fill="white" />
<circle cx="459.0" cy="131.0" r="3.1" fill="white" />
<circle cx="142.0" cy="40.0" r="3.2" fill="white" />
<circle cx="408.0" cy="162.0" r="2.1" fill="white" />
<circle cx="170.0" cy="128.0" r="2.9" fill="white" />
<circle cx="279.0" cy="41.0" r="2.0" fill="white" />
<circle cx="180.0" cy="84.0" r="2.5" fill="white" />
<circle cx="255.0" cy="121.0" r="2.6" fill="white" />
<circle cx="217.0" cy="30.0" r="2.9" fill="white" />
<path d="M 20 430 C 136 412, 182 440, 283 431 S 450 381, 512 411" stroke="#5dade2" stroke-width="8" fill="none" opacity="0.85" />
<line x1="0" y1="411" x2="512" y2="411" stroke="#445566" stroke-width="4" />
<polygon points="192,354 232,294 272,314 292,284 312,304 324,344 292,366 242,370" fill="#1e1e1e" />
<polygon points="267,294 280,272 290,296" fill="#1e1e1e" />
<line x1="322" y1="339" x2="352" y2="314" stroke="#1e1e1e" stroke-width="6" />
</svg>
