<svg xmlns="http://www.w3.org/2000/svg" width="512" height="512" viewBox="0 0 512 512">
<rect width="100%" height="100%" fill="#0b1020"/>
<circle cx="388" cy="101" r="42" fill="#f8f3c9" opacity="0.95" />
<circle cx="235.0" cy="60.0" r="1.9" fill="white" />
<circle cx="72.0" cy="158.0" r="2.1" fill="white" />
<circle cx="388.0" cy="67.0" r="2.5" fill="white" />
<circle cx="102.0" cy="105.0" r="3.1" fill="white" />
<circle cx="297.0" cy="52.0" r="2.6" fill="white" />
<circle cx="278.0" cy="72.0" r="1.7" fill="white" />
<circle cx="268.0" cy="48.0" r="3.3" fill="white" />
<circle cx="384.0" cy="142.0" r="3.0" fill="white" />
<circle cx="332.0" cy="175.0" r="2.4" fill="white" />
<circle cx="62.0" cy="30.0" r="3.2" fill="white" />
<circle cx="236.0" cy="125.0" r="2.8" fill="white" />
<circle cx="350.0" cy="27.0" r="2.8" fill="white" />
<circle cx="189.0" cy="44.0" r="3.1" fill="white" />
<circle cx="206.0" cy="56.0" r="1.9" fill="white" />
<path d="M 20 430 C 119 410, 200 447, 288 425 S 450 397, 512 427" stroke="#5dade2" stroke-width="6" fill="none" opacity="0.85" />
<line x1="0" y1="396" x2="512" y2="396" stroke="#445566" stroke-width="3" />
<polygon points="147,364 187,304 227,324 247,294 267,314 279,354 247,376 197,380" fill="#1e1e1e" />
<polygon points="222,304 235,282 245,306" fill="#1e1e1e" />
<line x1="277" y1="349" x2="307" y2="324" stroke="#1e1e1e" stroke-width="6" />
</svg>
