<svg xmlns="http://www.w3.org/2000/svg" width="512" height="512" viewBox="0 0 512 512">
<rect width="100%" height="100%" fill="#0b1020"/>
<circle cx="342" cy="111" r="52" fill="#f8f3c9" opacity="0.95" />
<circle cx="47.0" cy="90.0" r="1.9" fill="white" />
<circle cx="57.0" cy="177.0" r="3.1" fill="white" />
<circle cx="295.0" cy="73.0" r="1.9" fill="white" />
<circle cx="298.0" cy="112.0" r="2.9" fill="white" />
<circle cx="141.0" cy="67.0" r="3.3" fill="white" />
<path d="M 20 430 C 126 412, 194 441, 317 432 S 450 384, 512 414" stroke="#5dade2" stroke-width="6" fill="none" opacity="0.85" />
<line x1="0" y1="408" x2="512" y2="408" stroke="#445566" stroke-width="2" />
<polygon points="148,353 188,293 228,313 248,283 268,303 280,343 248,365 198,369" fill="#1e1e1e" />
<polygon points="223,293 236,271 246,295" fill="#1e1e1e" />
<line x1="278" y1="338" x2="308" y2="313" stroke="#1e1e1e" stroke-width="6" />
</svg>
