<svg xmlns="http://www.w3.org/2000/svg" width="512" height="512" viewBox="0 0 512 512">
<rect width="100%" height="100%" fill="black"/>
<circle cx="141" cy="242" r="5" fill="hsl(0, 80%, 65%)" />
<circle cx="196" cy="153" r="8" fill="hsl(9, 80%, 65%)" />
<circle cx="262" cy="413" r="3" fill="hsl(18, 80%, 65%)" />
<circle cx="216" cy="91" r="5" fill="hsl(27, 80%, 65%)" />
<circle cx="266" cy="313" r="8" fill="hsl(36, 80%, 65%)" />
<circle cx="300" cy="364" r="6" fill="hsl(45, 80%, 65%)" />
<circle cx="437" cy="169" r="8" fill="hsl(54, 80%, 65%)" />
<circle cx="366" cy="267" r="3" fill="hsl(63, 80%, 65%)" />
<circle cx="84" cy="124" r="6" fill="hsl(72, 80%, 65%)" />
<circle cx="106" cy="434" r="5" fill="hsl(81, 80%, 65%)" />
<circle cx="433" cy="370" r="2" fill="hsl(90, 80%, 65%)" />
<circle cx="440" cy="385" r="8" fill="hsl(99, 80%, 65%)" />
<circle cx="314" cy="205" r="7" fill="hsl(108, 80%, 65%)" />
<circle cx="130" cy="426" r="3" fill="hsl(117, 80%, 65%)" />
<circle cx="415" cy="97" r="2" fill="hsl(126, 80%, 65%)" />
<circle cx="194" cy="300" r="3" fill="hsl(135, 80%, 65%)" />
<circle cx="272" cy="171" r="8" fill="hsl(144, 80%, 65%)" />
<circle cx="187" cy="395" r="8" fill="hsl(153, 80%, 65%)" />
<circle cx="302" cy="240" r="3" fill="hsl(162, 80%, 65%)" />
<circle cx="114" cy="83" r="5" fill="hsl(171, 80%, 65%)" />
<circle cx="263" cy="254" r="6" fill="hsl(180, 80%, 65%)" />
<circle cx="334" cy="233" r="2" fill="hsl(189, 80%, 65%)" />
<circle cx="330" cy="311" r="2" fill="hsl(198, 80%, 65%)" />
<circle cx="276" cy="403" r="3" fill="hsl(207, 80%, 65%)" />
<circle cx="295" cy="378" r="8" fill="hsl(216, 80%, 65%)" />
<circle cx="403" cy="392" r="6" fill="hsl(225, 80%, 65%)" />
<circle cx="186" cy="426" r="4" fill="hsl(234, 80%, 65%)" />
<circle cx="151" cy="175" r="4" fill="hsl(243, 80%, 65%)" />
<circle cx="370" cy="430" r="6" fill="hsl(252, 80%, 65%)" />
<circle cx="312" cy="211" r="8" fill="hsl(261, 80%, 65%)" />
<circle cx="286" cy="272" r="2" fill="hsl(270, 80%, 65%)" />
<circle cx="117" cy="223" r="5" fill="hsl(279, 80%, 65%)" />
<circle cx="165" cy="349" r="5" fill="hsl(288, 80%, 65%)" />
<circle cx="394" cy="424" r="6" fill="hsl(297, 80%, 65%)" />
<circle cx="368" cy="440" r="8" fill="hsl(306, 80%, 65%)" />
<circle cx="233" cy="112" r="3" fill="hsl(315, 80%, 65%)" />
<circle cx="183" cy="111" r="7" fill="hsl(324, 80%, 65%)" />
<circle cx="286" cy="174" r="2" fill="hsl(333, 80%, 65%)" />
<circle cx="313" cy="389" r="3" fill="hsl(342, 80%, 65%)" />
<circle cx="357" cy="357" r="8" fill="hsl(351, 80%, 65%)" />
<circle cx="201" cy="386" r="7" fill="hsl(0, 80%, 65%)" />
<circle cx="224" cy="292" r="2" fill="hsl(9, 80%, 65%)" />
<circle cx="162" cy="187" r="5" fill="hsl(18, 80%, 65%)" />
<circle cx="207" cy="98" r="8" fill="hsl(27, 80%, 65%)" />
<circle cx="359" cy="103" r="7" fill="hsl(36, 80%, 65%)" />
<circle cx="150" cy="266" r="4" fill="hsl(45, 80%, 65%)" />
<circle cx="184" cy="386" r="5" fill="hsl(54, 80%, 65%)" />
<circle cx="308" cy="364" r="7" fill="hsl(63, 80%, 65%)" />
<circle cx="154" cy="120" r="5" fill="hsl(72, 80%, 65%)" />
<circle cx="337" cy="199" r="4" fill="hsl(81, 80%, 65%)" />
<circle cx="103" cy="124" r="8" fill="hsl(90, 80%, 65%)" />
<circle cx="144" cy="402" r="4" fill="hsl(99, 80%, 65%)" />
<circle cx="296" cy="244" r="6" fill="hsl(108, 80%, 65%)" />
<circle cx="85" cy="248" r="8" fill="hsl(117, 80%, 65%)" />
<circle cx="132" cy="356" r="5" fill="hsl(126, 80%, 65%)" />
<circle cx="287" cy="136" r="8" fill="hsl(135, 80%, 65%)" />
<circle cx="326" cy="101" r="8" fill="hsl(144, 80%, 65%)" />
<circle cx="281" cy="416" r="6" fill="hsl(153, 80%, 65%)" />
<circle cx="158" cy="263" r="7" fill="hsl(162, 80%, 65%)" />
<circle cx="188" cy="116" r="2" fill="hsl(171, 80%, 65%)" />
<circle cx="220" cy="282" r="8" fill="hsl(180, 80%, 65%)" />
<circle cx="262" cy="150" r="3" fill="hsl(189, 80%, 65%)" />
<circle cx="220" cy="346" r="8" fill="hsl(198, 80%, 65%)" />
<circle cx="229" cy="94" r="5" fill="hsl(207, 80%, 65%)" />
<circle cx="131" cy="353" r="2" fill="hsl(216, 80%, 65%)" />
<circle cx="432" cy="432" r="2" fill="hsl(225, 80%, 65%)" />
<circle cx="263" cy="129" r="2" fill="hsl(234, 80%, 65%)" />
<circle cx="201" cy="253" r="2" fill="hsl(243, 80%, 65%)" />
<circle cx="375" cy="203" r="6" fill="hsl(252, 80%, 65%)" />
<circle cx="183" cy="410" r="3" fill="hsl(261, 80%, 65%)" />
<circle cx="249" cy="83" r="4" fill="hsl(270, 80%, 65%)" />
<circle cx="274" cy="422" r="7" fill="hsl(279, 80%, 65%)" />
<circle cx="138" cy="239" r="5" fill="hsl(288, 80%, 65%)" />
<circle cx="334" cy="216" r="8" fill="hsl(297, 80%, 65%)" />
<circle cx="105" cy="421" r="6" fill="hsl(306, 80%, 65%)" />
<circle cx="415" cy="71" r="7" fill="hsl(315, 80%, 65%)" />
<circle cx="147" cy="389" r="2" fill="hsl(324, 80%, 65%)" />
<circle cx="140" cy="285" r="4" fill="hsl(333, 80%, 65%)" />
<circle cx="233" cy="136" r="5" fill="hsl(342, 80%, 65%)" />
<circle cx="165" cy="231" r="2" fill="hsl(351, 80%, 65%)" />
<circle cx="79" cy="119" r="8" fill="hsl(0, 80%, 65%)" />
<circle cx="251" cy="129" r="3" fill="hsl(9, 80%, 65%)" />
<circle cx="220" cy="173" r="6" fill="hsl(18, 80%, 65%)" />
<circle cx="105" cy="185" r="7" fill="hsl(27, 80%, 65%)" />
<circle cx="317" cy="109" r="6" fill="hsl(36, 80%, 65%)" />
<circle cx="331" cy="184" r="2" fill="hsl(45, 80%, 65%)" />
<circle cx="199" cy="239" r="6" fill="hsl(54, 80%, 65%)" />
<circle cx="113" cy="119" r="6" fill="hsl(63, 80%, 65%)" />
<circle cx="76" cy="366" r="8" fill="hsl(72, 80%, 65%)" />
<circle cx="282" cy="428" r="8" fill="hsl(81, 80%, 65%)" />
<circle cx="120" cy="366" r="5" fill="hsl(90, 80%, 65%)" />
<circle cx="138" cy="310" r="4" fill="hsl(99, 80%, 65%)" />
<circle cx="221" cy="392" r="4" fill="hsl(108, 80%, 65%)" />
<circle cx="282" cy="135" r="6" fill="hsl(117, 80%, 65%)" />
<circle cx="100" cy="196" r="5" fill="hsl(126, 80%, 65%)" />
<circle cx="146" cy="103" r="2" fill="hsl(135, 80%, 65%)" />
<circle cx="111" cy="349" r="4" fill="hsl(144, 80%, 65%)" />
<circle cx="208" cy="231" r="4" fill="hsl(153, 80%, 65%)" />
<circle cx="169" cy="432" r="3" fill="hsl(162, 80%, 65%)" />
<circle cx="96" cy="188" r="6" fill="hsl(171, 80%, 65%)" />
<circle cx="147" cy="187" r="3" fill="hsl(180, 80%, 65%)" />
<circle cx="410" cy="205" r="7" fill="hsl(189, 80%, 65%)" />
<circle cx="397" cy="367" r="8" fill="hsl(198, 80%, 65%)" />
<circle cx="253" cy="134" r="3" fill="hsl(207, 80%, 65%)" />
<circle cx="430" cy="329" r="6" fill="hsl(216, 80%, 65%)" />
<circle cx="73" cy="311" r="7" fill="hsl(225, 80%, 65%)" />
<circle cx="188" cy="271" r="8" fill="hsl(234, 80%, 65%)" />
<circle cx="250" cy="318" r="2" fill="hsl(243, 80%, 65%)" />
<circle cx="158" cy="156" r="3" fill="hsl(252, 80%, 65%)" />
<circle cx="379" cy="292" r="3" fill="hsl(261, 80%, 65%)" />
<circle cx="273" cy="418" r="8" fill="hsl(270, 80%, 65%)" />
<circle cx="346" cy="235" r="7" fill="hsl(279, 80%, 65%)" />
<circle cx="305" cy="325" r="5" fill="hsl(288, 80%, 65%)" />
<circle cx="278" cy="307" r="2" fill="hsl(297, 80%, 65%)" />
<circle cx="123" cy="438" r="8" fill="hsl(306, 80%, 65%)" />
<circle cx="200" cy="257" r="2" fill="hsl(315, 80%, 65%)" />
<circle cx="310" cy="259" r="6" fill="hsl(324, 80%, 65%)" />
<circle cx="134" cy="254" r="6" fill="hsl(333, 80%, 65%)" />
<circle cx="425" cy="267" r="3" fill="hsl(342, 80%, 65%)" />
<circle cx="113" cy="126" r="8" fill="hsl(351, 80%, 65%)" />
<circle cx="338" cy="77" r="4" fill="hsl(0, 80%, 65%)" />
<circle cx="380" cy="414" r="7" fill="hsl(9, 80%, 65%)" />
<circle cx="119" cy="200" r="7" fill="hsl(18, 80%, 65%)" />
<circle cx="254" cy="245" r="6" fill="hsl(27, 80%, 65%)" />
<circle cx="96" cy="430" r="6" fill="hsl(36, 80%, 65%)" />
<circle cx="110" cy="385" r="5" fill="hsl(45, 80%, 65%)" />
<circle cx="393" cy="264" r="8" fill="hsl(54, 80%, 65%)" />
<circle cx="344" cy="154" r="4" fill="hsl(63, 80%, 65%)" />
<circle cx="151" cy="215" r="2" fill="hsl(72, 80%, 65%)" />
<circle cx="194" cy="100" r="5" fill="hsl(81, 80%, 65%)" />
<circle cx="226" cy="213" r="5" fill="hsl(90, 80%, 65%)" />
<circle cx="426" cy="77" r="8" fill="hsl(99, 80%, 65%)" />
<circle cx="205" cy="372" r="7" fill="hsl(108, 80%, 65%)" />
<circle cx="121" cy="114" r="8" fill="hsl(117, 80%, 65%)" />
<circle cx="231" cy="147" r="7" fill="hsl(126, 80%, 65%)" />
<circle cx="264" cy="351" r="7" fill="hsl(135, 80%, 65%)" />
<circle cx="221" cy="295" r="4" fill="hsl(144, 80%, 65%)" />
<circle cx="395" cy="134" r="8" fill="hsl(153, 80%, 65%)" />
<circle cx="325" cy="387" r="7" fill="hsl(162, 80%, 65%)" />
<circle cx="352" cy="103" r="2" fill="hsl(171, 80%, 65%)" />
<circle cx="152" cy="404" r="2" fill="hsl(180, 80%, 65%)" />
<circle cx="163" cy="190" r="7" fill="hsl(189, 80%, 65%)" />
<circle cx="424" cy="257" r="6" fill="hsl(198, 80%, 65%)" />
<circle cx="354" cy="101" r="3" fill="hsl(207, 80%, 65%)" />
<circle cx="281" cy="275" r="2" fill="hsl(216, 80%, 65%)" />
<circle cx="316" cy="363" r="6" fill="hsl(225, 80%, 65%)" />
<circle cx="297" cy="198" r="7" fill="hsl(234, 80%, 65%)" />
<circle cx="196" cy="102" r="8" fill="hsl(243, 80%, 65%)" />
<circle cx="263" cy="433" r="8" fill="hsl(252, 80%, 65%)" />
<circle cx="359" cy="332" r="2" fill="hsl(261, 80%, 65%)" />
<circle cx="363" cy="273" r="6" fill="hsl(270, 80%, 65%)" />
<circle cx="199" cy="296" r="6" fill="hsl(279, 80%, 65%)" />
<circle cx="353" cy="337" r="6" fill="hsl(288, 80%, 65%)" />
<circle cx="105" cy="306" r="8" fill="hsl(297, 80%, 65%)" />
<circle cx="438" cy="189" r="5" fill="hsl(306, 80%, 65%)" />
<circle cx="361" cy="371" r="8" fill="hsl(315, 80%, 65%)" />
<circle cx="274" cy="265" r="3" fill="hsl(324, 80%, 65%)" />
<circle cx="301" cy="138" r="8" fill="hsl(333, 80%, 65%)" />
<circle cx="150" cy="334" r="4" fill="hsl(342, 80%, 65%)" />
<circle cx="197" cy="164" r="6" fill="hsl(351, 80%, 65%)" />
<circle cx="217" cy="79" r="8" fill="hsl(0, 80%, 65%)" />
<circle cx="310" cy="333" r="8" fill="hsl(9, 80%, 65%)" />
<circle cx="211" cy="306" r="7" fill="hsl(18, 80%, 65%)" />
<circle cx="263" cy="227" r="5" fill="hsl(27, 80%, 65%)" />
<circle cx="219" cy="137" r="8" fill="hsl(36, 80%, 65%)" />
<circle cx="204" cy="377" r="7" fill="hsl(45, 80%, 65%)" />
<circle cx="148" cy="100" r="5" fill="hsl(54, 80%, 65%)" />
<circle cx="318" cy="293" r="3" fill="hsl(63, 80%, 65%)" />
<circle cx="368" cy="152" r="7" fill="hsl(72, 80%, 65%)" />
<circle cx="259" cy="294" r="3" fill="hsl(81, 80%, 65%)" />
<circle cx="81" cy="416" r="7" fill="hsl(90, 80%, 65%)" />
<circle cx="431" cy="404" r="7" fill="hsl(99, 80%, 65%)" />
<circle cx="113" cy="76" r="3" fill="hsl(108, 80%, 65%)" />
<circle cx="410" cy="266" r="2" fill="hsl(117, 80%, 65%)" />
<circle cx="174" cy="183" r="4" fill="hsl(126, 80%, 65%)" />
<circle cx="199" cy="264" r="2" fill="hsl(135, 80%, 65%)" />
<circle cx="385" cy="254" r="4" fill="hsl(144, 80%, 65%)" />
<circle cx="261" cy="313" r="4" fill="hsl(153, 80%, 65%)" />
<circle cx="341" cy="228" r="3" fill="hsl(162, 80%, 65%)" />
<circle cx="387" cy="426" r="2" fill="hsl(171, 80%, 65%)" />
<line x1="424" y1="365" x2="433" y2="372" stroke="#223344" stroke-width="1"/>
<line x1="238" y1="86" x2="187" y2="158" stroke="#223344" stroke-width="1"/>
<line x1="253" y1="173" x2="187" y2="146" stroke="#223344" stroke-width="1"/>
<line x1="265" y1="143" x2="261" y2="66" stroke="#223344" stroke-width="1"/>
<line x1="242" y1="130" x2="291" y2="88" stroke="#223344" stroke-width="1"/>
<line x1="162" y1="123" x2="235" y2="102" stroke="#223344" stroke-width="1"/>
<line x1="358" y1="231" x2="307" y2="214" stroke="#223344" stroke-width="1"/>
<line x1="168" y1="141" x2="194" y2="80" stroke="#223344" stroke-width="1"/>
<line x1="139" y1="190" x2="78" y2="188" stroke="#223344" stroke-width="1"/>
<line x1="198" y1="215" x2="229" y2="272" stroke="#223344" stroke-width="1"/>
<line x1="175" y1="224" x2="245" y2="224" stroke="#223344" stroke-width="1"/>
<line x1="69" y1="395" x2="28" y2="369" stroke="#223344" stroke-width="1"/>
<line x1="257" y1="176" x2="204" y2="238" stroke="#223344" stroke-width="1"/>
<line x1="281" y1="268" x2="296" y2="217" stroke="#223344" stroke-width="1"/>
<line x1="326" y1="239" x2="246" y2="236" stroke="#223344" stroke-width="1"/>
<line x1="117" y1="355" x2="87" y2="337" stroke="#223344" stroke-width="1"/>
<line x1="113" y1="199" x2="38" y2="197" stroke="#223344" stroke-width="1"/>
<line x1="364" y1="328" x2="379" y2="286" stroke="#223344" stroke-width="1"/>
<line x1="202" y1="156" x2="219" y2="189" stroke="#223344" stroke-width="1"/>
<line x1="302" y1="281" x2="281" y2="336" stroke="#223344" stroke-width="1"/>
<line x1="376" y1="417" x2="326" y2="411" stroke="#223344" stroke-width="1"/>
<line x1="356" y1="126" x2="429" y2="149" stroke="#223344" stroke-width="1"/>
<line x1="386" y1="417" x2="417" y2="428" stroke="#223344" stroke-width="1"/>
<line x1="202" y1="229" x2="208" y2="174" stroke="#223344" stroke-width="1"/>
</svg>
