<svg xmlns="http://www.w3.org/2000/svg" width="512" height="512" viewBox="0 0 512 512">
<rect width="100%" height="100%" fill="#0b1020"/>
<circle cx="460" cy="69" r="56" fill="#f8f3c9" opacity="0.95" />
<circle cx="133.0" cy="114.0" r="1.5" fill="white" />
<circle cx="71.0" cy="139.0" r="2.0" fill="white" />
<circle cx="61.0" cy="124.0" r="3.4" fill="white" />
<circle cx="342.0" cy="179.0" r="2.5" fill="white" />
<circle cx="303.0" cy="36.0" r="1.7" fill="white" />
<circle cx="58.0" cy="116.0" r="2.0" fill="white" />
<circle cx="42.0" cy="129.0" r="1.8" fill="white" />
<circle cx="33.0" cy="57.0" r="2.5" fill="white" />
<circle cx="381.0" cy="45.0" r="2.0" fill="white" />
<circle cx="162.0" cy="157.0" r="1.6" fill="white" />
<circle cx="110.0" cy="110.0" r="2.2" fill="white" />
<circle cx="448.0" cy="180.0" r="2.9" fill="white" />
<circle cx="274.0" cy="110.0" r="1.8" fill="white" />
<circle cx="436.0" cy="166.0" r="2.4" fill="white" />
<circle cx="277.0" cy="115.0" r="2.8" fill="white" />
<path d="M 20 430 C 109 413, 182 440, 282 424 S 450 377, 512 407" stroke="#5dade2" stroke-width="6" fill="none" opacity="0.85" />
<line x1="0" y1="400" x2="512" y2="400" stroke="#445566" stroke-width="4" />
<polygon points="192,361 232,301 272,321 292,291 312,311 324,351 292,373 242,377" fill="#1e1e1e" />
<polygon points="267,301 280,279 290,303" fill="#1e1e1e" />
<line x1="322" y1="346" x2="352" y2="321" stroke="#1e1e1e" stroke-width="6" />
</svg>
