<svg xmlns="http://www.w3.org/2000/svg" width="512" height="512" viewBox="0 0 512 512">
<rect width="100%" height="100%" fill="#0b1020"/>
<circle cx="423" cy="82" r="52" fill="#f8f3c9" opacity="0.95" />
<circle cx="84.0" cy="173.0" r="3.2" fill="white" />
<circle cx="441.0" cy="79.0" r="1.7" fill="white" />
<circle cx="162.0" cy="159.0" r="1.8" fill="white" />
<circle cx="412.0" cy="56.0" r="3.3" fill="white" />
<circle cx="411.0" cy="103.0" r="1.7" fill="white" />
<circle cx="444.0" cy="22.0" r="1.7" fill="white" />
<circle cx="393.0" cy="180.0" r="2.6" fill="white" />
<circle cx="60.0" cy="167.0" r="2.3" fill="white" />
<circle cx="132.0" cy="78.0" r="3.1" fill="white" />
<circle cx="75.0" cy="48.0" r="2.5" fill="white" />
<path d="M 20 430 C 107 420, 199 451, 280 428 S 450 405, 512 435" stroke="#5dade2" stroke-width="5" fill="none" opacity="0.85" />
<line x1="0" y1="400" x2="512" y2="400" stroke="#445566" stroke-width="3" />
<polygon points="154,360 194,300 234,320 254,290 274,310 286,350 254,372 204,376" fill="#1e1e1e" />
<polygon points="229,300 242,278 252,302" fill="#1e1e1e" />
<line x1="284" y1="345" x2="314" y2="320" stroke="#1e1e1e" stroke-width="6" />
</svg>
