<svg xmlns="http://www.w3.org/2000/svg" width="512" height="512" viewBox="0 0 512 512">
<rect width="100%" height="100%" fill="#0b1020"/>
<circle cx="401" cy="120" r="43" fill="#f8f3c9" opacity="0.95" />
<circle cx="492.0" cy="44.0" r="3.0" fill="white" />
<circle cx="28.0" cy="124.0" r="1.7" fill="white" />
<circle cx="62.0" cy="131.0" r="3.4" fill="white" />
<circle cx="316.0" cy="114.0" r="1.7" fill="white" />
<circle cx="128.0" cy="153.0" r="3.5" fill="white" />
<circle cx="224.0" cy="146.0" r="2.2" fill="white" />
<circle cx="309.0" cy="168.0" r="3.3" fill="white" />
<circle cx="391.0" cy="178.0" r="1.8" fill="white" />
<circle cx="361.0" cy="133.0" r="3.3" fill="white" />
<circle cx="448.0" cy="53.0" r="2.1" fill="white" />
<circle cx="150.0" cy="159.0" r="2.2" fill="white" />
<path d="M 20 430 C 105 413, 161 455, 312 439 S 450 403, 512 433" stroke="#5dade2" stroke-width="8" fill="none" opacity="0.85" />
<line x1="0" y1="411" x2="512" y2="411" stroke="#445566" stroke-width="2" />
<polygon points="206,358 246,298 286,318 306,288 326,308 338,348 306,370 256,374" fill="#1e1e1e" />
<polygon points="281,298 294,276 304,300" fill="#1e1e1e" />
<line x1="336" y1="343" x2="366" y2="318" stroke="#1e1e1e" stroke-width="6" />
</svg>
