<svg xmlns="http://www.w3.org/2000/svg" width="512" height="512" viewBox="0 0 512 512">
<rect width="100%" height="100%" fill="#0b1020"/>
<circle cx="423" cy="79" r="53" fill="#f8f3c9" opacity="0.95" />
<circle cx="238.0" cy="31.0" r="2.3" fill="white" />
<circle cx="163.0" cy="106.0" r="2.3" fill="white" />
<circle cx="396.0" cy="154.0" r="2.1" fill="white" />
<circle cx="92.0" cy="94.0" r="2.4" fill="white" />
<circle cx="482.0" cy="124.0" r="2.7" fill="white" />
<circle cx="418.0" cy="92.0" r="2.9" fill="white" />
<circle cx="467.0" cy="141.0" r="2.9" fill="white" />
<circle cx="51.0" cy="140.0" r="2.3" fill="white" />
<circle cx="447.0" cy="160.0" r="2.7" fill="white" />
<circle cx="386.0" cy="101.0" r="1.7" fill="white" />
<circle cx="426.0" cy="167.0" r="3.4" fill="white" />
<circle cx="260.0" cy="114.0" r="1.6" fill="white" />
<circle cx="116.0" cy="166.0" r="3.4" fill="white" />
<circle cx="34.0" cy="53.0" r="2.4" fill="white" />
<circle cx="293.0" cy="100.0" r="2.8" fill="white" />
<path d="M 20 430 C 101 411, 184 450, 306 421 S 450 385, 512 415" stroke="#5dade2" stroke-width="7" fill="none" opacity="0.85" />
<line x1="0" y1="408" x2="512" y2="408" stroke="#445566" stroke-width="4" />
<polygon points="154,361 194,301 234,321 254,291 274,311 286,351 254,373 204,377" fill="#1e1e1e" />
<polygon points="229,301 242,279 252,303" fill="#1e1e1e" />
<line x1="284" y1="346" x2="314" y2="321" stroke="#1e1e1e" stroke-width="6" />
</svg>
