<svg xmlns="http://www.w3.org/2000/svg" width="512" height="512" viewBox="0 0 512 512">
<rect width="100%" height="100%" fill="#0b1020"/>
<circle cx="362" cy="118" r="46" fill="#f8f3c9" opacity="0.95" />
<circle cx="432.0" cy="53.0" r="2.8" fill="white" />
<circle cx="255.0" cy="168.0" r="2.2" fill="white" />
<circle cx="450.0" cy="50.0" r="2.5" fill="white" />
<circle cx="424.0" cy="87.0" r="3.0" fill="white" />
<circle cx="372.0" cy="124.0" r="3.5" fill="white" />
<circle cx="288.0" cy="142.0" r="1.9" fill="white" />
<path d="M 20 430 C 116 429, 191 441, 290 426 S 450 379, 512 409" stroke="#5dade2" stroke-width="8" fill="none" opacity="0.85" />
<line x1="0" y1="402" x2="512" y2="402" stroke="#445566" stroke-width="3" />
<polygon points="209,365 249,305 289,325 309,295 329,315 341,355 309,377 259,381" fill="#1e1e1e" />
<polygon points="284,305 297,283 307,307" fill="#1e1e1e" />
<line x1="339" y1="350" x2="369" y2="325" stroke="#1e1e1e" stroke-width="6" />
</svg>
