<svg xmlns="http://www.w3.org/2000/svg" width="512" height="512" viewBox="0 0 512 512">
<rect width="100%" height="100%" fill="#0b1020"/>
<circle cx="407" cy="132" r="52" fill="#f8f3c9" opacity="0.95" />
<circle cx="213.0" cy="55.0" r="1.6" fill="white" />
<circle cx="375.0" cy="76.0" r="2.2" fill="white" />
<circle cx="23.0" cy="150.0" r="2.2" fill="white" />
<circle cx="26.0" cy="134.0" r="2.5" fill="white" />
<circle cx="281.0" cy="172.0" r="3.2" fill="white" />
<circle cx="351.0" cy="30.0" r="1.9" fill="white" />
<circle cx="45.0" cy="97.0" r="1.7" fill="white" />
<circle cx="207.0" cy="26.0" r="3.4" fill="white" />
<circle cx="255.0" cy="98.0" r="2.3" fill="white" />
<circle cx="175.0" cy="129.0" r="3.1" fill="white" />
<circle cx="279.0" cy="135.0" r="1.9" fill="white" />
<circle cx="207.0" cy="132.0" r="2.3" fill="white" />
<circle cx="258.0" cy="35.0" r="2.0" fill="white" />
<circle cx="47.0" cy="98.0" r="2.3" fill="white" />
<path d="M 20 430 C 129 430, 190 459, 283 429 S 450 395, 512 425" stroke="#5dade2" stroke-width="6" fill="none" opacity="0.85" />
<line x1="0" y1="390" x2="512" y2="390" stroke="#445566" stroke-width="3" />
<polygon points="203,354 243,294 283,314 303,284 323,304 335,344 303,366 253,370" fill="#1e1e1e" />
<polygon points="278,294 291,272 301,296" fill="#1e1e1e" />
<line x1="333" y1="339" x2="363" y2="314" stroke="#1e1e1e" stroke-width="6" />
</svg>
