<svg xmlns="http://www.w3.org/2000/svg" width="512" height="512" viewBox="0 0 512 512">
<rect width="100%" height="100%" fill="#0b1020"/>
<circle cx="396" cy="81" r="52" fill="#f8f3c9" opacity="0.95" />
<circle cx="183.0" cy="31.0" r="1.6" fill="white" />
<circle cx="438.0" cy="54.0" r="3.1" fill="white" />
<circle cx="136.0" cy="51.0" r="3.0" fill="white" />
<circle cx="401.0" cy="23.0" r="2.8" fill="white" />
<circle cx="376.0" cy="124.0" r="2.9" fill="white" />
<circle cx="335.0" cy="174.0" r="2.3" fill="white" />
<path d="M 20 430 C 135 413, 176 445, 306 427 S 450 401, 512 431" stroke="#5dade2" stroke-width="5" fill="none" opacity="0.85" />
<line x1="0" y1="414" x2="512" y2="414" stroke="#445566" stroke-width="4" />
<polygon points="144,364 184,304 224,324 244,294 264,314 276,354 244,376 194,380" fill="#1e1e1e" />
<polygon points="219,304 232,282 242,306" fill="#1e1e1e" />
<line x1="274" y1="349" x2="304" y2="324" stroke="#1e1e1e" stroke-width="6" />
</svg>
