<svg xmlns="http://www.w3.org/2000/svg" width="512" height="512" viewBox="0 0 512 512">
<rect width="100%" height="100%" fill="#0b1020"/>
<circle cx="346" cy="111" r="47" fill="#f8f3c9" opacity="0.95" />
<circle cx="119.0" cy="58.0" r="1.6" fill="white" />
<circle cx="85.0" cy="110.0" r="2.0" fill="white" />
<circle cx="45.0" cy="146.0" r="1.7" fill="white" />
<circle cx="199.0" cy="55.0" r="2.4" fill="white" />
<circle cx="270.0" cy="63.0" r="1.7" fill="white" />
<circle cx="115.0" cy="21.0" r="1.9" fill="white" />
<circle cx="185.0" cy="109.0" r="1.6" fill="white" />
<circle cx="409.0" cy="34.0" r="2.7" fill="white" />
<circle cx="289.0" cy="130.0" r="2.7" fill="white" />
<circle cx="263.0" cy="92.0" r="3.1" fill="white" />
<circle cx="167.0" cy="35.0" r="2.9" fill="white" />
<circle cx="100.0" cy="92.0" r="3.2" fill="white" />
<circle cx="345.0" cy="100.0" r="3.2" fill="white" />
<circle cx="236.0" cy="99.0" r="2.3" fill="white" />
<circle cx="133.0" cy="24.0" r="2.3" fill="white" />
<path d="M 20 430 C 137 419, 175 450, 305 423 S 450 379, 512 409" stroke="#5dade2" stroke-width="6" fill="none" opacity="0.85" />
<line x1="0" y1="413" x2="512" y2="413" stroke="#445566" stroke-width="4" />
<polygon points="191,358 231,298 271,318 291,288 311,308 323,348 291,370 241,374" fill="#1e1e1e" />
<polygon points="266,298 279,276 289,300" fill="#1e1e1e" />
<line x1="321" y1="343" x2="351" y2="318" stroke="#1e1e1e" stroke-width="6" />
</svg>
