<svg xmlns="http://www.w3.org/2000/svg" width="512" height="512" viewBox="0 0 512 512">
<rect width="100%" height="100%" fill="black"/>
<circle cx="256.00" cy="256.00" r="2" fill="hsl(0, 80%, 65%)" />
<circle cx="250.77" cy="260.79" r="3" fill="hsl(5, 80%, 65%)" />
<circle cx="256.88" cy="246.00" r="4" fill="hsl(10, 80%, 65%)" />
<circle cx="263.48" cy="265.76" r="5" fill="hsl(15, 80%, 65%)" />
<circle cx="242.02" cy="253.53" r="6" fill="hsl(20, 80%, 65%)" />
<circle cx="269.39" cy="247.48" r="2" fill="hsl(25, 80%, 65%)" />
<circle cx="251.49" cy="272.79" r="3" fill="hsl(30, 80%, 65%)" />
<circle cx="247.34" cy="239.33" r="4" fill="hsl(35, 80%, 65%)" />
<circle cx="274.86" cy="262.89" r="5" fill="hsl(40, 80%, 65%)" />
<circle cx="236.32" cy="264.12" r="6" fill="hsl(45, 80%, 65%)" />
<circle cx="265.51" cy="235.67" r="2" fill="hsl(50, 80%, 65%)" />
<circle cx="263.05" cy="278.46" r="3" fill="hsl(55, 80%, 65%)" />
<circle cx="234.73" cy="243.67" r="4" fill="hsl(60, 80%, 65%)" />
<circle cx="280.99" cy="250.51" r="5" fill="hsl(65, 80%, 65%)" />
<circle cx="240.73" cy="277.73" r="6" fill="hsl(70, 80%, 65%)" />
<circle cx="252.47" cy="228.74" r="2" fill="hsl(75, 80%, 65%)" />
<circle cx="277.71" cy="274.30" r="3" fill="hsl(80, 80%, 65%)" />
<circle cx="226.76" cy="257.21" r="4" fill="hsl(85, 80%, 65%)" />
<circle cx="277.35" cy="234.76" r="5" fill="hsl(90, 80%, 65%)" />
<circle cx="254.57" cy="286.91" r="6" fill="hsl(95, 80%, 65%)" />
<circle cx="235.66" cy="231.63" r="2" fill="hsl(100, 80%, 65%)" />
<circle cx="288.24" cy="260.34" r="3" fill="hsl(105, 80%, 65%)" />
<circle cx="228.67" cy="275.01" r="4" fill="hsl(110, 80%, 65%)" />
<circle cx="263.47" cy="222.79" r="5" fill="hsl(115, 80%, 65%)" />
<circle cx="273.29" cy="286.17" r="6" fill="hsl(120, 80%, 65%)" />
<circle cx="222.19" cy="245.21" r="2" fill="hsl(125, 80%, 65%)" />
<circle cx="288.85" cy="240.82" r="3" fill="hsl(130, 80%, 65%)" />
<circle cx="241.76" cy="290.02" r="4" fill="hsl(135, 80%, 65%)" />
<circle cx="243.29" cy="220.66" r="5" fill="hsl(140, 80%, 65%)" />
<circle cx="289.83" cy="273.78" r="6" fill="hsl(145, 80%, 65%)" />
<circle cx="218.41" cy="265.91" r="2" fill="hsl(150, 80%, 65%)" />
<circle cx="277.37" cy="222.76" r="3" fill="hsl(155, 80%, 65%)" />
<circle cx="262.80" cy="295.57" r="4" fill="hsl(160, 80%, 65%)" />
<circle cx="223.76" cy="231.03" r="5" fill="hsl(165, 80%, 65%)" />
<circle cx="297.25" cy="252.58" r="6" fill="hsl(170, 80%, 65%)" />
<circle cx="227.48" cy="286.82" r="2" fill="hsl(175, 80%, 65%)" />
<circle cx="256.21" cy="213.41" r="3" fill="hsl(180, 80%, 65%)" />
<circle cx="285.01" cy="287.98" r="4" fill="hsl(185, 80%, 65%)" />
<circle cx="212.43" cy="251.96" r="5" fill="hsl(190, 80%, 65%)" />
<circle cx="291.31" cy="229.20" r="6" fill="hsl(195, 80%, 65%)" />
<circle cx="247.97" cy="300.17" r="2" fill="hsl(200, 80%, 65%)" />
<circle cx="231.79" cy="217.53" r="3" fill="hsl(205, 80%, 65%)" />
<circle cx="300.36" cy="268.16" r="4" fill="hsl(210, 80%, 65%)" />
<circle cx="214.59" cy="277.25" r="5" fill="hsl(215, 80%, 65%)" />
<circle cx="272.37" cy="211.86" r="6" fill="hsl(220, 80%, 65%)" />
<circle cx="273.95" cy="300.10" r="2" fill="hsl(225, 80%, 65%)" />
<circle cx="212.50" cy="235.38" r="3" fill="hsl(230, 80%, 65%)" />
<circle cx="302.50" cy="241.66" r="4" fill="hsl(235, 80%, 65%)" />
<circle cx="231.14" cy="298.43" r="5" fill="hsl(240, 80%, 65%)" />
<circle cx="245.57" cy="207.42" r="6" fill="hsl(245, 80%, 65%)" />
<circle cx="296.92" cy="285.06" r="2" fill="hsl(250, 80%, 65%)" />
<circle cx="205.70" cy="262.27" r="3" fill="hsl(255, 80%, 65%)" />
<circle cx="289.17" cy="217.02" r="4" fill="hsl(260, 80%, 65%)" />
<circle cx="257.88" cy="307.64" r="5" fill="hsl(265, 80%, 65%)" />
<circle cx="219.39" cy="218.85" r="6" fill="hsl(270, 80%, 65%)" />
<circle cx="308.57" cy="258.69" r="2" fill="hsl(275, 80%, 65%)" />
<circle cx="215.05" cy="289.83" r="3" fill="hsl(280, 80%, 65%)" />
<circle cx="263.40" cy="202.93" r="4" fill="hsl(285, 80%, 65%)" />
<circle cx="286.66" cy="300.52" r="5" fill="hsl(290, 80%, 65%)" />
<circle cx="202.87" cy="243.77" r="6" fill="hsl(295, 80%, 65%)" />
<circle cx="303.83" cy="228.90" r="2" fill="hsl(300, 80%, 65%)" />
<circle cx="238.89" cy="308.73" r="3" fill="hsl(305, 80%, 65%)" />
<circle cx="232.81" cy="205.15" r="4" fill="hsl(310, 80%, 65%)" />
<circle cx="307.86" cy="278.00" r="5" fill="hsl(315, 80%, 65%)" />
<circle cx="202.48" cy="274.96" r="6" fill="hsl(320, 80%, 65%)" />
<circle cx="282.87" cy="205.48" r="2" fill="hsl(325, 80%, 65%)" />
<circle cx="270.43" cy="311.83" r="3" fill="hsl(330, 80%, 65%)" />
<circle cx="207.29" cy="224.34" r="4" fill="hsl(335, 80%, 65%)" />
<circle cx="313.73" cy="246.37" r="5" fill="hsl(340, 80%, 65%)" />
<circle cx="219.67" cy="302.44" r="6" fill="hsl(345, 80%, 65%)" />
<circle cx="251.39" cy="196.80" r="2" fill="hsl(350, 80%, 65%)" />
<circle cx="299.70" cy="296.83" r="3" fill="hsl(355, 80%, 65%)" />
<circle cx="195.78" cy="255.41" r="4" fill="hsl(0, 80%, 65%)" />
<circle cx="301.11" cy="215.47" r="5" fill="hsl(5, 80%, 65%)" />
<circle cx="250.07" cy="316.77" r="6" fill="hsl(10, 80%, 65%)" />
<circle cx="219.08" cy="206.86" r="2" fill="hsl(15, 80%, 65%)" />
<circle cx="316.82" cy="267.37" r="3" fill="hsl(20, 80%, 65%)" />
<circle cx="203.13" cy="288.91" r="4" fill="hsl(25, 80%, 65%)" />
<circle cx="272.86" cy="195.63" r="5" fill="hsl(30, 80%, 65%)" />
<circle cx="284.53" cy="312.27" r="6" fill="hsl(35, 80%, 65%)" />
<circle cx="196.58" cy="233.64" r="2" fill="hsl(40, 80%, 65%)" />
<circle cx="315.28" cy="232.20" r="3" fill="hsl(45, 80%, 65%)" />
<circle cx="228.19" cy="313.95" r="4" fill="hsl(50, 80%, 65%)" />
<circle cx="237.25" cy="194.11" r="5" fill="hsl(55, 80%, 65%)" />
<circle cx="311.96" cy="289.17" r="6" fill="hsl(60, 80%, 65%)" />
<circle cx="191.95" cy="269.43" r="2" fill="hsl(65, 80%, 65%)" />
<circle cx="294.38" cy="202.53" r="3" fill="hsl(70, 80%, 65%)" />
<circle cx="263.87" cy="321.73" r="4" fill="hsl(75, 80%, 65%)" />
<circle cx="205.51" cy="212.60" r="5" fill="hsl(80, 80%, 65%)" />
<circle cx="322.93" cy="253.89" r="6" fill="hsl(85, 80%, 65%)" />
<circle cx="207.81" cy="303.03" r="2" fill="hsl(90, 80%, 65%)" />
<circle cx="259.79" cy="188.40" r="3" fill="hsl(95, 80%, 65%)" />
<circle cx="299.11" cy="308.69" r="4" fill="hsl(100, 80%, 65%)" />
<circle cx="188.26" cy="246.21" r="5" fill="hsl(105, 80%, 65%)" />
<circle cx="312.87" cy="217.25" r="6" fill="hsl(110, 80%, 65%)" />
<circle cx="240.16" cy="323.34" r="2" fill="hsl(115, 80%, 65%)" />
<circle cx="222.01" cy="195.33" r="3" fill="hsl(120, 80%, 65%)" />
<circle cx="322.39" cy="277.90" r="4" fill="hsl(125, 80%, 65%)" />
<circle cx="191.93" cy="284.85" r="5" fill="hsl(130, 80%, 65%)" />
<circle cx="283.90" cy="191.12" r="6" fill="hsl(135, 80%, 65%)" />
<circle cx="279.37" cy="323.02" r="2" fill="hsl(140, 80%, 65%)" />
<circle cx="193.19" cy="222.20" r="3" fill="hsl(145, 80%, 65%)" />
<circle cx="325.49" cy="238.41" r="4" fill="hsl(150, 80%, 65%)" />
<circle cx="216.45" cy="316.21" r="5" fill="hsl(155, 80%, 65%)" />
<circle cx="244.44" cy="184.55" r="6" fill="hsl(160, 80%, 65%)" />
<circle cx="313.06" cy="301.09" r="2" fill="hsl(165, 80%, 65%)" />
<circle cx="183.12" cy="261.32" r="3" fill="hsl(170, 80%, 65%)" />
<circle cx="306.38" cy="202.59" r="4" fill="hsl(175, 80%, 65%)" />
<circle cx="254.92" cy="329.75" r="5" fill="hsl(180, 80%, 65%)" />
<circle cx="206.75" cy="200.63" r="6" fill="hsl(185, 80%, 65%)" />
<circle cx="330.05" cy="263.59" r="2" fill="hsl(190, 80%, 65%)" />
<circle cx="196.00" cy="300.63" r="3" fill="hsl(195, 80%, 65%)" />
<circle cx="270.16" cy="182.23" r="4" fill="hsl(200, 80%, 65%)" />
<circle cx="295.56" cy="320.25" r="5" fill="hsl(205, 80%, 65%)" />
<circle cx="183.11" cy="235.26" r="6" fill="hsl(210, 80%, 65%)" />
<circle cx="324.05" cy="221.91" r="2" fill="hsl(215, 80%, 65%)" />
<circle cx="228.73" cy="327.41" r="3" fill="hsl(220, 80%, 65%)" />
<circle cx="227.75" cy="184.61" r="4" fill="hsl(225, 80%, 65%)" />
<circle cx="325.35" cy="289.70" r="5" fill="hsl(230, 80%, 65%)" />
<circle cx="181.79" cy="278.09" r="6" fill="hsl(235, 80%, 65%)" />
<circle cx="295.97" cy="189.31" r="2" fill="hsl(240, 80%, 65%)" />
<circle cx="271.65" cy="332.49" r="3" fill="hsl(245, 80%, 65%)" />
<circle cx="192.53" cy="209.98" r="4" fill="hsl(250, 80%, 65%)" />
<circle cx="334.20" cy="247.03" r="5" fill="hsl(255, 80%, 65%)" />
<circle cx="204.19" cy="315.68" r="6" fill="hsl(260, 80%, 65%)" />
<circle cx="253.88" cy="176.67" r="2" fill="hsl(265, 80%, 65%)" />
<circle cx="311.37" cy="313.29" r="3" fill="hsl(270, 80%, 65%)" />
<circle cx="176.16" cy="251.14" r="4" fill="hsl(275, 80%, 65%)" />
<circle cx="318.40" cy="205.46" r="5" fill="hsl(280, 80%, 65%)" />
<circle cx="244.08" cy="335.73" r="6" fill="hsl(285, 80%, 65%)" />
<circle cx="210.76" cy="188.90" r="2" fill="hsl(290, 80%, 65%)" />
<circle cx="334.99" cy="274.99" r="3" fill="hsl(295, 80%, 65%)" />
<circle cx="184.66" cy="295.50" r="4" fill="hsl(300, 80%, 65%)" />
<circle cx="282.02" cy="178.39" r="5" fill="hsl(305, 80%, 65%)" />
<circle cx="289.37" cy="331.08" r="6" fill="hsl(310, 80%, 65%)" />
<circle cx="180.40" cy="223.05" r="2" fill="hsl(315, 80%, 65%)" />
<circle cx="334.29" cy="229.13" r="3" fill="hsl(320, 80%, 65%)" />
<circle cx="216.28" cy="328.97" r="4" fill="hsl(325, 80%, 65%)" />
<circle cx="235.93" cy="175.07" r="5" fill="hsl(330, 80%, 65%)" />
<circle cx="325.72" cy="302.28" r="6" fill="hsl(335, 80%, 65%)" />
<circle cx="173.03" cy="269.01" r="2" fill="hsl(340, 80%, 65%)" />
<circle cx="308.58" cy="190.13" r="3" fill="hsl(345, 80%, 65%)" />
<circle cx="261.75" cy="340.38" r="4" fill="hsl(350, 80%, 65%)" />
<circle cx="194.55" cy="197.46" r="5" fill="hsl(355, 80%, 65%)" />
<circle cx="341.16" cy="257.66" r="6" fill="hsl(0, 80%, 65%)" />
<circle cx="191.86" cy="312.49" r="2" fill="hsl(5, 80%, 65%)" />
<circle cx="265.16" cy="170.73" r="3" fill="hsl(10, 80%, 65%)" />
<circle cx="307.02" cy="325.30" r="4" fill="hsl(15, 80%, 65%)" />
<circle cx="171.28" cy="239.30" r="5" fill="hsl(20, 80%, 65%)" />
<circle cx="330.00" cy="210.93" r="6" fill="hsl(25, 80%, 65%)" />
<circle cx="231.80" cy="339.49" r="2" fill="hsl(30, 80%, 65%)" />
<circle cx="217.32" cy="177.83" r="3" fill="hsl(35, 80%, 65%)" />
<circle cx="337.60" cy="287.62" r="4" fill="hsl(40, 80%, 65%)" />
<circle cx="174.21" cy="287.91" r="5" fill="hsl(45, 80%, 65%)" />
<circle cx="294.88" cy="176.97" r="6" fill="hsl(50, 80%, 65%)" />
<circle cx="280.80" cy="340.82" r="2" fill="hsl(55, 80%, 65%)" />
<circle cx="180.18" cy="210.06" r="3" fill="hsl(60, 80%, 65%)" />
<circle cx="343.22" cy="238.60" r="4" fill="hsl(65, 80%, 65%)" />
<circle cx="203.27" cy="327.97" r="5" fill="hsl(70, 80%, 65%)" />
<circle cx="246.23" cy="167.04" r="6" fill="hsl(75, 80%, 65%)" />
<circle cx="323.51" cy="315.19" r="2" fill="hsl(80, 80%, 65%)" />
<circle cx="165.96" cy="257.96" r="3" fill="hsl(85, 80%, 65%)" />
<circle cx="321.27" cy="193.54" r="4" fill="hsl(90, 80%, 65%)" />
<circle cx="250.05" cy="346.42" r="5" fill="hsl(95, 80%, 65%)" />
<circle cx="199.14" cy="185.09" r="6" fill="hsl(100, 80%, 65%)" />
<circle cx="346.10" cy="269.92" r="2" fill="hsl(105, 80%, 65%)" />
<circle cx="179.93" cy="306.75" r="3" fill="hsl(110, 80%, 65%)" />
<circle cx="277.87" cy="166.92" r="4" fill="hsl(115, 80%, 65%)" />
<circle cx="300.17" cy="336.70" r="5" fill="hsl(120, 80%, 65%)" />
<circle cx="168.66" cy="226.25" r="6" fill="hsl(125, 80%, 65%)" />
<circle cx="340.75" cy="218.83" r="2" fill="hsl(130, 80%, 65%)" />
<circle cx="218.50" cy="340.90" r="3" fill="hsl(135, 80%, 65%)" />
<circle cx="226.21" cy="167.81" r="4" fill="hsl(140, 80%, 65%)" />
<circle cx="337.77" cy="301.04" r="5" fill="hsl(145, 80%, 65%)" />
<circle cx="165.02" cy="278.09" r="6" fill="hsl(150, 80%, 65%)" />
<circle cx="308.31" cy="178.03" r="2" fill="hsl(155, 80%, 65%)" />
<circle cx="270.14" cy="349.10" r="3" fill="hsl(160, 80%, 65%)" />
<circle cx="182.48" cy="196.74" r="4" fill="hsl(165, 80%, 65%)" />
<circle cx="350.51" cy="250.02" r="5" fill="hsl(170, 80%, 65%)" />
<circle cx="190.17" cy="324.44" r="6" fill="hsl(175, 80%, 65%)" />
<circle cx="258.32" cy="160.80" r="2" fill="hsl(180, 80%, 65%)" />
<circle cx="318.77" cy="327.96" r="3" fill="hsl(185, 80%, 65%)" />
<circle cx="160.85" cy="245.30" r="4" fill="hsl(190, 80%, 65%)" />
<circle cx="333.60" cy="199.46" r="5" fill="hsl(195, 80%, 65%)" />
<circle cx="236.92" cy="350.37" r="6" fill="hsl(200, 80%, 65%)" />
<circle cx="206.19" cy="173.30" r="2" fill="hsl(205, 80%, 65%)" />
<circle cx="348.84" cy="283.40" r="3" fill="hsl(210, 80%, 65%)" />
<circle cx="168.80" cy="298.62" r="4" fill="hsl(215, 80%, 65%)" />
<circle cx="291.60" cy="165.43" r="5" fill="hsl(220, 80%, 65%)" />
<circle cx="291.02" cy="347.08" r="6" fill="hsl(225, 80%, 65%)" />
<circle cx="168.42" cy="212.38" r="2" fill="hsl(230, 80%, 65%)" />
<circle cx="350.28" cy="228.93" r="3" fill="hsl(235, 80%, 65%)" />
<circle cx="204.63" cy="339.86" r="4" fill="hsl(240, 80%, 65%)" />
<circle cx="237.18" cy="159.21" r="5" fill="hsl(245, 80%, 65%)" />
<circle cx="335.46" cy="314.81" r="6" fill="hsl(250, 80%, 65%)" />
<circle cx="157.43" cy="266.34" r="2" fill="hsl(255, 80%, 65%)" />
<circle cx="321.87" cy="181.60" r="3" fill="hsl(260, 80%, 65%)" />
<circle cx="257.69" cy="355.61" r="4" fill="hsl(265, 80%, 65%)" />
<circle cx="187.30" cy="183.51" r="5" fill="hsl(270, 80%, 65%)" />
<circle cx="355.88" cy="263.06" r="6" fill="hsl(275, 80%, 65%)" />
<circle cx="177.39" cy="318.41" r="2" fill="hsl(280, 80%, 65%)" />
<circle cx="271.85" cy="156.63" r="3" fill="hsl(285, 80%, 65%)" />
<circle cx="311.58" cy="340.19" r="4" fill="hsl(290, 80%, 65%)" />
<circle cx="157.91" cy="231.40" r="5" fill="hsl(295, 80%, 65%)" />
<circle cx="345.16" cy="207.76" r="6" fill="hsl(300, 80%, 65%)" />
<circle cx="222.76" cy="352.03" r="2" fill="hsl(305, 80%, 65%)" />
<circle cx="215.54" cy="162.51" r="3" fill="hsl(310, 80%, 65%)" />
<circle cx="349.21" cy="297.71" r="4" fill="hsl(315, 80%, 65%)" />
<circle cx="158.86" cy="288.29" r="5" fill="hsl(320, 80%, 65%)" />
<circle cx="305.94" cy="166.36" r="6" fill="hsl(325, 80%, 65%)" />
<circle cx="279.78" cy="356.07" r="2" fill="hsl(330, 80%, 65%)" />
<circle cx="170.67" cy="198.14" r="3" fill="hsl(335, 80%, 65%)" />
<circle cx="358.25" cy="240.99" r="4" fill="hsl(340, 80%, 65%)" />
<circle cx="190.59" cy="336.33" r="5" fill="hsl(345, 80%, 65%)" />
<circle cx="249.95" cy="152.35" r="6" fill="hsl(350, 80%, 65%)" />
<circle cx="330.65" cy="328.52" r="2" fill="hsl(355, 80%, 65%)" />
<circle cx="151.73" cy="252.95" r="3" fill="hsl(0, 80%, 65%)" />
<circle cx="335.13" cy="187.66" r="4" fill="hsl(5, 80%, 65%)" />
<circle cx="243.79" cy="360.08" r="5" fill="hsl(10, 80%, 65%)" />
<circle cx="194.56" cy="170.81" r="6" fill="hsl(15, 80%, 65%)" />
<circle cx="359.09" cy="277.36" r="2" fill="hsl(20, 80%, 65%)" />
<circle cx="165.35" cy="310.00" r="3" fill="hsl(25, 80%, 65%)" />
<circle cx="286.43" cy="154.72" r="4" fill="hsl(30, 80%, 65%)" />
<circle cx="302.08" cy="351.45" r="5" fill="hsl(35, 80%, 65%)" />
<circle cx="157.33" cy="216.65" r="6" fill="hsl(40, 80%, 65%)" />
<circle cx="355.56" cy="218.27" r="2" fill="hsl(45, 80%, 65%)" />
<circle cx="207.97" cy="351.28" r="3" fill="hsl(50, 80%, 65%)" />
<circle cx="227.00" cy="153.07" r="4" fill="hsl(55, 80%, 65%)" />
<circle cx="347.12" cy="312.43" r="5" fill="hsl(60, 80%, 65%)" />
<circle cx="150.47" cy="275.98" r="6" fill="hsl(65, 80%, 65%)" />
<circle cx="320.46" cy="169.79" r="2" fill="hsl(70, 80%, 65%)" />
<circle cx="266.73" cy="363.34" r="3" fill="hsl(75, 80%, 65%)" />
<circle cx="175.41" cy="183.94" r="4" fill="hsl(80, 80%, 65%)" />
<circle cx="364.33" cy="254.69" r="5" fill="hsl(85, 80%, 65%)" />
<circle cx="176.83" cy="330.30" r="6" fill="hsl(90, 80%, 65%)" />
<circle cx="264.20" cy="147.50" r="2" fill="hsl(95, 80%, 65%)" />
<circle cx="323.38" cy="341.73" r="3" fill="hsl(100, 80%, 65%)" />
<circle cx="148.18" cy="238.27" r="4" fill="hsl(105, 80%, 65%)" />
<circle cx="347.67" cy="196.12" r="5" fill="hsl(110, 80%, 65%)" />
<circle cx="228.79" cy="362.30" r="6" fill="hsl(115, 80%, 65%)" />
<circle cx="204.15" cy="159.04" r="2" fill="hsl(120, 80%, 65%)" />
<circle cx="359.95" cy="292.55" r="3" fill="hsl(125, 80%, 65%)" />
<circle cx="154.45" cy="299.36" r="4" fill="hsl(130, 80%, 65%)" />
<circle cx="301.68" cy="155.23" r="5" fill="hsl(135, 80%, 65%)" />
<circle cx="290.45" cy="361.38" r="6" fill="hsl(140, 80%, 65%)" />
<circle cx="159.21" cy="201.46" r="2" fill="hsl(145, 80%, 65%)" />
<circle cx="364.43" cy="230.79" r="3" fill="hsl(150, 80%, 65%)" />
<circle cx="192.95" cy="348.02" r="4" fill="hsl(155, 80%, 65%)" />
<circle cx="240.30" cy="145.33" r="5" fill="hsl(160, 80%, 65%)" />
<circle cx="342.51" cy="327.14" r="6" fill="hsl(165, 80%, 65%)" />
<circle cx="143.93" cy="261.99" r="2" fill="hsl(170, 80%, 65%)" />
<circle cx="334.74" cy="175.73" r="3" fill="hsl(175, 80%, 65%)" />
<circle cx="252.15" cy="368.61" r="4" fill="hsl(180, 80%, 65%)" />
<circle cx="182.63" cy="170.20" r="5" fill="hsl(185, 80%, 65%)" />
<circle cx="368.28" cy="269.73" r="6" fill="hsl(190, 80%, 65%)" />
<circle cx="163.75" cy="321.85" r="2" fill="hsl(195, 80%, 65%)" />
<circle cx="279.59" cy="144.91" r="3" fill="hsl(200, 80%, 65%)" />
<circle cx="313.76" cy="354.04" r="4" fill="hsl(205, 80%, 65%)" />
<circle cx="146.98" cy="222.66" r="5" fill="hsl(210, 80%, 65%)" />
<circle cx="359.11" cy="206.84" r="6" fill="hsl(215, 80%, 65%)" />
<circle cx="213.09" cy="362.10" r="2" fill="hsl(220, 80%, 65%)" />
<circle cx="215.89" cy="148.58" r="3" fill="hsl(225, 80%, 65%)" />
<circle cx="358.33" cy="308.22" r="4" fill="hsl(230, 80%, 65%)" />
<circle cx="145.06" cy="286.68" r="5" fill="hsl(235, 80%, 65%)" />
<circle cx="317.20" cy="158.25" r="6" fill="hsl(240, 80%, 65%)" />
<circle cx="276.94" cy="369.63" r="2" fill="hsl(245, 80%, 65%)" />
<circle cx="163.63" cy="186.23" r="3" fill="hsl(250, 80%, 65%)" />
<circle cx="371.46" cy="245.03" r="4" fill="hsl(255, 80%, 65%)" />
<circle cx="178.13" cy="342.24" r="5" fill="hsl(260, 80%, 65%)" />
<circle cx="255.16" cy="139.59" r="6" fill="hsl(265, 80%, 65%)" />
<circle cx="335.40" cy="341.43" r="2" fill="hsl(270, 80%, 65%)" />
<circle cx="139.53" cy="246.62" r="3" fill="hsl(275, 80%, 65%)" />
<circle cx="348.38" cy="184.11" r="4" fill="hsl(280, 80%, 65%)" />
<circle cx="236.40" cy="371.62" r="5" fill="hsl(285, 80%, 65%)" />
<circle cx="192.23" cy="157.32" r="6" fill="hsl(290, 80%, 65%)" />
<circle cx="369.88" cy="285.74" r="2" fill="hsl(295, 80%, 65%)" />
<circle cx="151.75" cy="311.10" r="3" fill="hsl(300, 80%, 65%)" />
<circle cx="295.73" cy="144.75" r="4" fill="hsl(305, 80%, 65%)" />
<circle cx="301.94" cy="365.06" r="5" fill="hsl(310, 80%, 65%)" />
<circle cx="148.26" cy="206.52" r="6" fill="hsl(315, 80%, 65%)" />
<circle cx="369.07" cy="219.64" r="2" fill="hsl(320, 80%, 65%)" />
<circle cx="197.08" cy="359.37" r="3" fill="hsl(325, 80%, 65%)" />
<circle cx="229.57" cy="139.78" r="4" fill="hsl(330, 80%, 65%)" />
<circle cx="354.17" cy="323.97" r="5" fill="hsl(335, 80%, 65%)" />
<circle cx="137.49" cy="272.22" r="6" fill="hsl(340, 80%, 65%)" />
<circle cx="332.56" cy="163.82" r="2" fill="hsl(345, 80%, 65%)" />
<circle cx="261.82" cy="375.89" r="3" fill="hsl(350, 80%, 65%)" />
<circle cx="170.57" cy="171.38" r="4" fill="hsl(355, 80%, 65%)" />
<circle cx="376.36" cy="260.70" r="5" fill="hsl(0, 80%, 65%)" />
<circle cx="163.92" cy="333.97" r="6" fill="hsl(5, 80%, 65%)" />
<circle cx="271.26" cy="136.10" r="2" fill="hsl(10, 80%, 65%)" />
<circle cx="325.86" cy="354.89" r="3" fill="hsl(15, 80%, 65%)" />
<circle cx="137.48" cy="230.23" r="4" fill="hsl(20, 80%, 65%)" />
<circle cx="360.98" cy="194.84" r="5" fill="hsl(25, 80%, 65%)" />
<circle cx="219.84" cy="372.21" r="6" fill="hsl(30, 80%, 65%)" />
</svg>
