<svg xmlns="http://www.w3.org/2000/svg" width="512" height="512" viewBox="0 0 512 512">
<rect width="100%" height="100%" fill="#0b1020"/>
<circle cx="423" cy="60" r="41" fill="#f8f3c9" opacity="0.95" />
<circle cx="209.0" cy="163.0" r="1.5" fill="white" />
<circle cx="396.0" cy="154.0" r="2.9" fill="white" />
<circle cx="286.0" cy="75.0" r="2.4" fill="white" />
<circle cx="480.0" cy="65.0" r="3.0" fill="white" />
<circle cx="203.0" cy="78.0" r="2.9" fill="white" />
<circle cx="491.0" cy="154.0" r="2.9" fill="white" />
<circle cx="139.0" cy="147.0" r="2.7" fill="white" />
<circle cx="480.0" cy="27.0" r="2.2" fill="white" />
<circle cx="138.0" cy="160.0" r="2.5" fill="white" />
<circle cx="423.0" cy="106.0" r="2.1" fill="white" />
<circle cx="179.0" cy="67.0" r="2.0" fill="white" />
<circle cx="185.0" cy="111.0" r="1.7" fill="white" />
<circle cx="187.0" cy="68.0" r="2.6" fill="white" />
<circle cx="245.0" cy="63.0" r="1.7" fill="white" />
<path d="M 20 430 C 101 426, 167 453, 303 423 S 450 392, 512 422" stroke="#5dade2" stroke-width="6" fill="none" opacity="0.85" />
<line x1="0" y1="389" x2="512" y2="389" stroke="#445566" stroke-width="3" />
<polygon points="141,359 181,299 221,319 241,289 261,309 273,349 241,371 191,375" fill="#1e1e1e" />
<polygon points="216,299 229,277 239,301" fill="#1e1e1e" />
<line x1="271" y1="344" x2="301" y2="319" stroke="#1e1e1e" stroke-width="6" />
</svg>
