<svg xmlns="http://www.w3.org/2000/svg" width="512" height="512" viewBox="0 0 512 512">
<rect width="100%" height="100%" fill="black"/>
<polyline points="0.00,256.00 4.00,257.17 8.00,258.33 12.00,259.48 16.00,260.62 20.00,261.74 24.00,262.84 28.00,263.91 32.00,264.95 36.00,265.95 40.00,266.91 44.00,267.82 48.00,268.69 52.00,269.50 56.00,270.26 60.00,270.96 64.00,271.60 68.00,272.18 72.00,272.69 76.00,273.13 80.00,273.50 84.00,273.80 88.00,274.03 92.00,274.18 96.00,274.26 100.00,274.26 104.00,274.19 108.00,274.05 112.00,273.83 116.00,273.54 120.00,273.18 124.00,272.74 128.00,272.24 132.00,271.67 136.00,271.04 140.00,270.34 144.00,269.59 148.00,268.78 152.00,267.92 156.00,267.01 160.00,266.06 164.00,265.06 168.00,264.03 172.00,262.96 176.00,261.87 180.00,260.75 184.00,259.61 188.00,258.46 192.00,257.30 196.00,256.13 200.00,254.96 204.00,253.80 208.00,252.64 212.00,251.50 216.00,250.38 220.00,249.28 224.00,248.21 228.00,247.17 232.00,246.16 236.00,245.20 240.00,244.28 244.00,243.41 248.00,242.59 252.00,241.82 256.00,241.11 260.00,240.47 264.00,239.88 268.00,239.37 272.00,238.92 276.00,238.54 280.00,238.23 284.00,237.99 288.00,237.83 292.00,237.75 296.00,237.73 300.00,237.79 304.00,237.93 308.00,238.14 312.00,238.43 316.00,238.78 320.00,239.21 324.00,239.70 328.00,240.26 332.00,240.89 336.00,241.58 340.00,242.32 344.00,243.12 348.00,243.98 352.00,244.88 356.00,245.83 360.00,246.82 364.00,247.85 368.00,248.92 372.00,250.01 376.00,251.12 380.00,252.26 384.00,253.41 388.00,254.57 392.00,255.74 396.00,256.91 400.00,258.07 404.00,259.23 408.00,260.37 412.00,261.49 416.00,262.60 420.00,263.67 424.00,264.72 428.00,265.73 432.00,266.69 436.00,267.62 440.00,268.50 444.00,269.32 448.00,270.10 452.00,270.81 456.00,271.46 460.00,272.05 464.00,272.58 468.00,273.04 472.00,273.42 476.00,273.74 480.00,273.98 484.00,274.15 488.00,274.25 492.00,274.27 496.00,274.22 500.00,274.09 504.00,273.89 508.00,273.61 512.00,273.26" fill="none" stroke="#66ccff" stroke-width="2"/>
<polyline points="0.00,317.31 4.00,319.44 8.00,320.90 12.00,321.66 16.00,321.72 20.00,321.07 24.00,319.72 28.00,317.69 32.00,315.00 36.00,311.68 40.00,307.76 44.00,303.29 48.00,298.31 52.00,292.87 56.00,287.04 60.00,280.88 64.00,274.45 68.00,267.82 72.00,261.07 76.00,254.26 80.00,247.47 84.00,240.77 88.00,234.24 92.00,227.94 96.00,221.94 100.00,216.30 104.00,211.09 108.00,206.36 112.00,202.17 116.00,198.55 120.00,195.54 124.00,193.19 128.00,191.51 132.00,190.51 136.00,190.23 140.00,190.64 144.00,191.76 148.00,193.56 152.00,196.04 156.00,199.15 160.00,202.88 164.00,207.18 168.00,212.00 172.00,217.29 176.00,222.99 180.00,229.05 184.00,235.40 188.00,241.97 192.00,248.69 196.00,255.49 200.00,262.29 204.00,269.03 208.00,275.62 212.00,282.01 216.00,288.12 220.00,293.88 224.00,299.24 228.00,304.13 232.00,308.51 236.00,312.32 240.00,315.54 244.00,318.11 248.00,320.01 252.00,321.24 256.00,321.76 260.00,321.57 264.00,320.69 268.00,319.11 272.00,316.85 276.00,313.94 280.00,310.41 284.00,306.30 288.00,301.65 292.00,296.51 296.00,290.93 300.00,284.98 304.00,278.72 308.00,272.22 312.00,265.54 316.00,258.76 320.00,251.95 324.00,245.18 328.00,238.53 332.00,232.07 336.00,225.86 340.00,219.98 344.00,214.48 348.00,209.43 352.00,204.88 356.00,200.87 360.00,197.46 364.00,194.67 368.00,192.54 372.00,191.09 376.00,190.34 380.00,190.29 384.00,190.94 388.00,192.29 392.00,194.33 396.00,197.03 400.00,200.35 404.00,204.28 408.00,208.76 412.00,213.74 416.00,219.18 420.00,225.01 424.00,231.18 428.00,237.61 432.00,244.24 436.00,250.99 440.00,257.80 444.00,264.59 448.00,271.29 452.00,277.82 456.00,284.12 460.00,290.12 464.00,295.75 468.00,300.96 472.00,305.68 476.00,309.87 480.00,313.48 484.00,316.48 488.00,318.83 492.00,320.51 496.00,321.49 500.00,321.77 504.00,321.35 508.00,320.23 512.00,318.42" fill="none" stroke="#ff66cc" stroke-width="2"/>
<polyline points="0.00,324.81 4.00,312.09 8.00,297.98 12.00,282.81 16.00,266.96 20.00,250.85 24.00,234.86 28.00,219.40 32.00,204.86 36.00,191.60 40.00,179.96 44.00,170.22 48.00,162.62 52.00,157.37 56.00,154.59 60.00,154.34 64.00,156.65 68.00,161.44 72.00,168.60 76.00,177.95 80.00,189.26 84.00,202.23 88.00,216.56 92.00,231.87 96.00,247.79 100.00,263.91 104.00,279.83 108.00,295.16 112.00,309.51 116.00,322.51 120.00,333.85 124.00,343.24 128.00,350.45 132.00,355.29 136.00,357.64 140.00,357.44 144.00,354.71 148.00,349.50 152.00,341.95 156.00,332.24 160.00,320.63 164.00,307.40 168.00,292.88 172.00,277.43 176.00,261.45 180.00,245.34 184.00,229.49 188.00,214.30 192.00,200.16 196.00,187.42 200.00,176.39 204.00,167.36 208.00,160.55 212.00,156.13 216.00,154.21 220.00,154.85 224.00,158.01 228.00,163.63 232.00,171.57 236.00,181.62 240.00,193.53 244.00,207.01 248.00,221.71 252.00,237.28 256.00,253.31 260.00,269.41 264.00,285.17 268.00,300.21 272.00,314.13 276.00,326.60 280.00,337.30 284.00,345.97 288.00,352.38 292.00,356.38 296.00,357.86 300.00,356.79 304.00,353.20 308.00,347.17 312.00,338.85 316.00,328.47 320.00,316.26 324.00,302.55 328.00,287.67 332.00,272.00 336.00,255.93 340.00,239.86 344.00,224.19 348.00,209.32 352.00,195.62 356.00,183.43 360.00,173.06 364.00,164.77 368.00,158.76 372.00,155.19 376.00,154.14 380.00,155.65 384.00,159.67 388.00,166.10 392.00,174.78 396.00,185.50 400.00,197.99 404.00,211.92 408.00,226.97 412.00,242.74 416.00,258.84 420.00,274.87 424.00,290.42 428.00,305.12 432.00,318.58 436.00,330.48 440.00,340.51 444.00,348.43 448.00,354.03 452.00,357.17 456.00,357.78 460.00,355.84 464.00,351.40 468.00,344.57 472.00,335.52 476.00,324.48 480.00,311.72 484.00,297.57 488.00,282.37 492.00,266.52 496.00,250.40 500.00,234.42 504.00,218.99 508.00,204.48 512.00,191.26" fill="none" stroke="#ffee66" stroke-width="2"/>
<line x1="0" y1="256" x2="512" y2="256" stroke="#223344" stroke-width="1"/>
</svg>
