<svg xmlns="http://www.w3.org/2000/svg" width="512" height="512" viewBox="0 0 512 512">
<rect width="100%" height="100%" fill="#0b1020"/>
<circle cx="371" cy="120" r="43" fill="#f8f3c9" opacity="0.95" />
<circle cx="379.0" cy="177.0" r="3.3" fill="white" />
<circle cx="20.0" cy="152.0" r="1.9" fill="white" />
<circle cx="163.0" cy="125.0" r="2.0" fill="white" />
<circle cx="301.0" cy="51.0" r="2.1" fill="white" />
<circle cx="207.0" cy="107.0" r="1.5" fill="white" />
<circle cx="333.0" cy="171.0" r="3.4" fill="white" />
<circle cx="302.0" cy="72.0" r="2.9" fill="white" />
<path d="M 20 430 C 101 424, 161 454, 300 421 S 450 389, 512 419" stroke="#5dade2" stroke-width="7" fill="none" opacity="0.85" />
<line x1="0" y1="388" x2="512" y2="388" stroke="#445566" stroke-width="3" />
<polygon points="171,355 211,295 251,315 271,285 291,305 303,345 271,367 221,371" fill="#1e1e1e" />
<polygon points="246,295 259,273 269,297" fill="#1e1e1e" />
<line x1="301" y1="340" x2="331" y2="315" stroke="#1e1e1e" stroke-width="6" />
</svg>
