<svg xmlns="http://www.w3.org/2000/svg" width="512" height="512" viewBox="0 0 512 512">
<rect width="100%" height="100%" fill="black"/>
<circle cx="256.00" cy="256.00" r="2" fill="hsl(0, 80%, 65%)" />
<circle cx="250.93" cy="260.64" r="3" fill="hsl(6, 80%, 65%)" />
<circle cx="256.85" cy="246.32" r="4" fill="hsl(12, 80%, 65%)" />
<circle cx="263.24" cy="265.44" r="5" fill="hsl(18, 80%, 65%)" />
<circle cx="242.47" cy="253.61" r="6" fill="hsl(24, 80%, 65%)" />
<circle cx="268.96" cy="247.76" r="2" fill="hsl(30, 80%, 65%)" />
<circle cx="251.63" cy="272.25" r="3" fill="hsl(36, 80%, 65%)" />
<circle cx="247.62" cy="239.87" r="4" fill="hsl(42, 80%, 65%)" />
<circle cx="274.25" cy="262.67" r="5" fill="hsl(48, 80%, 65%)" />
<circle cx="236.95" cy="263.86" r="6" fill="hsl(54, 80%, 65%)" />
<circle cx="265.21" cy="236.32" r="2" fill="hsl(60, 80%, 65%)" />
<circle cx="262.82" cy="277.74" r="3" fill="hsl(66, 80%, 65%)" />
<circle cx="235.41" cy="244.07" r="4" fill="hsl(72, 80%, 65%)" />
<circle cx="280.19" cy="250.68" r="5" fill="hsl(78, 80%, 65%)" />
<circle cx="241.22" cy="277.03" r="6" fill="hsl(84, 80%, 65%)" />
<circle cx="252.58" cy="229.61" r="2" fill="hsl(90, 80%, 65%)" />
<circle cx="277.01" cy="273.71" r="3" fill="hsl(96, 80%, 65%)" />
<circle cx="227.70" cy="257.17" r="4" fill="hsl(102, 80%, 65%)" />
<circle cx="276.66" cy="235.44" r="5" fill="hsl(108, 80%, 65%)" />
<circle cx="254.62" cy="285.91" r="6" fill="hsl(114, 80%, 65%)" />
<circle cx="236.32" cy="232.41" r="2" fill="hsl(120, 80%, 65%)" />
<circle cx="287.20" cy="260.20" r="3" fill="hsl(126, 80%, 65%)" />
<circle cx="229.55" cy="274.40" r="4" fill="hsl(132, 80%, 65%)" />
<circle cx="263.23" cy="223.86" r="5" fill="hsl(138, 80%, 65%)" />
<circle cx="272.73" cy="285.20" r="6" fill="hsl(144, 80%, 65%)" />
<circle cx="223.28" cy="245.56" r="2" fill="hsl(150, 80%, 65%)" />
<circle cx="287.80" cy="241.31" r="3" fill="hsl(156, 80%, 65%)" />
<circle cx="242.22" cy="288.93" r="4" fill="hsl(162, 80%, 65%)" />
<circle cx="243.70" cy="221.79" r="5" fill="hsl(168, 80%, 65%)" />
<circle cx="288.75" cy="273.21" r="6" fill="hsl(174, 80%, 65%)" />
<circle cx="219.62" cy="265.59" r="2" fill="hsl(180, 80%, 65%)" />
<circle cx="276.69" cy="223.83" r="3" fill="hsl(186, 80%, 65%)" />
<circle cx="262.58" cy="294.30" r="4" fill="hsl(192, 80%, 65%)" />
<circle cx="224.80" cy="231.84" r="5" fill="hsl(198, 80%, 65%)" />
<circle cx="295.92" cy="252.69" r="6" fill="hsl(204, 80%, 65%)" />
<circle cx="228.40" cy="285.83" r="2" fill="hsl(210, 80%, 65%)" />
<circle cx="256.20" cy="214.78" r="3" fill="hsl(216, 80%, 65%)" />
<circle cx="284.08" cy="286.95" r="4" fill="hsl(222, 80%, 65%)" />
<circle cx="213.83" cy="252.09" r="5" fill="hsl(228, 80%, 65%)" />
<circle cx="290.17" cy="230.06" r="6" fill="hsl(234, 80%, 65%)" />
<circle cx="248.22" cy="298.75" r="2" fill="hsl(240, 80%, 65%)" />
<circle cx="232.57" cy="218.77" r="3" fill="hsl(246, 80%, 65%)" />
<circle cx="298.94" cy="267.77" r="4" fill="hsl(252, 80%, 65%)" />
<circle cx="215.92" cy="276.57" r="5" fill="hsl(258, 80%, 65%)" />
<circle cx="271.84" cy="213.27" r="6" fill="hsl(264, 80%, 65%)" />
<circle cx="273.38" cy="298.68" r="2" fill="hsl(270, 80%, 65%)" />
<circle cx="213.90" cy="236.05" r="3" fill="hsl(276, 80%, 65%)" />
<circle cx="301.01" cy="242.12" r="4" fill="hsl(282, 80%, 65%)" />
<circle cx="231.93" cy="297.06" r="5" fill="hsl(288, 80%, 65%)" />
<circle cx="245.90" cy="208.98" r="6" fill="hsl(294, 80%, 65%)" />
<circle cx="295.60" cy="284.13" r="2" fill="hsl(300, 80%, 65%)" />
<circle cx="207.32" cy="262.07" r="3" fill="hsl(306, 80%, 65%)" />
<circle cx="288.11" cy="218.28" r="4" fill="hsl(312, 80%, 65%)" />
<circle cx="257.82" cy="305.98" r="5" fill="hsl(318, 80%, 65%)" />
<circle cx="220.57" cy="220.04" r="6" fill="hsl(324, 80%, 65%)" />
<circle cx="306.88" cy="258.60" r="2" fill="hsl(330, 80%, 65%)" />
<circle cx="216.37" cy="288.75" r="3" fill="hsl(336, 80%, 65%)" />
<circle cx="263.17" cy="204.63" r="4" fill="hsl(342, 80%, 65%)" />
<circle cx="285.67" cy="299.09" r="5" fill="hsl(348, 80%, 65%)" />
<circle cx="204.58" cy="244.17" r="6" fill="hsl(354, 80%, 65%)" />
<circle cx="302.30" cy="229.77" r="2" fill="hsl(0, 80%, 65%)" />
<circle cx="239.44" cy="307.04" r="3" fill="hsl(6, 80%, 65%)" />
<circle cx="233.55" cy="206.78" r="4" fill="hsl(12, 80%, 65%)" />
<circle cx="306.20" cy="277.30" r="5" fill="hsl(18, 80%, 65%)" />
<circle cx="204.19" cy="274.35" r="6" fill="hsl(24, 80%, 65%)" />
<circle cx="282.01" cy="207.10" r="2" fill="hsl(30, 80%, 65%)" />
<circle cx="269.96" cy="310.04" r="3" fill="hsl(36, 80%, 65%)" />
<circle cx="208.85" cy="225.36" r="4" fill="hsl(42, 80%, 65%)" />
<circle cx="311.88" cy="246.68" r="5" fill="hsl(48, 80%, 65%)" />
<circle cx="220.84" cy="300.95" r="6" fill="hsl(54, 80%, 65%)" />
<circle cx="251.53" cy="198.70" r="2" fill="hsl(60, 80%, 65%)" />
<circle cx="298.30" cy="295.52" r="3" fill="hsl(66, 80%, 65%)" />
<circle cx="197.71" cy="255.43" r="4" fill="hsl(72, 80%, 65%)" />
<circle cx="299.67" cy="216.78" r="5" fill="hsl(78, 80%, 65%)" />
<circle cx="250.26" cy="314.82" r="6" fill="hsl(84, 80%, 65%)" />
<circle cx="220.26" cy="208.43" r="2" fill="hsl(90, 80%, 65%)" />
<circle cx="314.87" cy="267.01" r="3" fill="hsl(96, 80%, 65%)" />
<circle cx="204.82" cy="287.86" r="4" fill="hsl(102, 80%, 65%)" />
<circle cx="272.32" cy="197.56" r="5" fill="hsl(108, 80%, 65%)" />
<circle cx="283.61" cy="310.46" r="6" fill="hsl(114, 80%, 65%)" />
<circle cx="198.49" cy="234.36" r="2" fill="hsl(120, 80%, 65%)" />
<circle cx="313.38" cy="232.97" r="3" fill="hsl(126, 80%, 65%)" />
<circle cx="229.08" cy="312.08" r="4" fill="hsl(132, 80%, 65%)" />
<circle cx="237.85" cy="196.10" r="5" fill="hsl(138, 80%, 65%)" />
<circle cx="310.17" cy="288.10" r="6" fill="hsl(144, 80%, 65%)" />
<circle cx="194.01" cy="269.00" r="2" fill="hsl(150, 80%, 65%)" />
<circle cx="293.15" cy="204.24" r="3" fill="hsl(156, 80%, 65%)" />
<circle cx="263.61" cy="319.62" r="4" fill="hsl(162, 80%, 65%)" />
<circle cx="207.13" cy="213.99" r="5" fill="hsl(168, 80%, 65%)" />
<circle cx="320.78" cy="253.95" r="6" fill="hsl(174, 80%, 65%)" />
<circle cx="209.36" cy="301.52" r="2" fill="hsl(180, 80%, 65%)" />
<circle cx="259.67" cy="190.57" r="3" fill="hsl(186, 80%, 65%)" />
<circle cx="297.72" cy="307.00" r="4" fill="hsl(192, 80%, 65%)" />
<circle cx="190.43" cy="246.53" r="5" fill="hsl(198, 80%, 65%)" />
<circle cx="311.04" cy="218.49" r="6" fill="hsl(204, 80%, 65%)" />
<circle cx="240.67" cy="321.18" r="2" fill="hsl(210, 80%, 65%)" />
<circle cx="223.11" cy="197.27" r="3" fill="hsl(216, 80%, 65%)" />
<circle cx="320.26" cy="277.19" r="4" fill="hsl(222, 80%, 65%)" />
<circle cx="193.99" cy="283.92" r="5" fill="hsl(228, 80%, 65%)" />
<circle cx="283.00" cy="193.21" r="6" fill="hsl(234, 80%, 65%)" />
<circle cx="278.62" cy="320.87" r="2" fill="hsl(240, 80%, 65%)" />
<circle cx="195.20" cy="223.29" r="3" fill="hsl(246, 80%, 65%)" />
<circle cx="323.26" cy="238.97" r="4" fill="hsl(252, 80%, 65%)" />
<circle cx="217.72" cy="314.27" r="5" fill="hsl(258, 80%, 65%)" />
<circle cx="244.81" cy="186.84" r="6" fill="hsl(264, 80%, 65%)" />
<circle cx="311.23" cy="299.64" r="2" fill="hsl(270, 80%, 65%)" />
<circle cx="185.46" cy="261.15" r="3" fill="hsl(276, 80%, 65%)" />
<circle cx="304.76" cy="204.31" r="4" fill="hsl(282, 80%, 65%)" />
<circle cx="254.96" cy="327.39" r="5" fill="hsl(288, 80%, 65%)" />
<circle cx="208.33" cy="202.41" r="6" fill="hsl(294, 80%, 65%)" />
<circle cx="327.68" cy="263.35" r="2" fill="hsl(300, 80%, 65%)" />
<circle cx="197.92" cy="299.19" r="3" fill="hsl(306, 80%, 65%)" />
<circle cx="269.71" cy="184.60" r="4" fill="hsl(312, 80%, 65%)" />
<circle cx="294.29" cy="318.18" r="5" fill="hsl(318, 80%, 65%)" />
<circle cx="185.45" cy="235.92" r="6" fill="hsl(324, 80%, 65%)" />
<circle cx="321.87" cy="223.01" r="2" fill="hsl(330, 80%, 65%)" />
<circle cx="229.60" cy="325.12" r="3" fill="hsl(336, 80%, 65%)" />
<circle cx="228.66" cy="186.91" r="4" fill="hsl(342, 80%, 65%)" />
<circle cx="323.12" cy="288.62" r="5" fill="hsl(348, 80%, 65%)" />
<circle cx="184.17" cy="277.38" r="6" fill="hsl(354, 80%, 65%)" />
<circle cx="294.68" cy="191.45" r="2" fill="hsl(0, 80%, 65%)" />
<circle cx="271.14" cy="330.03" r="3" fill="hsl(6, 80%, 65%)" />
<circle cx="194.57" cy="211.46" r="4" fill="hsl(12, 80%, 65%)" />
<circle cx="331.69" cy="247.32" r="5" fill="hsl(18, 80%, 65%)" />
<circle cx="205.85" cy="313.77" r="6" fill="hsl(24, 80%, 65%)" />
<circle cx="253.95" cy="179.22" r="2" fill="hsl(30, 80%, 65%)" />
<circle cx="309.59" cy="311.45" r="3" fill="hsl(36, 80%, 65%)" />
<circle cx="178.72" cy="251.29" r="4" fill="hsl(42, 80%, 65%)" />
<circle cx="316.40" cy="207.08" r="5" fill="hsl(48, 80%, 65%)" />
<circle cx="244.46" cy="333.17" r="6" fill="hsl(54, 80%, 65%)" />
<circle cx="212.21" cy="191.06" r="2" fill="hsl(60, 80%, 65%)" />
<circle cx="332.45" cy="274.38" r="3" fill="hsl(66, 80%, 65%)" />
<circle cx="186.95" cy="294.24" r="4" fill="hsl(72, 80%, 65%)" />
<circle cx="281.18" cy="180.88" r="5" fill="hsl(78, 80%, 65%)" />
<circle cx="288.29" cy="328.67" r="6" fill="hsl(84, 80%, 65%)" />
<circle cx="182.83" cy="224.11" r="2" fill="hsl(90, 80%, 65%)" />
<circle cx="331.78" cy="229.99" r="3" fill="hsl(96, 80%, 65%)" />
<circle cx="217.55" cy="326.62" r="4" fill="hsl(102, 80%, 65%)" />
<circle cx="236.57" cy="177.67" r="5" fill="hsl(108, 80%, 65%)" />
<circle cx="323.48" cy="300.80" r="6" fill="hsl(114, 80%, 65%)" />
<circle cx="175.70" cy="268.59" r="2" fill="hsl(120, 80%, 65%)" />
<circle cx="306.89" cy="192.24" r="3" fill="hsl(126, 80%, 65%)" />
<circle cx="261.56" cy="337.67" r="4" fill="hsl(132, 80%, 65%)" />
<circle cx="196.52" cy="199.34" r="5" fill="hsl(138, 80%, 65%)" />
<circle cx="338.42" cy="257.61" r="6" fill="hsl(144, 80%, 65%)" />
<circle cx="193.92" cy="310.68" r="2" fill="hsl(150, 80%, 65%)" />
<circle cx="264.87" cy="173.47" r="3" fill="hsl(156, 80%, 65%)" />
<circle cx="305.38" cy="323.08" r="4" fill="hsl(162, 80%, 65%)" />
<circle cx="174.00" cy="239.84" r="5" fill="hsl(168, 80%, 65%)" />
<circle cx="327.62" cy="212.38" r="6" fill="hsl(174, 80%, 65%)" />
<circle cx="232.58" cy="336.81" r="2" fill="hsl(180, 80%, 65%)" />
<circle cx="218.56" cy="180.34" r="3" fill="hsl(186, 80%, 65%)" />
<circle cx="334.98" cy="286.60" r="4" fill="hsl(192, 80%, 65%)" />
<circle cx="176.84" cy="286.88" r="5" fill="hsl(198, 80%, 65%)" />
<circle cx="293.63" cy="179.50" r="6" fill="hsl(204, 80%, 65%)" />
<circle cx="280.00" cy="338.09" r="2" fill="hsl(210, 80%, 65%)" />
<circle cx="182.62" cy="211.54" r="3" fill="hsl(216, 80%, 65%)" />
<circle cx="340.42" cy="239.16" r="4" fill="hsl(222, 80%, 65%)" />
<circle cx="204.97" cy="325.66" r="5" fill="hsl(228, 80%, 65%)" />
<circle cx="246.55" cy="169.89" r="6" fill="hsl(234, 80%, 65%)" />
<circle cx="321.34" cy="313.29" r="2" fill="hsl(240, 80%, 65%)" />
<circle cx="168.85" cy="257.90" r="3" fill="hsl(246, 80%, 65%)" />
<circle cx="319.17" cy="195.54" r="4" fill="hsl(252, 80%, 65%)" />
<circle cx="250.24" cy="343.52" r="5" fill="hsl(258, 80%, 65%)" />
<circle cx="200.96" cy="187.37" r="6" fill="hsl(264, 80%, 65%)" />
<circle cx="343.21" cy="269.47" r="2" fill="hsl(270, 80%, 65%)" />
<circle cx="182.37" cy="305.12" r="3" fill="hsl(276, 80%, 65%)" />
<circle cx="277.17" cy="169.78" r="4" fill="hsl(282, 80%, 65%)" />
<circle cx="298.75" cy="334.11" r="5" fill="hsl(288, 80%, 65%)" />
<circle cx="171.46" cy="227.20" r="6" fill="hsl(294, 80%, 65%)" />
<circle cx="338.03" cy="220.03" r="2" fill="hsl(300, 80%, 65%)" />
<circle cx="219.71" cy="338.18" r="3" fill="hsl(306, 80%, 65%)" />
<circle cx="227.17" cy="170.64" r="4" fill="hsl(312, 80%, 65%)" />
<circle cx="335.15" cy="299.59" r="5" fill="hsl(318, 80%, 65%)" />
<circle cx="167.94" cy="277.38" r="6" fill="hsl(324, 80%, 65%)" />
<circle cx="306.63" cy="180.53" r="2" fill="hsl(330, 80%, 65%)" />
<circle cx="269.68" cy="346.11" r="3" fill="hsl(336, 80%, 65%)" />
<circle cx="184.85" cy="198.64" r="4" fill="hsl(342, 80%, 65%)" />
<circle cx="347.47" cy="250.22" r="5" fill="hsl(348, 80%, 65%)" />
<circle cx="192.28" cy="322.24" r="6" fill="hsl(354, 80%, 65%)" />
<circle cx="258.25" cy="163.86" r="2" fill="hsl(0, 80%, 65%)" />
<circle cx="316.75" cy="325.65" r="3" fill="hsl(6, 80%, 65%)" />
<circle cx="163.90" cy="245.65" r="4" fill="hsl(12, 80%, 65%)" />
<circle cx="331.11" cy="201.27" r="5" fill="hsl(18, 80%, 65%)" />
<circle cx="237.54" cy="347.34" r="6" fill="hsl(24, 80%, 65%)" />
<circle cx="207.79" cy="175.96" r="2" fill="hsl(30, 80%, 65%)" />
<circle cx="345.86" cy="282.52" r="3" fill="hsl(36, 80%, 65%)" />
<circle cx="171.60" cy="297.25" r="4" fill="hsl(42, 80%, 65%)" />
<circle cx="290.46" cy="168.34" r="5" fill="hsl(48, 80%, 65%)" />
<circle cx="289.90" cy="344.15" r="6" fill="hsl(54, 80%, 65%)" />
<circle cx="171.24" cy="213.78" r="2" fill="hsl(60, 80%, 65%)" />
<circle cx="347.26" cy="229.80" r="3" fill="hsl(66, 80%, 65%)" />
<circle cx="206.28" cy="337.17" r="4" fill="hsl(72, 80%, 65%)" />
<circle cx="237.79" cy="162.32" r="5" fill="hsl(78, 80%, 65%)" />
<circle cx="332.91" cy="312.92" r="6" fill="hsl(84, 80%, 65%)" />
<circle cx="160.59" cy="266.00" r="2" fill="hsl(90, 80%, 65%)" />
<circle cx="319.76" cy="183.99" r="3" fill="hsl(96, 80%, 65%)" />
<circle cx="257.63" cy="352.41" r="4" fill="hsl(102, 80%, 65%)" />
<circle cx="189.50" cy="185.84" r="5" fill="hsl(108, 80%, 65%)" />
<circle cx="352.67" cy="262.84" r="6" fill="hsl(114, 80%, 65%)" />
<circle cx="179.91" cy="316.41" r="2" fill="hsl(120, 80%, 65%)" />
<circle cx="271.34" cy="159.82" r="3" fill="hsl(126, 80%, 65%)" />
<circle cx="309.79" cy="337.48" r="4" fill="hsl(132, 80%, 65%)" />
<circle cx="161.06" cy="232.19" r="5" fill="hsl(138, 80%, 65%)" />
<circle cx="342.30" cy="209.31" r="6" fill="hsl(144, 80%, 65%)" />
<circle cx="223.83" cy="348.95" r="2" fill="hsl(150, 80%, 65%)" />
<circle cx="216.84" cy="165.51" r="3" fill="hsl(156, 80%, 65%)" />
<circle cx="346.22" cy="296.37" r="4" fill="hsl(162, 80%, 65%)" />
<circle cx="161.98" cy="287.25" r="5" fill="hsl(168, 80%, 65%)" />
<circle cx="304.34" cy="169.24" r="6" fill="hsl(174, 80%, 65%)" />
<circle cx="279.02" cy="352.85" r="2" fill="hsl(180, 80%, 65%)" />
<circle cx="173.41" cy="200.00" r="3" fill="hsl(186, 80%, 65%)" />
<circle cx="354.96" cy="241.47" r="4" fill="hsl(192, 80%, 65%)" />
<circle cx="192.69" cy="333.75" r="5" fill="hsl(198, 80%, 65%)" />
<circle cx="250.15" cy="155.67" r="6" fill="hsl(204, 80%, 65%)" />
<circle cx="328.25" cy="326.19" r="2" fill="hsl(210, 80%, 65%)" />
<circle cx="155.08" cy="253.05" r="3" fill="hsl(216, 80%, 65%)" />
<circle cx="332.59" cy="189.85" r="4" fill="hsl(222, 80%, 65%)" />
<circle cx="244.18" cy="356.74" r="5" fill="hsl(228, 80%, 65%)" />
<circle cx="196.53" cy="173.54" r="6" fill="hsl(234, 80%, 65%)" />
<circle cx="355.78" cy="276.68" r="2" fill="hsl(240, 80%, 65%)" />
<circle cx="168.26" cy="308.27" r="3" fill="hsl(246, 80%, 65%)" />
<circle cx="285.45" cy="157.97" r="4" fill="hsl(252, 80%, 65%)" />
<circle cx="300.60" cy="348.39" r="5" fill="hsl(258, 80%, 65%)" />
<circle cx="160.49" cy="217.92" r="6" fill="hsl(264, 80%, 65%)" />
<circle cx="352.36" cy="219.49" r="2" fill="hsl(270, 80%, 65%)" />
<circle cx="209.51" cy="348.22" r="3" fill="hsl(276, 80%, 65%)" />
<circle cx="227.93" cy="156.38" r="4" fill="hsl(282, 80%, 65%)" />
<circle cx="344.19" cy="310.62" r="5" fill="hsl(288, 80%, 65%)" />
<circle cx="153.86" cy="275.34" r="6" fill="hsl(294, 80%, 65%)" />
<circle cx="318.39" cy="172.56" r="2" fill="hsl(300, 80%, 65%)" />
<circle cx="266.38" cy="359.89" r="3" fill="hsl(306, 80%, 65%)" />
<circle cx="178.00" cy="186.25" r="4" fill="hsl(312, 80%, 65%)" />
<circle cx="360.86" cy="254.74" r="5" fill="hsl(318, 80%, 65%)" />
<circle cx="179.37" cy="327.92" r="6" fill="hsl(324, 80%, 65%)" />
<circle cx="263.94" cy="150.99" r="2" fill="hsl(330, 80%, 65%)" />
<circle cx="321.22" cy="338.97" r="3" fill="hsl(336, 80%, 65%)" />
<circle cx="151.64" cy="238.84" r="4" fill="hsl(342, 80%, 65%)" />
<circle cx="344.73" cy="198.04" r="5" fill="hsl(348, 80%, 65%)" />
<circle cx="229.67" cy="358.89" r="6" fill="hsl(354, 80%, 65%)" />
<circle cx="205.81" cy="162.15" r="2" fill="hsl(0, 80%, 65%)" />
<circle cx="356.61" cy="291.37" r="3" fill="hsl(6, 80%, 65%)" />
<circle cx="157.72" cy="297.96" r="4" fill="hsl(12, 80%, 65%)" />
<circle cx="300.22" cy="158.46" r="5" fill="hsl(18, 80%, 65%)" />
<circle cx="289.35" cy="358.00" r="6" fill="hsl(24, 80%, 65%)" />
<circle cx="162.32" cy="203.21" r="2" fill="hsl(30, 80%, 65%)" />
<circle cx="360.95" cy="231.60" r="3" fill="hsl(36, 80%, 65%)" />
<circle cx="194.97" cy="345.07" r="4" fill="hsl(42, 80%, 65%)" />
<circle cx="240.80" cy="148.89" r="5" fill="hsl(48, 80%, 65%)" />
<circle cx="339.73" cy="324.86" r="6" fill="hsl(54, 80%, 65%)" />
<circle cx="147.53" cy="261.80" r="2" fill="hsl(60, 80%, 65%)" />
<circle cx="332.22" cy="178.30" r="3" fill="hsl(66, 80%, 65%)" />
<circle cx="252.28" cy="364.99" r="4" fill="hsl(72, 80%, 65%)" />
<circle cx="184.98" cy="172.95" r="5" fill="hsl(78, 80%, 65%)" />
<circle cx="364.68" cy="269.29" r="6" fill="hsl(84, 80%, 65%)" />
<circle cx="166.71" cy="319.74" r="2" fill="hsl(90, 80%, 65%)" />
<circle cx="278.83" cy="148.48" r="3" fill="hsl(96, 80%, 65%)" />
<circle cx="311.90" cy="350.89" r="4" fill="hsl(102, 80%, 65%)" />
<circle cx="150.48" cy="223.73" r="5" fill="hsl(108, 80%, 65%)" />
<circle cx="355.80" cy="208.42" r="6" fill="hsl(114, 80%, 65%)" />
<circle cx="214.47" cy="358.69" r="2" fill="hsl(120, 80%, 65%)" />
<circle cx="217.18" cy="152.03" r="3" fill="hsl(126, 80%, 65%)" />
<circle cx="355.05" cy="306.54" r="4" fill="hsl(132, 80%, 65%)" />
<circle cx="148.62" cy="285.69" r="5" fill="hsl(138, 80%, 65%)" />
<circle cx="315.23" cy="161.39" r="6" fill="hsl(144, 80%, 65%)" />
<circle cx="276.27" cy="365.98" r="2" fill="hsl(150, 80%, 65%)" />
<circle cx="166.60" cy="188.47" r="3" fill="hsl(156, 80%, 65%)" />
<circle cx="367.75" cy="245.38" r="4" fill="hsl(162, 80%, 65%)" />
<circle cx="180.63" cy="339.47" r="5" fill="hsl(168, 80%, 65%)" />
<circle cx="255.19" cy="143.33" r="6" fill="hsl(174, 80%, 65%)" />
<circle cx="332.85" cy="338.69" r="2" fill="hsl(180, 80%, 65%)" />
<circle cx="143.27" cy="246.92" r="3" fill="hsl(186, 80%, 65%)" />
<circle cx="345.42" cy="186.42" r="4" fill="hsl(192, 80%, 65%)" />
<circle cx="237.03" cy="367.91" r="5" fill="hsl(198, 80%, 65%)" />
<circle cx="194.28" cy="160.49" r="6" fill="hsl(204, 80%, 65%)" />
<circle cx="366.23" cy="284.78" r="2" fill="hsl(210, 80%, 65%)" />
<circle cx="155.10" cy="309.33" r="3" fill="hsl(216, 80%, 65%)" />
<circle cx="294.45" cy="148.32" r="4" fill="hsl(222, 80%, 65%)" />
<circle cx="300.46" cy="361.56" r="5" fill="hsl(228, 80%, 65%)" />
<circle cx="151.72" cy="208.11" r="6" fill="hsl(234, 80%, 65%)" />
<circle cx="365.43" cy="220.81" r="2" fill="hsl(240, 80%, 65%)" />
<circle cx="198.98" cy="356.05" r="3" fill="hsl(246, 80%, 65%)" />
<circle cx="230.42" cy="143.51" r="4" fill="hsl(252, 80%, 65%)" />
<circle cx="351.02" cy="321.79" r="5" fill="hsl(258, 80%, 65%)" />
</svg>
