<svg xmlns="http://www.w3.org/2000/svg" width="512" height="512" viewBox="0 0 512 512">
<rect width="100%" height="100%" fill="#0b1020"/>
<circle cx="405" cy="138" r="53" fill="#f8f3c9" opacity="0.95" />
<circle cx="182.0" cy="94.0" r="1.6" fill="white" />
<circle cx="404.0" cy="157.0" r="2.8" fill="white" />
<circle cx="302.0" cy="179.0" r="1.6" fill="white" />
<circle cx="339.0" cy="153.0" r="1.9" fill="white" />
<circle cx="153.0" cy="23.0" r="1.6" fill="white" />
<circle cx="480.0" cy="37.0" r="1.6" fill="white" />
<circle cx="180.0" cy="116.0" r="1.7" fill="white" />
<circle cx="324.0" cy="78.0" r="2.6" fill="white" />
<circle cx="412.0" cy="76.0" r="3.5" fill="white" />
<circle cx="349.0" cy="36.0" r="2.9" fill="white" />
<circle cx="242.0" cy="148.0" r="1.5" fill="white" />
<circle cx="403.0" cy="64.0" r="2.3" fill="white" />
<circle cx="164.0" cy="90.0" r="2.6" fill="white" />
<circle cx="339.0" cy="51.0" r="1.8" fill="white" />
<path d="M 20 430 C 108 430, 195 447, 309 440 S 450 375, 512 405" stroke="#5dade2" stroke-width="7" fill="none" opacity="0.85" />
<line x1="0" y1="403" x2="512" y2="403" stroke="#445566" stroke-width="3" />
<polygon points="197,350 237,290 277,310 297,280 317,300 329,340 297,362 247,366" fill="#1e1e1e" />
<polygon points="272,290 285,268 295,292" fill="#1e1e1e" />
<line x1="327" y1="335" x2="357" y2="310" stroke="#1e1e1e" stroke-width="6" />
</svg>
