<svg xmlns="http://www.w3.org/2000/svg" width="512" height="512" viewBox="0 0 512 512">
<rect width="100%" height="100%" fill="#0b1020"/>
<circle cx="416" cy="64" r="51" fill="#f8f3c9" opacity="0.95" />
<circle cx="300.0" cy="24.0" r="2.9" fill="white" />
<circle cx="57.0" cy="22.0" r="2.4" fill="white" />
<circle cx="183.0" cy="127.0" r="2.1" fill="white" />
<circle cx="306.0" cy="111.0" r="2.3" fill="white" />
<circle cx="321.0" cy="180.0" r="1.6" fill="white" />
<circle cx="243.0" cy="69.0" r="2.8" fill="white" />
<circle cx="486.0" cy="119.0" r="1.8" fill="white" />
<circle cx="365.0" cy="98.0" r="2.3" fill="white" />
<circle cx="351.0" cy="136.0" r="1.6" fill="white" />
<circle cx="99.0" cy="174.0" r="3.5" fill="white" />
<path d="M 20 430 C 126 427, 163 445, 280 433 S 450 386, 512 416" stroke="#5dade2" stroke-width="8" fill="none" opacity="0.85" />
<line x1="0" y1="402" x2="512" y2="402" stroke="#445566" stroke-width="3" />
<polygon points="160,354 200,294 240,314 260,284 280,304 292,344 260,366 210,370" fill="#1e1e1e" />
<polygon points="235,294 248,272 258,296" fill="#1e1e1e" />
<line x1="290" y1="339" x2="320" y2="314" stroke="#1e1e1e" stroke-width="6" />
</svg>
