<svg xmlns="http://www.w3.org/2000/svg" width="512" height="512" viewBox="0 0 512 512">
<rect width="100%" height="100%" fill="#0b1020"/>
<circle cx="399" cy="66" r="49" fill="#f8f3c9" opacity="0.95" />
<circle cx="200.0" cy="139.0" r="3.0" fill="white" />
<circle cx="375.0" cy="84.0" r="2.3" fill="white" />
<circle cx="325.0" cy="87.0" r="2.3" fill="white" />
<circle cx="455.0" cy="77.0" r="3.2" fill="white" />
<circle cx="236.0" cy="137.0" r="2.4" fill="white" />
<circle cx="176.0" cy="40.0" r="1.8" fill="white" />
<circle cx="489.0" cy="62.0" r="2.5" fill="white" />
<circle cx="353.0" cy="97.0" r="3.2" fill="white" />
<circle cx="21.0" cy="91.0" r="3.5" fill="white" />
<circle cx="115.0" cy="105.0" r="2.5" fill="white" />
<circle cx="283.0" cy="142.0" r="2.8" fill="white" />
<circle cx="154.0" cy="33.0" r="2.3" fill="white" />
<circle cx="188.0" cy="129.0" r="3.1" fill="white" />
<circle cx="432.0" cy="48.0" r="1.6" fill="white" />
<circle cx="37.0" cy="110.0" r="1.6" fill="white" />
<path d="M 20 430 C 114 422, 183 452, 317 437 S 450 385, 512 415" stroke="#5dade2" stroke-width="7" fill="none" opacity="0.85" />
<line x1="0" y1="391" x2="512" y2="391" stroke="#445566" stroke-width="4" />
<polygon points="160,351 200,291 240,311 260,281 280,301 292,341 260,363 210,367" fill="#1e1e1e" />
<polygon points="235,291 248,269 258,293" fill="#1e1e1e" />
<line x1="290" y1="336" x2="320" y2="311" stroke="#1e1e1e" stroke-width="6" />
</svg>
