<svg xmlns="http://www.w3.org/2000/svg" width="512" height="512" viewBox="0 0 512 512">
<rect width="100%" height="100%" fill="#0b1020"/>
<circle cx="371" cy="134" r="55" fill="#f8f3c9" opacity="0.95" />
<circle cx="419.0" cy="172.0" r="2.8" fill="white" />
<circle cx="33.0" cy="80.0" r="1.8" fill="white" />
<circle cx="431.0" cy="159.0" r="3.0" fill="white" />
<circle cx="318.0" cy="98.0" r="2.2" fill="white" />
<circle cx="253.0" cy="74.0" r="2.9" fill="white" />
<circle cx="29.0" cy="68.0" r="3.4" fill="white" />
<circle cx="385.0" cy="136.0" r="2.1" fill="white" />
<circle cx="395.0" cy="163.0" r="2.6" fill="white" />
<circle cx="182.0" cy="160.0" r="2.0" fill="white" />
<path d="M 20 430 C 134 413, 191 450, 283 440 S 450 405, 512 435" stroke="#5dade2" stroke-width="7" fill="none" opacity="0.85" />
<line x1="0" y1="395" x2="512" y2="395" stroke="#445566" stroke-width="2" />
<polygon points="158,350 198,290 238,310 258,280 278,300 290,340 258,362 208,366" fill="#1e1e1e" />
<polygon points="233,290 246,268 256,292" fill="#1e1e1e" />
<line x1="288" y1="335" x2="318" y2="310" stroke="#1e1e1e" stroke-width="6" />
</svg>
