<svg xmlns="http://www.w3.org/2000/svg" width="512" height="512" viewBox="0 0 512 512">
<rect width="100%" height="100%" fill="#0b1020"/>
<circle cx="367" cy="90" r="48" fill="#f8f3c9" opacity="0.95" />
<circle cx="59.0" cy="62.0" r="2.4" fill="white" />
<circle cx="165.0" cy="60.0" r="1.9" fill="white" />
<circle cx="444.0" cy="37.0" r="2.0" fill="white" />
<circle cx="107.0" cy="151.0" r="2.4" fill="white" />
<circle cx="330.0" cy="100.0" r="1.7" fill="white" />
<circle cx="215.0" cy="139.0" r="3.3" fill="white" />
<circle cx="166.0" cy="119.0" r="1.9" fill="white" />
<circle cx="397.0" cy="154.0" r="2.3" fill="white" />
<circle cx="457.0" cy="169.0" r="1.6" fill="white" />
<circle cx="127.0" cy="172.0" r="1.8" fill="white" />
<circle cx="163.0" cy="178.0" r="3.2" fill="white" />
<circle cx="23.0" cy="173.0" r="2.2" fill="white" />
<circle cx="71.0" cy="25.0" r="2.0" fill="white" />
<path d="M 20 430 C 129 428, 165 451, 282 429 S 450 393, 512 423" stroke="#5dade2" stroke-width="5" fill="none" opacity="0.85" />
<line x1="0" y1="394" x2="512" y2="394" stroke="#445566" stroke-width="4" />
<polygon points="179,363 219,303 259,323 279,293 299,313 311,353 279,375 229,379" fill="#1e1e1e" />
<polygon points="254,303 267,281 277,305" fill="#1e1e1e" />
<line x1="309" y1="348" x2="339" y2="323" stroke="#1e1e1e" stroke-width="6" />
</svg>
