<svg xmlns="http://www.w3.org/2000/svg" width="512" height="512" viewBox="0 0 512 512">
<rect width="100%" height="100%" fill="#0b1020"/>
<circle cx="398" cy="77" r="46" fill="#f8f3c9" opacity="0.95" />
<circle cx="73.0" cy="150.0" r="2.0" fill="white" />
<circle cx="93.0" cy="67.0" r="3.0" fill="white" />
<circle cx="322.0" cy="122.0" r="3.4" fill="white" />
<circle cx="434.0" cy="163.0" r="1.9" fill="white" />
<circle cx="283.0" cy="60.0" r="2.2" fill="white" />
<circle cx="27.0" cy="82.0" r="2.0" fill="white" />
<circle cx="96.0" cy="178.0" r="2.0" fill="white" />
<circle cx="479.0" cy="32.0" r="1.8" fill="white" />
<circle cx="369.0" cy="172.0" r="3.1" fill="white" />
<path d="M 20 430 C 140 424, 192 444, 297 420 S 450 394, 512 424" stroke="#5dade2" stroke-width="8" fill="none" opacity="0.85" />
<line x1="0" y1="410" x2="512" y2="410" stroke="#445566" stroke-width="4" />
<polygon points="171,352 211,292 251,312 271,282 291,302 303,342 271,364 221,368" fill="#1e1e1e" />
<polygon points="246,292 259,270 269,294" fill="#1e1e1e" />
<line x1="301" y1="337" x2="331" y2="312" stroke="#1e1e1e" stroke-width="6" />
</svg>
