<svg xmlns="http://www.w3.org/2000/svg" width="512" height="512" viewBox="0 0 512 512">
<rect width="100%" height="100%" fill="#0b1020"/>
<circle cx="394" cy="73" r="50" fill="#f8f3c9" opacity="0.95" />
<circle cx="154.0" cy="95.0" r="2.6" fill="white" />
<circle cx="258.0" cy="179.0" r="3.4" fill="white" />
<circle cx="351.0" cy="176.0" r="1.8" fill="white" />
<circle cx="246.0" cy="83.0" r="1.6" fill="white" />
<circle cx="23.0" cy="117.0" r="2.7" fill="white" />
<circle cx="96.0" cy="75.0" r="2.6" fill="white" />
<circle cx="306.0" cy="110.0" r="2.1" fill="white" />
<circle cx="262.0" cy="112.0" r="3.1" fill="white" />
<circle cx="302.0" cy="102.0" r="2.8" fill="white" />
<circle cx="422.0" cy="60.0" r="2.9" fill="white" />
<circle cx="74.0" cy="114.0" r="2.4" fill="white" />
<circle cx="386.0" cy="122.0" r="2.5" fill="white" />
<circle cx="171.0" cy="103.0" r="2.5" fill="white" />
<path d="M 20 430 C 124 421, 185 457, 314 424 S 450 388, 512 418" stroke="#5dade2" stroke-width="7" fill="none" opacity="0.85" />
<line x1="0" y1="397" x2="512" y2="397" stroke="#445566" stroke-width="2" />
<polygon points="178,356 218,296 258,316 278,286 298,306 310,346 278,368 228,372" fill="#1e1e1e" />
<polygon points="253,296 266,274 276,298" fill="#1e1e1e" />
<line x1="308" y1="341" x2="338" y2="316" stroke="#1e1e1e" stroke-width="6" />
</svg>
