<svg xmlns="http://www.w3.org/2000/svg" width="512" height="512" viewBox="0 0 512 512">
<rect width="100%" height="100%" fill="#0b1020"/>
<circle cx="408" cy="125" r="51" fill="#f8f3c9" opacity="0.95" />
<circle cx="185.0" cy="72.0" r="2.5" fill="white" />
<circle cx="136.0" cy="90.0" r="2.7" fill="white" />
<circle cx="463.0" cy="51.0" r="1.9" fill="white" />
<circle cx="490.0" cy="154.0" r="2.4" fill="white" />
<circle cx="281.0" cy="143.0" r="2.5" fill="white" />
<circle cx="344.0" cy="79.0" r="2.5" fill="white" />
<circle cx="459.0" cy="114.0" r="1.7" fill="white" />
<circle cx="285.0" cy="49.0" r="1.5" fill="white" />
<circle cx="220.0" cy="119.0" r="2.5" fill="white" />
<path d="M 20 430 C 128 428, 177 450, 311 430 S 450 400, 512 430" stroke="#5dade2" stroke-width="7" fill="none" opacity="0.85" />
<line x1="0" y1="415" x2="512" y2="415" stroke="#445566" stroke-width="3" />
<polygon points="206,363 246,303 286,323 306,293 326,313 338,353 306,375 256,379" fill="#1e1e1e" />
<polygon points="281,303 294,281 304,305" fill="#1e1e1e" />
<line x1="336" y1="348" x2="366" y2="323" stroke="#1e1e1e" stroke-width="6" />
</svg>
