<svg xmlns="http://www.w3.org/2000/svg" width="512" height="512" viewBox="0 0 512 512">
<rect width="100%" height="100%" fill="#0b1020"/>
<circle cx="407" cy="118" r="52" fill="#f8f3c9" opacity="0.95" />
<circle cx="71.0" cy="142.0" r="2.0" fill="white" />
<circle cx="469.0" cy="52.0" r="2.1" fill="white" />
<circle cx="333.0" cy="59.0" r="2.5" fill="white" />
<circle cx="152.0" cy="104.0" r="2.8" fill="white" />
<circle cx="179.0" cy="40.0" r="2.2" fill="white" />
<circle cx="124.0" cy="160.0" r="2.4" fill="white" />
<circle cx="345.0" cy="83.0" r="2.2" fill="white" />
<path d="M 20 430 C 105 415, 184 457, 313 424 S 450 387, 512 417" stroke="#5dade2" stroke-width="7" fill="none" opacity="0.85" />
<line x1="0" y1="408" x2="512" y2="408" stroke="#445566" stroke-width="3" />
<polygon points="170,356 210,296 250,316 270,286 290,306 302,346 270,368 220,372" fill="#1e1e1e" />
<polygon points="245,296 258,274 268,298" fill="#1e1e1e" />
<line x1="300" y1="341" x2="330" y2="316" stroke="#1e1e1e" stroke-width="6" />
</svg>
