<svg xmlns="http://www.w3.org/2000/svg" width="512" height="512" viewBox="0 0 512 512">
<rect width="100%" height="100%" fill="#0b1020"/>
<circle cx="457" cy="113" r="50" fill="#f8f3c9" opacity="0.95" />
<circle cx="470.0" cy="168.0" r="2.4" fill="white" />
<circle cx="344.0" cy="76.0" r="1.6" fill="white" />
<circle cx="177.0" cy="136.0" r="2.9" fill="white" />
<circle cx="26.0" cy="132.0" r="2.6" fill="white" />
<circle cx="347.0" cy="102.0" r="3.4" fill="white" />
<circle cx="410.0" cy="34.0" r="2.5" fill="white" />
<circle cx="287.0" cy="109.0" r="2.6" fill="white" />
<circle cx="88.0" cy="61.0" r="1.6" fill="white" />
<circle cx="369.0" cy="128.0" r="2.9" fill="white" />
<circle cx="103.0" cy="120.0" r="2.8" fill="white" />
<circle cx="147.0" cy="173.0" r="3.4" fill="white" />
<circle cx="472.0" cy="36.0" r="2.0" fill="white" />
<circle cx="254.0" cy="149.0" r="2.7" fill="white" />
<path d="M 20 430 C 100 414, 183 458, 310 421 S 450 387, 512 417" stroke="#5dade2" stroke-width="7" fill="none" opacity="0.85" />
<line x1="0" y1="402" x2="512" y2="402" stroke="#445566" stroke-width="3" />
<polygon points="219,364 259,304 299,324 319,294 339,314 351,354 319,376 269,380" fill="#1e1e1e" />
<polygon points="294,304 307,282 317,306" fill="#1e1e1e" />
<line x1="349" y1="349" x2="379" y2="324" stroke="#1e1e1e" stroke-width="6" />
</svg>
