<svg xmlns="http://www.w3.org/2000/svg" width="512" height="512" viewBox="0 0 512 512">
<rect width="100%" height="100%" fill="#0b1020"/>
<circle cx="408" cy="89" r="46" fill="#f8f3c9" opacity="0.95" />
<circle cx="58.0" cy="129.0" r="3.3" fill="white" />
<circle cx="353.0" cy="95.0" r="3.1" fill="white" />
<circle cx="423.0" cy="31.0" r="2.8" fill="white" />
<circle cx="74.0" cy="151.0" r="3.2" fill="white" />
<circle cx="185.0" cy="46.0" r="2.8" fill="white" />
<circle cx="227.0" cy="155.0" r="2.0" fill="white" />
<circle cx="268.0" cy="52.0" r="1.7" fill="white" />
<circle cx="224.0" cy="179.0" r="3.1" fill="white" />
<path d="M 20 430 C 100 414, 165 442, 320 427 S 450 382, 512 412" stroke="#5dade2" stroke-width="8" fill="none" opacity="0.85" />
<line x1="0" y1="402" x2="512" y2="402" stroke="#445566" stroke-width="2" />
<polygon points="158,361 198,301 238,321 258,291 278,311 290,351 258,373 208,377" fill="#1e1e1e" />
<polygon points="233,301 246,279 256,303" fill="#1e1e1e" />
<line x1="288" y1="346" x2="318" y2="321" stroke="#1e1e1e" stroke-width="6" />
</svg>
