<svg xmlns="http://www.w3.org/2000/svg" width="512" height="512" viewBox="0 0 512 512">
<rect width="100%" height="100%" fill="black"/>
<circle cx="70" cy="136" r="8" fill="hsl(0, 80%, 65%)" />
<circle cx="160" cy="86" r="7" fill="hsl(9, 80%, 65%)" />
<circle cx="208" cy="367" r="7" fill="hsl(18, 80%, 65%)" />
<circle cx="230" cy="143" r="8" fill="hsl(27, 80%, 65%)" />
<circle cx="435" cy="370" r="4" fill="hsl(36, 80%, 65%)" />
<circle cx="349" cy="227" r="4" fill="hsl(45, 80%, 65%)" />
<circle cx="252" cy="364" r="7" fill="hsl(54, 80%, 65%)" />
<circle cx="153" cy="247" r="2" fill="hsl(63, 80%, 65%)" />
<circle cx="166" cy="372" r="6" fill="hsl(72, 80%, 65%)" />
<circle cx="385" cy="382" r="4" fill="hsl(81, 80%, 65%)" />
<circle cx="407" cy="125" r="4" fill="hsl(90, 80%, 65%)" />
<circle cx="376" cy="303" r="8" fill="hsl(99, 80%, 65%)" />
<circle cx="394" cy="308" r="5" fill="hsl(108, 80%, 65%)" />
<circle cx="296" cy="213" r="5" fill="hsl(117, 80%, 65%)" />
<circle cx="275" cy="261" r="3" fill="hsl(126, 80%, 65%)" />
<circle cx="134" cy="173" r="4" fill="hsl(135, 80%, 65%)" />
<circle cx="89" cy="398" r="8" fill="hsl(144, 80%, 65%)" />
<circle cx="221" cy="428" r="6" fill="hsl(153, 80%, 65%)" />
<circle cx="236" cy="297" r="2" fill="hsl(162, 80%, 65%)" />
<circle cx="172" cy="354" r="7" fill="hsl(171, 80%, 65%)" />
<circle cx="152" cy="431" r="3" fill="hsl(180, 80%, 65%)" />
<circle cx="345" cy="113" r="4" fill="hsl(189, 80%, 65%)" />
<circle cx="260" cy="128" r="3" fill="hsl(198, 80%, 65%)" />
<circle cx="433" cy="376" r="8" fill="hsl(207, 80%, 65%)" />
<circle cx="271" cy="123" r="3" fill="hsl(216, 80%, 65%)" />
<circle cx="431" cy="250" r="4" fill="hsl(225, 80%, 65%)" />
<circle cx="82" cy="85" r="2" fill="hsl(234, 80%, 65%)" />
<circle cx="315" cy="246" r="8" fill="hsl(243, 80%, 65%)" />
<circle cx="207" cy="434" r="3" fill="hsl(252, 80%, 65%)" />
<circle cx="236" cy="118" r="3" fill="hsl(261, 80%, 65%)" />
<circle cx="297" cy="162" r="7" fill="hsl(270, 80%, 65%)" />
<circle cx="405" cy="169" r="3" fill="hsl(279, 80%, 65%)" />
<circle cx="312" cy="300" r="8" fill="hsl(288, 80%, 65%)" />
<circle cx="335" cy="209" r="4" fill="hsl(297, 80%, 65%)" />
<circle cx="104" cy="300" r="5" fill="hsl(306, 80%, 65%)" />
<circle cx="359" cy="274" r="8" fill="hsl(315, 80%, 65%)" />
<circle cx="394" cy="364" r="7" fill="hsl(324, 80%, 65%)" />
<circle cx="199" cy="326" r="8" fill="hsl(333, 80%, 65%)" />
<circle cx="171" cy="345" r="5" fill="hsl(342, 80%, 65%)" />
<circle cx="132" cy="175" r="8" fill="hsl(351, 80%, 65%)" />
<circle cx="180" cy="242" r="2" fill="hsl(0, 80%, 65%)" />
<circle cx="346" cy="308" r="6" fill="hsl(9, 80%, 65%)" />
<circle cx="131" cy="108" r="4" fill="hsl(18, 80%, 65%)" />
<circle cx="178" cy="108" r="7" fill="hsl(27, 80%, 65%)" />
<circle cx="388" cy="102" r="5" fill="hsl(36, 80%, 65%)" />
<circle cx="155" cy="280" r="2" fill="hsl(45, 80%, 65%)" />
<circle cx="365" cy="411" r="6" fill="hsl(54, 80%, 65%)" />
<circle cx="381" cy="174" r="7" fill="hsl(63, 80%, 65%)" />
<circle cx="382" cy="295" r="7" fill="hsl(72, 80%, 65%)" />
<circle cx="350" cy="187" r="7" fill="hsl(81, 80%, 65%)" />
<circle cx="267" cy="423" r="8" fill="hsl(90, 80%, 65%)" />
<circle cx="75" cy="406" r="3" fill="hsl(99, 80%, 65%)" />
<circle cx="240" cy="249" r="7" fill="hsl(108, 80%, 65%)" />
<circle cx="175" cy="230" r="5" fill="hsl(117, 80%, 65%)" />
<circle cx="268" cy="176" r="8" fill="hsl(126, 80%, 65%)" />
<circle cx="386" cy="378" r="7" fill="hsl(135, 80%, 65%)" />
<circle cx="404" cy="239" r="2" fill="hsl(144, 80%, 65%)" />
<circle cx="396" cy="110" r="8" fill="hsl(153, 80%, 65%)" />
<circle cx="320" cy="357" r="4" fill="hsl(162, 80%, 65%)" />
<circle cx="420" cy="430" r="7" fill="hsl(171, 80%, 65%)" />
<circle cx="79" cy="152" r="4" fill="hsl(180, 80%, 65%)" />
<circle cx="84" cy="220" r="4" fill="hsl(189, 80%, 65%)" />
<circle cx="72" cy="372" r="6" fill="hsl(198, 80%, 65%)" />
<circle cx="423" cy="389" r="4" fill="hsl(207, 80%, 65%)" />
<circle cx="351" cy="351" r="6" fill="hsl(216, 80%, 65%)" />
<circle cx="243" cy="194" r="8" fill="hsl(225, 80%, 65%)" />
<circle cx="331" cy="173" r="5" fill="hsl(234, 80%, 65%)" />
<circle cx="390" cy="93" r="5" fill="hsl(243, 80%, 65%)" />
<circle cx="264" cy="332" r="5" fill="hsl(252, 80%, 65%)" />
<circle cx="343" cy="379" r="8" fill="hsl(261, 80%, 65%)" />
<circle cx="347" cy="249" r="6" fill="hsl(270, 80%, 65%)" />
<circle cx="181" cy="317" r="2" fill="hsl(279, 80%, 65%)" />
<circle cx="359" cy="354" r="4" fill="hsl(288, 80%, 65%)" />
<circle cx="322" cy="191" r="3" fill="hsl(297, 80%, 65%)" />
<circle cx="367" cy="168" r="8" fill="hsl(306, 80%, 65%)" />
<circle cx="140" cy="431" r="4" fill="hsl(315, 80%, 65%)" />
<circle cx="202" cy="348" r="8" fill="hsl(324, 80%, 65%)" />
<circle cx="367" cy="147" r="5" fill="hsl(333, 80%, 65%)" />
<circle cx="291" cy="326" r="7" fill="hsl(342, 80%, 65%)" />
<circle cx="422" cy="132" r="3" fill="hsl(351, 80%, 65%)" />
<circle cx="158" cy="210" r="3" fill="hsl(0, 80%, 65%)" />
<circle cx="410" cy="168" r="8" fill="hsl(9, 80%, 65%)" />
<circle cx="197" cy="327" r="8" fill="hsl(18, 80%, 65%)" />
<circle cx="141" cy="406" r="4" fill="hsl(27, 80%, 65%)" />
<circle cx="239" cy="196" r="8" fill="hsl(36, 80%, 65%)" />
<circle cx="282" cy="335" r="6" fill="hsl(45, 80%, 65%)" />
<circle cx="121" cy="225" r="8" fill="hsl(54, 80%, 65%)" />
<circle cx="84" cy="257" r="2" fill="hsl(63, 80%, 65%)" />
<circle cx="314" cy="193" r="3" fill="hsl(72, 80%, 65%)" />
<circle cx="290" cy="85" r="5" fill="hsl(81, 80%, 65%)" />
<circle cx="383" cy="317" r="3" fill="hsl(90, 80%, 65%)" />
<circle cx="331" cy="228" r="2" fill="hsl(99, 80%, 65%)" />
<circle cx="191" cy="173" r="8" fill="hsl(108, 80%, 65%)" />
<circle cx="122" cy="156" r="4" fill="hsl(117, 80%, 65%)" />
<circle cx="155" cy="300" r="8" fill="hsl(126, 80%, 65%)" />
<circle cx="337" cy="406" r="6" fill="hsl(135, 80%, 65%)" />
<circle cx="132" cy="378" r="6" fill="hsl(144, 80%, 65%)" />
<circle cx="259" cy="308" r="6" fill="hsl(153, 80%, 65%)" />
<circle cx="161" cy="347" r="6" fill="hsl(162, 80%, 65%)" />
<circle cx="183" cy="163" r="4" fill="hsl(171, 80%, 65%)" />
<circle cx="123" cy="379" r="3" fill="hsl(180, 80%, 65%)" />
<circle cx="179" cy="341" r="4" fill="hsl(189, 80%, 65%)" />
<circle cx="168" cy="436" r="2" fill="hsl(198, 80%, 65%)" />
<circle cx="421" cy="221" r="3" fill="hsl(207, 80%, 65%)" />
<circle cx="182" cy="186" r="4" fill="hsl(216, 80%, 65%)" />
<circle cx="83" cy="420" r="6" fill="hsl(225, 80%, 65%)" />
<circle cx="86" cy="117" r="4" fill="hsl(234, 80%, 65%)" />
<circle cx="177" cy="180" r="2" fill="hsl(243, 80%, 65%)" />
<circle cx="394" cy="210" r="3" fill="hsl(252, 80%, 65%)" />
<circle cx="174" cy="233" r="7" fill="hsl(261, 80%, 65%)" />
<circle cx="283" cy="136" r="4" fill="hsl(270, 80%, 65%)" />
<circle cx="402" cy="114" r="7" fill="hsl(279, 80%, 65%)" />
<circle cx="411" cy="89" r="7" fill="hsl(288, 80%, 65%)" />
<circle cx="317" cy="390" r="6" fill="hsl(297, 80%, 65%)" />
<circle cx="373" cy="258" r="2" fill="hsl(306, 80%, 65%)" />
<circle cx="324" cy="99" r="5" fill="hsl(315, 80%, 65%)" />
<circle cx="406" cy="234" r="5" fill="hsl(324, 80%, 65%)" />
<circle cx="235" cy="102" r="4" fill="hsl(333, 80%, 65%)" />
<circle cx="190" cy="378" r="6" fill="hsl(342, 80%, 65%)" />
<circle cx="189" cy="101" r="8" fill="hsl(351, 80%, 65%)" />
<circle cx="285" cy="428" r="2" fill="hsl(0, 80%, 65%)" />
<circle cx="281" cy="97" r="8" fill="hsl(9, 80%, 65%)" />
<circle cx="107" cy="274" r="7" fill="hsl(18, 80%, 65%)" />
<circle cx="347" cy="103" r="5" fill="hsl(27, 80%, 65%)" />
<circle cx="172" cy="388" r="6" fill="hsl(36, 80%, 65%)" />
<circle cx="133" cy="311" r="8" fill="hsl(45, 80%, 65%)" />
<circle cx="233" cy="188" r="8" fill="hsl(54, 80%, 65%)" />
<circle cx="124" cy="105" r="7" fill="hsl(63, 80%, 65%)" />
<circle cx="306" cy="121" r="6" fill="hsl(72, 80%, 65%)" />
<circle cx="117" cy="420" r="8" fill="hsl(81, 80%, 65%)" />
<circle cx="251" cy="304" r="5" fill="hsl(90, 80%, 65%)" />
<circle cx="132" cy="105" r="2" fill="hsl(99, 80%, 65%)" />
<circle cx="73" cy="197" r="6" fill="hsl(108, 80%, 65%)" />
<circle cx="388" cy="157" r="5" fill="hsl(117, 80%, 65%)" />
<circle cx="183" cy="297" r="2" fill="hsl(126, 80%, 65%)" />
<circle cx="142" cy="381" r="7" fill="hsl(135, 80%, 65%)" />
<circle cx="429" cy="226" r="6" fill="hsl(144, 80%, 65%)" />
<circle cx="302" cy="313" r="2" fill="hsl(153, 80%, 65%)" />
<circle cx="224" cy="90" r="7" fill="hsl(162, 80%, 65%)" />
<circle cx="329" cy="272" r="3" fill="hsl(171, 80%, 65%)" />
<circle cx="302" cy="351" r="5" fill="hsl(180, 80%, 65%)" />
<circle cx="95" cy="426" r="6" fill="hsl(189, 80%, 65%)" />
<circle cx="274" cy="374" r="3" fill="hsl(198, 80%, 65%)" />
<circle cx="259" cy="428" r="8" fill="hsl(207, 80%, 65%)" />
<circle cx="106" cy="298" r="5" fill="hsl(216, 80%, 65%)" />
<circle cx="421" cy="197" r="3" fill="hsl(225, 80%, 65%)" />
<circle cx="423" cy="331" r="6" fill="hsl(234, 80%, 65%)" />
<circle cx="96" cy="128" r="7" fill="hsl(243, 80%, 65%)" />
<circle cx="108" cy="300" r="6" fill="hsl(252, 80%, 65%)" />
<circle cx="105" cy="366" r="5" fill="hsl(261, 80%, 65%)" />
<circle cx="70" cy="254" r="4" fill="hsl(270, 80%, 65%)" />
<circle cx="291" cy="82" r="3" fill="hsl(279, 80%, 65%)" />
<circle cx="99" cy="389" r="6" fill="hsl(288, 80%, 65%)" />
<circle cx="422" cy="207" r="7" fill="hsl(297, 80%, 65%)" />
<circle cx="204" cy="160" r="8" fill="hsl(306, 80%, 65%)" />
<circle cx="116" cy="302" r="5" fill="hsl(315, 80%, 65%)" />
<circle cx="431" cy="237" r="7" fill="hsl(324, 80%, 65%)" />
<circle cx="139" cy="177" r="6" fill="hsl(333, 80%, 65%)" />
<circle cx="121" cy="250" r="8" fill="hsl(342, 80%, 65%)" />
<circle cx="94" cy="323" r="7" fill="hsl(351, 80%, 65%)" />
<circle cx="263" cy="161" r="7" fill="hsl(0, 80%, 65%)" />
<circle cx="386" cy="280" r="8" fill="hsl(9, 80%, 65%)" />
<circle cx="275" cy="84" r="4" fill="hsl(18, 80%, 65%)" />
<circle cx="247" cy="340" r="6" fill="hsl(27, 80%, 65%)" />
<circle cx="318" cy="120" r="7" fill="hsl(36, 80%, 65%)" />
<circle cx="411" cy="348" r="5" fill="hsl(45, 80%, 65%)" />
<circle cx="115" cy="363" r="5" fill="hsl(54, 80%, 65%)" />
<circle cx="108" cy="426" r="2" fill="hsl(63, 80%, 65%)" />
<circle cx="262" cy="270" r="8" fill="hsl(72, 80%, 65%)" />
<circle cx="224" cy="229" r="8" fill="hsl(81, 80%, 65%)" />
<circle cx="130" cy="272" r="3" fill="hsl(90, 80%, 65%)" />
<circle cx="325" cy="384" r="7" fill="hsl(99, 80%, 65%)" />
<circle cx="121" cy="120" r="4" fill="hsl(108, 80%, 65%)" />
<circle cx="327" cy="169" r="8" fill="hsl(117, 80%, 65%)" />
<circle cx="206" cy="426" r="3" fill="hsl(126, 80%, 65%)" />
<circle cx="137" cy="389" r="4" fill="hsl(135, 80%, 65%)" />
<circle cx="170" cy="160" r="7" fill="hsl(144, 80%, 65%)" />
<circle cx="306" cy="72" r="4" fill="hsl(153, 80%, 65%)" />
<circle cx="251" cy="347" r="8" fill="hsl(162, 80%, 65%)" />
<circle cx="287" cy="189" r="2" fill="hsl(171, 80%, 65%)" />
<line x1="401" y1="263" x2="354" y2="204" stroke="#223344" stroke-width="1"/>
<line x1="110" y1="115" x2="80" y2="121" stroke="#223344" stroke-width="1"/>
<line x1="427" y1="377" x2="419" y2="297" stroke="#223344" stroke-width="1"/>
<line x1="228" y1="295" x2="198" y2="360" stroke="#223344" stroke-width="1"/>
<line x1="386" y1="391" x2="423" y2="356" stroke="#223344" stroke-width="1"/>
<line x1="229" y1="248" x2="162" y2="326" stroke="#223344" stroke-width="1"/>
<line x1="228" y1="186" x2="276" y2="242" stroke="#223344" stroke-width="1"/>
<line x1="82" y1="137" x2="116" y2="74" stroke="#223344" stroke-width="1"/>
<line x1="360" y1="238" x2="416" y2="190" stroke="#223344" stroke-width="1"/>
<line x1="282" y1="400" x2="258" y2="381" stroke="#223344" stroke-width="1"/>
<line x1="266" y1="226" x2="252" y2="202" stroke="#223344" stroke-width="1"/>
<line x1="439" y1="433" x2="390" y2="483" stroke="#223344" stroke-width="1"/>
<line x1="299" y1="103" x2="261" y2="32" stroke="#223344" stroke-width="1"/>
<line x1="107" y1="71" x2="186" y2="113" stroke="#223344" stroke-width="1"/>
<line x1="74" y1="357" x2="51" y2="412" stroke="#223344" stroke-width="1"/>
<line x1="216" y1="65" x2="184" y2="82" stroke="#223344" stroke-width="1"/>
<line x1="388" y1="161" x2="407" y2="95" stroke="#223344" stroke-width="1"/>
<line x1="220" y1="339" x2="238" y2="344" stroke="#223344" stroke-width="1"/>
<line x1="292" y1="319" x2="222" y2="330" stroke="#223344" stroke-width="1"/>
<line x1="148" y1="249" x2="159" y2="272" stroke="#223344" stroke-width="1"/>
<line x1="226" y1="176" x2="199" y2="219" stroke="#223344" stroke-width="1"/>
<line x1="366" y1="342" x2="299" y2="342" stroke="#223344" stroke-width="1"/>
<line x1="421" y1="307" x2="495" y2="328" stroke="#223344" stroke-width="1"/>
<line x1="296" y1="394" x2="226" y2="377" stroke="#223344" stroke-width="1"/>
</svg>
