<svg xmlns="http://www.w3.org/2000/svg" width="512" height="512" viewBox="0 0 512 512">
<rect width="100%" height="100%" fill="#0b1020"/>
<circle cx="434" cy="137" r="52" fill="#f8f3c9" opacity="0.95" />
<circle cx="396.0" cy="113.0" r="3.2" fill="white" />
<circle cx="454.0" cy="26.0" r="3.0" fill="white" />
<circle cx="140.0" cy="148.0" r="3.2" fill="white" />
<circle cx="58.0" cy="135.0" r="3.3" fill="white" />
<circle cx="140.0" cy="178.0" r="1.6" fill="white" />
<circle cx="201.0" cy="102.0" r="2.7" fill="white" />
<circle cx="90.0" cy="138.0" r="1.6" fill="white" />
<circle cx="91.0" cy="157.0" r="1.8" fill="white" />
<circle cx="463.0" cy="35.0" r="2.1" fill="white" />
<circle cx="394.0" cy="140.0" r="2.3" fill="white" />
<circle cx="411.0" cy="107.0" r="2.3" fill="white" />
<circle cx="336.0" cy="128.0" r="2.2" fill="white" />
<circle cx="301.0" cy="36.0" r="2.4" fill="white" />
<circle cx="181.0" cy="39.0" r="3.0" fill="white" />
<circle cx="85.0" cy="106.0" r="3.0" fill="white" />
<path d="M 20 430 C 124 424, 185 448, 287 438 S 450 394, 512 424" stroke="#5dade2" stroke-width="5" fill="none" opacity="0.85" />
<line x1="0" y1="410" x2="512" y2="410" stroke="#445566" stroke-width="4" />
<polygon points="200,359 240,299 280,319 300,289 320,309 332,349 300,371 250,375" fill="#1e1e1e" />
<polygon points="275,299 288,277 298,301" fill="#1e1e1e" />
<line x1="330" y1="344" x2="360" y2="319" stroke="#1e1e1e" stroke-width="6" />
</svg>
