<svg xmlns="http://www.w3.org/2000/svg" width="512" height="512" viewBox="0 0 512 512">
<rect width="100%" height="100%" fill="#0b1020"/>
<circle cx="397" cy="133" r="56" fill="#f8f3c9" opacity="0.95" />
<circle cx="111.0" cy="69.0" r="2.0" fill="white" />
<circle cx="435.0" cy="71.0" r="3.0" fill="white" />
<circle cx="433.0" cy="140.0" r="3.0" fill="white" />
<circle cx="33.0" cy="46.0" r="2.9" fill="white" />
<circle cx="86.0" cy="43.0" r="3.2" fill="white" />
<circle cx="96.0" cy="37.0" r="2.1" fill="white" />
<circle cx="283.0" cy="54.0" r="2.9" fill="white" />
<circle cx="260.0" cy="174.0" r="1.7" fill="white" />
<circle cx="447.0" cy="67.0" r="2.9" fill="white" />
<circle cx="413.0" cy="57.0" r="2.0" fill="white" />
<circle cx="242.0" cy="132.0" r="2.8" fill="white" />
<path d="M 20 430 C 107 428, 178 454, 298 422 S 450 393, 512 423" stroke="#5dade2" stroke-width="7" fill="none" opacity="0.85" />
<line x1="0" y1="410" x2="512" y2="410" stroke="#445566" stroke-width="2" />
<polygon points="147,365 187,305 227,325 247,295 267,315 279,355 247,377 197,381" fill="#1e1e1e" />
<polygon points="222,305 235,283 245,307" fill="#1e1e1e" />
<line x1="277" y1="350" x2="307" y2="325" stroke="#1e1e1e" stroke-width="6" />
</svg>
