<svg xmlns="http://www.w3.org/2000/svg" width="512" height="512" viewBox="0 0 512 512">
<rect width="100%" height="100%" fill="#0b1020"/>
<circle cx="369" cy="137" r="43" fill="#f8f3c9" opacity="0.95" />
<circle cx="455.0" cy="91.0" r="2.2" fill="white" />
<circle cx="436.0" cy="30.0" r="3.5" fill="white" />
<circle cx="105.0" cy="30.0" r="2.6" fill="white" />
<circle cx="186.0" cy="79.0" r="3.4" fill="white" />
<circle cx="294.0" cy="179.0" r="2.9" fill="white" />
<circle cx="184.0" cy="52.0" r="1.5" fill="white" />
<circle cx="67.0" cy="64.0" r="3.0" fill="white" />
<circle cx="197.0" cy="94.0" r="3.1" fill="white" />
<circle cx="287.0" cy="68.0" r="2.1" fill="white" />
<circle cx="290.0" cy="36.0" r="1.7" fill="white" />
<circle cx="96.0" cy="52.0" r="2.7" fill="white" />
<circle cx="25.0" cy="56.0" r="2.8" fill="white" />
<circle cx="476.0" cy="168.0" r="1.9" fill="white" />
<circle cx="355.0" cy="78.0" r="3.5" fill="white" />
<circle cx="156.0" cy="112.0" r="2.5" fill="white" />
<path d="M 20 430 C 122 411, 182 447, 302 433 S 450 378, 512 408" stroke="#5dade2" stroke-width="5" fill="none" opacity="0.85" />
<line x1="0" y1="415" x2="512" y2="415" stroke="#445566" stroke-width="3" />
<polygon points="167,352 207,292 247,312 267,282 287,302 299,342 267,364 217,368" fill="#1e1e1e" />
<polygon points="242,292 255,270 265,294" fill="#1e1e1e" />
<line x1="297" y1="337" x2="327" y2="312" stroke="#1e1e1e" stroke-width="6" />
</svg>
