<svg xmlns="http://www.w3.org/2000/svg" width="512" height="512" viewBox="0 0 512 512">
<rect width="100%" height="100%" fill="#0b1020"/>
<circle cx="343" cy="132" r="40" fill="#f8f3c9" opacity="0.95" />
<circle cx="201.0" cy="55.0" r="2.9" fill="white" />
<circle cx="490.0" cy="175.0" r="2.0" fill="white" />
<circle cx="116.0" cy="87.0" r="1.7" fill="white" />
<circle cx="148.0" cy="51.0" r="1.8" fill="white" />
<circle cx="361.0" cy="180.0" r="2.8" fill="white" />
<circle cx="476.0" cy="62.0" r="3.0" fill="white" />
<circle cx="386.0" cy="62.0" r="2.0" fill="white" />
<circle cx="435.0" cy="126.0" r="2.3" fill="white" />
<circle cx="185.0" cy="166.0" r="3.1" fill="white" />
<circle cx="254.0" cy="99.0" r="3.4" fill="white" />
<circle cx="426.0" cy="135.0" r="1.6" fill="white" />
<circle cx="21.0" cy="95.0" r="1.8" fill="white" />
<path d="M 20 430 C 108 425, 175 448, 287 423 S 450 387, 512 417" stroke="#5dade2" stroke-width="8" fill="none" opacity="0.85" />
<line x1="0" y1="398" x2="512" y2="398" stroke="#445566" stroke-width="3" />
<polygon points="148,359 188,299 228,319 248,289 268,309 280,349 248,371 198,375" fill="#1e1e1e" />
<polygon points="223,299 236,277 246,301" fill="#1e1e1e" />
<line x1="278" y1="344" x2="308" y2="319" stroke="#1e1e1e" stroke-width="6" />
</svg>
