<svg xmlns="http://www.w3.org/2000/svg" width="512" height="512" viewBox="0 0 512 512">
<rect width="100%" height="100%" fill="#0b1020"/>
<circle cx="372" cy="97" r="40" fill="#f8f3c9" opacity="0.95" />
<circle cx="434.0" cy="168.0" r="2.1" fill="white" />
<circle cx="429.0" cy="111.0" r="3.1" fill="white" />
<circle cx="136.0" cy="76.0" r="2.6" fill="white" />
<circle cx="337.0" cy="63.0" r="3.3" fill="white" />
<circle cx="86.0" cy="167.0" r="2.4" fill="white" />
<circle cx="360.0" cy="148.0" r="1.6" fill="white" />
<circle cx="78.0" cy="130.0" r="1.9" fill="white" />
<circle cx="97.0" cy="20.0" r="3.3" fill="white" />
<circle cx="256.0" cy="162.0" r="2.8" fill="white" />
<circle cx="202.0" cy="45.0" r="2.6" fill="white" />
<circle cx="175.0" cy="59.0" r="2.8" fill="white" />
<circle cx="376.0" cy="57.0" r="2.6" fill="white" />
<path d="M 20 430 C 122 423, 171 448, 319 434 S 450 384, 512 414" stroke="#5dade2" stroke-width="6" fill="none" opacity="0.85" />
<line x1="0" y1="393" x2="512" y2="393" stroke="#445566" stroke-width="3" />
<polygon points="162,357 202,297 242,317 262,287 282,307 294,347 262,369 212,373" fill="#1e1e1e" />
<polygon points="237,297 250,275 260,299" fill="#1e1e1e" />
<line x1="292" y1="342" x2="322" y2="317" stroke="#1e1e1e" stroke-width="6" />
</svg>
