<svg xmlns="http://www.w3.org/2000/svg" width="512" height="512" viewBox="0 0 512 512">
<rect width="100%" height="100%" fill="#0b1020"/>
<circle cx="376" cy="106" r="46" fill="#f8f3c9" opacity="0.95" />
<circle cx="121.0" cy="169.0" r="3.2" fill="white" />
<circle cx="394.0" cy="157.0" r="2.4" fill="white" />
<circle cx="161.0" cy="135.0" r="1.9" fill="white" />
<circle cx="101.0" cy="45.0" r="3.4" fill="white" />
<circle cx="402.0" cy="102.0" r="1.5" fill="white" />
<circle cx="354.0" cy="60.0" r="2.9" fill="white" />
<circle cx="491.0" cy="142.0" r="3.0" fill="white" />
<circle cx="219.0" cy="33.0" r="2.4" fill="white" />
<circle cx="290.0" cy="22.0" r="2.6" fill="white" />
<circle cx="183.0" cy="47.0" r="2.9" fill="white" />
<circle cx="114.0" cy="85.0" r="3.3" fill="white" />
<circle cx="263.0" cy="38.0" r="1.8" fill="white" />
<path d="M 20 430 C 127 425, 187 442, 310 429 S 450 398, 512 428" stroke="#5dade2" stroke-width="6" fill="none" opacity="0.85" />
<line x1="0" y1="402" x2="512" y2="402" stroke="#445566" stroke-width="3" />
<polygon points="164,363 204,303 244,323 264,293 284,313 296,353 264,375 214,379" fill="#1e1e1e" />
<polygon points="239,303 252,281 262,305" fill="#1e1e1e" />
<line x1="294" y1="348" x2="324" y2="323" stroke="#1e1e1e" stroke-width="6" />
</svg>
