<svg xmlns="http://www.w3.org/2000/svg" width="512" height="512" viewBox="0 0 512 512">
<rect width="100%" height="100%" fill="#0b1020"/>
<circle cx="436" cy="131" r="51" fill="#f8f3c9" opacity="0.95" />
<circle cx="306.0" cy="67.0" r="3.0" fill="white" />
<circle cx="389.0" cy="65.0" r="2.4" fill="white" />
<circle cx="272.0" cy="164.0" r="2.1" fill="white" />
<circle cx="30.0" cy="68.0" r="2.7" fill="white" />
<circle cx="289.0" cy="117.0" r="2.6" fill="white" />
<circle cx="354.0" cy="108.0" r="2.6" fill="white" />
<circle cx="309.0" cy="156.0" r="2.1" fill="white" />
<path d="M 20 430 C 130 424, 175 440, 285 434 S 450 380, 512 410" stroke="#5dade2" stroke-width="7" fill="none" opacity="0.85" />
<line x1="0" y1="403" x2="512" y2="403" stroke="#445566" stroke-width="4" />
<polygon points="212,354 252,294 292,314 312,284 332,304 344,344 312,366 262,370" fill="#1e1e1e" />
<polygon points="287,294 300,272 310,296" fill="#1e1e1e" />
<line x1="342" y1="339" x2="372" y2="314" stroke="#1e1e1e" stroke-width="6" />
</svg>
