<svg xmlns="http://www.w3.org/2000/svg" width="512" height="512" viewBox="0 0 512 512">
<rect width="100%" height="100%" fill="#0b1020"/>
<circle cx="378" cy="87" r="42" fill="#f8f3c9" opacity="0.95" />
<circle cx="130.0" cy="146.0" r="1.8" fill="white" />
<circle cx="228.0" cy="169.0" r="2.8" fill="white" />
<circle cx="132.0" cy="93.0" r="3.3" fill="white" />
<circle cx="384.0" cy="109.0" r="3.2" fill="white" />
<circle cx="243.0" cy="134.0" r="1.7" fill="white" />
<circle cx="283.0" cy="171.0" r="2.3" fill="white" />
<circle cx="94.0" cy="137.0" r="2.6" fill="white" />
<circle cx="296.0" cy="27.0" r="2.2" fill="white" />
<circle cx="421.0" cy="74.0" r="3.3" fill="white" />
<circle cx="21.0" cy="34.0" r="3.3" fill="white" />
<circle cx="92.0" cy="37.0" r="2.9" fill="white" />
<circle cx="81.0" cy="52.0" r="2.8" fill="white" />
<circle cx="456.0" cy="21.0" r="1.8" fill="white" />
<circle cx="213.0" cy="84.0" r="3.0" fill="white" />
<circle cx="361.0" cy="127.0" r="3.2" fill="white" />
<path d="M 20 430 C 132 423, 194 447, 298 440 S 450 388, 512 418" stroke="#5dade2" stroke-width="8" fill="none" opacity="0.85" />
<line x1="0" y1="388" x2="512" y2="388" stroke="#445566" stroke-width="2" />
<polygon points="153,350 193,290 233,310 253,280 273,300 285,340 253,362 203,366" fill="#1e1e1e" />
<polygon points="228,290 241,268 251,292" fill="#1e1e1e" />
<line x1="283" y1="335" x2="313" y2="310" stroke="#1e1e1e" stroke-width="6" />
</svg>
