<svg xmlns="http://www.w3.org/2000/svg" width="512" height="512" viewBox="0 0 512 512">
<rect width="100%" height="100%" fill="#0b1020"/>
<circle cx="353" cy="78" r="54" fill="#f8f3c9" opacity="0.95" />
<circle cx="200.0" cy="52.0" r="2.0" fill="white" />
<circle cx="295.0" cy="81.0" r="2.6" fill="white" />
<circle cx="177.0" cy="127.0" r="2.7" fill="white" />
<circle cx="336.0" cy="113.0" r="2.8" fill="white" />
<circle cx="365.0" cy="119.0" r="2.8" fill="white" />
<circle cx="81.0" cy="89.0" r="1.5" fill="white" />
<circle cx="233.0" cy="109.0" r="2.8" fill="white" />
<path d="M 20 430 C 104 420, 191 450, 284 424 S 450 398, 512 428" stroke="#5dade2" stroke-width="6" fill="none" opacity="0.85" />
<line x1="0" y1="410" x2="512" y2="410" stroke="#445566" stroke-width="2" />
<polygon points="186,360 226,300 266,320 286,290 306,310 318,350 286,372 236,376" fill="#1e1e1e" />
<polygon points="261,300 274,278 284,302" fill="#1e1e1e" />
<line x1="316" y1="345" x2="346" y2="320" stroke="#1e1e1e" stroke-width="6" />
</svg>
