<svg xmlns="http://www.w3.org/2000/svg" width="512" height="512" viewBox="0 0 512 512">
<rect width="100%" height="100%" fill="#0b1020"/>
<circle cx="431" cy="134" r="53" fill="#f8f3c9" opacity="0.95" />
<circle cx="476.0" cy="82.0" r="1.6" fill="white" />
<circle cx="481.0" cy="159.0" r="3.5" fill="white" />
<circle cx="29.0" cy="50.0" r="2.3" fill="white" />
<circle cx="92.0" cy="102.0" r="3.1" fill="white" />
<circle cx="235.0" cy="152.0" r="2.4" fill="white" />
<circle cx="205.0" cy="20.0" r="2.9" fill="white" />
<circle cx="306.0" cy="69.0" r="1.9" fill="white" />
<circle cx="48.0" cy="158.0" r="2.7" fill="white" />
<circle cx="278.0" cy="106.0" r="1.8" fill="white" />
<circle cx="235.0" cy="56.0" r="2.1" fill="white" />
<path d="M 20 430 C 109 427, 193 441, 300 433 S 450 399, 512 429" stroke="#5dade2" stroke-width="6" fill="none" opacity="0.85" />
<line x1="0" y1="411" x2="512" y2="411" stroke="#445566" stroke-width="2" />
<polygon points="171,359 211,299 251,319 271,289 291,309 303,349 271,371 221,375" fill="#1e1e1e" />
<polygon points="246,299 259,277 269,301" fill="#1e1e1e" />
<line x1="301" y1="344" x2="331" y2="319" stroke="#1e1e1e" stroke-width="6" />
</svg>
