<svg xmlns="http://www.w3.org/2000/svg" width="512" height="512" viewBox="0 0 512 512">
<rect width="100%" height="100%" fill="#0b1020"/>
<circle cx="356" cy="95" r="55" fill="#f8f3c9" opacity="0.95" />
<circle cx="321.0" cy="104.0" r="3.2" fill="white" />
<circle cx="30.0" cy="31.0" r="3.0" fill="white" />
<circle cx="124.0" cy="91.0" r="2.3" fill="white" />
<circle cx="328.0" cy="58.0" r="2.6" fill="white" />
<circle cx="58.0" cy="57.0" r="2.0" fill="white" />
<circle cx="178.0" cy="160.0" r="2.6" fill="white" />
<circle cx="289.0" cy="103.0" r="1.8" fill="white" />
<circle cx="45.0" cy="52.0" r="3.3" fill="white" />
<circle cx="464.0" cy="110.0" r="2.3" fill="white" />
<circle cx="292.0" cy="96.0" r="3.5" fill="white" />
<circle cx="322.0" cy="154.0" r="3.4" fill="white" />
<path d="M 20 430 C 125 424, 160 447, 303 424 S 450 391, 512 421" stroke="#5dade2" stroke-width="8" fill="none" opacity="0.85" />
<line x1="0" y1="393" x2="512" y2="393" stroke="#445566" stroke-width="3" />
<polygon points="161,353 201,293 241,313 261,283 281,303 293,343 261,365 211,369" fill="#1e1e1e" />
<polygon points="236,293 249,271 259,295" fill="#1e1e1e" />
<line x1="291" y1="338" x2="321" y2="313" stroke="#1e1e1e" stroke-width="6" />
</svg>
