<svg xmlns="http://www.w3.org/2000/svg" width="512" height="512" viewBox="0 0 512 512">
<rect width="100%" height="100%" fill="black"/>
<circle cx="256.00" cy="256.00" r="2" fill="hsl(0, 80%, 65%)" />
<circle cx="250.04" cy="261.46" r="3" fill="hsl(10, 80%, 65%)" />
<circle cx="257.00" cy="244.62" r="4" fill="hsl(20, 80%, 65%)" />
<circle cx="264.51" cy="267.10" r="5" fill="hsl(30, 80%, 65%)" />
<circle cx="240.09" cy="253.19" r="6" fill="hsl(40, 80%, 65%)" />
<circle cx="271.24" cy="246.31" r="2" fill="hsl(50, 80%, 65%)" />
<circle cx="250.86" cy="275.11" r="3" fill="hsl(60, 80%, 65%)" />
<circle cx="246.15" cy="237.04" r="4" fill="hsl(70, 80%, 65%)" />
<circle cx="277.46" cy="263.84" r="5" fill="hsl(80, 80%, 65%)" />
<circle cx="233.60" cy="265.25" r="6" fill="hsl(90, 80%, 65%)" />
<circle cx="266.83" cy="232.87" r="2" fill="hsl(100, 80%, 65%)" />
<circle cx="264.02" cy="281.56" r="3" fill="hsl(110, 80%, 65%)" />
<circle cx="231.79" cy="241.97" r="4" fill="hsl(120, 80%, 65%)" />
<circle cx="284.44" cy="249.75" r="5" fill="hsl(130, 80%, 65%)" />
<circle cx="238.62" cy="280.72" r="6" fill="hsl(140, 80%, 65%)" />
<circle cx="251.98" cy="224.98" r="2" fill="hsl(150, 80%, 65%)" />
<circle cx="280.70" cy="276.82" r="3" fill="hsl(160, 80%, 65%)" />
<circle cx="222.73" cy="257.38" r="4" fill="hsl(170, 80%, 65%)" />
<circle cx="280.29" cy="231.83" r="5" fill="hsl(180, 80%, 65%)" />
<circle cx="254.37" cy="291.17" r="6" fill="hsl(190, 80%, 65%)" />
<circle cx="232.86" cy="228.27" r="2" fill="hsl(200, 80%, 65%)" />
<circle cx="292.68" cy="260.94" r="3" fill="hsl(210, 80%, 65%)" />
<circle cx="224.90" cy="277.64" r="4" fill="hsl(220, 80%, 65%)" />
<circle cx="264.50" cy="218.21" r="5" fill="hsl(230, 80%, 65%)" />
<circle cx="275.67" cy="290.33" r="6" fill="hsl(240, 80%, 65%)" />
<circle cx="217.53" cy="243.73" r="2" fill="hsl(250, 80%, 65%)" />
<circle cx="293.39" cy="238.73" r="3" fill="hsl(260, 80%, 65%)" />
<circle cx="239.80" cy="294.71" r="4" fill="hsl(270, 80%, 65%)" />
<circle cx="241.54" cy="215.78" r="5" fill="hsl(280, 80%, 65%)" />
<circle cx="294.50" cy="276.24" r="6" fill="hsl(290, 80%, 65%)" />
<circle cx="213.22" cy="267.28" r="2" fill="hsl(300, 80%, 65%)" />
<circle cx="280.32" cy="218.18" r="3" fill="hsl(310, 80%, 65%)" />
<circle cx="263.74" cy="301.03" r="4" fill="hsl(320, 80%, 65%)" />
<circle cx="219.32" cy="227.59" r="5" fill="hsl(330, 80%, 65%)" />
<circle cx="302.93" cy="252.11" r="6" fill="hsl(340, 80%, 65%)" />
<circle cx="223.55" cy="291.08" r="2" fill="hsl(350, 80%, 65%)" />
<circle cx="256.24" cy="207.54" r="3" fill="hsl(0, 80%, 65%)" />
<circle cx="289.01" cy="292.39" r="4" fill="hsl(10, 80%, 65%)" />
<circle cx="206.42" cy="251.41" r="5" fill="hsl(20, 80%, 65%)" />
<circle cx="296.18" cy="225.51" r="6" fill="hsl(30, 80%, 65%)" />
<circle cx="246.86" cy="306.26" r="2" fill="hsl(40, 80%, 65%)" />
<circle cx="228.46" cy="212.23" r="3" fill="hsl(50, 80%, 65%)" />
<circle cx="306.48" cy="269.83" r="4" fill="hsl(60, 80%, 65%)" />
<circle cx="208.88" cy="280.18" r="5" fill="hsl(70, 80%, 65%)" />
<circle cx="274.62" cy="205.77" r="6" fill="hsl(80, 80%, 65%)" />
<circle cx="276.43" cy="306.18" r="2" fill="hsl(90, 80%, 65%)" />
<circle cx="206.50" cy="232.54" r="3" fill="hsl(100, 80%, 65%)" />
<circle cx="308.91" cy="239.69" r="4" fill="hsl(110, 80%, 65%)" />
<circle cx="227.71" cy="304.28" r="5" fill="hsl(120, 80%, 65%)" />
<circle cx="244.13" cy="200.72" r="6" fill="hsl(130, 80%, 65%)" />
<circle cx="302.56" cy="289.07" r="2" fill="hsl(140, 80%, 65%)" />
<circle cx="198.76" cy="263.13" r="3" fill="hsl(150, 80%, 65%)" />
<circle cx="293.75" cy="211.65" r="4" fill="hsl(160, 80%, 65%)" />
<circle cx="258.14" cy="314.76" r="5" fill="hsl(170, 80%, 65%)" />
<circle cx="214.34" cy="213.73" r="6" fill="hsl(180, 80%, 65%)" />
<circle cx="315.82" cy="259.06" r="2" fill="hsl(190, 80%, 65%)" />
<circle cx="209.41" cy="294.50" r="3" fill="hsl(200, 80%, 65%)" />
<circle cx="264.43" cy="195.61" r="4" fill="hsl(210, 80%, 65%)" />
<circle cx="290.88" cy="306.66" r="5" fill="hsl(220, 80%, 65%)" />
<circle cx="195.54" cy="242.09" r="6" fill="hsl(230, 80%, 65%)" />
<circle cx="310.43" cy="225.16" r="2" fill="hsl(240, 80%, 65%)" />
<circle cx="236.53" cy="316.00" r="3" fill="hsl(250, 80%, 65%)" />
<circle cx="229.61" cy="198.14" r="4" fill="hsl(260, 80%, 65%)" />
<circle cx="315.02" cy="281.04" r="5" fill="hsl(270, 80%, 65%)" />
<circle cx="195.09" cy="277.57" r="6" fill="hsl(280, 80%, 65%)" />
<circle cx="286.58" cy="198.51" r="2" fill="hsl(290, 80%, 65%)" />
<circle cx="272.42" cy="319.53" r="3" fill="hsl(300, 80%, 65%)" />
<circle cx="200.57" cy="219.97" r="4" fill="hsl(310, 80%, 65%)" />
<circle cx="321.69" cy="245.04" r="5" fill="hsl(320, 80%, 65%)" />
<circle cx="214.66" cy="308.84" r="6" fill="hsl(330, 80%, 65%)" />
<circle cx="250.75" cy="188.63" r="2" fill="hsl(340, 80%, 65%)" />
<circle cx="305.73" cy="302.46" r="3" fill="hsl(350, 80%, 65%)" />
<circle cx="187.47" cy="255.33" r="4" fill="hsl(0, 80%, 65%)" />
<circle cx="307.34" cy="209.88" r="5" fill="hsl(10, 80%, 65%)" />
<circle cx="249.25" cy="325.15" r="6" fill="hsl(20, 80%, 65%)" />
<circle cx="213.99" cy="200.08" r="2" fill="hsl(30, 80%, 65%)" />
<circle cx="325.21" cy="268.94" r="3" fill="hsl(40, 80%, 65%)" />
<circle cx="195.83" cy="293.45" r="4" fill="hsl(50, 80%, 65%)" />
<circle cx="275.19" cy="187.30" r="5" fill="hsl(60, 80%, 65%)" />
<circle cx="288.46" cy="320.03" r="6" fill="hsl(70, 80%, 65%)" />
<circle cx="188.39" cy="230.56" r="2" fill="hsl(80, 80%, 65%)" />
<circle cx="323.46" cy="228.92" r="3" fill="hsl(90, 80%, 65%)" />
<circle cx="224.36" cy="321.94" r="4" fill="hsl(100, 80%, 65%)" />
<circle cx="234.66" cy="185.58" r="5" fill="hsl(110, 80%, 65%)" />
<circle cx="319.68" cy="293.74" r="6" fill="hsl(120, 80%, 65%)" />
<circle cx="183.12" cy="271.28" r="2" fill="hsl(130, 80%, 65%)" />
<circle cx="299.67" cy="195.15" r="3" fill="hsl(140, 80%, 65%)" />
<circle cx="264.95" cy="330.80" r="4" fill="hsl(150, 80%, 65%)" />
<circle cx="198.54" cy="206.61" r="5" fill="hsl(160, 80%, 65%)" />
<circle cx="332.16" cy="253.59" r="6" fill="hsl(170, 80%, 65%)" />
<circle cx="201.16" cy="309.52" r="2" fill="hsl(180, 80%, 65%)" />
<circle cx="260.31" cy="179.07" r="3" fill="hsl(190, 80%, 65%)" />
<circle cx="305.05" cy="315.96" r="4" fill="hsl(200, 80%, 65%)" />
<circle cx="178.91" cy="244.86" r="5" fill="hsl(210, 80%, 65%)" />
<circle cx="320.71" cy="211.91" r="6" fill="hsl(220, 80%, 65%)" />
<circle cx="237.97" cy="332.63" r="2" fill="hsl(230, 80%, 65%)" />
<circle cx="217.33" cy="186.96" r="3" fill="hsl(240, 80%, 65%)" />
<circle cx="331.54" cy="280.92" r="4" fill="hsl(250, 80%, 65%)" />
<circle cx="183.09" cy="288.83" r="5" fill="hsl(260, 80%, 65%)" />
<circle cx="287.75" cy="182.17" r="6" fill="hsl(270, 80%, 65%)" />
<circle cx="282.59" cy="332.26" r="2" fill="hsl(280, 80%, 65%)" />
<circle cx="184.52" cy="217.54" r="3" fill="hsl(290, 80%, 65%)" />
<circle cx="335.08" cy="235.98" r="4" fill="hsl(300, 80%, 65%)" />
<circle cx="211.00" cy="324.51" r="5" fill="hsl(310, 80%, 65%)" />
<circle cx="242.84" cy="174.69" r="6" fill="hsl(320, 80%, 65%)" />
<circle cx="320.94" cy="307.31" r="2" fill="hsl(330, 80%, 65%)" />
<circle cx="173.07" cy="262.06" r="3" fill="hsl(340, 80%, 65%)" />
<circle cx="313.33" cy="195.23" r="4" fill="hsl(350, 80%, 65%)" />
<circle cx="254.77" cy="339.93" r="5" fill="hsl(0, 80%, 65%)" />
<circle cx="199.96" cy="193.00" r="6" fill="hsl(10, 80%, 65%)" />
<circle cx="340.27" cy="264.64" r="2" fill="hsl(20, 80%, 65%)" />
<circle cx="187.72" cy="306.78" r="3" fill="hsl(30, 80%, 65%)" />
<circle cx="272.12" cy="172.06" r="4" fill="hsl(40, 80%, 65%)" />
<circle cx="301.02" cy="329.11" r="5" fill="hsl(50, 80%, 65%)" />
<circle cx="173.06" cy="232.40" r="6" fill="hsl(60, 80%, 65%)" />
<circle cx="333.44" cy="217.21" r="2" fill="hsl(70, 80%, 65%)" />
<circle cx="224.97" cy="337.27" r="3" fill="hsl(80, 80%, 65%)" />
<circle cx="223.85" cy="174.77" r="4" fill="hsl(90, 80%, 65%)" />
<circle cx="334.91" cy="294.35" r="5" fill="hsl(100, 80%, 65%)" />
<circle cx="171.55" cy="281.14" r="6" fill="hsl(110, 80%, 65%)" />
<circle cx="301.48" cy="180.11" r="2" fill="hsl(120, 80%, 65%)" />
<circle cx="273.80" cy="343.04" r="3" fill="hsl(130, 80%, 65%)" />
<circle cx="183.78" cy="203.63" r="4" fill="hsl(140, 80%, 65%)" />
<circle cx="344.99" cy="245.79" r="5" fill="hsl(150, 80%, 65%)" />
<circle cx="197.04" cy="323.92" r="6" fill="hsl(160, 80%, 65%)" />
<circle cx="253.59" cy="165.73" r="2" fill="hsl(170, 80%, 65%)" />
<circle cx="319.00" cy="321.19" r="3" fill="hsl(180, 80%, 65%)" />
<circle cx="165.15" cy="250.47" r="4" fill="hsl(190, 80%, 65%)" />
<circle cx="327.01" cy="198.49" r="5" fill="hsl(200, 80%, 65%)" />
<circle cx="242.44" cy="346.73" r="6" fill="hsl(210, 80%, 65%)" />
<circle cx="204.52" cy="179.65" r="2" fill="hsl(220, 80%, 65%)" />
<circle cx="345.88" cy="277.61" r="3" fill="hsl(230, 80%, 65%)" />
<circle cx="174.82" cy="300.95" r="4" fill="hsl(240, 80%, 65%)" />
<circle cx="285.61" cy="167.68" r="5" fill="hsl(250, 80%, 65%)" />
<circle cx="293.97" cy="341.44" r="6" fill="hsl(260, 80%, 65%)" />
<circle cx="169.97" cy="218.51" r="2" fill="hsl(270, 80%, 65%)" />
<circle cx="345.09" cy="225.42" r="3" fill="hsl(280, 80%, 65%)" />
<circle cx="210.80" cy="339.03" r="4" fill="hsl(290, 80%, 65%)" />
<circle cx="233.16" cy="163.91" r="5" fill="hsl(300, 80%, 65%)" />
<circle cx="335.33" cy="308.67" r="6" fill="hsl(310, 80%, 65%)" />
<circle cx="161.59" cy="270.81" r="2" fill="hsl(320, 80%, 65%)" />
<circle cx="315.83" cy="181.04" r="3" fill="hsl(330, 80%, 65%)" />
<circle cx="262.54" cy="352.02" r="4" fill="hsl(340, 80%, 65%)" />
<circle cx="186.07" cy="189.38" r="5" fill="hsl(350, 80%, 65%)" />
<circle cx="352.90" cy="257.89" r="6" fill="hsl(0, 80%, 65%)" />
<circle cx="183.02" cy="320.28" r="2" fill="hsl(10, 80%, 65%)" />
<circle cx="266.43" cy="158.97" r="3" fill="hsl(20, 80%, 65%)" />
<circle cx="314.05" cy="334.86" r="4" fill="hsl(30, 80%, 65%)" />
<circle cx="159.60" cy="237.00" r="5" fill="hsl(40, 80%, 65%)" />
<circle cx="340.20" cy="204.72" r="6" fill="hsl(50, 80%, 65%)" />
<circle cx="228.46" cy="351.01" r="2" fill="hsl(60, 80%, 65%)" />
<circle cx="211.98" cy="167.05" r="3" fill="hsl(70, 80%, 65%)" />
<circle cx="348.85" cy="291.98" r="4" fill="hsl(80, 80%, 65%)" />
<circle cx="162.93" cy="292.31" r="5" fill="hsl(90, 80%, 65%)" />
<circle cx="300.25" cy="166.06" r="6" fill="hsl(100, 80%, 65%)" />
<circle cx="284.22" cy="352.51" r="2" fill="hsl(110, 80%, 65%)" />
<circle cx="169.72" cy="203.73" r="3" fill="hsl(120, 80%, 65%)" />
<circle cx="355.25" cy="236.20" r="4" fill="hsl(130, 80%, 65%)" />
<circle cx="196.00" cy="337.90" r="5" fill="hsl(140, 80%, 65%)" />
<circle cx="244.89" cy="154.76" r="6" fill="hsl(150, 80%, 65%)" />
<circle cx="332.82" cy="323.35" r="2" fill="hsl(160, 80%, 65%)" />
<circle cx="153.54" cy="258.24" r="3" fill="hsl(170, 80%, 65%)" />
<circle cx="330.27" cy="184.92" r="4" fill="hsl(180, 80%, 65%)" />
<circle cx="249.23" cy="358.89" r="5" fill="hsl(190, 80%, 65%)" />
<circle cx="191.29" cy="175.31" r="6" fill="hsl(200, 80%, 65%)" />
<circle cx="358.53" cy="271.84" r="2" fill="hsl(210, 80%, 65%)" />
<circle cx="169.44" cy="313.75" r="3" fill="hsl(220, 80%, 65%)" />
<circle cx="280.89" cy="154.64" r="4" fill="hsl(230, 80%, 65%)" />
<circle cx="306.27" cy="347.83" r="5" fill="hsl(240, 80%, 65%)" />
<circle cx="156.61" cy="222.14" r="6" fill="hsl(250, 80%, 65%)" />
<circle cx="352.44" cy="213.71" r="2" fill="hsl(260, 80%, 65%)" />
<circle cx="213.33" cy="352.61" r="3" fill="hsl(270, 80%, 65%)" />
<circle cx="222.10" cy="155.65" r="4" fill="hsl(280, 80%, 65%)" />
<circle cx="349.05" cy="307.25" r="5" fill="hsl(290, 80%, 65%)" />
<circle cx="152.47" cy="281.14" r="6" fill="hsl(300, 80%, 65%)" />
<circle cx="315.53" cy="167.27" r="2" fill="hsl(310, 80%, 65%)" />
<circle cx="272.08" cy="361.94" r="3" fill="hsl(320, 80%, 65%)" />
<circle cx="172.34" cy="188.56" r="4" fill="hsl(330, 80%, 65%)" />
<circle cx="363.54" cy="249.20" r="5" fill="hsl(340, 80%, 65%)" />
<circle cx="181.09" cy="333.88" r="6" fill="hsl(350, 80%, 65%)" />
<circle cx="258.64" cy="147.67" r="2" fill="hsl(0, 80%, 65%)" />
<circle cx="327.42" cy="337.89" r="3" fill="hsl(10, 80%, 65%)" />
<circle cx="147.72" cy="243.83" r="4" fill="hsl(20, 80%, 65%)" />
<circle cx="344.30" cy="191.66" r="5" fill="hsl(30, 80%, 65%)" />
<circle cx="234.29" cy="363.39" r="6" fill="hsl(40, 80%, 65%)" />
<circle cx="199.32" cy="161.90" r="2" fill="hsl(50, 80%, 65%)" />
<circle cx="361.65" cy="287.18" r="3" fill="hsl(60, 80%, 65%)" />
<circle cx="156.77" cy="304.50" r="4" fill="hsl(70, 80%, 65%)" />
<circle cx="296.51" cy="152.93" r="5" fill="hsl(80, 80%, 65%)" />
<circle cx="295.85" cy="359.64" r="6" fill="hsl(90, 80%, 65%)" />
<circle cx="156.35" cy="206.37" r="2" fill="hsl(100, 80%, 65%)" />
<circle cx="363.29" cy="225.20" r="3" fill="hsl(110, 80%, 65%)" />
<circle cx="197.54" cy="351.43" r="4" fill="hsl(120, 80%, 65%)" />
<circle cx="234.59" cy="145.86" r="5" fill="hsl(130, 80%, 65%)" />
<circle cx="346.42" cy="322.93" r="6" fill="hsl(140, 80%, 65%)" />
<circle cx="143.83" cy="267.76" r="2" fill="hsl(150, 80%, 65%)" />
<circle cx="330.96" cy="171.34" r="3" fill="hsl(160, 80%, 65%)" />
<circle cx="257.92" cy="369.35" r="4" fill="hsl(170, 80%, 65%)" />
<circle cx="177.82" cy="173.51" r="5" fill="hsl(180, 80%, 65%)" />
<circle cx="369.65" cy="264.04" r="6" fill="hsl(190, 80%, 65%)" />
<circle cx="166.54" cy="327.02" r="2" fill="hsl(200, 80%, 65%)" />
<circle cx="274.03" cy="142.92" r="3" fill="hsl(210, 80%, 65%)" />
<circle cx="319.24" cy="351.80" r="4" fill="hsl(220, 80%, 65%)" />
<circle cx="144.38" cy="228.01" r="5" fill="hsl(230, 80%, 65%)" />
<circle cx="357.46" cy="201.10" r="6" fill="hsl(240, 80%, 65%)" />
<circle cx="218.18" cy="365.28" r="2" fill="hsl(250, 80%, 65%)" />
<circle cx="209.96" cy="149.61" r="3" fill="hsl(260, 80%, 65%)" />
<circle cx="362.07" cy="303.46" r="4" fill="hsl(270, 80%, 65%)" />
<circle cx="145.46" cy="292.74" r="5" fill="hsl(280, 80%, 65%)" />
<circle cx="312.83" cy="154.00" r="6" fill="hsl(290, 80%, 65%)" />
<circle cx="283.06" cy="369.87" r="2" fill="hsl(300, 80%, 65%)" />
<circle cx="158.89" cy="190.16" r="3" fill="hsl(310, 80%, 65%)" />
<circle cx="372.35" cy="238.91" r="4" fill="hsl(320, 80%, 65%)" />
<circle cx="181.57" cy="347.41" r="5" fill="hsl(330, 80%, 65%)" />
<circle cx="249.12" cy="138.05" r="6" fill="hsl(340, 80%, 65%)" />
<circle cx="340.95" cy="338.52" r="2" fill="hsl(350, 80%, 65%)" />
<circle cx="137.35" cy="252.53" r="3" fill="hsl(0, 80%, 65%)" />
<circle cx="346.05" cy="178.23" r="4" fill="hsl(10, 80%, 65%)" />
<circle cx="242.10" cy="374.44" r="5" fill="hsl(20, 80%, 65%)" />
<circle cx="186.08" cy="159.06" r="6" fill="hsl(30, 80%, 65%)" />
<circle cx="373.30" cy="280.31" r="2" fill="hsl(40, 80%, 65%)" />
<circle cx="152.85" cy="317.45" r="3" fill="hsl(50, 80%, 65%)" />
<circle cx="290.63" cy="140.75" r="4" fill="hsl(60, 80%, 65%)" />
<circle cx="308.43" cy="364.62" r="5" fill="hsl(70, 80%, 65%)" />
<circle cx="143.72" cy="211.23" r="6" fill="hsl(80, 80%, 65%)" />
<circle cx="369.29" cy="213.07" r="2" fill="hsl(90, 80%, 65%)" />
<circle cx="201.34" cy="364.42" r="3" fill="hsl(100, 80%, 65%)" />
<circle cx="222.99" cy="138.87" r="4" fill="hsl(110, 80%, 65%)" />
<circle cx="359.68" cy="320.21" r="5" fill="hsl(120, 80%, 65%)" />
<circle cx="135.91" cy="278.74" r="6" fill="hsl(130, 80%, 65%)" />
<circle cx="329.35" cy="157.90" r="2" fill="hsl(140, 80%, 65%)" />
<circle cx="268.21" cy="378.15" r="3" fill="hsl(150, 80%, 65%)" />
<circle cx="164.29" cy="174.00" r="4" fill="hsl(160, 80%, 65%)" />
<circle cx="379.28" cy="254.51" r="5" fill="hsl(170, 80%, 65%)" />
<circle cx="165.91" cy="340.55" r="6" fill="hsl(180, 80%, 65%)" />
<circle cx="265.34" cy="132.54" r="2" fill="hsl(190, 80%, 65%)" />
<circle cx="332.68" cy="353.55" r="3" fill="hsl(200, 80%, 65%)" />
<circle cx="133.31" cy="235.82" r="4" fill="hsl(210, 80%, 65%)" />
<circle cx="360.32" cy="187.86" r="5" fill="hsl(220, 80%, 65%)" />
<circle cx="225.04" cy="376.96" r="6" fill="hsl(230, 80%, 65%)" />
<circle cx="196.99" cy="145.66" r="2" fill="hsl(240, 80%, 65%)" />
<circle cx="374.29" cy="297.59" r="3" fill="hsl(250, 80%, 65%)" />
<circle cx="140.45" cy="305.34" r="4" fill="hsl(260, 80%, 65%)" />
<circle cx="307.98" cy="141.33" r="5" fill="hsl(270, 80%, 65%)" />
<circle cx="295.21" cy="375.92" r="6" fill="hsl(280, 80%, 65%)" />
<circle cx="145.86" cy="193.94" r="2" fill="hsl(290, 80%, 65%)" />
<circle cx="379.39" cy="227.31" r="3" fill="hsl(300, 80%, 65%)" />
<circle cx="184.25" cy="360.71" r="4" fill="hsl(310, 80%, 65%)" />
<circle cx="238.13" cy="130.07" r="5" fill="hsl(320, 80%, 65%)" />
<circle cx="354.44" cy="336.95" r="6" fill="hsl(330, 80%, 65%)" />
<circle cx="128.48" cy="262.81" r="2" fill="hsl(340, 80%, 65%)" />
<circle cx="345.61" cy="164.65" r="3" fill="hsl(350, 80%, 65%)" />
<circle cx="251.62" cy="384.14" r="4" fill="hsl(0, 80%, 65%)" />
<circle cx="172.51" cy="158.36" r="5" fill="hsl(10, 80%, 65%)" />
<circle cx="383.77" cy="271.62" r="6" fill="hsl(20, 80%, 65%)" />
<circle cx="151.03" cy="330.93" r="2" fill="hsl(30, 80%, 65%)" />
<circle cx="282.84" cy="129.59" r="3" fill="hsl(40, 80%, 65%)" />
<circle cx="321.73" cy="367.56" r="4" fill="hsl(50, 80%, 65%)" />
<circle cx="131.94" cy="218.06" r="5" fill="hsl(60, 80%, 65%)" />
<circle cx="373.33" cy="200.06" r="6" fill="hsl(70, 80%, 65%)" />
<circle cx="207.17" cy="376.73" r="2" fill="hsl(80, 80%, 65%)" />
<circle cx="210.36" cy="133.76" r="3" fill="hsl(90, 80%, 65%)" />
<circle cx="372.45" cy="315.42" r="4" fill="hsl(100, 80%, 65%)" />
<circle cx="129.76" cy="290.91" r="5" fill="hsl(110, 80%, 65%)" />
<circle cx="325.64" cy="144.77" r="6" fill="hsl(120, 80%, 65%)" />
<circle cx="279.83" cy="385.30" r="2" fill="hsl(130, 80%, 65%)" />
<circle cx="150.89" cy="176.60" r="3" fill="hsl(140, 80%, 65%)" />
<circle cx="387.38" cy="243.52" r="4" fill="hsl(150, 80%, 65%)" />
<circle cx="167.39" cy="354.14" r="5" fill="hsl(160, 80%, 65%)" />
<circle cx="255.05" cy="123.54" r="6" fill="hsl(170, 80%, 65%)" />
<circle cx="346.35" cy="353.21" r="2" fill="hsl(180, 80%, 65%)" />
<circle cx="123.47" cy="245.33" r="3" fill="hsl(190, 80%, 65%)" />
<circle cx="361.13" cy="174.20" r="4" fill="hsl(200, 80%, 65%)" />
<circle cx="233.70" cy="387.57" r="5" fill="hsl(210, 80%, 65%)" />
<circle cx="183.43" cy="143.71" r="6" fill="hsl(220, 80%, 65%)" />
<circle cx="385.59" cy="289.84" r="2" fill="hsl(230, 80%, 65%)" />
<circle cx="137.37" cy="318.70" r="3" fill="hsl(240, 80%, 65%)" />
<circle cx="301.20" cy="129.40" r="4" fill="hsl(250, 80%, 65%)" />
<circle cx="308.28" cy="380.11" r="5" fill="hsl(260, 80%, 65%)" />
<circle cx="133.40" cy="199.70" r="6" fill="hsl(270, 80%, 65%)" />
<circle cx="384.66" cy="214.63" r="2" fill="hsl(280, 80%, 65%)" />
<circle cx="188.96" cy="373.63" r="3" fill="hsl(290, 80%, 65%)" />
<circle cx="225.93" cy="123.74" r="4" fill="hsl(300, 80%, 65%)" />
<circle cx="367.71" cy="333.34" r="5" fill="hsl(310, 80%, 65%)" />
<circle cx="121.15" cy="274.46" r="6" fill="hsl(320, 80%, 65%)" />
<circle cx="343.12" cy="151.11" r="2" fill="hsl(330, 80%, 65%)" />
<circle cx="262.62" cy="392.43" r="3" fill="hsl(340, 80%, 65%)" />
<circle cx="158.79" cy="159.71" r="4" fill="hsl(350, 80%, 65%)" />
<circle cx="392.96" cy="261.35" r="5" fill="hsl(0, 80%, 65%)" />
</svg>
