<svg xmlns="http://www.w3.org/2000/svg" width="512" height="512" viewBox="0 0 512 512">
<rect width="100%" height="100%" fill="#0b1020"/>
<circle cx="458" cy="107" r="56" fill="#f8f3c9" opacity="0.95" />
<circle cx="456.0" cy="38.0" r="2.2" fill="white" />
<circle cx="289.0" cy="92.0" r="3.2" fill="white" />
<circle cx="349.0" cy="153.0" r="2.2" fill="white" />
<circle cx="411.0" cy="145.0" r="2.8" fill="white" />
<circle cx="421.0" cy="50.0" r="3.0" fill="white" />
<circle cx="99.0" cy="29.0" r="2.6" fill="white" />
<circle cx="426.0" cy="147.0" r="2.7" fill="white" />
<circle cx="235.0" cy="153.0" r="2.8" fill="white" />
<circle cx="118.0" cy="79.0" r="1.5" fill="white" />
<circle cx="83.0" cy="144.0" r="3.0" fill="white" />
<circle cx="388.0" cy="53.0" r="3.3" fill="white" />
<circle cx="435.0" cy="179.0" r="2.4" fill="white" />
<circle cx="246.0" cy="86.0" r="2.3" fill="white" />
<path d="M 20 430 C 131 422, 185 445, 283 420 S 450 394, 512 424" stroke="#5dade2" stroke-width="7" fill="none" opacity="0.85" />
<line x1="0" y1="393" x2="512" y2="393" stroke="#445566" stroke-width="2" />
<polygon points="197,357 237,297 277,317 297,287 317,307 329,347 297,369 247,373" fill="#1e1e1e" />
<polygon points="272,297 285,275 295,299" fill="#1e1e1e" />
<line x1="327" y1="342" x2="357" y2="317" stroke="#1e1e1e" stroke-width="6" />
</svg>
