<svg xmlns="http://www.w3.org/2000/svg" width="512" height="512" viewBox="0 0 512 512">
<rect width="100%" height="100%" fill="black"/>
<circle cx="256" cy="256" r="18" fill="gold" />
<line x1="256" y1="256" x2="475.00" y2="256.00" stroke="hsl(0, 85%, 65%)" stroke-width="2"/>
<line x1="256" y1="256" x2="470.21" y2="301.53" stroke="hsl(10, 85%, 65%)" stroke-width="2"/>
<circle cx="493.69" cy="303.20" r="4" fill="hsl(10, 85%, 65%)" />
<line x1="256" y1="256" x2="456.07" y2="345.08" stroke="hsl(20, 85%, 65%)" stroke-width="3"/>
<circle cx="480.73" cy="351.58" r="6" fill="hsl(20, 85%, 65%)" />
<line x1="256" y1="256" x2="433.17" y2="384.72" stroke="hsl(24, 85%, 65%)" stroke-width="1"/>
<circle cx="448.55" cy="389.43" r="4" fill="hsl(24, 85%, 65%)" />
<line x1="256" y1="256" x2="402.54" y2="418.75" stroke="hsl(40, 85%, 65%)" stroke-width="1"/>
<circle cx="409.90" cy="435.10" r="3" fill="hsl(40, 85%, 65%)" />
<line x1="256" y1="256" x2="365.50" y2="445.66" stroke="hsl(45, 85%, 65%)" stroke-width="1"/>
<circle cx="374.00" cy="469.04" r="4" fill="hsl(45, 85%, 65%)" />
<line x1="256" y1="256" x2="323.67" y2="464.28" stroke="hsl(66, 85%, 65%)" stroke-width="3"/>
<circle cx="331.09" cy="473.79" r="6" fill="hsl(66, 85%, 65%)" />
<line x1="256" y1="256" x2="278.89" y2="473.80" stroke="hsl(63, 85%, 65%)" stroke-width="2"/>
<circle cx="280.88" cy="493.69" r="7" fill="hsl(63, 85%, 65%)" />
<line x1="256" y1="256" x2="233.11" y2="473.80" stroke="hsl(72, 85%, 65%)" stroke-width="1"/>
<line x1="256" y1="256" x2="188.33" y2="464.28" stroke="hsl(72, 85%, 65%)" stroke-width="3"/>
<circle cx="183.69" cy="472.84" r="6" fill="hsl(72, 85%, 65%)" />
<line x1="256" y1="256" x2="146.50" y2="445.66" stroke="hsl(120, 85%, 65%)" stroke-width="3"/>
<circle cx="134.50" cy="461.25" r="5" fill="hsl(120, 85%, 65%)" />
<line x1="256" y1="256" x2="109.46" y2="418.75" stroke="hsl(143, 85%, 65%)" stroke-width="1"/>
<circle cx="91.39" cy="437.33" r="6" fill="hsl(143, 85%, 65%)" />
<line x1="256" y1="256" x2="78.83" y2="384.72" stroke="hsl(156, 85%, 65%)" stroke-width="1"/>
<circle cx="63.45" cy="397.66" r="3" fill="hsl(156, 85%, 65%)" />
<line x1="256" y1="256" x2="55.93" y2="345.08" stroke="hsl(104, 85%, 65%)" stroke-width="3"/>
<line x1="256" y1="256" x2="41.79" y2="301.53" stroke="hsl(140, 85%, 65%)" stroke-width="1"/>
<circle cx="25.16" cy="303.20" r="4" fill="hsl(140, 85%, 65%)" />
<line x1="256" y1="256" x2="37.00" y2="256.00" stroke="hsl(135, 85%, 65%)" stroke-width="1"/>
<line x1="256" y1="256" x2="41.79" y2="210.47" stroke="hsl(144, 85%, 65%)" stroke-width="3"/>
<line x1="256" y1="256" x2="55.93" y2="166.92" stroke="hsl(238, 85%, 65%)" stroke-width="1"/>
<circle cx="32.18" cy="156.35" r="5" fill="hsl(238, 85%, 65%)" />
<line x1="256" y1="256" x2="78.83" y2="127.28" stroke="hsl(180, 85%, 65%)" stroke-width="1"/>
<line x1="256" y1="256" x2="109.46" y2="93.25" stroke="hsl(266, 85%, 65%)" stroke-width="2"/>
<circle cx="104.11" cy="82.10" r="6" fill="hsl(266, 85%, 65%)" />
<line x1="256" y1="256" x2="146.50" y2="66.34" stroke="hsl(160, 85%, 65%)" stroke-width="3"/>
<circle cx="138.50" cy="44.69" r="5" fill="hsl(160, 85%, 65%)" />
<line x1="256" y1="256" x2="188.33" y2="47.72" stroke="hsl(147, 85%, 65%)" stroke-width="2"/>
<circle cx="185.54" cy="30.60" r="3" fill="hsl(147, 85%, 65%)" />
<line x1="256" y1="256" x2="233.11" y2="38.20" stroke="hsl(198, 85%, 65%)" stroke-width="1"/>
<circle cx="231.23" cy="21.29" r="7" fill="hsl(198, 85%, 65%)" />
<line x1="256" y1="256" x2="278.89" y2="38.20" stroke="hsl(161, 85%, 65%)" stroke-width="1"/>
<circle cx="280.88" cy="18.31" r="5" fill="hsl(161, 85%, 65%)" />
<line x1="256" y1="256" x2="323.67" y2="47.72" stroke="hsl(168, 85%, 65%)" stroke-width="2"/>
<line x1="256" y1="256" x2="365.50" y2="66.34" stroke="hsl(300, 85%, 65%)" stroke-width="2"/>
<circle cx="375.50" cy="49.89" r="5" fill="hsl(300, 85%, 65%)" />
<line x1="256" y1="256" x2="402.54" y2="93.25" stroke="hsl(30, 85%, 65%)" stroke-width="3"/>
<circle cx="420.61" cy="79.87" r="5" fill="hsl(30, 85%, 65%)" />
<line x1="256" y1="256" x2="433.17" y2="127.28" stroke="hsl(297, 85%, 65%)" stroke-width="2"/>
<line x1="256" y1="256" x2="456.07" y2="166.92" stroke="hsl(60, 85%, 65%)" stroke-width="2"/>
<circle cx="481.65" cy="157.57" r="3" fill="hsl(60, 85%, 65%)" />
<line x1="256" y1="256" x2="470.21" y2="210.47" stroke="hsl(348, 85%, 65%)" stroke-width="1"/>
<circle cx="496.62" cy="206.10" r="6" fill="hsl(348, 85%, 65%)" />
</svg>
