<svg xmlns="http://www.w3.org/2000/svg" width="512" height="512" viewBox="0 0 512 512">
<rect width="100%" height="100%" fill="#0b1020"/>
<circle cx="348" cy="75" r="55" fill="#f8f3c9" opacity="0.95" />
<circle cx="83.0" cy="107.0" r="1.5" fill="white" />
<circle cx="483.0" cy="69.0" r="3.3" fill="white" />
<circle cx="98.0" cy="52.0" r="3.0" fill="white" />
<circle cx="223.0" cy="78.0" r="2.3" fill="white" />
<circle cx="457.0" cy="120.0" r="2.4" fill="white" />
<circle cx="384.0" cy="163.0" r="1.9" fill="white" />
<circle cx="339.0" cy="66.0" r="3.2" fill="white" />
<circle cx="236.0" cy="172.0" r="1.9" fill="white" />
<circle cx="150.0" cy="24.0" r="3.0" fill="white" />
<circle cx="216.0" cy="26.0" r="2.4" fill="white" />
<circle cx="236.0" cy="57.0" r="3.5" fill="white" />
<path d="M 20 430 C 120 419, 181 450, 313 434 S 450 401, 512 431" stroke="#5dade2" stroke-width="6" fill="none" opacity="0.85" />
<line x1="0" y1="409" x2="512" y2="409" stroke="#445566" stroke-width="3" />
<polygon points="205,355 245,295 285,315 305,285 325,305 337,345 305,367 255,371" fill="#1e1e1e" />
<polygon points="280,295 293,273 303,297" fill="#1e1e1e" />
<line x1="335" y1="340" x2="365" y2="315" stroke="#1e1e1e" stroke-width="6" />
</svg>
