<svg xmlns="http://www.w3.org/2000/svg" width="512" height="512" viewBox="0 0 512 512">
<rect width="100%" height="100%" fill="#0b1020"/>
<circle cx="436" cy="127" r="48" fill="#f8f3c9" opacity="0.95" />
<circle cx="86.0" cy="23.0" r="1.5" fill="white" />
<circle cx="448.0" cy="90.0" r="2.8" fill="white" />
<circle cx="21.0" cy="109.0" r="3.3" fill="white" />
<circle cx="449.0" cy="176.0" r="3.4" fill="white" />
<circle cx="83.0" cy="94.0" r="1.9" fill="white" />
<path d="M 20 430 C 119 420, 178 451, 295 424 S 450 383, 512 413" stroke="#5dade2" stroke-width="5" fill="none" opacity="0.85" />
<line x1="0" y1="394" x2="512" y2="394" stroke="#445566" stroke-width="4" />
<polygon points="162,352 202,292 242,312 262,282 282,302 294,342 262,364 212,368" fill="#1e1e1e" />
<polygon points="237,292 250,270 260,294" fill="#1e1e1e" />
<line x1="292" y1="337" x2="322" y2="312" stroke="#1e1e1e" stroke-width="6" />
</svg>
