<svg xmlns="http://www.w3.org/2000/svg" width="512" height="512" viewBox="0 0 512 512">
<rect width="100%" height="100%" fill="#0b1020"/>
<circle cx="352" cy="65" r="53" fill="#f8f3c9" opacity="0.95" />
<circle cx="308.0" cy="167.0" r="2.6" fill="white" />
<circle cx="252.0" cy="51.0" r="2.9" fill="white" />
<circle cx="312.0" cy="128.0" r="3.0" fill="white" />
<circle cx="65.0" cy="103.0" r="2.4" fill="white" />
<circle cx="242.0" cy="180.0" r="1.7" fill="white" />
<circle cx="298.0" cy="158.0" r="2.9" fill="white" />
<circle cx="286.0" cy="82.0" r="1.7" fill="white" />
<circle cx="169.0" cy="29.0" r="2.3" fill="white" />
<circle cx="208.0" cy="87.0" r="3.0" fill="white" />
<circle cx="410.0" cy="47.0" r="2.3" fill="white" />
<circle cx="216.0" cy="164.0" r="1.6" fill="white" />
<path d="M 20 430 C 127 422, 174 445, 309 422 S 450 377, 512 407" stroke="#5dade2" stroke-width="8" fill="none" opacity="0.85" />
<line x1="0" y1="409" x2="512" y2="409" stroke="#445566" stroke-width="2" />
<polygon points="168,364 208,304 248,324 268,294 288,314 300,354 268,376 218,380" fill="#1e1e1e" />
<polygon points="243,304 256,282 266,306" fill="#1e1e1e" />
<line x1="298" y1="349" x2="328" y2="324" stroke="#1e1e1e" stroke-width="6" />
</svg>
