<svg xmlns="http://www.w3.org/2000/svg" width="512" height="512" viewBox="0 0 512 512">
<rect width="100%" height="100%" fill="#0b1020"/>
<circle cx="348" cy="75" r="46" fill="#f8f3c9" opacity="0.95" />
<circle cx="44.0" cy="66.0" r="2.7" fill="white" />
<circle cx="275.0" cy="125.0" r="3.3" fill="white" />
<circle cx="409.0" cy="146.0" r="3.1" fill="white" />
<circle cx="169.0" cy="57.0" r="2.1" fill="white" />
<circle cx="306.0" cy="34.0" r="3.2" fill="white" />
<path d="M 20 430 C 134 415, 163 449, 287 424 S 450 402, 512 432" stroke="#5dade2" stroke-width="8" fill="none" opacity="0.85" />
<line x1="0" y1="399" x2="512" y2="399" stroke="#445566" stroke-width="4" />
<polygon points="155,358 195,298 235,318 255,288 275,308 287,348 255,370 205,374" fill="#1e1e1e" />
<polygon points="230,298 243,276 253,300" fill="#1e1e1e" />
<line x1="285" y1="343" x2="315" y2="318" stroke="#1e1e1e" stroke-width="6" />
</svg>
