<svg xmlns="http://www.w3.org/2000/svg" width="512" height="512" viewBox="0 0 512 512">
<rect width="100%" height="100%" fill="#0b1020"/>
<circle cx="436" cy="97" r="49" fill="#f8f3c9" opacity="0.95" />
<circle cx="236.0" cy="98.0" r="2.5" fill="white" />
<circle cx="460.0" cy="79.0" r="3.1" fill="white" />
<circle cx="278.0" cy="169.0" r="2.6" fill="white" />
<circle cx="265.0" cy="116.0" r="2.0" fill="white" />
<circle cx="58.0" cy="71.0" r="2.7" fill="white" />
<circle cx="338.0" cy="53.0" r="2.9" fill="white" />
<circle cx="369.0" cy="171.0" r="1.9" fill="white" />
<circle cx="80.0" cy="123.0" r="1.7" fill="white" />
<circle cx="184.0" cy="77.0" r="3.0" fill="white" />
<circle cx="242.0" cy="117.0" r="1.8" fill="white" />
<circle cx="31.0" cy="146.0" r="2.8" fill="white" />
<circle cx="389.0" cy="148.0" r="2.1" fill="white" />
<path d="M 20 430 C 124 412, 191 447, 299 437 S 450 376, 512 406" stroke="#5dade2" stroke-width="8" fill="none" opacity="0.85" />
<line x1="0" y1="410" x2="512" y2="410" stroke="#445566" stroke-width="3" />
<polygon points="164,356 204,296 244,316 264,286 284,306 296,346 264,368 214,372" fill="#1e1e1e" />
<polygon points="239,296 252,274 262,298" fill="#1e1e1e" />
<line x1="294" y1="341" x2="324" y2="316" stroke="#1e1e1e" stroke-width="6" />
</svg>
