<svg xmlns="http://www.w3.org/2000/svg" width="512" height="512" viewBox="0 0 512 512">
<rect width="100%" height="100%" fill="#0b1020"/>
<circle cx="426" cy="112" r="40" fill="#f8f3c9" opacity="0.95" />
<circle cx="443.0" cy="40.0" r="3.1" fill="white" />
<circle cx="173.0" cy="175.0" r="1.9" fill="white" />
<circle cx="228.0" cy="153.0" r="1.9" fill="white" />
<circle cx="160.0" cy="144.0" r="2.0" fill="white" />
<circle cx="382.0" cy="55.0" r="2.3" fill="white" />
<circle cx="100.0" cy="52.0" r="3.1" fill="white" />
<circle cx="302.0" cy="56.0" r="3.0" fill="white" />
<circle cx="24.0" cy="104.0" r="2.3" fill="white" />
<circle cx="40.0" cy="97.0" r="3.1" fill="white" />
<circle cx="230.0" cy="140.0" r="2.0" fill="white" />
<circle cx="268.0" cy="142.0" r="2.8" fill="white" />
<circle cx="172.0" cy="96.0" r="2.4" fill="white" />
<circle cx="252.0" cy="74.0" r="1.9" fill="white" />
<circle cx="331.0" cy="88.0" r="3.2" fill="white" />
<path d="M 20 430 C 117 426, 200 446, 286 438 S 450 400, 512 430" stroke="#5dade2" stroke-width="8" fill="none" opacity="0.85" />
<line x1="0" y1="394" x2="512" y2="394" stroke="#445566" stroke-width="3" />
<polygon points="193,351 233,291 273,311 293,281 313,301 325,341 293,363 243,367" fill="#1e1e1e" />
<polygon points="268,291 281,269 291,293" fill="#1e1e1e" />
<line x1="323" y1="336" x2="353" y2="311" stroke="#1e1e1e" stroke-width="6" />
</svg>
