<svg xmlns="http://www.w3.org/2000/svg" width="512" height="512" viewBox="0 0 512 512">
<rect width="100%" height="100%" fill="black"/>
<circle cx="92" cy="414" r="7" fill="hsl(0, 80%, 65%)" />
<circle cx="364" cy="321" r="4" fill="hsl(9, 80%, 65%)" />
<circle cx="141" cy="234" r="8" fill="hsl(18, 80%, 65%)" />
<circle cx="72" cy="119" r="7" fill="hsl(27, 80%, 65%)" />
<circle cx="243" cy="71" r="5" fill="hsl(36, 80%, 65%)" />
<circle cx="393" cy="259" r="7" fill="hsl(45, 80%, 65%)" />
<circle cx="126" cy="89" r="5" fill="hsl(54, 80%, 65%)" />
<circle cx="98" cy="294" r="4" fill="hsl(63, 80%, 65%)" />
<circle cx="138" cy="245" r="6" fill="hsl(72, 80%, 65%)" />
<circle cx="421" cy="106" r="4" fill="hsl(81, 80%, 65%)" />
<circle cx="343" cy="304" r="8" fill="hsl(90, 80%, 65%)" />
<circle cx="154" cy="361" r="8" fill="hsl(99, 80%, 65%)" />
<circle cx="212" cy="201" r="5" fill="hsl(108, 80%, 65%)" />
<circle cx="421" cy="172" r="2" fill="hsl(117, 80%, 65%)" />
<circle cx="223" cy="425" r="8" fill="hsl(126, 80%, 65%)" />
<circle cx="129" cy="122" r="5" fill="hsl(135, 80%, 65%)" />
<circle cx="297" cy="85" r="6" fill="hsl(144, 80%, 65%)" />
<circle cx="291" cy="427" r="8" fill="hsl(153, 80%, 65%)" />
<circle cx="378" cy="365" r="3" fill="hsl(162, 80%, 65%)" />
<circle cx="254" cy="77" r="3" fill="hsl(171, 80%, 65%)" />
<circle cx="123" cy="152" r="7" fill="hsl(180, 80%, 65%)" />
<circle cx="404" cy="257" r="3" fill="hsl(189, 80%, 65%)" />
<circle cx="241" cy="357" r="4" fill="hsl(198, 80%, 65%)" />
<circle cx="193" cy="258" r="2" fill="hsl(207, 80%, 65%)" />
<circle cx="146" cy="267" r="2" fill="hsl(216, 80%, 65%)" />
<circle cx="236" cy="256" r="2" fill="hsl(225, 80%, 65%)" />
<circle cx="165" cy="389" r="7" fill="hsl(234, 80%, 65%)" />
<circle cx="88" cy="212" r="4" fill="hsl(243, 80%, 65%)" />
<circle cx="428" cy="351" r="7" fill="hsl(252, 80%, 65%)" />
<circle cx="348" cy="121" r="5" fill="hsl(261, 80%, 65%)" />
<circle cx="85" cy="210" r="2" fill="hsl(270, 80%, 65%)" />
<circle cx="88" cy="427" r="4" fill="hsl(279, 80%, 65%)" />
<circle cx="193" cy="172" r="6" fill="hsl(288, 80%, 65%)" />
<circle cx="185" cy="250" r="2" fill="hsl(297, 80%, 65%)" />
<circle cx="289" cy="301" r="7" fill="hsl(306, 80%, 65%)" />
<circle cx="390" cy="180" r="5" fill="hsl(315, 80%, 65%)" />
<circle cx="400" cy="251" r="2" fill="hsl(324, 80%, 65%)" />
<circle cx="154" cy="248" r="4" fill="hsl(333, 80%, 65%)" />
<circle cx="230" cy="174" r="3" fill="hsl(342, 80%, 65%)" />
<circle cx="433" cy="259" r="6" fill="hsl(351, 80%, 65%)" />
<circle cx="142" cy="199" r="8" fill="hsl(0, 80%, 65%)" />
<circle cx="127" cy="248" r="6" fill="hsl(9, 80%, 65%)" />
<circle cx="360" cy="230" r="6" fill="hsl(18, 80%, 65%)" />
<circle cx="294" cy="325" r="3" fill="hsl(27, 80%, 65%)" />
<circle cx="363" cy="164" r="7" fill="hsl(36, 80%, 65%)" />
<circle cx="329" cy="240" r="3" fill="hsl(45, 80%, 65%)" />
<circle cx="414" cy="301" r="4" fill="hsl(54, 80%, 65%)" />
<circle cx="160" cy="291" r="3" fill="hsl(63, 80%, 65%)" />
<circle cx="122" cy="206" r="3" fill="hsl(72, 80%, 65%)" />
<circle cx="104" cy="416" r="2" fill="hsl(81, 80%, 65%)" />
<circle cx="351" cy="311" r="8" fill="hsl(90, 80%, 65%)" />
<circle cx="323" cy="85" r="3" fill="hsl(99, 80%, 65%)" />
<circle cx="377" cy="384" r="2" fill="hsl(108, 80%, 65%)" />
<circle cx="313" cy="308" r="7" fill="hsl(117, 80%, 65%)" />
<circle cx="255" cy="171" r="4" fill="hsl(126, 80%, 65%)" />
<circle cx="392" cy="297" r="6" fill="hsl(135, 80%, 65%)" />
<circle cx="314" cy="356" r="2" fill="hsl(144, 80%, 65%)" />
<circle cx="388" cy="390" r="4" fill="hsl(153, 80%, 65%)" />
<circle cx="201" cy="281" r="8" fill="hsl(162, 80%, 65%)" />
<circle cx="341" cy="106" r="6" fill="hsl(171, 80%, 65%)" />
<circle cx="412" cy="235" r="2" fill="hsl(180, 80%, 65%)" />
<circle cx="275" cy="238" r="2" fill="hsl(189, 80%, 65%)" />
<circle cx="425" cy="357" r="8" fill="hsl(198, 80%, 65%)" />
<circle cx="358" cy="122" r="6" fill="hsl(207, 80%, 65%)" />
<circle cx="109" cy="126" r="6" fill="hsl(216, 80%, 65%)" />
<circle cx="97" cy="343" r="7" fill="hsl(225, 80%, 65%)" />
<circle cx="79" cy="135" r="4" fill="hsl(234, 80%, 65%)" />
<circle cx="105" cy="166" r="6" fill="hsl(243, 80%, 65%)" />
<circle cx="104" cy="115" r="6" fill="hsl(252, 80%, 65%)" />
<circle cx="373" cy="250" r="7" fill="hsl(261, 80%, 65%)" />
<circle cx="296" cy="373" r="4" fill="hsl(270, 80%, 65%)" />
<circle cx="293" cy="223" r="3" fill="hsl(279, 80%, 65%)" />
<circle cx="402" cy="334" r="7" fill="hsl(288, 80%, 65%)" />
<circle cx="311" cy="382" r="5" fill="hsl(297, 80%, 65%)" />
<circle cx="337" cy="196" r="8" fill="hsl(306, 80%, 65%)" />
<circle cx="272" cy="302" r="4" fill="hsl(315, 80%, 65%)" />
<circle cx="133" cy="322" r="8" fill="hsl(324, 80%, 65%)" />
<circle cx="186" cy="355" r="7" fill="hsl(333, 80%, 65%)" />
<circle cx="291" cy="303" r="7" fill="hsl(342, 80%, 65%)" />
<circle cx="369" cy="295" r="8" fill="hsl(351, 80%, 65%)" />
<circle cx="420" cy="148" r="5" fill="hsl(0, 80%, 65%)" />
<circle cx="292" cy="161" r="2" fill="hsl(9, 80%, 65%)" />
<circle cx="436" cy="290" r="2" fill="hsl(18, 80%, 65%)" />
<circle cx="440" cy="191" r="6" fill="hsl(27, 80%, 65%)" />
<circle cx="401" cy="397" r="6" fill="hsl(36, 80%, 65%)" />
<circle cx="380" cy="287" r="6" fill="hsl(45, 80%, 65%)" />
<circle cx="402" cy="109" r="3" fill="hsl(54, 80%, 65%)" />
<circle cx="169" cy="355" r="2" fill="hsl(63, 80%, 65%)" />
<circle cx="241" cy="213" r="8" fill="hsl(72, 80%, 65%)" />
<circle cx="353" cy="412" r="2" fill="hsl(81, 80%, 65%)" />
<circle cx="397" cy="341" r="7" fill="hsl(90, 80%, 65%)" />
<circle cx="201" cy="402" r="7" fill="hsl(99, 80%, 65%)" />
<circle cx="174" cy="135" r="7" fill="hsl(108, 80%, 65%)" />
<circle cx="248" cy="433" r="2" fill="hsl(117, 80%, 65%)" />
<circle cx="100" cy="134" r="6" fill="hsl(126, 80%, 65%)" />
<circle cx="439" cy="85" r="2" fill="hsl(135, 80%, 65%)" />
<circle cx="91" cy="121" r="3" fill="hsl(144, 80%, 65%)" />
<circle cx="405" cy="153" r="7" fill="hsl(153, 80%, 65%)" />
<circle cx="222" cy="70" r="3" fill="hsl(162, 80%, 65%)" />
<circle cx="295" cy="434" r="4" fill="hsl(171, 80%, 65%)" />
<circle cx="300" cy="297" r="2" fill="hsl(180, 80%, 65%)" />
<circle cx="167" cy="341" r="7" fill="hsl(189, 80%, 65%)" />
<circle cx="272" cy="411" r="8" fill="hsl(198, 80%, 65%)" />
<circle cx="167" cy="328" r="3" fill="hsl(207, 80%, 65%)" />
<circle cx="352" cy="363" r="6" fill="hsl(216, 80%, 65%)" />
<circle cx="401" cy="280" r="7" fill="hsl(225, 80%, 65%)" />
<circle cx="353" cy="194" r="2" fill="hsl(234, 80%, 65%)" />
<circle cx="278" cy="309" r="4" fill="hsl(243, 80%, 65%)" />
<circle cx="338" cy="89" r="5" fill="hsl(252, 80%, 65%)" />
<circle cx="288" cy="243" r="3" fill="hsl(261, 80%, 65%)" />
<circle cx="301" cy="260" r="7" fill="hsl(270, 80%, 65%)" />
<circle cx="130" cy="104" r="5" fill="hsl(279, 80%, 65%)" />
<circle cx="245" cy="157" r="6" fill="hsl(288, 80%, 65%)" />
<circle cx="84" cy="232" r="7" fill="hsl(297, 80%, 65%)" />
<circle cx="96" cy="422" r="3" fill="hsl(306, 80%, 65%)" />
<circle cx="367" cy="222" r="4" fill="hsl(315, 80%, 65%)" />
<circle cx="310" cy="346" r="6" fill="hsl(324, 80%, 65%)" />
<circle cx="315" cy="192" r="3" fill="hsl(333, 80%, 65%)" />
<circle cx="275" cy="431" r="6" fill="hsl(342, 80%, 65%)" />
<circle cx="164" cy="276" r="5" fill="hsl(351, 80%, 65%)" />
<circle cx="358" cy="104" r="4" fill="hsl(0, 80%, 65%)" />
<circle cx="247" cy="389" r="3" fill="hsl(9, 80%, 65%)" />
<circle cx="91" cy="75" r="2" fill="hsl(18, 80%, 65%)" />
<circle cx="262" cy="270" r="7" fill="hsl(27, 80%, 65%)" />
<circle cx="291" cy="143" r="5" fill="hsl(36, 80%, 65%)" />
<circle cx="357" cy="317" r="2" fill="hsl(45, 80%, 65%)" />
<circle cx="298" cy="112" r="4" fill="hsl(54, 80%, 65%)" />
<circle cx="211" cy="406" r="6" fill="hsl(63, 80%, 65%)" />
<circle cx="206" cy="335" r="8" fill="hsl(72, 80%, 65%)" />
<circle cx="230" cy="412" r="8" fill="hsl(81, 80%, 65%)" />
<circle cx="252" cy="94" r="4" fill="hsl(90, 80%, 65%)" />
<circle cx="245" cy="287" r="3" fill="hsl(99, 80%, 65%)" />
<circle cx="410" cy="411" r="4" fill="hsl(108, 80%, 65%)" />
<circle cx="127" cy="370" r="3" fill="hsl(117, 80%, 65%)" />
<circle cx="94" cy="127" r="6" fill="hsl(126, 80%, 65%)" />
<circle cx="233" cy="164" r="4" fill="hsl(135, 80%, 65%)" />
<circle cx="178" cy="238" r="8" fill="hsl(144, 80%, 65%)" />
<circle cx="90" cy="142" r="3" fill="hsl(153, 80%, 65%)" />
<circle cx="103" cy="125" r="5" fill="hsl(162, 80%, 65%)" />
<circle cx="339" cy="305" r="7" fill="hsl(171, 80%, 65%)" />
<circle cx="337" cy="142" r="6" fill="hsl(180, 80%, 65%)" />
<circle cx="153" cy="74" r="7" fill="hsl(189, 80%, 65%)" />
<circle cx="189" cy="306" r="7" fill="hsl(198, 80%, 65%)" />
<circle cx="265" cy="369" r="6" fill="hsl(207, 80%, 65%)" />
<circle cx="303" cy="329" r="7" fill="hsl(216, 80%, 65%)" />
<circle cx="120" cy="151" r="8" fill="hsl(225, 80%, 65%)" />
<circle cx="171" cy="319" r="5" fill="hsl(234, 80%, 65%)" />
<circle cx="275" cy="209" r="3" fill="hsl(243, 80%, 65%)" />
<circle cx="117" cy="423" r="7" fill="hsl(252, 80%, 65%)" />
<circle cx="306" cy="155" r="6" fill="hsl(261, 80%, 65%)" />
<circle cx="324" cy="363" r="6" fill="hsl(270, 80%, 65%)" />
<circle cx="301" cy="117" r="4" fill="hsl(279, 80%, 65%)" />
<circle cx="318" cy="306" r="4" fill="hsl(288, 80%, 65%)" />
<circle cx="149" cy="439" r="6" fill="hsl(297, 80%, 65%)" />
<circle cx="207" cy="390" r="2" fill="hsl(306, 80%, 65%)" />
<circle cx="353" cy="186" r="3" fill="hsl(315, 80%, 65%)" />
<circle cx="308" cy="218" r="8" fill="hsl(324, 80%, 65%)" />
<circle cx="177" cy="116" r="5" fill="hsl(333, 80%, 65%)" />
<circle cx="111" cy="381" r="6" fill="hsl(342, 80%, 65%)" />
<circle cx="286" cy="364" r="2" fill="hsl(351, 80%, 65%)" />
<circle cx="283" cy="122" r="3" fill="hsl(0, 80%, 65%)" />
<circle cx="263" cy="149" r="8" fill="hsl(9, 80%, 65%)" />
<circle cx="147" cy="147" r="3" fill="hsl(18, 80%, 65%)" />
<circle cx="94" cy="380" r="2" fill="hsl(27, 80%, 65%)" />
<circle cx="162" cy="365" r="8" fill="hsl(36, 80%, 65%)" />
<circle cx="316" cy="122" r="8" fill="hsl(45, 80%, 65%)" />
<circle cx="226" cy="147" r="8" fill="hsl(54, 80%, 65%)" />
<circle cx="415" cy="359" r="8" fill="hsl(63, 80%, 65%)" />
<circle cx="165" cy="151" r="3" fill="hsl(72, 80%, 65%)" />
<circle cx="84" cy="75" r="4" fill="hsl(81, 80%, 65%)" />
<circle cx="419" cy="184" r="8" fill="hsl(90, 80%, 65%)" />
<circle cx="147" cy="419" r="2" fill="hsl(99, 80%, 65%)" />
<circle cx="370" cy="165" r="7" fill="hsl(108, 80%, 65%)" />
<circle cx="118" cy="85" r="4" fill="hsl(117, 80%, 65%)" />
<circle cx="353" cy="317" r="4" fill="hsl(126, 80%, 65%)" />
<circle cx="243" cy="321" r="4" fill="hsl(135, 80%, 65%)" />
<circle cx="352" cy="150" r="6" fill="hsl(144, 80%, 65%)" />
<circle cx="205" cy="158" r="7" fill="hsl(153, 80%, 65%)" />
<circle cx="133" cy="369" r="5" fill="hsl(162, 80%, 65%)" />
<circle cx="158" cy="342" r="8" fill="hsl(171, 80%, 65%)" />
<line x1="353" y1="199" x2="398" y2="179" stroke="#223344" stroke-width="1"/>
<line x1="97" y1="319" x2="129" y2="276" stroke="#223344" stroke-width="1"/>
<line x1="277" y1="120" x2="228" y2="85" stroke="#223344" stroke-width="1"/>
<line x1="430" y1="334" x2="350" y2="304" stroke="#223344" stroke-width="1"/>
<line x1="429" y1="418" x2="355" y2="414" stroke="#223344" stroke-width="1"/>
<line x1="134" y1="443" x2="167" y2="426" stroke="#223344" stroke-width="1"/>
<line x1="152" y1="169" x2="74" y2="157" stroke="#223344" stroke-width="1"/>
<line x1="167" y1="93" x2="153" y2="90" stroke="#223344" stroke-width="1"/>
<line x1="187" y1="184" x2="173" y2="119" stroke="#223344" stroke-width="1"/>
<line x1="338" y1="207" x2="315" y2="143" stroke="#223344" stroke-width="1"/>
<line x1="368" y1="212" x2="418" y2="206" stroke="#223344" stroke-width="1"/>
<line x1="421" y1="96" x2="435" y2="113" stroke="#223344" stroke-width="1"/>
<line x1="154" y1="286" x2="156" y2="297" stroke="#223344" stroke-width="1"/>
<line x1="294" y1="221" x2="317" y2="180" stroke="#223344" stroke-width="1"/>
<line x1="121" y1="79" x2="124" y2="63" stroke="#223344" stroke-width="1"/>
<line x1="81" y1="152" x2="12" y2="203" stroke="#223344" stroke-width="1"/>
<line x1="206" y1="108" x2="225" y2="146" stroke="#223344" stroke-width="1"/>
<line x1="253" y1="344" x2="278" y2="304" stroke="#223344" stroke-width="1"/>
<line x1="289" y1="213" x2="313" y2="279" stroke="#223344" stroke-width="1"/>
<line x1="437" y1="218" x2="373" y2="150" stroke="#223344" stroke-width="1"/>
<line x1="297" y1="297" x2="263" y2="221" stroke="#223344" stroke-width="1"/>
<line x1="189" y1="146" x2="200" y2="202" stroke="#223344" stroke-width="1"/>
<line x1="191" y1="294" x2="266" y2="234" stroke="#223344" stroke-width="1"/>
<line x1="407" y1="430" x2="362" y2="363" stroke="#223344" stroke-width="1"/>
</svg>
