<svg xmlns="http://www.w3.org/2000/svg" width="512" height="512" viewBox="0 0 512 512">
<rect width="100%" height="100%" fill="#0b1020"/>
<circle cx="343" cy="65" r="48" fill="#f8f3c9" opacity="0.95" />
<circle cx="61.0" cy="53.0" r="2.7" fill="white" />
<circle cx="473.0" cy="54.0" r="1.7" fill="white" />
<circle cx="268.0" cy="84.0" r="2.9" fill="white" />
<circle cx="190.0" cy="48.0" r="2.1" fill="white" />
<circle cx="360.0" cy="120.0" r="2.3" fill="white" />
<circle cx="481.0" cy="46.0" r="3.4" fill="white" />
<circle cx="99.0" cy="130.0" r="3.2" fill="white" />
<path d="M 20 430 C 129 411, 173 457, 316 421 S 450 400, 512 430" stroke="#5dade2" stroke-width="5" fill="none" opacity="0.85" />
<line x1="0" y1="403" x2="512" y2="403" stroke="#445566" stroke-width="3" />
<polygon points="188,361 228,301 268,321 288,291 308,311 320,351 288,373 238,377" fill="#1e1e1e" />
<polygon points="263,301 276,279 286,303" fill="#1e1e1e" />
<line x1="318" y1="346" x2="348" y2="321" stroke="#1e1e1e" stroke-width="6" />
</svg>
