<svg xmlns="http://www.w3.org/2000/svg" width="512" height="512" viewBox="0 0 512 512">
<rect width="100%" height="100%" fill="#0b1020"/>
<circle cx="444" cy="84" r="40" fill="#f8f3c9" opacity="0.95" />
<circle cx="460.0" cy="122.0" r="2.3" fill="white" />
<circle cx="430.0" cy="168.0" r="3.3" fill="white" />
<circle cx="229.0" cy="59.0" r="2.9" fill="white" />
<circle cx="55.0" cy="81.0" r="1.6" fill="white" />
<circle cx="78.0" cy="149.0" r="2.8" fill="white" />
<circle cx="49.0" cy="95.0" r="2.5" fill="white" />
<path d="M 20 430 C 117 423, 164 457, 319 427 S 450 376, 512 406" stroke="#5dade2" stroke-width="6" fill="none" opacity="0.85" />
<line x1="0" y1="408" x2="512" y2="408" stroke="#445566" stroke-width="4" />
<polygon points="151,359 191,299 231,319 251,289 271,309 283,349 251,371 201,375" fill="#1e1e1e" />
<polygon points="226,299 239,277 249,301" fill="#1e1e1e" />
<line x1="281" y1="344" x2="311" y2="319" stroke="#1e1e1e" stroke-width="6" />
</svg>
