<svg xmlns="http://www.w3.org/2000/svg" width="512" height="512" viewBox="0 0 512 512">
<rect width="100%" height="100%" fill="#0b1020"/>
<circle cx="418" cy="80" r="46" fill="#f8f3c9" opacity="0.95" />
<circle cx="252.0" cy="170.0" r="3.4" fill="white" />
<circle cx="458.0" cy="167.0" r="2.8" fill="white" />
<circle cx="320.0" cy="58.0" r="1.5" fill="white" />
<circle cx="186.0" cy="75.0" r="2.7" fill="white" />
<circle cx="181.0" cy="114.0" r="2.0" fill="white" />
<circle cx="111.0" cy="48.0" r="1.7" fill="white" />
<circle cx="480.0" cy="178.0" r="2.8" fill="white" />
<circle cx="88.0" cy="114.0" r="1.9" fill="white" />
<circle cx="405.0" cy="96.0" r="3.1" fill="white" />
<circle cx="237.0" cy="36.0" r="3.0" fill="white" />
<circle cx="388.0" cy="115.0" r="1.8" fill="white" />
<circle cx="395.0" cy="147.0" r="1.9" fill="white" />
<circle cx="238.0" cy="168.0" r="2.5" fill="white" />
<path d="M 20 430 C 123 430, 163 445, 280 435 S 450 375, 512 405" stroke="#5dade2" stroke-width="5" fill="none" opacity="0.85" />
<line x1="0" y1="403" x2="512" y2="403" stroke="#445566" stroke-width="2" />
<polygon points="220,361 260,301 300,321 320,291 340,311 352,351 320,373 270,377" fill="#1e1e1e" />
<polygon points="295,301 308,279 318,303" fill="#1e1e1e" />
<line x1="350" y1="346" x2="380" y2="321" stroke="#1e1e1e" stroke-width="6" />
</svg>
