<svg xmlns="http://www.w3.org/2000/svg" width="512" height="512" viewBox="0 0 512 512">
<rect width="100%" height="100%" fill="#0b1020"/>
<circle cx="383" cy="92" r="47" fill="#f8f3c9" opacity="0.95" />
<circle cx="286.0" cy="119.0" r="2.7" fill="white" />
<circle cx="358.0" cy="138.0" r="3.4" fill="white" />
<circle cx="438.0" cy="151.0" r="2.2" fill="white" />
<circle cx="478.0" cy="52.0" r="1.6" fill="white" />
<circle cx="297.0" cy="170.0" r="2.7" fill="white" />
<circle cx="93.0" cy="100.0" r="2.3" fill="white" />
<circle cx="352.0" cy="155.0" r="1.7" fill="white" />
<circle cx="186.0" cy="150.0" r="2.1" fill="white" />
<path d="M 20 430 C 126 413, 177 449, 284 431 S 450 392, 512 422" stroke="#5dade2" stroke-width="7" fill="none" opacity="0.85" />
<line x1="0" y1="403" x2="512" y2="403" stroke="#445566" stroke-width="4" />
<polygon points="213,356 253,296 293,316 313,286 333,306 345,346 313,368 263,372" fill="#1e1e1e" />
<polygon points="288,296 301,274 311,298" fill="#1e1e1e" />
<line x1="343" y1="341" x2="373" y2="316" stroke="#1e1e1e" stroke-width="6" />
</svg>
