<svg xmlns="http://www.w3.org/2000/svg" width="512" height="512" viewBox="0 0 512 512">
<rect width="100%" height="100%" fill="#0b1020"/>
<circle cx="428" cy="86" r="40" fill="#f8f3c9" opacity="0.95" />
<circle cx="89.0" cy="125.0" r="3.0" fill="white" />
<circle cx="37.0" cy="38.0" r="2.0" fill="white" />
<circle cx="36.0" cy="67.0" r="2.0" fill="white" />
<circle cx="243.0" cy="22.0" r="3.2" fill="white" />
<circle cx="268.0" cy="173.0" r="2.8" fill="white" />
<path d="M 20 430 C 104 422, 191 456, 287 420 S 450 378, 512 408" stroke="#5dade2" stroke-width="7" fill="none" opacity="0.85" />
<line x1="0" y1="389" x2="512" y2="389" stroke="#445566" stroke-width="3" />
<polygon points="211,365 251,305 291,325 311,295 331,315 343,355 311,377 261,381" fill="#1e1e1e" />
<polygon points="286,305 299,283 309,307" fill="#1e1e1e" />
<line x1="341" y1="350" x2="371" y2="325" stroke="#1e1e1e" stroke-width="6" />
</svg>
