<svg xmlns="http://www.w3.org/2000/svg" width="512" height="512" viewBox="0 0 512 512">
<rect width="100%" height="100%" fill="#0b1020"/>
<circle cx="429" cy="61" r="44" fill="#f8f3c9" opacity="0.95" />
<circle cx="234.0" cy="180.0" r="2.8" fill="white" />
<circle cx="162.0" cy="48.0" r="1.9" fill="white" />
<circle cx="153.0" cy="72.0" r="2.1" fill="white" />
<circle cx="482.0" cy="94.0" r="2.1" fill="white" />
<circle cx="245.0" cy="69.0" r="3.1" fill="white" />
<circle cx="182.0" cy="157.0" r="2.5" fill="white" />
<circle cx="136.0" cy="145.0" r="1.5" fill="white" />
<circle cx="280.0" cy="70.0" r="3.3" fill="white" />
<circle cx="225.0" cy="168.0" r="1.9" fill="white" />
<path d="M 20 430 C 138 424, 187 444, 316 429 S 450 397, 512 427" stroke="#5dade2" stroke-width="8" fill="none" opacity="0.85" />
<line x1="0" y1="389" x2="512" y2="389" stroke="#445566" stroke-width="2" />
<polygon points="205,362 245,302 285,322 305,292 325,312 337,352 305,374 255,378" fill="#1e1e1e" />
<polygon points="280,302 293,280 303,304" fill="#1e1e1e" />
<line x1="335" y1="347" x2="365" y2="322" stroke="#1e1e1e" stroke-width="6" />
</svg>
