<svg xmlns="http://www.w3.org/2000/svg" width="512" height="512" viewBox="0 0 512 512">
<rect width="100%" height="100%" fill="#0b1020"/>
<circle cx="423" cy="77" r="40" fill="#f8f3c9" opacity="0.95" />
<circle cx="250.0" cy="166.0" r="2.1" fill="white" />
<circle cx="216.0" cy="160.0" r="1.6" fill="white" />
<circle cx="157.0" cy="31.0" r="3.2" fill="white" />
<circle cx="366.0" cy="31.0" r="1.5" fill="white" />
<circle cx="239.0" cy="167.0" r="2.8" fill="white" />
<circle cx="29.0" cy="48.0" r="1.9" fill="white" />
<path d="M 20 430 C 137 424, 200 451, 297 436 S 450 386, 512 416" stroke="#5dade2" stroke-width="8" fill="none" opacity="0.85" />
<line x1="0" y1="400" x2="512" y2="400" stroke="#445566" stroke-width="2" />
<polygon points="169,360 209,300 249,320 269,290 289,310 301,350 269,372 219,376" fill="#1e1e1e" />
<polygon points="244,300 257,278 267,302" fill="#1e1e1e" />
<line x1="299" y1="345" x2="329" y2="320" stroke="#1e1e1e" stroke-width="6" />
</svg>
