<svg xmlns="http://www.w3.org/2000/svg" width="512" height="512" viewBox="0 0 512 512">
<rect width="100%" height="100%" fill="#0b1020"/>
<circle cx="446" cy="103" r="48" fill="#f8f3c9" opacity="0.95" />
<circle cx="104.0" cy="94.0" r="3.5" fill="white" />
<circle cx="370.0" cy="75.0" r="3.5" fill="white" />
<circle cx="185.0" cy="36.0" r="3.1" fill="white" />
<circle cx="326.0" cy="100.0" r="2.6" fill="white" />
<circle cx="144.0" cy="30.0" r="3.5" fill="white" />
<circle cx="366.0" cy="35.0" r="2.5" fill="white" />
<path d="M 20 430 C 136 415, 197 457, 282 434 S 450 388, 512 418" stroke="#5dade2" stroke-width="8" fill="none" opacity="0.85" />
<line x1="0" y1="402" x2="512" y2="402" stroke="#445566" stroke-width="4" />
<polygon points="164,352 204,292 244,312 264,282 284,302 296,342 264,364 214,368" fill="#1e1e1e" />
<polygon points="239,292 252,270 262,294" fill="#1e1e1e" />
<line x1="294" y1="337" x2="324" y2="312" stroke="#1e1e1e" stroke-width="6" />
</svg>
