<svg xmlns="http://www.w3.org/2000/svg" width="512" height="512" viewBox="0 0 512 512">
<rect width="100%" height="100%" fill="#0b1020"/>
<circle cx="417" cy="74" r="43" fill="#f8f3c9" opacity="0.95" />
<circle cx="206.0" cy="29.0" r="2.3" fill="white" />
<circle cx="216.0" cy="59.0" r="2.3" fill="white" />
<circle cx="335.0" cy="130.0" r="2.5" fill="white" />
<circle cx="316.0" cy="118.0" r="2.6" fill="white" />
<circle cx="483.0" cy="105.0" r="1.5" fill="white" />
<circle cx="249.0" cy="176.0" r="3.3" fill="white" />
<circle cx="119.0" cy="138.0" r="1.5" fill="white" />
<circle cx="229.0" cy="52.0" r="2.1" fill="white" />
<circle cx="163.0" cy="115.0" r="2.2" fill="white" />
<circle cx="405.0" cy="32.0" r="2.4" fill="white" />
<circle cx="129.0" cy="129.0" r="1.8" fill="white" />
<circle cx="123.0" cy="136.0" r="3.4" fill="white" />
<circle cx="101.0" cy="65.0" r="1.5" fill="white" />
<circle cx="303.0" cy="153.0" r="2.8" fill="white" />
<circle cx="195.0" cy="177.0" r="2.7" fill="white" />
<path d="M 20 430 C 127 429, 161 460, 295 425 S 450 397, 512 427" stroke="#5dade2" stroke-width="5" fill="none" opacity="0.85" />
<line x1="0" y1="410" x2="512" y2="410" stroke="#445566" stroke-width="4" />
<polygon points="183,351 223,291 263,311 283,281 303,301 315,341 283,363 233,367" fill="#1e1e1e" />
<polygon points="258,291 271,269 281,293" fill="#1e1e1e" />
<line x1="313" y1="336" x2="343" y2="311" stroke="#1e1e1e" stroke-width="6" />
</svg>
