<svg xmlns="http://www.w3.org/2000/svg" width="512" height="512" viewBox="0 0 512 512">
<rect width="100%" height="100%" fill="#0b1020"/>
<circle cx="413" cy="115" r="42" fill="#f8f3c9" opacity="0.95" />
<circle cx="459.0" cy="143.0" r="2.4" fill="white" />
<circle cx="262.0" cy="101.0" r="2.1" fill="white" />
<circle cx="27.0" cy="155.0" r="1.6" fill="white" />
<circle cx="123.0" cy="120.0" r="2.8" fill="white" />
<circle cx="92.0" cy="20.0" r="1.5" fill="white" />
<circle cx="454.0" cy="81.0" r="2.2" fill="white" />
<circle cx="287.0" cy="131.0" r="2.8" fill="white" />
<path d="M 20 430 C 112 429, 188 448, 286 436 S 450 396, 512 426" stroke="#5dade2" stroke-width="8" fill="none" opacity="0.85" />
<line x1="0" y1="386" x2="512" y2="386" stroke="#445566" stroke-width="2" />
<polygon points="163,353 203,293 243,313 263,283 283,303 295,343 263,365 213,369" fill="#1e1e1e" />
<polygon points="238,293 251,271 261,295" fill="#1e1e1e" />
<line x1="293" y1="338" x2="323" y2="313" stroke="#1e1e1e" stroke-width="6" />
</svg>
