<svg xmlns="http://www.w3.org/2000/svg" width="512" height="512" viewBox="0 0 512 512">
<rect width="100%" height="100%" fill="#0b1020"/>
<circle cx="392" cy="103" r="56" fill="#f8f3c9" opacity="0.95" />
<circle cx="455.0" cy="24.0" r="3.0" fill="white" />
<circle cx="342.0" cy="91.0" r="2.0" fill="white" />
<circle cx="264.0" cy="132.0" r="3.5" fill="white" />
<circle cx="489.0" cy="20.0" r="3.2" fill="white" />
<circle cx="490.0" cy="32.0" r="3.4" fill="white" />
<circle cx="34.0" cy="89.0" r="3.2" fill="white" />
<path d="M 20 430 C 124 413, 183 445, 304 433 S 450 397, 512 427" stroke="#5dade2" stroke-width="5" fill="none" opacity="0.85" />
<line x1="0" y1="414" x2="512" y2="414" stroke="#445566" stroke-width="2" />
<polygon points="140,354 180,294 220,314 240,284 260,304 272,344 240,366 190,370" fill="#1e1e1e" />
<polygon points="215,294 228,272 238,296" fill="#1e1e1e" />
<line x1="270" y1="339" x2="300" y2="314" stroke="#1e1e1e" stroke-width="6" />
</svg>
