<svg xmlns="http://www.w3.org/2000/svg" width="512" height="512" viewBox="0 0 512 512">
<rect width="100%" height="100%" fill="#0b1020"/>
<circle cx="348" cy="139" r="52" fill="#f8f3c9" opacity="0.95" />
<circle cx="61.0" cy="140.0" r="1.8" fill="white" />
<circle cx="45.0" cy="81.0" r="2.1" fill="white" />
<circle cx="123.0" cy="139.0" r="3.3" fill="white" />
<circle cx="475.0" cy="42.0" r="2.9" fill="white" />
<circle cx="213.0" cy="159.0" r="1.9" fill="white" />
<circle cx="359.0" cy="57.0" r="2.1" fill="white" />
<circle cx="462.0" cy="84.0" r="1.9" fill="white" />
<circle cx="47.0" cy="77.0" r="3.2" fill="white" />
<circle cx="294.0" cy="99.0" r="2.0" fill="white" />
<path d="M 20 430 C 102 429, 171 445, 309 434 S 450 397, 512 427" stroke="#5dade2" stroke-width="5" fill="none" opacity="0.85" />
<line x1="0" y1="389" x2="512" y2="389" stroke="#445566" stroke-width="2" />
<polygon points="160,358 200,298 240,318 260,288 280,308 292,348 260,370 210,374" fill="#1e1e1e" />
<polygon points="235,298 248,276 258,300" fill="#1e1e1e" />
<line x1="290" y1="343" x2="320" y2="318" stroke="#1e1e1e" stroke-width="6" />
</svg>
