<svg xmlns="http://www.w3.org/2000/svg" width="512" height="512" viewBox="0 0 512 512">
<rect width="100%" height="100%" fill="#0b1020"/>
<circle cx="375" cy="67" r="49" fill="#f8f3c9" opacity="0.95" />
<circle cx="430.0" cy="58.0" r="1.7" fill="white" />
<circle cx="214.0" cy="87.0" r="2.4" fill="white" />
<circle cx="186.0" cy="122.0" r="2.9" fill="white" />
<circle cx="135.0" cy="48.0" r="3.3" fill="white" />
<circle cx="23.0" cy="25.0" r="2.4" fill="white" />
<circle cx="409.0" cy="152.0" r="3.0" fill="white" />
<circle cx="378.0" cy="96.0" r="3.4" fill="white" />
<circle cx="306.0" cy="92.0" r="2.8" fill="white" />
<circle cx="242.0" cy="159.0" r="2.9" fill="white" />
<circle cx="475.0" cy="95.0" r="2.3" fill="white" />
<circle cx="481.0" cy="159.0" r="3.3" fill="white" />
<circle cx="392.0" cy="146.0" r="1.5" fill="white" />
<path d="M 20 430 C 127 427, 179 454, 293 435 S 450 393, 512 423" stroke="#5dade2" stroke-width="7" fill="none" opacity="0.85" />
<line x1="0" y1="393" x2="512" y2="393" stroke="#445566" stroke-width="3" />
<polygon points="177,351 217,291 257,311 277,281 297,301 309,341 277,363 227,367" fill="#1e1e1e" />
<polygon points="252,291 265,269 275,293" fill="#1e1e1e" />
<line x1="307" y1="336" x2="337" y2="311" stroke="#1e1e1e" stroke-width="6" />
</svg>
