<svg xmlns="http://www.w3.org/2000/svg" width="512" height="512" viewBox="0 0 512 512">
<rect width="100%" height="100%" fill="black"/>
<circle cx="256.00" cy="256.00" r="2" fill="hsl(0, 80%, 65%)" />
<circle cx="250.87" cy="260.70" r="3" fill="hsl(9, 80%, 65%)" />
<circle cx="256.86" cy="246.20" r="4" fill="hsl(18, 80%, 65%)" />
<circle cx="263.33" cy="265.56" r="5" fill="hsl(27, 80%, 65%)" />
<circle cx="242.30" cy="253.58" r="6" fill="hsl(36, 80%, 65%)" />
<circle cx="269.13" cy="247.65" r="2" fill="hsl(45, 80%, 65%)" />
<circle cx="251.58" cy="272.46" r="3" fill="hsl(54, 80%, 65%)" />
<circle cx="247.51" cy="239.66" r="4" fill="hsl(63, 80%, 65%)" />
<circle cx="274.49" cy="262.75" r="5" fill="hsl(72, 80%, 65%)" />
<circle cx="236.70" cy="263.97" r="6" fill="hsl(81, 80%, 65%)" />
<circle cx="265.33" cy="236.07" r="2" fill="hsl(90, 80%, 65%)" />
<circle cx="262.91" cy="278.02" r="3" fill="hsl(99, 80%, 65%)" />
<circle cx="235.14" cy="243.91" r="4" fill="hsl(108, 80%, 65%)" />
<circle cx="280.50" cy="250.61" r="5" fill="hsl(117, 80%, 65%)" />
<circle cx="241.03" cy="277.30" r="6" fill="hsl(126, 80%, 65%)" />
<circle cx="252.54" cy="229.27" r="2" fill="hsl(135, 80%, 65%)" />
<circle cx="277.28" cy="273.94" r="3" fill="hsl(144, 80%, 65%)" />
<circle cx="227.33" cy="257.19" r="4" fill="hsl(153, 80%, 65%)" />
<circle cx="276.93" cy="235.18" r="5" fill="hsl(162, 80%, 65%)" />
<circle cx="254.60" cy="286.30" r="6" fill="hsl(171, 80%, 65%)" />
<circle cx="236.06" cy="232.11" r="2" fill="hsl(180, 80%, 65%)" />
<circle cx="287.60" cy="260.25" r="3" fill="hsl(189, 80%, 65%)" />
<circle cx="229.21" cy="274.64" r="4" fill="hsl(198, 80%, 65%)" />
<circle cx="263.32" cy="223.44" r="5" fill="hsl(207, 80%, 65%)" />
<circle cx="272.95" cy="285.58" r="6" fill="hsl(216, 80%, 65%)" />
<circle cx="222.85" cy="245.43" r="2" fill="hsl(225, 80%, 65%)" />
<circle cx="288.21" cy="241.12" r="3" fill="hsl(234, 80%, 65%)" />
<circle cx="242.04" cy="289.35" r="4" fill="hsl(243, 80%, 65%)" />
<circle cx="243.54" cy="221.35" r="5" fill="hsl(252, 80%, 65%)" />
<circle cx="289.17" cy="273.43" r="6" fill="hsl(261, 80%, 65%)" />
<circle cx="219.15" cy="265.71" r="2" fill="hsl(270, 80%, 65%)" />
<circle cx="276.95" cy="223.41" r="3" fill="hsl(279, 80%, 65%)" />
<circle cx="262.67" cy="294.79" r="4" fill="hsl(288, 80%, 65%)" />
<circle cx="224.40" cy="231.52" r="5" fill="hsl(297, 80%, 65%)" />
<circle cx="296.44" cy="252.65" r="6" fill="hsl(306, 80%, 65%)" />
<circle cx="228.04" cy="286.22" r="2" fill="hsl(315, 80%, 65%)" />
<circle cx="256.20" cy="214.25" r="3" fill="hsl(324, 80%, 65%)" />
<circle cx="284.44" cy="287.35" r="4" fill="hsl(333, 80%, 65%)" />
<circle cx="213.29" cy="252.04" r="5" fill="hsl(342, 80%, 65%)" />
<circle cx="290.61" cy="229.73" r="6" fill="hsl(351, 80%, 65%)" />
<circle cx="248.12" cy="299.30" r="2" fill="hsl(0, 80%, 65%)" />
<circle cx="232.27" cy="218.29" r="3" fill="hsl(9, 80%, 65%)" />
<circle cx="299.49" cy="267.92" r="4" fill="hsl(18, 80%, 65%)" />
<circle cx="215.40" cy="276.83" r="5" fill="hsl(27, 80%, 65%)" />
<circle cx="272.04" cy="212.72" r="6" fill="hsl(36, 80%, 65%)" />
<circle cx="273.60" cy="299.23" r="2" fill="hsl(45, 80%, 65%)" />
<circle cx="213.35" cy="235.79" r="3" fill="hsl(54, 80%, 65%)" />
<circle cx="301.59" cy="241.95" r="4" fill="hsl(63, 80%, 65%)" />
<circle cx="231.62" cy="297.59" r="5" fill="hsl(72, 80%, 65%)" />
<circle cx="245.77" cy="208.38" r="6" fill="hsl(81, 80%, 65%)" />
<circle cx="296.11" cy="284.49" r="2" fill="hsl(90, 80%, 65%)" />
<circle cx="206.69" cy="262.15" r="3" fill="hsl(99, 80%, 65%)" />
<circle cx="288.52" cy="217.79" r="4" fill="hsl(108, 80%, 65%)" />
<circle cx="257.85" cy="306.62" r="5" fill="hsl(117, 80%, 65%)" />
<circle cx="220.11" cy="219.58" r="6" fill="hsl(126, 80%, 65%)" />
<circle cx="307.54" cy="258.64" r="2" fill="hsl(135, 80%, 65%)" />
<circle cx="215.86" cy="289.17" r="3" fill="hsl(144, 80%, 65%)" />
<circle cx="263.26" cy="203.97" r="4" fill="hsl(153, 80%, 65%)" />
<circle cx="286.05" cy="299.65" r="5" fill="hsl(162, 80%, 65%)" />
<circle cx="203.91" cy="244.01" r="6" fill="hsl(171, 80%, 65%)" />
<circle cx="302.90" cy="229.43" r="2" fill="hsl(180, 80%, 65%)" />
<circle cx="239.23" cy="307.69" r="3" fill="hsl(189, 80%, 65%)" />
<circle cx="233.26" cy="206.15" r="4" fill="hsl(198, 80%, 65%)" />
<circle cx="306.84" cy="277.57" r="5" fill="hsl(207, 80%, 65%)" />
<circle cx="203.53" cy="274.58" r="6" fill="hsl(216, 80%, 65%)" />
<circle cx="282.34" cy="206.47" r="2" fill="hsl(225, 80%, 65%)" />
<circle cx="270.14" cy="310.73" r="3" fill="hsl(234, 80%, 65%)" />
<circle cx="208.24" cy="224.96" r="4" fill="hsl(243, 80%, 65%)" />
<circle cx="312.60" cy="246.56" r="5" fill="hsl(252, 80%, 65%)" />
<circle cx="220.39" cy="301.53" r="6" fill="hsl(261, 80%, 65%)" />
<circle cx="251.48" cy="197.96" r="2" fill="hsl(270, 80%, 65%)" />
<circle cx="298.85" cy="296.03" r="3" fill="hsl(279, 80%, 65%)" />
<circle cx="196.96" cy="255.42" r="4" fill="hsl(288, 80%, 65%)" />
<circle cx="300.23" cy="216.27" r="5" fill="hsl(297, 80%, 65%)" />
<circle cx="250.19" cy="315.58" r="6" fill="hsl(306, 80%, 65%)" />
<circle cx="219.80" cy="207.82" r="2" fill="hsl(315, 80%, 65%)" />
<circle cx="315.63" cy="267.15" r="3" fill="hsl(324, 80%, 65%)" />
<circle cx="204.16" cy="288.27" r="4" fill="hsl(333, 80%, 65%)" />
<circle cx="272.53" cy="196.81" r="5" fill="hsl(342, 80%, 65%)" />
<circle cx="283.97" cy="311.16" r="6" fill="hsl(351, 80%, 65%)" />
<circle cx="197.75" cy="234.08" r="2" fill="hsl(0, 80%, 65%)" />
<circle cx="314.12" cy="232.67" r="3" fill="hsl(9, 80%, 65%)" />
<circle cx="228.74" cy="312.81" r="4" fill="hsl(18, 80%, 65%)" />
<circle cx="237.62" cy="195.33" r="5" fill="hsl(27, 80%, 65%)" />
<circle cx="310.86" cy="288.51" r="6" fill="hsl(36, 80%, 65%)" />
<circle cx="193.21" cy="269.16" r="2" fill="hsl(45, 80%, 65%)" />
<circle cx="293.63" cy="203.58" r="3" fill="hsl(54, 80%, 65%)" />
<circle cx="263.71" cy="320.44" r="4" fill="hsl(63, 80%, 65%)" />
<circle cx="206.50" cy="213.45" r="5" fill="hsl(72, 80%, 65%)" />
<circle cx="321.61" cy="253.93" r="6" fill="hsl(81, 80%, 65%)" />
<circle cx="208.76" cy="302.11" r="2" fill="hsl(90, 80%, 65%)" />
<circle cx="259.71" cy="189.73" r="3" fill="hsl(99, 80%, 65%)" />
<circle cx="298.26" cy="307.66" r="4" fill="hsl(108, 80%, 65%)" />
<circle cx="189.59" cy="246.40" r="5" fill="hsl(117, 80%, 65%)" />
<circle cx="311.75" cy="218.01" r="6" fill="hsl(126, 80%, 65%)" />
<circle cx="240.47" cy="322.02" r="2" fill="hsl(135, 80%, 65%)" />
<circle cx="222.68" cy="196.52" r="3" fill="hsl(144, 80%, 65%)" />
<circle cx="321.08" cy="277.47" r="4" fill="hsl(153, 80%, 65%)" />
<circle cx="193.19" cy="284.28" r="5" fill="hsl(162, 80%, 65%)" />
<circle cx="283.35" cy="192.40" r="6" fill="hsl(171, 80%, 65%)" />
<circle cx="278.91" cy="321.70" r="2" fill="hsl(180, 80%, 65%)" />
<circle cx="194.42" cy="222.86" r="3" fill="hsl(189, 80%, 65%)" />
<circle cx="324.13" cy="238.75" r="4" fill="hsl(198, 80%, 65%)" />
<circle cx="217.23" cy="315.02" r="5" fill="hsl(207, 80%, 65%)" />
<circle cx="244.66" cy="185.95" r="6" fill="hsl(216, 80%, 65%)" />
<circle cx="311.94" cy="300.21" r="2" fill="hsl(225, 80%, 65%)" />
<circle cx="184.55" cy="261.22" r="3" fill="hsl(234, 80%, 65%)" />
<circle cx="305.39" cy="203.64" r="4" fill="hsl(243, 80%, 65%)" />
<circle cx="254.94" cy="328.31" r="5" fill="hsl(252, 80%, 65%)" />
<circle cx="207.72" cy="201.72" r="6" fill="hsl(261, 80%, 65%)" />
<circle cx="328.60" cy="263.44" r="2" fill="hsl(270, 80%, 65%)" />
<circle cx="197.17" cy="299.75" r="3" fill="hsl(279, 80%, 65%)" />
<circle cx="269.89" cy="183.68" r="4" fill="hsl(288, 80%, 65%)" />
<circle cx="294.78" cy="318.99" r="5" fill="hsl(297, 80%, 65%)" />
<circle cx="184.54" cy="235.66" r="6" fill="hsl(306, 80%, 65%)" />
<circle cx="322.72" cy="222.58" r="2" fill="hsl(315, 80%, 65%)" />
<circle cx="229.26" cy="326.01" r="3" fill="hsl(324, 80%, 65%)" />
<circle cx="228.30" cy="186.01" r="4" fill="hsl(333, 80%, 65%)" />
<circle cx="323.99" cy="289.04" r="5" fill="hsl(342, 80%, 65%)" />
<circle cx="183.25" cy="277.66" r="6" fill="hsl(351, 80%, 65%)" />
<circle cx="295.18" cy="190.62" r="2" fill="hsl(0, 80%, 65%)" />
<circle cx="271.34" cy="330.99" r="3" fill="hsl(9, 80%, 65%)" />
<circle cx="193.78" cy="210.88" r="4" fill="hsl(18, 80%, 65%)" />
<circle cx="332.67" cy="247.20" r="5" fill="hsl(27, 80%, 65%)" />
<circle cx="205.20" cy="314.51" r="6" fill="hsl(36, 80%, 65%)" />
<circle cx="253.92" cy="178.23" r="2" fill="hsl(45, 80%, 65%)" />
<circle cx="310.28" cy="312.17" r="3" fill="hsl(54, 80%, 65%)" />
<circle cx="177.73" cy="251.23" r="4" fill="hsl(63, 80%, 65%)" />
<circle cx="317.18" cy="206.45" r="5" fill="hsl(72, 80%, 65%)" />
<circle cx="244.32" cy="334.16" r="6" fill="hsl(81, 80%, 65%)" />
<circle cx="211.65" cy="190.22" r="2" fill="hsl(90, 80%, 65%)" />
<circle cx="333.44" cy="274.62" r="3" fill="hsl(99, 80%, 65%)" />
<circle cx="186.06" cy="294.73" r="4" fill="hsl(108, 80%, 65%)" />
<circle cx="281.51" cy="179.91" r="5" fill="hsl(117, 80%, 65%)" />
<circle cx="288.71" cy="329.61" r="6" fill="hsl(126, 80%, 65%)" />
<circle cx="181.88" cy="223.70" r="2" fill="hsl(135, 80%, 65%)" />
<circle cx="332.75" cy="229.66" r="3" fill="hsl(144, 80%, 65%)" />
<circle cx="217.06" cy="327.53" r="4" fill="hsl(153, 80%, 65%)" />
<circle cx="236.32" cy="176.66" r="5" fill="hsl(162, 80%, 65%)" />
<circle cx="324.35" cy="301.37" r="6" fill="hsl(171, 80%, 65%)" />
<circle cx="174.66" cy="268.76" r="2" fill="hsl(180, 80%, 65%)" />
<circle cx="307.54" cy="191.42" r="3" fill="hsl(189, 80%, 65%)" />
<circle cx="261.64" cy="338.73" r="4" fill="hsl(198, 80%, 65%)" />
<circle cx="195.75" cy="198.61" r="5" fill="hsl(207, 80%, 65%)" />
<circle cx="339.48" cy="257.63" r="6" fill="hsl(216, 80%, 65%)" />
<circle cx="193.12" cy="311.38" r="2" fill="hsl(225, 80%, 65%)" />
<circle cx="264.98" cy="172.40" r="3" fill="hsl(234, 80%, 65%)" />
<circle cx="306.02" cy="323.94" r="4" fill="hsl(243, 80%, 65%)" />
<circle cx="172.95" cy="239.63" r="5" fill="hsl(252, 80%, 65%)" />
<circle cx="328.54" cy="211.82" r="6" fill="hsl(261, 80%, 65%)" />
<circle cx="232.27" cy="337.85" r="2" fill="hsl(270, 80%, 65%)" />
<circle cx="218.08" cy="179.36" r="3" fill="hsl(279, 80%, 65%)" />
<circle cx="335.99" cy="287.00" r="4" fill="hsl(288, 80%, 65%)" />
<circle cx="175.82" cy="287.28" r="5" fill="hsl(297, 80%, 65%)" />
<circle cx="294.12" cy="178.52" r="6" fill="hsl(306, 80%, 65%)" />
<circle cx="280.31" cy="339.15" r="2" fill="hsl(315, 80%, 65%)" />
<circle cx="181.67" cy="210.96" r="3" fill="hsl(324, 80%, 65%)" />
<circle cx="341.50" cy="238.94" r="4" fill="hsl(333, 80%, 65%)" />
<circle cx="204.31" cy="326.56" r="5" fill="hsl(342, 80%, 65%)" />
<circle cx="246.42" cy="168.78" r="6" fill="hsl(351, 80%, 65%)" />
<circle cx="322.18" cy="314.02" r="2" fill="hsl(0, 80%, 65%)" />
<circle cx="167.73" cy="257.93" r="3" fill="hsl(9, 80%, 65%)" />
<circle cx="319.99" cy="194.76" r="4" fill="hsl(18, 80%, 65%)" />
<circle cx="250.17" cy="344.65" r="5" fill="hsl(27, 80%, 65%)" />
<circle cx="200.25" cy="186.48" r="6" fill="hsl(36, 80%, 65%)" />
<circle cx="344.33" cy="269.65" r="2" fill="hsl(45, 80%, 65%)" />
<circle cx="181.42" cy="305.76" r="3" fill="hsl(54, 80%, 65%)" />
<circle cx="277.44" cy="168.67" r="4" fill="hsl(63, 80%, 65%)" />
<circle cx="299.31" cy="335.11" r="5" fill="hsl(72, 80%, 65%)" />
<circle cx="170.37" cy="226.83" r="6" fill="hsl(81, 80%, 65%)" />
<circle cx="339.09" cy="219.56" r="2" fill="hsl(90, 80%, 65%)" />
<circle cx="219.24" cy="339.24" r="3" fill="hsl(99, 80%, 65%)" />
<circle cx="226.79" cy="169.54" r="4" fill="hsl(108, 80%, 65%)" />
<circle cx="336.17" cy="300.15" r="5" fill="hsl(117, 80%, 65%)" />
<circle cx="166.80" cy="277.66" r="6" fill="hsl(126, 80%, 65%)" />
<circle cx="307.29" cy="179.56" r="2" fill="hsl(135, 80%, 65%)" />
<circle cx="269.86" cy="347.27" r="3" fill="hsl(144, 80%, 65%)" />
<circle cx="183.93" cy="197.90" r="4" fill="hsl(153, 80%, 65%)" />
<circle cx="348.65" cy="250.14" r="5" fill="hsl(162, 80%, 65%)" />
<circle cx="191.46" cy="323.09" r="6" fill="hsl(171, 80%, 65%)" />
<circle cx="258.28" cy="162.67" r="2" fill="hsl(180, 80%, 65%)" />
<circle cx="317.53" cy="326.55" r="3" fill="hsl(189, 80%, 65%)" />
<circle cx="162.71" cy="245.51" r="4" fill="hsl(198, 80%, 65%)" />
<circle cx="332.08" cy="200.57" r="5" fill="hsl(207, 80%, 65%)" />
<circle cx="237.30" cy="348.52" r="6" fill="hsl(216, 80%, 65%)" />
<circle cx="207.16" cy="174.93" r="2" fill="hsl(225, 80%, 65%)" />
<circle cx="347.02" cy="282.86" r="3" fill="hsl(234, 80%, 65%)" />
<circle cx="170.51" cy="297.78" r="4" fill="hsl(243, 80%, 65%)" />
<circle cx="290.90" cy="167.21" r="5" fill="hsl(252, 80%, 65%)" />
<circle cx="290.33" cy="345.29" r="6" fill="hsl(261, 80%, 65%)" />
<circle cx="170.14" cy="213.24" r="2" fill="hsl(270, 80%, 65%)" />
<circle cx="348.43" cy="229.47" r="3" fill="hsl(279, 80%, 65%)" />
<circle cx="205.63" cy="338.22" r="4" fill="hsl(288, 80%, 65%)" />
<circle cx="237.55" cy="161.11" r="5" fill="hsl(297, 80%, 65%)" />
<circle cx="333.90" cy="313.66" r="6" fill="hsl(306, 80%, 65%)" />
<circle cx="159.36" cy="266.13" r="2" fill="hsl(315, 80%, 65%)" />
<circle cx="320.58" cy="183.06" r="3" fill="hsl(324, 80%, 65%)" />
<circle cx="257.65" cy="353.65" r="4" fill="hsl(333, 80%, 65%)" />
<circle cx="188.65" cy="184.93" r="5" fill="hsl(342, 80%, 65%)" />
<circle cx="353.92" cy="262.92" r="6" fill="hsl(351, 80%, 65%)" />
<circle cx="178.93" cy="317.19" r="2" fill="hsl(0, 80%, 65%)" />
<circle cx="271.54" cy="158.58" r="3" fill="hsl(9, 80%, 65%)" />
<circle cx="310.49" cy="338.53" r="4" fill="hsl(18, 80%, 65%)" />
<circle cx="159.84" cy="231.89" r="5" fill="hsl(27, 80%, 65%)" />
<circle cx="343.41" cy="208.71" r="6" fill="hsl(36, 80%, 65%)" />
<circle cx="223.41" cy="350.15" r="2" fill="hsl(45, 80%, 65%)" />
<circle cx="216.34" cy="164.34" r="3" fill="hsl(54, 80%, 65%)" />
<circle cx="347.38" cy="296.89" r="4" fill="hsl(63, 80%, 65%)" />
<circle cx="160.77" cy="287.65" r="5" fill="hsl(72, 80%, 65%)" />
<circle cx="304.96" cy="168.12" r="6" fill="hsl(81, 80%, 65%)" />
<circle cx="279.32" cy="354.10" r="2" fill="hsl(90, 80%, 65%)" />
<circle cx="172.34" cy="199.28" r="3" fill="hsl(99, 80%, 65%)" />
<circle cx="356.24" cy="241.28" r="4" fill="hsl(108, 80%, 65%)" />
<circle cx="191.88" cy="334.75" r="5" fill="hsl(117, 80%, 65%)" />
<circle cx="250.07" cy="154.38" r="6" fill="hsl(126, 80%, 65%)" />
<circle cx="329.18" cy="327.09" r="2" fill="hsl(135, 80%, 65%)" />
<circle cx="153.78" cy="253.01" r="3" fill="hsl(144, 80%, 65%)" />
<circle cx="333.58" cy="189.00" r="4" fill="hsl(153, 80%, 65%)" />
<circle cx="244.03" cy="358.04" r="5" fill="hsl(162, 80%, 65%)" />
<circle cx="195.76" cy="172.48" r="6" fill="hsl(171, 80%, 65%)" />
<circle cx="357.06" cy="276.94" r="2" fill="hsl(180, 80%, 65%)" />
<circle cx="167.13" cy="308.94" r="3" fill="hsl(189, 80%, 65%)" />
<circle cx="285.83" cy="156.71" r="4" fill="hsl(198, 80%, 65%)" />
<circle cx="301.17" cy="349.58" r="5" fill="hsl(207, 80%, 65%)" />
<circle cx="159.26" cy="217.43" r="6" fill="hsl(216, 80%, 65%)" />
<circle cx="353.60" cy="219.02" r="2" fill="hsl(225, 80%, 65%)" />
<circle cx="208.91" cy="349.41" r="3" fill="hsl(234, 80%, 65%)" />
<circle cx="227.56" cy="155.09" r="4" fill="hsl(243, 80%, 65%)" />
<circle cx="345.33" cy="311.32" r="5" fill="hsl(252, 80%, 65%)" />
<circle cx="152.54" cy="275.59" r="6" fill="hsl(261, 80%, 65%)" />
<circle cx="319.19" cy="171.48" r="2" fill="hsl(270, 80%, 65%)" />
<circle cx="266.52" cy="361.23" r="3" fill="hsl(279, 80%, 65%)" />
<circle cx="176.99" cy="185.35" r="4" fill="hsl(288, 80%, 65%)" />
<circle cx="362.21" cy="254.72" r="5" fill="hsl(297, 80%, 65%)" />
<circle cx="178.39" cy="328.84" r="6" fill="hsl(306, 80%, 65%)" />
<circle cx="264.04" cy="149.63" r="2" fill="hsl(315, 80%, 65%)" />
</svg>
