<svg xmlns="http://www.w3.org/2000/svg" width="512" height="512" viewBox="0 0 512 512">
<rect width="100%" height="100%" fill="#0b1020"/>
<circle cx="348" cy="112" r="48" fill="#f8f3c9" opacity="0.95" />
<circle cx="415.0" cy="89.0" r="1.8" fill="white" />
<circle cx="435.0" cy="73.0" r="3.4" fill="white" />
<circle cx="219.0" cy="75.0" r="2.2" fill="white" />
<circle cx="185.0" cy="159.0" r="2.9" fill="white" />
<circle cx="428.0" cy="38.0" r="1.8" fill="white" />
<circle cx="451.0" cy="85.0" r="2.1" fill="white" />
<circle cx="34.0" cy="96.0" r="3.5" fill="white" />
<circle cx="489.0" cy="124.0" r="3.4" fill="white" />
<circle cx="325.0" cy="46.0" r="3.0" fill="white" />
<circle cx="481.0" cy="156.0" r="2.4" fill="white" />
<path d="M 20 430 C 124 426, 172 454, 298 440 S 450 389, 512 419" stroke="#5dade2" stroke-width="7" fill="none" opacity="0.85" />
<line x1="0" y1="402" x2="512" y2="402" stroke="#445566" stroke-width="4" />
<polygon points="217,351 257,291 297,311 317,281 337,301 349,341 317,363 267,367" fill="#1e1e1e" />
<polygon points="292,291 305,269 315,293" fill="#1e1e1e" />
<line x1="347" y1="336" x2="377" y2="311" stroke="#1e1e1e" stroke-width="6" />
</svg>
