<svg xmlns="http://www.w3.org/2000/svg" width="512" height="512" viewBox="0 0 512 512">
<rect width="100%" height="100%" fill="#0b1020"/>
<circle cx="444" cy="120" r="53" fill="#f8f3c9" opacity="0.95" />
<circle cx="338.0" cy="84.0" r="2.5" fill="white" />
<circle cx="474.0" cy="97.0" r="2.5" fill="white" />
<circle cx="369.0" cy="57.0" r="3.1" fill="white" />
<circle cx="67.0" cy="71.0" r="1.7" fill="white" />
<circle cx="152.0" cy="46.0" r="2.2" fill="white" />
<circle cx="293.0" cy="32.0" r="2.0" fill="white" />
<path d="M 20 430 C 131 415, 179 443, 310 431 S 450 375, 512 405" stroke="#5dade2" stroke-width="5" fill="none" opacity="0.85" />
<line x1="0" y1="389" x2="512" y2="389" stroke="#445566" stroke-width="2" />
<polygon points="143,365 183,305 223,325 243,295 263,315 275,355 243,377 193,381" fill="#1e1e1e" />
<polygon points="218,305 231,283 241,307" fill="#1e1e1e" />
<line x1="273" y1="350" x2="303" y2="325" stroke="#1e1e1e" stroke-width="6" />
</svg>
