<svg xmlns="http://www.w3.org/2000/svg" width="512" height="512" viewBox="0 0 512 512">
<rect width="100%" height="100%" fill="#0b1020"/>
<circle cx="372" cy="89" r="46" fill="#f8f3c9" opacity="0.95" />
<circle cx="285.0" cy="59.0" r="2.3" fill="white" />
<circle cx="412.0" cy="99.0" r="3.2" fill="white" />
<circle cx="412.0" cy="21.0" r="3.0" fill="white" />
<circle cx="454.0" cy="88.0" r="1.8" fill="white" />
<circle cx="128.0" cy="90.0" r="2.6" fill="white" />
<path d="M 20 430 C 116 426, 183 444, 316 438 S 450 384, 512 414" stroke="#5dade2" stroke-width="5" fill="none" opacity="0.85" />
<line x1="0" y1="408" x2="512" y2="408" stroke="#445566" stroke-width="3" />
<polygon points="213,352 253,292 293,312 313,282 333,302 345,342 313,364 263,368" fill="#1e1e1e" />
<polygon points="288,292 301,270 311,294" fill="#1e1e1e" />
<line x1="343" y1="337" x2="373" y2="312" stroke="#1e1e1e" stroke-width="6" />
</svg>
