<svg xmlns="http://www.w3.org/2000/svg" width="512" height="512" viewBox="0 0 512 512">
<rect width="100%" height="100%" fill="#0b1020"/>
<circle cx="383" cy="92" r="52" fill="#f8f3c9" opacity="0.95" />
<circle cx="380.0" cy="26.0" r="2.7" fill="white" />
<circle cx="428.0" cy="47.0" r="1.7" fill="white" />
<circle cx="250.0" cy="138.0" r="3.0" fill="white" />
<circle cx="180.0" cy="162.0" r="2.7" fill="white" />
<circle cx="60.0" cy="139.0" r="2.3" fill="white" />
<circle cx="214.0" cy="116.0" r="3.4" fill="white" />
<circle cx="423.0" cy="177.0" r="2.9" fill="white" />
<circle cx="298.0" cy="118.0" r="1.6" fill="white" />
<circle cx="410.0" cy="102.0" r="3.0" fill="white" />
<circle cx="81.0" cy="90.0" r="1.7" fill="white" />
<path d="M 20 430 C 106 418, 198 445, 296 429 S 450 404, 512 434" stroke="#5dade2" stroke-width="6" fill="none" opacity="0.85" />
<line x1="0" y1="395" x2="512" y2="395" stroke="#445566" stroke-width="4" />
<polygon points="179,360 219,300 259,320 279,290 299,310 311,350 279,372 229,376" fill="#1e1e1e" />
<polygon points="254,300 267,278 277,302" fill="#1e1e1e" />
<line x1="309" y1="345" x2="339" y2="320" stroke="#1e1e1e" stroke-width="6" />
</svg>
