<svg xmlns="http://www.w3.org/2000/svg" width="512" height="512" viewBox="0 0 512 512">
<rect width="100%" height="100%" fill="#0b1020"/>
<circle cx="425" cy="65" r="42" fill="#f8f3c9" opacity="0.95" />
<circle cx="357.0" cy="51.0" r="1.6" fill="white" />
<circle cx="20.0" cy="149.0" r="2.4" fill="white" />
<circle cx="153.0" cy="77.0" r="1.5" fill="white" />
<circle cx="244.0" cy="104.0" r="1.9" fill="white" />
<circle cx="150.0" cy="28.0" r="2.7" fill="white" />
<circle cx="486.0" cy="153.0" r="2.0" fill="white" />
<circle cx="228.0" cy="34.0" r="3.5" fill="white" />
<path d="M 20 430 C 133 411, 195 454, 306 425 S 450 384, 512 414" stroke="#5dade2" stroke-width="5" fill="none" opacity="0.85" />
<line x1="0" y1="389" x2="512" y2="389" stroke="#445566" stroke-width="3" />
<polygon points="189,354 229,294 269,314 289,284 309,304 321,344 289,366 239,370" fill="#1e1e1e" />
<polygon points="264,294 277,272 287,296" fill="#1e1e1e" />
<line x1="319" y1="339" x2="349" y2="314" stroke="#1e1e1e" stroke-width="6" />
</svg>
