<svg xmlns="http://www.w3.org/2000/svg" width="512" height="512" viewBox="0 0 512 512">
<rect width="100%" height="100%" fill="#0b1020"/>
<circle cx="419" cy="119" r="48" fill="#f8f3c9" opacity="0.95" />
<circle cx="305.0" cy="164.0" r="2.6" fill="white" />
<circle cx="303.0" cy="122.0" r="3.5" fill="white" />
<circle cx="242.0" cy="68.0" r="1.9" fill="white" />
<circle cx="40.0" cy="166.0" r="3.5" fill="white" />
<circle cx="274.0" cy="93.0" r="3.4" fill="white" />
<circle cx="290.0" cy="86.0" r="2.6" fill="white" />
<circle cx="358.0" cy="131.0" r="2.3" fill="white" />
<circle cx="217.0" cy="162.0" r="2.1" fill="white" />
<circle cx="206.0" cy="79.0" r="2.6" fill="white" />
<path d="M 20 430 C 138 415, 173 444, 317 433 S 450 394, 512 424" stroke="#5dade2" stroke-width="8" fill="none" opacity="0.85" />
<line x1="0" y1="399" x2="512" y2="399" stroke="#445566" stroke-width="3" />
<polygon points="185,361 225,301 265,321 285,291 305,311 317,351 285,373 235,377" fill="#1e1e1e" />
<polygon points="260,301 273,279 283,303" fill="#1e1e1e" />
<line x1="315" y1="346" x2="345" y2="321" stroke="#1e1e1e" stroke-width="6" />
</svg>
