<svg xmlns="http://www.w3.org/2000/svg" width="512" height="512" viewBox="0 0 512 512">
<rect width="100%" height="100%" fill="#0b1020"/>
<circle cx="390" cy="134" r="42" fill="#f8f3c9" opacity="0.95" />
<circle cx="450.0" cy="80.0" r="2.5" fill="white" />
<circle cx="396.0" cy="163.0" r="2.1" fill="white" />
<circle cx="238.0" cy="36.0" r="2.8" fill="white" />
<circle cx="248.0" cy="64.0" r="3.3" fill="white" />
<circle cx="69.0" cy="64.0" r="2.3" fill="white" />
<circle cx="410.0" cy="131.0" r="1.8" fill="white" />
<path d="M 20 430 C 102 413, 189 459, 307 432 S 450 397, 512 427" stroke="#5dade2" stroke-width="5" fill="none" opacity="0.85" />
<line x1="0" y1="404" x2="512" y2="404" stroke="#445566" stroke-width="3" />
<polygon points="219,362 259,302 299,322 319,292 339,312 351,352 319,374 269,378" fill="#1e1e1e" />
<polygon points="294,302 307,280 317,304" fill="#1e1e1e" />
<line x1="349" y1="347" x2="379" y2="322" stroke="#1e1e1e" stroke-width="6" />
</svg>
