<svg xmlns="http://www.w3.org/2000/svg" width="512" height="512" viewBox="0 0 512 512">
<rect width="100%" height="100%" fill="#0b1020"/>
<circle cx="389" cy="120" r="47" fill="#f8f3c9" opacity="0.95" />
<circle cx="426.0" cy="173.0" r="2.9" fill="white" />
<circle cx="166.0" cy="113.0" r="2.7" fill="white" />
<circle cx="128.0" cy="172.0" r="2.2" fill="white" />
<circle cx="443.0" cy="119.0" r="2.4" fill="white" />
<circle cx="488.0" cy="121.0" r="1.9" fill="white" />
<circle cx="39.0" cy="56.0" r="2.7" fill="white" />
<circle cx="219.0" cy="73.0" r="2.2" fill="white" />
<circle cx="402.0" cy="154.0" r="2.0" fill="white" />
<path d="M 20 430 C 139 412, 179 457, 307 432 S 450 403, 512 433" stroke="#5dade2" stroke-width="8" fill="none" opacity="0.85" />
<line x1="0" y1="398" x2="512" y2="398" stroke="#445566" stroke-width="2" />
<polygon points="149,354 189,294 229,314 249,284 269,304 281,344 249,366 199,370" fill="#1e1e1e" />
<polygon points="224,294 237,272 247,296" fill="#1e1e1e" />
<line x1="279" y1="339" x2="309" y2="314" stroke="#1e1e1e" stroke-width="6" />
</svg>
