<svg xmlns="http://www.w3.org/2000/svg" width="512" height="512" viewBox="0 0 512 512">
<rect width="100%" height="100%" fill="#0b1020"/>
<circle cx="444" cy="84" r="49" fill="#f8f3c9" opacity="0.95" />
<circle cx="296.0" cy="164.0" r="3.3" fill="white" />
<circle cx="136.0" cy="79.0" r="1.6" fill="white" />
<circle cx="315.0" cy="96.0" r="2.8" fill="white" />
<circle cx="296.0" cy="164.0" r="2.7" fill="white" />
<circle cx="137.0" cy="141.0" r="3.1" fill="white" />
<circle cx="46.0" cy="172.0" r="2.2" fill="white" />
<circle cx="176.0" cy="168.0" r="2.8" fill="white" />
<circle cx="415.0" cy="121.0" r="2.3" fill="white" />
<circle cx="72.0" cy="50.0" r="3.4" fill="white" />
<circle cx="130.0" cy="76.0" r="1.9" fill="white" />
<path d="M 20 430 C 140 425, 181 447, 320 425 S 450 401, 512 431" stroke="#5dade2" stroke-width="8" fill="none" opacity="0.85" />
<line x1="0" y1="396" x2="512" y2="396" stroke="#445566" stroke-width="3" />
<polygon points="152,355 192,295 232,315 252,285 272,305 284,345 252,367 202,371" fill="#1e1e1e" />
<polygon points="227,295 240,273 250,297" fill="#1e1e1e" />
<line x1="282" y1="340" x2="312" y2="315" stroke="#1e1e1e" stroke-width="6" />
</svg>
