<svg xmlns="http://www.w3.org/2000/svg" width="512" height="512" viewBox="0 0 512 512">
<rect width="100%" height="100%" fill="black"/>
<circle cx="256.00" cy="256.00" r="2" fill="hsl(0, 80%, 65%)" />
<circle cx="251.23" cy="260.37" r="3" fill="hsl(7, 80%, 65%)" />
<circle cx="256.80" cy="246.89" r="4" fill="hsl(14, 80%, 65%)" />
<circle cx="262.82" cy="264.89" r="5" fill="hsl(21, 80%, 65%)" />
<circle cx="243.26" cy="253.75" r="6" fill="hsl(28, 80%, 65%)" />
<circle cx="268.21" cy="248.24" r="2" fill="hsl(35, 80%, 65%)" />
<circle cx="251.89" cy="271.30" r="3" fill="hsl(42, 80%, 65%)" />
<circle cx="248.11" cy="240.81" r="4" fill="hsl(49, 80%, 65%)" />
<circle cx="273.19" cy="262.28" r="5" fill="hsl(56, 80%, 65%)" />
<circle cx="238.06" cy="263.41" r="6" fill="hsl(63, 80%, 65%)" />
<circle cx="264.67" cy="237.47" r="2" fill="hsl(70, 80%, 65%)" />
<circle cx="262.42" cy="276.47" r="3" fill="hsl(77, 80%, 65%)" />
<circle cx="236.61" cy="244.76" r="4" fill="hsl(84, 80%, 65%)" />
<circle cx="278.78" cy="250.99" r="5" fill="hsl(91, 80%, 65%)" />
<circle cx="242.08" cy="275.80" r="6" fill="hsl(98, 80%, 65%)" />
<circle cx="252.78" cy="231.15" r="2" fill="hsl(105, 80%, 65%)" />
<circle cx="275.79" cy="272.68" r="3" fill="hsl(112, 80%, 65%)" />
<circle cx="229.35" cy="257.10" r="4" fill="hsl(119, 80%, 65%)" />
<circle cx="275.46" cy="236.64" r="5" fill="hsl(126, 80%, 65%)" />
<circle cx="254.70" cy="284.17" r="6" fill="hsl(133, 80%, 65%)" />
<circle cx="237.46" cy="233.79" r="2" fill="hsl(140, 80%, 65%)" />
<circle cx="285.38" cy="259.95" r="3" fill="hsl(147, 80%, 65%)" />
<circle cx="231.09" cy="273.33" r="4" fill="hsl(154, 80%, 65%)" />
<circle cx="262.81" cy="225.73" r="5" fill="hsl(161, 80%, 65%)" />
<circle cx="271.76" cy="283.50" r="6" fill="hsl(168, 80%, 65%)" />
<circle cx="225.18" cy="246.17" r="2" fill="hsl(175, 80%, 65%)" />
<circle cx="285.95" cy="242.16" r="3" fill="hsl(182, 80%, 65%)" />
<circle cx="243.02" cy="287.01" r="4" fill="hsl(189, 80%, 65%)" />
<circle cx="244.41" cy="223.79" r="5" fill="hsl(196, 80%, 65%)" />
<circle cx="286.84" cy="272.21" r="6" fill="hsl(203, 80%, 65%)" />
<circle cx="221.74" cy="265.03" r="2" fill="hsl(210, 80%, 65%)" />
<circle cx="275.48" cy="225.70" r="3" fill="hsl(217, 80%, 65%)" />
<circle cx="262.20" cy="292.07" r="4" fill="hsl(224, 80%, 65%)" />
<circle cx="226.62" cy="233.24" r="5" fill="hsl(231, 80%, 65%)" />
<circle cx="293.60" cy="252.89" r="6" fill="hsl(238, 80%, 65%)" />
<circle cx="230.01" cy="284.10" r="2" fill="hsl(245, 80%, 65%)" />
<circle cx="256.19" cy="217.18" r="3" fill="hsl(252, 80%, 65%)" />
<circle cx="282.44" cy="285.15" r="4" fill="hsl(259, 80%, 65%)" />
<circle cx="216.29" cy="252.32" r="5" fill="hsl(266, 80%, 65%)" />
<circle cx="288.18" cy="231.57" r="6" fill="hsl(273, 80%, 65%)" />
<circle cx="248.68" cy="296.26" r="2" fill="hsl(280, 80%, 65%)" />
<circle cx="233.94" cy="220.94" r="3" fill="hsl(287, 80%, 65%)" />
<circle cx="296.44" cy="267.08" r="4" fill="hsl(294, 80%, 65%)" />
<circle cx="218.26" cy="275.37" r="5" fill="hsl(301, 80%, 65%)" />
<circle cx="270.92" cy="215.76" r="6" fill="hsl(308, 80%, 65%)" />
<circle cx="272.36" cy="296.20" r="2" fill="hsl(315, 80%, 65%)" />
<circle cx="216.35" cy="237.21" r="3" fill="hsl(322, 80%, 65%)" />
<circle cx="298.38" cy="242.93" r="4" fill="hsl(329, 80%, 65%)" />
<circle cx="233.34" cy="294.67" r="5" fill="hsl(336, 80%, 65%)" />
<circle cx="246.49" cy="211.72" r="6" fill="hsl(343, 80%, 65%)" />
<circle cx="293.30" cy="282.49" r="2" fill="hsl(350, 80%, 65%)" />
<circle cx="210.15" cy="261.71" r="3" fill="hsl(357, 80%, 65%)" />
<circle cx="286.24" cy="220.47" r="4" fill="hsl(4, 80%, 65%)" />
<circle cx="257.72" cy="303.07" r="5" fill="hsl(11, 80%, 65%)" />
<circle cx="222.63" cy="222.14" r="6" fill="hsl(18, 80%, 65%)" />
<circle cx="303.92" cy="258.45" r="2" fill="hsl(25, 80%, 65%)" />
<circle cx="218.68" cy="286.84" r="3" fill="hsl(32, 80%, 65%)" />
<circle cx="262.75" cy="207.62" r="4" fill="hsl(39, 80%, 65%)" />
<circle cx="283.94" cy="296.58" r="5" fill="hsl(46, 80%, 65%)" />
<circle cx="207.57" cy="244.86" r="6" fill="hsl(53, 80%, 65%)" />
<circle cx="299.60" cy="231.30" r="2" fill="hsl(60, 80%, 65%)" />
<circle cx="240.41" cy="304.06" r="3" fill="hsl(67, 80%, 65%)" />
<circle cx="234.86" cy="209.65" r="4" fill="hsl(74, 80%, 65%)" />
<circle cx="303.27" cy="276.06" r="5" fill="hsl(81, 80%, 65%)" />
<circle cx="207.21" cy="273.28" r="6" fill="hsl(88, 80%, 65%)" />
<circle cx="280.49" cy="209.95" r="2" fill="hsl(95, 80%, 65%)" />
<circle cx="269.15" cy="306.89" r="3" fill="hsl(102, 80%, 65%)" />
<circle cx="211.60" cy="227.14" r="4" fill="hsl(109, 80%, 65%)" />
<circle cx="308.62" cy="247.22" r="5" fill="hsl(116, 80%, 65%)" />
<circle cx="222.89" cy="298.33" r="6" fill="hsl(123, 80%, 65%)" />
<circle cx="251.79" cy="202.04" r="2" fill="hsl(130, 80%, 65%)" />
<circle cx="295.84" cy="293.21" r="3" fill="hsl(137, 80%, 65%)" />
<circle cx="201.11" cy="255.46" r="4" fill="hsl(144, 80%, 65%)" />
<circle cx="297.12" cy="219.06" r="5" fill="hsl(151, 80%, 65%)" />
<circle cx="250.59" cy="311.39" r="6" fill="hsl(158, 80%, 65%)" />
<circle cx="222.35" cy="211.21" r="2" fill="hsl(165, 80%, 65%)" />
<circle cx="311.44" cy="266.37" r="3" fill="hsl(172, 80%, 65%)" />
<circle cx="207.80" cy="286.00" r="4" fill="hsl(179, 80%, 65%)" />
<circle cx="271.37" cy="200.97" r="5" fill="hsl(186, 80%, 65%)" />
<circle cx="282.00" cy="307.29" r="6" fill="hsl(193, 80%, 65%)" />
<circle cx="201.84" cy="235.62" r="2" fill="hsl(200, 80%, 65%)" />
<circle cx="310.04" cy="234.31" r="3" fill="hsl(207, 80%, 65%)" />
<circle cx="230.65" cy="308.82" r="4" fill="hsl(214, 80%, 65%)" />
<circle cx="238.91" cy="199.59" r="5" fill="hsl(221, 80%, 65%)" />
<circle cx="307.01" cy="286.23" r="6" fill="hsl(228, 80%, 65%)" />
<circle cx="197.62" cy="268.24" r="2" fill="hsl(235, 80%, 65%)" />
<circle cx="290.98" cy="207.26" r="3" fill="hsl(242, 80%, 65%)" />
<circle cx="263.17" cy="315.92" r="4" fill="hsl(249, 80%, 65%)" />
<circle cx="209.98" cy="216.44" r="5" fill="hsl(256, 80%, 65%)" />
<circle cx="317.00" cy="254.07" r="6" fill="hsl(263, 80%, 65%)" />
<circle cx="212.07" cy="298.87" r="2" fill="hsl(270, 80%, 65%)" />
<circle cx="259.45" cy="194.38" r="3" fill="hsl(277, 80%, 65%)" />
<circle cx="295.29" cy="304.03" r="4" fill="hsl(284, 80%, 65%)" />
<circle cx="194.25" cy="247.08" r="5" fill="hsl(291, 80%, 65%)" />
<circle cx="307.84" cy="220.68" r="6" fill="hsl(298, 80%, 65%)" />
<circle cx="241.56" cy="317.38" r="2" fill="hsl(305, 80%, 65%)" />
<circle cx="225.02" cy="200.70" r="3" fill="hsl(312, 80%, 65%)" />
<circle cx="316.51" cy="275.96" r="4" fill="hsl(319, 80%, 65%)" />
<circle cx="197.60" cy="282.29" r="5" fill="hsl(326, 80%, 65%)" />
<circle cx="281.43" cy="196.86" r="6" fill="hsl(333, 80%, 65%)" />
<circle cx="277.30" cy="317.09" r="2" fill="hsl(340, 80%, 65%)" />
<circle cx="198.74" cy="225.19" r="3" fill="hsl(347, 80%, 65%)" />
<circle cx="319.34" cy="239.96" r="4" fill="hsl(354, 80%, 65%)" />
<circle cx="219.95" cy="310.88" r="5" fill="hsl(1, 80%, 65%)" />
<circle cx="245.46" cy="190.87" r="6" fill="hsl(8, 80%, 65%)" />
<circle cx="308.01" cy="297.10" r="2" fill="hsl(15, 80%, 65%)" />
<circle cx="189.57" cy="260.85" r="3" fill="hsl(22, 80%, 65%)" />
<circle cx="301.92" cy="207.32" r="4" fill="hsl(29, 80%, 65%)" />
<circle cx="255.02" cy="323.23" r="5" fill="hsl(36, 80%, 65%)" />
<circle cx="211.11" cy="205.53" r="6" fill="hsl(43, 80%, 65%)" />
<circle cx="323.50" cy="262.92" r="2" fill="hsl(50, 80%, 65%)" />
<circle cx="201.31" cy="296.68" r="3" fill="hsl(57, 80%, 65%)" />
<circle cx="268.91" cy="188.76" r="4" fill="hsl(64, 80%, 65%)" />
<circle cx="292.06" cy="314.56" r="5" fill="hsl(71, 80%, 65%)" />
<circle cx="189.56" cy="237.09" r="6" fill="hsl(78, 80%, 65%)" />
<circle cx="318.03" cy="224.93" r="2" fill="hsl(85, 80%, 65%)" />
<circle cx="231.14" cy="321.09" r="3" fill="hsl(92, 80%, 65%)" />
<circle cx="230.25" cy="190.93" r="4" fill="hsl(99, 80%, 65%)" />
<circle cx="319.21" cy="286.72" r="5" fill="hsl(106, 80%, 65%)" />
<circle cx="188.36" cy="276.13" r="6" fill="hsl(113, 80%, 65%)" />
<circle cx="292.43" cy="195.21" r="2" fill="hsl(120, 80%, 65%)" />
<circle cx="270.26" cy="325.72" r="3" fill="hsl(127, 80%, 65%)" />
<circle cx="198.15" cy="214.05" r="4" fill="hsl(134, 80%, 65%)" />
<circle cx="327.28" cy="247.82" r="5" fill="hsl(141, 80%, 65%)" />
<circle cx="208.77" cy="310.40" r="6" fill="hsl(148, 80%, 65%)" />
<circle cx="254.07" cy="183.69" r="2" fill="hsl(155, 80%, 65%)" />
<circle cx="306.47" cy="308.22" r="3" fill="hsl(162, 80%, 65%)" />
<circle cx="183.23" cy="251.57" r="4" fill="hsl(169, 80%, 65%)" />
<circle cx="312.88" cy="209.93" r="5" fill="hsl(176, 80%, 65%)" />
<circle cx="245.14" cy="328.67" r="6" fill="hsl(183, 80%, 65%)" />
<circle cx="214.76" cy="194.84" r="2" fill="hsl(190, 80%, 65%)" />
<circle cx="328.00" cy="273.31" r="3" fill="hsl(197, 80%, 65%)" />
<circle cx="190.97" cy="292.01" r="4" fill="hsl(204, 80%, 65%)" />
<circle cx="279.71" cy="185.26" r="5" fill="hsl(211, 80%, 65%)" />
<circle cx="286.41" cy="324.44" r="6" fill="hsl(218, 80%, 65%)" />
<circle cx="187.09" cy="225.97" r="2" fill="hsl(225, 80%, 65%)" />
<circle cx="327.36" cy="231.51" r="3" fill="hsl(232, 80%, 65%)" />
<circle cx="219.79" cy="322.51" r="4" fill="hsl(239, 80%, 65%)" />
<circle cx="237.71" cy="182.23" r="5" fill="hsl(246, 80%, 65%)" />
<circle cx="319.55" cy="298.19" r="6" fill="hsl(253, 80%, 65%)" />
<circle cx="180.38" cy="267.86" r="2" fill="hsl(260, 80%, 65%)" />
<circle cx="303.92" cy="195.96" r="3" fill="hsl(267, 80%, 65%)" />
<circle cx="261.24" cy="332.92" r="4" fill="hsl(274, 80%, 65%)" />
<circle cx="199.98" cy="202.64" r="5" fill="hsl(281, 80%, 65%)" />
<circle cx="333.62" cy="257.51" r="6" fill="hsl(288, 80%, 65%)" />
<circle cx="197.54" cy="307.49" r="2" fill="hsl(295, 80%, 65%)" />
<circle cx="264.35" cy="178.28" r="3" fill="hsl(302, 80%, 65%)" />
<circle cx="302.50" cy="319.17" r="4" fill="hsl(309, 80%, 65%)" />
<circle cx="178.78" cy="240.78" r="5" fill="hsl(316, 80%, 65%)" />
<circle cx="323.45" cy="214.92" r="6" fill="hsl(323, 80%, 65%)" />
<circle cx="233.94" cy="332.10" r="2" fill="hsl(330, 80%, 65%)" />
<circle cx="220.74" cy="184.75" r="3" fill="hsl(337, 80%, 65%)" />
<circle cx="330.37" cy="284.82" r="4" fill="hsl(344, 80%, 65%)" />
<circle cx="181.45" cy="285.08" r="5" fill="hsl(351, 80%, 65%)" />
<circle cx="291.44" cy="183.96" r="6" fill="hsl(358, 80%, 65%)" />
<circle cx="278.60" cy="333.31" r="2" fill="hsl(5, 80%, 65%)" />
<circle cx="186.89" cy="214.13" r="3" fill="hsl(12, 80%, 65%)" />
<circle cx="335.50" cy="240.14" r="4" fill="hsl(19, 80%, 65%)" />
<circle cx="207.94" cy="321.60" r="5" fill="hsl(26, 80%, 65%)" />
<circle cx="247.10" cy="174.91" r="6" fill="hsl(33, 80%, 65%)" />
<circle cx="317.53" cy="309.95" r="2" fill="hsl(40, 80%, 65%)" />
<circle cx="173.93" cy="257.79" r="3" fill="hsl(47, 80%, 65%)" />
<circle cx="315.49" cy="199.07" r="4" fill="hsl(54, 80%, 65%)" />
<circle cx="250.58" cy="338.42" r="5" fill="hsl(61, 80%, 65%)" />
<circle cx="204.17" cy="191.36" r="6" fill="hsl(68, 80%, 65%)" />
<circle cx="338.13" cy="268.69" r="2" fill="hsl(75, 80%, 65%)" />
<circle cx="186.66" cy="302.26" r="3" fill="hsl(82, 80%, 65%)" />
<circle cx="275.94" cy="174.81" r="4" fill="hsl(89, 80%, 65%)" />
<circle cx="296.26" cy="329.56" r="5" fill="hsl(96, 80%, 65%)" />
<circle cx="176.39" cy="228.88" r="6" fill="hsl(103, 80%, 65%)" />
<circle cx="333.25" cy="222.12" r="2" fill="hsl(110, 80%, 65%)" />
<circle cx="221.82" cy="333.39" r="3" fill="hsl(117, 80%, 65%)" />
<circle cx="228.85" cy="175.61" r="4" fill="hsl(124, 80%, 65%)" />
<circle cx="330.54" cy="297.05" r="5" fill="hsl(131, 80%, 65%)" />
<circle cx="173.07" cy="276.14" r="6" fill="hsl(138, 80%, 65%)" />
<circle cx="303.68" cy="184.93" r="2" fill="hsl(145, 80%, 65%)" />
<circle cx="268.88" cy="340.86" r="3" fill="hsl(152, 80%, 65%)" />
<circle cx="188.99" cy="201.98" r="4" fill="hsl(159, 80%, 65%)" />
<circle cx="342.14" cy="250.55" r="5" fill="hsl(166, 80%, 65%)" />
<circle cx="195.99" cy="318.38" r="6" fill="hsl(173, 80%, 65%)" />
<circle cx="258.12" cy="169.23" r="2" fill="hsl(180, 80%, 65%)" />
<circle cx="313.21" cy="321.59" r="3" fill="hsl(187, 80%, 65%)" />
<circle cx="169.27" cy="246.25" r="4" fill="hsl(194, 80%, 65%)" />
<circle cx="326.73" cy="204.46" r="5" fill="hsl(201, 80%, 65%)" />
<circle cx="238.61" cy="342.02" r="6" fill="hsl(208, 80%, 65%)" />
<circle cx="210.60" cy="180.62" r="2" fill="hsl(215, 80%, 65%)" />
<circle cx="340.62" cy="280.98" r="3" fill="hsl(222, 80%, 65%)" />
<circle cx="176.52" cy="294.85" r="4" fill="hsl(229, 80%, 65%)" />
<circle cx="288.45" cy="173.44" r="5" fill="hsl(236, 80%, 65%)" />
<circle cx="287.92" cy="339.02" r="6" fill="hsl(243, 80%, 65%)" />
<circle cx="176.18" cy="216.24" r="2" fill="hsl(250, 80%, 65%)" />
<circle cx="341.94" cy="231.33" r="3" fill="hsl(257, 80%, 65%)" />
<circle cx="209.17" cy="332.44" r="4" fill="hsl(264, 80%, 65%)" />
<circle cx="238.85" cy="167.77" r="5" fill="hsl(271, 80%, 65%)" />
<circle cx="328.43" cy="309.61" r="6" fill="hsl(278, 80%, 65%)" />
<circle cx="166.15" cy="265.42" r="2" fill="hsl(285, 80%, 65%)" />
<circle cx="316.04" cy="188.19" r="3" fill="hsl(292, 80%, 65%)" />
<circle cx="257.54" cy="346.79" r="4" fill="hsl(299, 80%, 65%)" />
<circle cx="193.38" cy="189.92" r="5" fill="hsl(306, 80%, 65%)" />
<circle cx="347.04" cy="262.44" r="6" fill="hsl(313, 80%, 65%)" />
<circle cx="184.34" cy="312.89" r="2" fill="hsl(320, 80%, 65%)" />
<circle cx="270.44" cy="165.42" r="3" fill="hsl(327, 80%, 65%)" />
<circle cx="306.66" cy="332.74" r="4" fill="hsl(334, 80%, 65%)" />
<circle cx="166.59" cy="233.58" r="5" fill="hsl(341, 80%, 65%)" />
<circle cx="337.27" cy="212.03" r="6" fill="hsl(348, 80%, 65%)" />
<circle cx="225.70" cy="343.54" r="2" fill="hsl(355, 80%, 65%)" />
<circle cx="219.12" cy="170.78" r="3" fill="hsl(2, 80%, 65%)" />
<circle cx="340.96" cy="294.02" r="4" fill="hsl(9, 80%, 65%)" />
<circle cx="167.46" cy="285.43" r="5" fill="hsl(16, 80%, 65%)" />
<circle cx="301.52" cy="174.29" r="6" fill="hsl(23, 80%, 65%)" />
<circle cx="277.68" cy="347.21" r="2" fill="hsl(30, 80%, 65%)" />
<circle cx="178.22" cy="203.26" r="3" fill="hsl(37, 80%, 65%)" />
<circle cx="349.20" cy="242.31" r="4" fill="hsl(44, 80%, 65%)" />
<circle cx="196.38" cy="329.22" r="5" fill="hsl(51, 80%, 65%)" />
<circle cx="250.49" cy="161.52" r="6" fill="hsl(58, 80%, 65%)" />
<circle cx="324.04" cy="322.10" r="2" fill="hsl(65, 80%, 65%)" />
<circle cx="160.96" cy="253.22" r="3" fill="hsl(72, 80%, 65%)" />
<circle cx="328.13" cy="193.71" r="4" fill="hsl(79, 80%, 65%)" />
<circle cx="244.87" cy="350.87" r="5" fill="hsl(86, 80%, 65%)" />
<circle cx="200.00" cy="178.35" r="6" fill="hsl(93, 80%, 65%)" />
<circle cx="349.96" cy="275.47" r="2" fill="hsl(100, 80%, 65%)" />
<circle cx="173.37" cy="305.22" r="3" fill="hsl(107, 80%, 65%)" />
<circle cx="283.74" cy="163.68" r="4" fill="hsl(114, 80%, 65%)" />
<circle cx="298.00" cy="343.00" r="5" fill="hsl(121, 80%, 65%)" />
<circle cx="166.06" cy="220.14" r="6" fill="hsl(128, 80%, 65%)" />
</svg>
