<svg xmlns="http://www.w3.org/2000/svg" width="512" height="512" viewBox="0 0 512 512">
<rect width="100%" height="100%" fill="#0b1020"/>
<circle cx="382" cy="140" r="42" fill="#f8f3c9" opacity="0.95" />
<circle cx="241.0" cy="155.0" r="2.5" fill="white" />
<circle cx="168.0" cy="46.0" r="3.3" fill="white" />
<circle cx="420.0" cy="33.0" r="2.5" fill="white" />
<circle cx="76.0" cy="85.0" r="2.0" fill="white" />
<circle cx="111.0" cy="176.0" r="3.3" fill="white" />
<circle cx="68.0" cy="133.0" r="3.2" fill="white" />
<circle cx="205.0" cy="140.0" r="1.7" fill="white" />
<circle cx="170.0" cy="88.0" r="2.2" fill="white" />
<circle cx="320.0" cy="173.0" r="2.1" fill="white" />
<circle cx="406.0" cy="180.0" r="2.0" fill="white" />
<circle cx="410.0" cy="23.0" r="2.6" fill="white" />
<circle cx="180.0" cy="99.0" r="2.3" fill="white" />
<circle cx="43.0" cy="167.0" r="3.4" fill="white" />
<path d="M 20 430 C 128 424, 195 441, 297 432 S 450 388, 512 418" stroke="#5dade2" stroke-width="8" fill="none" opacity="0.85" />
<line x1="0" y1="407" x2="512" y2="407" stroke="#445566" stroke-width="3" />
<polygon points="187,357 227,297 267,317 287,287 307,307 319,347 287,369 237,373" fill="#1e1e1e" />
<polygon points="262,297 275,275 285,299" fill="#1e1e1e" />
<line x1="317" y1="342" x2="347" y2="317" stroke="#1e1e1e" stroke-width="6" />
</svg>
