<svg xmlns="http://www.w3.org/2000/svg" width="512" height="512" viewBox="0 0 512 512">
<rect width="100%" height="100%" fill="#0b1020"/>
<circle cx="375" cy="88" r="41" fill="#f8f3c9" opacity="0.95" />
<circle cx="434.0" cy="174.0" r="3.4" fill="white" />
<circle cx="247.0" cy="106.0" r="1.8" fill="white" />
<circle cx="458.0" cy="57.0" r="2.9" fill="white" />
<circle cx="264.0" cy="70.0" r="2.7" fill="white" />
<circle cx="139.0" cy="53.0" r="1.5" fill="white" />
<circle cx="55.0" cy="31.0" r="3.3" fill="white" />
<path d="M 20 430 C 113 424, 177 445, 311 435 S 450 397, 512 427" stroke="#5dade2" stroke-width="5" fill="none" opacity="0.85" />
<line x1="0" y1="390" x2="512" y2="390" stroke="#445566" stroke-width="2" />
<polygon points="187,352 227,292 267,312 287,282 307,302 319,342 287,364 237,368" fill="#1e1e1e" />
<polygon points="262,292 275,270 285,294" fill="#1e1e1e" />
<line x1="317" y1="337" x2="347" y2="312" stroke="#1e1e1e" stroke-width="6" />
</svg>
