<svg xmlns="http://www.w3.org/2000/svg" width="512" height="512" viewBox="0 0 512 512">
<rect width="100%" height="100%" fill="#0b1020"/>
<circle cx="354" cy="64" r="43" fill="#f8f3c9" opacity="0.95" />
<circle cx="211.0" cy="159.0" r="3.4" fill="white" />
<circle cx="46.0" cy="109.0" r="3.1" fill="white" />
<circle cx="436.0" cy="73.0" r="2.3" fill="white" />
<circle cx="193.0" cy="150.0" r="1.8" fill="white" />
<circle cx="330.0" cy="157.0" r="2.8" fill="white" />
<circle cx="83.0" cy="22.0" r="2.1" fill="white" />
<circle cx="88.0" cy="37.0" r="2.5" fill="white" />
<circle cx="109.0" cy="41.0" r="1.9" fill="white" />
<circle cx="185.0" cy="90.0" r="2.4" fill="white" />
<circle cx="144.0" cy="114.0" r="3.2" fill="white" />
<circle cx="199.0" cy="156.0" r="1.7" fill="white" />
<circle cx="110.0" cy="44.0" r="2.2" fill="white" />
<circle cx="480.0" cy="68.0" r="2.6" fill="white" />
<path d="M 20 430 C 111 411, 165 445, 282 428 S 450 376, 512 406" stroke="#5dade2" stroke-width="5" fill="none" opacity="0.85" />
<line x1="0" y1="415" x2="512" y2="415" stroke="#445566" stroke-width="4" />
<polygon points="219,357 259,297 299,317 319,287 339,307 351,347 319,369 269,373" fill="#1e1e1e" />
<polygon points="294,297 307,275 317,299" fill="#1e1e1e" />
<line x1="349" y1="342" x2="379" y2="317" stroke="#1e1e1e" stroke-width="6" />
</svg>
