<svg xmlns="http://www.w3.org/2000/svg" width="512" height="512" viewBox="0 0 512 512">
<rect width="100%" height="100%" fill="#0b1020"/>
<circle cx="367" cy="130" r="43" fill="#f8f3c9" opacity="0.95" />
<circle cx="362.0" cy="107.0" r="2.8" fill="white" />
<circle cx="387.0" cy="83.0" r="2.4" fill="white" />
<circle cx="82.0" cy="132.0" r="2.7" fill="white" />
<circle cx="363.0" cy="111.0" r="2.8" fill="white" />
<circle cx="406.0" cy="67.0" r="1.7" fill="white" />
<circle cx="325.0" cy="52.0" r="1.9" fill="white" />
<circle cx="491.0" cy="113.0" r="2.6" fill="white" />
<path d="M 20 430 C 137 425, 200 445, 293 421 S 450 375, 512 405" stroke="#5dade2" stroke-width="7" fill="none" opacity="0.85" />
<line x1="0" y1="399" x2="512" y2="399" stroke="#445566" stroke-width="3" />
<polygon points="196,359 236,299 276,319 296,289 316,309 328,349 296,371 246,375" fill="#1e1e1e" />
<polygon points="271,299 284,277 294,301" fill="#1e1e1e" />
<line x1="326" y1="344" x2="356" y2="319" stroke="#1e1e1e" stroke-width="6" />
</svg>
