<svg xmlns="http://www.w3.org/2000/svg" width="512" height="512" viewBox="0 0 512 512">
<rect width="100%" height="100%" fill="#0b1020"/>
<circle cx="417" cy="114" r="43" fill="#f8f3c9" opacity="0.95" />
<circle cx="43.0" cy="162.0" r="2.6" fill="white" />
<circle cx="246.0" cy="141.0" r="1.5" fill="white" />
<circle cx="103.0" cy="78.0" r="3.0" fill="white" />
<circle cx="310.0" cy="106.0" r="1.7" fill="white" />
<circle cx="22.0" cy="139.0" r="1.8" fill="white" />
<circle cx="324.0" cy="72.0" r="1.8" fill="white" />
<circle cx="109.0" cy="78.0" r="2.2" fill="white" />
<circle cx="248.0" cy="157.0" r="2.0" fill="white" />
<circle cx="490.0" cy="87.0" r="3.2" fill="white" />
<circle cx="103.0" cy="82.0" r="3.0" fill="white" />
<path d="M 20 430 C 118 423, 161 451, 291 421 S 450 384, 512 414" stroke="#5dade2" stroke-width="7" fill="none" opacity="0.85" />
<line x1="0" y1="411" x2="512" y2="411" stroke="#445566" stroke-width="4" />
<polygon points="208,352 248,292 288,312 308,282 328,302 340,342 308,364 258,368" fill="#1e1e1e" />
<polygon points="283,292 296,270 306,294" fill="#1e1e1e" />
<line x1="338" y1="337" x2="368" y2="312" stroke="#1e1e1e" stroke-width="6" />
</svg>
