<svg xmlns="http://www.w3.org/2000/svg" width="512" height="512" viewBox="0 0 512 512">
<rect width="100%" height="100%" fill="black"/>
<circle cx="256.00" cy="256.00" r="2" fill="hsl(0, 80%, 65%)" />
<circle cx="250.82" cy="260.74" r="3" fill="hsl(6, 80%, 65%)" />
<circle cx="256.87" cy="246.11" r="4" fill="hsl(12, 80%, 65%)" />
<circle cx="263.40" cy="265.65" r="5" fill="hsl(18, 80%, 65%)" />
<circle cx="242.17" cy="253.55" r="6" fill="hsl(24, 80%, 65%)" />
<circle cx="269.25" cy="247.57" r="2" fill="hsl(30, 80%, 65%)" />
<circle cx="251.53" cy="272.61" r="3" fill="hsl(36, 80%, 65%)" />
<circle cx="247.44" cy="239.51" r="4" fill="hsl(42, 80%, 65%)" />
<circle cx="274.66" cy="262.81" r="5" fill="hsl(48, 80%, 65%)" />
<circle cx="236.52" cy="264.04" r="6" fill="hsl(54, 80%, 65%)" />
<circle cx="265.41" cy="235.88" r="2" fill="hsl(60, 80%, 65%)" />
<circle cx="262.97" cy="278.23" r="3" fill="hsl(66, 80%, 65%)" />
<circle cx="234.95" cy="243.80" r="4" fill="hsl(72, 80%, 65%)" />
<circle cx="280.73" cy="250.56" r="5" fill="hsl(78, 80%, 65%)" />
<circle cx="240.89" cy="277.50" r="6" fill="hsl(84, 80%, 65%)" />
<circle cx="252.50" cy="229.02" r="2" fill="hsl(90, 80%, 65%)" />
<circle cx="277.48" cy="274.11" r="3" fill="hsl(96, 80%, 65%)" />
<circle cx="227.07" cy="257.20" r="4" fill="hsl(102, 80%, 65%)" />
<circle cx="277.12" cy="234.98" r="5" fill="hsl(108, 80%, 65%)" />
<circle cx="254.59" cy="286.58" r="6" fill="hsl(114, 80%, 65%)" />
<circle cx="235.88" cy="231.88" r="2" fill="hsl(120, 80%, 65%)" />
<circle cx="287.90" cy="260.29" r="3" fill="hsl(126, 80%, 65%)" />
<circle cx="228.96" cy="274.81" r="4" fill="hsl(132, 80%, 65%)" />
<circle cx="263.39" cy="223.14" r="5" fill="hsl(138, 80%, 65%)" />
<circle cx="273.11" cy="285.85" r="6" fill="hsl(144, 80%, 65%)" />
<circle cx="222.54" cy="245.33" r="2" fill="hsl(150, 80%, 65%)" />
<circle cx="288.51" cy="240.98" r="3" fill="hsl(156, 80%, 65%)" />
<circle cx="241.91" cy="289.67" r="4" fill="hsl(162, 80%, 65%)" />
<circle cx="243.42" cy="221.03" r="5" fill="hsl(168, 80%, 65%)" />
<circle cx="289.48" cy="273.60" r="6" fill="hsl(174, 80%, 65%)" />
<circle cx="218.80" cy="265.81" r="2" fill="hsl(180, 80%, 65%)" />
<circle cx="277.15" cy="223.11" r="3" fill="hsl(186, 80%, 65%)" />
<circle cx="262.73" cy="295.16" r="4" fill="hsl(192, 80%, 65%)" />
<circle cx="224.10" cy="231.30" r="5" fill="hsl(198, 80%, 65%)" />
<circle cx="296.81" cy="252.62" r="6" fill="hsl(204, 80%, 65%)" />
<circle cx="227.78" cy="286.50" r="2" fill="hsl(210, 80%, 65%)" />
<circle cx="256.21" cy="213.86" r="3" fill="hsl(216, 80%, 65%)" />
<circle cx="284.70" cy="287.64" r="4" fill="hsl(222, 80%, 65%)" />
<circle cx="212.89" cy="252.00" r="5" fill="hsl(228, 80%, 65%)" />
<circle cx="290.94" cy="229.48" r="6" fill="hsl(234, 80%, 65%)" />
<circle cx="248.05" cy="299.70" r="2" fill="hsl(240, 80%, 65%)" />
<circle cx="232.05" cy="217.94" r="3" fill="hsl(246, 80%, 65%)" />
<circle cx="299.90" cy="268.03" r="4" fill="hsl(252, 80%, 65%)" />
<circle cx="215.02" cy="277.03" r="5" fill="hsl(258, 80%, 65%)" />
<circle cx="272.19" cy="212.32" r="6" fill="hsl(264, 80%, 65%)" />
<circle cx="273.76" cy="299.64" r="2" fill="hsl(270, 80%, 65%)" />
<circle cx="212.95" cy="235.60" r="3" fill="hsl(276, 80%, 65%)" />
<circle cx="302.01" cy="241.81" r="4" fill="hsl(282, 80%, 65%)" />
<circle cx="231.40" cy="297.98" r="5" fill="hsl(288, 80%, 65%)" />
<circle cx="245.68" cy="207.93" r="6" fill="hsl(294, 80%, 65%)" />
<circle cx="296.49" cy="284.76" r="2" fill="hsl(300, 80%, 65%)" />
<circle cx="206.23" cy="262.20" r="3" fill="hsl(306, 80%, 65%)" />
<circle cx="288.83" cy="217.43" r="4" fill="hsl(312, 80%, 65%)" />
<circle cx="257.86" cy="307.10" r="5" fill="hsl(318, 80%, 65%)" />
<circle cx="219.77" cy="219.24" r="6" fill="hsl(324, 80%, 65%)" />
<circle cx="308.02" cy="258.66" r="2" fill="hsl(330, 80%, 65%)" />
<circle cx="215.48" cy="289.48" r="3" fill="hsl(336, 80%, 65%)" />
<circle cx="263.33" cy="203.48" r="4" fill="hsl(342, 80%, 65%)" />
<circle cx="286.33" cy="300.06" r="5" fill="hsl(348, 80%, 65%)" />
<circle cx="203.43" cy="243.90" r="6" fill="hsl(354, 80%, 65%)" />
<circle cx="303.33" cy="229.18" r="2" fill="hsl(0, 80%, 65%)" />
<circle cx="239.07" cy="308.18" r="3" fill="hsl(6, 80%, 65%)" />
<circle cx="233.05" cy="205.68" r="4" fill="hsl(12, 80%, 65%)" />
<circle cx="307.32" cy="277.77" r="5" fill="hsl(18, 80%, 65%)" />
<circle cx="203.04" cy="274.76" r="6" fill="hsl(24, 80%, 65%)" />
<circle cx="282.59" cy="206.01" r="2" fill="hsl(30, 80%, 65%)" />
<circle cx="270.27" cy="311.24" r="3" fill="hsl(36, 80%, 65%)" />
<circle cx="207.80" cy="224.67" r="4" fill="hsl(42, 80%, 65%)" />
<circle cx="313.13" cy="246.47" r="5" fill="hsl(48, 80%, 65%)" />
<circle cx="220.05" cy="301.95" r="6" fill="hsl(54, 80%, 65%)" />
<circle cx="251.43" cy="197.41" r="2" fill="hsl(60, 80%, 65%)" />
<circle cx="299.25" cy="296.40" r="3" fill="hsl(66, 80%, 65%)" />
<circle cx="196.41" cy="255.42" r="4" fill="hsl(72, 80%, 65%)" />
<circle cx="300.64" cy="215.90" r="5" fill="hsl(78, 80%, 65%)" />
<circle cx="250.13" cy="316.13" r="6" fill="hsl(84, 80%, 65%)" />
<circle cx="219.46" cy="207.37" r="2" fill="hsl(90, 80%, 65%)" />
<circle cx="316.19" cy="267.25" r="3" fill="hsl(96, 80%, 65%)" />
<circle cx="203.68" cy="288.57" r="4" fill="hsl(102, 80%, 65%)" />
<circle cx="272.69" cy="196.26" r="5" fill="hsl(108, 80%, 65%)" />
<circle cx="284.23" cy="311.68" r="6" fill="hsl(114, 80%, 65%)" />
<circle cx="197.20" cy="233.88" r="2" fill="hsl(120, 80%, 65%)" />
<circle cx="314.66" cy="232.45" r="3" fill="hsl(126, 80%, 65%)" />
<circle cx="228.48" cy="313.34" r="4" fill="hsl(132, 80%, 65%)" />
<circle cx="237.45" cy="194.76" r="5" fill="hsl(138, 80%, 65%)" />
<circle cx="311.38" cy="288.82" r="6" fill="hsl(144, 80%, 65%)" />
<circle cx="192.62" cy="269.29" r="2" fill="hsl(150, 80%, 65%)" />
<circle cx="293.98" cy="203.08" r="3" fill="hsl(156, 80%, 65%)" />
<circle cx="263.78" cy="321.05" r="4" fill="hsl(162, 80%, 65%)" />
<circle cx="206.04" cy="213.05" r="5" fill="hsl(168, 80%, 65%)" />
<circle cx="322.23" cy="253.91" r="6" fill="hsl(174, 80%, 65%)" />
<circle cx="208.31" cy="302.54" r="2" fill="hsl(180, 80%, 65%)" />
<circle cx="259.75" cy="189.10" r="3" fill="hsl(186, 80%, 65%)" />
<circle cx="298.66" cy="308.14" r="4" fill="hsl(192, 80%, 65%)" />
<circle cx="188.96" cy="246.31" r="5" fill="hsl(198, 80%, 65%)" />
<circle cx="312.27" cy="217.66" r="6" fill="hsl(204, 80%, 65%)" />
<circle cx="240.32" cy="322.64" r="2" fill="hsl(210, 80%, 65%)" />
<circle cx="222.37" cy="195.96" r="3" fill="hsl(216, 80%, 65%)" />
<circle cx="321.69" cy="277.67" r="4" fill="hsl(222, 80%, 65%)" />
<circle cx="192.60" cy="284.54" r="5" fill="hsl(228, 80%, 65%)" />
<circle cx="283.61" cy="191.80" r="6" fill="hsl(234, 80%, 65%)" />
<circle cx="279.13" cy="322.32" r="2" fill="hsl(240, 80%, 65%)" />
<circle cx="193.84" cy="222.55" r="3" fill="hsl(246, 80%, 65%)" />
<circle cx="324.76" cy="238.59" r="4" fill="hsl(252, 80%, 65%)" />
<circle cx="216.87" cy="315.58" r="5" fill="hsl(258, 80%, 65%)" />
<circle cx="244.56" cy="185.29" r="6" fill="hsl(264, 80%, 65%)" />
<circle cx="312.47" cy="300.62" r="2" fill="hsl(270, 80%, 65%)" />
<circle cx="183.88" cy="261.27" r="3" fill="hsl(276, 80%, 65%)" />
<circle cx="305.85" cy="203.15" r="4" fill="hsl(282, 80%, 65%)" />
<circle cx="254.93" cy="328.98" r="5" fill="hsl(288, 80%, 65%)" />
<circle cx="207.26" cy="201.21" r="6" fill="hsl(294, 80%, 65%)" />
<circle cx="329.28" cy="263.51" r="2" fill="hsl(300, 80%, 65%)" />
<circle cx="196.62" cy="300.16" r="3" fill="hsl(306, 80%, 65%)" />
<circle cx="270.02" cy="183.00" r="4" fill="hsl(312, 80%, 65%)" />
<circle cx="295.15" cy="319.58" r="5" fill="hsl(318, 80%, 65%)" />
<circle cx="183.87" cy="235.47" r="6" fill="hsl(324, 80%, 65%)" />
<circle cx="323.34" cy="222.27" r="2" fill="hsl(330, 80%, 65%)" />
<circle cx="229.01" cy="326.67" r="3" fill="hsl(336, 80%, 65%)" />
<circle cx="228.04" cy="185.36" r="4" fill="hsl(342, 80%, 65%)" />
<circle cx="324.62" cy="289.35" r="5" fill="hsl(348, 80%, 65%)" />
<circle cx="182.57" cy="277.86" r="6" fill="hsl(354, 80%, 65%)" />
<circle cx="295.55" cy="190.00" r="2" fill="hsl(0, 80%, 65%)" />
<circle cx="271.48" cy="331.69" r="3" fill="hsl(6, 80%, 65%)" />
<circle cx="193.20" cy="210.46" r="4" fill="hsl(12, 80%, 65%)" />
<circle cx="333.39" cy="247.12" r="5" fill="hsl(18, 80%, 65%)" />
<circle cx="204.73" cy="315.06" r="6" fill="hsl(24, 80%, 65%)" />
<circle cx="253.90" cy="177.50" r="2" fill="hsl(30, 80%, 65%)" />
<circle cx="310.79" cy="312.69" r="3" fill="hsl(36, 80%, 65%)" />
<circle cx="177.00" cy="251.19" r="4" fill="hsl(42, 80%, 65%)" />
<circle cx="317.75" cy="205.99" r="5" fill="hsl(48, 80%, 65%)" />
<circle cx="244.21" cy="334.90" r="6" fill="hsl(54, 80%, 65%)" />
<circle cx="211.23" cy="189.60" r="2" fill="hsl(60, 80%, 65%)" />
<circle cx="334.16" cy="274.79" r="3" fill="hsl(66, 80%, 65%)" />
<circle cx="185.41" cy="295.09" r="4" fill="hsl(72, 80%, 65%)" />
<circle cx="281.75" cy="179.20" r="5" fill="hsl(78, 80%, 65%)" />
<circle cx="289.02" cy="330.30" r="6" fill="hsl(84, 80%, 65%)" />
<circle cx="181.19" cy="223.40" r="2" fill="hsl(90, 80%, 65%)" />
<circle cx="333.47" cy="229.41" r="3" fill="hsl(96, 80%, 65%)" />
<circle cx="216.69" cy="328.20" r="4" fill="hsl(102, 80%, 65%)" />
<circle cx="236.14" cy="175.92" r="5" fill="hsl(108, 80%, 65%)" />
<circle cx="324.99" cy="301.80" r="6" fill="hsl(114, 80%, 65%)" />
<circle cx="173.90" cy="268.88" r="2" fill="hsl(120, 80%, 65%)" />
<circle cx="308.03" cy="190.82" r="3" fill="hsl(126, 80%, 65%)" />
<circle cx="261.69" cy="339.50" r="4" fill="hsl(132, 80%, 65%)" />
<circle cx="195.19" cy="198.07" r="5" fill="hsl(138, 80%, 65%)" />
<circle cx="340.27" cy="257.64" r="6" fill="hsl(144, 80%, 65%)" />
<circle cx="192.53" cy="311.90" r="2" fill="hsl(150, 80%, 65%)" />
<circle cx="265.07" cy="171.62" r="3" fill="hsl(156, 80%, 65%)" />
<circle cx="306.48" cy="324.58" r="4" fill="hsl(162, 80%, 65%)" />
<circle cx="172.17" cy="239.48" r="5" fill="hsl(168, 80%, 65%)" />
<circle cx="329.22" cy="211.41" r="6" fill="hsl(174, 80%, 65%)" />
<circle cx="232.05" cy="338.62" r="2" fill="hsl(180, 80%, 65%)" />
<circle cx="217.72" cy="178.65" r="3" fill="hsl(186, 80%, 65%)" />
<circle cx="336.74" cy="287.29" r="4" fill="hsl(192, 80%, 65%)" />
<circle cx="175.07" cy="287.57" r="5" fill="hsl(198, 80%, 65%)" />
<circle cx="294.48" cy="177.79" r="6" fill="hsl(204, 80%, 65%)" />
<circle cx="280.54" cy="339.93" r="2" fill="hsl(210, 80%, 65%)" />
<circle cx="180.97" cy="210.54" r="3" fill="hsl(216, 80%, 65%)" />
<circle cx="342.30" cy="238.78" r="4" fill="hsl(222, 80%, 65%)" />
<circle cx="203.83" cy="327.22" r="5" fill="hsl(228, 80%, 65%)" />
<circle cx="246.33" cy="167.97" r="6" fill="hsl(234, 80%, 65%)" />
<circle cx="322.80" cy="314.57" r="2" fill="hsl(240, 80%, 65%)" />
<circle cx="166.90" cy="257.94" r="3" fill="hsl(246, 80%, 65%)" />
<circle cx="320.58" cy="194.19" r="4" fill="hsl(252, 80%, 65%)" />
<circle cx="250.11" cy="345.48" r="5" fill="hsl(258, 80%, 65%)" />
<circle cx="199.73" cy="185.83" r="6" fill="hsl(264, 80%, 65%)" />
<circle cx="345.16" cy="269.77" r="2" fill="hsl(270, 80%, 65%)" />
<circle cx="180.73" cy="306.22" r="3" fill="hsl(276, 80%, 65%)" />
<circle cx="277.64" cy="167.86" r="4" fill="hsl(282, 80%, 65%)" />
<circle cx="299.71" cy="335.85" r="5" fill="hsl(288, 80%, 65%)" />
<circle cx="169.57" cy="226.56" r="6" fill="hsl(294, 80%, 65%)" />
<circle cx="339.86" cy="219.22" r="2" fill="hsl(300, 80%, 65%)" />
<circle cx="218.90" cy="340.02" r="3" fill="hsl(306, 80%, 65%)" />
<circle cx="226.52" cy="168.73" r="4" fill="hsl(312, 80%, 65%)" />
<circle cx="336.92" cy="300.57" r="5" fill="hsl(318, 80%, 65%)" />
<circle cx="165.97" cy="277.86" r="6" fill="hsl(324, 80%, 65%)" />
<circle cx="307.77" cy="178.84" r="2" fill="hsl(330, 80%, 65%)" />
<circle cx="269.99" cy="348.12" r="3" fill="hsl(336, 80%, 65%)" />
<circle cx="183.25" cy="197.35" r="4" fill="hsl(342, 80%, 65%)" />
<circle cx="349.52" cy="250.09" r="5" fill="hsl(348, 80%, 65%)" />
<circle cx="190.85" cy="323.72" r="6" fill="hsl(354, 80%, 65%)" />
<circle cx="258.30" cy="161.80" r="2" fill="hsl(0, 80%, 65%)" />
<circle cx="318.11" cy="327.21" r="3" fill="hsl(6, 80%, 65%)" />
<circle cx="161.84" cy="245.42" r="4" fill="hsl(12, 80%, 65%)" />
<circle cx="332.79" cy="200.05" r="5" fill="hsl(18, 80%, 65%)" />
<circle cx="237.12" cy="349.38" r="6" fill="hsl(24, 80%, 65%)" />
<circle cx="206.71" cy="174.17" r="2" fill="hsl(30, 80%, 65%)" />
<circle cx="347.87" cy="283.12" r="3" fill="hsl(36, 80%, 65%)" />
<circle cx="169.71" cy="298.18" r="4" fill="hsl(42, 80%, 65%)" />
<circle cx="291.23" cy="166.37" r="5" fill="hsl(48, 80%, 65%)" />
<circle cx="290.65" cy="346.12" r="6" fill="hsl(54, 80%, 65%)" />
<circle cx="169.34" cy="212.84" r="2" fill="hsl(60, 80%, 65%)" />
<circle cx="349.30" cy="229.22" r="3" fill="hsl(66, 80%, 65%)" />
<circle cx="205.16" cy="338.99" r="4" fill="hsl(72, 80%, 65%)" />
<circle cx="237.38" cy="160.22" r="5" fill="hsl(78, 80%, 65%)" />
<circle cx="334.63" cy="314.20" r="6" fill="hsl(84, 80%, 65%)" />
<circle cx="158.46" cy="266.23" r="2" fill="hsl(90, 80%, 65%)" />
<circle cx="321.18" cy="182.38" r="3" fill="hsl(96, 80%, 65%)" />
<circle cx="257.67" cy="354.57" r="4" fill="hsl(102, 80%, 65%)" />
<circle cx="188.02" cy="184.27" r="5" fill="hsl(108, 80%, 65%)" />
<circle cx="354.83" cy="262.99" r="6" fill="hsl(114, 80%, 65%)" />
<circle cx="178.21" cy="317.76" r="2" fill="hsl(120, 80%, 65%)" />
<circle cx="271.68" cy="157.67" r="3" fill="hsl(126, 80%, 65%)" />
<circle cx="311.00" cy="339.31" r="4" fill="hsl(132, 80%, 65%)" />
<circle cx="158.94" cy="231.66" r="5" fill="hsl(138, 80%, 65%)" />
<circle cx="344.23" cy="208.26" r="6" fill="hsl(144, 80%, 65%)" />
<circle cx="223.11" cy="351.03" r="2" fill="hsl(150, 80%, 65%)" />
<circle cx="215.96" cy="163.49" r="3" fill="hsl(156, 80%, 65%)" />
<circle cx="348.24" cy="297.27" r="4" fill="hsl(162, 80%, 65%)" />
<circle cx="159.88" cy="287.95" r="5" fill="hsl(168, 80%, 65%)" />
<circle cx="305.42" cy="167.30" r="6" fill="hsl(174, 80%, 65%)" />
<circle cx="279.53" cy="355.02" r="2" fill="hsl(180, 80%, 65%)" />
<circle cx="171.56" cy="198.75" r="3" fill="hsl(186, 80%, 65%)" />
<circle cx="357.18" cy="241.14" r="4" fill="hsl(192, 80%, 65%)" />
<circle cx="191.28" cy="335.49" r="5" fill="hsl(198, 80%, 65%)" />
<circle cx="250.02" cy="153.43" r="6" fill="hsl(204, 80%, 65%)" />
<circle cx="329.87" cy="327.76" r="2" fill="hsl(210, 80%, 65%)" />
<circle cx="152.82" cy="252.98" r="3" fill="hsl(216, 80%, 65%)" />
<circle cx="334.30" cy="188.37" r="4" fill="hsl(222, 80%, 65%)" />
<circle cx="243.91" cy="358.99" r="5" fill="hsl(228, 80%, 65%)" />
<circle cx="195.20" cy="171.70" r="6" fill="hsl(234, 80%, 65%)" />
<circle cx="358.01" cy="277.14" r="2" fill="hsl(240, 80%, 65%)" />
<circle cx="166.30" cy="309.44" r="3" fill="hsl(246, 80%, 65%)" />
<circle cx="286.11" cy="155.78" r="4" fill="hsl(252, 80%, 65%)" />
</svg>
