<svg xmlns="http://www.w3.org/2000/svg" width="512" height="512" viewBox="0 0 512 512">
<rect width="100%" height="100%" fill="#0b1020"/>
<circle cx="364" cy="71" r="53" fill="#f8f3c9" opacity="0.95" />
<circle cx="286.0" cy="22.0" r="2.9" fill="white" />
<circle cx="335.0" cy="28.0" r="1.6" fill="white" />
<circle cx="435.0" cy="172.0" r="3.4" fill="white" />
<circle cx="457.0" cy="43.0" r="2.1" fill="white" />
<circle cx="298.0" cy="76.0" r="3.5" fill="white" />
<circle cx="189.0" cy="41.0" r="2.3" fill="white" />
<path d="M 20 430 C 125 425, 166 450, 313 425 S 450 399, 512 429" stroke="#5dade2" stroke-width="5" fill="none" opacity="0.85" />
<line x1="0" y1="414" x2="512" y2="414" stroke="#445566" stroke-width="4" />
<polygon points="166,361 206,301 246,321 266,291 286,311 298,351 266,373 216,377" fill="#1e1e1e" />
<polygon points="241,301 254,279 264,303" fill="#1e1e1e" />
<line x1="296" y1="346" x2="326" y2="321" stroke="#1e1e1e" stroke-width="6" />
</svg>
