<svg xmlns="http://www.w3.org/2000/svg" width="512" height="512" viewBox="0 0 512 512">
<rect width="100%" height="100%" fill="#0b1020"/>
<circle cx="432" cy="77" r="53" fill="#f8f3c9" opacity="0.95" />
<circle cx="208.0" cy="144.0" r="2.4" fill="white" />
<circle cx="206.0" cy="96.0" r="1.5" fill="white" />
<circle cx="233.0" cy="107.0" r="2.4" fill="white" />
<circle cx="391.0" cy="71.0" r="2.9" fill="white" />
<circle cx="46.0" cy="42.0" r="1.6" fill="white" />
<circle cx="437.0" cy="145.0" r="2.3" fill="white" />
<path d="M 20 430 C 118 417, 164 452, 308 436 S 450 394, 512 424" stroke="#5dade2" stroke-width="8" fill="none" opacity="0.85" />
<line x1="0" y1="397" x2="512" y2="397" stroke="#445566" stroke-width="3" />
<polygon points="140,365 180,305 220,325 240,295 260,315 272,355 240,377 190,381" fill="#1e1e1e" />
<polygon points="215,305 228,283 238,307" fill="#1e1e1e" />
<line x1="270" y1="350" x2="300" y2="325" stroke="#1e1e1e" stroke-width="6" />
</svg>
