<svg xmlns="http://www.w3.org/2000/svg" width="512" height="512" viewBox="0 0 512 512">
<rect width="100%" height="100%" fill="#0b1020"/>
<circle cx="412" cy="79" r="56" fill="#f8f3c9" opacity="0.95" />
<circle cx="68.0" cy="68.0" r="1.9" fill="white" />
<circle cx="261.0" cy="120.0" r="2.2" fill="white" />
<circle cx="277.0" cy="122.0" r="1.7" fill="white" />
<circle cx="130.0" cy="32.0" r="3.1" fill="white" />
<circle cx="293.0" cy="144.0" r="2.4" fill="white" />
<circle cx="398.0" cy="155.0" r="3.2" fill="white" />
<circle cx="219.0" cy="43.0" r="3.4" fill="white" />
<circle cx="34.0" cy="24.0" r="2.4" fill="white" />
<circle cx="280.0" cy="99.0" r="2.8" fill="white" />
<path d="M 20 430 C 131 415, 164 451, 312 426 S 450 377, 512 407" stroke="#5dade2" stroke-width="5" fill="none" opacity="0.85" />
<line x1="0" y1="405" x2="512" y2="405" stroke="#445566" stroke-width="4" />
<polygon points="184,364 224,304 264,324 284,294 304,314 316,354 284,376 234,380" fill="#1e1e1e" />
<polygon points="259,304 272,282 282,306" fill="#1e1e1e" />
<line x1="314" y1="349" x2="344" y2="324" stroke="#1e1e1e" stroke-width="6" />
</svg>
