<svg xmlns="http://www.w3.org/2000/svg" width="512" height="512" viewBox="0 0 512 512">
<rect width="100%" height="100%" fill="#0b1020"/>
<circle cx="381" cy="68" r="44" fill="#f8f3c9" opacity="0.95" />
<circle cx="165.0" cy="38.0" r="3.3" fill="white" />
<circle cx="263.0" cy="31.0" r="1.7" fill="white" />
<circle cx="149.0" cy="124.0" r="3.4" fill="white" />
<circle cx="340.0" cy="154.0" r="2.7" fill="white" />
<circle cx="408.0" cy="27.0" r="2.0" fill="white" />
<circle cx="476.0" cy="116.0" r="2.5" fill="white" />
<circle cx="412.0" cy="104.0" r="2.9" fill="white" />
<circle cx="160.0" cy="125.0" r="1.6" fill="white" />
<circle cx="349.0" cy="116.0" r="1.6" fill="white" />
<path d="M 20 430 C 123 426, 180 457, 306 426 S 450 399, 512 429" stroke="#5dade2" stroke-width="5" fill="none" opacity="0.85" />
<line x1="0" y1="385" x2="512" y2="385" stroke="#445566" stroke-width="4" />
<polygon points="158,364 198,304 238,324 258,294 278,314 290,354 258,376 208,380" fill="#1e1e1e" />
<polygon points="233,304 246,282 256,306" fill="#1e1e1e" />
<line x1="288" y1="349" x2="318" y2="324" stroke="#1e1e1e" stroke-width="6" />
</svg>
