<svg xmlns="http://www.w3.org/2000/svg" width="512" height="512" viewBox="0 0 512 512">
<rect width="100%" height="100%" fill="#0b1020"/>
<circle cx="363" cy="92" r="47" fill="#f8f3c9" opacity="0.95" />
<circle cx="343.0" cy="61.0" r="2.9" fill="white" />
<circle cx="156.0" cy="145.0" r="1.7" fill="white" />
<circle cx="159.0" cy="166.0" r="3.2" fill="white" />
<circle cx="150.0" cy="32.0" r="2.9" fill="white" />
<circle cx="72.0" cy="147.0" r="2.2" fill="white" />
<circle cx="64.0" cy="25.0" r="2.5" fill="white" />
<circle cx="379.0" cy="21.0" r="1.9" fill="white" />
<circle cx="29.0" cy="115.0" r="3.0" fill="white" />
<circle cx="445.0" cy="105.0" r="1.9" fill="white" />
<circle cx="299.0" cy="146.0" r="2.0" fill="white" />
<circle cx="49.0" cy="21.0" r="3.4" fill="white" />
<path d="M 20 430 C 123 429, 164 446, 283 435 S 450 392, 512 422" stroke="#5dade2" stroke-width="8" fill="none" opacity="0.85" />
<line x1="0" y1="394" x2="512" y2="394" stroke="#445566" stroke-width="3" />
<polygon points="194,352 234,292 274,312 294,282 314,302 326,342 294,364 244,368" fill="#1e1e1e" />
<polygon points="269,292 282,270 292,294" fill="#1e1e1e" />
<line x1="324" y1="337" x2="354" y2="312" stroke="#1e1e1e" stroke-width="6" />
</svg>
