<svg xmlns="http://www.w3.org/2000/svg" width="512" height="512" viewBox="0 0 512 512">
<rect width="100%" height="100%" fill="black"/>
<circle cx="256.00" cy="256.00" r="2" fill="hsl(0, 80%, 65%)" />
<circle cx="250.92" cy="260.65" r="3" fill="hsl(10, 80%, 65%)" />
<circle cx="256.85" cy="246.30" r="4" fill="hsl(20, 80%, 65%)" />
<circle cx="263.26" cy="265.47" r="5" fill="hsl(30, 80%, 65%)" />
<circle cx="242.44" cy="253.60" r="6" fill="hsl(40, 80%, 65%)" />
<circle cx="268.99" cy="247.73" r="2" fill="hsl(50, 80%, 65%)" />
<circle cx="251.62" cy="272.29" r="3" fill="hsl(60, 80%, 65%)" />
<circle cx="247.60" cy="239.83" r="4" fill="hsl(70, 80%, 65%)" />
<circle cx="274.30" cy="262.68" r="5" fill="hsl(80, 80%, 65%)" />
<circle cx="236.90" cy="263.88" r="6" fill="hsl(90, 80%, 65%)" />
<circle cx="265.23" cy="236.27" r="2" fill="hsl(100, 80%, 65%)" />
<circle cx="262.84" cy="277.79" r="3" fill="hsl(110, 80%, 65%)" />
<circle cx="235.36" cy="244.04" r="4" fill="hsl(120, 80%, 65%)" />
<circle cx="280.25" cy="250.67" r="5" fill="hsl(130, 80%, 65%)" />
<circle cx="241.18" cy="277.08" r="6" fill="hsl(140, 80%, 65%)" />
<circle cx="252.57" cy="229.55" r="2" fill="hsl(150, 80%, 65%)" />
<circle cx="277.06" cy="273.75" r="3" fill="hsl(160, 80%, 65%)" />
<circle cx="227.63" cy="257.17" r="4" fill="hsl(170, 80%, 65%)" />
<circle cx="276.71" cy="235.39" r="5" fill="hsl(180, 80%, 65%)" />
<circle cx="254.61" cy="285.99" r="6" fill="hsl(190, 80%, 65%)" />
<circle cx="236.27" cy="232.35" r="2" fill="hsl(200, 80%, 65%)" />
<circle cx="287.28" cy="260.21" r="3" fill="hsl(210, 80%, 65%)" />
<circle cx="229.48" cy="274.45" r="4" fill="hsl(220, 80%, 65%)" />
<circle cx="263.25" cy="223.78" r="5" fill="hsl(230, 80%, 65%)" />
<circle cx="272.77" cy="285.27" r="6" fill="hsl(240, 80%, 65%)" />
<circle cx="223.19" cy="245.53" r="2" fill="hsl(250, 80%, 65%)" />
<circle cx="287.88" cy="241.27" r="3" fill="hsl(260, 80%, 65%)" />
<circle cx="242.18" cy="289.01" r="4" fill="hsl(270, 80%, 65%)" />
<circle cx="243.67" cy="221.71" r="5" fill="hsl(280, 80%, 65%)" />
<circle cx="288.83" cy="273.25" r="6" fill="hsl(290, 80%, 65%)" />
<circle cx="219.52" cy="265.61" r="2" fill="hsl(300, 80%, 65%)" />
<circle cx="276.74" cy="223.75" r="3" fill="hsl(310, 80%, 65%)" />
<circle cx="262.60" cy="294.40" r="4" fill="hsl(320, 80%, 65%)" />
<circle cx="224.72" cy="231.78" r="5" fill="hsl(330, 80%, 65%)" />
<circle cx="296.02" cy="252.68" r="6" fill="hsl(340, 80%, 65%)" />
<circle cx="228.33" cy="285.91" r="2" fill="hsl(350, 80%, 65%)" />
<circle cx="256.20" cy="214.68" r="3" fill="hsl(0, 80%, 65%)" />
<circle cx="284.15" cy="287.03" r="4" fill="hsl(10, 80%, 65%)" />
<circle cx="213.73" cy="252.08" r="5" fill="hsl(20, 80%, 65%)" />
<circle cx="290.26" cy="230.00" r="6" fill="hsl(30, 80%, 65%)" />
<circle cx="248.20" cy="298.85" r="2" fill="hsl(40, 80%, 65%)" />
<circle cx="232.51" cy="218.68" r="3" fill="hsl(50, 80%, 65%)" />
<circle cx="299.05" cy="267.80" r="4" fill="hsl(60, 80%, 65%)" />
<circle cx="215.82" cy="276.62" r="5" fill="hsl(70, 80%, 65%)" />
<circle cx="271.88" cy="213.17" r="6" fill="hsl(80, 80%, 65%)" />
<circle cx="273.42" cy="298.79" r="2" fill="hsl(90, 80%, 65%)" />
<circle cx="213.79" cy="236.00" r="3" fill="hsl(100, 80%, 65%)" />
<circle cx="301.12" cy="242.09" r="4" fill="hsl(110, 80%, 65%)" />
<circle cx="231.87" cy="297.17" r="5" fill="hsl(120, 80%, 65%)" />
<circle cx="245.88" cy="208.87" r="6" fill="hsl(130, 80%, 65%)" />
<circle cx="295.70" cy="284.20" r="2" fill="hsl(140, 80%, 65%)" />
<circle cx="207.19" cy="262.08" r="3" fill="hsl(150, 80%, 65%)" />
<circle cx="288.19" cy="218.18" r="4" fill="hsl(160, 80%, 65%)" />
<circle cx="257.83" cy="306.10" r="5" fill="hsl(170, 80%, 65%)" />
<circle cx="220.48" cy="219.95" r="6" fill="hsl(180, 80%, 65%)" />
<circle cx="307.01" cy="258.61" r="2" fill="hsl(190, 80%, 65%)" />
<circle cx="216.27" cy="288.83" r="3" fill="hsl(200, 80%, 65%)" />
<circle cx="263.18" cy="204.50" r="4" fill="hsl(210, 80%, 65%)" />
<circle cx="285.75" cy="299.20" r="5" fill="hsl(220, 80%, 65%)" />
<circle cx="204.45" cy="244.14" r="6" fill="hsl(230, 80%, 65%)" />
<circle cx="302.41" cy="229.70" r="2" fill="hsl(240, 80%, 65%)" />
<circle cx="239.40" cy="307.16" r="3" fill="hsl(250, 80%, 65%)" />
<circle cx="233.50" cy="206.66" r="4" fill="hsl(260, 80%, 65%)" />
<circle cx="306.32" cy="277.35" r="5" fill="hsl(270, 80%, 65%)" />
<circle cx="204.07" cy="274.39" r="6" fill="hsl(280, 80%, 65%)" />
<circle cx="282.07" cy="206.98" r="2" fill="hsl(290, 80%, 65%)" />
<circle cx="270.00" cy="310.17" r="3" fill="hsl(300, 80%, 65%)" />
<circle cx="208.73" cy="225.28" r="4" fill="hsl(310, 80%, 65%)" />
<circle cx="312.02" cy="246.65" r="5" fill="hsl(320, 80%, 65%)" />
<circle cx="220.75" cy="301.06" r="6" fill="hsl(330, 80%, 65%)" />
<circle cx="251.52" cy="198.55" r="2" fill="hsl(340, 80%, 65%)" />
<circle cx="298.41" cy="295.61" r="3" fill="hsl(350, 80%, 65%)" />
<circle cx="197.56" cy="255.43" r="4" fill="hsl(0, 80%, 65%)" />
<circle cx="299.77" cy="216.68" r="5" fill="hsl(10, 80%, 65%)" />
<circle cx="250.24" cy="314.96" r="6" fill="hsl(20, 80%, 65%)" />
<circle cx="220.17" cy="208.32" r="2" fill="hsl(30, 80%, 65%)" />
<circle cx="315.02" cy="267.03" r="3" fill="hsl(40, 80%, 65%)" />
<circle cx="204.70" cy="287.94" r="4" fill="hsl(50, 80%, 65%)" />
<circle cx="272.36" cy="197.42" r="5" fill="hsl(60, 80%, 65%)" />
<circle cx="283.68" cy="310.60" r="6" fill="hsl(70, 80%, 65%)" />
<circle cx="198.35" cy="234.31" r="2" fill="hsl(80, 80%, 65%)" />
<circle cx="313.52" cy="232.91" r="3" fill="hsl(90, 80%, 65%)" />
<circle cx="229.02" cy="312.23" r="4" fill="hsl(100, 80%, 65%)" />
<circle cx="237.81" cy="195.95" r="5" fill="hsl(110, 80%, 65%)" />
<circle cx="310.30" cy="288.18" r="6" fill="hsl(120, 80%, 65%)" />
<circle cx="193.86" cy="269.03" r="2" fill="hsl(130, 80%, 65%)" />
<circle cx="293.24" cy="204.11" r="3" fill="hsl(140, 80%, 65%)" />
<circle cx="263.63" cy="319.78" r="4" fill="hsl(150, 80%, 65%)" />
<circle cx="207.01" cy="213.88" r="5" fill="hsl(160, 80%, 65%)" />
<circle cx="320.94" cy="253.95" r="6" fill="hsl(170, 80%, 65%)" />
<circle cx="209.24" cy="301.63" r="2" fill="hsl(180, 80%, 65%)" />
<circle cx="259.67" cy="190.40" r="3" fill="hsl(190, 80%, 65%)" />
<circle cx="297.83" cy="307.13" r="4" fill="hsl(200, 80%, 65%)" />
<circle cx="190.27" cy="246.50" r="5" fill="hsl(210, 80%, 65%)" />
<circle cx="311.18" cy="218.40" r="6" fill="hsl(220, 80%, 65%)" />
<circle cx="240.63" cy="321.34" r="2" fill="hsl(230, 80%, 65%)" />
<circle cx="223.02" cy="197.13" r="3" fill="hsl(240, 80%, 65%)" />
<circle cx="320.42" cy="277.25" r="4" fill="hsl(250, 80%, 65%)" />
<circle cx="193.83" cy="283.99" r="5" fill="hsl(260, 80%, 65%)" />
<circle cx="283.07" cy="193.05" r="6" fill="hsl(270, 80%, 65%)" />
<circle cx="278.68" cy="321.03" r="2" fill="hsl(280, 80%, 65%)" />
<circle cx="195.05" cy="223.20" r="3" fill="hsl(290, 80%, 65%)" />
<circle cx="323.43" cy="238.93" r="4" fill="hsl(300, 80%, 65%)" />
<circle cx="217.63" cy="314.42" r="5" fill="hsl(310, 80%, 65%)" />
<circle cx="244.78" cy="186.67" r="6" fill="hsl(320, 80%, 65%)" />
<circle cx="311.37" cy="299.75" r="2" fill="hsl(330, 80%, 65%)" />
<circle cx="185.28" cy="261.16" r="3" fill="hsl(340, 80%, 65%)" />
<circle cx="304.89" cy="204.18" r="4" fill="hsl(350, 80%, 65%)" />
<circle cx="254.95" cy="327.56" r="5" fill="hsl(0, 80%, 65%)" />
<circle cx="208.21" cy="202.28" r="6" fill="hsl(10, 80%, 65%)" />
<circle cx="327.85" cy="263.37" r="2" fill="hsl(20, 80%, 65%)" />
<circle cx="197.78" cy="299.30" r="3" fill="hsl(30, 80%, 65%)" />
<circle cx="269.74" cy="184.42" r="4" fill="hsl(40, 80%, 65%)" />
<circle cx="294.39" cy="318.34" r="5" fill="hsl(50, 80%, 65%)" />
<circle cx="185.27" cy="235.87" r="6" fill="hsl(60, 80%, 65%)" />
<circle cx="322.03" cy="222.92" r="2" fill="hsl(70, 80%, 65%)" />
<circle cx="229.54" cy="325.29" r="3" fill="hsl(80, 80%, 65%)" />
<circle cx="228.59" cy="186.73" r="4" fill="hsl(90, 80%, 65%)" />
<circle cx="323.29" cy="288.70" r="5" fill="hsl(100, 80%, 65%)" />
<circle cx="183.99" cy="277.43" r="6" fill="hsl(110, 80%, 65%)" />
<circle cx="294.78" cy="191.29" r="2" fill="hsl(120, 80%, 65%)" />
<circle cx="271.18" cy="330.22" r="3" fill="hsl(130, 80%, 65%)" />
<circle cx="194.42" cy="211.34" r="4" fill="hsl(140, 80%, 65%)" />
<circle cx="331.88" cy="247.29" r="5" fill="hsl(150, 80%, 65%)" />
<circle cx="205.72" cy="313.91" r="6" fill="hsl(160, 80%, 65%)" />
<circle cx="253.94" cy="179.03" r="2" fill="hsl(170, 80%, 65%)" />
<circle cx="309.72" cy="311.59" r="3" fill="hsl(180, 80%, 65%)" />
<circle cx="178.53" cy="251.28" r="4" fill="hsl(190, 80%, 65%)" />
<circle cx="316.55" cy="206.96" r="5" fill="hsl(200, 80%, 65%)" />
<circle cx="244.44" cy="333.36" r="6" fill="hsl(210, 80%, 65%)" />
<circle cx="212.10" cy="190.89" r="2" fill="hsl(220, 80%, 65%)" />
<circle cx="332.64" cy="274.42" r="3" fill="hsl(230, 80%, 65%)" />
<circle cx="186.78" cy="294.33" r="4" fill="hsl(240, 80%, 65%)" />
<circle cx="281.24" cy="180.69" r="5" fill="hsl(250, 80%, 65%)" />
<circle cx="288.37" cy="328.85" r="6" fill="hsl(260, 80%, 65%)" />
<circle cx="182.64" cy="224.03" r="2" fill="hsl(270, 80%, 65%)" />
<circle cx="331.97" cy="229.93" r="3" fill="hsl(280, 80%, 65%)" />
<circle cx="217.46" cy="326.80" r="4" fill="hsl(290, 80%, 65%)" />
<circle cx="236.53" cy="177.47" r="5" fill="hsl(300, 80%, 65%)" />
<circle cx="323.65" cy="300.91" r="6" fill="hsl(310, 80%, 65%)" />
<circle cx="175.50" cy="268.63" r="2" fill="hsl(320, 80%, 65%)" />
<circle cx="307.01" cy="192.08" r="3" fill="hsl(330, 80%, 65%)" />
<circle cx="261.58" cy="337.88" r="4" fill="hsl(340, 80%, 65%)" />
<circle cx="196.37" cy="199.19" r="5" fill="hsl(350, 80%, 65%)" />
<circle cx="338.63" cy="257.61" r="6" fill="hsl(0, 80%, 65%)" />
<circle cx="193.77" cy="310.81" r="2" fill="hsl(10, 80%, 65%)" />
<circle cx="264.89" cy="173.26" r="3" fill="hsl(20, 80%, 65%)" />
<circle cx="305.50" cy="323.24" r="4" fill="hsl(30, 80%, 65%)" />
<circle cx="173.80" cy="239.80" r="5" fill="hsl(40, 80%, 65%)" />
<circle cx="327.80" cy="212.27" r="6" fill="hsl(50, 80%, 65%)" />
<circle cx="232.52" cy="337.01" r="2" fill="hsl(60, 80%, 65%)" />
<circle cx="218.47" cy="180.15" r="3" fill="hsl(70, 80%, 65%)" />
<circle cx="335.17" cy="286.68" r="4" fill="hsl(80, 80%, 65%)" />
<circle cx="176.64" cy="286.96" r="5" fill="hsl(90, 80%, 65%)" />
<circle cx="293.73" cy="179.31" r="6" fill="hsl(100, 80%, 65%)" />
<circle cx="280.06" cy="338.30" r="2" fill="hsl(110, 80%, 65%)" />
<circle cx="182.43" cy="211.43" r="3" fill="hsl(120, 80%, 65%)" />
<circle cx="340.63" cy="239.12" r="4" fill="hsl(130, 80%, 65%)" />
<circle cx="204.84" cy="325.83" r="5" fill="hsl(140, 80%, 65%)" />
<circle cx="246.52" cy="169.68" r="6" fill="hsl(150, 80%, 65%)" />
<circle cx="321.50" cy="313.43" r="2" fill="hsl(160, 80%, 65%)" />
<circle cx="168.63" cy="257.91" r="3" fill="hsl(170, 80%, 65%)" />
<circle cx="319.33" cy="195.39" r="4" fill="hsl(180, 80%, 65%)" />
<circle cx="250.23" cy="343.74" r="5" fill="hsl(190, 80%, 65%)" />
<circle cx="200.82" cy="187.19" r="6" fill="hsl(200, 80%, 65%)" />
<circle cx="343.43" cy="269.51" r="2" fill="hsl(210, 80%, 65%)" />
<circle cx="182.19" cy="305.25" r="3" fill="hsl(220, 80%, 65%)" />
<circle cx="277.22" cy="169.57" r="4" fill="hsl(230, 80%, 65%)" />
<circle cx="298.86" cy="334.30" r="5" fill="hsl(240, 80%, 65%)" />
<circle cx="171.25" cy="227.13" r="6" fill="hsl(250, 80%, 65%)" />
<circle cx="338.23" cy="219.94" r="2" fill="hsl(260, 80%, 65%)" />
<circle cx="219.62" cy="338.38" r="3" fill="hsl(270, 80%, 65%)" />
<circle cx="227.09" cy="170.43" r="4" fill="hsl(280, 80%, 65%)" />
<circle cx="335.35" cy="299.70" r="5" fill="hsl(290, 80%, 65%)" />
<circle cx="167.72" cy="277.44" r="6" fill="hsl(300, 80%, 65%)" />
<circle cx="306.76" cy="180.34" r="2" fill="hsl(310, 80%, 65%)" />
<circle cx="269.72" cy="346.33" r="3" fill="hsl(320, 80%, 65%)" />
<circle cx="184.67" cy="198.49" r="4" fill="hsl(330, 80%, 65%)" />
<circle cx="347.70" cy="250.20" r="5" fill="hsl(340, 80%, 65%)" />
<circle cx="192.12" cy="322.40" r="6" fill="hsl(350, 80%, 65%)" />
<circle cx="258.25" cy="163.63" r="2" fill="hsl(0, 80%, 65%)" />
<circle cx="316.90" cy="325.83" r="3" fill="hsl(10, 80%, 65%)" />
<circle cx="163.67" cy="245.62" r="4" fill="hsl(20, 80%, 65%)" />
<circle cx="331.30" cy="201.13" r="5" fill="hsl(30, 80%, 65%)" />
<circle cx="237.49" cy="347.57" r="6" fill="hsl(40, 80%, 65%)" />
<circle cx="207.67" cy="175.76" r="2" fill="hsl(50, 80%, 65%)" />
<circle cx="346.08" cy="282.59" r="3" fill="hsl(60, 80%, 65%)" />
<circle cx="171.39" cy="297.36" r="4" fill="hsl(70, 80%, 65%)" />
<circle cx="290.55" cy="168.12" r="5" fill="hsl(80, 80%, 65%)" />
<circle cx="289.98" cy="344.37" r="6" fill="hsl(90, 80%, 65%)" />
<circle cx="171.02" cy="213.68" r="2" fill="hsl(100, 80%, 65%)" />
<circle cx="347.49" cy="229.74" r="3" fill="hsl(110, 80%, 65%)" />
<circle cx="206.15" cy="337.37" r="4" fill="hsl(120, 80%, 65%)" />
<circle cx="237.74" cy="162.08" r="5" fill="hsl(130, 80%, 65%)" />
<circle cx="333.10" cy="313.07" r="6" fill="hsl(140, 80%, 65%)" />
<circle cx="160.35" cy="266.03" r="2" fill="hsl(150, 80%, 65%)" />
<circle cx="319.92" cy="183.81" r="3" fill="hsl(160, 80%, 65%)" />
<circle cx="257.64" cy="352.65" r="4" fill="hsl(170, 80%, 65%)" />
<circle cx="189.34" cy="185.66" r="5" fill="hsl(180, 80%, 65%)" />
<circle cx="352.91" cy="262.85" r="6" fill="hsl(190, 80%, 65%)" />
<circle cx="179.72" cy="316.56" r="2" fill="hsl(200, 80%, 65%)" />
<circle cx="271.38" cy="159.58" r="3" fill="hsl(210, 80%, 65%)" />
<circle cx="309.93" cy="337.69" r="4" fill="hsl(220, 80%, 65%)" />
<circle cx="160.82" cy="232.14" r="5" fill="hsl(230, 80%, 65%)" />
<circle cx="342.51" cy="209.19" r="6" fill="hsl(240, 80%, 65%)" />
<circle cx="223.75" cy="349.18" r="2" fill="hsl(250, 80%, 65%)" />
<circle cx="216.74" cy="165.28" r="3" fill="hsl(260, 80%, 65%)" />
<circle cx="346.44" cy="296.47" r="4" fill="hsl(270, 80%, 65%)" />
<circle cx="161.74" cy="287.33" r="5" fill="hsl(280, 80%, 65%)" />
<circle cx="304.46" cy="169.02" r="6" fill="hsl(290, 80%, 65%)" />
<circle cx="279.08" cy="353.10" r="2" fill="hsl(300, 80%, 65%)" />
<circle cx="173.20" cy="199.86" r="3" fill="hsl(310, 80%, 65%)" />
<circle cx="355.21" cy="241.43" r="4" fill="hsl(320, 80%, 65%)" />
<circle cx="192.54" cy="333.94" r="5" fill="hsl(330, 80%, 65%)" />
<circle cx="250.13" cy="155.42" r="6" fill="hsl(340, 80%, 65%)" />
<circle cx="328.43" cy="326.36" r="2" fill="hsl(350, 80%, 65%)" />
<circle cx="154.83" cy="253.04" r="3" fill="hsl(0, 80%, 65%)" />
<circle cx="332.78" cy="189.69" r="4" fill="hsl(10, 80%, 65%)" />
<circle cx="244.15" cy="356.99" r="5" fill="hsl(20, 80%, 65%)" />
<circle cx="196.38" cy="173.34" r="6" fill="hsl(30, 80%, 65%)" />
<circle cx="356.03" cy="276.73" r="2" fill="hsl(40, 80%, 65%)" />
<circle cx="168.04" cy="308.40" r="3" fill="hsl(50, 80%, 65%)" />
<circle cx="285.53" cy="157.73" r="4" fill="hsl(60, 80%, 65%)" />
<circle cx="300.71" cy="348.62" r="5" fill="hsl(70, 80%, 65%)" />
<circle cx="160.26" cy="217.82" r="6" fill="hsl(80, 80%, 65%)" />
<circle cx="352.60" cy="219.39" r="2" fill="hsl(90, 80%, 65%)" />
<circle cx="209.39" cy="348.45" r="3" fill="hsl(100, 80%, 65%)" />
<circle cx="227.86" cy="156.13" r="4" fill="hsl(110, 80%, 65%)" />
<circle cx="344.41" cy="310.75" r="5" fill="hsl(120, 80%, 65%)" />
<circle cx="153.60" cy="275.39" r="6" fill="hsl(130, 80%, 65%)" />
<circle cx="318.55" cy="172.35" r="2" fill="hsl(140, 80%, 65%)" />
</svg>
