<svg xmlns="http://www.w3.org/2000/svg" width="512" height="512" viewBox="0 0 512 512">
<rect width="100%" height="100%" fill="#0b1020"/>
<circle cx="423" cy="78" r="53" fill="#f8f3c9" opacity="0.95" />
<circle cx="136.0" cy="180.0" r="2.8" fill="white" />
<circle cx="418.0" cy="34.0" r="2.2" fill="white" />
<circle cx="348.0" cy="84.0" r="2.8" fill="white" />
<circle cx="461.0" cy="158.0" r="1.9" fill="white" />
<circle cx="427.0" cy="104.0" r="1.8" fill="white" />
<circle cx="172.0" cy="103.0" r="1.6" fill="white" />
<path d="M 20 430 C 126 429, 198 453, 295 437 S 450 377, 512 407" stroke="#5dade2" stroke-width="5" fill="none" opacity="0.85" />
<line x1="0" y1="388" x2="512" y2="388" stroke="#445566" stroke-width="2" />
<polygon points="162,351 202,291 242,311 262,281 282,301 294,341 262,363 212,367" fill="#1e1e1e" />
<polygon points="237,291 250,269 260,293" fill="#1e1e1e" />
<line x1="292" y1="336" x2="322" y2="311" stroke="#1e1e1e" stroke-width="6" />
</svg>
