<svg xmlns="http://www.w3.org/2000/svg" width="512" height="512" viewBox="0 0 512 512">
<rect width="100%" height="100%" fill="#0b1020"/>
<circle cx="397" cy="121" r="43" fill="#f8f3c9" opacity="0.95" />
<circle cx="126.0" cy="23.0" r="1.5" fill="white" />
<circle cx="257.0" cy="78.0" r="1.9" fill="white" />
<circle cx="148.0" cy="157.0" r="2.9" fill="white" />
<circle cx="230.0" cy="172.0" r="1.6" fill="white" />
<circle cx="37.0" cy="180.0" r="2.4" fill="white" />
<circle cx="481.0" cy="29.0" r="2.7" fill="white" />
<circle cx="472.0" cy="47.0" r="3.3" fill="white" />
<path d="M 20 430 C 131 411, 172 451, 310 430 S 450 396, 512 426" stroke="#5dade2" stroke-width="5" fill="none" opacity="0.85" />
<line x1="0" y1="405" x2="512" y2="405" stroke="#445566" stroke-width="3" />
<polygon points="188,365 228,305 268,325 288,295 308,315 320,355 288,377 238,381" fill="#1e1e1e" />
<polygon points="263,305 276,283 286,307" fill="#1e1e1e" />
<line x1="318" y1="350" x2="348" y2="325" stroke="#1e1e1e" stroke-width="6" />
</svg>
