<svg xmlns="http://www.w3.org/2000/svg" width="512" height="512" viewBox="0 0 512 512">
<rect width="100%" height="100%" fill="#0b1020"/>
<circle cx="401" cy="96" r="45" fill="#f8f3c9" opacity="0.95" />
<circle cx="96.0" cy="67.0" r="2.1" fill="white" />
<circle cx="77.0" cy="26.0" r="3.2" fill="white" />
<circle cx="92.0" cy="44.0" r="1.8" fill="white" />
<circle cx="87.0" cy="158.0" r="1.8" fill="white" />
<circle cx="268.0" cy="135.0" r="2.6" fill="white" />
<circle cx="56.0" cy="132.0" r="2.5" fill="white" />
<circle cx="431.0" cy="91.0" r="2.4" fill="white" />
<circle cx="130.0" cy="87.0" r="2.2" fill="white" />
<circle cx="197.0" cy="79.0" r="2.3" fill="white" />
<circle cx="253.0" cy="43.0" r="2.2" fill="white" />
<circle cx="156.0" cy="92.0" r="2.5" fill="white" />
<circle cx="27.0" cy="81.0" r="3.4" fill="white" />
<circle cx="374.0" cy="158.0" r="2.1" fill="white" />
<circle cx="449.0" cy="165.0" r="2.2" fill="white" />
<circle cx="281.0" cy="172.0" r="3.4" fill="white" />
<path d="M 20 430 C 129 423, 162 443, 318 433 S 450 400, 512 430" stroke="#5dade2" stroke-width="5" fill="none" opacity="0.85" />
<line x1="0" y1="410" x2="512" y2="410" stroke="#445566" stroke-width="4" />
<polygon points="151,354 191,294 231,314 251,284 271,304 283,344 251,366 201,370" fill="#1e1e1e" />
<polygon points="226,294 239,272 249,296" fill="#1e1e1e" />
<line x1="281" y1="339" x2="311" y2="314" stroke="#1e1e1e" stroke-width="6" />
</svg>
