<svg xmlns="http://www.w3.org/2000/svg" width="512" height="512" viewBox="0 0 512 512">
<rect width="100%" height="100%" fill="#0b1020"/>
<circle cx="413" cy="84" r="46" fill="#f8f3c9" opacity="0.95" />
<circle cx="154.0" cy="71.0" r="3.3" fill="white" />
<circle cx="401.0" cy="120.0" r="2.3" fill="white" />
<circle cx="194.0" cy="41.0" r="2.5" fill="white" />
<circle cx="470.0" cy="157.0" r="2.3" fill="white" />
<circle cx="133.0" cy="142.0" r="2.3" fill="white" />
<circle cx="160.0" cy="49.0" r="1.6" fill="white" />
<circle cx="459.0" cy="120.0" r="2.4" fill="white" />
<circle cx="221.0" cy="53.0" r="1.7" fill="white" />
<circle cx="228.0" cy="144.0" r="3.3" fill="white" />
<circle cx="298.0" cy="103.0" r="3.4" fill="white" />
<circle cx="257.0" cy="80.0" r="2.1" fill="white" />
<circle cx="310.0" cy="125.0" r="2.4" fill="white" />
<path d="M 20 430 C 105 415, 191 455, 291 423 S 450 383, 512 413" stroke="#5dade2" stroke-width="5" fill="none" opacity="0.85" />
<line x1="0" y1="415" x2="512" y2="415" stroke="#445566" stroke-width="4" />
<polygon points="192,365 232,305 272,325 292,295 312,315 324,355 292,377 242,381" fill="#1e1e1e" />
<polygon points="267,305 280,283 290,307" fill="#1e1e1e" />
<line x1="322" y1="350" x2="352" y2="325" stroke="#1e1e1e" stroke-width="6" />
</svg>
