<svg xmlns="http://www.w3.org/2000/svg" width="512" height="512" viewBox="0 0 512 512">
<rect width="100%" height="100%" fill="#0b1020"/>
<circle cx="346" cy="93" r="40" fill="#f8f3c9" opacity="0.95" />
<circle cx="66.0" cy="22.0" r="1.7" fill="white" />
<circle cx="180.0" cy="162.0" r="1.9" fill="white" />
<circle cx="420.0" cy="87.0" r="3.3" fill="white" />
<circle cx="457.0" cy="74.0" r="3.2" fill="white" />
<circle cx="81.0" cy="97.0" r="3.4" fill="white" />
<circle cx="476.0" cy="157.0" r="1.9" fill="white" />
<circle cx="188.0" cy="64.0" r="2.7" fill="white" />
<circle cx="264.0" cy="49.0" r="2.5" fill="white" />
<circle cx="305.0" cy="155.0" r="2.0" fill="white" />
<path d="M 20 430 C 118 418, 193 456, 285 420 S 450 375, 512 405" stroke="#5dade2" stroke-width="5" fill="none" opacity="0.85" />
<line x1="0" y1="411" x2="512" y2="411" stroke="#445566" stroke-width="3" />
<polygon points="209,360 249,300 289,320 309,290 329,310 341,350 309,372 259,376" fill="#1e1e1e" />
<polygon points="284,300 297,278 307,302" fill="#1e1e1e" />
<line x1="339" y1="345" x2="369" y2="320" stroke="#1e1e1e" stroke-width="6" />
</svg>
