<svg xmlns="http://www.w3.org/2000/svg" width="512" height="512" viewBox="0 0 512 512">
<rect width="100%" height="100%" fill="#0b1020"/>
<circle cx="387" cy="120" r="53" fill="#f8f3c9" opacity="0.95" />
<circle cx="86.0" cy="133.0" r="2.4" fill="white" />
<circle cx="382.0" cy="58.0" r="2.6" fill="white" />
<circle cx="243.0" cy="20.0" r="2.2" fill="white" />
<circle cx="147.0" cy="160.0" r="2.5" fill="white" />
<circle cx="132.0" cy="106.0" r="1.8" fill="white" />
<circle cx="272.0" cy="30.0" r="2.7" fill="white" />
<circle cx="96.0" cy="177.0" r="1.9" fill="white" />
<circle cx="215.0" cy="166.0" r="3.0" fill="white" />
<circle cx="428.0" cy="168.0" r="3.4" fill="white" />
<circle cx="437.0" cy="28.0" r="3.3" fill="white" />
<circle cx="62.0" cy="60.0" r="1.7" fill="white" />
<circle cx="185.0" cy="164.0" r="2.1" fill="white" />
<circle cx="331.0" cy="53.0" r="3.4" fill="white" />
<circle cx="458.0" cy="78.0" r="2.9" fill="white" />
<path d="M 20 430 C 125 411, 192 459, 310 438 S 450 377, 512 407" stroke="#5dade2" stroke-width="8" fill="none" opacity="0.85" />
<line x1="0" y1="407" x2="512" y2="407" stroke="#445566" stroke-width="4" />
<polygon points="147,359 187,299 227,319 247,289 267,309 279,349 247,371 197,375" fill="#1e1e1e" />
<polygon points="222,299 235,277 245,301" fill="#1e1e1e" />
<line x1="277" y1="344" x2="307" y2="319" stroke="#1e1e1e" stroke-width="6" />
</svg>
