<svg xmlns="http://www.w3.org/2000/svg" width="512" height="512" viewBox="0 0 512 512">
<rect width="100%" height="100%" fill="black"/>
<circle cx="256.00" cy="256.00" r="2" fill="hsl(0, 80%, 65%)" />
<circle cx="250.04" cy="261.46" r="3" fill="hsl(7, 80%, 65%)" />
<circle cx="257.00" cy="244.61" r="4" fill="hsl(14, 80%, 65%)" />
<circle cx="264.52" cy="267.11" r="5" fill="hsl(21, 80%, 65%)" />
<circle cx="240.08" cy="253.18" r="6" fill="hsl(28, 80%, 65%)" />
<circle cx="271.25" cy="246.30" r="2" fill="hsl(35, 80%, 65%)" />
<circle cx="250.86" cy="275.12" r="3" fill="hsl(42, 80%, 65%)" />
<circle cx="246.14" cy="237.02" r="4" fill="hsl(49, 80%, 65%)" />
<circle cx="277.48" cy="263.84" r="5" fill="hsl(56, 80%, 65%)" />
<circle cx="233.58" cy="265.25" r="6" fill="hsl(63, 80%, 65%)" />
<circle cx="266.83" cy="232.85" r="2" fill="hsl(70, 80%, 65%)" />
<circle cx="264.02" cy="281.58" r="3" fill="hsl(77, 80%, 65%)" />
<circle cx="231.77" cy="241.96" r="4" fill="hsl(84, 80%, 65%)" />
<circle cx="284.47" cy="249.74" r="5" fill="hsl(91, 80%, 65%)" />
<circle cx="238.60" cy="280.74" r="6" fill="hsl(98, 80%, 65%)" />
<circle cx="251.98" cy="224.95" r="2" fill="hsl(105, 80%, 65%)" />
<circle cx="280.73" cy="276.84" r="3" fill="hsl(112, 80%, 65%)" />
<circle cx="222.70" cy="257.38" r="4" fill="hsl(119, 80%, 65%)" />
<circle cx="280.31" cy="231.81" r="5" fill="hsl(126, 80%, 65%)" />
<circle cx="254.37" cy="291.20" r="6" fill="hsl(133, 80%, 65%)" />
<circle cx="232.84" cy="228.24" r="2" fill="hsl(140, 80%, 65%)" />
<circle cx="292.71" cy="260.94" r="3" fill="hsl(147, 80%, 65%)" />
<circle cx="224.88" cy="277.66" r="4" fill="hsl(154, 80%, 65%)" />
<circle cx="264.51" cy="218.18" r="5" fill="hsl(161, 80%, 65%)" />
<circle cx="275.69" cy="290.36" r="6" fill="hsl(168, 80%, 65%)" />
<circle cx="217.49" cy="243.72" r="2" fill="hsl(175, 80%, 65%)" />
<circle cx="293.42" cy="238.71" r="3" fill="hsl(182, 80%, 65%)" />
<circle cx="239.78" cy="294.75" r="4" fill="hsl(189, 80%, 65%)" />
<circle cx="241.52" cy="215.75" r="5" fill="hsl(196, 80%, 65%)" />
<circle cx="294.53" cy="276.25" r="6" fill="hsl(203, 80%, 65%)" />
<circle cx="213.19" cy="267.29" r="2" fill="hsl(210, 80%, 65%)" />
<circle cx="280.34" cy="218.14" r="3" fill="hsl(217, 80%, 65%)" />
<circle cx="263.75" cy="301.07" r="4" fill="hsl(224, 80%, 65%)" />
<circle cx="219.28" cy="227.57" r="5" fill="hsl(231, 80%, 65%)" />
<circle cx="302.98" cy="252.11" r="6" fill="hsl(238, 80%, 65%)" />
<circle cx="223.52" cy="291.11" r="2" fill="hsl(245, 80%, 65%)" />
<circle cx="256.24" cy="207.50" r="3" fill="hsl(252, 80%, 65%)" />
<circle cx="289.04" cy="292.42" r="4" fill="hsl(259, 80%, 65%)" />
<circle cx="206.38" cy="251.40" r="5" fill="hsl(266, 80%, 65%)" />
<circle cx="296.21" cy="225.48" r="6" fill="hsl(273, 80%, 65%)" />
<circle cx="246.85" cy="306.30" r="2" fill="hsl(280, 80%, 65%)" />
<circle cx="228.43" cy="212.19" r="3" fill="hsl(287, 80%, 65%)" />
<circle cx="306.53" cy="269.85" r="4" fill="hsl(294, 80%, 65%)" />
<circle cx="208.84" cy="280.20" r="5" fill="hsl(301, 80%, 65%)" />
<circle cx="274.64" cy="205.72" r="6" fill="hsl(308, 80%, 65%)" />
<circle cx="276.45" cy="306.23" r="2" fill="hsl(315, 80%, 65%)" />
<circle cx="206.45" cy="232.52" r="3" fill="hsl(322, 80%, 65%)" />
<circle cx="308.96" cy="239.67" r="4" fill="hsl(329, 80%, 65%)" />
<circle cx="227.68" cy="304.32" r="5" fill="hsl(336, 80%, 65%)" />
<circle cx="244.12" cy="200.67" r="6" fill="hsl(343, 80%, 65%)" />
<circle cx="302.60" cy="289.10" r="2" fill="hsl(350, 80%, 65%)" />
<circle cx="198.71" cy="263.14" r="3" fill="hsl(357, 80%, 65%)" />
<circle cx="293.78" cy="211.61" r="4" fill="hsl(4, 80%, 65%)" />
<circle cx="258.14" cy="314.81" r="5" fill="hsl(11, 80%, 65%)" />
<circle cx="214.30" cy="213.69" r="6" fill="hsl(18, 80%, 65%)" />
<circle cx="315.87" cy="259.06" r="2" fill="hsl(25, 80%, 65%)" />
<circle cx="209.37" cy="294.53" r="3" fill="hsl(32, 80%, 65%)" />
<circle cx="264.43" cy="195.55" r="4" fill="hsl(39, 80%, 65%)" />
<circle cx="290.91" cy="306.71" r="5" fill="hsl(46, 80%, 65%)" />
<circle cx="195.49" cy="242.08" r="6" fill="hsl(53, 80%, 65%)" />
<circle cx="310.48" cy="225.13" r="2" fill="hsl(60, 80%, 65%)" />
<circle cx="236.52" cy="316.06" r="3" fill="hsl(67, 80%, 65%)" />
<circle cx="229.58" cy="198.09" r="4" fill="hsl(74, 80%, 65%)" />
<circle cx="315.07" cy="281.06" r="5" fill="hsl(81, 80%, 65%)" />
<circle cx="195.04" cy="277.59" r="6" fill="hsl(88, 80%, 65%)" />
<circle cx="286.60" cy="198.46" r="2" fill="hsl(95, 80%, 65%)" />
<circle cx="272.43" cy="319.59" r="3" fill="hsl(102, 80%, 65%)" />
<circle cx="200.52" cy="219.94" r="4" fill="hsl(109, 80%, 65%)" />
<circle cx="321.75" cy="245.03" r="5" fill="hsl(116, 80%, 65%)" />
<circle cx="214.63" cy="308.89" r="6" fill="hsl(123, 80%, 65%)" />
<circle cx="250.74" cy="188.57" r="2" fill="hsl(130, 80%, 65%)" />
<circle cx="305.78" cy="302.50" r="3" fill="hsl(137, 80%, 65%)" />
<circle cx="187.41" cy="255.33" r="4" fill="hsl(144, 80%, 65%)" />
<circle cx="307.38" cy="209.84" r="5" fill="hsl(151, 80%, 65%)" />
<circle cx="249.24" cy="325.21" r="6" fill="hsl(158, 80%, 65%)" />
<circle cx="213.95" cy="200.03" r="2" fill="hsl(165, 80%, 65%)" />
<circle cx="325.27" cy="268.95" r="3" fill="hsl(172, 80%, 65%)" />
<circle cx="195.78" cy="293.49" r="4" fill="hsl(179, 80%, 65%)" />
<circle cx="275.21" cy="187.24" r="5" fill="hsl(186, 80%, 65%)" />
<circle cx="288.49" cy="320.08" r="6" fill="hsl(193, 80%, 65%)" />
<circle cx="188.33" cy="230.54" r="2" fill="hsl(200, 80%, 65%)" />
<circle cx="323.52" cy="228.90" r="3" fill="hsl(207, 80%, 65%)" />
<circle cx="224.33" cy="322.00" r="4" fill="hsl(214, 80%, 65%)" />
<circle cx="234.65" cy="185.52" r="5" fill="hsl(221, 80%, 65%)" />
<circle cx="319.74" cy="293.77" r="6" fill="hsl(228, 80%, 65%)" />
<circle cx="183.06" cy="271.29" r="2" fill="hsl(235, 80%, 65%)" />
<circle cx="299.71" cy="195.10" r="3" fill="hsl(242, 80%, 65%)" />
<circle cx="264.96" cy="330.87" r="4" fill="hsl(249, 80%, 65%)" />
<circle cx="198.49" cy="206.57" r="5" fill="hsl(256, 80%, 65%)" />
<circle cx="332.23" cy="253.59" r="6" fill="hsl(263, 80%, 65%)" />
<circle cx="201.11" cy="309.56" r="2" fill="hsl(270, 80%, 65%)" />
<circle cx="260.31" cy="179.01" r="3" fill="hsl(277, 80%, 65%)" />
<circle cx="305.10" cy="316.01" r="4" fill="hsl(284, 80%, 65%)" />
<circle cx="178.84" cy="244.85" r="5" fill="hsl(291, 80%, 65%)" />
<circle cx="320.77" cy="211.87" r="6" fill="hsl(298, 80%, 65%)" />
<circle cx="237.96" cy="332.70" r="2" fill="hsl(305, 80%, 65%)" />
<circle cx="217.29" cy="186.90" r="3" fill="hsl(312, 80%, 65%)" />
<circle cx="331.61" cy="280.94" r="4" fill="hsl(319, 80%, 65%)" />
<circle cx="183.03" cy="288.85" r="5" fill="hsl(326, 80%, 65%)" />
<circle cx="287.77" cy="182.11" r="6" fill="hsl(333, 80%, 65%)" />
<circle cx="282.62" cy="332.33" r="2" fill="hsl(340, 80%, 65%)" />
<circle cx="184.46" cy="217.50" r="3" fill="hsl(347, 80%, 65%)" />
<circle cx="335.15" cy="235.96" r="4" fill="hsl(354, 80%, 65%)" />
<circle cx="210.96" cy="324.57" r="5" fill="hsl(1, 80%, 65%)" />
<circle cx="242.83" cy="174.62" r="6" fill="hsl(8, 80%, 65%)" />
<circle cx="320.99" cy="307.36" r="2" fill="hsl(15, 80%, 65%)" />
<circle cx="172.99" cy="262.06" r="3" fill="hsl(22, 80%, 65%)" />
<circle cx="313.38" cy="195.17" r="4" fill="hsl(29, 80%, 65%)" />
<circle cx="254.77" cy="340.00" r="5" fill="hsl(36, 80%, 65%)" />
<circle cx="199.91" cy="192.94" r="6" fill="hsl(43, 80%, 65%)" />
<circle cx="340.34" cy="264.65" r="2" fill="hsl(50, 80%, 65%)" />
<circle cx="187.66" cy="306.83" r="3" fill="hsl(57, 80%, 65%)" />
<circle cx="272.13" cy="171.98" r="4" fill="hsl(64, 80%, 65%)" />
<circle cx="301.06" cy="329.17" r="5" fill="hsl(71, 80%, 65%)" />
<circle cx="172.98" cy="232.38" r="6" fill="hsl(78, 80%, 65%)" />
<circle cx="333.51" cy="217.17" r="2" fill="hsl(85, 80%, 65%)" />
<circle cx="224.94" cy="337.34" r="3" fill="hsl(92, 80%, 65%)" />
<circle cx="223.82" cy="174.70" r="4" fill="hsl(99, 80%, 65%)" />
<circle cx="334.98" cy="294.38" r="5" fill="hsl(106, 80%, 65%)" />
<circle cx="171.48" cy="281.16" r="6" fill="hsl(113, 80%, 65%)" />
<circle cx="301.52" cy="180.04" r="2" fill="hsl(120, 80%, 65%)" />
<circle cx="273.82" cy="343.12" r="3" fill="hsl(127, 80%, 65%)" />
<circle cx="183.72" cy="203.58" r="4" fill="hsl(134, 80%, 65%)" />
<circle cx="345.07" cy="245.78" r="5" fill="hsl(141, 80%, 65%)" />
<circle cx="196.99" cy="323.98" r="6" fill="hsl(148, 80%, 65%)" />
<circle cx="253.59" cy="165.65" r="2" fill="hsl(155, 80%, 65%)" />
<circle cx="319.06" cy="321.25" r="3" fill="hsl(162, 80%, 65%)" />
<circle cx="165.07" cy="250.46" r="4" fill="hsl(169, 80%, 65%)" />
<circle cx="327.07" cy="198.44" r="5" fill="hsl(176, 80%, 65%)" />
<circle cx="242.43" cy="346.81" r="6" fill="hsl(183, 80%, 65%)" />
<circle cx="204.47" cy="179.58" r="2" fill="hsl(190, 80%, 65%)" />
<circle cx="345.96" cy="277.63" r="3" fill="hsl(197, 80%, 65%)" />
<circle cx="174.75" cy="300.99" r="4" fill="hsl(204, 80%, 65%)" />
<circle cx="285.63" cy="167.61" r="5" fill="hsl(211, 80%, 65%)" />
<circle cx="294.00" cy="341.51" r="6" fill="hsl(218, 80%, 65%)" />
<circle cx="169.90" cy="218.47" r="2" fill="hsl(225, 80%, 65%)" />
<circle cx="345.17" cy="225.39" r="3" fill="hsl(232, 80%, 65%)" />
<circle cx="210.76" cy="339.10" r="4" fill="hsl(239, 80%, 65%)" />
<circle cx="233.14" cy="163.83" r="5" fill="hsl(246, 80%, 65%)" />
<circle cx="335.40" cy="308.71" r="6" fill="hsl(253, 80%, 65%)" />
<circle cx="161.51" cy="270.82" r="2" fill="hsl(260, 80%, 65%)" />
<circle cx="315.88" cy="180.98" r="3" fill="hsl(267, 80%, 65%)" />
<circle cx="262.55" cy="352.11" r="4" fill="hsl(274, 80%, 65%)" />
<circle cx="186.01" cy="189.32" r="5" fill="hsl(281, 80%, 65%)" />
<circle cx="352.99" cy="257.89" r="6" fill="hsl(288, 80%, 65%)" />
<circle cx="182.95" cy="320.34" r="2" fill="hsl(295, 80%, 65%)" />
<circle cx="266.44" cy="158.88" r="3" fill="hsl(302, 80%, 65%)" />
<circle cx="314.11" cy="334.93" r="4" fill="hsl(309, 80%, 65%)" />
<circle cx="159.51" cy="236.98" r="5" fill="hsl(316, 80%, 65%)" />
<circle cx="340.28" cy="204.67" r="6" fill="hsl(323, 80%, 65%)" />
<circle cx="228.44" cy="351.09" r="2" fill="hsl(330, 80%, 65%)" />
<circle cx="211.94" cy="166.97" r="3" fill="hsl(337, 80%, 65%)" />
<circle cx="348.93" cy="292.01" r="4" fill="hsl(344, 80%, 65%)" />
<circle cx="162.85" cy="292.34" r="5" fill="hsl(351, 80%, 65%)" />
<circle cx="300.28" cy="165.99" r="6" fill="hsl(358, 80%, 65%)" />
<circle cx="284.24" cy="352.60" r="2" fill="hsl(5, 80%, 65%)" />
<circle cx="169.65" cy="203.68" r="3" fill="hsl(12, 80%, 65%)" />
<circle cx="355.33" cy="236.19" r="4" fill="hsl(19, 80%, 65%)" />
<circle cx="195.95" cy="337.97" r="5" fill="hsl(26, 80%, 65%)" />
<circle cx="244.88" cy="154.68" r="6" fill="hsl(33, 80%, 65%)" />
<circle cx="332.89" cy="323.41" r="2" fill="hsl(40, 80%, 65%)" />
<circle cx="153.45" cy="258.24" r="3" fill="hsl(47, 80%, 65%)" />
<circle cx="330.33" cy="184.86" r="4" fill="hsl(54, 80%, 65%)" />
<circle cx="249.22" cy="358.99" r="5" fill="hsl(61, 80%, 65%)" />
<circle cx="191.23" cy="175.24" r="6" fill="hsl(68, 80%, 65%)" />
<circle cx="358.62" cy="271.85" r="2" fill="hsl(75, 80%, 65%)" />
<circle cx="169.36" cy="313.81" r="3" fill="hsl(82, 80%, 65%)" />
<circle cx="280.91" cy="154.55" r="4" fill="hsl(89, 80%, 65%)" />
<circle cx="306.31" cy="347.91" r="5" fill="hsl(96, 80%, 65%)" />
<circle cx="156.52" cy="222.11" r="6" fill="hsl(103, 80%, 65%)" />
<circle cx="352.53" cy="213.67" r="2" fill="hsl(110, 80%, 65%)" />
<circle cx="213.29" cy="352.70" r="3" fill="hsl(117, 80%, 65%)" />
<circle cx="222.07" cy="155.56" r="4" fill="hsl(124, 80%, 65%)" />
<circle cx="349.14" cy="307.29" r="5" fill="hsl(131, 80%, 65%)" />
<circle cx="152.38" cy="281.16" r="6" fill="hsl(138, 80%, 65%)" />
<circle cx="315.58" cy="167.20" r="2" fill="hsl(145, 80%, 65%)" />
<circle cx="272.10" cy="362.03" r="3" fill="hsl(152, 80%, 65%)" />
<circle cx="172.27" cy="188.50" r="4" fill="hsl(159, 80%, 65%)" />
<circle cx="363.64" cy="249.19" r="5" fill="hsl(166, 80%, 65%)" />
<circle cx="181.02" cy="333.94" r="6" fill="hsl(173, 80%, 65%)" />
<circle cx="258.65" cy="147.58" r="2" fill="hsl(180, 80%, 65%)" />
<circle cx="327.49" cy="337.96" r="3" fill="hsl(187, 80%, 65%)" />
<circle cx="147.63" cy="243.82" r="4" fill="hsl(194, 80%, 65%)" />
<circle cx="344.38" cy="191.60" r="5" fill="hsl(201, 80%, 65%)" />
<circle cx="234.27" cy="363.48" r="6" fill="hsl(208, 80%, 65%)" />
<circle cx="199.27" cy="161.82" r="2" fill="hsl(215, 80%, 65%)" />
<circle cx="361.74" cy="287.21" r="3" fill="hsl(222, 80%, 65%)" />
<circle cx="156.68" cy="304.54" r="4" fill="hsl(229, 80%, 65%)" />
<circle cx="296.55" cy="152.84" r="5" fill="hsl(236, 80%, 65%)" />
<circle cx="295.89" cy="359.73" r="6" fill="hsl(243, 80%, 65%)" />
<circle cx="156.26" cy="206.32" r="2" fill="hsl(250, 80%, 65%)" />
<circle cx="363.38" cy="225.17" r="3" fill="hsl(257, 80%, 65%)" />
<circle cx="197.49" cy="351.52" r="4" fill="hsl(264, 80%, 65%)" />
<circle cx="234.57" cy="145.76" r="5" fill="hsl(271, 80%, 65%)" />
<circle cx="346.50" cy="322.98" r="6" fill="hsl(278, 80%, 65%)" />
<circle cx="143.73" cy="267.77" r="2" fill="hsl(285, 80%, 65%)" />
<circle cx="331.02" cy="171.27" r="3" fill="hsl(292, 80%, 65%)" />
<circle cx="257.92" cy="369.45" r="4" fill="hsl(299, 80%, 65%)" />
<circle cx="177.75" cy="173.44" r="5" fill="hsl(306, 80%, 65%)" />
<circle cx="369.75" cy="264.04" r="6" fill="hsl(313, 80%, 65%)" />
<circle cx="166.46" cy="327.09" r="2" fill="hsl(320, 80%, 65%)" />
<circle cx="274.05" cy="142.82" r="3" fill="hsl(327, 80%, 65%)" />
<circle cx="319.30" cy="351.88" r="4" fill="hsl(334, 80%, 65%)" />
<circle cx="144.28" cy="227.99" r="5" fill="hsl(341, 80%, 65%)" />
<circle cx="357.55" cy="201.06" r="6" fill="hsl(348, 80%, 65%)" />
<circle cx="218.14" cy="365.38" r="2" fill="hsl(355, 80%, 65%)" />
<circle cx="209.92" cy="149.52" r="3" fill="hsl(2, 80%, 65%)" />
<circle cx="362.16" cy="303.50" r="4" fill="hsl(9, 80%, 65%)" />
<circle cx="145.36" cy="292.77" r="5" fill="hsl(16, 80%, 65%)" />
<circle cx="312.88" cy="153.91" r="6" fill="hsl(23, 80%, 65%)" />
<circle cx="283.09" cy="369.97" r="2" fill="hsl(30, 80%, 65%)" />
<circle cx="158.81" cy="190.10" r="3" fill="hsl(37, 80%, 65%)" />
<circle cx="372.45" cy="238.90" r="4" fill="hsl(44, 80%, 65%)" />
<circle cx="181.51" cy="347.49" r="5" fill="hsl(51, 80%, 65%)" />
<circle cx="249.11" cy="137.94" r="6" fill="hsl(58, 80%, 65%)" />
<circle cx="341.02" cy="338.59" r="2" fill="hsl(65, 80%, 65%)" />
<circle cx="137.24" cy="252.52" r="3" fill="hsl(72, 80%, 65%)" />
<circle cx="346.12" cy="178.16" r="4" fill="hsl(79, 80%, 65%)" />
<circle cx="242.09" cy="374.54" r="5" fill="hsl(86, 80%, 65%)" />
<circle cx="186.02" cy="158.97" r="6" fill="hsl(93, 80%, 65%)" />
<circle cx="373.41" cy="280.33" r="2" fill="hsl(100, 80%, 65%)" />
<circle cx="152.76" cy="317.51" r="3" fill="hsl(107, 80%, 65%)" />
<circle cx="290.66" cy="140.65" r="4" fill="hsl(114, 80%, 65%)" />
<circle cx="308.48" cy="364.71" r="5" fill="hsl(121, 80%, 65%)" />
<circle cx="143.62" cy="211.19" r="6" fill="hsl(128, 80%, 65%)" />
<circle cx="369.39" cy="213.03" r="2" fill="hsl(135, 80%, 65%)" />
<circle cx="201.29" cy="364.52" r="3" fill="hsl(142, 80%, 65%)" />
<circle cx="222.97" cy="138.77" r="4" fill="hsl(149, 80%, 65%)" />
<circle cx="359.77" cy="320.27" r="5" fill="hsl(156, 80%, 65%)" />
<circle cx="135.80" cy="278.76" r="6" fill="hsl(163, 80%, 65%)" />
<circle cx="329.41" cy="157.81" r="2" fill="hsl(170, 80%, 65%)" />
<circle cx="268.22" cy="378.26" r="3" fill="hsl(177, 80%, 65%)" />
<circle cx="164.21" cy="173.93" r="4" fill="hsl(184, 80%, 65%)" />
<circle cx="379.39" cy="254.51" r="5" fill="hsl(191, 80%, 65%)" />
<circle cx="165.83" cy="340.62" r="6" fill="hsl(198, 80%, 65%)" />
<circle cx="265.34" cy="132.43" r="2" fill="hsl(205, 80%, 65%)" />
<circle cx="332.74" cy="353.64" r="3" fill="hsl(212, 80%, 65%)" />
<circle cx="133.20" cy="235.80" r="4" fill="hsl(219, 80%, 65%)" />
<circle cx="360.41" cy="187.80" r="5" fill="hsl(226, 80%, 65%)" />
<circle cx="225.01" cy="377.07" r="6" fill="hsl(233, 80%, 65%)" />
<circle cx="196.94" cy="145.56" r="2" fill="hsl(240, 80%, 65%)" />
<circle cx="374.39" cy="297.63" r="3" fill="hsl(247, 80%, 65%)" />
<circle cx="140.35" cy="305.38" r="4" fill="hsl(254, 80%, 65%)" />
<circle cx="308.03" cy="141.23" r="5" fill="hsl(261, 80%, 65%)" />
<circle cx="295.24" cy="376.02" r="6" fill="hsl(268, 80%, 65%)" />
<circle cx="145.77" cy="193.88" r="2" fill="hsl(275, 80%, 65%)" />
<circle cx="379.50" cy="227.28" r="3" fill="hsl(282, 80%, 65%)" />
<circle cx="184.19" cy="360.81" r="4" fill="hsl(289, 80%, 65%)" />
<circle cx="238.12" cy="129.96" r="5" fill="hsl(296, 80%, 65%)" />
<circle cx="354.52" cy="337.02" r="6" fill="hsl(303, 80%, 65%)" />
<circle cx="128.36" cy="262.82" r="2" fill="hsl(310, 80%, 65%)" />
<circle cx="345.69" cy="164.57" r="3" fill="hsl(317, 80%, 65%)" />
<circle cx="251.62" cy="384.25" r="4" fill="hsl(324, 80%, 65%)" />
<circle cx="172.43" cy="158.28" r="5" fill="hsl(331, 80%, 65%)" />
<circle cx="383.88" cy="271.64" r="6" fill="hsl(338, 80%, 65%)" />
<circle cx="150.93" cy="331.00" r="2" fill="hsl(345, 80%, 65%)" />
<circle cx="282.86" cy="129.48" r="3" fill="hsl(352, 80%, 65%)" />
<circle cx="321.78" cy="367.66" r="4" fill="hsl(359, 80%, 65%)" />
<circle cx="131.83" cy="218.03" r="5" fill="hsl(6, 80%, 65%)" />
<circle cx="373.43" cy="200.01" r="6" fill="hsl(13, 80%, 65%)" />
<circle cx="207.13" cy="376.84" r="2" fill="hsl(20, 80%, 65%)" />
<circle cx="210.32" cy="133.65" r="3" fill="hsl(27, 80%, 65%)" />
<circle cx="372.55" cy="315.47" r="4" fill="hsl(34, 80%, 65%)" />
<circle cx="129.64" cy="290.94" r="5" fill="hsl(41, 80%, 65%)" />
<circle cx="325.70" cy="144.67" r="6" fill="hsl(48, 80%, 65%)" />
<circle cx="279.85" cy="385.42" r="2" fill="hsl(55, 80%, 65%)" />
<circle cx="150.80" cy="176.53" r="3" fill="hsl(62, 80%, 65%)" />
<circle cx="387.50" cy="243.51" r="4" fill="hsl(69, 80%, 65%)" />
</svg>
