<svg xmlns="http://www.w3.org/2000/svg" width="512" height="512" viewBox="0 0 512 512">
<rect width="100%" height="100%" fill="#0b1020"/>
<circle cx="454" cy="121" r="54" fill="#f8f3c9" opacity="0.95" />
<circle cx="188.0" cy="146.0" r="2.4" fill="white" />
<circle cx="437.0" cy="104.0" r="1.8" fill="white" />
<circle cx="129.0" cy="50.0" r="2.8" fill="white" />
<circle cx="491.0" cy="131.0" r="1.7" fill="white" />
<circle cx="159.0" cy="100.0" r="3.3" fill="white" />
<circle cx="491.0" cy="112.0" r="1.7" fill="white" />
<circle cx="227.0" cy="65.0" r="3.2" fill="white" />
<circle cx="247.0" cy="158.0" r="3.1" fill="white" />
<circle cx="476.0" cy="81.0" r="2.6" fill="white" />
<circle cx="243.0" cy="49.0" r="2.0" fill="white" />
<circle cx="235.0" cy="138.0" r="2.6" fill="white" />
<path d="M 20 430 C 128 415, 187 448, 291 425 S 450 383, 512 413" stroke="#5dade2" stroke-width="7" fill="none" opacity="0.85" />
<line x1="0" y1="405" x2="512" y2="405" stroke="#445566" stroke-width="4" />
<polygon points="142,356 182,296 222,316 242,286 262,306 274,346 242,368 192,372" fill="#1e1e1e" />
<polygon points="217,296 230,274 240,298" fill="#1e1e1e" />
<line x1="272" y1="341" x2="302" y2="316" stroke="#1e1e1e" stroke-width="6" />
</svg>
