<svg xmlns="http://www.w3.org/2000/svg" width="512" height="512" viewBox="0 0 512 512">
<rect width="100%" height="100%" fill="#0b1020"/>
<circle cx="428" cy="63" r="47" fill="#f8f3c9" opacity="0.95" />
<circle cx="86.0" cy="178.0" r="3.1" fill="white" />
<circle cx="473.0" cy="43.0" r="2.2" fill="white" />
<circle cx="204.0" cy="134.0" r="3.3" fill="white" />
<circle cx="377.0" cy="138.0" r="2.9" fill="white" />
<circle cx="458.0" cy="172.0" r="3.2" fill="white" />
<path d="M 20 430 C 106 411, 193 440, 305 437 S 450 375, 512 405" stroke="#5dade2" stroke-width="7" fill="none" opacity="0.85" />
<line x1="0" y1="400" x2="512" y2="400" stroke="#445566" stroke-width="4" />
<polygon points="164,361 204,301 244,321 264,291 284,311 296,351 264,373 214,377" fill="#1e1e1e" />
<polygon points="239,301 252,279 262,303" fill="#1e1e1e" />
<line x1="294" y1="346" x2="324" y2="321" stroke="#1e1e1e" stroke-width="6" />
</svg>
