<svg xmlns="http://www.w3.org/2000/svg" width="512" height="512" viewBox="0 0 512 512">
<rect width="100%" height="100%" fill="#0b1020"/>
<circle cx="349" cy="112" r="44" fill="#f8f3c9" opacity="0.95" />
<circle cx="280.0" cy="21.0" r="2.8" fill="white" />
<circle cx="184.0" cy="164.0" r="2.0" fill="white" />
<circle cx="314.0" cy="95.0" r="1.6" fill="white" />
<circle cx="218.0" cy="151.0" r="2.4" fill="white" />
<circle cx="62.0" cy="85.0" r="2.6" fill="white" />
<circle cx="244.0" cy="173.0" r="1.6" fill="white" />
<circle cx="362.0" cy="83.0" r="2.5" fill="white" />
<circle cx="415.0" cy="82.0" r="1.6" fill="white" />
<circle cx="322.0" cy="39.0" r="2.3" fill="white" />
<circle cx="319.0" cy="27.0" r="2.9" fill="white" />
<circle cx="308.0" cy="140.0" r="2.4" fill="white" />
<circle cx="460.0" cy="81.0" r="3.3" fill="white" />
<path d="M 20 430 C 139 414, 179 455, 308 424 S 450 399, 512 429" stroke="#5dade2" stroke-width="7" fill="none" opacity="0.85" />
<line x1="0" y1="398" x2="512" y2="398" stroke="#445566" stroke-width="2" />
<polygon points="156,355 196,295 236,315 256,285 276,305 288,345 256,367 206,371" fill="#1e1e1e" />
<polygon points="231,295 244,273 254,297" fill="#1e1e1e" />
<line x1="286" y1="340" x2="316" y2="315" stroke="#1e1e1e" stroke-width="6" />
</svg>
