<svg xmlns="http://www.w3.org/2000/svg" width="512" height="512" viewBox="0 0 512 512">
<rect width="100%" height="100%" fill="black"/>
<circle cx="104" cy="143" r="7" fill="hsl(0, 80%, 65%)" />
<circle cx="233" cy="93" r="3" fill="hsl(9, 80%, 65%)" />
<circle cx="122" cy="248" r="3" fill="hsl(18, 80%, 65%)" />
<circle cx="200" cy="172" r="7" fill="hsl(27, 80%, 65%)" />
<circle cx="218" cy="229" r="3" fill="hsl(36, 80%, 65%)" />
<circle cx="153" cy="368" r="3" fill="hsl(45, 80%, 65%)" />
<circle cx="335" cy="173" r="4" fill="hsl(54, 80%, 65%)" />
<circle cx="395" cy="103" r="8" fill="hsl(63, 80%, 65%)" />
<circle cx="312" cy="418" r="4" fill="hsl(72, 80%, 65%)" />
<circle cx="380" cy="199" r="8" fill="hsl(81, 80%, 65%)" />
<circle cx="416" cy="342" r="6" fill="hsl(90, 80%, 65%)" />
<circle cx="146" cy="72" r="5" fill="hsl(99, 80%, 65%)" />
<circle cx="382" cy="273" r="5" fill="hsl(108, 80%, 65%)" />
<circle cx="393" cy="422" r="4" fill="hsl(117, 80%, 65%)" />
<circle cx="311" cy="326" r="5" fill="hsl(126, 80%, 65%)" />
<circle cx="202" cy="78" r="4" fill="hsl(135, 80%, 65%)" />
<circle cx="427" cy="292" r="8" fill="hsl(144, 80%, 65%)" />
<circle cx="213" cy="71" r="2" fill="hsl(153, 80%, 65%)" />
<circle cx="140" cy="420" r="5" fill="hsl(162, 80%, 65%)" />
<circle cx="246" cy="421" r="2" fill="hsl(171, 80%, 65%)" />
<circle cx="123" cy="106" r="6" fill="hsl(180, 80%, 65%)" />
<circle cx="123" cy="171" r="2" fill="hsl(189, 80%, 65%)" />
<circle cx="184" cy="390" r="3" fill="hsl(198, 80%, 65%)" />
<circle cx="359" cy="234" r="4" fill="hsl(207, 80%, 65%)" />
<circle cx="244" cy="425" r="6" fill="hsl(216, 80%, 65%)" />
<circle cx="437" cy="291" r="5" fill="hsl(225, 80%, 65%)" />
<circle cx="278" cy="437" r="4" fill="hsl(234, 80%, 65%)" />
<circle cx="272" cy="415" r="4" fill="hsl(243, 80%, 65%)" />
<circle cx="319" cy="317" r="6" fill="hsl(252, 80%, 65%)" />
<circle cx="196" cy="363" r="5" fill="hsl(261, 80%, 65%)" />
<circle cx="247" cy="222" r="4" fill="hsl(270, 80%, 65%)" />
<circle cx="361" cy="122" r="8" fill="hsl(279, 80%, 65%)" />
<circle cx="391" cy="230" r="8" fill="hsl(288, 80%, 65%)" />
<circle cx="263" cy="385" r="3" fill="hsl(297, 80%, 65%)" />
<circle cx="171" cy="166" r="3" fill="hsl(306, 80%, 65%)" />
<circle cx="417" cy="79" r="2" fill="hsl(315, 80%, 65%)" />
<circle cx="395" cy="70" r="3" fill="hsl(324, 80%, 65%)" />
<circle cx="197" cy="254" r="4" fill="hsl(333, 80%, 65%)" />
<circle cx="170" cy="166" r="7" fill="hsl(342, 80%, 65%)" />
<circle cx="310" cy="258" r="8" fill="hsl(351, 80%, 65%)" />
<circle cx="428" cy="287" r="8" fill="hsl(0, 80%, 65%)" />
<circle cx="112" cy="399" r="5" fill="hsl(9, 80%, 65%)" />
<circle cx="91" cy="316" r="8" fill="hsl(18, 80%, 65%)" />
<circle cx="338" cy="322" r="8" fill="hsl(27, 80%, 65%)" />
<circle cx="288" cy="410" r="4" fill="hsl(36, 80%, 65%)" />
<circle cx="280" cy="391" r="4" fill="hsl(45, 80%, 65%)" />
<circle cx="98" cy="160" r="3" fill="hsl(54, 80%, 65%)" />
<circle cx="105" cy="246" r="3" fill="hsl(63, 80%, 65%)" />
<circle cx="146" cy="203" r="6" fill="hsl(72, 80%, 65%)" />
<circle cx="173" cy="97" r="5" fill="hsl(81, 80%, 65%)" />
<circle cx="163" cy="117" r="6" fill="hsl(90, 80%, 65%)" />
<circle cx="263" cy="132" r="6" fill="hsl(99, 80%, 65%)" />
<circle cx="236" cy="132" r="6" fill="hsl(108, 80%, 65%)" />
<circle cx="274" cy="370" r="5" fill="hsl(117, 80%, 65%)" />
<circle cx="85" cy="314" r="4" fill="hsl(126, 80%, 65%)" />
<circle cx="420" cy="281" r="3" fill="hsl(135, 80%, 65%)" />
<circle cx="78" cy="427" r="8" fill="hsl(144, 80%, 65%)" />
<circle cx="124" cy="137" r="5" fill="hsl(153, 80%, 65%)" />
<circle cx="74" cy="119" r="6" fill="hsl(162, 80%, 65%)" />
<circle cx="154" cy="426" r="5" fill="hsl(171, 80%, 65%)" />
<circle cx="126" cy="175" r="4" fill="hsl(180, 80%, 65%)" />
<circle cx="168" cy="143" r="3" fill="hsl(189, 80%, 65%)" />
<circle cx="421" cy="95" r="7" fill="hsl(198, 80%, 65%)" />
<circle cx="390" cy="134" r="6" fill="hsl(207, 80%, 65%)" />
<circle cx="310" cy="257" r="8" fill="hsl(216, 80%, 65%)" />
<circle cx="344" cy="305" r="6" fill="hsl(225, 80%, 65%)" />
<circle cx="322" cy="270" r="2" fill="hsl(234, 80%, 65%)" />
<circle cx="270" cy="189" r="6" fill="hsl(243, 80%, 65%)" />
<circle cx="233" cy="381" r="4" fill="hsl(252, 80%, 65%)" />
<circle cx="306" cy="243" r="8" fill="hsl(261, 80%, 65%)" />
<circle cx="219" cy="348" r="8" fill="hsl(270, 80%, 65%)" />
<circle cx="204" cy="269" r="2" fill="hsl(279, 80%, 65%)" />
<circle cx="112" cy="404" r="2" fill="hsl(288, 80%, 65%)" />
<circle cx="353" cy="436" r="5" fill="hsl(297, 80%, 65%)" />
<circle cx="275" cy="271" r="5" fill="hsl(306, 80%, 65%)" />
<circle cx="341" cy="356" r="6" fill="hsl(315, 80%, 65%)" />
<circle cx="231" cy="282" r="6" fill="hsl(324, 80%, 65%)" />
<circle cx="320" cy="336" r="7" fill="hsl(333, 80%, 65%)" />
<circle cx="222" cy="200" r="3" fill="hsl(342, 80%, 65%)" />
<circle cx="418" cy="435" r="2" fill="hsl(351, 80%, 65%)" />
<circle cx="329" cy="301" r="3" fill="hsl(0, 80%, 65%)" />
<circle cx="168" cy="375" r="7" fill="hsl(9, 80%, 65%)" />
<circle cx="300" cy="289" r="7" fill="hsl(18, 80%, 65%)" />
<circle cx="308" cy="370" r="4" fill="hsl(27, 80%, 65%)" />
<circle cx="273" cy="268" r="4" fill="hsl(36, 80%, 65%)" />
<circle cx="71" cy="213" r="4" fill="hsl(45, 80%, 65%)" />
<circle cx="404" cy="242" r="4" fill="hsl(54, 80%, 65%)" />
<circle cx="393" cy="84" r="3" fill="hsl(63, 80%, 65%)" />
<circle cx="204" cy="317" r="4" fill="hsl(72, 80%, 65%)" />
<circle cx="93" cy="379" r="5" fill="hsl(81, 80%, 65%)" />
<circle cx="100" cy="415" r="4" fill="hsl(90, 80%, 65%)" />
<circle cx="269" cy="234" r="2" fill="hsl(99, 80%, 65%)" />
<circle cx="265" cy="393" r="5" fill="hsl(108, 80%, 65%)" />
<circle cx="222" cy="317" r="3" fill="hsl(117, 80%, 65%)" />
<circle cx="139" cy="359" r="8" fill="hsl(126, 80%, 65%)" />
<circle cx="109" cy="367" r="2" fill="hsl(135, 80%, 65%)" />
<circle cx="87" cy="311" r="6" fill="hsl(144, 80%, 65%)" />
<circle cx="314" cy="248" r="7" fill="hsl(153, 80%, 65%)" />
<circle cx="433" cy="198" r="6" fill="hsl(162, 80%, 65%)" />
<circle cx="212" cy="122" r="2" fill="hsl(171, 80%, 65%)" />
<circle cx="116" cy="297" r="5" fill="hsl(180, 80%, 65%)" />
<circle cx="436" cy="132" r="4" fill="hsl(189, 80%, 65%)" />
<circle cx="145" cy="315" r="7" fill="hsl(198, 80%, 65%)" />
<circle cx="234" cy="71" r="8" fill="hsl(207, 80%, 65%)" />
<circle cx="336" cy="73" r="6" fill="hsl(216, 80%, 65%)" />
<circle cx="349" cy="137" r="2" fill="hsl(225, 80%, 65%)" />
<circle cx="133" cy="271" r="4" fill="hsl(234, 80%, 65%)" />
<circle cx="180" cy="132" r="8" fill="hsl(243, 80%, 65%)" />
<circle cx="213" cy="354" r="6" fill="hsl(252, 80%, 65%)" />
<circle cx="144" cy="396" r="2" fill="hsl(261, 80%, 65%)" />
<circle cx="98" cy="290" r="3" fill="hsl(270, 80%, 65%)" />
<circle cx="416" cy="175" r="3" fill="hsl(279, 80%, 65%)" />
<circle cx="326" cy="120" r="4" fill="hsl(288, 80%, 65%)" />
<circle cx="284" cy="386" r="8" fill="hsl(297, 80%, 65%)" />
<circle cx="139" cy="310" r="7" fill="hsl(306, 80%, 65%)" />
<circle cx="89" cy="95" r="4" fill="hsl(315, 80%, 65%)" />
<circle cx="132" cy="300" r="8" fill="hsl(324, 80%, 65%)" />
<circle cx="327" cy="398" r="2" fill="hsl(333, 80%, 65%)" />
<circle cx="265" cy="348" r="3" fill="hsl(342, 80%, 65%)" />
<circle cx="434" cy="436" r="6" fill="hsl(351, 80%, 65%)" />
<circle cx="316" cy="373" r="4" fill="hsl(0, 80%, 65%)" />
<circle cx="400" cy="363" r="6" fill="hsl(9, 80%, 65%)" />
<circle cx="307" cy="391" r="8" fill="hsl(18, 80%, 65%)" />
<circle cx="276" cy="113" r="2" fill="hsl(27, 80%, 65%)" />
<circle cx="368" cy="255" r="8" fill="hsl(36, 80%, 65%)" />
<circle cx="194" cy="386" r="4" fill="hsl(45, 80%, 65%)" />
<circle cx="239" cy="383" r="5" fill="hsl(54, 80%, 65%)" />
<circle cx="257" cy="237" r="2" fill="hsl(63, 80%, 65%)" />
<circle cx="363" cy="202" r="6" fill="hsl(72, 80%, 65%)" />
<circle cx="252" cy="276" r="6" fill="hsl(81, 80%, 65%)" />
<circle cx="211" cy="218" r="2" fill="hsl(90, 80%, 65%)" />
<circle cx="120" cy="258" r="8" fill="hsl(99, 80%, 65%)" />
<circle cx="362" cy="350" r="7" fill="hsl(108, 80%, 65%)" />
<circle cx="370" cy="94" r="6" fill="hsl(117, 80%, 65%)" />
<circle cx="394" cy="90" r="8" fill="hsl(126, 80%, 65%)" />
<circle cx="247" cy="80" r="4" fill="hsl(135, 80%, 65%)" />
<circle cx="300" cy="263" r="6" fill="hsl(144, 80%, 65%)" />
<circle cx="430" cy="182" r="6" fill="hsl(153, 80%, 65%)" />
<circle cx="321" cy="87" r="4" fill="hsl(162, 80%, 65%)" />
<circle cx="170" cy="415" r="3" fill="hsl(171, 80%, 65%)" />
<circle cx="423" cy="189" r="8" fill="hsl(180, 80%, 65%)" />
<circle cx="271" cy="113" r="2" fill="hsl(189, 80%, 65%)" />
<circle cx="93" cy="348" r="5" fill="hsl(198, 80%, 65%)" />
<circle cx="382" cy="272" r="7" fill="hsl(207, 80%, 65%)" />
<circle cx="317" cy="286" r="4" fill="hsl(216, 80%, 65%)" />
<circle cx="321" cy="141" r="5" fill="hsl(225, 80%, 65%)" />
<circle cx="186" cy="190" r="4" fill="hsl(234, 80%, 65%)" />
<circle cx="349" cy="438" r="6" fill="hsl(243, 80%, 65%)" />
<circle cx="334" cy="408" r="3" fill="hsl(252, 80%, 65%)" />
<circle cx="89" cy="159" r="5" fill="hsl(261, 80%, 65%)" />
<circle cx="348" cy="419" r="5" fill="hsl(270, 80%, 65%)" />
<circle cx="332" cy="366" r="3" fill="hsl(279, 80%, 65%)" />
<circle cx="180" cy="309" r="2" fill="hsl(288, 80%, 65%)" />
<circle cx="423" cy="383" r="2" fill="hsl(297, 80%, 65%)" />
<circle cx="102" cy="275" r="5" fill="hsl(306, 80%, 65%)" />
<circle cx="434" cy="377" r="3" fill="hsl(315, 80%, 65%)" />
<circle cx="377" cy="174" r="2" fill="hsl(324, 80%, 65%)" />
<circle cx="246" cy="277" r="5" fill="hsl(333, 80%, 65%)" />
<circle cx="77" cy="123" r="5" fill="hsl(342, 80%, 65%)" />
<circle cx="195" cy="313" r="8" fill="hsl(351, 80%, 65%)" />
<circle cx="312" cy="438" r="3" fill="hsl(0, 80%, 65%)" />
<circle cx="221" cy="251" r="6" fill="hsl(9, 80%, 65%)" />
<circle cx="125" cy="416" r="5" fill="hsl(18, 80%, 65%)" />
<circle cx="336" cy="424" r="5" fill="hsl(27, 80%, 65%)" />
<circle cx="401" cy="75" r="2" fill="hsl(36, 80%, 65%)" />
<circle cx="345" cy="199" r="3" fill="hsl(45, 80%, 65%)" />
<circle cx="131" cy="299" r="2" fill="hsl(54, 80%, 65%)" />
<circle cx="194" cy="207" r="5" fill="hsl(63, 80%, 65%)" />
<circle cx="241" cy="307" r="7" fill="hsl(72, 80%, 65%)" />
<circle cx="125" cy="210" r="4" fill="hsl(81, 80%, 65%)" />
<circle cx="122" cy="298" r="3" fill="hsl(90, 80%, 65%)" />
<circle cx="180" cy="192" r="6" fill="hsl(99, 80%, 65%)" />
<circle cx="159" cy="165" r="2" fill="hsl(108, 80%, 65%)" />
<circle cx="81" cy="435" r="7" fill="hsl(117, 80%, 65%)" />
<circle cx="121" cy="91" r="3" fill="hsl(126, 80%, 65%)" />
<circle cx="213" cy="186" r="3" fill="hsl(135, 80%, 65%)" />
<circle cx="276" cy="198" r="8" fill="hsl(144, 80%, 65%)" />
<circle cx="132" cy="152" r="2" fill="hsl(153, 80%, 65%)" />
<circle cx="176" cy="167" r="8" fill="hsl(162, 80%, 65%)" />
<circle cx="128" cy="393" r="6" fill="hsl(171, 80%, 65%)" />
<line x1="271" y1="243" x2="323" y2="292" stroke="#223344" stroke-width="1"/>
<line x1="399" y1="292" x2="391" y2="316" stroke="#223344" stroke-width="1"/>
<line x1="355" y1="133" x2="343" y2="127" stroke="#223344" stroke-width="1"/>
<line x1="330" y1="132" x2="387" y2="119" stroke="#223344" stroke-width="1"/>
<line x1="449" y1="224" x2="372" y2="290" stroke="#223344" stroke-width="1"/>
<line x1="80" y1="133" x2="45" y2="145" stroke="#223344" stroke-width="1"/>
<line x1="256" y1="435" x2="197" y2="466" stroke="#223344" stroke-width="1"/>
<line x1="369" y1="319" x2="423" y2="325" stroke="#223344" stroke-width="1"/>
<line x1="386" y1="144" x2="448" y2="136" stroke="#223344" stroke-width="1"/>
<line x1="284" y1="82" x2="318" y2="2" stroke="#223344" stroke-width="1"/>
<line x1="400" y1="128" x2="455" y2="163" stroke="#223344" stroke-width="1"/>
<line x1="81" y1="280" x2="70" y2="276" stroke="#223344" stroke-width="1"/>
<line x1="343" y1="400" x2="355" y2="327" stroke="#223344" stroke-width="1"/>
<line x1="217" y1="148" x2="170" y2="91" stroke="#223344" stroke-width="1"/>
<line x1="189" y1="235" x2="142" y2="295" stroke="#223344" stroke-width="1"/>
<line x1="374" y1="153" x2="344" y2="230" stroke="#223344" stroke-width="1"/>
<line x1="230" y1="291" x2="280" y2="278" stroke="#223344" stroke-width="1"/>
<line x1="164" y1="285" x2="145" y2="263" stroke="#223344" stroke-width="1"/>
<line x1="153" y1="289" x2="191" y2="290" stroke="#223344" stroke-width="1"/>
<line x1="188" y1="300" x2="246" y2="352" stroke="#223344" stroke-width="1"/>
<line x1="338" y1="251" x2="286" y2="306" stroke="#223344" stroke-width="1"/>
<line x1="312" y1="415" x2="300" y2="448" stroke="#223344" stroke-width="1"/>
<line x1="174" y1="304" x2="224" y2="273" stroke="#223344" stroke-width="1"/>
<line x1="415" y1="349" x2="353" y2="293" stroke="#223344" stroke-width="1"/>
</svg>
