<svg xmlns="http://www.w3.org/2000/svg" width="512" height="512" viewBox="0 0 512 512">
<rect width="100%" height="100%" fill="#0b1020"/>
<circle cx="392" cy="127" r="45" fill="#f8f3c9" opacity="0.95" />
<circle cx="112.0" cy="170.0" r="2.4" fill="white" />
<circle cx="245.0" cy="168.0" r="2.5" fill="white" />
<circle cx="227.0" cy="71.0" r="2.3" fill="white" />
<circle cx="304.0" cy="92.0" r="2.3" fill="white" />
<circle cx="155.0" cy="172.0" r="3.0" fill="white" />
<circle cx="472.0" cy="159.0" r="1.8" fill="white" />
<circle cx="94.0" cy="160.0" r="2.3" fill="white" />
<circle cx="482.0" cy="130.0" r="1.6" fill="white" />
<circle cx="83.0" cy="166.0" r="2.9" fill="white" />
<circle cx="365.0" cy="73.0" r="2.4" fill="white" />
<circle cx="414.0" cy="124.0" r="1.8" fill="white" />
<circle cx="109.0" cy="72.0" r="3.3" fill="white" />
<path d="M 20 430 C 100 418, 187 450, 293 439 S 450 403, 512 433" stroke="#5dade2" stroke-width="8" fill="none" opacity="0.85" />
<line x1="0" y1="408" x2="512" y2="408" stroke="#445566" stroke-width="2" />
<polygon points="144,360 184,300 224,320 244,290 264,310 276,350 244,372 194,376" fill="#1e1e1e" />
<polygon points="219,300 232,278 242,302" fill="#1e1e1e" />
<line x1="274" y1="345" x2="304" y2="320" stroke="#1e1e1e" stroke-width="6" />
</svg>
