<svg xmlns="http://www.w3.org/2000/svg" width="512" height="512" viewBox="0 0 512 512">
<rect width="100%" height="100%" fill="#0b1020"/>
<circle cx="411" cy="64" r="54" fill="#f8f3c9" opacity="0.95" />
<circle cx="70.0" cy="67.0" r="1.8" fill="white" />
<circle cx="482.0" cy="155.0" r="3.0" fill="white" />
<circle cx="481.0" cy="143.0" r="2.6" fill="white" />
<circle cx="463.0" cy="79.0" r="1.6" fill="white" />
<circle cx="426.0" cy="23.0" r="1.6" fill="white" />
<circle cx="39.0" cy="99.0" r="2.0" fill="white" />
<path d="M 20 430 C 100 419, 198 450, 302 431 S 450 401, 512 431" stroke="#5dade2" stroke-width="7" fill="none" opacity="0.85" />
<line x1="0" y1="409" x2="512" y2="409" stroke="#445566" stroke-width="3" />
<polygon points="142,359 182,299 222,319 242,289 262,309 274,349 242,371 192,375" fill="#1e1e1e" />
<polygon points="217,299 230,277 240,301" fill="#1e1e1e" />
<line x1="272" y1="344" x2="302" y2="319" stroke="#1e1e1e" stroke-width="6" />
</svg>
