<svg xmlns="http://www.w3.org/2000/svg" width="512" height="512" viewBox="0 0 512 512">
<rect width="100%" height="100%" fill="#0b1020"/>
<circle cx="422" cy="81" r="47" fill="#f8f3c9" opacity="0.95" />
<circle cx="223.0" cy="68.0" r="3.3" fill="white" />
<circle cx="422.0" cy="29.0" r="2.9" fill="white" />
<circle cx="23.0" cy="161.0" r="1.7" fill="white" />
<circle cx="239.0" cy="146.0" r="2.1" fill="white" />
<circle cx="441.0" cy="85.0" r="2.9" fill="white" />
<circle cx="435.0" cy="40.0" r="1.6" fill="white" />
<circle cx="81.0" cy="82.0" r="2.2" fill="white" />
<circle cx="174.0" cy="62.0" r="1.6" fill="white" />
<circle cx="338.0" cy="155.0" r="1.6" fill="white" />
<path d="M 20 430 C 140 418, 168 446, 318 433 S 450 387, 512 417" stroke="#5dade2" stroke-width="5" fill="none" opacity="0.85" />
<line x1="0" y1="406" x2="512" y2="406" stroke="#445566" stroke-width="2" />
<polygon points="179,365 219,305 259,325 279,295 299,315 311,355 279,377 229,381" fill="#1e1e1e" />
<polygon points="254,305 267,283 277,307" fill="#1e1e1e" />
<line x1="309" y1="350" x2="339" y2="325" stroke="#1e1e1e" stroke-width="6" />
</svg>
