<svg xmlns="http://www.w3.org/2000/svg" width="512" height="512" viewBox="0 0 512 512">
<rect width="100%" height="100%" fill="#0b1020"/>
<circle cx="457" cy="138" r="42" fill="#f8f3c9" opacity="0.95" />
<circle cx="83.0" cy="144.0" r="1.8" fill="white" />
<circle cx="411.0" cy="171.0" r="2.3" fill="white" />
<circle cx="156.0" cy="122.0" r="2.8" fill="white" />
<circle cx="44.0" cy="138.0" r="2.9" fill="white" />
<circle cx="345.0" cy="148.0" r="2.6" fill="white" />
<circle cx="464.0" cy="84.0" r="2.7" fill="white" />
<circle cx="433.0" cy="115.0" r="2.6" fill="white" />
<path d="M 20 430 C 127 424, 168 447, 305 436 S 450 377, 512 407" stroke="#5dade2" stroke-width="7" fill="none" opacity="0.85" />
<line x1="0" y1="391" x2="512" y2="391" stroke="#445566" stroke-width="4" />
<polygon points="178,352 218,292 258,312 278,282 298,302 310,342 278,364 228,368" fill="#1e1e1e" />
<polygon points="253,292 266,270 276,294" fill="#1e1e1e" />
<line x1="308" y1="337" x2="338" y2="312" stroke="#1e1e1e" stroke-width="6" />
</svg>
