<svg xmlns="http://www.w3.org/2000/svg" width="512" height="512" viewBox="0 0 512 512">
<rect width="100%" height="100%" fill="#0b1020"/>
<circle cx="346" cy="112" r="55" fill="#f8f3c9" opacity="0.95" />
<circle cx="106.0" cy="179.0" r="2.8" fill="white" />
<circle cx="87.0" cy="54.0" r="2.1" fill="white" />
<circle cx="384.0" cy="105.0" r="1.9" fill="white" />
<circle cx="293.0" cy="25.0" r="1.6" fill="white" />
<circle cx="463.0" cy="82.0" r="1.9" fill="white" />
<circle cx="415.0" cy="94.0" r="2.2" fill="white" />
<circle cx="313.0" cy="103.0" r="2.7" fill="white" />
<circle cx="368.0" cy="167.0" r="1.8" fill="white" />
<circle cx="275.0" cy="89.0" r="1.6" fill="white" />
<path d="M 20 430 C 102 424, 188 441, 290 421 S 450 390, 512 420" stroke="#5dade2" stroke-width="7" fill="none" opacity="0.85" />
<line x1="0" y1="414" x2="512" y2="414" stroke="#445566" stroke-width="2" />
<polygon points="171,361 211,301 251,321 271,291 291,311 303,351 271,373 221,377" fill="#1e1e1e" />
<polygon points="246,301 259,279 269,303" fill="#1e1e1e" />
<line x1="301" y1="346" x2="331" y2="321" stroke="#1e1e1e" stroke-width="6" />
</svg>
