<svg xmlns="http://www.w3.org/2000/svg" width="512" height="512" viewBox="0 0 512 512">
<rect width="100%" height="100%" fill="#0b1020"/>
<circle cx="448" cy="76" r="43" fill="#f8f3c9" opacity="0.95" />
<circle cx="483.0" cy="42.0" r="2.8" fill="white" />
<circle cx="345.0" cy="28.0" r="2.4" fill="white" />
<circle cx="182.0" cy="76.0" r="3.0" fill="white" />
<circle cx="114.0" cy="160.0" r="1.8" fill="white" />
<circle cx="155.0" cy="22.0" r="3.3" fill="white" />
<circle cx="273.0" cy="123.0" r="2.6" fill="white" />
<circle cx="441.0" cy="54.0" r="3.4" fill="white" />
<circle cx="149.0" cy="98.0" r="3.5" fill="white" />
<circle cx="45.0" cy="27.0" r="3.3" fill="white" />
<circle cx="225.0" cy="35.0" r="2.5" fill="white" />
<path d="M 20 430 C 134 410, 168 451, 283 420 S 450 399, 512 429" stroke="#5dade2" stroke-width="6" fill="none" opacity="0.85" />
<line x1="0" y1="407" x2="512" y2="407" stroke="#445566" stroke-width="2" />
<polygon points="194,356 234,296 274,316 294,286 314,306 326,346 294,368 244,372" fill="#1e1e1e" />
<polygon points="269,296 282,274 292,298" fill="#1e1e1e" />
<line x1="324" y1="341" x2="354" y2="316" stroke="#1e1e1e" stroke-width="6" />
</svg>
