<svg xmlns="http://www.w3.org/2000/svg" width="512" height="512" viewBox="0 0 512 512">
<rect width="100%" height="100%" fill="#0b1020"/>
<circle cx="387" cy="91" r="40" fill="#f8f3c9" opacity="0.95" />
<circle cx="92.0" cy="43.0" r="2.3" fill="white" />
<circle cx="424.0" cy="85.0" r="3.3" fill="white" />
<circle cx="492.0" cy="136.0" r="2.9" fill="white" />
<circle cx="442.0" cy="106.0" r="1.8" fill="white" />
<circle cx="254.0" cy="171.0" r="3.4" fill="white" />
<path d="M 20 430 C 108 411, 168 442, 311 424 S 450 382, 512 412" stroke="#5dade2" stroke-width="8" fill="none" opacity="0.85" />
<line x1="0" y1="390" x2="512" y2="390" stroke="#445566" stroke-width="3" />
<polygon points="211,364 251,304 291,324 311,294 331,314 343,354 311,376 261,380" fill="#1e1e1e" />
<polygon points="286,304 299,282 309,306" fill="#1e1e1e" />
<line x1="341" y1="349" x2="371" y2="324" stroke="#1e1e1e" stroke-width="6" />
</svg>
