<svg xmlns="http://www.w3.org/2000/svg" width="512" height="512" viewBox="0 0 512 512">
<rect width="100%" height="100%" fill="#0b1020"/>
<circle cx="446" cy="77" r="45" fill="#f8f3c9" opacity="0.95" />
<circle cx="151.0" cy="65.0" r="3.3" fill="white" />
<circle cx="246.0" cy="122.0" r="2.8" fill="white" />
<circle cx="404.0" cy="160.0" r="2.0" fill="white" />
<circle cx="279.0" cy="75.0" r="2.9" fill="white" />
<circle cx="255.0" cy="53.0" r="3.3" fill="white" />
<circle cx="39.0" cy="43.0" r="2.1" fill="white" />
<circle cx="279.0" cy="30.0" r="1.7" fill="white" />
<circle cx="248.0" cy="72.0" r="2.7" fill="white" />
<circle cx="98.0" cy="126.0" r="2.5" fill="white" />
<circle cx="31.0" cy="97.0" r="2.5" fill="white" />
<path d="M 20 430 C 138 419, 200 444, 314 429 S 450 398, 512 428" stroke="#5dade2" stroke-width="5" fill="none" opacity="0.85" />
<line x1="0" y1="385" x2="512" y2="385" stroke="#445566" stroke-width="4" />
<polygon points="205,357 245,297 285,317 305,287 325,307 337,347 305,369 255,373" fill="#1e1e1e" />
<polygon points="280,297 293,275 303,299" fill="#1e1e1e" />
<line x1="335" y1="342" x2="365" y2="317" stroke="#1e1e1e" stroke-width="6" />
</svg>
