<svg xmlns="http://www.w3.org/2000/svg" width="512" height="512" viewBox="0 0 512 512">
<rect width="100%" height="100%" fill="#0b1020"/>
<circle cx="453" cy="128" r="50" fill="#f8f3c9" opacity="0.95" />
<circle cx="225.0" cy="111.0" r="1.6" fill="white" />
<circle cx="221.0" cy="114.0" r="2.8" fill="white" />
<circle cx="73.0" cy="129.0" r="2.8" fill="white" />
<circle cx="415.0" cy="168.0" r="3.4" fill="white" />
<circle cx="324.0" cy="78.0" r="3.5" fill="white" />
<circle cx="48.0" cy="152.0" r="1.6" fill="white" />
<circle cx="278.0" cy="69.0" r="2.4" fill="white" />
<circle cx="235.0" cy="131.0" r="2.4" fill="white" />
<circle cx="279.0" cy="147.0" r="2.8" fill="white" />
<path d="M 20 430 C 105 419, 163 444, 308 436 S 450 404, 512 434" stroke="#5dade2" stroke-width="6" fill="none" opacity="0.85" />
<line x1="0" y1="400" x2="512" y2="400" stroke="#445566" stroke-width="3" />
<polygon points="186,355 226,295 266,315 286,285 306,305 318,345 286,367 236,371" fill="#1e1e1e" />
<polygon points="261,295 274,273 284,297" fill="#1e1e1e" />
<line x1="316" y1="340" x2="346" y2="315" stroke="#1e1e1e" stroke-width="6" />
</svg>
