<svg xmlns="http://www.w3.org/2000/svg" width="512" height="512" viewBox="0 0 512 512">
<rect width="100%" height="100%" fill="black"/>
<circle cx="256.00" cy="256.00" r="2" fill="hsl(0, 80%, 65%)" />
<circle cx="250.30" cy="261.22" r="3" fill="hsl(8, 80%, 65%)" />
<circle cx="256.96" cy="245.12" r="4" fill="hsl(16, 80%, 65%)" />
<circle cx="264.14" cy="266.62" r="5" fill="hsl(24, 80%, 65%)" />
<circle cx="240.78" cy="253.31" r="6" fill="hsl(32, 80%, 65%)" />
<circle cx="270.58" cy="246.73" r="2" fill="hsl(40, 80%, 65%)" />
<circle cx="251.09" cy="274.28" r="3" fill="hsl(48, 80%, 65%)" />
<circle cx="246.58" cy="237.86" r="4" fill="hsl(56, 80%, 65%)" />
<circle cx="276.53" cy="263.50" r="5" fill="hsl(64, 80%, 65%)" />
<circle cx="234.58" cy="264.84" r="6" fill="hsl(72, 80%, 65%)" />
<circle cx="266.35" cy="233.87" r="2" fill="hsl(80, 80%, 65%)" />
<circle cx="263.67" cy="280.45" r="3" fill="hsl(88, 80%, 65%)" />
<circle cx="232.84" cy="242.58" r="4" fill="hsl(96, 80%, 65%)" />
<circle cx="283.21" cy="250.02" r="5" fill="hsl(104, 80%, 65%)" />
<circle cx="239.37" cy="279.65" r="6" fill="hsl(112, 80%, 65%)" />
<circle cx="252.15" cy="226.33" r="2" fill="hsl(120, 80%, 65%)" />
<circle cx="279.63" cy="275.92" r="3" fill="hsl(128, 80%, 65%)" />
<circle cx="224.17" cy="257.32" r="4" fill="hsl(136, 80%, 65%)" />
<circle cx="279.23" cy="232.88" r="5" fill="hsl(144, 80%, 65%)" />
<circle cx="254.44" cy="289.64" r="6" fill="hsl(152, 80%, 65%)" />
<circle cx="233.86" cy="229.47" r="2" fill="hsl(160, 80%, 65%)" />
<circle cx="291.09" cy="260.72" r="3" fill="hsl(168, 80%, 65%)" />
<circle cx="226.25" cy="276.70" r="4" fill="hsl(176, 80%, 65%)" />
<circle cx="264.13" cy="219.85" r="5" fill="hsl(184, 80%, 65%)" />
<circle cx="274.82" cy="288.84" r="6" fill="hsl(192, 80%, 65%)" />
<circle cx="219.20" cy="244.26" r="2" fill="hsl(200, 80%, 65%)" />
<circle cx="291.76" cy="239.48" r="3" fill="hsl(208, 80%, 65%)" />
<circle cx="240.50" cy="293.03" r="4" fill="hsl(216, 80%, 65%)" />
<circle cx="242.16" cy="217.53" r="5" fill="hsl(224, 80%, 65%)" />
<circle cx="292.83" cy="275.36" r="6" fill="hsl(232, 80%, 65%)" />
<circle cx="215.08" cy="266.79" r="2" fill="hsl(240, 80%, 65%)" />
<circle cx="279.26" cy="219.82" r="3" fill="hsl(248, 80%, 65%)" />
<circle cx="263.40" cy="299.07" r="4" fill="hsl(256, 80%, 65%)" />
<circle cx="220.91" cy="228.83" r="5" fill="hsl(264, 80%, 65%)" />
<circle cx="300.89" cy="252.28" r="6" fill="hsl(272, 80%, 65%)" />
<circle cx="224.96" cy="289.55" r="2" fill="hsl(280, 80%, 65%)" />
<circle cx="256.23" cy="209.65" r="3" fill="hsl(288, 80%, 65%)" />
<circle cx="287.57" cy="290.81" r="4" fill="hsl(296, 80%, 65%)" />
<circle cx="208.58" cy="251.60" r="5" fill="hsl(304, 80%, 65%)" />
<circle cx="294.43" cy="226.83" r="6" fill="hsl(312, 80%, 65%)" />
<circle cx="247.25" cy="304.07" r="2" fill="hsl(320, 80%, 65%)" />
<circle cx="229.65" cy="214.13" r="3" fill="hsl(328, 80%, 65%)" />
<circle cx="304.29" cy="269.23" r="4" fill="hsl(336, 80%, 65%)" />
<circle cx="210.93" cy="279.13" r="5" fill="hsl(344, 80%, 65%)" />
<circle cx="273.81" cy="207.95" r="6" fill="hsl(352, 80%, 65%)" />
<circle cx="275.54" cy="304.00" r="2" fill="hsl(0, 80%, 65%)" />
<circle cx="208.65" cy="233.56" r="3" fill="hsl(8, 80%, 65%)" />
<circle cx="306.61" cy="240.40" r="4" fill="hsl(16, 80%, 65%)" />
<circle cx="228.94" cy="302.18" r="5" fill="hsl(24, 80%, 65%)" />
<circle cx="244.65" cy="203.13" r="6" fill="hsl(32, 80%, 65%)" />
<circle cx="300.54" cy="287.64" r="2" fill="hsl(40, 80%, 65%)" />
<circle cx="201.25" cy="262.82" r="3" fill="hsl(48, 80%, 65%)" />
<circle cx="292.11" cy="213.58" r="4" fill="hsl(56, 80%, 65%)" />
<circle cx="258.05" cy="312.21" r="5" fill="hsl(64, 80%, 65%)" />
<circle cx="216.15" cy="215.56" r="6" fill="hsl(72, 80%, 65%)" />
<circle cx="313.22" cy="258.93" r="2" fill="hsl(80, 80%, 65%)" />
<circle cx="211.43" cy="292.83" r="3" fill="hsl(88, 80%, 65%)" />
<circle cx="264.06" cy="198.23" r="4" fill="hsl(96, 80%, 65%)" />
<circle cx="289.37" cy="304.46" r="5" fill="hsl(104, 80%, 65%)" />
<circle cx="198.17" cy="242.69" r="6" fill="hsl(112, 80%, 65%)" />
<circle cx="308.07" cy="226.50" r="2" fill="hsl(120, 80%, 65%)" />
<circle cx="237.38" cy="313.40" r="3" fill="hsl(128, 80%, 65%)" />
<circle cx="230.76" cy="200.65" r="4" fill="hsl(136, 80%, 65%)" />
<circle cx="312.45" cy="279.95" r="5" fill="hsl(144, 80%, 65%)" />
<circle cx="197.74" cy="276.63" r="6" fill="hsl(152, 80%, 65%)" />
<circle cx="285.25" cy="201.01" r="2" fill="hsl(160, 80%, 65%)" />
<circle cx="271.70" cy="316.77" r="3" fill="hsl(168, 80%, 65%)" />
<circle cx="202.98" cy="221.54" r="4" fill="hsl(176, 80%, 65%)" />
<circle cx="318.84" cy="245.52" r="5" fill="hsl(184, 80%, 65%)" />
<circle cx="216.46" cy="306.55" r="6" fill="hsl(192, 80%, 65%)" />
<circle cx="250.98" cy="191.56" r="2" fill="hsl(200, 80%, 65%)" />
<circle cx="303.57" cy="300.44" r="3" fill="hsl(208, 80%, 65%)" />
<circle cx="190.45" cy="255.36" r="4" fill="hsl(216, 80%, 65%)" />
<circle cx="305.11" cy="211.89" r="5" fill="hsl(224, 80%, 65%)" />
<circle cx="249.54" cy="322.14" r="6" fill="hsl(232, 80%, 65%)" />
<circle cx="215.81" cy="202.51" r="2" fill="hsl(240, 80%, 65%)" />
<circle cx="322.20" cy="268.38" r="3" fill="hsl(248, 80%, 65%)" />
<circle cx="198.45" cy="291.83" r="4" fill="hsl(256, 80%, 65%)" />
<circle cx="274.36" cy="190.28" r="5" fill="hsl(264, 80%, 65%)" />
<circle cx="287.05" cy="317.24" r="6" fill="hsl(272, 80%, 65%)" />
<circle cx="191.33" cy="231.66" r="2" fill="hsl(280, 80%, 65%)" />
<circle cx="320.53" cy="230.10" r="3" fill="hsl(288, 80%, 65%)" />
<circle cx="225.73" cy="319.07" r="4" fill="hsl(296, 80%, 65%)" />
<circle cx="235.59" cy="188.64" r="5" fill="hsl(304, 80%, 65%)" />
<circle cx="316.91" cy="292.10" r="6" fill="hsl(312, 80%, 65%)" />
<circle cx="186.29" cy="270.61" r="2" fill="hsl(320, 80%, 65%)" />
<circle cx="297.78" cy="197.79" r="3" fill="hsl(328, 80%, 65%)" />
<circle cx="264.56" cy="327.55" r="4" fill="hsl(336, 80%, 65%)" />
<circle cx="201.04" cy="208.76" r="5" fill="hsl(344, 80%, 65%)" />
<circle cx="328.85" cy="253.70" r="6" fill="hsl(352, 80%, 65%)" />
<circle cx="203.55" cy="307.19" r="2" fill="hsl(0, 80%, 65%)" />
<circle cx="260.12" cy="182.42" r="3" fill="hsl(8, 80%, 65%)" />
<circle cx="302.92" cy="313.36" r="4" fill="hsl(16, 80%, 65%)" />
<circle cx="182.26" cy="245.35" r="5" fill="hsl(24, 80%, 65%)" />
<circle cx="317.90" cy="213.82" r="6" fill="hsl(32, 80%, 65%)" />
<circle cx="238.76" cy="329.30" r="2" fill="hsl(40, 80%, 65%)" />
<circle cx="219.01" cy="189.96" r="3" fill="hsl(48, 80%, 65%)" />
<circle cx="328.26" cy="279.83" r="4" fill="hsl(56, 80%, 65%)" />
<circle cx="186.26" cy="287.40" r="5" fill="hsl(64, 80%, 65%)" />
<circle cx="286.37" cy="185.38" r="6" fill="hsl(72, 80%, 65%)" />
<circle cx="281.44" cy="328.95" r="2" fill="hsl(80, 80%, 65%)" />
<circle cx="187.63" cy="219.21" r="3" fill="hsl(88, 80%, 65%)" />
<circle cx="331.64" cy="236.85" r="4" fill="hsl(96, 80%, 65%)" />
<circle cx="212.95" cy="321.53" r="5" fill="hsl(104, 80%, 65%)" />
<circle cx="243.41" cy="178.22" r="6" fill="hsl(112, 80%, 65%)" />
<circle cx="318.11" cy="305.08" r="2" fill="hsl(120, 80%, 65%)" />
<circle cx="176.67" cy="261.79" r="3" fill="hsl(128, 80%, 65%)" />
<circle cx="310.84" cy="197.87" r="4" fill="hsl(136, 80%, 65%)" />
<circle cx="254.83" cy="336.28" r="5" fill="hsl(144, 80%, 65%)" />
<circle cx="202.39" cy="195.73" r="6" fill="hsl(152, 80%, 65%)" />
<circle cx="336.61" cy="264.26" r="2" fill="hsl(160, 80%, 65%)" />
<circle cx="190.69" cy="304.57" r="3" fill="hsl(168, 80%, 65%)" />
<circle cx="271.42" cy="175.71" r="4" fill="hsl(176, 80%, 65%)" />
<circle cx="299.06" cy="325.93" r="5" fill="hsl(184, 80%, 65%)" />
<circle cx="176.66" cy="233.42" r="6" fill="hsl(192, 80%, 65%)" />
<circle cx="330.08" cy="218.89" r="2" fill="hsl(200, 80%, 65%)" />
<circle cx="226.32" cy="333.73" r="3" fill="hsl(208, 80%, 65%)" />
<circle cx="225.25" cy="178.30" r="4" fill="hsl(216, 80%, 65%)" />
<circle cx="331.48" cy="292.68" r="5" fill="hsl(224, 80%, 65%)" />
<circle cx="175.22" cy="280.04" r="6" fill="hsl(232, 80%, 65%)" />
<circle cx="299.50" cy="183.41" r="2" fill="hsl(240, 80%, 65%)" />
<circle cx="273.03" cy="339.26" r="3" fill="hsl(248, 80%, 65%)" />
<circle cx="186.92" cy="205.91" r="4" fill="hsl(256, 80%, 65%)" />
<circle cx="341.12" cy="246.23" r="5" fill="hsl(264, 80%, 65%)" />
<circle cx="199.60" cy="320.96" r="6" fill="hsl(272, 80%, 65%)" />
<circle cx="253.69" cy="169.65" r="2" fill="hsl(280, 80%, 65%)" />
<circle cx="316.27" cy="318.36" r="3" fill="hsl(288, 80%, 65%)" />
<circle cx="169.10" cy="250.71" r="4" fill="hsl(296, 80%, 65%)" />
<circle cx="323.92" cy="200.99" r="5" fill="hsl(304, 80%, 65%)" />
<circle cx="243.03" cy="342.78" r="6" fill="hsl(312, 80%, 65%)" />
<circle cx="206.75" cy="182.96" r="2" fill="hsl(320, 80%, 65%)" />
<circle cx="341.98" cy="276.67" r="3" fill="hsl(328, 80%, 65%)" />
<circle cx="178.35" cy="299.00" r="4" fill="hsl(336, 80%, 65%)" />
<circle cx="284.32" cy="171.52" r="5" fill="hsl(344, 80%, 65%)" />
<circle cx="292.32" cy="337.73" r="6" fill="hsl(352, 80%, 65%)" />
<circle cx="173.71" cy="220.14" r="2" fill="hsl(0, 80%, 65%)" />
<circle cx="341.22" cy="226.75" r="3" fill="hsl(8, 80%, 65%)" />
<circle cx="212.76" cy="335.42" r="4" fill="hsl(16, 80%, 65%)" />
<circle cx="234.15" cy="167.91" r="5" fill="hsl(24, 80%, 65%)" />
<circle cx="331.88" cy="306.38" r="6" fill="hsl(32, 80%, 65%)" />
<circle cx="165.69" cy="270.16" r="2" fill="hsl(40, 80%, 65%)" />
<circle cx="313.23" cy="184.30" r="3" fill="hsl(48, 80%, 65%)" />
<circle cx="262.26" cy="347.85" r="4" fill="hsl(56, 80%, 65%)" />
<circle cx="189.11" cy="192.28" r="5" fill="hsl(64, 80%, 65%)" />
<circle cx="348.69" cy="257.81" r="6" fill="hsl(72, 80%, 65%)" />
<circle cx="186.19" cy="317.49" r="2" fill="hsl(80, 80%, 65%)" />
<circle cx="265.97" cy="163.18" r="3" fill="hsl(88, 80%, 65%)" />
<circle cx="311.53" cy="331.43" r="4" fill="hsl(96, 80%, 65%)" />
<circle cx="163.79" cy="237.83" r="5" fill="hsl(104, 80%, 65%)" />
<circle cx="336.54" cy="206.95" r="6" fill="hsl(112, 80%, 65%)" />
<circle cx="229.66" cy="346.88" r="2" fill="hsl(120, 80%, 65%)" />
<circle cx="213.90" cy="170.91" r="3" fill="hsl(128, 80%, 65%)" />
<circle cx="344.82" cy="290.41" r="4" fill="hsl(136, 80%, 65%)" />
<circle cx="166.97" cy="290.73" r="5" fill="hsl(144, 80%, 65%)" />
<circle cx="298.32" cy="169.97" r="6" fill="hsl(152, 80%, 65%)" />
<circle cx="282.99" cy="348.32" r="2" fill="hsl(160, 80%, 65%)" />
<circle cx="173.47" cy="206.00" r="3" fill="hsl(168, 80%, 65%)" />
<circle cx="350.93" cy="237.06" r="4" fill="hsl(176, 80%, 65%)" />
<circle cx="198.61" cy="334.34" r="5" fill="hsl(184, 80%, 65%)" />
<circle cx="245.37" cy="159.16" r="6" fill="hsl(192, 80%, 65%)" />
<circle cx="329.48" cy="320.42" r="2" fill="hsl(200, 80%, 65%)" />
<circle cx="157.99" cy="258.14" r="3" fill="hsl(208, 80%, 65%)" />
<circle cx="327.04" cy="188.01" r="4" fill="hsl(216, 80%, 65%)" />
<circle cx="249.52" cy="354.42" r="5" fill="hsl(224, 80%, 65%)" />
<circle cx="194.10" cy="178.81" r="6" fill="hsl(232, 80%, 65%)" />
<circle cx="354.08" cy="271.15" r="2" fill="hsl(240, 80%, 65%)" />
<circle cx="173.20" cy="311.24" r="3" fill="hsl(248, 80%, 65%)" />
<circle cx="279.81" cy="159.04" r="4" fill="hsl(256, 80%, 65%)" />
<circle cx="304.08" cy="343.84" r="5" fill="hsl(264, 80%, 65%)" />
<circle cx="160.93" cy="223.61" r="6" fill="hsl(272, 80%, 65%)" />
<circle cx="348.25" cy="215.54" r="2" fill="hsl(280, 80%, 65%)" />
<circle cx="215.19" cy="348.42" r="3" fill="hsl(288, 80%, 65%)" />
<circle cx="223.57" cy="160.01" r="4" fill="hsl(296, 80%, 65%)" />
<circle cx="345.01" cy="305.02" r="5" fill="hsl(304, 80%, 65%)" />
<circle cx="156.97" cy="280.05" r="6" fill="hsl(312, 80%, 65%)" />
<circle cx="312.94" cy="171.13" r="2" fill="hsl(320, 80%, 65%)" />
<circle cx="271.39" cy="357.33" r="3" fill="hsl(328, 80%, 65%)" />
<circle cx="175.98" cy="191.49" r="4" fill="hsl(336, 80%, 65%)" />
<circle cx="358.87" cy="249.50" r="5" fill="hsl(344, 80%, 65%)" />
<circle cx="184.34" cy="330.49" r="6" fill="hsl(352, 80%, 65%)" />
<circle cx="258.53" cy="152.38" r="2" fill="hsl(0, 80%, 65%)" />
<circle cx="324.32" cy="334.33" r="3" fill="hsl(8, 80%, 65%)" />
<circle cx="152.43" cy="244.36" r="4" fill="hsl(16, 80%, 65%)" />
<circle cx="340.47" cy="194.45" r="5" fill="hsl(24, 80%, 65%)" />
<circle cx="235.23" cy="358.72" r="6" fill="hsl(32, 80%, 65%)" />
<circle cx="201.78" cy="165.99" r="2" fill="hsl(40, 80%, 65%)" />
<circle cx="357.06" cy="285.83" r="3" fill="hsl(48, 80%, 65%)" />
<circle cx="161.08" cy="302.39" r="4" fill="hsl(56, 80%, 65%)" />
<circle cx="294.75" cy="157.41" r="5" fill="hsl(64, 80%, 65%)" />
<circle cx="294.12" cy="355.14" r="6" fill="hsl(72, 80%, 65%)" />
<circle cx="160.68" cy="208.52" r="2" fill="hsl(80, 80%, 65%)" />
<circle cx="358.63" cy="226.54" r="3" fill="hsl(88, 80%, 65%)" />
<circle cx="200.08" cy="347.28" r="4" fill="hsl(96, 80%, 65%)" />
<circle cx="235.52" cy="150.64" r="5" fill="hsl(104, 80%, 65%)" />
<circle cx="342.49" cy="320.02" r="6" fill="hsl(112, 80%, 65%)" />
<circle cx="148.70" cy="267.25" r="2" fill="hsl(120, 80%, 65%)" />
<circle cx="327.70" cy="175.02" r="3" fill="hsl(128, 80%, 65%)" />
<circle cx="257.84" cy="364.42" r="4" fill="hsl(136, 80%, 65%)" />
<circle cx="181.22" cy="177.10" r="5" fill="hsl(144, 80%, 65%)" />
<circle cx="364.71" cy="263.69" r="6" fill="hsl(152, 80%, 65%)" />
<circle cx="170.43" cy="323.94" r="2" fill="hsl(160, 80%, 65%)" />
<circle cx="273.25" cy="147.84" r="3" fill="hsl(168, 80%, 65%)" />
<circle cx="316.50" cy="347.64" r="4" fill="hsl(176, 80%, 65%)" />
<circle cx="149.23" cy="229.23" r="5" fill="hsl(184, 80%, 65%)" />
<circle cx="353.05" cy="203.49" r="6" fill="hsl(192, 80%, 65%)" />
<circle cx="219.82" cy="360.53" r="2" fill="hsl(200, 80%, 65%)" />
<circle cx="211.96" cy="154.24" r="3" fill="hsl(208, 80%, 65%)" />
<circle cx="357.46" cy="301.40" r="4" fill="hsl(216, 80%, 65%)" />
<circle cx="150.27" cy="291.14" r="5" fill="hsl(224, 80%, 65%)" />
<circle cx="310.36" cy="158.43" r="6" fill="hsl(232, 80%, 65%)" />
<circle cx="281.89" cy="364.92" r="2" fill="hsl(240, 80%, 65%)" />
<circle cx="163.11" cy="193.02" r="3" fill="hsl(248, 80%, 65%)" />
<circle cx="367.29" cy="239.66" r="4" fill="hsl(256, 80%, 65%)" />
<circle cx="184.81" cy="343.44" r="5" fill="hsl(264, 80%, 65%)" />
<circle cx="249.42" cy="143.17" r="6" fill="hsl(272, 80%, 65%)" />
<circle cx="337.25" cy="334.93" r="2" fill="hsl(280, 80%, 65%)" />
<circle cx="142.50" cy="252.68" r="3" fill="hsl(288, 80%, 65%)" />
<circle cx="342.13" cy="181.61" r="4" fill="hsl(296, 80%, 65%)" />
<circle cx="242.71" cy="369.29" r="5" fill="hsl(304, 80%, 65%)" />
<circle cx="189.12" cy="163.27" r="6" fill="hsl(312, 80%, 65%)" />
</svg>
