<svg xmlns="http://www.w3.org/2000/svg" width="512" height="512" viewBox="0 0 512 512">
<rect width="100%" height="100%" fill="#0b1020"/>
<circle cx="381" cy="76" r="51" fill="#f8f3c9" opacity="0.95" />
<circle cx="46.0" cy="54.0" r="2.8" fill="white" />
<circle cx="476.0" cy="46.0" r="2.3" fill="white" />
<circle cx="488.0" cy="86.0" r="2.0" fill="white" />
<circle cx="397.0" cy="75.0" r="2.6" fill="white" />
<circle cx="153.0" cy="166.0" r="1.5" fill="white" />
<circle cx="220.0" cy="119.0" r="1.9" fill="white" />
<circle cx="416.0" cy="84.0" r="2.3" fill="white" />
<circle cx="469.0" cy="24.0" r="3.1" fill="white" />
<circle cx="124.0" cy="131.0" r="2.7" fill="white" />
<circle cx="199.0" cy="71.0" r="3.2" fill="white" />
<path d="M 20 430 C 120 427, 192 459, 291 425 S 450 379, 512 409" stroke="#5dade2" stroke-width="5" fill="none" opacity="0.85" />
<line x1="0" y1="400" x2="512" y2="400" stroke="#445566" stroke-width="3" />
<polygon points="196,361 236,301 276,321 296,291 316,311 328,351 296,373 246,377" fill="#1e1e1e" />
<polygon points="271,301 284,279 294,303" fill="#1e1e1e" />
<line x1="326" y1="346" x2="356" y2="321" stroke="#1e1e1e" stroke-width="6" />
</svg>
