<svg xmlns="http://www.w3.org/2000/svg" width="512" height="512" viewBox="0 0 512 512">
<rect width="100%" height="100%" fill="black"/>
<polyline points="0.00,256.00 4.00,259.73 8.00,263.43 12.00,267.06 16.00,270.60 20.00,274.00 24.00,277.24 28.00,280.28 32.00,283.11 36.00,285.70 40.00,288.01 44.00,290.04 48.00,291.76 52.00,293.16 56.00,294.23 60.00,294.95 64.00,295.32 68.00,295.33 72.00,294.99 76.00,294.30 80.00,293.27 84.00,291.89 88.00,290.20 92.00,288.20 96.00,285.90 100.00,283.34 104.00,280.53 108.00,277.50 112.00,274.28 116.00,270.89 120.00,267.36 124.00,263.74 128.00,260.04 132.00,256.31 136.00,252.58 140.00,248.87 144.00,245.24 148.00,241.69 152.00,238.28 156.00,235.03 160.00,231.96 164.00,229.11 168.00,226.51 172.00,224.17 176.00,222.12 180.00,220.37 184.00,218.94 188.00,217.85 192.00,217.10 196.00,216.70 200.00,216.66 204.00,216.97 208.00,217.63 212.00,218.63 216.00,219.98 220.00,221.65 224.00,223.63 228.00,225.90 232.00,228.44 236.00,231.23 240.00,234.24 244.00,237.45 248.00,240.83 252.00,244.34 256.00,247.96 260.00,251.65 264.00,255.38 268.00,259.11 272.00,262.82 276.00,266.46 280.00,270.02 284.00,273.44 288.00,276.71 292.00,279.79 296.00,282.66 300.00,285.28 304.00,287.65 308.00,289.72 312.00,291.50 316.00,292.95 320.00,294.07 324.00,294.85 328.00,295.28 332.00,295.35 336.00,295.07 340.00,294.44 344.00,293.46 348.00,292.15 352.00,290.50 356.00,288.55 360.00,286.30 364.00,283.78 368.00,281.01 372.00,278.02 376.00,274.83 380.00,271.46 384.00,267.96 388.00,264.35 392.00,260.66 396.00,256.94 400.00,253.20 404.00,249.49 408.00,245.84 412.00,242.28 416.00,238.84 420.00,235.56 424.00,232.46 428.00,229.57 432.00,226.93 436.00,224.54 440.00,222.44 444.00,220.64 448.00,219.16 452.00,218.01 456.00,217.20 460.00,216.74 464.00,216.64 468.00,216.89 472.00,217.49 476.00,218.44 480.00,219.73 484.00,221.35 488.00,223.28 492.00,225.50 496.00,228.00 500.00,230.75 504.00,233.72 508.00,236.90 512.00,240.25" fill="none" stroke="#66ccff" stroke-width="2"/>
<polyline points="0.00,297.69 4.00,298.90 8.00,299.81 12.00,300.41 16.00,300.70 20.00,300.67 24.00,300.33 28.00,299.67 32.00,298.71 36.00,297.44 40.00,295.88 44.00,294.04 48.00,291.94 52.00,289.57 56.00,286.97 60.00,284.16 64.00,281.14 68.00,277.95 72.00,274.60 76.00,271.12 80.00,267.53 84.00,263.86 88.00,260.14 92.00,256.39 96.00,252.63 100.00,248.90 104.00,245.22 108.00,241.61 112.00,238.11 116.00,234.73 120.00,231.50 124.00,228.45 128.00,225.59 132.00,222.94 136.00,220.53 140.00,218.37 144.00,216.47 148.00,214.85 152.00,213.53 156.00,212.50 160.00,211.78 164.00,211.37 168.00,211.28 172.00,211.50 176.00,212.04 180.00,212.89 184.00,214.04 188.00,215.49 192.00,217.22 196.00,219.23 200.00,221.50 204.00,224.01 208.00,226.75 212.00,229.69 216.00,232.82 220.00,236.11 224.00,239.54 228.00,243.09 232.00,246.73 236.00,250.44 240.00,254.18 244.00,257.94 248.00,261.68 252.00,265.39 256.00,269.03 260.00,272.57 264.00,276.00 268.00,279.29 272.00,282.41 276.00,285.35 280.00,288.08 284.00,290.58 288.00,292.84 292.00,294.84 296.00,296.56 300.00,298.00 304.00,299.14 308.00,299.98 312.00,300.51 316.00,300.72 320.00,300.62 324.00,300.20 328.00,299.47 332.00,298.43 336.00,297.10 340.00,295.47 344.00,293.57 348.00,291.40 352.00,288.98 356.00,286.32 360.00,283.46 364.00,280.40 368.00,277.16 372.00,273.78 376.00,270.27 380.00,266.66 384.00,262.98 388.00,259.25 392.00,255.49 396.00,251.74 400.00,248.02 404.00,244.35 408.00,240.77 412.00,237.29 416.00,233.95 420.00,230.76 424.00,227.75 428.00,224.94 432.00,222.34 436.00,219.99 440.00,217.89 444.00,216.06 448.00,214.51 452.00,213.26 456.00,212.30 460.00,211.66 464.00,211.32 468.00,211.31 472.00,211.60 476.00,212.21 480.00,213.14 484.00,214.36 488.00,215.88 492.00,217.68 496.00,219.75 500.00,222.07 504.00,224.64 508.00,227.43 512.00,230.42" fill="none" stroke="#ff66cc" stroke-width="2"/>
<polyline points="0.00,302.78 4.00,295.01 8.00,286.45 12.00,277.27 16.00,267.65 20.00,257.79 24.00,247.90 28.00,238.17 32.00,228.80 36.00,219.99 40.00,211.92 44.00,204.75 48.00,198.63 52.00,193.69 56.00,190.01 60.00,187.69 64.00,186.76 68.00,187.25 72.00,189.15 76.00,192.42 80.00,196.98 84.00,202.75 88.00,209.62 92.00,217.43 96.00,226.03 100.00,235.24 104.00,244.88 108.00,254.74 112.00,264.63 116.00,274.35 120.00,283.69 124.00,292.46 128.00,300.48 132.00,307.60 136.00,313.66 140.00,318.54 144.00,322.15 148.00,324.40 152.00,325.25 156.00,324.68 160.00,322.71 164.00,319.37 168.00,314.74 172.00,308.91 176.00,301.99 180.00,294.13 184.00,285.49 188.00,276.25 192.00,266.60 196.00,256.73 200.00,246.84 204.00,237.14 208.00,227.83 212.00,219.09 216.00,211.11 220.00,204.05 224.00,198.04 228.00,193.23 232.00,189.70 236.00,187.52 240.00,186.75 244.00,187.39 248.00,189.44 252.00,192.84 256.00,197.54 260.00,203.44 264.00,210.41 268.00,218.31 272.00,226.99 276.00,236.25 280.00,245.93 284.00,255.80 288.00,265.68 292.00,275.37 296.00,284.66 300.00,293.36 304.00,301.29 308.00,308.30 312.00,314.24 316.00,318.99 320.00,322.45 324.00,324.55 328.00,325.25 332.00,324.53 336.00,322.41 340.00,318.94 344.00,314.17 348.00,308.21 352.00,301.19 356.00,293.24 360.00,284.53 364.00,275.24 368.00,265.55 372.00,255.67 376.00,245.79 380.00,236.12 384.00,226.86 388.00,218.20 392.00,210.31 396.00,203.35 400.00,197.47 404.00,192.79 408.00,189.40 412.00,187.37 416.00,186.75 420.00,187.54 424.00,189.74 428.00,193.29 432.00,198.12 436.00,204.14 440.00,211.21 444.00,219.21 448.00,227.95 452.00,237.27 456.00,246.98 460.00,256.87 464.00,266.74 468.00,276.39 472.00,285.62 476.00,294.25 480.00,302.09 484.00,308.99 488.00,314.81 492.00,319.43 496.00,322.74 500.00,324.70 504.00,325.24 508.00,324.37 512.00,322.11" fill="none" stroke="#ffee66" stroke-width="2"/>
<line x1="0" y1="256" x2="512" y2="256" stroke="#223344" stroke-width="1"/>
</svg>
