<svg xmlns="http://www.w3.org/2000/svg" width="512" height="512" viewBox="0 0 512 512">
<rect width="100%" height="100%" fill="#0b1020"/>
<circle cx="391" cy="130" r="54" fill="#f8f3c9" opacity="0.95" />
<circle cx="186.0" cy="143.0" r="2.6" fill="white" />
<circle cx="147.0" cy="48.0" r="2.4" fill="white" />
<circle cx="150.0" cy="78.0" r="3.4" fill="white" />
<circle cx="324.0" cy="98.0" r="3.2" fill="white" />
<circle cx="399.0" cy="147.0" r="2.9" fill="white" />
<circle cx="126.0" cy="135.0" r="2.5" fill="white" />
<circle cx="459.0" cy="138.0" r="2.5" fill="white" />
<path d="M 20 430 C 128 423, 198 444, 316 423 S 450 404, 512 434" stroke="#5dade2" stroke-width="5" fill="none" opacity="0.85" />
<line x1="0" y1="395" x2="512" y2="395" stroke="#445566" stroke-width="4" />
<polygon points="190,363 230,303 270,323 290,293 310,313 322,353 290,375 240,379" fill="#1e1e1e" />
<polygon points="265,303 278,281 288,305" fill="#1e1e1e" />
<line x1="320" y1="348" x2="350" y2="323" stroke="#1e1e1e" stroke-width="6" />
</svg>
