<svg xmlns="http://www.w3.org/2000/svg" width="512" height="512" viewBox="0 0 512 512">
<rect width="100%" height="100%" fill="#0b1020"/>
<circle cx="396" cy="135" r="47" fill="#f8f3c9" opacity="0.95" />
<circle cx="145.0" cy="115.0" r="2.7" fill="white" />
<circle cx="297.0" cy="45.0" r="2.9" fill="white" />
<circle cx="340.0" cy="92.0" r="2.0" fill="white" />
<circle cx="382.0" cy="33.0" r="2.4" fill="white" />
<circle cx="266.0" cy="46.0" r="2.9" fill="white" />
<circle cx="81.0" cy="134.0" r="2.7" fill="white" />
<circle cx="488.0" cy="72.0" r="1.7" fill="white" />
<circle cx="228.0" cy="127.0" r="1.7" fill="white" />
<circle cx="298.0" cy="149.0" r="1.7" fill="white" />
<circle cx="49.0" cy="87.0" r="3.0" fill="white" />
<circle cx="259.0" cy="144.0" r="2.5" fill="white" />
<circle cx="452.0" cy="150.0" r="2.2" fill="white" />
<circle cx="314.0" cy="126.0" r="2.3" fill="white" />
<circle cx="422.0" cy="84.0" r="2.5" fill="white" />
<path d="M 20 430 C 134 411, 175 459, 280 440 S 450 405, 512 435" stroke="#5dade2" stroke-width="5" fill="none" opacity="0.85" />
<line x1="0" y1="392" x2="512" y2="392" stroke="#445566" stroke-width="2" />
<polygon points="200,365 240,305 280,325 300,295 320,315 332,355 300,377 250,381" fill="#1e1e1e" />
<polygon points="275,305 288,283 298,307" fill="#1e1e1e" />
<line x1="330" y1="350" x2="360" y2="325" stroke="#1e1e1e" stroke-width="6" />
</svg>
