<svg xmlns="http://www.w3.org/2000/svg" width="512" height="512" viewBox="0 0 512 512">
<rect width="100%" height="100%" fill="#0b1020"/>
<circle cx="451" cy="69" r="54" fill="#f8f3c9" opacity="0.95" />
<circle cx="309.0" cy="151.0" r="3.2" fill="white" />
<circle cx="279.0" cy="177.0" r="2.4" fill="white" />
<circle cx="296.0" cy="56.0" r="2.7" fill="white" />
<circle cx="222.0" cy="110.0" r="1.9" fill="white" />
<circle cx="294.0" cy="47.0" r="3.1" fill="white" />
<circle cx="415.0" cy="88.0" r="2.3" fill="white" />
<circle cx="205.0" cy="52.0" r="2.1" fill="white" />
<circle cx="326.0" cy="167.0" r="2.8" fill="white" />
<circle cx="207.0" cy="157.0" r="2.7" fill="white" />
<circle cx="247.0" cy="46.0" r="1.7" fill="white" />
<circle cx="208.0" cy="56.0" r="1.9" fill="white" />
<circle cx="92.0" cy="28.0" r="1.7" fill="white" />
<circle cx="197.0" cy="80.0" r="3.1" fill="white" />
<circle cx="313.0" cy="142.0" r="1.6" fill="white" />
<path d="M 20 430 C 136 426, 182 455, 280 440 S 450 399, 512 429" stroke="#5dade2" stroke-width="7" fill="none" opacity="0.85" />
<line x1="0" y1="411" x2="512" y2="411" stroke="#445566" stroke-width="3" />
<polygon points="217,350 257,290 297,310 317,280 337,300 349,340 317,362 267,366" fill="#1e1e1e" />
<polygon points="292,290 305,268 315,292" fill="#1e1e1e" />
<line x1="347" y1="335" x2="377" y2="310" stroke="#1e1e1e" stroke-width="6" />
</svg>
