<svg xmlns="http://www.w3.org/2000/svg" width="512" height="512" viewBox="0 0 512 512">
<rect width="100%" height="100%" fill="#0b1020"/>
<circle cx="374" cy="128" r="44" fill="#f8f3c9" opacity="0.95" />
<circle cx="31.0" cy="58.0" r="2.6" fill="white" />
<circle cx="345.0" cy="110.0" r="2.8" fill="white" />
<circle cx="347.0" cy="115.0" r="3.3" fill="white" />
<circle cx="95.0" cy="74.0" r="1.6" fill="white" />
<circle cx="104.0" cy="128.0" r="1.7" fill="white" />
<circle cx="490.0" cy="73.0" r="2.2" fill="white" />
<circle cx="463.0" cy="161.0" r="1.8" fill="white" />
<circle cx="338.0" cy="114.0" r="2.0" fill="white" />
<path d="M 20 430 C 109 420, 187 453, 320 437 S 450 388, 512 418" stroke="#5dade2" stroke-width="7" fill="none" opacity="0.85" />
<line x1="0" y1="394" x2="512" y2="394" stroke="#445566" stroke-width="4" />
<polygon points="190,356 230,296 270,316 290,286 310,306 322,346 290,368 240,372" fill="#1e1e1e" />
<polygon points="265,296 278,274 288,298" fill="#1e1e1e" />
<line x1="320" y1="341" x2="350" y2="316" stroke="#1e1e1e" stroke-width="6" />
</svg>
