<svg xmlns="http://www.w3.org/2000/svg" width="512" height="512" viewBox="0 0 512 512">
<rect width="100%" height="100%" fill="#0b1020"/>
<circle cx="403" cy="81" r="47" fill="#f8f3c9" opacity="0.95" />
<circle cx="129.0" cy="103.0" r="1.7" fill="white" />
<circle cx="191.0" cy="67.0" r="1.7" fill="white" />
<circle cx="469.0" cy="84.0" r="1.9" fill="white" />
<circle cx="149.0" cy="152.0" r="1.9" fill="white" />
<circle cx="218.0" cy="77.0" r="2.8" fill="white" />
<circle cx="275.0" cy="24.0" r="2.4" fill="white" />
<circle cx="210.0" cy="106.0" r="3.4" fill="white" />
<circle cx="29.0" cy="155.0" r="2.1" fill="white" />
<circle cx="201.0" cy="65.0" r="1.8" fill="white" />
<circle cx="189.0" cy="64.0" r="3.0" fill="white" />
<circle cx="147.0" cy="162.0" r="3.3" fill="white" />
<path d="M 20 430 C 124 418, 186 447, 296 423 S 450 390, 512 420" stroke="#5dade2" stroke-width="8" fill="none" opacity="0.85" />
<line x1="0" y1="408" x2="512" y2="408" stroke="#445566" stroke-width="2" />
<polygon points="219,362 259,302 299,322 319,292 339,312 351,352 319,374 269,378" fill="#1e1e1e" />
<polygon points="294,302 307,280 317,304" fill="#1e1e1e" />
<line x1="349" y1="347" x2="379" y2="322" stroke="#1e1e1e" stroke-width="6" />
</svg>
