<svg xmlns="http://www.w3.org/2000/svg" width="512" height="512" viewBox="0 0 512 512">
<rect width="100%" height="100%" fill="#0b1020"/>
<circle cx="395" cy="73" r="56" fill="#f8f3c9" opacity="0.95" />
<circle cx="404.0" cy="63.0" r="2.6" fill="white" />
<circle cx="407.0" cy="146.0" r="2.0" fill="white" />
<circle cx="167.0" cy="115.0" r="2.6" fill="white" />
<circle cx="332.0" cy="102.0" r="3.2" fill="white" />
<circle cx="205.0" cy="167.0" r="3.4" fill="white" />
<circle cx="211.0" cy="56.0" r="2.1" fill="white" />
<circle cx="106.0" cy="56.0" r="2.6" fill="white" />
<circle cx="262.0" cy="107.0" r="1.9" fill="white" />
<circle cx="152.0" cy="91.0" r="2.1" fill="white" />
<path d="M 20 430 C 127 419, 168 454, 300 436 S 450 398, 512 428" stroke="#5dade2" stroke-width="8" fill="none" opacity="0.85" />
<line x1="0" y1="407" x2="512" y2="407" stroke="#445566" stroke-width="3" />
<polygon points="205,365 245,305 285,325 305,295 325,315 337,355 305,377 255,381" fill="#1e1e1e" />
<polygon points="280,305 293,283 303,307" fill="#1e1e1e" />
<line x1="335" y1="350" x2="365" y2="325" stroke="#1e1e1e" stroke-width="6" />
</svg>
