<svg xmlns="http://www.w3.org/2000/svg" width="512" height="512" viewBox="0 0 512 512">
<rect width="100%" height="100%" fill="black"/>
<circle cx="458" cy="431" r="3" fill="hsl(0, 80%, 65%)" />
<circle cx="270" cy="109" r="8" fill="hsl(8, 80%, 65%)" />
<circle cx="352" cy="305" r="5" fill="hsl(18, 80%, 65%)" />
<circle cx="457" cy="277" r="2" fill="hsl(39, 80%, 65%)" />
<circle cx="93" cy="388" r="8" fill="hsl(40, 80%, 65%)" />
<circle cx="410" cy="412" r="2" fill="hsl(65, 80%, 65%)" />
<circle cx="446" cy="128" r="9" fill="hsl(48, 80%, 65%)" />
<circle cx="177" cy="162" r="4" fill="hsl(63, 80%, 65%)" />
<circle cx="145" cy="278" r="6" fill="hsl(40, 80%, 65%)" />
<circle cx="251" cy="303" r="5" fill="hsl(99, 80%, 65%)" />
<circle cx="182" cy="238" r="3" fill="hsl(80, 80%, 65%)" />
<circle cx="315" cy="341" r="7" fill="hsl(66, 80%, 65%)" />
<circle cx="175" cy="147" r="8" fill="hsl(84, 80%, 65%)" />
<circle cx="379" cy="230" r="4" fill="hsl(130, 80%, 65%)" />
<circle cx="147" cy="209" r="9" fill="hsl(140, 80%, 65%)" />
<circle cx="234" cy="319" r="4" fill="hsl(180, 80%, 65%)" />
<circle cx="128" cy="101" r="4" fill="hsl(128, 80%, 65%)" />
<circle cx="366" cy="236" r="5" fill="hsl(221, 80%, 65%)" />
<circle cx="91" cy="286" r="2" fill="hsl(108, 80%, 65%)" />
<circle cx="282" cy="51" r="2" fill="hsl(114, 80%, 65%)" />
<circle cx="265" cy="456" r="2" fill="hsl(180, 80%, 65%)" />
<circle cx="348" cy="176" r="8" fill="hsl(168, 80%, 65%)" />
<circle cx="111" cy="238" r="2" fill="hsl(220, 80%, 65%)" />
<circle cx="52" cy="180" r="4" fill="hsl(207, 80%, 65%)" />
<circle cx="51" cy="184" r="8" fill="hsl(216, 80%, 65%)" />
<circle cx="55" cy="79" r="7" fill="hsl(200, 80%, 65%)" />
<circle cx="195" cy="355" r="2" fill="hsl(182, 80%, 65%)" />
<circle cx="239" cy="350" r="7" fill="hsl(351, 80%, 65%)" />
<circle cx="449" cy="110" r="4" fill="hsl(196, 80%, 65%)" />
<circle cx="52" cy="403" r="7" fill="hsl(17, 80%, 65%)" />
<circle cx="286" cy="57" r="2" fill="hsl(180, 80%, 65%)" />
<circle cx="195" cy="365" r="6" fill="hsl(12, 80%, 65%)" />
<circle cx="140" cy="460" r="8" fill="hsl(192, 80%, 65%)" />
<circle cx="194" cy="226" r="8" fill="hsl(264, 80%, 65%)" />
<circle cx="242" cy="456" r="4" fill="hsl(238, 80%, 65%)" />
<circle cx="230" cy="85" r="3" fill="hsl(25, 80%, 65%)" />
<circle cx="231" cy="229" r="8" fill="hsl(180, 80%, 65%)" />
<circle cx="420" cy="367" r="3" fill="hsl(47, 80%, 65%)" />
<circle cx="326" cy="209" r="4" fill="hsl(190, 80%, 65%)" />
<circle cx="238" cy="118" r="3" fill="hsl(234, 80%, 65%)" />
<circle cx="65" cy="105" r="8" fill="hsl(40, 80%, 65%)" />
<circle cx="180" cy="317" r="7" fill="hsl(328, 80%, 65%)" />
<circle cx="386" cy="88" r="2" fill="hsl(102, 80%, 65%)" />
<circle cx="207" cy="166" r="8" fill="hsl(199, 80%, 65%)" />
<circle cx="258" cy="122" r="5" fill="hsl(220, 80%, 65%)" />
<circle cx="140" cy="202" r="9" fill="hsl(45, 80%, 65%)" />
<circle cx="403" cy="307" r="3" fill="hsl(238, 80%, 65%)" />
<circle cx="353" cy="343" r="2" fill="hsl(251, 80%, 65%)" />
<circle cx="209" cy="407" r="7" fill="hsl(336, 80%, 65%)" />
<circle cx="285" cy="243" r="8" fill="hsl(32, 80%, 65%)" />
<circle cx="160" cy="208" r="3" fill="hsl(350, 80%, 65%)" />
<circle cx="225" cy="412" r="5" fill="hsl(99, 80%, 65%)" />
<circle cx="308" cy="198" r="3" fill="hsl(212, 80%, 65%)" />
<circle cx="375" cy="252" r="2" fill="hsl(170, 80%, 65%)" />
<circle cx="240" cy="268" r="9" fill="hsl(180, 80%, 65%)" />
<circle cx="220" cy="292" r="6" fill="hsl(355, 80%, 65%)" />
<circle cx="132" cy="267" r="9" fill="hsl(88, 80%, 65%)" />
<circle cx="445" cy="145" r="8" fill="hsl(21, 80%, 65%)" />
<circle cx="222" cy="402" r="3" fill="hsl(290, 80%, 65%)" />
<circle cx="344" cy="68" r="9" fill="hsl(171, 80%, 65%)" />
<circle cx="207" cy="426" r="2" fill="hsl(0, 80%, 65%)" />
<circle cx="190" cy="56" r="4" fill="hsl(128, 80%, 65%)" />
<circle cx="223" cy="169" r="2" fill="hsl(136, 80%, 65%)" />
<circle cx="172" cy="445" r="7" fill="hsl(315, 80%, 65%)" />
<circle cx="326" cy="300" r="2" fill="hsl(344, 80%, 65%)" />
<circle cx="276" cy="344" r="7" fill="hsl(95, 80%, 65%)" />
<circle cx="118" cy="97" r="7" fill="hsl(168, 80%, 65%)" />
<circle cx="54" cy="124" r="4" fill="hsl(17, 80%, 65%)" />
<circle cx="139" cy="129" r="7" fill="hsl(320, 80%, 65%)" />
<circle cx="302" cy="171" r="6" fill="hsl(330, 80%, 65%)" />
<circle cx="265" cy="432" r="5" fill="hsl(270, 80%, 65%)" />
<circle cx="137" cy="240" r="2" fill="hsl(137, 80%, 65%)" />
<circle cx="142" cy="147" r="5" fill="hsl(72, 80%, 65%)" />
<circle cx="172" cy="308" r="5" fill="hsl(229, 80%, 65%)" />
<circle cx="218" cy="220" r="7" fill="hsl(10, 80%, 65%)" />
<circle cx="242" cy="110" r="7" fill="hsl(240, 80%, 65%)" />
<circle cx="337" cy="323" r="5" fill="hsl(324, 80%, 65%)" />
<circle cx="435" cy="410" r="7" fill="hsl(127, 80%, 65%)" />
<circle cx="61" cy="345" r="6" fill="hsl(138, 80%, 65%)" />
<circle cx="199" cy="387" r="9" fill="hsl(307, 80%, 65%)" />
<circle cx="120" cy="234" r="4" fill="hsl(160, 80%, 65%)" />
<circle cx="199" cy="142" r="9" fill="hsl(126, 80%, 65%)" />
<circle cx="315" cy="345" r="8" fill="hsl(346, 80%, 65%)" />
<circle cx="314" cy="341" r="2" fill="hsl(304, 80%, 65%)" />
<circle cx="241" cy="183" r="7" fill="hsl(228, 80%, 65%)" />
<circle cx="223" cy="164" r="6" fill="hsl(25, 80%, 65%)" />
<circle cx="66" cy="420" r="8" fill="hsl(38, 80%, 65%)" />
<circle cx="461" cy="372" r="5" fill="hsl(51, 80%, 65%)" />
<circle cx="64" cy="237" r="7" fill="hsl(72, 80%, 65%)" />
<circle cx="105" cy="148" r="6" fill="hsl(81, 80%, 65%)" />
<circle cx="168" cy="335" r="5" fill="hsl(0, 80%, 65%)" />
<circle cx="306" cy="426" r="6" fill="hsl(186, 80%, 65%)" />
<circle cx="280" cy="51" r="2" fill="hsl(284, 80%, 65%)" />
<circle cx="350" cy="386" r="3" fill="hsl(303, 80%, 65%)" />
<circle cx="103" cy="184" r="5" fill="hsl(220, 80%, 65%)" />
<circle cx="104" cy="166" r="8" fill="hsl(135, 80%, 65%)" />
<circle cx="132" cy="444" r="3" fill="hsl(240, 80%, 65%)" />
<circle cx="450" cy="218" r="3" fill="hsl(84, 80%, 65%)" />
<circle cx="180" cy="289" r="5" fill="hsl(326, 80%, 65%)" />
<circle cx="412" cy="238" r="4" fill="hsl(135, 80%, 65%)" />
<circle cx="270" cy="225" r="2" fill="hsl(220, 80%, 65%)" />
<circle cx="451" cy="215" r="4" fill="hsl(88, 80%, 65%)" />
<circle cx="351" cy="263" r="3" fill="hsl(246, 80%, 65%)" />
<circle cx="147" cy="114" r="5" fill="hsl(104, 80%, 65%)" />
<circle cx="231" cy="162" r="5" fill="hsl(264, 80%, 65%)" />
<circle cx="337" cy="192" r="8" fill="hsl(75, 80%, 65%)" />
<circle cx="333" cy="423" r="8" fill="hsl(340, 80%, 65%)" />
<circle cx="440" cy="97" r="8" fill="hsl(97, 80%, 65%)" />
<circle cx="233" cy="78" r="2" fill="hsl(36, 80%, 65%)" />
<circle cx="314" cy="219" r="9" fill="hsl(261, 80%, 65%)" />
<circle cx="444" cy="92" r="4" fill="hsl(130, 80%, 65%)" />
<circle cx="50" cy="270" r="2" fill="hsl(141, 80%, 65%)" />
<circle cx="100" cy="348" r="5" fill="hsl(64, 80%, 65%)" />
<circle cx="180" cy="128" r="4" fill="hsl(205, 80%, 65%)" />
<circle cx="251" cy="388" r="7" fill="hsl(60, 80%, 65%)" />
<circle cx="217" cy="268" r="9" fill="hsl(55, 80%, 65%)" />
<circle cx="299" cy="416" r="4" fill="hsl(336, 80%, 65%)" />
<circle cx="380" cy="75" r="2" fill="hsl(81, 80%, 65%)" />
<circle cx="165" cy="280" r="2" fill="hsl(348, 80%, 65%)" />
<circle cx="398" cy="293" r="4" fill="hsl(351, 80%, 65%)" />
<circle cx="221" cy="58" r="5" fill="hsl(0, 80%, 65%)" />
<circle cx="100" cy="419" r="7" fill="hsl(130, 80%, 65%)" />
<circle cx="66" cy="238" r="2" fill="hsl(256, 80%, 65%)" />
<circle cx="237" cy="196" r="4" fill="hsl(150, 80%, 65%)" />
<circle cx="383" cy="338" r="9" fill="hsl(172, 80%, 65%)" />
<circle cx="398" cy="344" r="3" fill="hsl(60, 80%, 65%)" />
<circle cx="455" cy="443" r="3" fill="hsl(198, 80%, 65%)" />
<circle cx="282" cy="241" r="8" fill="hsl(211, 80%, 65%)" />
<circle cx="368" cy="404" r="2" fill="hsl(200, 80%, 65%)" />
<circle cx="162" cy="425" r="4" fill="hsl(183, 80%, 65%)" />
<circle cx="394" cy="414" r="5" fill="hsl(220, 80%, 65%)" />
<circle cx="244" cy="264" r="3" fill="hsl(230, 80%, 65%)" />
<circle cx="210" cy="181" r="7" fill="hsl(12, 80%, 65%)" />
<circle cx="162" cy="388" r="2" fill="hsl(344, 80%, 65%)" />
<circle cx="397" cy="338" r="5" fill="hsl(352, 80%, 65%)" />
<circle cx="342" cy="239" r="4" fill="hsl(225, 80%, 65%)" />
<circle cx="315" cy="274" r="6" fill="hsl(56, 80%, 65%)" />
<circle cx="442" cy="244" r="8" fill="hsl(153, 80%, 65%)" />
<circle cx="336" cy="387" r="8" fill="hsl(108, 80%, 65%)" />
<circle cx="221" cy="112" r="4" fill="hsl(89, 80%, 65%)" />
<circle cx="263" cy="381" r="2" fill="hsl(120, 80%, 65%)" />
<circle cx="195" cy="113" r="2" fill="hsl(126, 80%, 65%)" />
<circle cx="176" cy="291" r="8" fill="hsl(56, 80%, 65%)" />
<circle cx="160" cy="309" r="8" fill="hsl(59, 80%, 65%)" />
<circle cx="409" cy="456" r="7" fill="hsl(0, 80%, 65%)" />
<circle cx="88" cy="216" r="6" fill="hsl(295, 80%, 65%)" />
<circle cx="392" cy="329" r="4" fill="hsl(156, 80%, 65%)" />
<circle cx="412" cy="229" r="5" fill="hsl(243, 80%, 65%)" />
<circle cx="324" cy="124" r="4" fill="hsl(336, 80%, 65%)" />
<circle cx="358" cy="224" r="7" fill="hsl(199, 80%, 65%)" />
<circle cx="417" cy="204" r="4" fill="hsl(150, 80%, 65%)" />
<circle cx="388" cy="168" r="8" fill="hsl(337, 80%, 65%)" />
<circle cx="147" cy="442" r="2" fill="hsl(176, 80%, 65%)" />
<circle cx="192" cy="330" r="9" fill="hsl(36, 80%, 65%)" />
<circle cx="403" cy="141" r="9" fill="hsl(358, 80%, 65%)" />
<circle cx="249" cy="282" r="5" fill="hsl(160, 80%, 65%)" />
<circle cx="449" cy="293" r="5" fill="hsl(120, 80%, 65%)" />
<circle cx="372" cy="398" r="4" fill="hsl(19, 80%, 65%)" />
<circle cx="368" cy="449" r="3" fill="hsl(184, 80%, 65%)" />
<circle cx="441" cy="380" r="4" fill="hsl(309, 80%, 65%)" />
<circle cx="415" cy="138" r="6" fill="hsl(0, 80%, 65%)" />
<circle cx="107" cy="255" r="3" fill="hsl(246, 80%, 65%)" />
<circle cx="253" cy="225" r="4" fill="hsl(252, 80%, 65%)" />
<circle cx="367" cy="295" r="5" fill="hsl(353, 80%, 65%)" />
<circle cx="54" cy="243" r="8" fill="hsl(68, 80%, 65%)" />
<circle cx="273" cy="237" r="4" fill="hsl(75, 80%, 65%)" />
<circle cx="122" cy="373" r="9" fill="hsl(220, 80%, 65%)" />
<circle cx="143" cy="302" r="7" fill="hsl(230, 80%, 65%)" />
<circle cx="297" cy="206" r="4" fill="hsl(264, 80%, 65%)" />
<circle cx="187" cy="155" r="8" fill="hsl(250, 80%, 65%)" />
<circle cx="176" cy="68" r="4" fill="hsl(90, 80%, 65%)" />
<circle cx="71" cy="287" r="3" fill="hsl(135, 80%, 65%)" />
<circle cx="405" cy="275" r="9" fill="hsl(140, 80%, 65%)" />
<circle cx="216" cy="185" r="5" fill="hsl(117, 80%, 65%)" />
<circle cx="119" cy="118" r="9" fill="hsl(114, 80%, 65%)" />
<circle cx="152" cy="123" r="7" fill="hsl(330, 80%, 65%)" />
<circle cx="50" cy="304" r="8" fill="hsl(328, 80%, 65%)" />
<circle cx="162" cy="453" r="3" fill="hsl(342, 80%, 65%)" />
<circle cx="81" cy="277" r="4" fill="hsl(344, 80%, 65%)" />
<circle cx="114" cy="153" r="6" fill="hsl(175, 80%, 65%)" />
<circle cx="299" cy="216" r="4" fill="hsl(0, 80%, 65%)" />
<circle cx="401" cy="316" r="4" fill="hsl(12, 80%, 65%)" />
<circle cx="219" cy="393" r="8" fill="hsl(194, 80%, 65%)" />
<line x1="335" y1="397" x2="244" y2="495" stroke="#223344" stroke-width="1"/>
<line x1="128" y1="367" x2="81" y2="377" stroke="#223344" stroke-width="1"/>
<line x1="335" y1="382" x2="298" y2="373" stroke="#223344" stroke-width="1"/>
<line x1="414" y1="430" x2="425" y2="389" stroke="#223344" stroke-width="1"/>
<line x1="353" y1="174" x2="364" y2="212" stroke="#223344" stroke-width="1"/>
<line x1="68" y1="390" x2="-1" y2="351" stroke="#223344" stroke-width="1"/>
<line x1="393" y1="311" x2="410" y2="411" stroke="#223344" stroke-width="1"/>
<line x1="203" y1="94" x2="182" y2="51" stroke="#223344" stroke-width="1"/>
<line x1="65" y1="261" x2="-11" y2="234" stroke="#223344" stroke-width="1"/>
<line x1="256" y1="456" x2="338" y2="415" stroke="#223344" stroke-width="1"/>
<line x1="311" y1="317" x2="307" y2="290" stroke="#223344" stroke-width="1"/>
<line x1="435" y1="267" x2="432" y2="294" stroke="#223344" stroke-width="1"/>
<line x1="416" y1="113" x2="344" y2="179" stroke="#223344" stroke-width="1"/>
<line x1="232" y1="321" x2="134" y2="373" stroke="#223344" stroke-width="1"/>
<line x1="284" y1="459" x2="252" y2="485" stroke="#223344" stroke-width="1"/>
<line x1="281" y1="430" x2="361" y2="361" stroke="#223344" stroke-width="1"/>
<line x1="379" y1="62" x2="349" y2="72" stroke="#223344" stroke-width="1"/>
<line x1="356" y1="167" x2="271" y2="261" stroke="#223344" stroke-width="1"/>
<line x1="259" y1="281" x2="224" y2="245" stroke="#223344" stroke-width="1"/>
<line x1="410" y1="380" x2="342" y2="379" stroke="#223344" stroke-width="1"/>
<line x1="281" y1="379" x2="181" y2="438" stroke="#223344" stroke-width="1"/>
<line x1="243" y1="390" x2="180" y2="315" stroke="#223344" stroke-width="1"/>
<line x1="166" y1="290" x2="226" y2="245" stroke="#223344" stroke-width="1"/>
<line x1="265" y1="217" x2="277" y2="186" stroke="#223344" stroke-width="1"/>
<line x1="303" y1="120" x2="348" y2="198" stroke="#223344" stroke-width="1"/>
</svg>
