<svg xmlns="http://www.w3.org/2000/svg" width="512" height="512" viewBox="0 0 512 512">
<rect width="100%" height="100%" fill="#0b1020"/>
<circle cx="426" cy="130" r="55" fill="#f8f3c9" opacity="0.95" />
<circle cx="386.0" cy="114.0" r="3.0" fill="white" />
<circle cx="295.0" cy="116.0" r="2.6" fill="white" />
<circle cx="390.0" cy="115.0" r="3.4" fill="white" />
<circle cx="30.0" cy="163.0" r="3.1" fill="white" />
<circle cx="119.0" cy="88.0" r="1.9" fill="white" />
<circle cx="167.0" cy="67.0" r="3.0" fill="white" />
<circle cx="285.0" cy="35.0" r="3.1" fill="white" />
<circle cx="229.0" cy="121.0" r="1.6" fill="white" />
<circle cx="198.0" cy="59.0" r="2.7" fill="white" />
<path d="M 20 430 C 112 422, 193 440, 286 421 S 450 402, 512 432" stroke="#5dade2" stroke-width="5" fill="none" opacity="0.85" />
<line x1="0" y1="398" x2="512" y2="398" stroke="#445566" stroke-width="4" />
<polygon points="141,354 181,294 221,314 241,284 261,304 273,344 241,366 191,370" fill="#1e1e1e" />
<polygon points="216,294 229,272 239,296" fill="#1e1e1e" />
<line x1="271" y1="339" x2="301" y2="314" stroke="#1e1e1e" stroke-width="6" />
</svg>
