<svg xmlns="http://www.w3.org/2000/svg" width="512" height="512" viewBox="0 0 512 512">
<rect width="100%" height="100%" fill="#0b1020"/>
<circle cx="457" cy="123" r="47" fill="#f8f3c9" opacity="0.95" />
<circle cx="291.0" cy="57.0" r="3.1" fill="white" />
<circle cx="92.0" cy="152.0" r="2.7" fill="white" />
<circle cx="171.0" cy="111.0" r="3.4" fill="white" />
<circle cx="250.0" cy="169.0" r="1.6" fill="white" />
<circle cx="111.0" cy="116.0" r="2.6" fill="white" />
<circle cx="434.0" cy="102.0" r="3.3" fill="white" />
<circle cx="252.0" cy="142.0" r="2.4" fill="white" />
<circle cx="156.0" cy="119.0" r="3.0" fill="white" />
<path d="M 20 430 C 124 412, 161 440, 280 423 S 450 377, 512 407" stroke="#5dade2" stroke-width="7" fill="none" opacity="0.85" />
<line x1="0" y1="393" x2="512" y2="393" stroke="#445566" stroke-width="4" />
<polygon points="213,362 253,302 293,322 313,292 333,312 345,352 313,374 263,378" fill="#1e1e1e" />
<polygon points="288,302 301,280 311,304" fill="#1e1e1e" />
<line x1="343" y1="347" x2="373" y2="322" stroke="#1e1e1e" stroke-width="6" />
</svg>
