<svg xmlns="http://www.w3.org/2000/svg" width="512" height="512" viewBox="0 0 512 512">
<rect width="100%" height="100%" fill="black"/>
<circle cx="256.00" cy="256.00" r="2" fill="hsl(0, 80%, 65%)" />
<circle cx="250.15" cy="261.36" r="3" fill="hsl(7, 80%, 65%)" />
<circle cx="256.98" cy="244.82" r="4" fill="hsl(14, 80%, 65%)" />
<circle cx="264.36" cy="266.91" r="5" fill="hsl(21, 80%, 65%)" />
<circle cx="240.37" cy="253.24" r="6" fill="hsl(28, 80%, 65%)" />
<circle cx="270.97" cy="246.47" r="2" fill="hsl(35, 80%, 65%)" />
<circle cx="250.95" cy="274.77" r="3" fill="hsl(42, 80%, 65%)" />
<circle cx="246.32" cy="237.36" r="4" fill="hsl(49, 80%, 65%)" />
<circle cx="277.09" cy="263.70" r="5" fill="hsl(56, 80%, 65%)" />
<circle cx="233.99" cy="265.08" r="6" fill="hsl(63, 80%, 65%)" />
<circle cx="266.64" cy="233.27" r="2" fill="hsl(70, 80%, 65%)" />
<circle cx="263.88" cy="281.12" r="3" fill="hsl(77, 80%, 65%)" />
<circle cx="232.21" cy="242.21" r="4" fill="hsl(84, 80%, 65%)" />
<circle cx="283.95" cy="249.86" r="5" fill="hsl(91, 80%, 65%)" />
<circle cx="238.92" cy="280.29" r="6" fill="hsl(98, 80%, 65%)" />
<circle cx="252.05" cy="225.52" r="2" fill="hsl(105, 80%, 65%)" />
<circle cx="280.28" cy="276.46" r="3" fill="hsl(112, 80%, 65%)" />
<circle cx="223.30" cy="257.35" r="4" fill="hsl(119, 80%, 65%)" />
<circle cx="279.87" cy="232.25" r="5" fill="hsl(126, 80%, 65%)" />
<circle cx="254.40" cy="290.56" r="6" fill="hsl(133, 80%, 65%)" />
<circle cx="233.26" cy="228.75" r="2" fill="hsl(140, 80%, 65%)" />
<circle cx="292.05" cy="260.85" r="3" fill="hsl(147, 80%, 65%)" />
<circle cx="225.44" cy="277.26" r="4" fill="hsl(154, 80%, 65%)" />
<circle cx="264.35" cy="218.86" r="5" fill="hsl(161, 80%, 65%)" />
<circle cx="275.33" cy="289.74" r="6" fill="hsl(168, 80%, 65%)" />
<circle cx="218.19" cy="243.94" r="2" fill="hsl(175, 80%, 65%)" />
<circle cx="292.74" cy="239.03" r="3" fill="hsl(182, 80%, 65%)" />
<circle cx="240.08" cy="294.04" r="4" fill="hsl(189, 80%, 65%)" />
<circle cx="241.79" cy="216.48" r="5" fill="hsl(196, 80%, 65%)" />
<circle cx="293.83" cy="275.88" r="6" fill="hsl(203, 80%, 65%)" />
<circle cx="213.96" cy="267.08" r="2" fill="hsl(210, 80%, 65%)" />
<circle cx="279.90" cy="218.83" r="3" fill="hsl(217, 80%, 65%)" />
<circle cx="263.60" cy="300.25" r="4" fill="hsl(224, 80%, 65%)" />
<circle cx="219.95" cy="228.08" r="5" fill="hsl(231, 80%, 65%)" />
<circle cx="302.12" cy="252.18" r="6" fill="hsl(238, 80%, 65%)" />
<circle cx="224.11" cy="290.47" r="2" fill="hsl(245, 80%, 65%)" />
<circle cx="256.23" cy="208.38" r="3" fill="hsl(252, 80%, 65%)" />
<circle cx="288.44" cy="291.76" r="4" fill="hsl(259, 80%, 65%)" />
<circle cx="207.28" cy="251.48" r="5" fill="hsl(266, 80%, 65%)" />
<circle cx="295.48" cy="226.03" r="6" fill="hsl(273, 80%, 65%)" />
<circle cx="247.02" cy="305.39" r="2" fill="hsl(280, 80%, 65%)" />
<circle cx="228.93" cy="212.99" r="3" fill="hsl(287, 80%, 65%)" />
<circle cx="305.61" cy="269.60" r="4" fill="hsl(294, 80%, 65%)" />
<circle cx="209.70" cy="279.76" r="5" fill="hsl(301, 80%, 65%)" />
<circle cx="274.30" cy="206.64" r="6" fill="hsl(308, 80%, 65%)" />
<circle cx="276.07" cy="305.31" r="2" fill="hsl(315, 80%, 65%)" />
<circle cx="207.36" cy="232.95" r="3" fill="hsl(322, 80%, 65%)" />
<circle cx="308.00" cy="239.97" r="4" fill="hsl(329, 80%, 65%)" />
<circle cx="228.20" cy="303.44" r="5" fill="hsl(336, 80%, 65%)" />
<circle cx="244.34" cy="201.68" r="6" fill="hsl(343, 80%, 65%)" />
<circle cx="301.75" cy="288.50" r="2" fill="hsl(350, 80%, 65%)" />
<circle cx="199.76" cy="263.01" r="3" fill="hsl(357, 80%, 65%)" />
<circle cx="293.10" cy="212.42" r="4" fill="hsl(4, 80%, 65%)" />
<circle cx="258.11" cy="313.74" r="5" fill="hsl(11, 80%, 65%)" />
<circle cx="215.06" cy="214.46" r="6" fill="hsl(18, 80%, 65%)" />
<circle cx="314.78" cy="259.01" r="2" fill="hsl(25, 80%, 65%)" />
<circle cx="210.21" cy="293.83" r="3" fill="hsl(32, 80%, 65%)" />
<circle cx="264.28" cy="196.65" r="4" fill="hsl(39, 80%, 65%)" />
<circle cx="290.28" cy="305.78" r="5" fill="hsl(46, 80%, 65%)" />
<circle cx="196.59" cy="242.33" r="6" fill="hsl(53, 80%, 65%)" />
<circle cx="309.49" cy="225.69" r="2" fill="hsl(60, 80%, 65%)" />
<circle cx="236.87" cy="314.96" r="3" fill="hsl(67, 80%, 65%)" />
<circle cx="230.07" cy="199.14" r="4" fill="hsl(74, 80%, 65%)" />
<circle cx="313.99" cy="280.60" r="5" fill="hsl(81, 80%, 65%)" />
<circle cx="196.15" cy="277.20" r="6" fill="hsl(88, 80%, 65%)" />
<circle cx="286.05" cy="199.50" r="2" fill="hsl(95, 80%, 65%)" />
<circle cx="272.13" cy="318.43" r="3" fill="hsl(102, 80%, 65%)" />
<circle cx="201.53" cy="220.60" r="4" fill="hsl(109, 80%, 65%)" />
<circle cx="320.56" cy="245.23" r="5" fill="hsl(116, 80%, 65%)" />
<circle cx="215.38" cy="307.93" r="6" fill="hsl(123, 80%, 65%)" />
<circle cx="250.84" cy="189.80" r="2" fill="hsl(130, 80%, 65%)" />
<circle cx="304.87" cy="301.65" r="3" fill="hsl(137, 80%, 65%)" />
<circle cx="188.66" cy="255.34" r="4" fill="hsl(144, 80%, 65%)" />
<circle cx="306.45" cy="210.68" r="5" fill="hsl(151, 80%, 65%)" />
<circle cx="249.37" cy="323.95" r="6" fill="hsl(158, 80%, 65%)" />
<circle cx="214.71" cy="201.05" r="2" fill="hsl(165, 80%, 65%)" />
<circle cx="324.01" cy="268.72" r="3" fill="hsl(172, 80%, 65%)" />
<circle cx="196.87" cy="292.81" r="4" fill="hsl(179, 80%, 65%)" />
<circle cx="274.86" cy="188.49" r="5" fill="hsl(186, 80%, 65%)" />
<circle cx="287.90" cy="318.92" r="6" fill="hsl(193, 80%, 65%)" />
<circle cx="189.56" cy="231.00" r="2" fill="hsl(200, 80%, 65%)" />
<circle cx="322.29" cy="229.39" r="3" fill="hsl(207, 80%, 65%)" />
<circle cx="224.90" cy="320.80" r="4" fill="hsl(214, 80%, 65%)" />
<circle cx="235.03" cy="186.80" r="5" fill="hsl(221, 80%, 65%)" />
<circle cx="318.58" cy="293.09" r="6" fill="hsl(228, 80%, 65%)" />
<circle cx="184.38" cy="271.01" r="2" fill="hsl(235, 80%, 65%)" />
<circle cx="298.92" cy="196.20" r="3" fill="hsl(242, 80%, 65%)" />
<circle cx="264.80" cy="329.50" r="4" fill="hsl(249, 80%, 65%)" />
<circle cx="199.54" cy="207.47" r="5" fill="hsl(256, 80%, 65%)" />
<circle cx="330.84" cy="253.64" r="6" fill="hsl(263, 80%, 65%)" />
<circle cx="202.11" cy="308.59" r="2" fill="hsl(270, 80%, 65%)" />
<circle cx="260.23" cy="180.41" r="3" fill="hsl(277, 80%, 65%)" />
<circle cx="304.20" cy="314.92" r="4" fill="hsl(284, 80%, 65%)" />
<circle cx="180.25" cy="245.05" r="5" fill="hsl(291, 80%, 65%)" />
<circle cx="319.59" cy="212.67" r="6" fill="hsl(298, 80%, 65%)" />
<circle cx="238.29" cy="331.30" r="2" fill="hsl(305, 80%, 65%)" />
<circle cx="218.00" cy="188.15" r="3" fill="hsl(312, 80%, 65%)" />
<circle cx="330.23" cy="280.48" r="4" fill="hsl(319, 80%, 65%)" />
<circle cx="184.36" cy="288.26" r="5" fill="hsl(326, 80%, 65%)" />
<circle cx="287.20" cy="183.45" r="6" fill="hsl(333, 80%, 65%)" />
<circle cx="282.13" cy="330.94" r="2" fill="hsl(340, 80%, 65%)" />
<circle cx="185.76" cy="218.20" r="3" fill="hsl(347, 80%, 65%)" />
<circle cx="333.71" cy="236.33" r="4" fill="hsl(354, 80%, 65%)" />
<circle cx="211.78" cy="323.32" r="5" fill="hsl(1, 80%, 65%)" />
<circle cx="243.07" cy="176.10" r="6" fill="hsl(8, 80%, 65%)" />
<circle cx="319.81" cy="306.42" r="2" fill="hsl(15, 80%, 65%)" />
<circle cx="174.50" cy="261.95" r="3" fill="hsl(22, 80%, 65%)" />
<circle cx="312.34" cy="196.28" r="4" fill="hsl(29, 80%, 65%)" />
<circle cx="254.79" cy="338.47" r="5" fill="hsl(36, 80%, 65%)" />
<circle cx="200.93" cy="194.09" r="6" fill="hsl(43, 80%, 65%)" />
<circle cx="338.81" cy="264.49" r="2" fill="hsl(50, 80%, 65%)" />
<circle cx="188.90" cy="305.90" r="3" fill="hsl(57, 80%, 65%)" />
<circle cx="271.84" cy="173.51" r="4" fill="hsl(64, 80%, 65%)" />
<circle cx="300.24" cy="327.84" r="5" fill="hsl(71, 80%, 65%)" />
<circle cx="174.49" cy="232.81" r="6" fill="hsl(78, 80%, 65%)" />
<circle cx="332.10" cy="217.88" r="2" fill="hsl(85, 80%, 65%)" />
<circle cx="225.50" cy="335.86" r="3" fill="hsl(92, 80%, 65%)" />
<circle cx="224.41" cy="176.17" r="4" fill="hsl(99, 80%, 65%)" />
<circle cx="333.55" cy="293.68" r="5" fill="hsl(106, 80%, 65%)" />
<circle cx="173.02" cy="280.70" r="6" fill="hsl(113, 80%, 65%)" />
<circle cx="300.69" cy="181.42" r="2" fill="hsl(120, 80%, 65%)" />
<circle cx="273.50" cy="341.53" r="3" fill="hsl(127, 80%, 65%)" />
<circle cx="185.03" cy="204.54" r="4" fill="hsl(134, 80%, 65%)" />
<circle cx="343.45" cy="245.97" r="5" fill="hsl(141, 80%, 65%)" />
<circle cx="198.06" cy="322.74" r="6" fill="hsl(148, 80%, 65%)" />
<circle cx="253.63" cy="167.30" r="2" fill="hsl(155, 80%, 65%)" />
<circle cx="317.91" cy="320.06" r="3" fill="hsl(162, 80%, 65%)" />
<circle cx="166.72" cy="250.56" r="4" fill="hsl(169, 80%, 65%)" />
<circle cx="325.78" cy="199.48" r="5" fill="hsl(176, 80%, 65%)" />
<circle cx="242.67" cy="345.15" r="6" fill="hsl(183, 80%, 65%)" />
<circle cx="205.41" cy="180.97" r="2" fill="hsl(190, 80%, 65%)" />
<circle cx="344.32" cy="277.23" r="3" fill="hsl(197, 80%, 65%)" />
<circle cx="176.23" cy="300.17" r="4" fill="hsl(204, 80%, 65%)" />
<circle cx="285.09" cy="169.22" r="5" fill="hsl(211, 80%, 65%)" />
<circle cx="293.31" cy="339.96" r="6" fill="hsl(218, 80%, 65%)" />
<circle cx="171.46" cy="219.16" r="2" fill="hsl(225, 80%, 65%)" />
<circle cx="343.54" cy="225.95" r="3" fill="hsl(232, 80%, 65%)" />
<circle cx="211.58" cy="337.59" r="4" fill="hsl(239, 80%, 65%)" />
<circle cx="233.56" cy="165.51" r="5" fill="hsl(246, 80%, 65%)" />
<circle cx="333.96" cy="307.75" r="6" fill="hsl(253, 80%, 65%)" />
<circle cx="163.22" cy="270.55" r="2" fill="hsl(260, 80%, 65%)" />
<circle cx="314.79" cy="182.34" r="3" fill="hsl(267, 80%, 65%)" />
<circle cx="262.43" cy="350.36" r="4" fill="hsl(274, 80%, 65%)" />
<circle cx="187.28" cy="190.54" r="5" fill="hsl(281, 80%, 65%)" />
<circle cx="351.22" cy="257.86" r="6" fill="hsl(288, 80%, 65%)" />
<circle cx="184.28" cy="319.17" r="2" fill="hsl(295, 80%, 65%)" />
<circle cx="266.25" cy="160.65" r="3" fill="hsl(302, 80%, 65%)" />
<circle cx="313.05" cy="333.49" r="4" fill="hsl(309, 80%, 65%)" />
<circle cx="161.27" cy="237.33" r="5" fill="hsl(316, 80%, 65%)" />
<circle cx="338.74" cy="205.61" r="6" fill="hsl(323, 80%, 65%)" />
<circle cx="228.94" cy="349.36" r="2" fill="hsl(330, 80%, 65%)" />
<circle cx="212.75" cy="168.59" r="3" fill="hsl(337, 80%, 65%)" />
<circle cx="347.24" cy="291.35" r="4" fill="hsl(344, 80%, 65%)" />
<circle cx="164.54" cy="291.68" r="5" fill="hsl(351, 80%, 65%)" />
<circle cx="299.48" cy="167.62" r="6" fill="hsl(358, 80%, 65%)" />
<circle cx="283.73" cy="350.84" r="2" fill="hsl(5, 80%, 65%)" />
<circle cx="171.22" cy="204.63" r="3" fill="hsl(12, 80%, 65%)" />
<circle cx="353.53" cy="236.55" r="4" fill="hsl(19, 80%, 65%)" />
<circle cx="197.04" cy="336.48" r="5" fill="hsl(26, 80%, 65%)" />
<circle cx="245.08" cy="156.52" r="6" fill="hsl(33, 80%, 65%)" />
<circle cx="331.49" cy="322.18" r="2" fill="hsl(40, 80%, 65%)" />
<circle cx="155.32" cy="258.20" r="3" fill="hsl(47, 80%, 65%)" />
<circle cx="328.98" cy="186.15" r="4" fill="hsl(54, 80%, 65%)" />
<circle cx="249.35" cy="357.11" r="5" fill="hsl(61, 80%, 65%)" />
<circle cx="192.41" cy="176.71" r="6" fill="hsl(68, 80%, 65%)" />
<circle cx="356.75" cy="271.56" r="2" fill="hsl(75, 80%, 65%)" />
<circle cx="170.94" cy="312.75" r="3" fill="hsl(82, 80%, 65%)" />
<circle cx="280.46" cy="156.39" r="4" fill="hsl(89, 80%, 65%)" />
<circle cx="305.39" cy="346.24" r="5" fill="hsl(96, 80%, 65%)" />
<circle cx="158.33" cy="222.73" r="6" fill="hsl(103, 80%, 65%)" />
<circle cx="350.77" cy="214.44" r="2" fill="hsl(110, 80%, 65%)" />
<circle cx="214.07" cy="350.94" r="3" fill="hsl(117, 80%, 65%)" />
<circle cx="222.69" cy="157.38" r="4" fill="hsl(124, 80%, 65%)" />
<circle cx="347.44" cy="306.36" r="5" fill="hsl(131, 80%, 65%)" />
<circle cx="154.26" cy="280.70" r="6" fill="hsl(138, 80%, 65%)" />
<circle cx="314.50" cy="168.81" r="2" fill="hsl(145, 80%, 65%)" />
<circle cx="271.81" cy="360.10" r="3" fill="hsl(152, 80%, 65%)" />
<circle cx="173.79" cy="189.73" r="4" fill="hsl(159, 80%, 65%)" />
<circle cx="361.68" cy="249.32" r="5" fill="hsl(166, 80%, 65%)" />
<circle cx="182.38" cy="332.53" r="6" fill="hsl(173, 80%, 65%)" />
<circle cx="258.60" cy="149.55" r="2" fill="hsl(180, 80%, 65%)" />
<circle cx="326.19" cy="336.47" r="3" fill="hsl(187, 80%, 65%)" />
<circle cx="149.60" cy="244.04" r="4" fill="hsl(194, 80%, 65%)" />
<circle cx="342.77" cy="192.77" r="5" fill="hsl(201, 80%, 65%)" />
<circle cx="234.67" cy="361.53" r="6" fill="hsl(208, 80%, 65%)" />
<circle cx="200.30" cy="163.53" r="2" fill="hsl(215, 80%, 65%)" />
<circle cx="359.82" cy="286.64" r="3" fill="hsl(222, 80%, 65%)" />
<circle cx="158.49" cy="303.66" r="4" fill="hsl(229, 80%, 65%)" />
<circle cx="295.81" cy="154.72" r="5" fill="hsl(236, 80%, 65%)" />
<circle cx="295.16" cy="357.84" r="6" fill="hsl(243, 80%, 65%)" />
<circle cx="158.07" cy="207.23" r="2" fill="hsl(250, 80%, 65%)" />
<circle cx="361.43" cy="225.73" r="3" fill="hsl(257, 80%, 65%)" />
<circle cx="198.55" cy="349.78" r="4" fill="hsl(264, 80%, 65%)" />
<circle cx="234.96" cy="147.77" r="5" fill="hsl(271, 80%, 65%)" />
<circle cx="344.86" cy="321.77" r="6" fill="hsl(278, 80%, 65%)" />
<circle cx="145.77" cy="267.56" r="2" fill="hsl(285, 80%, 65%)" />
<circle cx="329.66" cy="172.81" r="3" fill="hsl(292, 80%, 65%)" />
<circle cx="257.89" cy="367.38" r="4" fill="hsl(299, 80%, 65%)" />
<circle cx="179.18" cy="174.94" r="5" fill="hsl(306, 80%, 65%)" />
<circle cx="367.68" cy="263.90" r="6" fill="hsl(313, 80%, 65%)" />
<circle cx="168.09" cy="325.79" r="2" fill="hsl(320, 80%, 65%)" />
<circle cx="273.72" cy="144.88" r="3" fill="hsl(327, 80%, 65%)" />
<circle cx="318.15" cy="350.14" r="4" fill="hsl(334, 80%, 65%)" />
<circle cx="146.31" cy="228.50" r="5" fill="hsl(341, 80%, 65%)" />
<circle cx="355.70" cy="202.06" r="6" fill="hsl(348, 80%, 65%)" />
<circle cx="218.83" cy="363.39" r="2" fill="hsl(355, 80%, 65%)" />
<circle cx="210.76" cy="151.46" r="3" fill="hsl(2, 80%, 65%)" />
<circle cx="360.23" cy="302.64" r="4" fill="hsl(9, 80%, 65%)" />
<circle cx="147.38" cy="292.10" r="5" fill="hsl(16, 80%, 65%)" />
<circle cx="311.84" cy="155.76" r="6" fill="hsl(23, 80%, 65%)" />
<circle cx="282.60" cy="367.90" r="2" fill="hsl(30, 80%, 65%)" />
<circle cx="160.58" cy="191.30" r="3" fill="hsl(37, 80%, 65%)" />
<circle cx="370.34" cy="239.21" r="4" fill="hsl(44, 80%, 65%)" />
<circle cx="182.86" cy="345.82" r="5" fill="hsl(51, 80%, 65%)" />
<circle cx="249.24" cy="140.09" r="6" fill="hsl(58, 80%, 65%)" />
<circle cx="339.47" cy="337.09" r="2" fill="hsl(65, 80%, 65%)" />
<circle cx="139.40" cy="252.59" r="3" fill="hsl(72, 80%, 65%)" />
<circle cx="344.48" cy="179.58" r="4" fill="hsl(79, 80%, 65%)" />
<circle cx="242.34" cy="372.39" r="5" fill="hsl(86, 80%, 65%)" />
<circle cx="187.30" cy="160.74" r="6" fill="hsl(93, 80%, 65%)" />
<circle cx="371.27" cy="279.89" r="2" fill="hsl(100, 80%, 65%)" />
<circle cx="154.64" cy="316.39" r="3" fill="hsl(107, 80%, 65%)" />
<circle cx="290.03" cy="142.75" r="4" fill="hsl(114, 80%, 65%)" />
<circle cx="307.53" cy="362.74" r="5" fill="hsl(121, 80%, 65%)" />
<circle cx="145.66" cy="212.00" r="6" fill="hsl(128, 80%, 65%)" />
<circle cx="367.33" cy="213.82" r="2" fill="hsl(135, 80%, 65%)" />
<circle cx="202.29" cy="362.54" r="3" fill="hsl(142, 80%, 65%)" />
<circle cx="223.57" cy="140.90" r="4" fill="hsl(149, 80%, 65%)" />
<circle cx="357.89" cy="319.10" r="5" fill="hsl(156, 80%, 65%)" />
<circle cx="137.99" cy="278.34" r="6" fill="hsl(163, 80%, 65%)" />
</svg>
