<svg xmlns="http://www.w3.org/2000/svg" width="512" height="512" viewBox="0 0 512 512">
<rect width="100%" height="100%" fill="black"/>
<circle cx="256.00" cy="256.00" r="2" fill="hsl(0, 80%, 65%)" />
<circle cx="250.33" cy="261.19" r="3" fill="hsl(10, 80%, 65%)" />
<circle cx="256.95" cy="245.17" r="4" fill="hsl(20, 80%, 65%)" />
<circle cx="264.10" cy="266.57" r="5" fill="hsl(30, 80%, 65%)" />
<circle cx="240.86" cy="253.32" r="6" fill="hsl(40, 80%, 65%)" />
<circle cx="270.50" cy="246.77" r="2" fill="hsl(50, 80%, 65%)" />
<circle cx="251.11" cy="274.18" r="3" fill="hsl(60, 80%, 65%)" />
<circle cx="246.63" cy="237.95" r="4" fill="hsl(70, 80%, 65%)" />
<circle cx="276.42" cy="263.46" r="5" fill="hsl(80, 80%, 65%)" />
<circle cx="234.68" cy="264.80" r="6" fill="hsl(90, 80%, 65%)" />
<circle cx="266.30" cy="233.98" r="2" fill="hsl(100, 80%, 65%)" />
<circle cx="263.63" cy="280.33" r="3" fill="hsl(110, 80%, 65%)" />
<circle cx="232.96" cy="242.65" r="4" fill="hsl(120, 80%, 65%)" />
<circle cx="283.07" cy="250.05" r="5" fill="hsl(130, 80%, 65%)" />
<circle cx="239.46" cy="279.53" r="6" fill="hsl(140, 80%, 65%)" />
<circle cx="252.17" cy="226.47" r="2" fill="hsl(150, 80%, 65%)" />
<circle cx="279.51" cy="275.82" r="3" fill="hsl(160, 80%, 65%)" />
<circle cx="224.33" cy="257.31" r="4" fill="hsl(170, 80%, 65%)" />
<circle cx="279.12" cy="232.99" r="5" fill="hsl(180, 80%, 65%)" />
<circle cx="254.45" cy="289.47" r="6" fill="hsl(190, 80%, 65%)" />
<circle cx="233.97" cy="229.60" r="2" fill="hsl(200, 80%, 65%)" />
<circle cx="290.91" cy="260.70" r="3" fill="hsl(210, 80%, 65%)" />
<circle cx="226.40" cy="276.59" r="4" fill="hsl(220, 80%, 65%)" />
<circle cx="264.09" cy="220.03" r="5" fill="hsl(230, 80%, 65%)" />
<circle cx="274.72" cy="288.68" r="6" fill="hsl(240, 80%, 65%)" />
<circle cx="219.38" cy="244.32" r="2" fill="hsl(250, 80%, 65%)" />
<circle cx="291.58" cy="239.56" r="3" fill="hsl(260, 80%, 65%)" />
<circle cx="240.58" cy="292.85" r="4" fill="hsl(270, 80%, 65%)" />
<circle cx="242.23" cy="217.72" r="5" fill="hsl(280, 80%, 65%)" />
<circle cx="292.65" cy="275.26" r="6" fill="hsl(290, 80%, 65%)" />
<circle cx="215.28" cy="266.73" r="2" fill="hsl(300, 80%, 65%)" />
<circle cx="279.15" cy="220.00" r="3" fill="hsl(310, 80%, 65%)" />
<circle cx="263.37" cy="298.86" r="4" fill="hsl(320, 80%, 65%)" />
<circle cx="221.09" cy="228.96" r="5" fill="hsl(330, 80%, 65%)" />
<circle cx="300.67" cy="252.30" r="6" fill="hsl(340, 80%, 65%)" />
<circle cx="225.12" cy="289.39" r="2" fill="hsl(350, 80%, 65%)" />
<circle cx="256.23" cy="209.88" r="3" fill="hsl(0, 80%, 65%)" />
<circle cx="287.42" cy="290.63" r="4" fill="hsl(10, 80%, 65%)" />
<circle cx="208.81" cy="251.63" r="5" fill="hsl(20, 80%, 65%)" />
<circle cx="294.24" cy="226.98" r="6" fill="hsl(30, 80%, 65%)" />
<circle cx="247.30" cy="303.83" r="2" fill="hsl(40, 80%, 65%)" />
<circle cx="229.78" cy="214.34" r="3" fill="hsl(50, 80%, 65%)" />
<circle cx="304.05" cy="269.17" r="4" fill="hsl(60, 80%, 65%)" />
<circle cx="211.15" cy="279.02" r="5" fill="hsl(70, 80%, 65%)" />
<circle cx="273.73" cy="208.19" r="6" fill="hsl(80, 80%, 65%)" />
<circle cx="275.44" cy="303.76" r="2" fill="hsl(90, 80%, 65%)" />
<circle cx="208.88" cy="233.67" r="3" fill="hsl(100, 80%, 65%)" />
<circle cx="306.36" cy="240.47" r="4" fill="hsl(110, 80%, 65%)" />
<circle cx="229.07" cy="301.95" r="5" fill="hsl(120, 80%, 65%)" />
<circle cx="244.70" cy="203.39" r="6" fill="hsl(130, 80%, 65%)" />
<circle cx="300.32" cy="287.48" r="2" fill="hsl(140, 80%, 65%)" />
<circle cx="201.52" cy="262.79" r="3" fill="hsl(150, 80%, 65%)" />
<circle cx="291.93" cy="213.79" r="4" fill="hsl(160, 80%, 65%)" />
<circle cx="258.04" cy="311.93" r="5" fill="hsl(170, 80%, 65%)" />
<circle cx="216.35" cy="215.76" r="6" fill="hsl(180, 80%, 65%)" />
<circle cx="312.94" cy="258.91" r="2" fill="hsl(190, 80%, 65%)" />
<circle cx="211.65" cy="292.64" r="3" fill="hsl(200, 80%, 65%)" />
<circle cx="264.02" cy="198.52" r="4" fill="hsl(210, 80%, 65%)" />
<circle cx="289.20" cy="304.22" r="5" fill="hsl(220, 80%, 65%)" />
<circle cx="198.46" cy="242.76" r="6" fill="hsl(230, 80%, 65%)" />
<circle cx="307.81" cy="226.65" r="2" fill="hsl(240, 80%, 65%)" />
<circle cx="237.47" cy="313.11" r="3" fill="hsl(250, 80%, 65%)" />
<circle cx="230.88" cy="200.93" r="4" fill="hsl(260, 80%, 65%)" />
<circle cx="312.17" cy="279.83" r="5" fill="hsl(270, 80%, 65%)" />
<circle cx="198.03" cy="276.53" r="6" fill="hsl(280, 80%, 65%)" />
<circle cx="285.10" cy="201.28" r="2" fill="hsl(290, 80%, 65%)" />
<circle cx="271.62" cy="316.47" r="3" fill="hsl(300, 80%, 65%)" />
<circle cx="203.24" cy="221.71" r="4" fill="hsl(310, 80%, 65%)" />
<circle cx="318.53" cy="245.57" r="5" fill="hsl(320, 80%, 65%)" />
<circle cx="216.65" cy="306.30" r="6" fill="hsl(330, 80%, 65%)" />
<circle cx="251.00" cy="191.88" r="2" fill="hsl(340, 80%, 65%)" />
<circle cx="303.33" cy="300.22" r="3" fill="hsl(350, 80%, 65%)" />
<circle cx="190.77" cy="255.36" r="4" fill="hsl(0, 80%, 65%)" />
<circle cx="304.86" cy="212.11" r="5" fill="hsl(10, 80%, 65%)" />
<circle cx="249.58" cy="321.82" r="6" fill="hsl(20, 80%, 65%)" />
<circle cx="216.01" cy="202.77" r="2" fill="hsl(30, 80%, 65%)" />
<circle cx="321.88" cy="268.32" r="3" fill="hsl(40, 80%, 65%)" />
<circle cx="198.73" cy="291.65" r="4" fill="hsl(50, 80%, 65%)" />
<circle cx="274.26" cy="190.61" r="5" fill="hsl(60, 80%, 65%)" />
<circle cx="286.90" cy="316.94" r="6" fill="hsl(70, 80%, 65%)" />
<circle cx="191.65" cy="231.78" r="2" fill="hsl(80, 80%, 65%)" />
<circle cx="320.21" cy="230.23" r="3" fill="hsl(90, 80%, 65%)" />
<circle cx="225.88" cy="318.76" r="4" fill="hsl(100, 80%, 65%)" />
<circle cx="235.69" cy="188.97" r="5" fill="hsl(110, 80%, 65%)" />
<circle cx="316.61" cy="291.92" r="6" fill="hsl(120, 80%, 65%)" />
<circle cx="186.63" cy="270.54" r="2" fill="hsl(130, 80%, 65%)" />
<circle cx="297.57" cy="198.08" r="3" fill="hsl(140, 80%, 65%)" />
<circle cx="264.52" cy="327.20" r="4" fill="hsl(150, 80%, 65%)" />
<circle cx="201.31" cy="208.99" r="5" fill="hsl(160, 80%, 65%)" />
<circle cx="328.49" cy="253.71" r="6" fill="hsl(170, 80%, 65%)" />
<circle cx="203.81" cy="306.94" r="2" fill="hsl(180, 80%, 65%)" />
<circle cx="260.10" cy="182.78" r="3" fill="hsl(190, 80%, 65%)" />
<circle cx="302.69" cy="313.07" r="4" fill="hsl(200, 80%, 65%)" />
<circle cx="182.63" cy="245.40" r="5" fill="hsl(210, 80%, 65%)" />
<circle cx="317.59" cy="214.03" r="6" fill="hsl(220, 80%, 65%)" />
<circle cx="238.84" cy="328.94" r="2" fill="hsl(230, 80%, 65%)" />
<circle cx="219.19" cy="190.29" r="3" fill="hsl(240, 80%, 65%)" />
<circle cx="327.90" cy="279.71" r="4" fill="hsl(250, 80%, 65%)" />
<circle cx="186.61" cy="287.24" r="5" fill="hsl(260, 80%, 65%)" />
<circle cx="286.22" cy="185.73" r="6" fill="hsl(270, 80%, 65%)" />
<circle cx="281.31" cy="328.59" r="2" fill="hsl(280, 80%, 65%)" />
<circle cx="187.97" cy="219.39" r="3" fill="hsl(290, 80%, 65%)" />
<circle cx="331.26" cy="236.94" r="4" fill="hsl(300, 80%, 65%)" />
<circle cx="213.17" cy="321.21" r="5" fill="hsl(310, 80%, 65%)" />
<circle cx="243.48" cy="178.61" r="6" fill="hsl(320, 80%, 65%)" />
<circle cx="317.81" cy="304.84" r="2" fill="hsl(330, 80%, 65%)" />
<circle cx="177.06" cy="261.76" r="3" fill="hsl(340, 80%, 65%)" />
<circle cx="310.57" cy="198.16" r="4" fill="hsl(350, 80%, 65%)" />
<circle cx="254.83" cy="335.88" r="5" fill="hsl(0, 80%, 65%)" />
<circle cx="202.66" cy="196.03" r="6" fill="hsl(10, 80%, 65%)" />
<circle cx="336.21" cy="264.22" r="2" fill="hsl(20, 80%, 65%)" />
<circle cx="191.01" cy="304.33" r="3" fill="hsl(30, 80%, 65%)" />
<circle cx="271.34" cy="176.10" r="4" fill="hsl(40, 80%, 65%)" />
<circle cx="298.85" cy="325.59" r="5" fill="hsl(50, 80%, 65%)" />
<circle cx="177.05" cy="233.53" r="6" fill="hsl(60, 80%, 65%)" />
<circle cx="329.71" cy="219.08" r="2" fill="hsl(70, 80%, 65%)" />
<circle cx="226.46" cy="333.35" r="3" fill="hsl(80, 80%, 65%)" />
<circle cx="225.40" cy="178.68" r="4" fill="hsl(90, 80%, 65%)" />
<circle cx="331.11" cy="292.50" r="5" fill="hsl(100, 80%, 65%)" />
<circle cx="175.62" cy="279.92" r="6" fill="hsl(110, 80%, 65%)" />
<circle cx="299.29" cy="183.76" r="2" fill="hsl(120, 80%, 65%)" />
<circle cx="272.95" cy="338.85" r="3" fill="hsl(130, 80%, 65%)" />
<circle cx="187.26" cy="206.15" r="4" fill="hsl(140, 80%, 65%)" />
<circle cx="340.70" cy="246.28" r="5" fill="hsl(150, 80%, 65%)" />
<circle cx="199.88" cy="320.64" r="6" fill="hsl(160, 80%, 65%)" />
<circle cx="253.71" cy="170.08" r="2" fill="hsl(170, 80%, 65%)" />
<circle cx="315.97" cy="318.05" r="3" fill="hsl(180, 80%, 65%)" />
<circle cx="169.53" cy="250.73" r="4" fill="hsl(190, 80%, 65%)" />
<circle cx="323.59" cy="201.26" r="5" fill="hsl(200, 80%, 65%)" />
<circle cx="243.09" cy="342.35" r="6" fill="hsl(210, 80%, 65%)" />
<circle cx="207.00" cy="183.33" r="2" fill="hsl(220, 80%, 65%)" />
<circle cx="341.55" cy="276.57" r="3" fill="hsl(230, 80%, 65%)" />
<circle cx="178.73" cy="298.79" r="4" fill="hsl(240, 80%, 65%)" />
<circle cx="284.18" cy="171.94" r="5" fill="hsl(250, 80%, 65%)" />
<circle cx="292.14" cy="337.32" r="6" fill="hsl(260, 80%, 65%)" />
<circle cx="174.12" cy="220.31" r="2" fill="hsl(270, 80%, 65%)" />
<circle cx="340.79" cy="226.90" r="3" fill="hsl(280, 80%, 65%)" />
<circle cx="212.98" cy="335.03" r="4" fill="hsl(290, 80%, 65%)" />
<circle cx="234.26" cy="168.35" r="5" fill="hsl(300, 80%, 65%)" />
<circle cx="331.51" cy="306.13" r="6" fill="hsl(310, 80%, 65%)" />
<circle cx="166.14" cy="270.09" r="2" fill="hsl(320, 80%, 65%)" />
<circle cx="312.94" cy="184.65" r="3" fill="hsl(330, 80%, 65%)" />
<circle cx="262.23" cy="347.39" r="4" fill="hsl(340, 80%, 65%)" />
<circle cx="189.44" cy="192.59" r="5" fill="hsl(350, 80%, 65%)" />
<circle cx="348.23" cy="257.80" r="6" fill="hsl(0, 80%, 65%)" />
<circle cx="186.54" cy="317.19" r="2" fill="hsl(10, 80%, 65%)" />
<circle cx="265.92" cy="163.64" r="3" fill="hsl(20, 80%, 65%)" />
<circle cx="311.26" cy="331.06" r="4" fill="hsl(30, 80%, 65%)" />
<circle cx="164.24" cy="237.92" r="5" fill="hsl(40, 80%, 65%)" />
<circle cx="336.14" cy="207.19" r="6" fill="hsl(50, 80%, 65%)" />
<circle cx="229.79" cy="346.43" r="2" fill="hsl(60, 80%, 65%)" />
<circle cx="214.10" cy="171.33" r="3" fill="hsl(70, 80%, 65%)" />
<circle cx="344.38" cy="290.24" r="4" fill="hsl(80, 80%, 65%)" />
<circle cx="167.41" cy="290.56" r="5" fill="hsl(90, 80%, 65%)" />
<circle cx="298.11" cy="170.40" r="6" fill="hsl(100, 80%, 65%)" />
<circle cx="282.86" cy="347.86" r="2" fill="hsl(110, 80%, 65%)" />
<circle cx="173.88" cy="206.24" r="3" fill="hsl(120, 80%, 65%)" />
<circle cx="350.46" cy="237.16" r="4" fill="hsl(130, 80%, 65%)" />
<circle cx="198.89" cy="333.95" r="5" fill="hsl(140, 80%, 65%)" />
<circle cx="245.42" cy="159.64" r="6" fill="hsl(150, 80%, 65%)" />
<circle cx="329.12" cy="320.10" r="2" fill="hsl(160, 80%, 65%)" />
<circle cx="158.48" cy="258.13" r="3" fill="hsl(170, 80%, 65%)" />
<circle cx="326.69" cy="188.35" r="4" fill="hsl(180, 80%, 65%)" />
<circle cx="249.55" cy="353.94" r="5" fill="hsl(190, 80%, 65%)" />
<circle cx="194.41" cy="179.20" r="6" fill="hsl(200, 80%, 65%)" />
<circle cx="353.59" cy="271.07" r="2" fill="hsl(210, 80%, 65%)" />
<circle cx="173.61" cy="310.97" r="3" fill="hsl(220, 80%, 65%)" />
<circle cx="279.69" cy="159.52" r="4" fill="hsl(230, 80%, 65%)" />
<circle cx="303.84" cy="343.40" r="5" fill="hsl(240, 80%, 65%)" />
<circle cx="161.40" cy="223.77" r="6" fill="hsl(250, 80%, 65%)" />
<circle cx="347.79" cy="215.74" r="2" fill="hsl(260, 80%, 65%)" />
<circle cx="215.39" cy="347.96" r="3" fill="hsl(270, 80%, 65%)" />
<circle cx="223.73" cy="160.48" r="4" fill="hsl(280, 80%, 65%)" />
<circle cx="344.57" cy="304.78" r="5" fill="hsl(290, 80%, 65%)" />
<circle cx="157.46" cy="279.93" r="6" fill="hsl(300, 80%, 65%)" />
<circle cx="312.66" cy="171.55" r="2" fill="hsl(310, 80%, 65%)" />
<circle cx="271.31" cy="356.83" r="3" fill="hsl(320, 80%, 65%)" />
<circle cx="176.38" cy="191.81" r="4" fill="hsl(330, 80%, 65%)" />
<circle cx="358.36" cy="249.53" r="5" fill="hsl(340, 80%, 65%)" />
<circle cx="184.70" cy="330.12" r="6" fill="hsl(350, 80%, 65%)" />
<circle cx="258.52" cy="152.89" r="2" fill="hsl(0, 80%, 65%)" />
<circle cx="323.98" cy="333.94" r="3" fill="hsl(10, 80%, 65%)" />
<circle cx="152.94" cy="244.42" r="4" fill="hsl(20, 80%, 65%)" />
<circle cx="340.05" cy="194.76" r="5" fill="hsl(30, 80%, 65%)" />
<circle cx="235.34" cy="358.21" r="6" fill="hsl(40, 80%, 65%)" />
<circle cx="202.05" cy="166.43" r="2" fill="hsl(50, 80%, 65%)" />
<circle cx="356.55" cy="285.68" r="3" fill="hsl(60, 80%, 65%)" />
<circle cx="161.55" cy="302.16" r="4" fill="hsl(70, 80%, 65%)" />
<circle cx="294.56" cy="157.90" r="5" fill="hsl(80, 80%, 65%)" />
<circle cx="293.93" cy="354.64" r="6" fill="hsl(90, 80%, 65%)" />
<circle cx="161.15" cy="208.76" r="2" fill="hsl(100, 80%, 65%)" />
<circle cx="358.12" cy="226.69" r="3" fill="hsl(110, 80%, 65%)" />
<circle cx="200.36" cy="346.83" r="4" fill="hsl(120, 80%, 65%)" />
<circle cx="235.62" cy="151.17" r="5" fill="hsl(130, 80%, 65%)" />
<circle cx="342.07" cy="319.70" r="6" fill="hsl(140, 80%, 65%)" />
<circle cx="149.24" cy="267.20" r="2" fill="hsl(150, 80%, 65%)" />
<circle cx="327.34" cy="175.42" r="3" fill="hsl(160, 80%, 65%)" />
<circle cx="257.83" cy="363.88" r="4" fill="hsl(170, 80%, 65%)" />
<circle cx="181.59" cy="177.49" r="5" fill="hsl(180, 80%, 65%)" />
<circle cx="364.17" cy="263.65" r="6" fill="hsl(190, 80%, 65%)" />
<circle cx="170.85" cy="323.60" r="2" fill="hsl(200, 80%, 65%)" />
<circle cx="273.16" cy="148.37" r="3" fill="hsl(210, 80%, 65%)" />
<circle cx="316.20" cy="347.18" r="4" fill="hsl(220, 80%, 65%)" />
<circle cx="149.76" cy="229.36" r="5" fill="hsl(230, 80%, 65%)" />
<circle cx="352.57" cy="203.75" r="6" fill="hsl(240, 80%, 65%)" />
<circle cx="220.00" cy="360.01" r="2" fill="hsl(250, 80%, 65%)" />
<circle cx="212.18" cy="154.74" r="3" fill="hsl(260, 80%, 65%)" />
<circle cx="356.96" cy="301.18" r="4" fill="hsl(270, 80%, 65%)" />
<circle cx="150.79" cy="290.97" r="5" fill="hsl(280, 80%, 65%)" />
<circle cx="310.09" cy="158.91" r="6" fill="hsl(290, 80%, 65%)" />
<circle cx="281.76" cy="364.38" r="2" fill="hsl(300, 80%, 65%)" />
<circle cx="163.57" cy="193.33" r="3" fill="hsl(310, 80%, 65%)" />
<circle cx="366.74" cy="239.74" r="4" fill="hsl(320, 80%, 65%)" />
<circle cx="185.16" cy="343.00" r="5" fill="hsl(330, 80%, 65%)" />
<circle cx="249.45" cy="143.73" r="6" fill="hsl(340, 80%, 65%)" />
<circle cx="336.85" cy="334.54" r="2" fill="hsl(350, 80%, 65%)" />
<circle cx="143.07" cy="252.69" r="3" fill="hsl(0, 80%, 65%)" />
<circle cx="341.71" cy="181.98" r="4" fill="hsl(10, 80%, 65%)" />
<circle cx="242.77" cy="368.73" r="5" fill="hsl(20, 80%, 65%)" />
<circle cx="189.45" cy="163.73" r="6" fill="hsl(30, 80%, 65%)" />
<circle cx="367.65" cy="279.14" r="2" fill="hsl(40, 80%, 65%)" />
<circle cx="157.82" cy="314.49" r="3" fill="hsl(50, 80%, 65%)" />
<circle cx="288.96" cy="146.30" r="4" fill="hsl(60, 80%, 65%)" />
<circle cx="305.91" cy="359.38" r="5" fill="hsl(70, 80%, 65%)" />
<circle cx="149.13" cy="213.39" r="6" fill="hsl(80, 80%, 65%)" />
<circle cx="363.83" cy="215.14" r="2" fill="hsl(90, 80%, 65%)" />
<circle cx="203.97" cy="359.20" r="3" fill="hsl(100, 80%, 65%)" />
<circle cx="224.59" cy="144.52" r="4" fill="hsl(110, 80%, 65%)" />
<circle cx="354.69" cy="317.12" r="5" fill="hsl(120, 80%, 65%)" />
<circle cx="141.70" cy="277.64" r="6" fill="hsl(130, 80%, 65%)" />
<circle cx="325.81" cy="162.63" r="2" fill="hsl(140, 80%, 65%)" />
<circle cx="267.62" cy="372.26" r="3" fill="hsl(150, 80%, 65%)" />
<circle cx="168.71" cy="177.95" r="4" fill="hsl(160, 80%, 65%)" />
<circle cx="373.34" cy="254.58" r="5" fill="hsl(170, 80%, 65%)" />
<circle cx="170.25" cy="336.47" r="6" fill="hsl(180, 80%, 65%)" />
<circle cx="264.89" cy="138.49" r="2" fill="hsl(190, 80%, 65%)" />
<circle cx="328.98" cy="348.85" r="3" fill="hsl(200, 80%, 65%)" />
<circle cx="139.22" cy="236.79" r="4" fill="hsl(210, 80%, 65%)" />
<circle cx="355.29" cy="191.14" r="5" fill="hsl(220, 80%, 65%)" />
<circle cx="226.53" cy="371.13" r="6" fill="hsl(230, 80%, 65%)" />
<circle cx="199.84" cy="150.98" r="2" fill="hsl(240, 80%, 65%)" />
<circle cx="368.59" cy="295.58" r="3" fill="hsl(250, 80%, 65%)" />
<circle cx="146.02" cy="302.96" r="4" fill="hsl(260, 80%, 65%)" />
<circle cx="305.48" cy="146.86" r="5" fill="hsl(270, 80%, 65%)" />
<circle cx="293.32" cy="370.14" r="6" fill="hsl(280, 80%, 65%)" />
<circle cx="151.17" cy="196.93" r="2" fill="hsl(290, 80%, 65%)" />
<circle cx="373.44" cy="228.69" r="3" fill="hsl(300, 80%, 65%)" />
<circle cx="187.71" cy="355.67" r="4" fill="hsl(310, 80%, 65%)" />
<circle cx="239.00" cy="136.14" r="5" fill="hsl(320, 80%, 65%)" />
<circle cx="349.69" cy="333.05" r="6" fill="hsl(330, 80%, 65%)" />
<circle cx="134.62" cy="262.49" r="2" fill="hsl(340, 80%, 65%)" />
<circle cx="341.29" cy="169.06" r="3" fill="hsl(350, 80%, 65%)" />
<circle cx="251.83" cy="377.96" r="4" fill="hsl(0, 80%, 65%)" />
<circle cx="176.53" cy="163.07" r="5" fill="hsl(10, 80%, 65%)" />
<circle cx="377.61" cy="270.87" r="6" fill="hsl(20, 80%, 65%)" />
<circle cx="156.09" cy="327.32" r="2" fill="hsl(30, 80%, 65%)" />
<circle cx="281.55" cy="135.68" r="3" fill="hsl(40, 80%, 65%)" />
<circle cx="318.56" cy="362.18" r="4" fill="hsl(50, 80%, 65%)" />
<circle cx="137.92" cy="219.89" r="5" fill="hsl(60, 80%, 65%)" />
<circle cx="367.68" cy="202.76" r="6" fill="hsl(70, 80%, 65%)" />
<circle cx="209.53" cy="370.92" r="2" fill="hsl(80, 80%, 65%)" />
<circle cx="212.56" cy="139.65" r="3" fill="hsl(90, 80%, 65%)" />
<circle cx="366.84" cy="312.56" r="4" fill="hsl(100, 80%, 65%)" />
<circle cx="135.84" cy="289.23" r="5" fill="hsl(110, 80%, 65%)" />
</svg>
