<svg xmlns="http://www.w3.org/2000/svg" width="512" height="512" viewBox="0 0 512 512">
<rect width="100%" height="100%" fill="#0b1020"/>
<circle cx="410" cy="73" r="40" fill="#f8f3c9" opacity="0.95" />
<circle cx="459.0" cy="68.0" r="3.2" fill="white" />
<circle cx="103.0" cy="110.0" r="1.9" fill="white" />
<circle cx="476.0" cy="137.0" r="2.8" fill="white" />
<circle cx="145.0" cy="135.0" r="2.0" fill="white" />
<circle cx="437.0" cy="115.0" r="3.1" fill="white" />
<circle cx="87.0" cy="52.0" r="1.6" fill="white" />
<circle cx="87.0" cy="38.0" r="3.4" fill="white" />
<circle cx="88.0" cy="26.0" r="2.6" fill="white" />
<path d="M 20 430 C 120 419, 177 451, 308 425 S 450 404, 512 434" stroke="#5dade2" stroke-width="7" fill="none" opacity="0.85" />
<line x1="0" y1="387" x2="512" y2="387" stroke="#445566" stroke-width="3" />
<polygon points="191,363 231,303 271,323 291,293 311,313 323,353 291,375 241,379" fill="#1e1e1e" />
<polygon points="266,303 279,281 289,305" fill="#1e1e1e" />
<line x1="321" y1="348" x2="351" y2="323" stroke="#1e1e1e" stroke-width="6" />
</svg>
