<svg xmlns="http://www.w3.org/2000/svg" width="512" height="512" viewBox="0 0 512 512">
<rect width="100%" height="100%" fill="#0b1020"/>
<circle cx="451" cy="88" r="46" fill="#f8f3c9" opacity="0.95" />
<circle cx="351.0" cy="118.0" r="1.6" fill="white" />
<circle cx="54.0" cy="123.0" r="2.9" fill="white" />
<circle cx="329.0" cy="158.0" r="2.6" fill="white" />
<circle cx="439.0" cy="105.0" r="1.7" fill="white" />
<circle cx="193.0" cy="122.0" r="2.7" fill="white" />
<circle cx="227.0" cy="173.0" r="2.2" fill="white" />
<circle cx="457.0" cy="30.0" r="2.6" fill="white" />
<circle cx="43.0" cy="56.0" r="3.4" fill="white" />
<circle cx="325.0" cy="39.0" r="3.4" fill="white" />
<circle cx="292.0" cy="178.0" r="3.3" fill="white" />
<circle cx="37.0" cy="161.0" r="2.8" fill="white" />
<circle cx="248.0" cy="174.0" r="1.6" fill="white" />
<path d="M 20 430 C 118 414, 162 448, 282 428 S 450 403, 512 433" stroke="#5dade2" stroke-width="6" fill="none" opacity="0.85" />
<line x1="0" y1="407" x2="512" y2="407" stroke="#445566" stroke-width="2" />
<polygon points="155,357 195,297 235,317 255,287 275,307 287,347 255,369 205,373" fill="#1e1e1e" />
<polygon points="230,297 243,275 253,299" fill="#1e1e1e" />
<line x1="285" y1="342" x2="315" y2="317" stroke="#1e1e1e" stroke-width="6" />
</svg>
