<svg xmlns="http://www.w3.org/2000/svg" width="512" height="512" viewBox="0 0 512 512">
<rect width="100%" height="100%" fill="#0b1020"/>
<circle cx="376" cy="100" r="48" fill="#f8f3c9" opacity="0.95" />
<circle cx="387.0" cy="26.0" r="2.4" fill="white" />
<circle cx="136.0" cy="92.0" r="1.6" fill="white" />
<circle cx="224.0" cy="95.0" r="2.9" fill="white" />
<circle cx="230.0" cy="124.0" r="2.7" fill="white" />
<circle cx="344.0" cy="130.0" r="2.0" fill="white" />
<circle cx="317.0" cy="34.0" r="2.4" fill="white" />
<circle cx="448.0" cy="177.0" r="1.6" fill="white" />
<circle cx="243.0" cy="164.0" r="1.8" fill="white" />
<path d="M 20 430 C 106 415, 185 458, 294 426 S 450 401, 512 431" stroke="#5dade2" stroke-width="5" fill="none" opacity="0.85" />
<line x1="0" y1="385" x2="512" y2="385" stroke="#445566" stroke-width="3" />
<polygon points="197,352 237,292 277,312 297,282 317,302 329,342 297,364 247,368" fill="#1e1e1e" />
<polygon points="272,292 285,270 295,294" fill="#1e1e1e" />
<line x1="327" y1="337" x2="357" y2="312" stroke="#1e1e1e" stroke-width="6" />
</svg>
