<svg xmlns="http://www.w3.org/2000/svg" width="512" height="512" viewBox="0 0 512 512">
<rect width="100%" height="100%" fill="#0b1020"/>
<circle cx="415" cy="69" r="53" fill="#f8f3c9" opacity="0.95" />
<circle cx="210.0" cy="155.0" r="1.6" fill="white" />
<circle cx="247.0" cy="115.0" r="2.5" fill="white" />
<circle cx="60.0" cy="59.0" r="2.3" fill="white" />
<circle cx="306.0" cy="160.0" r="2.0" fill="white" />
<circle cx="440.0" cy="136.0" r="3.4" fill="white" />
<circle cx="153.0" cy="30.0" r="1.9" fill="white" />
<path d="M 20 430 C 112 418, 179 447, 313 420 S 450 405, 512 435" stroke="#5dade2" stroke-width="6" fill="none" opacity="0.85" />
<line x1="0" y1="391" x2="512" y2="391" stroke="#445566" stroke-width="2" />
<polygon points="145,355 185,295 225,315 245,285 265,305 277,345 245,367 195,371" fill="#1e1e1e" />
<polygon points="220,295 233,273 243,297" fill="#1e1e1e" />
<line x1="275" y1="340" x2="305" y2="315" stroke="#1e1e1e" stroke-width="6" />
</svg>
