<svg xmlns="http://www.w3.org/2000/svg" width="512" height="512" viewBox="0 0 512 512">
<rect width="100%" height="100%" fill="black"/>
<circle cx="274" cy="165" r="2" fill="hsl(0, 80%, 65%)" />
<circle cx="58" cy="375" r="6" fill="hsl(12, 80%, 65%)" />
<circle cx="201" cy="362" r="5" fill="hsl(12, 80%, 65%)" />
<circle cx="311" cy="113" r="5" fill="hsl(39, 80%, 65%)" />
<circle cx="222" cy="439" r="7" fill="hsl(32, 80%, 65%)" />
<circle cx="371" cy="361" r="6" fill="hsl(40, 80%, 65%)" />
<circle cx="304" cy="242" r="9" fill="hsl(48, 80%, 65%)" />
<circle cx="437" cy="396" r="8" fill="hsl(84, 80%, 65%)" />
<circle cx="220" cy="357" r="7" fill="hsl(104, 80%, 65%)" />
<circle cx="284" cy="441" r="4" fill="hsl(90, 80%, 65%)" />
<circle cx="191" cy="423" r="8" fill="hsl(70, 80%, 65%)" />
<circle cx="443" cy="89" r="9" fill="hsl(66, 80%, 65%)" />
<circle cx="140" cy="64" r="5" fill="hsl(84, 80%, 65%)" />
<circle cx="57" cy="139" r="7" fill="hsl(169, 80%, 65%)" />
<circle cx="435" cy="452" r="8" fill="hsl(182, 80%, 65%)" />
<circle cx="415" cy="144" r="4" fill="hsl(90, 80%, 65%)" />
<circle cx="79" cy="237" r="3" fill="hsl(208, 80%, 65%)" />
<circle cx="183" cy="353" r="9" fill="hsl(204, 80%, 65%)" />
<circle cx="228" cy="263" r="5" fill="hsl(216, 80%, 65%)" />
<circle cx="352" cy="323" r="5" fill="hsl(209, 80%, 65%)" />
<circle cx="326" cy="437" r="8" fill="hsl(120, 80%, 65%)" />
<circle cx="307" cy="84" r="4" fill="hsl(252, 80%, 65%)" />
<circle cx="317" cy="251" r="9" fill="hsl(176, 80%, 65%)" />
<circle cx="258" cy="312" r="6" fill="hsl(161, 80%, 65%)" />
<circle cx="364" cy="207" r="3" fill="hsl(264, 80%, 65%)" />
<circle cx="190" cy="447" r="6" fill="hsl(175, 80%, 65%)" />
<circle cx="460" cy="437" r="2" fill="hsl(182, 80%, 65%)" />
<circle cx="189" cy="320" r="2" fill="hsl(216, 80%, 65%)" />
<circle cx="274" cy="345" r="8" fill="hsl(280, 80%, 65%)" />
<circle cx="335" cy="66" r="3" fill="hsl(261, 80%, 65%)" />
<circle cx="338" cy="187" r="6" fill="hsl(0, 80%, 65%)" />
<circle cx="394" cy="62" r="2" fill="hsl(43, 80%, 65%)" />
<circle cx="64" cy="440" r="7" fill="hsl(24, 80%, 65%)" />
<circle cx="336" cy="323" r="3" fill="hsl(36, 80%, 65%)" />
<circle cx="111" cy="341" r="9" fill="hsl(82, 80%, 65%)" />
<circle cx="141" cy="454" r="4" fill="hsl(350, 80%, 65%)" />
<circle cx="332" cy="442" r="6" fill="hsl(108, 80%, 65%)" />
<circle cx="133" cy="321" r="9" fill="hsl(333, 80%, 65%)" />
<circle cx="73" cy="303" r="6" fill="hsl(228, 80%, 65%)" />
<circle cx="236" cy="123" r="9" fill="hsl(108, 80%, 65%)" />
<circle cx="286" cy="459" r="6" fill="hsl(240, 80%, 65%)" />
<circle cx="411" cy="77" r="5" fill="hsl(287, 80%, 65%)" />
<circle cx="82" cy="448" r="3" fill="hsl(186, 80%, 65%)" />
<circle cx="228" cy="262" r="8" fill="hsl(70, 80%, 65%)" />
<circle cx="432" cy="108" r="3" fill="hsl(36, 80%, 65%)" />
<circle cx="112" cy="231" r="6" fill="hsl(135, 80%, 65%)" />
<circle cx="390" cy="87" r="7" fill="hsl(276, 80%, 65%)" />
<circle cx="132" cy="368" r="6" fill="hsl(157, 80%, 65%)" />
<circle cx="354" cy="342" r="8" fill="hsl(216, 80%, 65%)" />
<circle cx="119" cy="277" r="5" fill="hsl(32, 80%, 65%)" />
<circle cx="303" cy="63" r="6" fill="hsl(40, 80%, 65%)" />
<circle cx="125" cy="307" r="8" fill="hsl(252, 80%, 65%)" />
<circle cx="284" cy="331" r="2" fill="hsl(108, 80%, 65%)" />
<circle cx="413" cy="397" r="8" fill="hsl(329, 80%, 65%)" />
<circle cx="399" cy="189" r="5" fill="hsl(18, 80%, 65%)" />
<circle cx="184" cy="55" r="7" fill="hsl(275, 80%, 65%)" />
<circle cx="407" cy="73" r="4" fill="hsl(8, 80%, 65%)" />
<circle cx="182" cy="122" r="7" fill="hsl(210, 80%, 65%)" />
<circle cx="344" cy="268" r="5" fill="hsl(220, 80%, 65%)" />
<circle cx="185" cy="402" r="3" fill="hsl(230, 80%, 65%)" />
<circle cx="274" cy="233" r="2" fill="hsl(300, 80%, 65%)" />
<circle cx="352" cy="268" r="3" fill="hsl(67, 80%, 65%)" />
<circle cx="417" cy="287" r="5" fill="hsl(24, 80%, 65%)" />
<circle cx="337" cy="344" r="9" fill="hsl(144, 80%, 65%)" />
<circle cx="189" cy="117" r="5" fill="hsl(112, 80%, 65%)" />
<circle cx="382" cy="158" r="2" fill="hsl(125, 80%, 65%)" />
<circle cx="169" cy="344" r="9" fill="hsl(300, 80%, 65%)" />
<circle cx="329" cy="59" r="3" fill="hsl(335, 80%, 65%)" />
<circle cx="454" cy="150" r="6" fill="hsl(96, 80%, 65%)" />
<circle cx="53" cy="317" r="7" fill="hsl(261, 80%, 65%)" />
<circle cx="86" cy="118" r="8" fill="hsl(190, 80%, 65%)" />
<circle cx="239" cy="183" r="2" fill="hsl(61, 80%, 65%)" />
<circle cx="361" cy="292" r="6" fill="hsl(144, 80%, 65%)" />
<circle cx="459" cy="63" r="5" fill="hsl(78, 80%, 65%)" />
<circle cx="298" cy="296" r="4" fill="hsl(232, 80%, 65%)" />
<circle cx="233" cy="257" r="2" fill="hsl(90, 80%, 65%)" />
<circle cx="286" cy="389" r="6" fill="hsl(172, 80%, 65%)" />
<circle cx="153" cy="149" r="8" fill="hsl(102, 80%, 65%)" />
<circle cx="64" cy="129" r="3" fill="hsl(342, 80%, 65%)" />
<circle cx="77" cy="306" r="3" fill="hsl(114, 80%, 65%)" />
<circle cx="204" cy="337" r="6" fill="hsl(80, 80%, 65%)" />
<circle cx="120" cy="74" r="3" fill="hsl(90, 80%, 65%)" />
<circle cx="90" cy="111" r="4" fill="hsl(346, 80%, 65%)" />
<circle cx="459" cy="456" r="3" fill="hsl(55, 80%, 65%)" />
<circle cx="401" cy="133" r="8" fill="hsl(36, 80%, 65%)" />
<circle cx="54" cy="279" r="9" fill="hsl(235, 80%, 65%)" />
<circle cx="462" cy="418" r="2" fill="hsl(242, 80%, 65%)" />
<circle cx="121" cy="417" r="5" fill="hsl(336, 80%, 65%)" />
<circle cx="335" cy="217" r="9" fill="hsl(72, 80%, 65%)" />
<circle cx="334" cy="138" r="8" fill="hsl(77, 80%, 65%)" />
<circle cx="210" cy="377" r="2" fill="hsl(90, 80%, 65%)" />
<circle cx="343" cy="414" r="3" fill="hsl(103, 80%, 65%)" />
<circle cx="393" cy="358" r="3" fill="hsl(284, 80%, 65%)" />
<circle cx="298" cy="442" r="6" fill="hsl(198, 80%, 65%)" />
<circle cx="205" cy="416" r="9" fill="hsl(142, 80%, 65%)" />
<circle cx="152" cy="109" r="2" fill="hsl(115, 80%, 65%)" />
<circle cx="138" cy="209" r="3" fill="hsl(72, 80%, 65%)" />
<circle cx="71" cy="51" r="8" fill="hsl(319, 80%, 65%)" />
<circle cx="224" cy="313" r="8" fill="hsl(64, 80%, 65%)" />
<circle cx="88" cy="450" r="9" fill="hsl(333, 80%, 65%)" />
<circle cx="114" cy="114" r="5" fill="hsl(220, 80%, 65%)" />
<circle cx="150" cy="245" r="9" fill="hsl(290, 80%, 65%)" />
<circle cx="68" cy="331" r="4" fill="hsl(300, 80%, 65%)" />
<circle cx="423" cy="349" r="5" fill="hsl(53, 80%, 65%)" />
<circle cx="238" cy="312" r="9" fill="hsl(320, 80%, 65%)" />
<circle cx="85" cy="419" r="9" fill="hsl(120, 80%, 65%)" />
<circle cx="67" cy="350" r="2" fill="hsl(234, 80%, 65%)" />
<circle cx="184" cy="311" r="6" fill="hsl(175, 80%, 65%)" />
<circle cx="233" cy="337" r="5" fill="hsl(180, 80%, 65%)" />
<circle cx="313" cy="300" r="4" fill="hsl(185, 80%, 65%)" />
<circle cx="222" cy="99" r="9" fill="hsl(270, 80%, 65%)" />
<circle cx="101" cy="211" r="4" fill="hsl(141, 80%, 65%)" />
<circle cx="335" cy="169" r="8" fill="hsl(200, 80%, 65%)" />
<circle cx="358" cy="393" r="8" fill="hsl(29, 80%, 65%)" />
<circle cx="269" cy="362" r="6" fill="hsl(306, 80%, 65%)" />
<circle cx="284" cy="59" r="7" fill="hsl(330, 80%, 65%)" />
<circle cx="258" cy="219" r="3" fill="hsl(196, 80%, 65%)" />
<circle cx="308" cy="176" r="2" fill="hsl(324, 80%, 65%)" />
<circle cx="324" cy="93" r="8" fill="hsl(106, 80%, 65%)" />
<circle cx="188" cy="194" r="3" fill="hsl(107, 80%, 65%)" />
<circle cx="343" cy="415" r="5" fill="hsl(0, 80%, 65%)" />
<circle cx="430" cy="51" r="3" fill="hsl(245, 80%, 65%)" />
<circle cx="453" cy="126" r="3" fill="hsl(256, 80%, 65%)" />
<circle cx="211" cy="255" r="8" fill="hsl(264, 80%, 65%)" />
<circle cx="354" cy="104" r="3" fill="hsl(36, 80%, 65%)" />
<circle cx="428" cy="246" r="9" fill="hsl(265, 80%, 65%)" />
<circle cx="331" cy="273" r="5" fill="hsl(72, 80%, 65%)" />
<circle cx="273" cy="350" r="8" fill="hsl(211, 80%, 65%)" />
<circle cx="297" cy="352" r="3" fill="hsl(280, 80%, 65%)" />
<circle cx="213" cy="372" r="7" fill="hsl(54, 80%, 65%)" />
<circle cx="273" cy="315" r="5" fill="hsl(250, 80%, 65%)" />
<circle cx="339" cy="292" r="6" fill="hsl(197, 80%, 65%)" />
<circle cx="203" cy="436" r="6" fill="hsl(72, 80%, 65%)" />
<circle cx="271" cy="122" r="8" fill="hsl(211, 80%, 65%)" />
<circle cx="346" cy="225" r="5" fill="hsl(260, 80%, 65%)" />
<circle cx="261" cy="328" r="6" fill="hsl(270, 80%, 65%)" />
<circle cx="357" cy="355" r="8" fill="hsl(232, 80%, 65%)" />
<circle cx="250" cy="261" r="9" fill="hsl(290, 80%, 65%)" />
<circle cx="159" cy="132" r="2" fill="hsl(246, 80%, 65%)" />
<circle cx="222" cy="435" r="7" fill="hsl(7, 80%, 65%)" />
<circle cx="270" cy="326" r="9" fill="hsl(240, 80%, 65%)" />
<circle cx="110" cy="378" r="7" fill="hsl(48, 80%, 65%)" />
<circle cx="53" cy="391" r="5" fill="hsl(274, 80%, 65%)" />
<circle cx="368" cy="127" r="4" fill="hsl(64, 80%, 65%)" />
<circle cx="184" cy="281" r="6" fill="hsl(0, 80%, 65%)" />
<circle cx="139" cy="409" r="4" fill="hsl(155, 80%, 65%)" />
<circle cx="207" cy="351" r="5" fill="hsl(20, 80%, 65%)" />
<circle cx="144" cy="322" r="3" fill="hsl(162, 80%, 65%)" />
<circle cx="359" cy="170" r="3" fill="hsl(316, 80%, 65%)" />
<circle cx="327" cy="79" r="8" fill="hsl(323, 80%, 65%)" />
<circle cx="117" cy="163" r="7" fill="hsl(30, 80%, 65%)" />
<circle cx="362" cy="280" r="8" fill="hsl(221, 80%, 65%)" />
<circle cx="346" cy="383" r="5" fill="hsl(232, 80%, 65%)" />
<circle cx="98" cy="65" r="5" fill="hsl(90, 80%, 65%)" />
<circle cx="300" cy="92" r="4" fill="hsl(152, 80%, 65%)" />
<circle cx="446" cy="118" r="9" fill="hsl(160, 80%, 65%)" />
<circle cx="92" cy="89" r="7" fill="hsl(168, 80%, 65%)" />
<circle cx="218" cy="459" r="6" fill="hsl(130, 80%, 65%)" />
<circle cx="275" cy="349" r="5" fill="hsl(298, 80%, 65%)" />
<circle cx="320" cy="314" r="9" fill="hsl(33, 80%, 65%)" />
<circle cx="415" cy="387" r="9" fill="hsl(200, 80%, 65%)" />
<circle cx="166" cy="310" r="4" fill="hsl(170, 80%, 65%)" />
<circle cx="238" cy="308" r="3" fill="hsl(342, 80%, 65%)" />
<circle cx="358" cy="69" r="7" fill="hsl(353, 80%, 65%)" />
<circle cx="226" cy="89" r="2" fill="hsl(332, 80%, 65%)" />
<circle cx="430" cy="241" r="4" fill="hsl(45, 80%, 65%)" />
<circle cx="101" cy="155" r="9" fill="hsl(26, 80%, 65%)" />
<circle cx="127" cy="339" r="3" fill="hsl(256, 80%, 65%)" />
<circle cx="357" cy="281" r="2" fill="hsl(264, 80%, 65%)" />
<circle cx="52" cy="317" r="4" fill="hsl(125, 80%, 65%)" />
<circle cx="75" cy="120" r="8" fill="hsl(70, 80%, 65%)" />
<circle cx="338" cy="216" r="8" fill="hsl(306, 80%, 65%)" />
<circle cx="67" cy="257" r="5" fill="hsl(92, 80%, 65%)" />
<circle cx="283" cy="453" r="3" fill="hsl(318, 80%, 65%)" />
<circle cx="211" cy="318" r="8" fill="hsl(150, 80%, 65%)" />
<circle cx="439" cy="382" r="4" fill="hsl(145, 80%, 65%)" />
<circle cx="80" cy="234" r="9" fill="hsl(320, 80%, 65%)" />
<circle cx="460" cy="433" r="5" fill="hsl(336, 80%, 65%)" />
<circle cx="267" cy="457" r="4" fill="hsl(154, 80%, 65%)" />
<circle cx="290" cy="337" r="7" fill="hsl(171, 80%, 65%)" />
<circle cx="240" cy="411" r="7" fill="hsl(180, 80%, 65%)" />
<circle cx="170" cy="433" r="3" fill="hsl(191, 80%, 65%)" />
<circle cx="440" cy="191" r="2" fill="hsl(206, 80%, 65%)" />
<circle cx="56" cy="424" r="9" fill="hsl(219, 80%, 65%)" />
<circle cx="313" cy="173" r="4" fill="hsl(216, 80%, 65%)" />
<circle cx="159" cy="135" r="8" fill="hsl(50, 80%, 65%)" />
<circle cx="266" cy="301" r="8" fill="hsl(258, 80%, 65%)" />
<circle cx="198" cy="453" r="8" fill="hsl(215, 80%, 65%)" />
<circle cx="366" cy="238" r="9" fill="hsl(252, 80%, 65%)" />
<circle cx="152" cy="309" r="7" fill="hsl(54, 80%, 65%)" />
<circle cx="203" cy="104" r="5" fill="hsl(290, 80%, 65%)" />
<circle cx="109" cy="248" r="9" fill="hsl(257, 80%, 65%)" />
<circle cx="105" cy="306" r="4" fill="hsl(288, 80%, 65%)" />
<circle cx="301" cy="367" r="8" fill="hsl(245, 80%, 65%)" />
<circle cx="275" cy="206" r="7" fill="hsl(250, 80%, 65%)" />
<circle cx="232" cy="455" r="7" fill="hsl(255, 80%, 65%)" />
<circle cx="336" cy="460" r="4" fill="hsl(160, 80%, 65%)" />
<circle cx="182" cy="156" r="2" fill="hsl(265, 80%, 65%)" />
<circle cx="295" cy="122" r="9" fill="hsl(18, 80%, 65%)" />
<circle cx="209" cy="377" r="9" fill="hsl(67, 80%, 65%)" />
<circle cx="212" cy="53" r="7" fill="hsl(280, 80%, 65%)" />
<circle cx="218" cy="415" r="7" fill="hsl(210, 80%, 65%)" />
<circle cx="399" cy="410" r="7" fill="hsl(18, 80%, 65%)" />
<circle cx="102" cy="281" r="4" fill="hsl(138, 80%, 65%)" />
<circle cx="247" cy="83" r="2" fill="hsl(144, 80%, 65%)" />
<circle cx="153" cy="139" r="5" fill="hsl(300, 80%, 65%)" />
<circle cx="287" cy="442" r="9" fill="hsl(106, 80%, 65%)" />
<circle cx="77" cy="270" r="4" fill="hsl(171, 80%, 65%)" />
<circle cx="390" cy="299" r="2" fill="hsl(128, 80%, 65%)" />
<circle cx="118" cy="243" r="5" fill="hsl(197, 80%, 65%)" />
<circle cx="274" cy="454" r="2" fill="hsl(150, 80%, 65%)" />
<circle cx="233" cy="262" r="9" fill="hsl(12, 80%, 65%)" />
<circle cx="417" cy="122" r="8" fill="hsl(44, 80%, 65%)" />
<circle cx="140" cy="257" r="6" fill="hsl(264, 80%, 65%)" />
<circle cx="212" cy="372" r="7" fill="hsl(48, 80%, 65%)" />
<circle cx="211" cy="67" r="7" fill="hsl(135, 80%, 65%)" />
<circle cx="421" cy="257" r="6" fill="hsl(216, 80%, 65%)" />
<circle cx="279" cy="334" r="5" fill="hsl(84, 80%, 65%)" />
<circle cx="175" cy="244" r="6" fill="hsl(86, 80%, 65%)" />
<circle cx="390" cy="383" r="9" fill="hsl(93, 80%, 65%)" />
<circle cx="218" cy="461" r="9" fill="hsl(340, 80%, 65%)" />
<circle cx="206" cy="388" r="7" fill="hsl(353, 80%, 65%)" />
<circle cx="448" cy="290" r="7" fill="hsl(144, 80%, 65%)" />
<circle cx="401" cy="233" r="7" fill="hsl(19, 80%, 65%)" />
<line x1="385" y1="375" x2="381" y2="449" stroke="#223344" stroke-width="1"/>
<line x1="148" y1="192" x2="166" y2="233" stroke="#223344" stroke-width="1"/>
<line x1="215" y1="263" x2="143" y2="357" stroke="#223344" stroke-width="1"/>
<line x1="364" y1="101" x2="407" y2="83" stroke="#223344" stroke-width="1"/>
<line x1="415" y1="121" x2="391" y2="119" stroke="#223344" stroke-width="1"/>
<line x1="130" y1="203" x2="90" y2="152" stroke="#223344" stroke-width="1"/>
<line x1="91" y1="371" x2="172" y2="445" stroke="#223344" stroke-width="1"/>
<line x1="267" y1="400" x2="300" y2="453" stroke="#223344" stroke-width="1"/>
<line x1="276" y1="351" x2="185" y2="349" stroke="#223344" stroke-width="1"/>
<line x1="334" y1="393" x2="271" y2="318" stroke="#223344" stroke-width="1"/>
<line x1="55" y1="223" x2="134" y2="281" stroke="#223344" stroke-width="1"/>
<line x1="249" y1="282" x2="269" y2="351" stroke="#223344" stroke-width="1"/>
<line x1="347" y1="392" x2="325" y2="325" stroke="#223344" stroke-width="1"/>
<line x1="190" y1="263" x2="265" y2="223" stroke="#223344" stroke-width="1"/>
<line x1="264" y1="71" x2="228" y2="-2" stroke="#223344" stroke-width="1"/>
<line x1="296" y1="373" x2="270" y2="308" stroke="#223344" stroke-width="1"/>
<line x1="62" y1="197" x2="-10" y2="280" stroke="#223344" stroke-width="1"/>
<line x1="160" y1="79" x2="212" y2="48" stroke="#223344" stroke-width="1"/>
<line x1="174" y1="454" x2="243" y2="396" stroke="#223344" stroke-width="1"/>
<line x1="53" y1="436" x2="123" y2="345" stroke="#223344" stroke-width="1"/>
<line x1="446" y1="84" x2="386" y2="77" stroke="#223344" stroke-width="1"/>
<line x1="311" y1="79" x2="350" y2="42" stroke="#223344" stroke-width="1"/>
<line x1="109" y1="223" x2="207" y2="156" stroke="#223344" stroke-width="1"/>
<line x1="406" y1="232" x2="415" y2="162" stroke="#223344" stroke-width="1"/>
<line x1="367" y1="451" x2="295" y2="366" stroke="#223344" stroke-width="1"/>
<line x1="262" y1="447" x2="243" y2="544" stroke="#223344" stroke-width="1"/>
<line x1="289" y1="222" x2="225" y2="122" stroke="#223344" stroke-width="1"/>
<line x1="152" y1="99" x2="202" y2="70" stroke="#223344" stroke-width="1"/>
<line x1="317" y1="458" x2="264" y2="516" stroke="#223344" stroke-width="1"/>
<line x1="360" y1="156" x2="383" y2="172" stroke="#223344" stroke-width="1"/>
<line x1="354" y1="380" x2="338" y2="308" stroke="#223344" stroke-width="1"/>
<line x1="302" y1="204" x2="399" y2="243" stroke="#223344" stroke-width="1"/>
<line x1="288" y1="69" x2="348" y2="99" stroke="#223344" stroke-width="1"/>
<line x1="199" y1="358" x2="217" y2="375" stroke="#223344" stroke-width="1"/>
<line x1="117" y1="399" x2="78" y2="460" stroke="#223344" stroke-width="1"/>
<line x1="192" y1="279" x2="173" y2="196" stroke="#223344" stroke-width="1"/>
<line x1="55" y1="145" x2="152" y2="46" stroke="#223344" stroke-width="1"/>
<line x1="171" y1="258" x2="183" y2="198" stroke="#223344" stroke-width="1"/>
<line x1="212" y1="262" x2="212" y2="203" stroke="#223344" stroke-width="1"/>
</svg>
