<svg xmlns="http://www.w3.org/2000/svg" width="512" height="512" viewBox="0 0 512 512">
<rect width="100%" height="100%" fill="black"/>
<circle cx="256.00" cy="256.00" r="2" fill="hsl(0, 80%, 65%)" />
<circle cx="250.16" cy="261.35" r="3" fill="hsl(9, 80%, 65%)" />
<circle cx="256.98" cy="244.85" r="4" fill="hsl(18, 80%, 65%)" />
<circle cx="264.34" cy="266.88" r="5" fill="hsl(27, 80%, 65%)" />
<circle cx="240.41" cy="253.24" r="6" fill="hsl(36, 80%, 65%)" />
<circle cx="270.94" cy="246.50" r="2" fill="hsl(45, 80%, 65%)" />
<circle cx="250.97" cy="274.73" r="3" fill="hsl(54, 80%, 65%)" />
<circle cx="246.34" cy="237.41" r="4" fill="hsl(63, 80%, 65%)" />
<circle cx="277.04" cy="263.68" r="5" fill="hsl(72, 80%, 65%)" />
<circle cx="234.04" cy="265.06" r="6" fill="hsl(81, 80%, 65%)" />
<circle cx="266.61" cy="233.32" r="2" fill="hsl(90, 80%, 65%)" />
<circle cx="263.86" cy="281.06" r="3" fill="hsl(99, 80%, 65%)" />
<circle cx="232.27" cy="242.25" r="4" fill="hsl(108, 80%, 65%)" />
<circle cx="283.88" cy="249.87" r="5" fill="hsl(117, 80%, 65%)" />
<circle cx="238.96" cy="280.24" r="6" fill="hsl(126, 80%, 65%)" />
<circle cx="252.06" cy="225.59" r="2" fill="hsl(135, 80%, 65%)" />
<circle cx="280.22" cy="276.41" r="3" fill="hsl(144, 80%, 65%)" />
<circle cx="223.38" cy="257.35" r="4" fill="hsl(153, 80%, 65%)" />
<circle cx="279.81" cy="232.31" r="5" fill="hsl(162, 80%, 65%)" />
<circle cx="254.41" cy="290.48" r="6" fill="hsl(171, 80%, 65%)" />
<circle cx="233.31" cy="228.81" r="2" fill="hsl(180, 80%, 65%)" />
<circle cx="291.96" cy="260.84" r="3" fill="hsl(189, 80%, 65%)" />
<circle cx="225.52" cy="277.21" r="4" fill="hsl(198, 80%, 65%)" />
<circle cx="264.33" cy="218.95" r="5" fill="hsl(207, 80%, 65%)" />
<circle cx="275.28" cy="289.65" r="6" fill="hsl(216, 80%, 65%)" />
<circle cx="218.28" cy="243.97" r="2" fill="hsl(225, 80%, 65%)" />
<circle cx="292.65" cy="239.07" r="3" fill="hsl(234, 80%, 65%)" />
<circle cx="240.12" cy="293.95" r="4" fill="hsl(243, 80%, 65%)" />
<circle cx="241.82" cy="216.58" r="5" fill="hsl(252, 80%, 65%)" />
<circle cx="293.74" cy="275.84" r="6" fill="hsl(261, 80%, 65%)" />
<circle cx="214.07" cy="267.05" r="2" fill="hsl(270, 80%, 65%)" />
<circle cx="279.84" cy="218.92" r="3" fill="hsl(279, 80%, 65%)" />
<circle cx="263.59" cy="300.14" r="4" fill="hsl(288, 80%, 65%)" />
<circle cx="220.04" cy="228.15" r="5" fill="hsl(297, 80%, 65%)" />
<circle cx="302.01" cy="252.19" r="6" fill="hsl(306, 80%, 65%)" />
<circle cx="224.19" cy="290.38" r="2" fill="hsl(315, 80%, 65%)" />
<circle cx="256.23" cy="208.49" r="3" fill="hsl(324, 80%, 65%)" />
<circle cx="288.36" cy="291.67" r="4" fill="hsl(333, 80%, 65%)" />
<circle cx="207.40" cy="251.50" r="5" fill="hsl(342, 80%, 65%)" />
<circle cx="295.39" cy="226.11" r="6" fill="hsl(351, 80%, 65%)" />
<circle cx="247.04" cy="305.27" r="2" fill="hsl(0, 80%, 65%)" />
<circle cx="229.00" cy="213.09" r="3" fill="hsl(9, 80%, 65%)" />
<circle cx="305.49" cy="269.56" r="4" fill="hsl(18, 80%, 65%)" />
<circle cx="209.81" cy="279.70" r="5" fill="hsl(27, 80%, 65%)" />
<circle cx="274.26" cy="206.76" r="6" fill="hsl(36, 80%, 65%)" />
<circle cx="276.03" cy="305.19" r="2" fill="hsl(45, 80%, 65%)" />
<circle cx="207.47" cy="233.00" r="3" fill="hsl(54, 80%, 65%)" />
<circle cx="307.87" cy="240.01" r="4" fill="hsl(63, 80%, 65%)" />
<circle cx="228.26" cy="303.33" r="5" fill="hsl(72, 80%, 65%)" />
<circle cx="244.36" cy="201.81" r="6" fill="hsl(81, 80%, 65%)" />
<circle cx="301.64" cy="288.42" r="2" fill="hsl(90, 80%, 65%)" />
<circle cx="199.89" cy="262.99" r="3" fill="hsl(99, 80%, 65%)" />
<circle cx="293.01" cy="212.52" r="4" fill="hsl(108, 80%, 65%)" />
<circle cx="258.10" cy="313.60" r="5" fill="hsl(117, 80%, 65%)" />
<circle cx="215.16" cy="214.56" r="6" fill="hsl(126, 80%, 65%)" />
<circle cx="314.64" cy="259.00" r="2" fill="hsl(135, 80%, 65%)" />
<circle cx="210.32" cy="293.74" r="3" fill="hsl(144, 80%, 65%)" />
<circle cx="264.26" cy="196.80" r="4" fill="hsl(153, 80%, 65%)" />
<circle cx="290.20" cy="305.66" r="5" fill="hsl(162, 80%, 65%)" />
<circle cx="196.73" cy="242.36" r="6" fill="hsl(171, 80%, 65%)" />
<circle cx="309.36" cy="225.77" r="2" fill="hsl(180, 80%, 65%)" />
<circle cx="236.92" cy="314.82" r="3" fill="hsl(189, 80%, 65%)" />
<circle cx="230.13" cy="199.28" r="4" fill="hsl(198, 80%, 65%)" />
<circle cx="313.85" cy="280.54" r="5" fill="hsl(207, 80%, 65%)" />
<circle cx="196.29" cy="277.15" r="6" fill="hsl(216, 80%, 65%)" />
<circle cx="285.97" cy="199.64" r="2" fill="hsl(225, 80%, 65%)" />
<circle cx="272.09" cy="318.28" r="3" fill="hsl(234, 80%, 65%)" />
<circle cx="201.66" cy="220.68" r="4" fill="hsl(243, 80%, 65%)" />
<circle cx="320.40" cy="245.26" r="5" fill="hsl(252, 80%, 65%)" />
<circle cx="215.48" cy="307.80" r="6" fill="hsl(261, 80%, 65%)" />
<circle cx="250.85" cy="189.96" r="2" fill="hsl(270, 80%, 65%)" />
<circle cx="304.75" cy="301.54" r="3" fill="hsl(279, 80%, 65%)" />
<circle cx="188.82" cy="255.34" r="4" fill="hsl(288, 80%, 65%)" />
<circle cx="306.33" cy="210.79" r="5" fill="hsl(297, 80%, 65%)" />
<circle cx="249.38" cy="323.79" r="6" fill="hsl(306, 80%, 65%)" />
<circle cx="214.81" cy="201.18" r="2" fill="hsl(315, 80%, 65%)" />
<circle cx="323.85" cy="268.69" r="3" fill="hsl(324, 80%, 65%)" />
<circle cx="197.02" cy="292.72" r="4" fill="hsl(333, 80%, 65%)" />
<circle cx="274.81" cy="188.65" r="5" fill="hsl(342, 80%, 65%)" />
<circle cx="287.82" cy="318.77" r="6" fill="hsl(351, 80%, 65%)" />
<circle cx="189.72" cy="231.06" r="2" fill="hsl(0, 80%, 65%)" />
<circle cx="322.13" cy="229.45" r="3" fill="hsl(9, 80%, 65%)" />
<circle cx="224.98" cy="320.64" r="4" fill="hsl(18, 80%, 65%)" />
<circle cx="235.08" cy="186.97" r="5" fill="hsl(27, 80%, 65%)" />
<circle cx="318.43" cy="293.00" r="6" fill="hsl(36, 80%, 65%)" />
<circle cx="184.56" cy="270.98" r="2" fill="hsl(45, 80%, 65%)" />
<circle cx="298.81" cy="196.35" r="3" fill="hsl(54, 80%, 65%)" />
<circle cx="264.78" cy="329.33" r="4" fill="hsl(63, 80%, 65%)" />
<circle cx="199.68" cy="207.58" r="5" fill="hsl(72, 80%, 65%)" />
<circle cx="330.66" cy="253.64" r="6" fill="hsl(81, 80%, 65%)" />
<circle cx="202.24" cy="308.46" r="2" fill="hsl(90, 80%, 65%)" />
<circle cx="260.22" cy="180.59" r="3" fill="hsl(99, 80%, 65%)" />
<circle cx="304.09" cy="314.78" r="4" fill="hsl(108, 80%, 65%)" />
<circle cx="180.43" cy="245.08" r="5" fill="hsl(117, 80%, 65%)" />
<circle cx="319.44" cy="212.77" r="6" fill="hsl(126, 80%, 65%)" />
<circle cx="238.33" cy="331.12" r="2" fill="hsl(135, 80%, 65%)" />
<circle cx="218.09" cy="188.32" r="3" fill="hsl(144, 80%, 65%)" />
<circle cx="330.06" cy="280.42" r="4" fill="hsl(153, 80%, 65%)" />
<circle cx="184.53" cy="288.18" r="5" fill="hsl(162, 80%, 65%)" />
<circle cx="287.12" cy="183.63" r="6" fill="hsl(171, 80%, 65%)" />
<circle cx="282.07" cy="330.76" r="2" fill="hsl(180, 80%, 65%)" />
<circle cx="185.93" cy="218.30" r="3" fill="hsl(189, 80%, 65%)" />
<circle cx="333.52" cy="236.37" r="4" fill="hsl(198, 80%, 65%)" />
<circle cx="211.88" cy="323.16" r="5" fill="hsl(207, 80%, 65%)" />
<circle cx="243.10" cy="176.29" r="6" fill="hsl(216, 80%, 65%)" />
<circle cx="319.66" cy="306.30" r="2" fill="hsl(225, 80%, 65%)" />
<circle cx="174.70" cy="261.94" r="3" fill="hsl(234, 80%, 65%)" />
<circle cx="312.20" cy="196.43" r="4" fill="hsl(243, 80%, 65%)" />
<circle cx="254.80" cy="338.27" r="5" fill="hsl(252, 80%, 65%)" />
<circle cx="201.06" cy="194.24" r="6" fill="hsl(261, 80%, 65%)" />
<circle cx="338.61" cy="264.47" r="2" fill="hsl(270, 80%, 65%)" />
<circle cx="189.06" cy="305.78" r="3" fill="hsl(279, 80%, 65%)" />
<circle cx="271.80" cy="173.71" r="4" fill="hsl(288, 80%, 65%)" />
<circle cx="300.13" cy="327.67" r="5" fill="hsl(297, 80%, 65%)" />
<circle cx="174.69" cy="232.86" r="6" fill="hsl(306, 80%, 65%)" />
<circle cx="331.92" cy="217.97" r="2" fill="hsl(315, 80%, 65%)" />
<circle cx="225.58" cy="335.66" r="3" fill="hsl(324, 80%, 65%)" />
<circle cx="224.48" cy="176.37" r="4" fill="hsl(333, 80%, 65%)" />
<circle cx="333.36" cy="293.59" r="5" fill="hsl(342, 80%, 65%)" />
<circle cx="173.22" cy="280.64" r="6" fill="hsl(351, 80%, 65%)" />
<circle cx="300.58" cy="181.60" r="2" fill="hsl(0, 80%, 65%)" />
<circle cx="273.45" cy="341.33" r="3" fill="hsl(9, 80%, 65%)" />
<circle cx="185.20" cy="204.66" r="4" fill="hsl(18, 80%, 65%)" />
<circle cx="343.24" cy="245.99" r="5" fill="hsl(27, 80%, 65%)" />
<circle cx="198.20" cy="322.58" r="6" fill="hsl(36, 80%, 65%)" />
<circle cx="253.64" cy="167.51" r="2" fill="hsl(45, 80%, 65%)" />
<circle cx="317.76" cy="319.91" r="3" fill="hsl(54, 80%, 65%)" />
<circle cx="166.94" cy="250.57" r="4" fill="hsl(63, 80%, 65%)" />
<circle cx="325.61" cy="199.62" r="5" fill="hsl(72, 80%, 65%)" />
<circle cx="242.71" cy="344.94" r="6" fill="hsl(81, 80%, 65%)" />
<circle cx="205.53" cy="181.15" r="2" fill="hsl(90, 80%, 65%)" />
<circle cx="344.11" cy="277.18" r="3" fill="hsl(99, 80%, 65%)" />
<circle cx="176.42" cy="300.07" r="4" fill="hsl(108, 80%, 65%)" />
<circle cx="285.02" cy="169.42" r="5" fill="hsl(117, 80%, 65%)" />
<circle cx="293.22" cy="339.76" r="6" fill="hsl(126, 80%, 65%)" />
<circle cx="171.67" cy="219.25" r="2" fill="hsl(135, 80%, 65%)" />
<circle cx="343.33" cy="226.02" r="3" fill="hsl(144, 80%, 65%)" />
<circle cx="211.69" cy="337.39" r="4" fill="hsl(153, 80%, 65%)" />
<circle cx="233.61" cy="165.72" r="5" fill="hsl(162, 80%, 65%)" />
<circle cx="333.77" cy="307.63" r="6" fill="hsl(171, 80%, 65%)" />
<circle cx="163.45" cy="270.51" r="2" fill="hsl(180, 80%, 65%)" />
<circle cx="314.65" cy="182.52" r="3" fill="hsl(189, 80%, 65%)" />
<circle cx="262.41" cy="350.13" r="4" fill="hsl(198, 80%, 65%)" />
<circle cx="187.45" cy="190.69" r="5" fill="hsl(207, 80%, 65%)" />
<circle cx="350.99" cy="257.85" r="6" fill="hsl(216, 80%, 65%)" />
<circle cx="184.46" cy="319.02" r="2" fill="hsl(225, 80%, 65%)" />
<circle cx="266.22" cy="160.88" r="3" fill="hsl(234, 80%, 65%)" />
<circle cx="312.91" cy="333.31" r="4" fill="hsl(243, 80%, 65%)" />
<circle cx="161.50" cy="237.37" r="5" fill="hsl(252, 80%, 65%)" />
<circle cx="338.54" cy="205.73" r="6" fill="hsl(261, 80%, 65%)" />
<circle cx="229.00" cy="349.14" r="2" fill="hsl(270, 80%, 65%)" />
<circle cx="212.85" cy="168.80" r="3" fill="hsl(279, 80%, 65%)" />
<circle cx="347.02" cy="291.27" r="4" fill="hsl(288, 80%, 65%)" />
<circle cx="164.76" cy="291.59" r="5" fill="hsl(297, 80%, 65%)" />
<circle cx="299.37" cy="167.84" r="6" fill="hsl(306, 80%, 65%)" />
<circle cx="283.66" cy="350.61" r="2" fill="hsl(315, 80%, 65%)" />
<circle cx="171.42" cy="204.76" r="3" fill="hsl(324, 80%, 65%)" />
<circle cx="353.29" cy="236.59" r="4" fill="hsl(333, 80%, 65%)" />
<circle cx="197.18" cy="336.28" r="5" fill="hsl(342, 80%, 65%)" />
<circle cx="245.10" cy="156.76" r="6" fill="hsl(351, 80%, 65%)" />
<circle cx="331.31" cy="322.02" r="2" fill="hsl(0, 80%, 65%)" />
<circle cx="155.56" cy="258.19" r="3" fill="hsl(9, 80%, 65%)" />
<circle cx="328.81" cy="186.32" r="4" fill="hsl(18, 80%, 65%)" />
<circle cx="249.36" cy="356.87" r="5" fill="hsl(27, 80%, 65%)" />
<circle cx="192.57" cy="176.90" r="6" fill="hsl(36, 80%, 65%)" />
<circle cx="356.51" cy="271.53" r="2" fill="hsl(45, 80%, 65%)" />
<circle cx="171.14" cy="312.62" r="3" fill="hsl(54, 80%, 65%)" />
<circle cx="280.40" cy="156.63" r="4" fill="hsl(63, 80%, 65%)" />
<circle cx="305.28" cy="346.02" r="5" fill="hsl(72, 80%, 65%)" />
<circle cx="158.57" cy="222.81" r="6" fill="hsl(81, 80%, 65%)" />
<circle cx="350.54" cy="214.54" r="2" fill="hsl(90, 80%, 65%)" />
<circle cx="214.17" cy="350.71" r="3" fill="hsl(99, 80%, 65%)" />
<circle cx="222.77" cy="157.62" r="4" fill="hsl(108, 80%, 65%)" />
<circle cx="347.22" cy="306.24" r="5" fill="hsl(117, 80%, 65%)" />
<circle cx="154.51" cy="280.65" r="6" fill="hsl(126, 80%, 65%)" />
<circle cx="314.36" cy="169.02" r="2" fill="hsl(135, 80%, 65%)" />
<circle cx="271.77" cy="359.85" r="3" fill="hsl(144, 80%, 65%)" />
<circle cx="173.99" cy="189.89" r="4" fill="hsl(153, 80%, 65%)" />
<circle cx="361.42" cy="249.33" r="5" fill="hsl(162, 80%, 65%)" />
<circle cx="182.56" cy="332.34" r="6" fill="hsl(171, 80%, 65%)" />
</svg>
