<svg xmlns="http://www.w3.org/2000/svg" width="512" height="512" viewBox="0 0 512 512">
<rect width="100%" height="100%" fill="#0b1020"/>
<circle cx="379" cy="101" r="43" fill="#f8f3c9" opacity="0.95" />
<circle cx="434.0" cy="88.0" r="2.0" fill="white" />
<circle cx="179.0" cy="138.0" r="1.8" fill="white" />
<circle cx="188.0" cy="54.0" r="1.9" fill="white" />
<circle cx="324.0" cy="169.0" r="2.4" fill="white" />
<circle cx="240.0" cy="80.0" r="3.0" fill="white" />
<circle cx="437.0" cy="69.0" r="3.3" fill="white" />
<circle cx="235.0" cy="41.0" r="2.5" fill="white" />
<circle cx="394.0" cy="52.0" r="2.0" fill="white" />
<circle cx="467.0" cy="123.0" r="2.5" fill="white" />
<circle cx="83.0" cy="42.0" r="3.4" fill="white" />
<circle cx="23.0" cy="165.0" r="1.6" fill="white" />
<path d="M 20 430 C 120 427, 173 443, 301 431 S 450 391, 512 421" stroke="#5dade2" stroke-width="7" fill="none" opacity="0.85" />
<line x1="0" y1="391" x2="512" y2="391" stroke="#445566" stroke-width="3" />
<polygon points="158,350 198,290 238,310 258,280 278,300 290,340 258,362 208,366" fill="#1e1e1e" />
<polygon points="233,290 246,268 256,292" fill="#1e1e1e" />
<line x1="288" y1="335" x2="318" y2="310" stroke="#1e1e1e" stroke-width="6" />
</svg>
