<svg xmlns="http://www.w3.org/2000/svg" width="512" height="512" viewBox="0 0 512 512">
<rect width="100%" height="100%" fill="#0b1020"/>
<circle cx="377" cy="104" r="41" fill="#f8f3c9" opacity="0.95" />
<circle cx="466.0" cy="119.0" r="2.5" fill="white" />
<circle cx="135.0" cy="128.0" r="2.4" fill="white" />
<circle cx="371.0" cy="124.0" r="1.8" fill="white" />
<circle cx="458.0" cy="40.0" r="3.4" fill="white" />
<circle cx="440.0" cy="84.0" r="2.7" fill="white" />
<circle cx="393.0" cy="173.0" r="1.8" fill="white" />
<circle cx="113.0" cy="26.0" r="2.2" fill="white" />
<circle cx="156.0" cy="124.0" r="1.9" fill="white" />
<circle cx="120.0" cy="79.0" r="2.9" fill="white" />
<circle cx="319.0" cy="61.0" r="3.1" fill="white" />
<circle cx="371.0" cy="143.0" r="1.9" fill="white" />
<circle cx="149.0" cy="149.0" r="1.6" fill="white" />
<circle cx="203.0" cy="109.0" r="2.9" fill="white" />
<circle cx="403.0" cy="152.0" r="1.6" fill="white" />
<path d="M 20 430 C 114 414, 179 453, 312 438 S 450 393, 512 423" stroke="#5dade2" stroke-width="7" fill="none" opacity="0.85" />
<line x1="0" y1="392" x2="512" y2="392" stroke="#445566" stroke-width="2" />
<polygon points="160,355 200,295 240,315 260,285 280,305 292,345 260,367 210,371" fill="#1e1e1e" />
<polygon points="235,295 248,273 258,297" fill="#1e1e1e" />
<line x1="290" y1="340" x2="320" y2="315" stroke="#1e1e1e" stroke-width="6" />
</svg>
