<svg xmlns="http://www.w3.org/2000/svg" width="512" height="512" viewBox="0 0 512 512">
<rect width="100%" height="100%" fill="#0b1020"/>
<circle cx="428" cy="113" r="44" fill="#f8f3c9" opacity="0.95" />
<circle cx="27.0" cy="97.0" r="2.2" fill="white" />
<circle cx="232.0" cy="175.0" r="2.3" fill="white" />
<circle cx="472.0" cy="47.0" r="2.1" fill="white" />
<circle cx="38.0" cy="144.0" r="3.0" fill="white" />
<circle cx="407.0" cy="32.0" r="1.9" fill="white" />
<circle cx="414.0" cy="52.0" r="3.1" fill="white" />
<circle cx="120.0" cy="33.0" r="1.6" fill="white" />
<circle cx="253.0" cy="162.0" r="3.4" fill="white" />
<circle cx="343.0" cy="49.0" r="3.4" fill="white" />
<circle cx="246.0" cy="158.0" r="1.7" fill="white" />
<circle cx="217.0" cy="89.0" r="2.3" fill="white" />
<circle cx="391.0" cy="177.0" r="1.9" fill="white" />
<circle cx="88.0" cy="67.0" r="1.6" fill="white" />
<circle cx="444.0" cy="50.0" r="2.3" fill="white" />
<circle cx="378.0" cy="78.0" r="3.3" fill="white" />
<path d="M 20 430 C 120 426, 173 454, 281 431 S 450 392, 512 422" stroke="#5dade2" stroke-width="7" fill="none" opacity="0.85" />
<line x1="0" y1="409" x2="512" y2="409" stroke="#445566" stroke-width="2" />
<polygon points="172,351 212,291 252,311 272,281 292,301 304,341 272,363 222,367" fill="#1e1e1e" />
<polygon points="247,291 260,269 270,293" fill="#1e1e1e" />
<line x1="302" y1="336" x2="332" y2="311" stroke="#1e1e1e" stroke-width="6" />
</svg>
