<svg xmlns="http://www.w3.org/2000/svg" width="512" height="512" viewBox="0 0 512 512">
<rect width="100%" height="100%" fill="#0b1020"/>
<circle cx="429" cy="83" r="53" fill="#f8f3c9" opacity="0.95" />
<circle cx="375.0" cy="25.0" r="3.1" fill="white" />
<circle cx="353.0" cy="179.0" r="2.4" fill="white" />
<circle cx="289.0" cy="31.0" r="2.1" fill="white" />
<circle cx="326.0" cy="61.0" r="2.3" fill="white" />
<circle cx="39.0" cy="111.0" r="2.1" fill="white" />
<circle cx="405.0" cy="130.0" r="3.0" fill="white" />
<circle cx="175.0" cy="69.0" r="3.5" fill="white" />
<path d="M 20 430 C 114 420, 167 441, 292 431 S 450 389, 512 419" stroke="#5dade2" stroke-width="6" fill="none" opacity="0.85" />
<line x1="0" y1="386" x2="512" y2="386" stroke="#445566" stroke-width="3" />
<polygon points="189,351 229,291 269,311 289,281 309,301 321,341 289,363 239,367" fill="#1e1e1e" />
<polygon points="264,291 277,269 287,293" fill="#1e1e1e" />
<line x1="319" y1="336" x2="349" y2="311" stroke="#1e1e1e" stroke-width="6" />
</svg>
