<svg xmlns="http://www.w3.org/2000/svg" width="512" height="512" viewBox="0 0 512 512">
<rect width="100%" height="100%" fill="#0b1020"/>
<circle cx="355" cy="118" r="42" fill="#f8f3c9" opacity="0.95" />
<circle cx="121.0" cy="105.0" r="2.0" fill="white" />
<circle cx="29.0" cy="154.0" r="2.6" fill="white" />
<circle cx="21.0" cy="148.0" r="1.8" fill="white" />
<circle cx="157.0" cy="52.0" r="3.3" fill="white" />
<circle cx="241.0" cy="122.0" r="2.7" fill="white" />
<circle cx="232.0" cy="57.0" r="2.7" fill="white" />
<circle cx="37.0" cy="75.0" r="2.7" fill="white" />
<circle cx="95.0" cy="48.0" r="2.8" fill="white" />
<circle cx="156.0" cy="145.0" r="3.1" fill="white" />
<circle cx="198.0" cy="175.0" r="3.4" fill="white" />
<path d="M 20 430 C 136 419, 163 452, 297 425 S 450 398, 512 428" stroke="#5dade2" stroke-width="6" fill="none" opacity="0.85" />
<line x1="0" y1="412" x2="512" y2="412" stroke="#445566" stroke-width="2" />
<polygon points="211,351 251,291 291,311 311,281 331,301 343,341 311,363 261,367" fill="#1e1e1e" />
<polygon points="286,291 299,269 309,293" fill="#1e1e1e" />
<line x1="341" y1="336" x2="371" y2="311" stroke="#1e1e1e" stroke-width="6" />
</svg>
