<svg xmlns="http://www.w3.org/2000/svg" width="512" height="512" viewBox="0 0 512 512">
<rect width="100%" height="100%" fill="#0b1020"/>
<circle cx="369" cy="132" r="53" fill="#f8f3c9" opacity="0.95" />
<circle cx="160.0" cy="40.0" r="3.1" fill="white" />
<circle cx="469.0" cy="96.0" r="2.2" fill="white" />
<circle cx="131.0" cy="95.0" r="1.8" fill="white" />
<circle cx="482.0" cy="175.0" r="3.3" fill="white" />
<circle cx="206.0" cy="131.0" r="2.7" fill="white" />
<circle cx="126.0" cy="34.0" r="2.5" fill="white" />
<circle cx="29.0" cy="79.0" r="3.4" fill="white" />
<circle cx="351.0" cy="157.0" r="3.3" fill="white" />
<circle cx="21.0" cy="83.0" r="3.3" fill="white" />
<circle cx="437.0" cy="35.0" r="1.8" fill="white" />
<circle cx="152.0" cy="107.0" r="2.6" fill="white" />
<circle cx="299.0" cy="121.0" r="2.0" fill="white" />
<circle cx="74.0" cy="89.0" r="2.2" fill="white" />
<circle cx="439.0" cy="128.0" r="2.2" fill="white" />
<path d="M 20 430 C 139 424, 179 449, 284 420 S 450 391, 512 421" stroke="#5dade2" stroke-width="8" fill="none" opacity="0.85" />
<line x1="0" y1="408" x2="512" y2="408" stroke="#445566" stroke-width="2" />
<polygon points="185,353 225,293 265,313 285,283 305,303 317,343 285,365 235,369" fill="#1e1e1e" />
<polygon points="260,293 273,271 283,295" fill="#1e1e1e" />
<line x1="315" y1="338" x2="345" y2="313" stroke="#1e1e1e" stroke-width="6" />
</svg>
