<svg xmlns="http://www.w3.org/2000/svg" width="512" height="512" viewBox="0 0 512 512">
<rect width="100%" height="100%" fill="#0b1020"/>
<circle cx="439" cy="69" r="54" fill="#f8f3c9" opacity="0.95" />
<circle cx="388.0" cy="85.0" r="3.2" fill="white" />
<circle cx="222.0" cy="150.0" r="1.7" fill="white" />
<circle cx="178.0" cy="102.0" r="1.8" fill="white" />
<circle cx="360.0" cy="39.0" r="2.3" fill="white" />
<circle cx="233.0" cy="166.0" r="1.6" fill="white" />
<circle cx="292.0" cy="165.0" r="2.8" fill="white" />
<circle cx="176.0" cy="94.0" r="2.9" fill="white" />
<circle cx="25.0" cy="86.0" r="3.1" fill="white" />
<circle cx="310.0" cy="36.0" r="3.1" fill="white" />
<circle cx="295.0" cy="159.0" r="2.3" fill="white" />
<circle cx="296.0" cy="158.0" r="2.9" fill="white" />
<path d="M 20 430 C 115 416, 174 445, 314 439 S 450 397, 512 427" stroke="#5dade2" stroke-width="8" fill="none" opacity="0.85" />
<line x1="0" y1="399" x2="512" y2="399" stroke="#445566" stroke-width="3" />
<polygon points="172,355 212,295 252,315 272,285 292,305 304,345 272,367 222,371" fill="#1e1e1e" />
<polygon points="247,295 260,273 270,297" fill="#1e1e1e" />
<line x1="302" y1="340" x2="332" y2="315" stroke="#1e1e1e" stroke-width="6" />
</svg>
