<svg xmlns="http://www.w3.org/2000/svg" width="512" height="512" viewBox="0 0 512 512">
<rect width="100%" height="100%" fill="#0b1020"/>
<circle cx="377" cy="82" r="50" fill="#f8f3c9" opacity="0.95" />
<circle cx="378.0" cy="64.0" r="2.7" fill="white" />
<circle cx="206.0" cy="114.0" r="3.5" fill="white" />
<circle cx="358.0" cy="54.0" r="2.2" fill="white" />
<circle cx="203.0" cy="43.0" r="2.2" fill="white" />
<circle cx="134.0" cy="128.0" r="1.8" fill="white" />
<circle cx="313.0" cy="156.0" r="2.4" fill="white" />
<circle cx="21.0" cy="74.0" r="3.0" fill="white" />
<circle cx="387.0" cy="126.0" r="3.0" fill="white" />
<circle cx="42.0" cy="82.0" r="1.7" fill="white" />
<path d="M 20 430 C 110 413, 176 447, 316 440 S 450 403, 512 433" stroke="#5dade2" stroke-width="6" fill="none" opacity="0.85" />
<line x1="0" y1="392" x2="512" y2="392" stroke="#445566" stroke-width="3" />
<polygon points="208,361 248,301 288,321 308,291 328,311 340,351 308,373 258,377" fill="#1e1e1e" />
<polygon points="283,301 296,279 306,303" fill="#1e1e1e" />
<line x1="338" y1="346" x2="368" y2="321" stroke="#1e1e1e" stroke-width="6" />
</svg>
