<svg xmlns="http://www.w3.org/2000/svg" width="512" height="512" viewBox="0 0 512 512">
<rect width="100%" height="100%" fill="black"/>
<circle cx="256.00" cy="256.00" r="2" fill="hsl(0, 80%, 65%)" />
<circle cx="250.84" cy="260.73" r="3" fill="hsl(7, 80%, 65%)" />
<circle cx="256.87" cy="246.14" r="4" fill="hsl(14, 80%, 65%)" />
<circle cx="263.38" cy="265.62" r="5" fill="hsl(21, 80%, 65%)" />
<circle cx="242.22" cy="253.56" r="6" fill="hsl(28, 80%, 65%)" />
<circle cx="269.20" cy="247.60" r="2" fill="hsl(35, 80%, 65%)" />
<circle cx="251.55" cy="272.55" r="3" fill="hsl(42, 80%, 65%)" />
<circle cx="247.47" cy="239.57" r="4" fill="hsl(49, 80%, 65%)" />
<circle cx="274.59" cy="262.79" r="5" fill="hsl(56, 80%, 65%)" />
<circle cx="236.59" cy="264.01" r="6" fill="hsl(63, 80%, 65%)" />
<circle cx="265.38" cy="235.96" r="2" fill="hsl(70, 80%, 65%)" />
<circle cx="262.95" cy="278.15" r="3" fill="hsl(77, 80%, 65%)" />
<circle cx="235.02" cy="243.84" r="4" fill="hsl(84, 80%, 65%)" />
<circle cx="280.64" cy="250.58" r="5" fill="hsl(91, 80%, 65%)" />
<circle cx="240.94" cy="277.42" r="6" fill="hsl(98, 80%, 65%)" />
<circle cx="252.52" cy="229.12" r="2" fill="hsl(105, 80%, 65%)" />
<circle cx="277.40" cy="274.04" r="3" fill="hsl(112, 80%, 65%)" />
<circle cx="227.17" cy="257.19" r="4" fill="hsl(119, 80%, 65%)" />
<circle cx="277.05" cy="235.06" r="5" fill="hsl(126, 80%, 65%)" />
<circle cx="254.59" cy="286.47" r="6" fill="hsl(133, 80%, 65%)" />
<circle cx="235.95" cy="231.97" r="2" fill="hsl(140, 80%, 65%)" />
<circle cx="287.78" cy="260.28" r="3" fill="hsl(147, 80%, 65%)" />
<circle cx="229.06" cy="274.75" r="4" fill="hsl(154, 80%, 65%)" />
<circle cx="263.37" cy="223.26" r="5" fill="hsl(161, 80%, 65%)" />
<circle cx="273.05" cy="285.75" r="6" fill="hsl(168, 80%, 65%)" />
<circle cx="222.66" cy="245.36" r="2" fill="hsl(175, 80%, 65%)" />
<circle cx="288.39" cy="241.03" r="3" fill="hsl(182, 80%, 65%)" />
<circle cx="241.96" cy="289.54" r="4" fill="hsl(189, 80%, 65%)" />
<circle cx="243.47" cy="221.15" r="5" fill="hsl(196, 80%, 65%)" />
<circle cx="289.36" cy="273.53" r="6" fill="hsl(203, 80%, 65%)" />
<circle cx="218.93" cy="265.77" r="2" fill="hsl(210, 80%, 65%)" />
<circle cx="277.07" cy="223.23" r="3" fill="hsl(217, 80%, 65%)" />
<circle cx="262.71" cy="295.02" r="4" fill="hsl(224, 80%, 65%)" />
<circle cx="224.22" cy="231.38" r="5" fill="hsl(231, 80%, 65%)" />
<circle cx="296.67" cy="252.63" r="6" fill="hsl(238, 80%, 65%)" />
<circle cx="227.88" cy="286.39" r="2" fill="hsl(245, 80%, 65%)" />
<circle cx="256.20" cy="214.01" r="3" fill="hsl(252, 80%, 65%)" />
<circle cx="284.60" cy="287.53" r="4" fill="hsl(259, 80%, 65%)" />
<circle cx="213.04" cy="252.02" r="5" fill="hsl(266, 80%, 65%)" />
<circle cx="290.81" cy="229.58" r="6" fill="hsl(273, 80%, 65%)" />
<circle cx="248.08" cy="299.55" r="2" fill="hsl(280, 80%, 65%)" />
<circle cx="232.13" cy="218.07" r="3" fill="hsl(287, 80%, 65%)" />
<circle cx="299.74" cy="267.99" r="4" fill="hsl(294, 80%, 65%)" />
<circle cx="215.17" cy="276.95" r="5" fill="hsl(301, 80%, 65%)" />
<circle cx="272.14" cy="212.47" r="6" fill="hsl(308, 80%, 65%)" />
<circle cx="273.70" cy="299.48" r="2" fill="hsl(315, 80%, 65%)" />
<circle cx="213.11" cy="235.67" r="3" fill="hsl(322, 80%, 65%)" />
<circle cx="301.85" cy="241.86" r="4" fill="hsl(329, 80%, 65%)" />
<circle cx="231.48" cy="297.83" r="5" fill="hsl(336, 80%, 65%)" />
<circle cx="245.71" cy="208.10" r="6" fill="hsl(343, 80%, 65%)" />
<circle cx="296.34" cy="284.66" r="2" fill="hsl(350, 80%, 65%)" />
<circle cx="206.41" cy="262.18" r="3" fill="hsl(357, 80%, 65%)" />
<circle cx="288.71" cy="217.57" r="4" fill="hsl(4, 80%, 65%)" />
<circle cx="257.86" cy="306.91" r="5" fill="hsl(11, 80%, 65%)" />
<circle cx="219.90" cy="219.37" r="6" fill="hsl(18, 80%, 65%)" />
<circle cx="307.83" cy="258.65" r="2" fill="hsl(25, 80%, 65%)" />
<circle cx="215.63" cy="289.36" r="3" fill="hsl(32, 80%, 65%)" />
<circle cx="263.30" cy="203.67" r="4" fill="hsl(39, 80%, 65%)" />
<circle cx="286.23" cy="299.90" r="5" fill="hsl(46, 80%, 65%)" />
<circle cx="203.61" cy="243.95" r="6" fill="hsl(53, 80%, 65%)" />
<circle cx="303.16" cy="229.28" r="2" fill="hsl(60, 80%, 65%)" />
<circle cx="239.13" cy="307.99" r="3" fill="hsl(67, 80%, 65%)" />
<circle cx="233.13" cy="205.86" r="4" fill="hsl(74, 80%, 65%)" />
<circle cx="307.14" cy="277.69" r="5" fill="hsl(81, 80%, 65%)" />
<circle cx="203.23" cy="274.69" r="6" fill="hsl(88, 80%, 65%)" />
<circle cx="282.49" cy="206.18" r="2" fill="hsl(95, 80%, 65%)" />
<circle cx="270.22" cy="311.05" r="3" fill="hsl(102, 80%, 65%)" />
<circle cx="207.97" cy="224.78" r="4" fill="hsl(109, 80%, 65%)" />
<circle cx="312.92" cy="246.50" r="5" fill="hsl(116, 80%, 65%)" />
<circle cx="220.18" cy="301.79" r="6" fill="hsl(123, 80%, 65%)" />
<circle cx="251.45" cy="197.63" r="2" fill="hsl(130, 80%, 65%)" />
<circle cx="299.09" cy="296.26" r="3" fill="hsl(137, 80%, 65%)" />
<circle cx="196.62" cy="255.42" r="4" fill="hsl(144, 80%, 65%)" />
<circle cx="300.48" cy="216.04" r="5" fill="hsl(151, 80%, 65%)" />
<circle cx="250.15" cy="315.92" r="6" fill="hsl(158, 80%, 65%)" />
<circle cx="219.60" cy="207.54" r="2" fill="hsl(165, 80%, 65%)" />
<circle cx="315.97" cy="267.21" r="3" fill="hsl(172, 80%, 65%)" />
<circle cx="203.87" cy="288.45" r="4" fill="hsl(179, 80%, 65%)" />
<circle cx="272.63" cy="196.47" r="5" fill="hsl(186, 80%, 65%)" />
<circle cx="284.13" cy="311.48" r="6" fill="hsl(193, 80%, 65%)" />
<circle cx="197.42" cy="233.96" r="2" fill="hsl(200, 80%, 65%)" />
<circle cx="314.45" cy="232.54" r="3" fill="hsl(207, 80%, 65%)" />
<circle cx="228.58" cy="313.13" r="4" fill="hsl(214, 80%, 65%)" />
<circle cx="237.51" cy="194.98" r="5" fill="hsl(221, 80%, 65%)" />
<circle cx="311.18" cy="288.70" r="6" fill="hsl(228, 80%, 65%)" />
<circle cx="192.85" cy="269.24" r="2" fill="hsl(235, 80%, 65%)" />
<circle cx="293.84" cy="203.27" r="3" fill="hsl(242, 80%, 65%)" />
<circle cx="263.76" cy="320.81" r="4" fill="hsl(249, 80%, 65%)" />
<circle cx="206.22" cy="213.20" r="5" fill="hsl(256, 80%, 65%)" />
<circle cx="321.99" cy="253.92" r="6" fill="hsl(263, 80%, 65%)" />
<circle cx="208.49" cy="302.37" r="2" fill="hsl(270, 80%, 65%)" />
<circle cx="259.73" cy="189.35" r="3" fill="hsl(277, 80%, 65%)" />
<circle cx="298.50" cy="307.95" r="4" fill="hsl(284, 80%, 65%)" />
<circle cx="189.20" cy="246.35" r="5" fill="hsl(291, 80%, 65%)" />
<circle cx="312.07" cy="217.79" r="6" fill="hsl(298, 80%, 65%)" />
<circle cx="240.38" cy="322.40" r="2" fill="hsl(305, 80%, 65%)" />
<circle cx="222.49" cy="196.18" r="3" fill="hsl(312, 80%, 65%)" />
<circle cx="321.46" cy="277.59" r="4" fill="hsl(319, 80%, 65%)" />
<circle cx="192.83" cy="284.44" r="5" fill="hsl(326, 80%, 65%)" />
<circle cx="283.51" cy="192.03" r="6" fill="hsl(333, 80%, 65%)" />
<circle cx="279.04" cy="322.08" r="2" fill="hsl(340, 80%, 65%)" />
<circle cx="194.07" cy="222.67" r="3" fill="hsl(347, 80%, 65%)" />
<circle cx="324.52" cy="238.65" r="4" fill="hsl(354, 80%, 65%)" />
<circle cx="217.01" cy="315.36" r="5" fill="hsl(1, 80%, 65%)" />
<circle cx="244.60" cy="185.55" r="6" fill="hsl(8, 80%, 65%)" />
<circle cx="312.27" cy="300.46" r="2" fill="hsl(15, 80%, 65%)" />
<circle cx="184.14" cy="261.25" r="3" fill="hsl(22, 80%, 65%)" />
<circle cx="305.68" cy="203.34" r="4" fill="hsl(29, 80%, 65%)" />
<circle cx="254.94" cy="328.72" r="5" fill="hsl(36, 80%, 65%)" />
<circle cx="207.44" cy="201.41" r="6" fill="hsl(43, 80%, 65%)" />
<circle cx="329.02" cy="263.49" r="2" fill="hsl(50, 80%, 65%)" />
<circle cx="196.84" cy="300.00" r="3" fill="hsl(57, 80%, 65%)" />
<circle cx="269.97" cy="183.27" r="4" fill="hsl(64, 80%, 65%)" />
<circle cx="295.01" cy="319.35" r="5" fill="hsl(71, 80%, 65%)" />
<circle cx="184.13" cy="235.55" r="6" fill="hsl(78, 80%, 65%)" />
<circle cx="323.10" cy="222.39" r="2" fill="hsl(85, 80%, 65%)" />
<circle cx="229.11" cy="326.41" r="3" fill="hsl(92, 80%, 65%)" />
<circle cx="228.14" cy="185.61" r="4" fill="hsl(99, 80%, 65%)" />
<circle cx="324.38" cy="289.23" r="5" fill="hsl(106, 80%, 65%)" />
<circle cx="182.83" cy="277.78" r="6" fill="hsl(113, 80%, 65%)" />
<circle cx="295.41" cy="190.24" r="2" fill="hsl(120, 80%, 65%)" />
<circle cx="271.43" cy="331.42" r="3" fill="hsl(127, 80%, 65%)" />
<circle cx="193.42" cy="210.62" r="4" fill="hsl(134, 80%, 65%)" />
<circle cx="333.11" cy="247.15" r="5" fill="hsl(141, 80%, 65%)" />
<circle cx="204.91" cy="314.85" r="6" fill="hsl(148, 80%, 65%)" />
<circle cx="253.91" cy="177.78" r="2" fill="hsl(155, 80%, 65%)" />
<circle cx="310.59" cy="312.49" r="3" fill="hsl(162, 80%, 65%)" />
<circle cx="177.28" cy="251.20" r="4" fill="hsl(169, 80%, 65%)" />
<circle cx="317.53" cy="206.17" r="5" fill="hsl(176, 80%, 65%)" />
<circle cx="244.25" cy="334.61" r="6" fill="hsl(183, 80%, 65%)" />
<circle cx="211.39" cy="189.84" r="2" fill="hsl(190, 80%, 65%)" />
<circle cx="333.88" cy="274.72" r="3" fill="hsl(197, 80%, 65%)" />
<circle cx="185.66" cy="294.95" r="4" fill="hsl(204, 80%, 65%)" />
<circle cx="281.65" cy="179.48" r="5" fill="hsl(211, 80%, 65%)" />
<circle cx="288.90" cy="330.03" r="6" fill="hsl(218, 80%, 65%)" />
<circle cx="181.46" cy="223.51" r="2" fill="hsl(225, 80%, 65%)" />
<circle cx="333.19" cy="229.50" r="3" fill="hsl(232, 80%, 65%)" />
<circle cx="216.83" cy="327.94" r="4" fill="hsl(239, 80%, 65%)" />
<circle cx="236.21" cy="176.21" r="5" fill="hsl(246, 80%, 65%)" />
<circle cx="324.74" cy="301.63" r="6" fill="hsl(253, 80%, 65%)" />
<circle cx="174.20" cy="268.83" r="2" fill="hsl(260, 80%, 65%)" />
<circle cx="307.84" cy="191.05" r="3" fill="hsl(267, 80%, 65%)" />
<circle cx="261.67" cy="339.20" r="4" fill="hsl(274, 80%, 65%)" />
<circle cx="195.41" cy="198.28" r="5" fill="hsl(281, 80%, 65%)" />
<circle cx="339.96" cy="257.64" r="6" fill="hsl(288, 80%, 65%)" />
<circle cx="192.76" cy="311.70" r="2" fill="hsl(295, 80%, 65%)" />
<circle cx="265.03" cy="171.92" r="3" fill="hsl(302, 80%, 65%)" />
<circle cx="306.30" cy="324.33" r="4" fill="hsl(309, 80%, 65%)" />
<circle cx="172.47" cy="239.54" r="5" fill="hsl(316, 80%, 65%)" />
<circle cx="328.96" cy="211.57" r="6" fill="hsl(323, 80%, 65%)" />
<circle cx="232.14" cy="338.32" r="2" fill="hsl(330, 80%, 65%)" />
<circle cx="217.86" cy="178.92" r="3" fill="hsl(337, 80%, 65%)" />
<circle cx="336.45" cy="287.17" r="4" fill="hsl(344, 80%, 65%)" />
<circle cx="175.36" cy="287.46" r="5" fill="hsl(351, 80%, 65%)" />
<circle cx="294.34" cy="178.07" r="6" fill="hsl(358, 80%, 65%)" />
<circle cx="280.45" cy="339.63" r="2" fill="hsl(5, 80%, 65%)" />
<circle cx="181.24" cy="210.71" r="3" fill="hsl(12, 80%, 65%)" />
<circle cx="341.99" cy="238.85" r="4" fill="hsl(19, 80%, 65%)" />
<circle cx="204.01" cy="326.96" r="5" fill="hsl(26, 80%, 65%)" />
<circle cx="246.37" cy="168.28" r="6" fill="hsl(33, 80%, 65%)" />
<circle cx="322.56" cy="314.36" r="2" fill="hsl(40, 80%, 65%)" />
<circle cx="167.22" cy="257.94" r="3" fill="hsl(47, 80%, 65%)" />
<circle cx="320.35" cy="194.41" r="4" fill="hsl(54, 80%, 65%)" />
<circle cx="250.13" cy="345.16" r="5" fill="hsl(61, 80%, 65%)" />
<circle cx="199.93" cy="186.08" r="6" fill="hsl(68, 80%, 65%)" />
<circle cx="344.84" cy="269.72" r="2" fill="hsl(75, 80%, 65%)" />
<circle cx="181.00" cy="306.04" r="3" fill="hsl(82, 80%, 65%)" />
<circle cx="277.57" cy="168.17" r="4" fill="hsl(89, 80%, 65%)" />
<circle cx="299.55" cy="335.57" r="5" fill="hsl(96, 80%, 65%)" />
<circle cx="169.88" cy="226.66" r="6" fill="hsl(103, 80%, 65%)" />
<circle cx="339.56" cy="219.35" r="2" fill="hsl(110, 80%, 65%)" />
<circle cx="219.03" cy="339.71" r="3" fill="hsl(117, 80%, 65%)" />
<circle cx="226.63" cy="169.05" r="4" fill="hsl(124, 80%, 65%)" />
<circle cx="336.63" cy="300.41" r="5" fill="hsl(131, 80%, 65%)" />
<circle cx="166.29" cy="277.78" r="6" fill="hsl(138, 80%, 65%)" />
<circle cx="307.58" cy="179.12" r="2" fill="hsl(145, 80%, 65%)" />
<circle cx="269.94" cy="347.79" r="3" fill="hsl(152, 80%, 65%)" />
<circle cx="183.51" cy="197.57" r="4" fill="hsl(159, 80%, 65%)" />
<circle cx="349.18" cy="250.11" r="5" fill="hsl(166, 80%, 65%)" />
<circle cx="191.09" cy="323.48" r="6" fill="hsl(173, 80%, 65%)" />
<circle cx="258.29" cy="162.14" r="2" fill="hsl(180, 80%, 65%)" />
<circle cx="317.89" cy="326.96" r="3" fill="hsl(187, 80%, 65%)" />
<circle cx="162.18" cy="245.45" r="4" fill="hsl(194, 80%, 65%)" />
<circle cx="332.51" cy="200.25" r="5" fill="hsl(201, 80%, 65%)" />
<circle cx="237.19" cy="349.05" r="6" fill="hsl(208, 80%, 65%)" />
<circle cx="206.88" cy="174.46" r="2" fill="hsl(215, 80%, 65%)" />
<circle cx="347.54" cy="283.02" r="3" fill="hsl(222, 80%, 65%)" />
<circle cx="170.02" cy="298.02" r="4" fill="hsl(229, 80%, 65%)" />
<circle cx="291.10" cy="166.70" r="5" fill="hsl(236, 80%, 65%)" />
<circle cx="290.53" cy="345.80" r="6" fill="hsl(243, 80%, 65%)" />
<circle cx="169.65" cy="213.00" r="2" fill="hsl(250, 80%, 65%)" />
<circle cx="348.96" cy="229.31" r="3" fill="hsl(257, 80%, 65%)" />
<circle cx="205.35" cy="338.69" r="4" fill="hsl(264, 80%, 65%)" />
<circle cx="237.45" cy="160.56" r="5" fill="hsl(271, 80%, 65%)" />
<circle cx="334.35" cy="313.99" r="6" fill="hsl(278, 80%, 65%)" />
<circle cx="158.81" cy="266.19" r="2" fill="hsl(285, 80%, 65%)" />
<circle cx="320.95" cy="182.64" r="3" fill="hsl(292, 80%, 65%)" />
<circle cx="257.66" cy="354.21" r="4" fill="hsl(299, 80%, 65%)" />
<circle cx="188.26" cy="184.52" r="5" fill="hsl(306, 80%, 65%)" />
<circle cx="354.48" cy="262.96" r="6" fill="hsl(313, 80%, 65%)" />
<circle cx="178.49" cy="317.54" r="2" fill="hsl(320, 80%, 65%)" />
<circle cx="271.62" cy="158.02" r="3" fill="hsl(327, 80%, 65%)" />
<circle cx="310.80" cy="339.01" r="4" fill="hsl(334, 80%, 65%)" />
<circle cx="159.28" cy="231.75" r="5" fill="hsl(341, 80%, 65%)" />
<circle cx="343.91" cy="208.43" r="6" fill="hsl(348, 80%, 65%)" />
<circle cx="223.23" cy="350.69" r="2" fill="hsl(355, 80%, 65%)" />
<circle cx="216.11" cy="163.82" r="3" fill="hsl(2, 80%, 65%)" />
<circle cx="347.91" cy="297.13" r="4" fill="hsl(9, 80%, 65%)" />
<circle cx="160.22" cy="287.83" r="5" fill="hsl(16, 80%, 65%)" />
<circle cx="305.24" cy="167.62" r="6" fill="hsl(23, 80%, 65%)" />
<circle cx="279.45" cy="354.67" r="2" fill="hsl(30, 80%, 65%)" />
<circle cx="171.86" cy="198.95" r="3" fill="hsl(37, 80%, 65%)" />
<circle cx="356.82" cy="241.20" r="4" fill="hsl(44, 80%, 65%)" />
<circle cx="191.51" cy="335.20" r="5" fill="hsl(51, 80%, 65%)" />
<circle cx="250.04" cy="153.80" r="6" fill="hsl(58, 80%, 65%)" />
<circle cx="329.60" cy="327.50" r="2" fill="hsl(65, 80%, 65%)" />
<circle cx="153.19" cy="252.99" r="3" fill="hsl(72, 80%, 65%)" />
<circle cx="334.02" cy="188.62" r="4" fill="hsl(79, 80%, 65%)" />
<circle cx="243.96" cy="358.62" r="5" fill="hsl(86, 80%, 65%)" />
<circle cx="195.42" cy="172.00" r="6" fill="hsl(93, 80%, 65%)" />
<circle cx="357.64" cy="277.06" r="2" fill="hsl(100, 80%, 65%)" />
<circle cx="166.62" cy="309.25" r="3" fill="hsl(107, 80%, 65%)" />
<circle cx="286.00" cy="156.14" r="4" fill="hsl(114, 80%, 65%)" />
<circle cx="301.43" cy="350.11" r="5" fill="hsl(121, 80%, 65%)" />
</svg>
