<svg xmlns="http://www.w3.org/2000/svg" width="512" height="512" viewBox="0 0 512 512">
<rect width="100%" height="100%" fill="#0b1020"/>
<circle cx="392" cy="79" r="47" fill="#f8f3c9" opacity="0.95" />
<circle cx="75.0" cy="26.0" r="3.4" fill="white" />
<circle cx="171.0" cy="113.0" r="2.3" fill="white" />
<circle cx="484.0" cy="168.0" r="2.3" fill="white" />
<circle cx="236.0" cy="111.0" r="2.8" fill="white" />
<circle cx="46.0" cy="119.0" r="2.5" fill="white" />
<circle cx="32.0" cy="130.0" r="3.2" fill="white" />
<circle cx="182.0" cy="130.0" r="2.6" fill="white" />
<path d="M 20 430 C 108 428, 200 456, 291 422 S 450 380, 512 410" stroke="#5dade2" stroke-width="5" fill="none" opacity="0.85" />
<line x1="0" y1="385" x2="512" y2="385" stroke="#445566" stroke-width="4" />
<polygon points="209,360 249,300 289,320 309,290 329,310 341,350 309,372 259,376" fill="#1e1e1e" />
<polygon points="284,300 297,278 307,302" fill="#1e1e1e" />
<line x1="339" y1="345" x2="369" y2="320" stroke="#1e1e1e" stroke-width="6" />
</svg>
