<svg xmlns="http://www.w3.org/2000/svg" width="512" height="512" viewBox="0 0 512 512">
<rect width="100%" height="100%" fill="black"/>
<circle cx="256.00" cy="256.00" r="2" fill="hsl(0, 80%, 65%)" />
<circle cx="250.33" cy="261.19" r="3" fill="hsl(7, 80%, 65%)" />
<circle cx="256.95" cy="245.17" r="4" fill="hsl(14, 80%, 65%)" />
<circle cx="264.10" cy="266.56" r="5" fill="hsl(21, 80%, 65%)" />
<circle cx="240.86" cy="253.32" r="6" fill="hsl(28, 80%, 65%)" />
<circle cx="270.50" cy="246.78" r="2" fill="hsl(35, 80%, 65%)" />
<circle cx="251.11" cy="274.18" r="3" fill="hsl(42, 80%, 65%)" />
<circle cx="246.63" cy="237.96" r="4" fill="hsl(49, 80%, 65%)" />
<circle cx="276.42" cy="263.46" r="5" fill="hsl(56, 80%, 65%)" />
<circle cx="234.69" cy="264.80" r="6" fill="hsl(63, 80%, 65%)" />
<circle cx="266.30" cy="233.99" r="2" fill="hsl(70, 80%, 65%)" />
<circle cx="263.63" cy="280.32" r="3" fill="hsl(77, 80%, 65%)" />
<circle cx="232.97" cy="242.65" r="4" fill="hsl(84, 80%, 65%)" />
<circle cx="283.06" cy="250.05" r="5" fill="hsl(91, 80%, 65%)" />
<circle cx="239.46" cy="279.52" r="6" fill="hsl(98, 80%, 65%)" />
<circle cx="252.17" cy="226.48" r="2" fill="hsl(105, 80%, 65%)" />
<circle cx="279.51" cy="275.81" r="3" fill="hsl(112, 80%, 65%)" />
<circle cx="224.34" cy="257.31" r="4" fill="hsl(119, 80%, 65%)" />
<circle cx="279.11" cy="233.00" r="5" fill="hsl(126, 80%, 65%)" />
<circle cx="254.45" cy="289.46" r="6" fill="hsl(133, 80%, 65%)" />
<circle cx="233.98" cy="229.61" r="2" fill="hsl(140, 80%, 65%)" />
<circle cx="290.90" cy="260.70" r="3" fill="hsl(147, 80%, 65%)" />
<circle cx="226.41" cy="276.59" r="4" fill="hsl(154, 80%, 65%)" />
<circle cx="264.09" cy="220.04" r="5" fill="hsl(161, 80%, 65%)" />
<circle cx="274.72" cy="288.67" r="6" fill="hsl(168, 80%, 65%)" />
<circle cx="219.39" cy="244.32" r="2" fill="hsl(175, 80%, 65%)" />
<circle cx="291.57" cy="239.56" r="3" fill="hsl(182, 80%, 65%)" />
<circle cx="240.58" cy="292.84" r="4" fill="hsl(189, 80%, 65%)" />
<circle cx="242.24" cy="217.73" r="5" fill="hsl(196, 80%, 65%)" />
<circle cx="292.63" cy="275.25" r="6" fill="hsl(203, 80%, 65%)" />
<circle cx="215.30" cy="266.73" r="2" fill="hsl(210, 80%, 65%)" />
<circle cx="279.14" cy="220.01" r="3" fill="hsl(217, 80%, 65%)" />
<circle cx="263.36" cy="298.85" r="4" fill="hsl(224, 80%, 65%)" />
<circle cx="221.10" cy="228.97" r="5" fill="hsl(231, 80%, 65%)" />
<circle cx="300.66" cy="252.30" r="6" fill="hsl(238, 80%, 65%)" />
<circle cx="225.13" cy="289.37" r="2" fill="hsl(245, 80%, 65%)" />
<circle cx="256.22" cy="209.89" r="3" fill="hsl(252, 80%, 65%)" />
<circle cx="287.41" cy="290.62" r="4" fill="hsl(259, 80%, 65%)" />
<circle cx="208.83" cy="251.63" r="5" fill="hsl(266, 80%, 65%)" />
<circle cx="294.23" cy="226.99" r="6" fill="hsl(273, 80%, 65%)" />
<circle cx="247.30" cy="303.82" r="2" fill="hsl(280, 80%, 65%)" />
<circle cx="229.79" cy="214.35" r="3" fill="hsl(287, 80%, 65%)" />
<circle cx="304.03" cy="269.16" r="4" fill="hsl(294, 80%, 65%)" />
<circle cx="211.16" cy="279.01" r="5" fill="hsl(301, 80%, 65%)" />
<circle cx="273.72" cy="208.20" r="6" fill="hsl(308, 80%, 65%)" />
<circle cx="275.44" cy="303.75" r="2" fill="hsl(315, 80%, 65%)" />
<circle cx="208.90" cy="233.68" r="3" fill="hsl(322, 80%, 65%)" />
<circle cx="306.35" cy="240.48" r="4" fill="hsl(329, 80%, 65%)" />
<circle cx="229.08" cy="301.94" r="5" fill="hsl(336, 80%, 65%)" />
<circle cx="244.71" cy="203.40" r="6" fill="hsl(343, 80%, 65%)" />
<circle cx="300.30" cy="287.47" r="2" fill="hsl(350, 80%, 65%)" />
<circle cx="201.54" cy="262.79" r="3" fill="hsl(357, 80%, 65%)" />
<circle cx="291.92" cy="213.80" r="4" fill="hsl(4, 80%, 65%)" />
<circle cx="258.04" cy="311.91" r="5" fill="hsl(11, 80%, 65%)" />
<circle cx="216.36" cy="215.78" r="6" fill="hsl(18, 80%, 65%)" />
<circle cx="312.92" cy="258.91" r="2" fill="hsl(25, 80%, 65%)" />
<circle cx="211.67" cy="292.63" r="3" fill="hsl(32, 80%, 65%)" />
<circle cx="264.02" cy="198.54" r="4" fill="hsl(39, 80%, 65%)" />
<circle cx="289.19" cy="304.21" r="5" fill="hsl(46, 80%, 65%)" />
<circle cx="198.47" cy="242.76" r="6" fill="hsl(53, 80%, 65%)" />
<circle cx="307.79" cy="226.66" r="2" fill="hsl(60, 80%, 65%)" />
<circle cx="237.48" cy="313.09" r="3" fill="hsl(67, 80%, 65%)" />
<circle cx="230.89" cy="200.94" r="4" fill="hsl(74, 80%, 65%)" />
<circle cx="312.15" cy="279.82" r="5" fill="hsl(81, 80%, 65%)" />
<circle cx="198.05" cy="276.53" r="6" fill="hsl(88, 80%, 65%)" />
<circle cx="285.09" cy="201.30" r="2" fill="hsl(95, 80%, 65%)" />
<circle cx="271.62" cy="316.45" r="3" fill="hsl(102, 80%, 65%)" />
<circle cx="203.26" cy="221.72" r="4" fill="hsl(109, 80%, 65%)" />
<circle cx="318.51" cy="245.57" r="5" fill="hsl(116, 80%, 65%)" />
<circle cx="216.67" cy="306.28" r="6" fill="hsl(123, 80%, 65%)" />
<circle cx="251.00" cy="191.90" r="2" fill="hsl(130, 80%, 65%)" />
<circle cx="303.32" cy="300.21" r="3" fill="hsl(137, 80%, 65%)" />
<circle cx="190.79" cy="255.36" r="4" fill="hsl(144, 80%, 65%)" />
<circle cx="304.85" cy="212.12" r="5" fill="hsl(151, 80%, 65%)" />
<circle cx="249.58" cy="321.80" r="6" fill="hsl(158, 80%, 65%)" />
<circle cx="216.02" cy="202.79" r="2" fill="hsl(165, 80%, 65%)" />
<circle cx="321.86" cy="268.31" r="3" fill="hsl(172, 80%, 65%)" />
<circle cx="198.75" cy="291.64" r="4" fill="hsl(179, 80%, 65%)" />
<circle cx="274.26" cy="190.63" r="5" fill="hsl(186, 80%, 65%)" />
<circle cx="286.89" cy="316.92" r="6" fill="hsl(193, 80%, 65%)" />
<circle cx="191.67" cy="231.79" r="2" fill="hsl(200, 80%, 65%)" />
<circle cx="320.19" cy="230.23" r="3" fill="hsl(207, 80%, 65%)" />
<circle cx="225.89" cy="318.74" r="4" fill="hsl(214, 80%, 65%)" />
<circle cx="235.70" cy="188.99" r="5" fill="hsl(221, 80%, 65%)" />
<circle cx="316.59" cy="291.91" r="6" fill="hsl(228, 80%, 65%)" />
<circle cx="186.65" cy="270.54" r="2" fill="hsl(235, 80%, 65%)" />
<circle cx="297.56" cy="198.10" r="3" fill="hsl(242, 80%, 65%)" />
<circle cx="264.52" cy="327.17" r="4" fill="hsl(249, 80%, 65%)" />
<circle cx="201.33" cy="209.00" r="5" fill="hsl(256, 80%, 65%)" />
<circle cx="328.46" cy="253.71" r="6" fill="hsl(263, 80%, 65%)" />
<circle cx="203.82" cy="306.92" r="2" fill="hsl(270, 80%, 65%)" />
<circle cx="260.10" cy="182.80" r="3" fill="hsl(277, 80%, 65%)" />
<circle cx="302.67" cy="313.05" r="4" fill="hsl(284, 80%, 65%)" />
<circle cx="182.65" cy="245.40" r="5" fill="hsl(291, 80%, 65%)" />
<circle cx="317.57" cy="214.04" r="6" fill="hsl(298, 80%, 65%)" />
<circle cx="238.85" cy="328.91" r="2" fill="hsl(305, 80%, 65%)" />
<circle cx="219.20" cy="190.31" r="3" fill="hsl(312, 80%, 65%)" />
<circle cx="327.88" cy="279.71" r="4" fill="hsl(319, 80%, 65%)" />
<circle cx="186.63" cy="287.23" r="5" fill="hsl(326, 80%, 65%)" />
<circle cx="286.21" cy="185.75" r="6" fill="hsl(333, 80%, 65%)" />
<circle cx="281.30" cy="328.57" r="2" fill="hsl(340, 80%, 65%)" />
<circle cx="187.99" cy="219.40" r="3" fill="hsl(347, 80%, 65%)" />
<circle cx="331.24" cy="236.95" r="4" fill="hsl(354, 80%, 65%)" />
<circle cx="213.18" cy="321.19" r="5" fill="hsl(1, 80%, 65%)" />
<circle cx="243.48" cy="178.63" r="6" fill="hsl(8, 80%, 65%)" />
<circle cx="317.79" cy="304.82" r="2" fill="hsl(15, 80%, 65%)" />
<circle cx="177.09" cy="261.76" r="3" fill="hsl(22, 80%, 65%)" />
<circle cx="310.55" cy="198.17" r="4" fill="hsl(29, 80%, 65%)" />
<circle cx="254.83" cy="335.86" r="5" fill="hsl(36, 80%, 65%)" />
<circle cx="202.67" cy="196.05" r="6" fill="hsl(43, 80%, 65%)" />
<circle cx="336.18" cy="264.22" r="2" fill="hsl(50, 80%, 65%)" />
<circle cx="191.03" cy="304.32" r="3" fill="hsl(57, 80%, 65%)" />
<circle cx="271.34" cy="176.13" r="4" fill="hsl(64, 80%, 65%)" />
<circle cx="298.83" cy="325.56" r="5" fill="hsl(71, 80%, 65%)" />
<circle cx="177.08" cy="233.54" r="6" fill="hsl(78, 80%, 65%)" />
<circle cx="329.69" cy="219.09" r="2" fill="hsl(85, 80%, 65%)" />
<circle cx="226.47" cy="333.32" r="3" fill="hsl(92, 80%, 65%)" />
<circle cx="225.41" cy="178.71" r="4" fill="hsl(99, 80%, 65%)" />
<circle cx="331.09" cy="292.49" r="5" fill="hsl(106, 80%, 65%)" />
<circle cx="175.65" cy="279.92" r="6" fill="hsl(113, 80%, 65%)" />
<circle cx="299.27" cy="183.79" r="2" fill="hsl(120, 80%, 65%)" />
<circle cx="272.94" cy="338.82" r="3" fill="hsl(127, 80%, 65%)" />
<circle cx="187.28" cy="206.17" r="4" fill="hsl(134, 80%, 65%)" />
<circle cx="340.68" cy="246.28" r="5" fill="hsl(141, 80%, 65%)" />
<circle cx="199.90" cy="320.62" r="6" fill="hsl(148, 80%, 65%)" />
<circle cx="253.71" cy="170.11" r="2" fill="hsl(155, 80%, 65%)" />
<circle cx="315.95" cy="318.03" r="3" fill="hsl(162, 80%, 65%)" />
<circle cx="169.55" cy="250.73" r="4" fill="hsl(169, 80%, 65%)" />
<circle cx="323.56" cy="201.28" r="5" fill="hsl(176, 80%, 65%)" />
<circle cx="243.10" cy="342.33" r="6" fill="hsl(183, 80%, 65%)" />
<circle cx="207.01" cy="183.35" r="2" fill="hsl(190, 80%, 65%)" />
<circle cx="341.52" cy="276.56" r="3" fill="hsl(197, 80%, 65%)" />
<circle cx="178.76" cy="298.77" r="4" fill="hsl(204, 80%, 65%)" />
<circle cx="284.17" cy="171.97" r="5" fill="hsl(211, 80%, 65%)" />
<circle cx="292.13" cy="337.30" r="6" fill="hsl(218, 80%, 65%)" />
<circle cx="174.14" cy="220.33" r="2" fill="hsl(225, 80%, 65%)" />
<circle cx="340.77" cy="226.90" r="3" fill="hsl(232, 80%, 65%)" />
<circle cx="212.99" cy="335.00" r="4" fill="hsl(239, 80%, 65%)" />
<circle cx="234.27" cy="168.38" r="5" fill="hsl(246, 80%, 65%)" />
<circle cx="331.49" cy="306.11" r="6" fill="hsl(253, 80%, 65%)" />
<circle cx="166.17" cy="270.09" r="2" fill="hsl(260, 80%, 65%)" />
<circle cx="312.93" cy="184.68" r="3" fill="hsl(267, 80%, 65%)" />
<circle cx="262.22" cy="347.37" r="4" fill="hsl(274, 80%, 65%)" />
<circle cx="189.46" cy="192.61" r="5" fill="hsl(281, 80%, 65%)" />
<circle cx="348.20" cy="257.80" r="6" fill="hsl(288, 80%, 65%)" />
<circle cx="186.56" cy="317.17" r="2" fill="hsl(295, 80%, 65%)" />
<circle cx="265.92" cy="163.67" r="3" fill="hsl(302, 80%, 65%)" />
<circle cx="311.24" cy="331.04" r="4" fill="hsl(309, 80%, 65%)" />
<circle cx="164.27" cy="237.92" r="5" fill="hsl(316, 80%, 65%)" />
<circle cx="336.12" cy="207.20" r="6" fill="hsl(323, 80%, 65%)" />
<circle cx="229.80" cy="346.40" r="2" fill="hsl(330, 80%, 65%)" />
<circle cx="214.12" cy="171.36" r="3" fill="hsl(337, 80%, 65%)" />
<circle cx="344.35" cy="290.23" r="4" fill="hsl(344, 80%, 65%)" />
<circle cx="167.44" cy="290.55" r="5" fill="hsl(351, 80%, 65%)" />
<circle cx="298.10" cy="170.43" r="6" fill="hsl(358, 80%, 65%)" />
<circle cx="282.85" cy="347.83" r="2" fill="hsl(5, 80%, 65%)" />
<circle cx="173.91" cy="206.26" r="3" fill="hsl(12, 80%, 65%)" />
<circle cx="350.43" cy="237.16" r="4" fill="hsl(19, 80%, 65%)" />
<circle cx="198.91" cy="333.93" r="5" fill="hsl(26, 80%, 65%)" />
<circle cx="245.42" cy="159.67" r="6" fill="hsl(33, 80%, 65%)" />
<circle cx="329.09" cy="320.08" r="2" fill="hsl(40, 80%, 65%)" />
<circle cx="158.51" cy="258.13" r="3" fill="hsl(47, 80%, 65%)" />
<circle cx="326.67" cy="188.37" r="4" fill="hsl(54, 80%, 65%)" />
<circle cx="249.56" cy="353.91" r="5" fill="hsl(61, 80%, 65%)" />
<circle cx="194.43" cy="179.22" r="6" fill="hsl(68, 80%, 65%)" />
<circle cx="353.56" cy="271.07" r="2" fill="hsl(75, 80%, 65%)" />
<circle cx="173.63" cy="310.95" r="3" fill="hsl(82, 80%, 65%)" />
<circle cx="279.68" cy="159.55" r="4" fill="hsl(89, 80%, 65%)" />
<circle cx="303.83" cy="343.38" r="5" fill="hsl(96, 80%, 65%)" />
<circle cx="161.43" cy="223.78" r="6" fill="hsl(103, 80%, 65%)" />
<circle cx="347.76" cy="215.76" r="2" fill="hsl(110, 80%, 65%)" />
<circle cx="215.40" cy="347.93" r="3" fill="hsl(117, 80%, 65%)" />
<circle cx="223.74" cy="160.51" r="4" fill="hsl(124, 80%, 65%)" />
<circle cx="344.54" cy="304.76" r="5" fill="hsl(131, 80%, 65%)" />
<circle cx="157.49" cy="279.92" r="6" fill="hsl(138, 80%, 65%)" />
<circle cx="312.64" cy="171.58" r="2" fill="hsl(145, 80%, 65%)" />
<circle cx="271.30" cy="356.80" r="3" fill="hsl(152, 80%, 65%)" />
<circle cx="176.40" cy="191.83" r="4" fill="hsl(159, 80%, 65%)" />
<circle cx="358.33" cy="249.53" r="5" fill="hsl(166, 80%, 65%)" />
<circle cx="184.72" cy="330.10" r="6" fill="hsl(173, 80%, 65%)" />
<circle cx="258.51" cy="152.92" r="2" fill="hsl(180, 80%, 65%)" />
<circle cx="323.96" cy="333.92" r="3" fill="hsl(187, 80%, 65%)" />
<circle cx="152.97" cy="244.42" r="4" fill="hsl(194, 80%, 65%)" />
<circle cx="340.02" cy="194.78" r="5" fill="hsl(201, 80%, 65%)" />
<circle cx="235.34" cy="358.18" r="6" fill="hsl(208, 80%, 65%)" />
<circle cx="202.06" cy="166.46" r="2" fill="hsl(215, 80%, 65%)" />
<circle cx="356.52" cy="285.67" r="3" fill="hsl(222, 80%, 65%)" />
<circle cx="161.58" cy="302.15" r="4" fill="hsl(229, 80%, 65%)" />
<circle cx="294.55" cy="157.93" r="5" fill="hsl(236, 80%, 65%)" />
<circle cx="293.92" cy="354.61" r="6" fill="hsl(243, 80%, 65%)" />
<circle cx="161.18" cy="208.77" r="2" fill="hsl(250, 80%, 65%)" />
<circle cx="358.09" cy="226.69" r="3" fill="hsl(257, 80%, 65%)" />
<circle cx="200.37" cy="346.80" r="4" fill="hsl(264, 80%, 65%)" />
<circle cx="235.63" cy="151.20" r="5" fill="hsl(271, 80%, 65%)" />
<circle cx="342.04" cy="319.68" r="6" fill="hsl(278, 80%, 65%)" />
<circle cx="149.27" cy="267.19" r="2" fill="hsl(285, 80%, 65%)" />
<circle cx="327.32" cy="175.45" r="3" fill="hsl(292, 80%, 65%)" />
<circle cx="257.83" cy="363.85" r="4" fill="hsl(299, 80%, 65%)" />
<circle cx="181.61" cy="177.51" r="5" fill="hsl(306, 80%, 65%)" />
<circle cx="364.14" cy="263.65" r="6" fill="hsl(313, 80%, 65%)" />
<circle cx="170.88" cy="323.58" r="2" fill="hsl(320, 80%, 65%)" />
<circle cx="273.16" cy="148.40" r="3" fill="hsl(327, 80%, 65%)" />
<circle cx="316.18" cy="347.15" r="4" fill="hsl(334, 80%, 65%)" />
<circle cx="149.79" cy="229.37" r="5" fill="hsl(341, 80%, 65%)" />
<circle cx="352.54" cy="203.77" r="6" fill="hsl(348, 80%, 65%)" />
<circle cx="220.01" cy="359.98" r="2" fill="hsl(355, 80%, 65%)" />
<circle cx="212.19" cy="154.77" r="3" fill="hsl(2, 80%, 65%)" />
<circle cx="356.93" cy="301.16" r="4" fill="hsl(9, 80%, 65%)" />
<circle cx="150.82" cy="290.96" r="5" fill="hsl(16, 80%, 65%)" />
<circle cx="310.07" cy="158.94" r="6" fill="hsl(23, 80%, 65%)" />
<circle cx="281.75" cy="364.35" r="2" fill="hsl(30, 80%, 65%)" />
<circle cx="163.60" cy="193.35" r="3" fill="hsl(37, 80%, 65%)" />
<circle cx="366.71" cy="239.74" r="4" fill="hsl(44, 80%, 65%)" />
<circle cx="185.18" cy="342.98" r="5" fill="hsl(51, 80%, 65%)" />
<circle cx="249.45" cy="143.77" r="6" fill="hsl(58, 80%, 65%)" />
<circle cx="336.83" cy="334.52" r="2" fill="hsl(65, 80%, 65%)" />
<circle cx="143.10" cy="252.69" r="3" fill="hsl(72, 80%, 65%)" />
<circle cx="341.68" cy="182.00" r="4" fill="hsl(79, 80%, 65%)" />
<circle cx="242.78" cy="368.70" r="5" fill="hsl(86, 80%, 65%)" />
<circle cx="189.47" cy="163.76" r="6" fill="hsl(93, 80%, 65%)" />
<circle cx="367.62" cy="279.13" r="2" fill="hsl(100, 80%, 65%)" />
<circle cx="157.85" cy="314.47" r="3" fill="hsl(107, 80%, 65%)" />
<circle cx="288.95" cy="146.34" r="4" fill="hsl(114, 80%, 65%)" />
<circle cx="305.89" cy="359.35" r="5" fill="hsl(121, 80%, 65%)" />
<circle cx="149.16" cy="213.40" r="6" fill="hsl(128, 80%, 65%)" />
<circle cx="363.80" cy="215.15" r="2" fill="hsl(135, 80%, 65%)" />
<circle cx="203.99" cy="359.16" r="3" fill="hsl(142, 80%, 65%)" />
<circle cx="224.59" cy="144.55" r="4" fill="hsl(149, 80%, 65%)" />
<circle cx="354.66" cy="317.10" r="5" fill="hsl(156, 80%, 65%)" />
<circle cx="141.73" cy="277.64" r="6" fill="hsl(163, 80%, 65%)" />
<circle cx="325.79" cy="162.66" r="2" fill="hsl(170, 80%, 65%)" />
<circle cx="267.61" cy="372.22" r="3" fill="hsl(177, 80%, 65%)" />
<circle cx="168.74" cy="177.98" r="4" fill="hsl(184, 80%, 65%)" />
<circle cx="373.30" cy="254.59" r="5" fill="hsl(191, 80%, 65%)" />
<circle cx="170.28" cy="336.45" r="6" fill="hsl(198, 80%, 65%)" />
<circle cx="264.88" cy="138.53" r="2" fill="hsl(205, 80%, 65%)" />
<circle cx="328.96" cy="348.82" r="3" fill="hsl(212, 80%, 65%)" />
<circle cx="139.26" cy="236.80" r="4" fill="hsl(219, 80%, 65%)" />
<circle cx="355.26" cy="191.16" r="5" fill="hsl(226, 80%, 65%)" />
<circle cx="226.54" cy="371.10" r="6" fill="hsl(233, 80%, 65%)" />
<circle cx="199.86" cy="151.01" r="2" fill="hsl(240, 80%, 65%)" />
<circle cx="368.55" cy="295.57" r="3" fill="hsl(247, 80%, 65%)" />
<circle cx="146.05" cy="302.95" r="4" fill="hsl(254, 80%, 65%)" />
<circle cx="305.46" cy="146.89" r="5" fill="hsl(261, 80%, 65%)" />
<circle cx="293.31" cy="370.10" r="6" fill="hsl(268, 80%, 65%)" />
<circle cx="151.20" cy="196.94" r="2" fill="hsl(275, 80%, 65%)" />
<circle cx="373.40" cy="228.70" r="3" fill="hsl(282, 80%, 65%)" />
<circle cx="187.73" cy="355.64" r="4" fill="hsl(289, 80%, 65%)" />
<circle cx="239.00" cy="136.17" r="5" fill="hsl(296, 80%, 65%)" />
<circle cx="349.66" cy="333.03" r="6" fill="hsl(303, 80%, 65%)" />
<circle cx="134.66" cy="262.48" r="2" fill="hsl(310, 80%, 65%)" />
<circle cx="341.26" cy="169.08" r="3" fill="hsl(317, 80%, 65%)" />
<circle cx="251.83" cy="377.93" r="4" fill="hsl(324, 80%, 65%)" />
<circle cx="176.55" cy="163.10" r="5" fill="hsl(331, 80%, 65%)" />
<circle cx="377.57" cy="270.87" r="6" fill="hsl(338, 80%, 65%)" />
<circle cx="156.12" cy="327.30" r="2" fill="hsl(345, 80%, 65%)" />
<circle cx="281.54" cy="135.72" r="3" fill="hsl(352, 80%, 65%)" />
<circle cx="318.54" cy="362.15" r="4" fill="hsl(359, 80%, 65%)" />
<circle cx="137.95" cy="219.90" r="5" fill="hsl(6, 80%, 65%)" />
</svg>
