<svg xmlns="http://www.w3.org/2000/svg" width="512" height="512" viewBox="0 0 512 512">
<rect width="100%" height="100%" fill="#0b1020"/>
<circle cx="422" cy="67" r="48" fill="#f8f3c9" opacity="0.95" />
<circle cx="102.0" cy="178.0" r="1.9" fill="white" />
<circle cx="422.0" cy="151.0" r="2.4" fill="white" />
<circle cx="492.0" cy="148.0" r="2.8" fill="white" />
<circle cx="394.0" cy="84.0" r="2.4" fill="white" />
<circle cx="383.0" cy="75.0" r="2.3" fill="white" />
<circle cx="410.0" cy="158.0" r="2.2" fill="white" />
<circle cx="453.0" cy="171.0" r="3.1" fill="white" />
<circle cx="241.0" cy="76.0" r="2.7" fill="white" />
<circle cx="387.0" cy="43.0" r="2.7" fill="white" />
<circle cx="227.0" cy="95.0" r="1.7" fill="white" />
<circle cx="78.0" cy="109.0" r="1.9" fill="white" />
<circle cx="142.0" cy="144.0" r="1.6" fill="white" />
<circle cx="407.0" cy="140.0" r="2.5" fill="white" />
<circle cx="161.0" cy="47.0" r="3.2" fill="white" />
<circle cx="231.0" cy="115.0" r="2.1" fill="white" />
<path d="M 20 430 C 109 427, 161 456, 281 431 S 450 385, 512 415" stroke="#5dade2" stroke-width="6" fill="none" opacity="0.85" />
<line x1="0" y1="402" x2="512" y2="402" stroke="#445566" stroke-width="4" />
<polygon points="207,360 247,300 287,320 307,290 327,310 339,350 307,372 257,376" fill="#1e1e1e" />
<polygon points="282,300 295,278 305,302" fill="#1e1e1e" />
<line x1="337" y1="345" x2="367" y2="320" stroke="#1e1e1e" stroke-width="6" />
</svg>
