<svg xmlns="http://www.w3.org/2000/svg" width="512" height="512" viewBox="0 0 512 512">
<rect width="100%" height="100%" fill="#0b1020"/>
<circle cx="419" cy="109" r="54" fill="#f8f3c9" opacity="0.95" />
<circle cx="167.0" cy="142.0" r="1.8" fill="white" />
<circle cx="387.0" cy="166.0" r="2.5" fill="white" />
<circle cx="148.0" cy="79.0" r="3.4" fill="white" />
<circle cx="469.0" cy="54.0" r="1.7" fill="white" />
<circle cx="158.0" cy="77.0" r="2.6" fill="white" />
<circle cx="162.0" cy="33.0" r="2.1" fill="white" />
<circle cx="42.0" cy="135.0" r="2.5" fill="white" />
<circle cx="233.0" cy="174.0" r="2.6" fill="white" />
<circle cx="166.0" cy="69.0" r="2.7" fill="white" />
<path d="M 20 430 C 110 417, 161 456, 313 433 S 450 404, 512 434" stroke="#5dade2" stroke-width="8" fill="none" opacity="0.85" />
<line x1="0" y1="391" x2="512" y2="391" stroke="#445566" stroke-width="2" />
<polygon points="206,361 246,301 286,321 306,291 326,311 338,351 306,373 256,377" fill="#1e1e1e" />
<polygon points="281,301 294,279 304,303" fill="#1e1e1e" />
<line x1="336" y1="346" x2="366" y2="321" stroke="#1e1e1e" stroke-width="6" />
</svg>
