<svg xmlns="http://www.w3.org/2000/svg" width="512" height="512" viewBox="0 0 512 512">
<rect width="100%" height="100%" fill="#0b1020"/>
<circle cx="454" cy="113" r="52" fill="#f8f3c9" opacity="0.95" />
<circle cx="314.0" cy="59.0" r="2.8" fill="white" />
<circle cx="467.0" cy="128.0" r="2.8" fill="white" />
<circle cx="281.0" cy="59.0" r="3.4" fill="white" />
<circle cx="37.0" cy="121.0" r="2.4" fill="white" />
<circle cx="144.0" cy="172.0" r="2.3" fill="white" />
<circle cx="34.0" cy="159.0" r="1.7" fill="white" />
<circle cx="46.0" cy="37.0" r="1.5" fill="white" />
<circle cx="440.0" cy="142.0" r="2.1" fill="white" />
<circle cx="153.0" cy="174.0" r="3.1" fill="white" />
<circle cx="427.0" cy="109.0" r="1.9" fill="white" />
<circle cx="417.0" cy="128.0" r="1.6" fill="white" />
<circle cx="24.0" cy="66.0" r="1.7" fill="white" />
<path d="M 20 430 C 105 411, 178 443, 291 440 S 450 398, 512 428" stroke="#5dade2" stroke-width="5" fill="none" opacity="0.85" />
<line x1="0" y1="397" x2="512" y2="397" stroke="#445566" stroke-width="4" />
<polygon points="141,356 181,296 221,316 241,286 261,306 273,346 241,368 191,372" fill="#1e1e1e" />
<polygon points="216,296 229,274 239,298" fill="#1e1e1e" />
<line x1="271" y1="341" x2="301" y2="316" stroke="#1e1e1e" stroke-width="6" />
</svg>
