<svg xmlns="http://www.w3.org/2000/svg" width="512" height="512" viewBox="0 0 512 512">
<rect width="100%" height="100%" fill="#0b1020"/>
<circle cx="379" cy="113" r="50" fill="#f8f3c9" opacity="0.95" />
<circle cx="345.0" cy="58.0" r="3.5" fill="white" />
<circle cx="227.0" cy="153.0" r="1.8" fill="white" />
<circle cx="53.0" cy="123.0" r="2.8" fill="white" />
<circle cx="230.0" cy="78.0" r="3.5" fill="white" />
<circle cx="320.0" cy="179.0" r="3.4" fill="white" />
<circle cx="29.0" cy="24.0" r="2.1" fill="white" />
<circle cx="311.0" cy="163.0" r="2.0" fill="white" />
<circle cx="314.0" cy="20.0" r="2.2" fill="white" />
<path d="M 20 430 C 102 415, 162 446, 297 427 S 450 394, 512 424" stroke="#5dade2" stroke-width="7" fill="none" opacity="0.85" />
<line x1="0" y1="388" x2="512" y2="388" stroke="#445566" stroke-width="2" />
<polygon points="202,365 242,305 282,325 302,295 322,315 334,355 302,377 252,381" fill="#1e1e1e" />
<polygon points="277,305 290,283 300,307" fill="#1e1e1e" />
<line x1="332" y1="350" x2="362" y2="325" stroke="#1e1e1e" stroke-width="6" />
</svg>
