<svg xmlns="http://www.w3.org/2000/svg" width="512" height="512" viewBox="0 0 512 512">
<rect width="100%" height="100%" fill="#0b1020"/>
<circle cx="344" cy="61" r="40" fill="#f8f3c9" opacity="0.95" />
<circle cx="310.0" cy="111.0" r="2.3" fill="white" />
<circle cx="235.0" cy="117.0" r="2.7" fill="white" />
<circle cx="370.0" cy="159.0" r="2.9" fill="white" />
<circle cx="171.0" cy="119.0" r="1.7" fill="white" />
<circle cx="358.0" cy="48.0" r="1.7" fill="white" />
<circle cx="183.0" cy="134.0" r="2.0" fill="white" />
<circle cx="78.0" cy="176.0" r="2.9" fill="white" />
<circle cx="289.0" cy="135.0" r="2.8" fill="white" />
<circle cx="402.0" cy="146.0" r="1.9" fill="white" />
<circle cx="160.0" cy="152.0" r="2.7" fill="white" />
<circle cx="26.0" cy="94.0" r="2.6" fill="white" />
<circle cx="76.0" cy="51.0" r="3.4" fill="white" />
<path d="M 20 430 C 137 427, 196 447, 305 429 S 450 380, 512 410" stroke="#5dade2" stroke-width="7" fill="none" opacity="0.85" />
<line x1="0" y1="412" x2="512" y2="412" stroke="#445566" stroke-width="4" />
<polygon points="166,359 206,299 246,319 266,289 286,309 298,349 266,371 216,375" fill="#1e1e1e" />
<polygon points="241,299 254,277 264,301" fill="#1e1e1e" />
<line x1="296" y1="344" x2="326" y2="319" stroke="#1e1e1e" stroke-width="6" />
</svg>
