<svg xmlns="http://www.w3.org/2000/svg" width="512" height="512" viewBox="0 0 512 512">
<rect width="100%" height="100%" fill="black"/>
<circle cx="256.00" cy="256.00" r="2" fill="hsl(0, 80%, 65%)" />
<circle cx="250.31" cy="261.21" r="3" fill="hsl(9, 80%, 65%)" />
<circle cx="256.95" cy="245.13" r="4" fill="hsl(18, 80%, 65%)" />
<circle cx="264.13" cy="266.60" r="5" fill="hsl(27, 80%, 65%)" />
<circle cx="240.81" cy="253.31" r="6" fill="hsl(36, 80%, 65%)" />
<circle cx="270.56" cy="246.74" r="2" fill="hsl(45, 80%, 65%)" />
<circle cx="251.09" cy="274.25" r="3" fill="hsl(54, 80%, 65%)" />
<circle cx="246.59" cy="237.89" r="4" fill="hsl(63, 80%, 65%)" />
<circle cx="276.50" cy="263.49" r="5" fill="hsl(72, 80%, 65%)" />
<circle cx="234.61" cy="264.83" r="6" fill="hsl(81, 80%, 65%)" />
<circle cx="266.34" cy="233.90" r="2" fill="hsl(90, 80%, 65%)" />
<circle cx="263.66" cy="280.42" r="3" fill="hsl(99, 80%, 65%)" />
<circle cx="232.88" cy="242.60" r="4" fill="hsl(108, 80%, 65%)" />
<circle cx="283.17" cy="250.03" r="5" fill="hsl(117, 80%, 65%)" />
<circle cx="239.40" cy="279.62" r="6" fill="hsl(126, 80%, 65%)" />
<circle cx="252.16" cy="226.37" r="2" fill="hsl(135, 80%, 65%)" />
<circle cx="279.60" cy="275.89" r="3" fill="hsl(144, 80%, 65%)" />
<circle cx="224.22" cy="257.31" r="4" fill="hsl(153, 80%, 65%)" />
<circle cx="279.20" cy="232.91" r="5" fill="hsl(162, 80%, 65%)" />
<circle cx="254.45" cy="289.59" r="6" fill="hsl(171, 80%, 65%)" />
<circle cx="233.89" cy="229.51" r="2" fill="hsl(180, 80%, 65%)" />
<circle cx="291.04" cy="260.71" r="3" fill="hsl(189, 80%, 65%)" />
<circle cx="226.30" cy="276.67" r="4" fill="hsl(198, 80%, 65%)" />
<circle cx="264.12" cy="219.90" r="5" fill="hsl(207, 80%, 65%)" />
<circle cx="274.79" cy="288.79" r="6" fill="hsl(216, 80%, 65%)" />
<circle cx="219.25" cy="244.28" r="2" fill="hsl(225, 80%, 65%)" />
<circle cx="291.71" cy="239.50" r="3" fill="hsl(234, 80%, 65%)" />
<circle cx="240.52" cy="292.98" r="4" fill="hsl(243, 80%, 65%)" />
<circle cx="242.18" cy="217.58" r="5" fill="hsl(252, 80%, 65%)" />
<circle cx="292.78" cy="275.33" r="6" fill="hsl(261, 80%, 65%)" />
<circle cx="215.14" cy="266.77" r="2" fill="hsl(270, 80%, 65%)" />
<circle cx="279.23" cy="219.87" r="3" fill="hsl(279, 80%, 65%)" />
<circle cx="263.39" cy="299.01" r="4" fill="hsl(288, 80%, 65%)" />
<circle cx="220.96" cy="228.86" r="5" fill="hsl(297, 80%, 65%)" />
<circle cx="300.83" cy="252.29" r="6" fill="hsl(306, 80%, 65%)" />
<circle cx="225.00" cy="289.51" r="2" fill="hsl(315, 80%, 65%)" />
<circle cx="256.23" cy="209.71" r="3" fill="hsl(324, 80%, 65%)" />
<circle cx="287.53" cy="290.76" r="4" fill="hsl(333, 80%, 65%)" />
<circle cx="208.64" cy="251.61" r="5" fill="hsl(342, 80%, 65%)" />
<circle cx="294.38" cy="226.87" r="6" fill="hsl(351, 80%, 65%)" />
<circle cx="247.27" cy="304.01" r="2" fill="hsl(0, 80%, 65%)" />
<circle cx="229.69" cy="214.19" r="3" fill="hsl(9, 80%, 65%)" />
<circle cx="304.22" cy="269.22" r="4" fill="hsl(18, 80%, 65%)" />
<circle cx="210.99" cy="279.10" r="5" fill="hsl(27, 80%, 65%)" />
<circle cx="273.79" cy="208.01" r="6" fill="hsl(36, 80%, 65%)" />
<circle cx="275.51" cy="303.94" r="2" fill="hsl(45, 80%, 65%)" />
<circle cx="208.71" cy="233.59" r="3" fill="hsl(54, 80%, 65%)" />
<circle cx="306.54" cy="240.42" r="4" fill="hsl(63, 80%, 65%)" />
<circle cx="228.97" cy="302.12" r="5" fill="hsl(72, 80%, 65%)" />
<circle cx="244.66" cy="203.20" r="6" fill="hsl(81, 80%, 65%)" />
<circle cx="300.48" cy="287.59" r="2" fill="hsl(90, 80%, 65%)" />
<circle cx="201.33" cy="262.81" r="3" fill="hsl(99, 80%, 65%)" />
<circle cx="292.06" cy="213.63" r="4" fill="hsl(108, 80%, 65%)" />
<circle cx="258.05" cy="312.13" r="5" fill="hsl(117, 80%, 65%)" />
<circle cx="216.21" cy="215.62" r="6" fill="hsl(126, 80%, 65%)" />
<circle cx="313.14" cy="258.92" r="2" fill="hsl(135, 80%, 65%)" />
<circle cx="211.49" cy="292.77" r="3" fill="hsl(144, 80%, 65%)" />
<circle cx="264.05" cy="198.31" r="4" fill="hsl(153, 80%, 65%)" />
<circle cx="289.32" cy="304.39" r="5" fill="hsl(162, 80%, 65%)" />
<circle cx="198.25" cy="242.71" r="6" fill="hsl(171, 80%, 65%)" />
<circle cx="308.00" cy="226.54" r="2" fill="hsl(180, 80%, 65%)" />
<circle cx="237.41" cy="313.32" r="3" fill="hsl(189, 80%, 65%)" />
<circle cx="230.79" cy="200.73" r="4" fill="hsl(198, 80%, 65%)" />
<circle cx="312.37" cy="279.92" r="5" fill="hsl(207, 80%, 65%)" />
<circle cx="197.82" cy="276.61" r="6" fill="hsl(216, 80%, 65%)" />
<circle cx="285.21" cy="201.08" r="2" fill="hsl(225, 80%, 65%)" />
<circle cx="271.68" cy="316.69" r="3" fill="hsl(234, 80%, 65%)" />
<circle cx="203.05" cy="221.59" r="4" fill="hsl(243, 80%, 65%)" />
<circle cx="318.75" cy="245.53" r="5" fill="hsl(252, 80%, 65%)" />
<circle cx="216.51" cy="306.48" r="6" fill="hsl(261, 80%, 65%)" />
<circle cx="250.98" cy="191.65" r="2" fill="hsl(270, 80%, 65%)" />
<circle cx="303.51" cy="300.38" r="3" fill="hsl(279, 80%, 65%)" />
<circle cx="190.54" cy="255.36" r="4" fill="hsl(288, 80%, 65%)" />
<circle cx="305.04" cy="211.95" r="5" fill="hsl(297, 80%, 65%)" />
<circle cx="249.55" cy="322.05" r="6" fill="hsl(306, 80%, 65%)" />
<circle cx="215.87" cy="202.58" r="2" fill="hsl(315, 80%, 65%)" />
<circle cx="322.11" cy="268.36" r="3" fill="hsl(324, 80%, 65%)" />
<circle cx="198.53" cy="291.78" r="4" fill="hsl(333, 80%, 65%)" />
<circle cx="274.33" cy="190.37" r="5" fill="hsl(342, 80%, 65%)" />
<circle cx="287.01" cy="317.16" r="6" fill="hsl(351, 80%, 65%)" />
<circle cx="191.41" cy="231.70" r="2" fill="hsl(0, 80%, 65%)" />
<circle cx="320.44" cy="230.13" r="3" fill="hsl(9, 80%, 65%)" />
<circle cx="225.77" cy="318.99" r="4" fill="hsl(18, 80%, 65%)" />
<circle cx="235.62" cy="188.73" r="5" fill="hsl(27, 80%, 65%)" />
<circle cx="316.83" cy="292.05" r="6" fill="hsl(36, 80%, 65%)" />
<circle cx="186.38" cy="270.59" r="2" fill="hsl(45, 80%, 65%)" />
<circle cx="297.72" cy="197.87" r="3" fill="hsl(54, 80%, 65%)" />
<circle cx="264.55" cy="327.45" r="4" fill="hsl(63, 80%, 65%)" />
<circle cx="201.12" cy="208.82" r="5" fill="hsl(72, 80%, 65%)" />
<circle cx="328.75" cy="253.70" r="6" fill="hsl(81, 80%, 65%)" />
<circle cx="203.62" cy="307.12" r="2" fill="hsl(90, 80%, 65%)" />
<circle cx="260.12" cy="182.52" r="3" fill="hsl(99, 80%, 65%)" />
<circle cx="302.86" cy="313.28" r="4" fill="hsl(108, 80%, 65%)" />
<circle cx="182.36" cy="245.36" r="5" fill="hsl(117, 80%, 65%)" />
<circle cx="317.82" cy="213.88" r="6" fill="hsl(126, 80%, 65%)" />
<circle cx="238.78" cy="329.20" r="2" fill="hsl(135, 80%, 65%)" />
<circle cx="219.06" cy="190.05" r="3" fill="hsl(144, 80%, 65%)" />
<circle cx="328.16" cy="279.80" r="4" fill="hsl(153, 80%, 65%)" />
<circle cx="186.36" cy="287.36" r="5" fill="hsl(162, 80%, 65%)" />
<circle cx="286.33" cy="185.48" r="6" fill="hsl(171, 80%, 65%)" />
<circle cx="281.40" cy="328.85" r="2" fill="hsl(180, 80%, 65%)" />
<circle cx="187.72" cy="219.26" r="3" fill="hsl(189, 80%, 65%)" />
<circle cx="331.54" cy="236.88" r="4" fill="hsl(198, 80%, 65%)" />
<circle cx="213.01" cy="321.44" r="5" fill="hsl(207, 80%, 65%)" />
<circle cx="243.43" cy="178.33" r="6" fill="hsl(216, 80%, 65%)" />
<circle cx="318.03" cy="305.01" r="2" fill="hsl(225, 80%, 65%)" />
<circle cx="176.78" cy="261.79" r="3" fill="hsl(234, 80%, 65%)" />
<circle cx="310.76" cy="197.95" r="4" fill="hsl(243, 80%, 65%)" />
<circle cx="254.83" cy="336.17" r="5" fill="hsl(252, 80%, 65%)" />
<circle cx="202.47" cy="195.82" r="6" fill="hsl(261, 80%, 65%)" />
<circle cx="336.50" cy="264.25" r="2" fill="hsl(270, 80%, 65%)" />
<circle cx="190.78" cy="304.51" r="3" fill="hsl(279, 80%, 65%)" />
<circle cx="271.40" cy="175.82" r="4" fill="hsl(288, 80%, 65%)" />
<circle cx="299.00" cy="325.84" r="5" fill="hsl(297, 80%, 65%)" />
<circle cx="176.77" cy="233.45" r="6" fill="hsl(306, 80%, 65%)" />
<circle cx="329.97" cy="218.95" r="2" fill="hsl(315, 80%, 65%)" />
<circle cx="226.36" cy="333.63" r="3" fill="hsl(324, 80%, 65%)" />
<circle cx="225.29" cy="178.40" r="4" fill="hsl(333, 80%, 65%)" />
<circle cx="331.38" cy="292.63" r="5" fill="hsl(342, 80%, 65%)" />
<circle cx="175.34" cy="280.01" r="6" fill="hsl(351, 80%, 65%)" />
<circle cx="299.44" cy="183.50" r="2" fill="hsl(0, 80%, 65%)" />
<circle cx="273.01" cy="339.15" r="3" fill="hsl(9, 80%, 65%)" />
<circle cx="187.01" cy="205.97" r="4" fill="hsl(18, 80%, 65%)" />
<circle cx="341.01" cy="246.25" r="5" fill="hsl(27, 80%, 65%)" />
<circle cx="199.68" cy="320.88" r="6" fill="hsl(36, 80%, 65%)" />
<circle cx="253.70" cy="169.77" r="2" fill="hsl(45, 80%, 65%)" />
<circle cx="316.18" cy="318.27" r="3" fill="hsl(54, 80%, 65%)" />
<circle cx="169.22" cy="250.71" r="4" fill="hsl(63, 80%, 65%)" />
<circle cx="323.83" cy="201.06" r="5" fill="hsl(72, 80%, 65%)" />
<circle cx="243.05" cy="342.66" r="6" fill="hsl(81, 80%, 65%)" />
<circle cx="206.82" cy="183.06" r="2" fill="hsl(90, 80%, 65%)" />
<circle cx="341.86" cy="276.64" r="3" fill="hsl(99, 80%, 65%)" />
<circle cx="178.45" cy="298.94" r="4" fill="hsl(108, 80%, 65%)" />
<circle cx="284.28" cy="171.64" r="5" fill="hsl(117, 80%, 65%)" />
<circle cx="292.27" cy="337.61" r="6" fill="hsl(126, 80%, 65%)" />
<circle cx="173.82" cy="220.19" r="2" fill="hsl(135, 80%, 65%)" />
<circle cx="341.10" cy="226.79" r="3" fill="hsl(144, 80%, 65%)" />
<circle cx="212.82" cy="335.31" r="4" fill="hsl(153, 80%, 65%)" />
<circle cx="234.18" cy="168.03" r="5" fill="hsl(162, 80%, 65%)" />
<circle cx="331.78" cy="306.31" r="6" fill="hsl(171, 80%, 65%)" />
<circle cx="165.82" cy="270.14" r="2" fill="hsl(180, 80%, 65%)" />
<circle cx="313.15" cy="184.40" r="3" fill="hsl(189, 80%, 65%)" />
<circle cx="262.25" cy="347.72" r="4" fill="hsl(198, 80%, 65%)" />
<circle cx="189.20" cy="192.36" r="5" fill="hsl(207, 80%, 65%)" />
<circle cx="348.56" cy="257.81" r="6" fill="hsl(216, 80%, 65%)" />
<circle cx="186.28" cy="317.41" r="2" fill="hsl(225, 80%, 65%)" />
<circle cx="265.96" cy="163.31" r="3" fill="hsl(234, 80%, 65%)" />
<circle cx="311.45" cy="331.33" r="4" fill="hsl(243, 80%, 65%)" />
<circle cx="163.91" cy="237.85" r="5" fill="hsl(252, 80%, 65%)" />
<circle cx="336.43" cy="207.01" r="6" fill="hsl(261, 80%, 65%)" />
<circle cx="229.69" cy="346.76" r="2" fill="hsl(270, 80%, 65%)" />
<circle cx="213.95" cy="171.03" r="3" fill="hsl(279, 80%, 65%)" />
<circle cx="344.69" cy="290.37" r="4" fill="hsl(288, 80%, 65%)" />
<circle cx="167.09" cy="290.68" r="5" fill="hsl(297, 80%, 65%)" />
<circle cx="298.26" cy="170.09" r="6" fill="hsl(306, 80%, 65%)" />
<circle cx="282.95" cy="348.19" r="2" fill="hsl(315, 80%, 65%)" />
<circle cx="173.58" cy="206.07" r="3" fill="hsl(324, 80%, 65%)" />
<circle cx="350.80" cy="237.09" r="4" fill="hsl(333, 80%, 65%)" />
<circle cx="198.69" cy="334.23" r="5" fill="hsl(342, 80%, 65%)" />
<circle cx="245.38" cy="159.30" r="6" fill="hsl(351, 80%, 65%)" />
<circle cx="329.38" cy="320.34" r="2" fill="hsl(0, 80%, 65%)" />
<circle cx="158.13" cy="258.14" r="3" fill="hsl(9, 80%, 65%)" />
<circle cx="326.94" cy="188.10" r="4" fill="hsl(18, 80%, 65%)" />
<circle cx="249.53" cy="354.29" r="5" fill="hsl(27, 80%, 65%)" />
<circle cx="194.19" cy="178.92" r="6" fill="hsl(36, 80%, 65%)" />
<circle cx="353.94" cy="271.13" r="2" fill="hsl(45, 80%, 65%)" />
<circle cx="173.31" cy="311.17" r="3" fill="hsl(54, 80%, 65%)" />
<circle cx="279.78" cy="159.17" r="4" fill="hsl(63, 80%, 65%)" />
<circle cx="304.02" cy="343.72" r="5" fill="hsl(72, 80%, 65%)" />
<circle cx="161.06" cy="223.66" r="6" fill="hsl(81, 80%, 65%)" />
<circle cx="348.12" cy="215.60" r="2" fill="hsl(90, 80%, 65%)" />
<circle cx="215.24" cy="348.29" r="3" fill="hsl(99, 80%, 65%)" />
<circle cx="223.62" cy="160.14" r="4" fill="hsl(108, 80%, 65%)" />
<circle cx="344.89" cy="304.95" r="5" fill="hsl(117, 80%, 65%)" />
<circle cx="157.10" cy="280.02" r="6" fill="hsl(126, 80%, 65%)" />
<circle cx="312.86" cy="171.25" r="2" fill="hsl(135, 80%, 65%)" />
<circle cx="271.36" cy="357.19" r="3" fill="hsl(144, 80%, 65%)" />
<circle cx="176.09" cy="191.58" r="4" fill="hsl(153, 80%, 65%)" />
<circle cx="358.73" cy="249.50" r="5" fill="hsl(162, 80%, 65%)" />
<circle cx="184.44" cy="330.39" r="6" fill="hsl(171, 80%, 65%)" />
<circle cx="258.52" cy="152.52" r="2" fill="hsl(180, 80%, 65%)" />
<circle cx="324.23" cy="334.22" r="3" fill="hsl(189, 80%, 65%)" />
<circle cx="152.57" cy="244.37" r="4" fill="hsl(198, 80%, 65%)" />
<circle cx="340.35" cy="194.54" r="5" fill="hsl(207, 80%, 65%)" />
<circle cx="235.26" cy="358.58" r="6" fill="hsl(216, 80%, 65%)" />
<circle cx="201.85" cy="166.11" r="2" fill="hsl(225, 80%, 65%)" />
<circle cx="356.92" cy="285.79" r="3" fill="hsl(234, 80%, 65%)" />
<circle cx="161.21" cy="302.33" r="4" fill="hsl(243, 80%, 65%)" />
<circle cx="294.70" cy="157.55" r="5" fill="hsl(252, 80%, 65%)" />
<circle cx="294.07" cy="355.00" r="6" fill="hsl(261, 80%, 65%)" />
<circle cx="160.81" cy="208.59" r="2" fill="hsl(270, 80%, 65%)" />
<circle cx="358.49" cy="226.58" r="3" fill="hsl(279, 80%, 65%)" />
<circle cx="200.16" cy="347.16" r="4" fill="hsl(288, 80%, 65%)" />
<circle cx="235.55" cy="150.79" r="5" fill="hsl(297, 80%, 65%)" />
<circle cx="342.38" cy="319.93" r="6" fill="hsl(306, 80%, 65%)" />
<circle cx="148.85" cy="267.24" r="2" fill="hsl(315, 80%, 65%)" />
<circle cx="327.60" cy="175.13" r="3" fill="hsl(324, 80%, 65%)" />
<circle cx="257.83" cy="364.27" r="4" fill="hsl(333, 80%, 65%)" />
<circle cx="181.32" cy="177.20" r="5" fill="hsl(342, 80%, 65%)" />
<circle cx="364.56" cy="263.68" r="6" fill="hsl(351, 80%, 65%)" />
<circle cx="170.55" cy="323.84" r="2" fill="hsl(0, 80%, 65%)" />
<circle cx="273.23" cy="147.98" r="3" fill="hsl(9, 80%, 65%)" />
<circle cx="316.41" cy="347.51" r="4" fill="hsl(18, 80%, 65%)" />
<circle cx="149.38" cy="229.27" r="5" fill="hsl(27, 80%, 65%)" />
<circle cx="352.92" cy="203.56" r="6" fill="hsl(36, 80%, 65%)" />
<circle cx="219.87" cy="360.39" r="2" fill="hsl(45, 80%, 65%)" />
<circle cx="212.02" cy="154.37" r="3" fill="hsl(54, 80%, 65%)" />
<circle cx="357.32" cy="301.34" r="4" fill="hsl(63, 80%, 65%)" />
<circle cx="150.41" cy="291.09" r="5" fill="hsl(72, 80%, 65%)" />
<circle cx="310.28" cy="158.56" r="6" fill="hsl(81, 80%, 65%)" />
<circle cx="281.85" cy="364.77" r="2" fill="hsl(90, 80%, 65%)" />
<circle cx="163.24" cy="193.11" r="3" fill="hsl(99, 80%, 65%)" />
<circle cx="367.14" cy="239.68" r="4" fill="hsl(108, 80%, 65%)" />
<circle cx="184.90" cy="343.32" r="5" fill="hsl(117, 80%, 65%)" />
<circle cx="249.43" cy="143.33" r="6" fill="hsl(126, 80%, 65%)" />
<circle cx="337.14" cy="334.82" r="2" fill="hsl(135, 80%, 65%)" />
<circle cx="142.66" cy="252.68" r="3" fill="hsl(144, 80%, 65%)" />
<circle cx="342.01" cy="181.71" r="4" fill="hsl(153, 80%, 65%)" />
<circle cx="242.72" cy="369.14" r="5" fill="hsl(162, 80%, 65%)" />
<circle cx="189.21" cy="163.40" r="6" fill="hsl(171, 80%, 65%)" />
<circle cx="368.05" cy="279.22" r="2" fill="hsl(180, 80%, 65%)" />
<circle cx="157.47" cy="314.70" r="3" fill="hsl(189, 80%, 65%)" />
<circle cx="289.08" cy="145.91" r="4" fill="hsl(198, 80%, 65%)" />
<circle cx="306.09" cy="359.76" r="5" fill="hsl(207, 80%, 65%)" />
<circle cx="148.74" cy="213.23" r="6" fill="hsl(216, 80%, 65%)" />
<circle cx="364.22" cy="214.99" r="2" fill="hsl(225, 80%, 65%)" />
<circle cx="203.79" cy="359.57" r="3" fill="hsl(234, 80%, 65%)" />
<circle cx="224.47" cy="144.12" r="4" fill="hsl(243, 80%, 65%)" />
<circle cx="355.04" cy="317.34" r="5" fill="hsl(252, 80%, 65%)" />
<circle cx="141.29" cy="277.72" r="6" fill="hsl(261, 80%, 65%)" />
<circle cx="326.07" cy="162.29" r="2" fill="hsl(270, 80%, 65%)" />
<circle cx="267.66" cy="372.68" r="3" fill="hsl(279, 80%, 65%)" />
<circle cx="168.40" cy="177.67" r="4" fill="hsl(288, 80%, 65%)" />
<circle cx="373.76" cy="254.58" r="5" fill="hsl(297, 80%, 65%)" />
<circle cx="169.94" cy="336.76" r="6" fill="hsl(306, 80%, 65%)" />
<circle cx="264.92" cy="138.07" r="2" fill="hsl(315, 80%, 65%)" />
<circle cx="329.24" cy="349.18" r="3" fill="hsl(324, 80%, 65%)" />
<circle cx="138.80" cy="236.72" r="4" fill="hsl(333, 80%, 65%)" />
<circle cx="355.65" cy="190.91" r="5" fill="hsl(342, 80%, 65%)" />
<circle cx="226.43" cy="371.55" r="6" fill="hsl(351, 80%, 65%)" />
<circle cx="199.64" cy="150.60" r="2" fill="hsl(0, 80%, 65%)" />
<circle cx="368.99" cy="295.73" r="3" fill="hsl(9, 80%, 65%)" />
<circle cx="145.62" cy="303.13" r="4" fill="hsl(18, 80%, 65%)" />
<circle cx="305.66" cy="146.46" r="5" fill="hsl(27, 80%, 65%)" />
<circle cx="293.45" cy="370.55" r="6" fill="hsl(36, 80%, 65%)" />
<circle cx="150.79" cy="196.71" r="2" fill="hsl(45, 80%, 65%)" />
<circle cx="373.86" cy="228.59" r="3" fill="hsl(54, 80%, 65%)" />
<circle cx="187.46" cy="356.03" r="4" fill="hsl(63, 80%, 65%)" />
<circle cx="238.93" cy="135.71" r="5" fill="hsl(72, 80%, 65%)" />
<circle cx="350.03" cy="333.33" r="6" fill="hsl(81, 80%, 65%)" />
<circle cx="134.19" cy="262.51" r="2" fill="hsl(90, 80%, 65%)" />
<circle cx="341.60" cy="168.74" r="3" fill="hsl(99, 80%, 65%)" />
<circle cx="251.82" cy="378.40" r="4" fill="hsl(108, 80%, 65%)" />
<circle cx="176.24" cy="162.73" r="5" fill="hsl(117, 80%, 65%)" />
<circle cx="378.05" cy="270.93" r="6" fill="hsl(126, 80%, 65%)" />
<circle cx="155.73" cy="327.58" r="2" fill="hsl(135, 80%, 65%)" />
<circle cx="281.64" cy="135.25" r="3" fill="hsl(144, 80%, 65%)" />
<circle cx="318.78" cy="362.56" r="4" fill="hsl(153, 80%, 65%)" />
<circle cx="137.49" cy="219.76" r="5" fill="hsl(162, 80%, 65%)" />
<circle cx="368.08" cy="202.57" r="6" fill="hsl(171, 80%, 65%)" />
<circle cx="209.36" cy="371.33" r="2" fill="hsl(180, 80%, 65%)" />
<circle cx="212.40" cy="139.23" r="3" fill="hsl(189, 80%, 65%)" />
<circle cx="367.24" cy="312.76" r="4" fill="hsl(198, 80%, 65%)" />
<circle cx="135.41" cy="289.35" r="5" fill="hsl(207, 80%, 65%)" />
<circle cx="322.52" cy="149.75" r="6" fill="hsl(216, 80%, 65%)" />
</svg>
