<svg xmlns="http://www.w3.org/2000/svg" width="512" height="512" viewBox="0 0 512 512">
<rect width="100%" height="100%" fill="#0b1020"/>
<circle cx="356" cy="69" r="50" fill="#f8f3c9" opacity="0.95" />
<circle cx="192.0" cy="164.0" r="2.0" fill="white" />
<circle cx="440.0" cy="169.0" r="2.9" fill="white" />
<circle cx="420.0" cy="134.0" r="3.2" fill="white" />
<circle cx="30.0" cy="37.0" r="3.0" fill="white" />
<circle cx="151.0" cy="132.0" r="3.2" fill="white" />
<circle cx="346.0" cy="37.0" r="1.7" fill="white" />
<circle cx="80.0" cy="180.0" r="2.7" fill="white" />
<circle cx="138.0" cy="152.0" r="2.6" fill="white" />
<path d="M 20 430 C 117 420, 166 458, 315 422 S 450 394, 512 424" stroke="#5dade2" stroke-width="7" fill="none" opacity="0.85" />
<line x1="0" y1="406" x2="512" y2="406" stroke="#445566" stroke-width="3" />
<polygon points="200,364 240,304 280,324 300,294 320,314 332,354 300,376 250,380" fill="#1e1e1e" />
<polygon points="275,304 288,282 298,306" fill="#1e1e1e" />
<line x1="330" y1="349" x2="360" y2="324" stroke="#1e1e1e" stroke-width="6" />
</svg>
