<svg xmlns="http://www.w3.org/2000/svg" width="512" height="512" viewBox="0 0 512 512">
<rect width="100%" height="100%" fill="#0b1020"/>
<circle cx="342" cy="80" r="45" fill="#f8f3c9" opacity="0.95" />
<circle cx="302.0" cy="136.0" r="3.5" fill="white" />
<circle cx="391.0" cy="127.0" r="2.0" fill="white" />
<circle cx="256.0" cy="157.0" r="2.1" fill="white" />
<circle cx="211.0" cy="115.0" r="3.0" fill="white" />
<circle cx="298.0" cy="31.0" r="1.8" fill="white" />
<circle cx="283.0" cy="76.0" r="3.5" fill="white" />
<circle cx="488.0" cy="61.0" r="2.1" fill="white" />
<circle cx="132.0" cy="123.0" r="1.9" fill="white" />
<circle cx="359.0" cy="92.0" r="3.3" fill="white" />
<circle cx="359.0" cy="135.0" r="3.1" fill="white" />
<circle cx="270.0" cy="143.0" r="2.2" fill="white" />
<circle cx="127.0" cy="34.0" r="1.8" fill="white" />
<circle cx="96.0" cy="51.0" r="1.8" fill="white" />
<circle cx="157.0" cy="112.0" r="3.4" fill="white" />
<circle cx="428.0" cy="86.0" r="2.7" fill="white" />
<path d="M 20 430 C 118 423, 162 441, 290 423 S 450 402, 512 432" stroke="#5dade2" stroke-width="5" fill="none" opacity="0.85" />
<line x1="0" y1="388" x2="512" y2="388" stroke="#445566" stroke-width="3" />
<polygon points="161,359 201,299 241,319 261,289 281,309 293,349 261,371 211,375" fill="#1e1e1e" />
<polygon points="236,299 249,277 259,301" fill="#1e1e1e" />
<line x1="291" y1="344" x2="321" y2="319" stroke="#1e1e1e" stroke-width="6" />
</svg>
