<svg xmlns="http://www.w3.org/2000/svg" width="512" height="512" viewBox="0 0 512 512">
<rect width="100%" height="100%" fill="#0b1020"/>
<circle cx="348" cy="71" r="49" fill="#f8f3c9" opacity="0.95" />
<circle cx="229.0" cy="114.0" r="2.9" fill="white" />
<circle cx="120.0" cy="163.0" r="1.8" fill="white" />
<circle cx="471.0" cy="136.0" r="2.3" fill="white" />
<circle cx="216.0" cy="129.0" r="3.1" fill="white" />
<circle cx="453.0" cy="158.0" r="2.5" fill="white" />
<circle cx="90.0" cy="148.0" r="3.0" fill="white" />
<circle cx="404.0" cy="75.0" r="3.4" fill="white" />
<circle cx="491.0" cy="180.0" r="1.6" fill="white" />
<circle cx="471.0" cy="78.0" r="3.1" fill="white" />
<circle cx="309.0" cy="113.0" r="3.0" fill="white" />
<path d="M 20 430 C 140 416, 195 449, 309 425 S 450 386, 512 416" stroke="#5dade2" stroke-width="6" fill="none" opacity="0.85" />
<line x1="0" y1="390" x2="512" y2="390" stroke="#445566" stroke-width="2" />
<polygon points="150,350 190,290 230,310 250,280 270,300 282,340 250,362 200,366" fill="#1e1e1e" />
<polygon points="225,290 238,268 248,292" fill="#1e1e1e" />
<line x1="280" y1="335" x2="310" y2="310" stroke="#1e1e1e" stroke-width="6" />
</svg>
