<svg xmlns="http://www.w3.org/2000/svg" width="512" height="512" viewBox="0 0 512 512">
<rect width="100%" height="100%" fill="black"/>
<circle cx="256.00" cy="256.00" r="2" fill="hsl(0, 80%, 65%)" />
<circle cx="250.58" cy="260.97" r="3" fill="hsl(6, 80%, 65%)" />
<circle cx="256.91" cy="245.64" r="4" fill="hsl(12, 80%, 65%)" />
<circle cx="263.75" cy="266.11" r="5" fill="hsl(18, 80%, 65%)" />
<circle cx="241.51" cy="253.44" r="6" fill="hsl(24, 80%, 65%)" />
<circle cx="269.88" cy="247.17" r="2" fill="hsl(30, 80%, 65%)" />
<circle cx="251.32" cy="273.40" r="3" fill="hsl(36, 80%, 65%)" />
<circle cx="247.03" cy="238.73" r="4" fill="hsl(42, 80%, 65%)" />
<circle cx="275.54" cy="263.14" r="5" fill="hsl(48, 80%, 65%)" />
<circle cx="235.60" cy="264.42" r="6" fill="hsl(54, 80%, 65%)" />
<circle cx="265.86" cy="234.93" r="2" fill="hsl(60, 80%, 65%)" />
<circle cx="263.30" cy="279.28" r="3" fill="hsl(66, 80%, 65%)" />
<circle cx="233.95" cy="243.22" r="4" fill="hsl(72, 80%, 65%)" />
<circle cx="281.90" cy="250.31" r="5" fill="hsl(78, 80%, 65%)" />
<circle cx="240.17" cy="278.52" r="6" fill="hsl(84, 80%, 65%)" />
<circle cx="252.34" cy="227.75" r="2" fill="hsl(90, 80%, 65%)" />
<circle cx="278.50" cy="274.96" r="3" fill="hsl(96, 80%, 65%)" />
<circle cx="225.70" cy="257.25" r="4" fill="hsl(102, 80%, 65%)" />
<circle cx="278.12" cy="233.99" r="5" fill="hsl(108, 80%, 65%)" />
<circle cx="254.52" cy="288.03" r="6" fill="hsl(114, 80%, 65%)" />
<circle cx="234.92" cy="230.74" r="2" fill="hsl(120, 80%, 65%)" />
<circle cx="289.41" cy="260.49" r="3" fill="hsl(126, 80%, 65%)" />
<circle cx="227.68" cy="275.70" r="4" fill="hsl(132, 80%, 65%)" />
<circle cx="263.74" cy="221.58" r="5" fill="hsl(138, 80%, 65%)" />
<circle cx="273.92" cy="287.27" r="6" fill="hsl(144, 80%, 65%)" />
<circle cx="220.96" cy="244.82" r="2" fill="hsl(150, 80%, 65%)" />
<circle cx="290.05" cy="240.27" r="3" fill="hsl(156, 80%, 65%)" />
<circle cx="241.24" cy="291.26" r="4" fill="hsl(162, 80%, 65%)" />
<circle cx="242.83" cy="219.37" r="5" fill="hsl(168, 80%, 65%)" />
<circle cx="291.06" cy="274.43" r="6" fill="hsl(174, 80%, 65%)" />
<circle cx="217.04" cy="266.27" r="2" fill="hsl(180, 80%, 65%)" />
<circle cx="278.15" cy="221.55" r="3" fill="hsl(186, 80%, 65%)" />
<circle cx="263.05" cy="297.01" r="4" fill="hsl(192, 80%, 65%)" />
<circle cx="222.59" cy="230.13" r="5" fill="hsl(198, 80%, 65%)" />
<circle cx="298.74" cy="252.46" r="6" fill="hsl(204, 80%, 65%)" />
<circle cx="226.45" cy="287.94" r="2" fill="hsl(210, 80%, 65%)" />
<circle cx="256.22" cy="211.87" r="3" fill="hsl(216, 80%, 65%)" />
<circle cx="286.06" cy="289.14" r="4" fill="hsl(222, 80%, 65%)" />
<circle cx="210.85" cy="251.82" r="5" fill="hsl(228, 80%, 65%)" />
<circle cx="292.59" cy="228.23" r="6" fill="hsl(234, 80%, 65%)" />
<circle cx="247.67" cy="301.77" r="2" fill="hsl(240, 80%, 65%)" />
<circle cx="230.91" cy="216.14" r="3" fill="hsl(246, 80%, 65%)" />
<circle cx="301.98" cy="268.60" r="4" fill="hsl(252, 80%, 65%)" />
<circle cx="213.09" cy="278.02" r="5" fill="hsl(258, 80%, 65%)" />
<circle cx="272.96" cy="210.25" r="6" fill="hsl(264, 80%, 65%)" />
<circle cx="274.60" cy="301.70" r="2" fill="hsl(270, 80%, 65%)" />
<circle cx="210.92" cy="234.63" r="3" fill="hsl(276, 80%, 65%)" />
<circle cx="304.19" cy="241.14" r="4" fill="hsl(282, 80%, 65%)" />
<circle cx="230.23" cy="299.97" r="5" fill="hsl(288, 80%, 65%)" />
<circle cx="245.19" cy="205.66" r="6" fill="hsl(294, 80%, 65%)" />
<circle cx="298.40" cy="286.12" r="2" fill="hsl(300, 80%, 65%)" />
<circle cx="203.87" cy="262.50" r="3" fill="hsl(306, 80%, 65%)" />
<circle cx="290.38" cy="215.61" r="4" fill="hsl(312, 80%, 65%)" />
<circle cx="257.95" cy="309.52" r="5" fill="hsl(318, 80%, 65%)" />
<circle cx="218.06" cy="217.50" r="6" fill="hsl(324, 80%, 65%)" />
<circle cx="310.48" cy="258.79" r="2" fill="hsl(330, 80%, 65%)" />
<circle cx="213.57" cy="291.06" r="3" fill="hsl(336, 80%, 65%)" />
<circle cx="263.67" cy="201.00" r="4" fill="hsl(342, 80%, 65%)" />
<circle cx="287.77" cy="302.14" r="5" fill="hsl(348, 80%, 65%)" />
<circle cx="200.94" cy="243.33" r="6" fill="hsl(354, 80%, 65%)" />
<circle cx="305.57" cy="227.91" r="2" fill="hsl(0, 80%, 65%)" />
<circle cx="238.27" cy="310.65" r="3" fill="hsl(6, 80%, 65%)" />
<circle cx="231.96" cy="203.30" r="4" fill="hsl(12, 80%, 65%)" />
<circle cx="309.75" cy="278.80" r="5" fill="hsl(18, 80%, 65%)" />
<circle cx="200.53" cy="275.65" r="6" fill="hsl(24, 80%, 65%)" />
<circle cx="283.85" cy="203.64" r="2" fill="hsl(30, 80%, 65%)" />
<circle cx="270.95" cy="313.86" r="3" fill="hsl(36, 80%, 65%)" />
<circle cx="205.52" cy="223.19" r="4" fill="hsl(42, 80%, 65%)" />
<circle cx="315.83" cy="246.02" r="5" fill="hsl(48, 80%, 65%)" />
<circle cx="218.35" cy="304.13" r="6" fill="hsl(54, 80%, 65%)" />
<circle cx="251.22" cy="194.64" r="2" fill="hsl(60, 80%, 65%)" />
<circle cx="301.29" cy="298.31" r="3" fill="hsl(66, 80%, 65%)" />
<circle cx="193.59" cy="255.39" r="4" fill="hsl(72, 80%, 65%)" />
<circle cx="302.75" cy="214.00" r="5" fill="hsl(78, 80%, 65%)" />
<circle cx="249.85" cy="318.98" r="6" fill="hsl(84, 80%, 65%)" />
<circle cx="217.74" cy="205.07" r="2" fill="hsl(90, 80%, 65%)" />
<circle cx="319.03" cy="267.79" r="3" fill="hsl(96, 80%, 65%)" />
<circle cx="201.20" cy="290.11" r="4" fill="hsl(102, 80%, 65%)" />
<circle cx="273.48" cy="193.43" r="5" fill="hsl(108, 80%, 65%)" />
<circle cx="285.57" cy="314.31" r="6" fill="hsl(114, 80%, 65%)" />
<circle cx="194.42" cy="232.83" r="2" fill="hsl(120, 80%, 65%)" />
<circle cx="317.44" cy="231.34" r="3" fill="hsl(126, 80%, 65%)" />
<circle cx="227.18" cy="316.05" r="4" fill="hsl(132, 80%, 65%)" />
<circle cx="236.57" cy="191.86" r="5" fill="hsl(138, 80%, 65%)" />
<circle cx="314.00" cy="290.37" r="6" fill="hsl(144, 80%, 65%)" />
<circle cx="189.63" cy="269.91" r="2" fill="hsl(150, 80%, 65%)" />
<circle cx="295.77" cy="200.58" r="3" fill="hsl(156, 80%, 65%)" />
<circle cx="264.15" cy="324.12" r="4" fill="hsl(162, 80%, 65%)" />
<circle cx="203.67" cy="211.02" r="5" fill="hsl(168, 80%, 65%)" />
<circle cx="325.36" cy="253.81" r="6" fill="hsl(174, 80%, 65%)" />
<circle cx="206.06" cy="304.74" r="2" fill="hsl(180, 80%, 65%)" />
<circle cx="259.92" cy="185.94" r="3" fill="hsl(186, 80%, 65%)" />
<circle cx="300.67" cy="310.61" r="4" fill="hsl(192, 80%, 65%)" />
<circle cx="185.79" cy="245.86" r="5" fill="hsl(198, 80%, 65%)" />
<circle cx="314.94" cy="215.84" r="6" fill="hsl(204, 80%, 65%)" />
<circle cx="239.58" cy="325.79" r="2" fill="hsl(210, 80%, 65%)" />
<circle cx="220.78" cy="193.12" r="3" fill="hsl(216, 80%, 65%)" />
<circle cx="324.80" cy="278.69" r="4" fill="hsl(222, 80%, 65%)" />
<circle cx="189.60" cy="285.90" r="5" fill="hsl(228, 80%, 65%)" />
<circle cx="284.91" cy="188.76" r="6" fill="hsl(234, 80%, 65%)" />
<circle cx="280.22" cy="325.46" r="2" fill="hsl(240, 80%, 65%)" />
<circle cx="190.90" cy="220.97" r="3" fill="hsl(246, 80%, 65%)" />
<circle cx="328.02" cy="237.77" r="4" fill="hsl(252, 80%, 65%)" />
<circle cx="215.01" cy="318.40" r="5" fill="hsl(258, 80%, 65%)" />
<circle cx="244.02" cy="181.95" r="6" fill="hsl(264, 80%, 65%)" />
<circle cx="315.14" cy="302.73" r="2" fill="hsl(270, 80%, 65%)" />
<circle cx="180.47" cy="261.52" r="3" fill="hsl(276, 80%, 65%)" />
<circle cx="308.21" cy="200.65" r="4" fill="hsl(282, 80%, 65%)" />
<circle cx="254.88" cy="332.44" r="5" fill="hsl(288, 80%, 65%)" />
<circle cx="204.96" cy="198.62" r="6" fill="hsl(294, 80%, 65%)" />
<circle cx="332.75" cy="263.87" r="2" fill="hsl(300, 80%, 65%)" />
<circle cx="193.81" cy="302.25" r="3" fill="hsl(306, 80%, 65%)" />
<circle cx="270.68" cy="179.55" r="4" fill="hsl(312, 80%, 65%)" />
<circle cx="297.00" cy="322.58" r="5" fill="hsl(318, 80%, 65%)" />
<circle cx="180.46" cy="234.50" r="6" fill="hsl(324, 80%, 65%)" />
<circle cx="326.53" cy="220.67" r="2" fill="hsl(330, 80%, 65%)" />
<circle cx="227.74" cy="330.01" r="3" fill="hsl(336, 80%, 65%)" />
<circle cx="226.72" cy="182.02" r="4" fill="hsl(342, 80%, 65%)" />
<circle cx="327.87" cy="290.92" r="5" fill="hsl(348, 80%, 65%)" />
<circle cx="179.09" cy="278.89" r="6" fill="hsl(354, 80%, 65%)" />
<circle cx="297.42" cy="186.88" r="2" fill="hsl(0, 80%, 65%)" />
<circle cx="272.22" cy="335.27" r="3" fill="hsl(6, 80%, 65%)" />
<circle cx="190.23" cy="208.30" r="4" fill="hsl(12, 80%, 65%)" />
<circle cx="337.05" cy="246.70" r="5" fill="hsl(18, 80%, 65%)" />
<circle cx="202.30" cy="317.85" r="6" fill="hsl(24, 80%, 65%)" />
<circle cx="253.80" cy="173.79" r="2" fill="hsl(30, 80%, 65%)" />
<circle cx="313.38" cy="315.37" r="3" fill="hsl(36, 80%, 65%)" />
<circle cx="173.26" cy="250.96" r="4" fill="hsl(42, 80%, 65%)" />
<circle cx="320.67" cy="203.62" r="5" fill="hsl(48, 80%, 65%)" />
<circle cx="243.65" cy="338.63" r="6" fill="hsl(54, 80%, 65%)" />
<circle cx="209.11" cy="186.46" r="2" fill="hsl(60, 80%, 65%)" />
<circle cx="337.86" cy="275.68" r="3" fill="hsl(66, 80%, 65%)" />
<circle cx="182.07" cy="296.94" r="4" fill="hsl(72, 80%, 65%)" />
<circle cx="282.96" cy="175.57" r="5" fill="hsl(78, 80%, 65%)" />
<circle cx="290.58" cy="333.81" r="6" fill="hsl(84, 80%, 65%)" />
<circle cx="177.65" cy="221.85" r="2" fill="hsl(90, 80%, 65%)" />
<circle cx="337.14" cy="228.15" r="3" fill="hsl(96, 80%, 65%)" />
<circle cx="214.83" cy="331.62" r="4" fill="hsl(102, 80%, 65%)" />
<circle cx="235.20" cy="172.13" r="5" fill="hsl(108, 80%, 65%)" />
<circle cx="328.25" cy="303.97" r="6" fill="hsl(114, 80%, 65%)" />
<circle cx="170.02" cy="269.48" r="2" fill="hsl(120, 80%, 65%)" />
<circle cx="310.49" cy="187.73" r="3" fill="hsl(126, 80%, 65%)" />
<circle cx="261.96" cy="343.45" r="4" fill="hsl(132, 80%, 65%)" />
<circle cx="192.31" cy="195.33" r="5" fill="hsl(138, 80%, 65%)" />
<circle cx="344.25" cy="257.72" r="6" fill="hsl(144, 80%, 65%)" />
<circle cx="189.53" cy="314.55" r="2" fill="hsl(150, 80%, 65%)" />
<circle cx="265.50" cy="167.63" r="3" fill="hsl(156, 80%, 65%)" />
<circle cx="308.87" cy="327.82" r="4" fill="hsl(162, 80%, 65%)" />
<circle cx="168.20" cy="238.70" r="5" fill="hsl(168, 80%, 65%)" />
<circle cx="332.69" cy="209.30" r="6" fill="hsl(174, 80%, 65%)" />
<circle cx="230.92" cy="342.53" r="2" fill="hsl(180, 80%, 65%)" />
<circle cx="215.91" cy="174.99" r="3" fill="hsl(186, 80%, 65%)" />
<circle cx="340.56" cy="288.77" r="4" fill="hsl(192, 80%, 65%)" />
<circle cx="171.24" cy="289.07" r="5" fill="hsl(198, 80%, 65%)" />
<circle cx="296.30" cy="174.09" r="6" fill="hsl(204, 80%, 65%)" />
<circle cx="281.70" cy="343.90" r="2" fill="hsl(210, 80%, 65%)" />
<circle cx="177.42" cy="208.39" r="3" fill="hsl(216, 80%, 65%)" />
<circle cx="346.39" cy="237.97" r="4" fill="hsl(222, 80%, 65%)" />
<circle cx="201.36" cy="330.59" r="5" fill="hsl(228, 80%, 65%)" />
<circle cx="245.88" cy="163.80" r="6" fill="hsl(234, 80%, 65%)" />
<circle cx="325.96" cy="317.34" r="2" fill="hsl(240, 80%, 65%)" />
<circle cx="162.69" cy="258.04" r="3" fill="hsl(246, 80%, 65%)" />
<circle cx="323.64" cy="191.27" r="4" fill="hsl(252, 80%, 65%)" />
<circle cx="249.83" cy="349.71" r="5" fill="hsl(258, 80%, 65%)" />
<circle cx="197.07" cy="182.51" r="6" fill="hsl(264, 80%, 65%)" />
<circle cx="349.38" cy="270.42" r="2" fill="hsl(270, 80%, 65%)" />
<circle cx="177.16" cy="308.60" r="3" fill="hsl(276, 80%, 65%)" />
<circle cx="278.67" cy="163.69" r="4" fill="hsl(282, 80%, 65%)" />
<circle cx="301.78" cy="339.63" r="5" fill="hsl(288, 80%, 65%)" />
<circle cx="165.48" cy="225.16" r="6" fill="hsl(294, 80%, 65%)" />
<circle cx="343.83" cy="217.48" r="2" fill="hsl(300, 80%, 65%)" />
<circle cx="217.14" cy="343.99" r="3" fill="hsl(306, 80%, 65%)" />
<circle cx="225.13" cy="164.60" r="4" fill="hsl(312, 80%, 65%)" />
<circle cx="340.75" cy="302.67" r="5" fill="hsl(318, 80%, 65%)" />
<circle cx="161.71" cy="278.90" r="6" fill="hsl(324, 80%, 65%)" />
<circle cx="310.21" cy="175.19" r="2" fill="hsl(330, 80%, 65%)" />
<circle cx="270.65" cy="352.48" r="3" fill="hsl(336, 80%, 65%)" />
<circle cx="179.81" cy="194.58" r="4" fill="hsl(342, 80%, 65%)" />
<circle cx="353.94" cy="249.81" r="5" fill="hsl(348, 80%, 65%)" />
<circle cx="187.77" cy="326.92" r="6" fill="hsl(354, 80%, 65%)" />
<circle cx="258.41" cy="157.34" r="2" fill="hsl(0, 80%, 65%)" />
<circle cx="321.05" cy="330.58" r="3" fill="hsl(6, 80%, 65%)" />
<circle cx="157.39" cy="244.92" r="4" fill="hsl(12, 80%, 65%)" />
<circle cx="336.42" cy="197.40" r="5" fill="hsl(18, 80%, 65%)" />
<circle cx="236.23" cy="353.80" r="6" fill="hsl(24, 80%, 65%)" />
<circle cx="204.38" cy="170.30" r="2" fill="hsl(30, 80%, 65%)" />
<circle cx="352.22" cy="284.40" r="3" fill="hsl(36, 80%, 65%)" />
<circle cx="165.63" cy="300.17" r="4" fill="hsl(42, 80%, 65%)" />
<circle cx="292.90" cy="162.13" r="5" fill="hsl(48, 80%, 65%)" />
<circle cx="292.29" cy="350.39" r="6" fill="hsl(54, 80%, 65%)" />
<circle cx="165.24" cy="210.80" r="2" fill="hsl(60, 80%, 65%)" />
<circle cx="353.71" cy="227.95" r="3" fill="hsl(66, 80%, 65%)" />
<circle cx="202.76" cy="342.91" r="4" fill="hsl(72, 80%, 65%)" />
<circle cx="236.50" cy="155.69" r="5" fill="hsl(78, 80%, 65%)" />
<circle cx="338.35" cy="316.95" r="6" fill="hsl(84, 80%, 65%)" />
<circle cx="153.84" cy="266.71" r="2" fill="hsl(90, 80%, 65%)" />
<circle cx="324.27" cy="178.90" r="3" fill="hsl(96, 80%, 65%)" />
<circle cx="257.75" cy="359.23" r="4" fill="hsl(102, 80%, 65%)" />
<circle cx="184.80" cy="180.87" r="5" fill="hsl(108, 80%, 65%)" />
<circle cx="359.51" cy="263.32" r="6" fill="hsl(114, 80%, 65%)" />
<circle cx="174.53" cy="320.68" r="2" fill="hsl(120, 80%, 65%)" />
<circle cx="272.42" cy="153.02" r="3" fill="hsl(126, 80%, 65%)" />
<circle cx="313.60" cy="343.25" r="4" fill="hsl(132, 80%, 65%)" />
<circle cx="154.34" cy="230.51" r="5" fill="hsl(138, 80%, 65%)" />
<circle cx="348.40" cy="206.00" r="6" fill="hsl(144, 80%, 65%)" />
<circle cx="221.55" cy="355.53" r="2" fill="hsl(150, 80%, 65%)" />
<circle cx="214.07" cy="159.11" r="3" fill="hsl(156, 80%, 65%)" />
<circle cx="352.60" cy="299.23" r="4" fill="hsl(162, 80%, 65%)" />
<circle cx="155.33" cy="289.46" r="5" fill="hsl(168, 80%, 65%)" />
<circle cx="307.75" cy="163.10" r="6" fill="hsl(174, 80%, 65%)" />
<circle cx="280.65" cy="359.71" r="2" fill="hsl(180, 80%, 65%)" />
<circle cx="167.56" cy="196.04" r="3" fill="hsl(186, 80%, 65%)" />
<circle cx="361.96" cy="240.44" r="4" fill="hsl(192, 80%, 65%)" />
<circle cx="188.22" cy="339.25" r="5" fill="hsl(198, 80%, 65%)" />
<circle cx="249.73" cy="148.58" r="6" fill="hsl(204, 80%, 65%)" />
<circle cx="333.36" cy="331.15" r="2" fill="hsl(210, 80%, 65%)" />
<circle cx="147.94" cy="252.84" r="3" fill="hsl(216, 80%, 65%)" />
<circle cx="338.01" cy="185.18" r="4" fill="hsl(222, 80%, 65%)" />
<circle cx="243.34" cy="363.87" r="5" fill="hsl(228, 80%, 65%)" />
<circle cx="192.32" cy="167.71" r="6" fill="hsl(234, 80%, 65%)" />
<circle cx="362.83" cy="278.14" r="2" fill="hsl(240, 80%, 65%)" />
<circle cx="162.06" cy="311.97" r="3" fill="hsl(246, 80%, 65%)" />
<circle cx="287.54" cy="151.04" r="4" fill="hsl(252, 80%, 65%)" />
<circle cx="303.75" cy="354.92" r="5" fill="hsl(258, 80%, 65%)" />
<circle cx="153.74" cy="215.22" r="6" fill="hsl(264, 80%, 65%)" />
<circle cx="359.18" cy="216.90" r="2" fill="hsl(270, 80%, 65%)" />
<circle cx="206.22" cy="354.74" r="3" fill="hsl(276, 80%, 65%)" />
<circle cx="225.94" cy="149.33" r="4" fill="hsl(282, 80%, 65%)" />
<circle cx="350.43" cy="314.48" r="5" fill="hsl(288, 80%, 65%)" />
<circle cx="146.63" cy="276.71" r="6" fill="hsl(294, 80%, 65%)" />
<circle cx="322.80" cy="166.66" r="2" fill="hsl(300, 80%, 65%)" />
<circle cx="267.12" cy="367.24" r="3" fill="hsl(306, 80%, 65%)" />
<circle cx="172.48" cy="181.32" r="4" fill="hsl(312, 80%, 65%)" />
<circle cx="368.27" cy="254.65" r="5" fill="hsl(318, 80%, 65%)" />
<circle cx="173.95" cy="333.00" r="6" fill="hsl(324, 80%, 65%)" />
<circle cx="264.50" cy="143.56" r="2" fill="hsl(330, 80%, 65%)" />
<circle cx="325.83" cy="344.84" r="3" fill="hsl(336, 80%, 65%)" />
<circle cx="144.26" cy="237.62" r="4" fill="hsl(342, 80%, 65%)" />
<circle cx="351.01" cy="193.94" r="5" fill="hsl(348, 80%, 65%)" />
<circle cx="227.81" cy="366.17" r="6" fill="hsl(354, 80%, 65%)" />
<circle cx="202.26" cy="155.51" r="2" fill="hsl(0, 80%, 65%)" />
<circle cx="363.73" cy="293.88" r="3" fill="hsl(6, 80%, 65%)" />
<circle cx="150.76" cy="300.93" r="4" fill="hsl(12, 80%, 65%)" />
<circle cx="303.34" cy="151.57" r="5" fill="hsl(18, 80%, 65%)" />
<circle cx="291.71" cy="365.21" r="6" fill="hsl(24, 80%, 65%)" />
<circle cx="155.69" cy="199.48" r="2" fill="hsl(30, 80%, 65%)" />
<circle cx="368.37" cy="229.87" r="3" fill="hsl(36, 80%, 65%)" />
<circle cx="190.66" cy="351.37" r="4" fill="hsl(42, 80%, 65%)" />
<circle cx="239.73" cy="141.31" r="5" fill="hsl(48, 80%, 65%)" />
<circle cx="345.65" cy="329.73" r="6" fill="hsl(54, 80%, 65%)" />
<circle cx="139.86" cy="262.21" r="2" fill="hsl(60, 80%, 65%)" />
<circle cx="337.61" cy="172.81" r="3" fill="hsl(66, 80%, 65%)" />
<circle cx="252.01" cy="372.70" r="4" fill="hsl(72, 80%, 65%)" />
<circle cx="179.96" cy="167.08" r="5" fill="hsl(78, 80%, 65%)" />
<circle cx="372.36" cy="270.23" r="6" fill="hsl(84, 80%, 65%)" />
<circle cx="160.40" cy="324.24" r="2" fill="hsl(90, 80%, 65%)" />
<circle cx="280.44" cy="140.87" r="3" fill="hsl(96, 80%, 65%)" />
<circle cx="315.86" cy="357.60" r="4" fill="hsl(102, 80%, 65%)" />
<circle cx="143.01" cy="221.45" r="5" fill="hsl(108, 80%, 65%)" />
<circle cx="362.86" cy="205.06" r="6" fill="hsl(114, 80%, 65%)" />
<circle cx="211.53" cy="365.96" r="2" fill="hsl(120, 80%, 65%)" />
<circle cx="214.43" cy="144.67" r="3" fill="hsl(126, 80%, 65%)" />
<circle cx="362.05" cy="310.12" r="4" fill="hsl(132, 80%, 65%)" />
<circle cx="141.02" cy="287.79" r="5" fill="hsl(138, 80%, 65%)" />
<circle cx="319.42" cy="154.70" r="6" fill="hsl(144, 80%, 65%)" />
<circle cx="277.70" cy="373.76" r="2" fill="hsl(150, 80%, 65%)" />
<circle cx="160.27" cy="183.69" r="3" fill="hsl(156, 80%, 65%)" />
<circle cx="375.66" cy="244.63" r="4" fill="hsl(162, 80%, 65%)" />
<circle cx="175.30" cy="345.38" r="5" fill="hsl(168, 80%, 65%)" />
<circle cx="255.13" cy="135.36" r="6" fill="hsl(174, 80%, 65%)" />
<circle cx="338.28" cy="344.54" r="2" fill="hsl(180, 80%, 65%)" />
<circle cx="135.30" cy="246.28" r="3" fill="hsl(186, 80%, 65%)" />
</svg>
