<svg xmlns="http://www.w3.org/2000/svg" width="512" height="512" viewBox="0 0 512 512">
<rect width="100%" height="100%" fill="#0b1020"/>
<circle cx="421" cy="74" r="56" fill="#f8f3c9" opacity="0.95" />
<circle cx="34.0" cy="38.0" r="1.9" fill="white" />
<circle cx="400.0" cy="170.0" r="1.5" fill="white" />
<circle cx="38.0" cy="141.0" r="1.9" fill="white" />
<circle cx="478.0" cy="143.0" r="1.9" fill="white" />
<circle cx="251.0" cy="82.0" r="2.2" fill="white" />
<circle cx="274.0" cy="74.0" r="1.5" fill="white" />
<circle cx="452.0" cy="79.0" r="1.6" fill="white" />
<circle cx="426.0" cy="163.0" r="3.2" fill="white" />
<circle cx="459.0" cy="128.0" r="2.0" fill="white" />
<path d="M 20 430 C 140 410, 167 451, 294 431 S 450 392, 512 422" stroke="#5dade2" stroke-width="8" fill="none" opacity="0.85" />
<line x1="0" y1="398" x2="512" y2="398" stroke="#445566" stroke-width="2" />
<polygon points="212,359 252,299 292,319 312,289 332,309 344,349 312,371 262,375" fill="#1e1e1e" />
<polygon points="287,299 300,277 310,301" fill="#1e1e1e" />
<line x1="342" y1="344" x2="372" y2="319" stroke="#1e1e1e" stroke-width="6" />
</svg>
