<svg xmlns="http://www.w3.org/2000/svg" width="512" height="512" viewBox="0 0 512 512">
<rect width="100%" height="100%" fill="#0b1020"/>
<circle cx="390" cy="120" r="44" fill="#f8f3c9" opacity="0.95" />
<circle cx="143.0" cy="148.0" r="1.8" fill="white" />
<circle cx="207.0" cy="134.0" r="2.1" fill="white" />
<circle cx="97.0" cy="105.0" r="1.7" fill="white" />
<circle cx="308.0" cy="37.0" r="2.4" fill="white" />
<circle cx="155.0" cy="35.0" r="2.3" fill="white" />
<circle cx="186.0" cy="49.0" r="1.9" fill="white" />
<circle cx="446.0" cy="41.0" r="2.2" fill="white" />
<path d="M 20 430 C 101 428, 192 449, 314 428 S 450 399, 512 429" stroke="#5dade2" stroke-width="7" fill="none" opacity="0.85" />
<line x1="0" y1="411" x2="512" y2="411" stroke="#445566" stroke-width="4" />
<polygon points="204,358 244,298 284,318 304,288 324,308 336,348 304,370 254,374" fill="#1e1e1e" />
<polygon points="279,298 292,276 302,300" fill="#1e1e1e" />
<line x1="334" y1="343" x2="364" y2="318" stroke="#1e1e1e" stroke-width="6" />
</svg>
