<svg xmlns="http://www.w3.org/2000/svg" width="512" height="512" viewBox="0 0 512 512">
<rect width="100%" height="100%" fill="#0b1020"/>
<circle cx="401" cy="114" r="52" fill="#f8f3c9" opacity="0.95" />
<circle cx="165.0" cy="51.0" r="2.4" fill="white" />
<circle cx="47.0" cy="93.0" r="2.8" fill="white" />
<circle cx="115.0" cy="135.0" r="1.6" fill="white" />
<circle cx="441.0" cy="150.0" r="2.6" fill="white" />
<circle cx="393.0" cy="138.0" r="2.1" fill="white" />
<circle cx="303.0" cy="85.0" r="2.4" fill="white" />
<circle cx="91.0" cy="21.0" r="1.6" fill="white" />
<circle cx="53.0" cy="50.0" r="2.4" fill="white" />
<path d="M 20 430 C 133 423, 163 453, 312 435 S 450 392, 512 422" stroke="#5dade2" stroke-width="5" fill="none" opacity="0.85" />
<line x1="0" y1="386" x2="512" y2="386" stroke="#445566" stroke-width="3" />
<polygon points="178,360 218,300 258,320 278,290 298,310 310,350 278,372 228,376" fill="#1e1e1e" />
<polygon points="253,300 266,278 276,302" fill="#1e1e1e" />
<line x1="308" y1="345" x2="338" y2="320" stroke="#1e1e1e" stroke-width="6" />
</svg>
