<svg xmlns="http://www.w3.org/2000/svg" width="512" height="512" viewBox="0 0 512 512">
<rect width="100%" height="100%" fill="#0b1020"/>
<circle cx="348" cy="115" r="45" fill="#f8f3c9" opacity="0.95" />
<circle cx="274.0" cy="21.0" r="1.6" fill="white" />
<circle cx="444.0" cy="90.0" r="2.7" fill="white" />
<circle cx="131.0" cy="160.0" r="3.5" fill="white" />
<circle cx="279.0" cy="133.0" r="2.1" fill="white" />
<circle cx="486.0" cy="87.0" r="1.7" fill="white" />
<circle cx="316.0" cy="117.0" r="2.1" fill="white" />
<circle cx="261.0" cy="95.0" r="3.2" fill="white" />
<circle cx="330.0" cy="102.0" r="1.5" fill="white" />
<circle cx="51.0" cy="36.0" r="1.9" fill="white" />
<circle cx="306.0" cy="135.0" r="2.0" fill="white" />
<circle cx="114.0" cy="46.0" r="2.1" fill="white" />
<circle cx="477.0" cy="171.0" r="2.2" fill="white" />
<circle cx="286.0" cy="167.0" r="2.6" fill="white" />
<path d="M 20 430 C 106 415, 196 446, 315 425 S 450 378, 512 408" stroke="#5dade2" stroke-width="8" fill="none" opacity="0.85" />
<line x1="0" y1="392" x2="512" y2="392" stroke="#445566" stroke-width="2" />
<polygon points="208,361 248,301 288,321 308,291 328,311 340,351 308,373 258,377" fill="#1e1e1e" />
<polygon points="283,301 296,279 306,303" fill="#1e1e1e" />
<line x1="338" y1="346" x2="368" y2="321" stroke="#1e1e1e" stroke-width="6" />
</svg>
