<svg xmlns="http://www.w3.org/2000/svg" width="512" height="512" viewBox="0 0 512 512">
<rect width="100%" height="100%" fill="#0b1020"/>
<circle cx="439" cy="104" r="41" fill="#f8f3c9" opacity="0.95" />
<circle cx="326.0" cy="156.0" r="2.5" fill="white" />
<circle cx="111.0" cy="129.0" r="2.4" fill="white" />
<circle cx="148.0" cy="92.0" r="2.2" fill="white" />
<circle cx="473.0" cy="128.0" r="3.4" fill="white" />
<circle cx="409.0" cy="147.0" r="2.3" fill="white" />
<circle cx="345.0" cy="82.0" r="2.1" fill="white" />
<path d="M 20 430 C 138 430, 173 441, 293 433 S 450 386, 512 416" stroke="#5dade2" stroke-width="8" fill="none" opacity="0.85" />
<line x1="0" y1="390" x2="512" y2="390" stroke="#445566" stroke-width="2" />
<polygon points="204,357 244,297 284,317 304,287 324,307 336,347 304,369 254,373" fill="#1e1e1e" />
<polygon points="279,297 292,275 302,299" fill="#1e1e1e" />
<line x1="334" y1="342" x2="364" y2="317" stroke="#1e1e1e" stroke-width="6" />
</svg>
