<svg xmlns="http://www.w3.org/2000/svg" width="512" height="512" viewBox="0 0 512 512">
<rect width="100%" height="100%" fill="#0b1020"/>
<circle cx="355" cy="103" r="52" fill="#f8f3c9" opacity="0.95" />
<circle cx="476.0" cy="98.0" r="2.4" fill="white" />
<circle cx="68.0" cy="105.0" r="2.5" fill="white" />
<circle cx="24.0" cy="69.0" r="1.5" fill="white" />
<circle cx="275.0" cy="137.0" r="2.1" fill="white" />
<circle cx="32.0" cy="152.0" r="3.5" fill="white" />
<path d="M 20 430 C 131 430, 189 452, 295 435 S 450 375, 512 405" stroke="#5dade2" stroke-width="5" fill="none" opacity="0.85" />
<line x1="0" y1="388" x2="512" y2="388" stroke="#445566" stroke-width="2" />
<polygon points="208,364 248,304 288,324 308,294 328,314 340,354 308,376 258,380" fill="#1e1e1e" />
<polygon points="283,304 296,282 306,306" fill="#1e1e1e" />
<line x1="338" y1="349" x2="368" y2="324" stroke="#1e1e1e" stroke-width="6" />
</svg>
