<svg xmlns="http://www.w3.org/2000/svg" width="512" height="512" viewBox="0 0 512 512">
<rect width="100%" height="100%" fill="black"/>
<circle cx="256.00" cy="256.00" r="2" fill="hsl(0, 80%, 65%)" />
<circle cx="250.83" cy="260.73" r="3" fill="hsl(6, 80%, 65%)" />
<circle cx="256.87" cy="246.13" r="4" fill="hsl(12, 80%, 65%)" />
<circle cx="263.39" cy="265.63" r="5" fill="hsl(18, 80%, 65%)" />
<circle cx="242.20" cy="253.56" r="6" fill="hsl(24, 80%, 65%)" />
<circle cx="269.22" cy="247.59" r="2" fill="hsl(30, 80%, 65%)" />
<circle cx="251.54" cy="272.58" r="3" fill="hsl(36, 80%, 65%)" />
<circle cx="247.45" cy="239.54" r="4" fill="hsl(42, 80%, 65%)" />
<circle cx="274.62" cy="262.80" r="5" fill="hsl(48, 80%, 65%)" />
<circle cx="236.57" cy="264.02" r="6" fill="hsl(54, 80%, 65%)" />
<circle cx="265.39" cy="235.93" r="2" fill="hsl(60, 80%, 65%)" />
<circle cx="262.96" cy="278.18" r="3" fill="hsl(66, 80%, 65%)" />
<circle cx="234.99" cy="243.83" r="4" fill="hsl(72, 80%, 65%)" />
<circle cx="280.68" cy="250.57" r="5" fill="hsl(78, 80%, 65%)" />
<circle cx="240.92" cy="277.45" r="6" fill="hsl(84, 80%, 65%)" />
<circle cx="252.51" cy="229.08" r="2" fill="hsl(90, 80%, 65%)" />
<circle cx="277.44" cy="274.07" r="3" fill="hsl(96, 80%, 65%)" />
<circle cx="227.13" cy="257.19" r="4" fill="hsl(102, 80%, 65%)" />
<circle cx="277.08" cy="235.03" r="5" fill="hsl(108, 80%, 65%)" />
<circle cx="254.59" cy="286.52" r="6" fill="hsl(114, 80%, 65%)" />
<circle cx="235.92" cy="231.94" r="2" fill="hsl(120, 80%, 65%)" />
<circle cx="287.83" cy="260.28" r="3" fill="hsl(126, 80%, 65%)" />
<circle cx="229.02" cy="274.77" r="4" fill="hsl(132, 80%, 65%)" />
<circle cx="263.38" cy="223.21" r="5" fill="hsl(138, 80%, 65%)" />
<circle cx="273.07" cy="285.79" r="6" fill="hsl(144, 80%, 65%)" />
<circle cx="222.62" cy="245.35" r="2" fill="hsl(150, 80%, 65%)" />
<circle cx="288.44" cy="241.01" r="3" fill="hsl(156, 80%, 65%)" />
<circle cx="241.94" cy="289.59" r="4" fill="hsl(162, 80%, 65%)" />
<circle cx="243.45" cy="221.10" r="5" fill="hsl(168, 80%, 65%)" />
<circle cx="289.41" cy="273.56" r="6" fill="hsl(174, 80%, 65%)" />
<circle cx="218.88" cy="265.78" r="2" fill="hsl(180, 80%, 65%)" />
<circle cx="277.10" cy="223.18" r="3" fill="hsl(186, 80%, 65%)" />
<circle cx="262.72" cy="295.07" r="4" fill="hsl(192, 80%, 65%)" />
<circle cx="224.17" cy="231.35" r="5" fill="hsl(198, 80%, 65%)" />
<circle cx="296.73" cy="252.63" r="6" fill="hsl(204, 80%, 65%)" />
<circle cx="227.84" cy="286.44" r="2" fill="hsl(210, 80%, 65%)" />
<circle cx="256.21" cy="213.95" r="3" fill="hsl(216, 80%, 65%)" />
<circle cx="284.64" cy="287.57" r="4" fill="hsl(222, 80%, 65%)" />
<circle cx="212.98" cy="252.01" r="5" fill="hsl(228, 80%, 65%)" />
<circle cx="290.86" cy="229.54" r="6" fill="hsl(234, 80%, 65%)" />
<circle cx="248.07" cy="299.61" r="2" fill="hsl(240, 80%, 65%)" />
<circle cx="232.10" cy="218.02" r="3" fill="hsl(246, 80%, 65%)" />
<circle cx="299.81" cy="268.01" r="4" fill="hsl(252, 80%, 65%)" />
<circle cx="215.11" cy="276.98" r="5" fill="hsl(258, 80%, 65%)" />
<circle cx="272.16" cy="212.41" r="6" fill="hsl(264, 80%, 65%)" />
<circle cx="273.73" cy="299.54" r="2" fill="hsl(270, 80%, 65%)" />
<circle cx="213.05" cy="235.64" r="3" fill="hsl(276, 80%, 65%)" />
<circle cx="301.92" cy="241.84" r="4" fill="hsl(282, 80%, 65%)" />
<circle cx="231.45" cy="297.89" r="5" fill="hsl(288, 80%, 65%)" />
<circle cx="245.70" cy="208.03" r="6" fill="hsl(294, 80%, 65%)" />
<circle cx="296.40" cy="284.70" r="2" fill="hsl(300, 80%, 65%)" />
<circle cx="206.33" cy="262.19" r="3" fill="hsl(306, 80%, 65%)" />
<circle cx="288.76" cy="217.51" r="4" fill="hsl(312, 80%, 65%)" />
<circle cx="257.86" cy="306.99" r="5" fill="hsl(318, 80%, 65%)" />
<circle cx="219.85" cy="219.32" r="6" fill="hsl(324, 80%, 65%)" />
<circle cx="307.91" cy="258.65" r="2" fill="hsl(330, 80%, 65%)" />
<circle cx="215.57" cy="289.41" r="3" fill="hsl(336, 80%, 65%)" />
<circle cx="263.31" cy="203.59" r="4" fill="hsl(342, 80%, 65%)" />
<circle cx="286.27" cy="299.96" r="5" fill="hsl(348, 80%, 65%)" />
<circle cx="203.54" cy="243.93" r="6" fill="hsl(354, 80%, 65%)" />
<circle cx="303.23" cy="229.24" r="2" fill="hsl(0, 80%, 65%)" />
<circle cx="239.11" cy="308.07" r="3" fill="hsl(6, 80%, 65%)" />
<circle cx="233.10" cy="205.79" r="4" fill="hsl(12, 80%, 65%)" />
<circle cx="307.21" cy="277.73" r="5" fill="hsl(18, 80%, 65%)" />
<circle cx="203.15" cy="274.72" r="6" fill="hsl(24, 80%, 65%)" />
<circle cx="282.53" cy="206.11" r="2" fill="hsl(30, 80%, 65%)" />
<circle cx="270.24" cy="311.13" r="3" fill="hsl(36, 80%, 65%)" />
<circle cx="207.90" cy="224.74" r="4" fill="hsl(42, 80%, 65%)" />
<circle cx="313.01" cy="246.49" r="5" fill="hsl(48, 80%, 65%)" />
<circle cx="220.13" cy="301.85" r="6" fill="hsl(54, 80%, 65%)" />
<circle cx="251.44" cy="197.54" r="2" fill="hsl(60, 80%, 65%)" />
<circle cx="299.15" cy="296.31" r="3" fill="hsl(66, 80%, 65%)" />
<circle cx="196.53" cy="255.42" r="4" fill="hsl(72, 80%, 65%)" />
<circle cx="300.55" cy="215.98" r="5" fill="hsl(78, 80%, 65%)" />
<circle cx="250.14" cy="316.00" r="6" fill="hsl(84, 80%, 65%)" />
<circle cx="219.54" cy="207.47" r="2" fill="hsl(90, 80%, 65%)" />
<circle cx="316.06" cy="267.23" r="3" fill="hsl(96, 80%, 65%)" />
<circle cx="203.79" cy="288.50" r="4" fill="hsl(102, 80%, 65%)" />
<circle cx="272.65" cy="196.38" r="5" fill="hsl(108, 80%, 65%)" />
<circle cx="284.17" cy="311.56" r="6" fill="hsl(114, 80%, 65%)" />
<circle cx="197.33" cy="233.92" r="2" fill="hsl(120, 80%, 65%)" />
<circle cx="314.54" cy="232.50" r="3" fill="hsl(126, 80%, 65%)" />
<circle cx="228.54" cy="313.22" r="4" fill="hsl(132, 80%, 65%)" />
<circle cx="237.49" cy="194.89" r="5" fill="hsl(138, 80%, 65%)" />
<circle cx="311.26" cy="288.75" r="6" fill="hsl(144, 80%, 65%)" />
<circle cx="192.76" cy="269.26" r="2" fill="hsl(150, 80%, 65%)" />
<circle cx="293.90" cy="203.20" r="3" fill="hsl(156, 80%, 65%)" />
<circle cx="263.77" cy="320.91" r="4" fill="hsl(162, 80%, 65%)" />
<circle cx="206.14" cy="213.14" r="5" fill="hsl(168, 80%, 65%)" />
<circle cx="322.09" cy="253.91" r="6" fill="hsl(174, 80%, 65%)" />
<circle cx="208.42" cy="302.44" r="2" fill="hsl(180, 80%, 65%)" />
<circle cx="259.74" cy="189.25" r="3" fill="hsl(186, 80%, 65%)" />
<circle cx="298.56" cy="308.03" r="4" fill="hsl(192, 80%, 65%)" />
<circle cx="189.11" cy="246.33" r="5" fill="hsl(198, 80%, 65%)" />
<circle cx="312.15" cy="217.74" r="6" fill="hsl(204, 80%, 65%)" />
<circle cx="240.36" cy="322.50" r="2" fill="hsl(210, 80%, 65%)" />
<circle cx="222.44" cy="196.09" r="3" fill="hsl(216, 80%, 65%)" />
<circle cx="321.55" cy="277.62" r="4" fill="hsl(222, 80%, 65%)" />
<circle cx="192.74" cy="284.48" r="5" fill="hsl(228, 80%, 65%)" />
<circle cx="283.55" cy="191.94" r="6" fill="hsl(234, 80%, 65%)" />
<circle cx="279.08" cy="322.18" r="2" fill="hsl(240, 80%, 65%)" />
<circle cx="193.97" cy="222.62" r="3" fill="hsl(246, 80%, 65%)" />
<circle cx="324.62" cy="238.63" r="4" fill="hsl(252, 80%, 65%)" />
<circle cx="216.95" cy="315.45" r="5" fill="hsl(258, 80%, 65%)" />
<circle cx="244.58" cy="185.44" r="6" fill="hsl(264, 80%, 65%)" />
<circle cx="312.35" cy="300.52" r="2" fill="hsl(270, 80%, 65%)" />
<circle cx="184.03" cy="261.26" r="3" fill="hsl(276, 80%, 65%)" />
<circle cx="305.75" cy="203.27" r="4" fill="hsl(282, 80%, 65%)" />
<circle cx="254.93" cy="328.83" r="5" fill="hsl(288, 80%, 65%)" />
<circle cx="207.37" cy="201.33" r="6" fill="hsl(294, 80%, 65%)" />
<circle cx="329.12" cy="263.50" r="2" fill="hsl(300, 80%, 65%)" />
<circle cx="196.75" cy="300.06" r="3" fill="hsl(306, 80%, 65%)" />
<circle cx="269.99" cy="183.16" r="4" fill="hsl(312, 80%, 65%)" />
<circle cx="295.06" cy="319.44" r="5" fill="hsl(318, 80%, 65%)" />
<circle cx="184.03" cy="235.52" r="6" fill="hsl(324, 80%, 65%)" />
<circle cx="323.20" cy="222.34" r="2" fill="hsl(330, 80%, 65%)" />
<circle cx="229.07" cy="326.52" r="3" fill="hsl(336, 80%, 65%)" />
<circle cx="228.10" cy="185.51" r="4" fill="hsl(342, 80%, 65%)" />
<circle cx="324.48" cy="289.27" r="5" fill="hsl(348, 80%, 65%)" />
<circle cx="182.72" cy="277.81" r="6" fill="hsl(354, 80%, 65%)" />
<circle cx="295.46" cy="190.14" r="2" fill="hsl(0, 80%, 65%)" />
<circle cx="271.45" cy="331.53" r="3" fill="hsl(6, 80%, 65%)" />
<circle cx="193.33" cy="210.56" r="4" fill="hsl(12, 80%, 65%)" />
<circle cx="333.22" cy="247.14" r="5" fill="hsl(18, 80%, 65%)" />
<circle cx="204.84" cy="314.93" r="6" fill="hsl(24, 80%, 65%)" />
<circle cx="253.91" cy="177.67" r="2" fill="hsl(30, 80%, 65%)" />
<circle cx="310.67" cy="312.57" r="3" fill="hsl(36, 80%, 65%)" />
<circle cx="177.16" cy="251.20" r="4" fill="hsl(42, 80%, 65%)" />
<circle cx="317.62" cy="206.09" r="5" fill="hsl(48, 80%, 65%)" />
<circle cx="244.23" cy="334.73" r="6" fill="hsl(54, 80%, 65%)" />
<circle cx="211.33" cy="189.74" r="2" fill="hsl(60, 80%, 65%)" />
<circle cx="333.99" cy="274.75" r="3" fill="hsl(66, 80%, 65%)" />
<circle cx="185.56" cy="295.01" r="4" fill="hsl(72, 80%, 65%)" />
<circle cx="281.69" cy="179.37" r="5" fill="hsl(78, 80%, 65%)" />
<circle cx="288.95" cy="330.14" r="6" fill="hsl(84, 80%, 65%)" />
<circle cx="181.35" cy="223.47" r="2" fill="hsl(90, 80%, 65%)" />
<circle cx="333.31" cy="229.47" r="3" fill="hsl(96, 80%, 65%)" />
<circle cx="216.78" cy="328.05" r="4" fill="hsl(102, 80%, 65%)" />
<circle cx="236.18" cy="176.09" r="5" fill="hsl(108, 80%, 65%)" />
<circle cx="324.84" cy="301.70" r="6" fill="hsl(114, 80%, 65%)" />
<circle cx="174.08" cy="268.85" r="2" fill="hsl(120, 80%, 65%)" />
<circle cx="307.91" cy="190.96" r="3" fill="hsl(126, 80%, 65%)" />
<circle cx="261.68" cy="339.32" r="4" fill="hsl(132, 80%, 65%)" />
<circle cx="195.32" cy="198.19" r="5" fill="hsl(138, 80%, 65%)" />
<circle cx="340.09" cy="257.64" r="6" fill="hsl(144, 80%, 65%)" />
<circle cx="192.67" cy="311.78" r="2" fill="hsl(150, 80%, 65%)" />
<circle cx="265.05" cy="171.80" r="3" fill="hsl(156, 80%, 65%)" />
<circle cx="306.38" cy="324.43" r="4" fill="hsl(162, 80%, 65%)" />
<circle cx="172.35" cy="239.51" r="5" fill="hsl(168, 80%, 65%)" />
<circle cx="329.07" cy="211.50" r="6" fill="hsl(174, 80%, 65%)" />
<circle cx="232.10" cy="338.44" r="2" fill="hsl(180, 80%, 65%)" />
<circle cx="217.80" cy="178.81" r="3" fill="hsl(186, 80%, 65%)" />
<circle cx="336.57" cy="287.22" r="4" fill="hsl(192, 80%, 65%)" />
<circle cx="175.24" cy="287.51" r="5" fill="hsl(198, 80%, 65%)" />
<circle cx="294.39" cy="177.96" r="6" fill="hsl(204, 80%, 65%)" />
<circle cx="280.48" cy="339.75" r="2" fill="hsl(210, 80%, 65%)" />
<circle cx="181.13" cy="210.64" r="3" fill="hsl(216, 80%, 65%)" />
<circle cx="342.12" cy="238.82" r="4" fill="hsl(222, 80%, 65%)" />
<circle cx="203.94" cy="327.07" r="5" fill="hsl(228, 80%, 65%)" />
<circle cx="246.36" cy="168.15" r="6" fill="hsl(234, 80%, 65%)" />
<circle cx="322.66" cy="314.44" r="2" fill="hsl(240, 80%, 65%)" />
<circle cx="167.09" cy="257.94" r="3" fill="hsl(246, 80%, 65%)" />
<circle cx="320.45" cy="194.32" r="4" fill="hsl(252, 80%, 65%)" />
<circle cx="250.12" cy="345.29" r="5" fill="hsl(258, 80%, 65%)" />
<circle cx="199.85" cy="185.98" r="6" fill="hsl(264, 80%, 65%)" />
<circle cx="344.97" cy="269.74" r="2" fill="hsl(270, 80%, 65%)" />
<circle cx="180.89" cy="306.12" r="3" fill="hsl(276, 80%, 65%)" />
<circle cx="277.60" cy="168.04" r="4" fill="hsl(282, 80%, 65%)" />
<circle cx="299.62" cy="335.68" r="5" fill="hsl(288, 80%, 65%)" />
<circle cx="169.76" cy="226.62" r="6" fill="hsl(294, 80%, 65%)" />
<circle cx="339.69" cy="219.30" r="2" fill="hsl(300, 80%, 65%)" />
<circle cx="218.98" cy="339.84" r="3" fill="hsl(306, 80%, 65%)" />
<circle cx="226.58" cy="168.92" r="4" fill="hsl(312, 80%, 65%)" />
<circle cx="336.75" cy="300.47" r="5" fill="hsl(318, 80%, 65%)" />
<circle cx="166.16" cy="277.82" r="6" fill="hsl(324, 80%, 65%)" />
<circle cx="307.66" cy="179.01" r="2" fill="hsl(330, 80%, 65%)" />
<circle cx="269.96" cy="347.92" r="3" fill="hsl(336, 80%, 65%)" />
<circle cx="183.41" cy="197.48" r="4" fill="hsl(342, 80%, 65%)" />
<circle cx="349.32" cy="250.10" r="5" fill="hsl(348, 80%, 65%)" />
<circle cx="190.99" cy="323.58" r="6" fill="hsl(354, 80%, 65%)" />
<circle cx="258.29" cy="162.00" r="2" fill="hsl(0, 80%, 65%)" />
<circle cx="317.98" cy="327.06" r="3" fill="hsl(6, 80%, 65%)" />
<circle cx="162.04" cy="245.44" r="4" fill="hsl(12, 80%, 65%)" />
<circle cx="332.63" cy="200.17" r="5" fill="hsl(18, 80%, 65%)" />
<circle cx="237.16" cy="349.18" r="6" fill="hsl(24, 80%, 65%)" />
<circle cx="206.81" cy="174.34" r="2" fill="hsl(30, 80%, 65%)" />
<circle cx="347.67" cy="283.06" r="3" fill="hsl(36, 80%, 65%)" />
<circle cx="169.89" cy="298.09" r="4" fill="hsl(42, 80%, 65%)" />
<circle cx="291.16" cy="166.57" r="5" fill="hsl(48, 80%, 65%)" />
<circle cx="290.58" cy="345.93" r="6" fill="hsl(54, 80%, 65%)" />
<circle cx="169.53" cy="212.93" r="2" fill="hsl(60, 80%, 65%)" />
<circle cx="349.10" cy="229.27" r="3" fill="hsl(66, 80%, 65%)" />
<circle cx="205.27" cy="338.81" r="4" fill="hsl(72, 80%, 65%)" />
<circle cx="237.42" cy="160.42" r="5" fill="hsl(78, 80%, 65%)" />
<circle cx="334.46" cy="314.07" r="6" fill="hsl(84, 80%, 65%)" />
<circle cx="158.67" cy="266.21" r="2" fill="hsl(90, 80%, 65%)" />
</svg>
