<svg xmlns="http://www.w3.org/2000/svg" width="512" height="512" viewBox="0 0 512 512">
<rect width="100%" height="100%" fill="black"/>
<circle cx="82" cy="209" r="7" fill="hsl(0, 80%, 65%)" />
<circle cx="229" cy="145" r="3" fill="hsl(9, 80%, 65%)" />
<circle cx="404" cy="124" r="8" fill="hsl(18, 80%, 65%)" />
<circle cx="275" cy="253" r="3" fill="hsl(27, 80%, 65%)" />
<circle cx="209" cy="409" r="4" fill="hsl(36, 80%, 65%)" />
<circle cx="217" cy="249" r="3" fill="hsl(45, 80%, 65%)" />
<circle cx="271" cy="126" r="8" fill="hsl(54, 80%, 65%)" />
<circle cx="362" cy="230" r="7" fill="hsl(63, 80%, 65%)" />
<circle cx="229" cy="439" r="4" fill="hsl(72, 80%, 65%)" />
<circle cx="307" cy="216" r="7" fill="hsl(81, 80%, 65%)" />
<circle cx="398" cy="243" r="7" fill="hsl(90, 80%, 65%)" />
<circle cx="325" cy="312" r="4" fill="hsl(99, 80%, 65%)" />
<circle cx="225" cy="382" r="3" fill="hsl(108, 80%, 65%)" />
<circle cx="376" cy="101" r="7" fill="hsl(117, 80%, 65%)" />
<circle cx="316" cy="304" r="7" fill="hsl(126, 80%, 65%)" />
<circle cx="207" cy="351" r="5" fill="hsl(135, 80%, 65%)" />
<circle cx="114" cy="304" r="5" fill="hsl(144, 80%, 65%)" />
<circle cx="88" cy="338" r="5" fill="hsl(153, 80%, 65%)" />
<circle cx="84" cy="163" r="2" fill="hsl(162, 80%, 65%)" />
<circle cx="430" cy="152" r="7" fill="hsl(171, 80%, 65%)" />
<circle cx="185" cy="355" r="3" fill="hsl(180, 80%, 65%)" />
<circle cx="115" cy="273" r="8" fill="hsl(189, 80%, 65%)" />
<circle cx="426" cy="291" r="8" fill="hsl(198, 80%, 65%)" />
<circle cx="202" cy="137" r="4" fill="hsl(207, 80%, 65%)" />
<circle cx="255" cy="380" r="3" fill="hsl(216, 80%, 65%)" />
<circle cx="99" cy="222" r="6" fill="hsl(225, 80%, 65%)" />
<circle cx="384" cy="366" r="7" fill="hsl(234, 80%, 65%)" />
<circle cx="314" cy="90" r="2" fill="hsl(243, 80%, 65%)" />
<circle cx="363" cy="127" r="8" fill="hsl(252, 80%, 65%)" />
<circle cx="422" cy="364" r="8" fill="hsl(261, 80%, 65%)" />
<circle cx="374" cy="232" r="5" fill="hsl(270, 80%, 65%)" />
<circle cx="128" cy="408" r="8" fill="hsl(279, 80%, 65%)" />
<circle cx="438" cy="193" r="8" fill="hsl(288, 80%, 65%)" />
<circle cx="342" cy="373" r="3" fill="hsl(297, 80%, 65%)" />
<circle cx="245" cy="369" r="2" fill="hsl(306, 80%, 65%)" />
<circle cx="301" cy="103" r="7" fill="hsl(315, 80%, 65%)" />
<circle cx="297" cy="92" r="3" fill="hsl(324, 80%, 65%)" />
<circle cx="274" cy="333" r="4" fill="hsl(333, 80%, 65%)" />
<circle cx="302" cy="327" r="2" fill="hsl(342, 80%, 65%)" />
<circle cx="100" cy="118" r="7" fill="hsl(351, 80%, 65%)" />
<circle cx="220" cy="306" r="3" fill="hsl(0, 80%, 65%)" />
<circle cx="433" cy="143" r="3" fill="hsl(9, 80%, 65%)" />
<circle cx="420" cy="351" r="7" fill="hsl(18, 80%, 65%)" />
<circle cx="109" cy="388" r="8" fill="hsl(27, 80%, 65%)" />
<circle cx="286" cy="257" r="5" fill="hsl(36, 80%, 65%)" />
<circle cx="221" cy="370" r="7" fill="hsl(45, 80%, 65%)" />
<circle cx="98" cy="294" r="7" fill="hsl(54, 80%, 65%)" />
<circle cx="135" cy="133" r="7" fill="hsl(63, 80%, 65%)" />
<circle cx="121" cy="191" r="4" fill="hsl(72, 80%, 65%)" />
<circle cx="145" cy="394" r="5" fill="hsl(81, 80%, 65%)" />
<circle cx="243" cy="238" r="2" fill="hsl(90, 80%, 65%)" />
<circle cx="345" cy="325" r="3" fill="hsl(99, 80%, 65%)" />
<circle cx="289" cy="129" r="7" fill="hsl(108, 80%, 65%)" />
<circle cx="93" cy="98" r="5" fill="hsl(117, 80%, 65%)" />
<circle cx="382" cy="168" r="7" fill="hsl(126, 80%, 65%)" />
<circle cx="419" cy="238" r="2" fill="hsl(135, 80%, 65%)" />
<circle cx="131" cy="289" r="7" fill="hsl(144, 80%, 65%)" />
<circle cx="129" cy="183" r="3" fill="hsl(153, 80%, 65%)" />
<circle cx="96" cy="370" r="2" fill="hsl(162, 80%, 65%)" />
<circle cx="434" cy="123" r="8" fill="hsl(171, 80%, 65%)" />
<circle cx="166" cy="332" r="5" fill="hsl(180, 80%, 65%)" />
<circle cx="125" cy="268" r="6" fill="hsl(189, 80%, 65%)" />
<circle cx="170" cy="304" r="2" fill="hsl(198, 80%, 65%)" />
<circle cx="117" cy="149" r="6" fill="hsl(207, 80%, 65%)" />
<circle cx="70" cy="83" r="2" fill="hsl(216, 80%, 65%)" />
<circle cx="412" cy="325" r="3" fill="hsl(225, 80%, 65%)" />
<circle cx="249" cy="210" r="2" fill="hsl(234, 80%, 65%)" />
<circle cx="268" cy="219" r="2" fill="hsl(243, 80%, 65%)" />
<circle cx="174" cy="315" r="7" fill="hsl(252, 80%, 65%)" />
<circle cx="250" cy="294" r="7" fill="hsl(261, 80%, 65%)" />
<circle cx="349" cy="183" r="2" fill="hsl(270, 80%, 65%)" />
<circle cx="400" cy="143" r="5" fill="hsl(279, 80%, 65%)" />
<circle cx="380" cy="266" r="3" fill="hsl(288, 80%, 65%)" />
<circle cx="361" cy="214" r="3" fill="hsl(297, 80%, 65%)" />
<circle cx="228" cy="427" r="8" fill="hsl(306, 80%, 65%)" />
<circle cx="221" cy="72" r="6" fill="hsl(315, 80%, 65%)" />
<circle cx="105" cy="103" r="3" fill="hsl(324, 80%, 65%)" />
<circle cx="268" cy="382" r="7" fill="hsl(333, 80%, 65%)" />
<circle cx="71" cy="289" r="7" fill="hsl(342, 80%, 65%)" />
<circle cx="339" cy="167" r="3" fill="hsl(351, 80%, 65%)" />
<circle cx="386" cy="275" r="6" fill="hsl(0, 80%, 65%)" />
<circle cx="197" cy="338" r="7" fill="hsl(9, 80%, 65%)" />
<circle cx="242" cy="394" r="4" fill="hsl(18, 80%, 65%)" />
<circle cx="300" cy="265" r="3" fill="hsl(27, 80%, 65%)" />
<circle cx="247" cy="155" r="7" fill="hsl(36, 80%, 65%)" />
<circle cx="438" cy="252" r="8" fill="hsl(45, 80%, 65%)" />
<circle cx="128" cy="272" r="7" fill="hsl(54, 80%, 65%)" />
<circle cx="343" cy="278" r="8" fill="hsl(63, 80%, 65%)" />
<circle cx="267" cy="71" r="6" fill="hsl(72, 80%, 65%)" />
<circle cx="237" cy="147" r="8" fill="hsl(81, 80%, 65%)" />
<circle cx="380" cy="391" r="5" fill="hsl(90, 80%, 65%)" />
<circle cx="378" cy="257" r="6" fill="hsl(99, 80%, 65%)" />
<circle cx="413" cy="252" r="6" fill="hsl(108, 80%, 65%)" />
<circle cx="233" cy="201" r="5" fill="hsl(117, 80%, 65%)" />
<circle cx="108" cy="397" r="4" fill="hsl(126, 80%, 65%)" />
<circle cx="146" cy="199" r="5" fill="hsl(135, 80%, 65%)" />
<circle cx="122" cy="92" r="3" fill="hsl(144, 80%, 65%)" />
<circle cx="259" cy="374" r="4" fill="hsl(153, 80%, 65%)" />
<circle cx="112" cy="147" r="4" fill="hsl(162, 80%, 65%)" />
<circle cx="431" cy="111" r="7" fill="hsl(171, 80%, 65%)" />
<circle cx="241" cy="280" r="7" fill="hsl(180, 80%, 65%)" />
<circle cx="192" cy="74" r="5" fill="hsl(189, 80%, 65%)" />
<circle cx="115" cy="335" r="5" fill="hsl(198, 80%, 65%)" />
<circle cx="270" cy="297" r="7" fill="hsl(207, 80%, 65%)" />
<circle cx="302" cy="96" r="2" fill="hsl(216, 80%, 65%)" />
<circle cx="287" cy="361" r="2" fill="hsl(225, 80%, 65%)" />
<circle cx="299" cy="131" r="4" fill="hsl(234, 80%, 65%)" />
<circle cx="153" cy="199" r="6" fill="hsl(243, 80%, 65%)" />
<circle cx="306" cy="81" r="8" fill="hsl(252, 80%, 65%)" />
<circle cx="265" cy="260" r="6" fill="hsl(261, 80%, 65%)" />
<circle cx="290" cy="181" r="7" fill="hsl(270, 80%, 65%)" />
<circle cx="94" cy="102" r="8" fill="hsl(279, 80%, 65%)" />
<circle cx="183" cy="250" r="7" fill="hsl(288, 80%, 65%)" />
<circle cx="108" cy="389" r="5" fill="hsl(297, 80%, 65%)" />
<circle cx="337" cy="171" r="5" fill="hsl(306, 80%, 65%)" />
<circle cx="266" cy="419" r="4" fill="hsl(315, 80%, 65%)" />
<circle cx="112" cy="278" r="3" fill="hsl(324, 80%, 65%)" />
<circle cx="372" cy="440" r="2" fill="hsl(333, 80%, 65%)" />
<circle cx="218" cy="326" r="3" fill="hsl(342, 80%, 65%)" />
<circle cx="307" cy="383" r="8" fill="hsl(351, 80%, 65%)" />
<circle cx="356" cy="280" r="2" fill="hsl(0, 80%, 65%)" />
<circle cx="99" cy="340" r="6" fill="hsl(9, 80%, 65%)" />
<circle cx="372" cy="230" r="3" fill="hsl(18, 80%, 65%)" />
<circle cx="150" cy="88" r="6" fill="hsl(27, 80%, 65%)" />
<circle cx="108" cy="255" r="3" fill="hsl(36, 80%, 65%)" />
<circle cx="233" cy="364" r="3" fill="hsl(45, 80%, 65%)" />
<circle cx="166" cy="72" r="2" fill="hsl(54, 80%, 65%)" />
<circle cx="76" cy="356" r="5" fill="hsl(63, 80%, 65%)" />
<circle cx="201" cy="386" r="7" fill="hsl(72, 80%, 65%)" />
<circle cx="183" cy="424" r="6" fill="hsl(81, 80%, 65%)" />
<circle cx="343" cy="96" r="7" fill="hsl(90, 80%, 65%)" />
<circle cx="298" cy="390" r="4" fill="hsl(99, 80%, 65%)" />
<circle cx="115" cy="237" r="7" fill="hsl(108, 80%, 65%)" />
<circle cx="87" cy="233" r="8" fill="hsl(117, 80%, 65%)" />
<circle cx="220" cy="313" r="2" fill="hsl(126, 80%, 65%)" />
<circle cx="437" cy="148" r="3" fill="hsl(135, 80%, 65%)" />
<circle cx="126" cy="130" r="8" fill="hsl(144, 80%, 65%)" />
<circle cx="243" cy="168" r="5" fill="hsl(153, 80%, 65%)" />
<circle cx="86" cy="287" r="3" fill="hsl(162, 80%, 65%)" />
<circle cx="158" cy="282" r="7" fill="hsl(171, 80%, 65%)" />
<circle cx="194" cy="258" r="8" fill="hsl(180, 80%, 65%)" />
<circle cx="229" cy="146" r="7" fill="hsl(189, 80%, 65%)" />
<circle cx="144" cy="328" r="7" fill="hsl(198, 80%, 65%)" />
<circle cx="130" cy="188" r="2" fill="hsl(207, 80%, 65%)" />
<circle cx="331" cy="225" r="5" fill="hsl(216, 80%, 65%)" />
<circle cx="225" cy="142" r="5" fill="hsl(225, 80%, 65%)" />
<circle cx="110" cy="392" r="4" fill="hsl(234, 80%, 65%)" />
<circle cx="226" cy="330" r="4" fill="hsl(243, 80%, 65%)" />
<circle cx="353" cy="216" r="8" fill="hsl(252, 80%, 65%)" />
<circle cx="132" cy="289" r="5" fill="hsl(261, 80%, 65%)" />
<circle cx="425" cy="82" r="2" fill="hsl(270, 80%, 65%)" />
<circle cx="229" cy="217" r="3" fill="hsl(279, 80%, 65%)" />
<circle cx="217" cy="305" r="6" fill="hsl(288, 80%, 65%)" />
<circle cx="385" cy="188" r="4" fill="hsl(297, 80%, 65%)" />
<circle cx="309" cy="323" r="3" fill="hsl(306, 80%, 65%)" />
<circle cx="240" cy="326" r="4" fill="hsl(315, 80%, 65%)" />
<circle cx="272" cy="265" r="4" fill="hsl(324, 80%, 65%)" />
<circle cx="260" cy="103" r="8" fill="hsl(333, 80%, 65%)" />
<circle cx="153" cy="316" r="5" fill="hsl(342, 80%, 65%)" />
<circle cx="112" cy="95" r="2" fill="hsl(351, 80%, 65%)" />
<circle cx="337" cy="286" r="7" fill="hsl(0, 80%, 65%)" />
<circle cx="311" cy="89" r="7" fill="hsl(9, 80%, 65%)" />
<circle cx="401" cy="297" r="2" fill="hsl(18, 80%, 65%)" />
<circle cx="435" cy="232" r="5" fill="hsl(27, 80%, 65%)" />
<circle cx="353" cy="412" r="3" fill="hsl(36, 80%, 65%)" />
<circle cx="285" cy="218" r="4" fill="hsl(45, 80%, 65%)" />
<circle cx="246" cy="224" r="8" fill="hsl(54, 80%, 65%)" />
<circle cx="79" cy="392" r="3" fill="hsl(63, 80%, 65%)" />
<circle cx="418" cy="105" r="2" fill="hsl(72, 80%, 65%)" />
<circle cx="308" cy="361" r="4" fill="hsl(81, 80%, 65%)" />
<circle cx="386" cy="113" r="3" fill="hsl(90, 80%, 65%)" />
<circle cx="280" cy="381" r="3" fill="hsl(99, 80%, 65%)" />
<circle cx="134" cy="431" r="5" fill="hsl(108, 80%, 65%)" />
<circle cx="406" cy="354" r="2" fill="hsl(117, 80%, 65%)" />
<circle cx="197" cy="295" r="5" fill="hsl(126, 80%, 65%)" />
<circle cx="309" cy="437" r="8" fill="hsl(135, 80%, 65%)" />
<circle cx="141" cy="315" r="3" fill="hsl(144, 80%, 65%)" />
<circle cx="287" cy="178" r="4" fill="hsl(153, 80%, 65%)" />
<circle cx="263" cy="323" r="7" fill="hsl(162, 80%, 65%)" />
<circle cx="382" cy="85" r="2" fill="hsl(171, 80%, 65%)" />
<line x1="385" y1="225" x2="366" y2="188" stroke="#223344" stroke-width="1"/>
<line x1="425" y1="246" x2="389" y2="171" stroke="#223344" stroke-width="1"/>
<line x1="145" y1="235" x2="110" y2="246" stroke="#223344" stroke-width="1"/>
<line x1="182" y1="376" x2="257" y2="368" stroke="#223344" stroke-width="1"/>
<line x1="263" y1="63" x2="207" y2="26" stroke="#223344" stroke-width="1"/>
<line x1="79" y1="358" x2="95" y2="322" stroke="#223344" stroke-width="1"/>
<line x1="118" y1="80" x2="82" y2="46" stroke="#223344" stroke-width="1"/>
<line x1="184" y1="417" x2="252" y2="413" stroke="#223344" stroke-width="1"/>
<line x1="448" y1="340" x2="435" y2="359" stroke="#223344" stroke-width="1"/>
<line x1="257" y1="182" x2="280" y2="217" stroke="#223344" stroke-width="1"/>
<line x1="69" y1="85" x2="27" y2="138" stroke="#223344" stroke-width="1"/>
<line x1="375" y1="184" x2="377" y2="133" stroke="#223344" stroke-width="1"/>
<line x1="335" y1="277" x2="324" y2="255" stroke="#223344" stroke-width="1"/>
<line x1="435" y1="383" x2="393" y2="416" stroke="#223344" stroke-width="1"/>
<line x1="174" y1="196" x2="187" y2="260" stroke="#223344" stroke-width="1"/>
<line x1="285" y1="334" x2="308" y2="391" stroke="#223344" stroke-width="1"/>
<line x1="343" y1="393" x2="373" y2="455" stroke="#223344" stroke-width="1"/>
<line x1="100" y1="397" x2="83" y2="368" stroke="#223344" stroke-width="1"/>
<line x1="90" y1="201" x2="72" y2="204" stroke="#223344" stroke-width="1"/>
<line x1="151" y1="444" x2="226" y2="422" stroke="#223344" stroke-width="1"/>
<line x1="319" y1="62" x2="372" y2="85" stroke="#223344" stroke-width="1"/>
<line x1="198" y1="339" x2="123" y2="328" stroke="#223344" stroke-width="1"/>
<line x1="303" y1="408" x2="369" y2="363" stroke="#223344" stroke-width="1"/>
<line x1="96" y1="320" x2="42" y2="362" stroke="#223344" stroke-width="1"/>
</svg>
