<svg xmlns="http://www.w3.org/2000/svg" width="512" height="512" viewBox="0 0 512 512">
<rect width="100%" height="100%" fill="#0b1020"/>
<circle cx="378" cy="62" r="56" fill="#f8f3c9" opacity="0.95" />
<circle cx="143.0" cy="64.0" r="2.3" fill="white" />
<circle cx="465.0" cy="117.0" r="1.6" fill="white" />
<circle cx="145.0" cy="135.0" r="1.8" fill="white" />
<circle cx="61.0" cy="119.0" r="2.6" fill="white" />
<circle cx="302.0" cy="66.0" r="2.4" fill="white" />
<circle cx="393.0" cy="78.0" r="2.7" fill="white" />
<circle cx="143.0" cy="145.0" r="1.6" fill="white" />
<circle cx="212.0" cy="106.0" r="2.1" fill="white" />
<circle cx="424.0" cy="125.0" r="2.0" fill="white" />
<circle cx="309.0" cy="95.0" r="1.9" fill="white" />
<circle cx="459.0" cy="149.0" r="3.0" fill="white" />
<circle cx="133.0" cy="67.0" r="2.9" fill="white" />
<circle cx="382.0" cy="86.0" r="2.6" fill="white" />
<path d="M 20 430 C 128 428, 178 454, 283 423 S 450 396, 512 426" stroke="#5dade2" stroke-width="8" fill="none" opacity="0.85" />
<line x1="0" y1="398" x2="512" y2="398" stroke="#445566" stroke-width="4" />
<polygon points="141,364 181,304 221,324 241,294 261,314 273,354 241,376 191,380" fill="#1e1e1e" />
<polygon points="216,304 229,282 239,306" fill="#1e1e1e" />
<line x1="271" y1="349" x2="301" y2="324" stroke="#1e1e1e" stroke-width="6" />
</svg>
