<svg xmlns="http://www.w3.org/2000/svg" width="512" height="512" viewBox="0 0 512 512">
<rect width="100%" height="100%" fill="#0b1020"/>
<circle cx="365" cy="124" r="45" fill="#f8f3c9" opacity="0.95" />
<circle cx="88.0" cy="21.0" r="1.7" fill="white" />
<circle cx="146.0" cy="119.0" r="3.3" fill="white" />
<circle cx="94.0" cy="45.0" r="3.1" fill="white" />
<circle cx="119.0" cy="135.0" r="1.7" fill="white" />
<circle cx="279.0" cy="136.0" r="3.2" fill="white" />
<path d="M 20 430 C 106 422, 184 452, 306 424 S 450 385, 512 415" stroke="#5dade2" stroke-width="6" fill="none" opacity="0.85" />
<line x1="0" y1="402" x2="512" y2="402" stroke="#445566" stroke-width="4" />
<polygon points="216,359 256,299 296,319 316,289 336,309 348,349 316,371 266,375" fill="#1e1e1e" />
<polygon points="291,299 304,277 314,301" fill="#1e1e1e" />
<line x1="346" y1="344" x2="376" y2="319" stroke="#1e1e1e" stroke-width="6" />
</svg>
