<svg xmlns="http://www.w3.org/2000/svg" width="512" height="512" viewBox="0 0 512 512">
<rect width="100%" height="100%" fill="#0b1020"/>
<circle cx="449" cy="125" r="52" fill="#f8f3c9" opacity="0.95" />
<circle cx="184.0" cy="69.0" r="2.4" fill="white" />
<circle cx="456.0" cy="101.0" r="2.1" fill="white" />
<circle cx="387.0" cy="163.0" r="2.3" fill="white" />
<circle cx="92.0" cy="172.0" r="3.1" fill="white" />
<circle cx="147.0" cy="169.0" r="3.1" fill="white" />
<path d="M 20 430 C 120 417, 200 456, 292 428 S 450 394, 512 424" stroke="#5dade2" stroke-width="7" fill="none" opacity="0.85" />
<line x1="0" y1="407" x2="512" y2="407" stroke="#445566" stroke-width="3" />
<polygon points="156,352 196,292 236,312 256,282 276,302 288,342 256,364 206,368" fill="#1e1e1e" />
<polygon points="231,292 244,270 254,294" fill="#1e1e1e" />
<line x1="286" y1="337" x2="316" y2="312" stroke="#1e1e1e" stroke-width="6" />
</svg>
