<svg xmlns="http://www.w3.org/2000/svg" width="512" height="512" viewBox="0 0 512 512">
<rect width="100%" height="100%" fill="black"/>
<circle cx="256.00" cy="256.00" r="2" fill="hsl(0, 80%, 65%)" />
<circle cx="250.74" cy="260.82" r="3" fill="hsl(8, 80%, 65%)" />
<circle cx="256.88" cy="245.95" r="4" fill="hsl(16, 80%, 65%)" />
<circle cx="263.52" cy="265.81" r="5" fill="hsl(24, 80%, 65%)" />
<circle cx="241.95" cy="253.51" r="6" fill="hsl(32, 80%, 65%)" />
<circle cx="269.46" cy="247.44" r="2" fill="hsl(40, 80%, 65%)" />
<circle cx="251.46" cy="272.88" r="3" fill="hsl(48, 80%, 65%)" />
<circle cx="247.30" cy="239.24" r="4" fill="hsl(56, 80%, 65%)" />
<circle cx="274.96" cy="262.92" r="5" fill="hsl(64, 80%, 65%)" />
<circle cx="236.21" cy="264.17" r="6" fill="hsl(72, 80%, 65%)" />
<circle cx="265.57" cy="235.56" r="2" fill="hsl(80, 80%, 65%)" />
<circle cx="263.08" cy="278.58" r="3" fill="hsl(88, 80%, 65%)" />
<circle cx="234.61" cy="243.60" r="4" fill="hsl(96, 80%, 65%)" />
<circle cx="281.13" cy="250.48" r="5" fill="hsl(104, 80%, 65%)" />
<circle cx="240.64" cy="277.84" r="6" fill="hsl(112, 80%, 65%)" />
<circle cx="252.45" cy="228.59" r="2" fill="hsl(120, 80%, 65%)" />
<circle cx="277.83" cy="274.40" r="3" fill="hsl(128, 80%, 65%)" />
<circle cx="226.60" cy="257.22" r="4" fill="hsl(136, 80%, 65%)" />
<circle cx="277.46" cy="234.64" r="5" fill="hsl(144, 80%, 65%)" />
<circle cx="254.56" cy="287.07" r="6" fill="hsl(152, 80%, 65%)" />
<circle cx="235.55" cy="231.50" r="2" fill="hsl(160, 80%, 65%)" />
<circle cx="288.41" cy="260.36" r="3" fill="hsl(168, 80%, 65%)" />
<circle cx="228.52" cy="275.12" r="4" fill="hsl(176, 80%, 65%)" />
<circle cx="263.51" cy="222.61" r="5" fill="hsl(184, 80%, 65%)" />
<circle cx="273.38" cy="286.33" r="6" fill="hsl(192, 80%, 65%)" />
<circle cx="222.01" cy="245.15" r="2" fill="hsl(200, 80%, 65%)" />
<circle cx="289.03" cy="240.74" r="3" fill="hsl(208, 80%, 65%)" />
<circle cx="241.68" cy="290.21" r="4" fill="hsl(216, 80%, 65%)" />
<circle cx="243.22" cy="220.47" r="5" fill="hsl(224, 80%, 65%)" />
<circle cx="290.02" cy="273.88" r="6" fill="hsl(232, 80%, 65%)" />
<circle cx="218.20" cy="265.96" r="2" fill="hsl(240, 80%, 65%)" />
<circle cx="277.49" cy="222.58" r="3" fill="hsl(248, 80%, 65%)" />
<circle cx="262.84" cy="295.79" r="4" fill="hsl(256, 80%, 65%)" />
<circle cx="223.59" cy="230.90" r="5" fill="hsl(264, 80%, 65%)" />
<circle cx="297.47" cy="252.56" r="6" fill="hsl(272, 80%, 65%)" />
<circle cx="227.33" cy="286.99" r="2" fill="hsl(280, 80%, 65%)" />
<circle cx="256.21" cy="213.18" r="3" fill="hsl(288, 80%, 65%)" />
<circle cx="285.17" cy="288.15" r="4" fill="hsl(296, 80%, 65%)" />
<circle cx="212.20" cy="251.94" r="5" fill="hsl(304, 80%, 65%)" />
<circle cx="291.50" cy="229.06" r="6" fill="hsl(312, 80%, 65%)" />
<circle cx="247.92" cy="300.41" r="2" fill="hsl(320, 80%, 65%)" />
<circle cx="231.66" cy="217.32" r="3" fill="hsl(328, 80%, 65%)" />
<circle cx="300.60" cy="268.22" r="4" fill="hsl(336, 80%, 65%)" />
<circle cx="214.37" cy="277.37" r="5" fill="hsl(344, 80%, 65%)" />
<circle cx="272.46" cy="211.61" r="6" fill="hsl(352, 80%, 65%)" />
<circle cx="274.05" cy="300.34" r="2" fill="hsl(0, 80%, 65%)" />
<circle cx="212.26" cy="235.27" r="3" fill="hsl(8, 80%, 65%)" />
<circle cx="302.75" cy="241.59" r="4" fill="hsl(16, 80%, 65%)" />
<circle cx="231.00" cy="298.66" r="5" fill="hsl(24, 80%, 65%)" />
<circle cx="245.51" cy="207.16" r="6" fill="hsl(32, 80%, 65%)" />
<circle cx="297.14" cy="285.22" r="2" fill="hsl(40, 80%, 65%)" />
<circle cx="205.43" cy="262.30" r="3" fill="hsl(48, 80%, 65%)" />
<circle cx="289.36" cy="216.81" r="4" fill="hsl(56, 80%, 65%)" />
<circle cx="257.89" cy="307.92" r="5" fill="hsl(64, 80%, 65%)" />
<circle cx="219.19" cy="218.65" r="6" fill="hsl(72, 80%, 65%)" />
<circle cx="308.86" cy="258.70" r="2" fill="hsl(80, 80%, 65%)" />
<circle cx="214.83" cy="290.02" r="3" fill="hsl(88, 80%, 65%)" />
<circle cx="263.45" cy="202.64" r="4" fill="hsl(96, 80%, 65%)" />
<circle cx="286.82" cy="300.76" r="5" fill="hsl(104, 80%, 65%)" />
<circle cx="202.58" cy="243.71" r="6" fill="hsl(112, 80%, 65%)" />
<circle cx="304.10" cy="228.75" r="2" fill="hsl(120, 80%, 65%)" />
<circle cx="238.80" cy="309.02" r="3" fill="hsl(128, 80%, 65%)" />
<circle cx="232.68" cy="204.87" r="4" fill="hsl(136, 80%, 65%)" />
<circle cx="308.15" cy="278.12" r="5" fill="hsl(144, 80%, 65%)" />
<circle cx="202.18" cy="275.06" r="6" fill="hsl(152, 80%, 65%)" />
<circle cx="283.02" cy="205.20" r="2" fill="hsl(160, 80%, 65%)" />
<circle cx="270.50" cy="312.13" r="3" fill="hsl(168, 80%, 65%)" />
<circle cx="207.02" cy="224.17" r="4" fill="hsl(176, 80%, 65%)" />
<circle cx="314.05" cy="246.32" r="5" fill="hsl(184, 80%, 65%)" />
<circle cx="219.47" cy="302.69" r="6" fill="hsl(192, 80%, 65%)" />
<circle cx="251.36" cy="196.47" r="2" fill="hsl(200, 80%, 65%)" />
<circle cx="299.94" cy="297.05" r="3" fill="hsl(208, 80%, 65%)" />
<circle cx="195.45" cy="255.41" r="4" fill="hsl(216, 80%, 65%)" />
<circle cx="301.36" cy="215.25" r="5" fill="hsl(224, 80%, 65%)" />
<circle cx="250.04" cy="317.10" r="6" fill="hsl(232, 80%, 65%)" />
<circle cx="218.88" cy="206.59" r="2" fill="hsl(240, 80%, 65%)" />
<circle cx="317.15" cy="267.43" r="3" fill="hsl(248, 80%, 65%)" />
<circle cx="202.84" cy="289.09" r="4" fill="hsl(256, 80%, 65%)" />
<circle cx="272.96" cy="195.30" r="5" fill="hsl(264, 80%, 65%)" />
<circle cx="284.68" cy="312.57" r="6" fill="hsl(272, 80%, 65%)" />
<circle cx="196.26" cy="233.52" r="2" fill="hsl(280, 80%, 65%)" />
<circle cx="315.61" cy="232.07" r="3" fill="hsl(288, 80%, 65%)" />
<circle cx="228.04" cy="314.26" r="4" fill="hsl(296, 80%, 65%)" />
<circle cx="237.15" cy="193.78" r="5" fill="hsl(304, 80%, 65%)" />
<circle cx="312.27" cy="289.35" r="6" fill="hsl(312, 80%, 65%)" />
<circle cx="191.60" cy="269.50" r="2" fill="hsl(320, 80%, 65%)" />
<circle cx="294.59" cy="202.23" r="3" fill="hsl(328, 80%, 65%)" />
<circle cx="263.91" cy="322.09" r="4" fill="hsl(336, 80%, 65%)" />
<circle cx="205.23" cy="212.36" r="5" fill="hsl(344, 80%, 65%)" />
<circle cx="323.29" cy="253.87" r="6" fill="hsl(352, 80%, 65%)" />
<circle cx="207.55" cy="303.29" r="2" fill="hsl(0, 80%, 65%)" />
<circle cx="259.81" cy="188.03" r="3" fill="hsl(8, 80%, 65%)" />
<circle cx="299.34" cy="308.98" r="4" fill="hsl(16, 80%, 65%)" />
<circle cx="187.89" cy="246.16" r="5" fill="hsl(24, 80%, 65%)" />
<circle cx="313.18" cy="217.04" r="6" fill="hsl(32, 80%, 65%)" />
<circle cx="240.07" cy="323.71" r="2" fill="hsl(40, 80%, 65%)" />
<circle cx="221.83" cy="195.00" r="3" fill="hsl(48, 80%, 65%)" />
<circle cx="322.75" cy="278.01" r="4" fill="hsl(56, 80%, 65%)" />
<circle cx="191.58" cy="285.00" r="5" fill="hsl(64, 80%, 65%)" />
<circle cx="284.05" cy="190.77" r="6" fill="hsl(72, 80%, 65%)" />
<circle cx="279.50" cy="323.39" r="2" fill="hsl(80, 80%, 65%)" />
<circle cx="192.84" cy="222.02" r="3" fill="hsl(88, 80%, 65%)" />
<circle cx="325.87" cy="238.31" r="4" fill="hsl(96, 80%, 65%)" />
<circle cx="216.24" cy="316.54" r="5" fill="hsl(104, 80%, 65%)" />
<circle cx="244.37" cy="184.16" r="6" fill="hsl(112, 80%, 65%)" />
<circle cx="313.38" cy="301.34" r="2" fill="hsl(120, 80%, 65%)" />
<circle cx="182.72" cy="261.35" r="3" fill="hsl(128, 80%, 65%)" />
<circle cx="306.66" cy="202.30" r="4" fill="hsl(136, 80%, 65%)" />
<circle cx="254.91" cy="330.16" r="5" fill="hsl(144, 80%, 65%)" />
<circle cx="206.48" cy="200.33" r="6" fill="hsl(152, 80%, 65%)" />
<circle cx="330.46" cy="263.63" r="2" fill="hsl(160, 80%, 65%)" />
<circle cx="195.67" cy="300.87" r="3" fill="hsl(168, 80%, 65%)" />
<circle cx="270.24" cy="181.83" r="4" fill="hsl(176, 80%, 65%)" />
<circle cx="295.78" cy="320.60" r="5" fill="hsl(184, 80%, 65%)" />
<circle cx="182.71" cy="235.14" r="6" fill="hsl(192, 80%, 65%)" />
<circle cx="324.43" cy="221.72" r="2" fill="hsl(200, 80%, 65%)" />
<circle cx="228.58" cy="327.80" r="3" fill="hsl(208, 80%, 65%)" />
<circle cx="227.59" cy="184.22" r="4" fill="hsl(216, 80%, 65%)" />
<circle cx="325.73" cy="289.88" r="5" fill="hsl(224, 80%, 65%)" />
<circle cx="181.39" cy="278.21" r="6" fill="hsl(232, 80%, 65%)" />
<circle cx="296.18" cy="188.94" r="2" fill="hsl(240, 80%, 65%)" />
<circle cx="271.73" cy="332.91" r="3" fill="hsl(248, 80%, 65%)" />
<circle cx="192.19" cy="209.73" r="4" fill="hsl(256, 80%, 65%)" />
<circle cx="334.63" cy="246.98" r="5" fill="hsl(264, 80%, 65%)" />
<circle cx="203.90" cy="316.01" r="6" fill="hsl(272, 80%, 65%)" />
<circle cx="253.87" cy="176.24" r="2" fill="hsl(280, 80%, 65%)" />
<circle cx="311.67" cy="313.60" r="3" fill="hsl(288, 80%, 65%)" />
<circle cx="175.72" cy="251.11" r="4" fill="hsl(296, 80%, 65%)" />
<circle cx="318.74" cy="205.18" r="5" fill="hsl(304, 80%, 65%)" />
<circle cx="244.02" cy="336.16" r="6" fill="hsl(312, 80%, 65%)" />
<circle cx="210.51" cy="188.54" r="2" fill="hsl(320, 80%, 65%)" />
<circle cx="335.42" cy="275.09" r="3" fill="hsl(328, 80%, 65%)" />
<circle cx="184.27" cy="295.72" r="4" fill="hsl(336, 80%, 65%)" />
<circle cx="282.16" cy="177.97" r="5" fill="hsl(344, 80%, 65%)" />
<circle cx="289.55" cy="331.49" r="6" fill="hsl(352, 80%, 65%)" />
<circle cx="179.99" cy="222.87" r="2" fill="hsl(0, 80%, 65%)" />
<circle cx="334.72" cy="228.98" r="3" fill="hsl(8, 80%, 65%)" />
<circle cx="216.06" cy="329.36" r="4" fill="hsl(16, 80%, 65%)" />
<circle cx="235.82" cy="174.63" r="5" fill="hsl(24, 80%, 65%)" />
<circle cx="326.10" cy="302.54" r="6" fill="hsl(32, 80%, 65%)" />
<circle cx="172.58" cy="269.08" r="2" fill="hsl(40, 80%, 65%)" />
<circle cx="308.86" cy="189.77" r="3" fill="hsl(48, 80%, 65%)" />
<circle cx="261.78" cy="340.84" r="4" fill="hsl(56, 80%, 65%)" />
<circle cx="194.21" cy="197.14" r="5" fill="hsl(64, 80%, 65%)" />
<circle cx="341.62" cy="257.67" r="6" fill="hsl(72, 80%, 65%)" />
<circle cx="191.51" cy="312.80" r="2" fill="hsl(80, 80%, 65%)" />
<circle cx="265.21" cy="170.26" r="3" fill="hsl(88, 80%, 65%)" />
<circle cx="307.30" cy="325.68" r="4" fill="hsl(96, 80%, 65%)" />
<circle cx="170.82" cy="239.21" r="5" fill="hsl(104, 80%, 65%)" />
<circle cx="330.40" cy="210.69" r="6" fill="hsl(112, 80%, 65%)" />
<circle cx="231.67" cy="339.95" r="2" fill="hsl(120, 80%, 65%)" />
<circle cx="217.11" cy="177.40" r="3" fill="hsl(128, 80%, 65%)" />
<circle cx="338.04" cy="287.79" r="4" fill="hsl(136, 80%, 65%)" />
<circle cx="173.76" cy="288.08" r="5" fill="hsl(144, 80%, 65%)" />
<circle cx="295.09" cy="176.53" r="6" fill="hsl(152, 80%, 65%)" />
<circle cx="280.93" cy="341.28" r="2" fill="hsl(160, 80%, 65%)" />
<circle cx="179.77" cy="209.81" r="3" fill="hsl(168, 80%, 65%)" />
<circle cx="343.69" cy="238.51" r="4" fill="hsl(176, 80%, 65%)" />
<circle cx="202.99" cy="328.36" r="5" fill="hsl(184, 80%, 65%)" />
<circle cx="246.18" cy="166.55" r="6" fill="hsl(192, 80%, 65%)" />
<circle cx="323.88" cy="315.51" r="2" fill="hsl(200, 80%, 65%)" />
<circle cx="165.47" cy="257.98" r="3" fill="hsl(208, 80%, 65%)" />
<circle cx="321.62" cy="193.20" r="4" fill="hsl(216, 80%, 65%)" />
<circle cx="250.02" cy="346.92" r="5" fill="hsl(224, 80%, 65%)" />
<circle cx="198.82" cy="184.70" r="6" fill="hsl(232, 80%, 65%)" />
<circle cx="346.60" cy="269.99" r="2" fill="hsl(240, 80%, 65%)" />
<circle cx="179.51" cy="307.03" r="3" fill="hsl(248, 80%, 65%)" />
<circle cx="277.99" cy="166.44" r="4" fill="hsl(256, 80%, 65%)" />
<circle cx="300.41" cy="337.14" r="5" fill="hsl(264, 80%, 65%)" />
<circle cx="168.18" cy="226.08" r="6" fill="hsl(272, 80%, 65%)" />
<circle cx="341.21" cy="218.63" r="2" fill="hsl(280, 80%, 65%)" />
<circle cx="218.30" cy="341.37" r="3" fill="hsl(288, 80%, 65%)" />
<circle cx="226.05" cy="167.33" r="4" fill="hsl(296, 80%, 65%)" />
<circle cx="338.22" cy="301.28" r="5" fill="hsl(304, 80%, 65%)" />
<circle cx="164.52" cy="278.21" r="6" fill="hsl(312, 80%, 65%)" />
<circle cx="308.60" cy="177.60" r="2" fill="hsl(320, 80%, 65%)" />
<circle cx="270.21" cy="349.60" r="3" fill="hsl(328, 80%, 65%)" />
<circle cx="182.08" cy="196.41" r="4" fill="hsl(336, 80%, 65%)" />
<circle cx="351.02" cy="249.99" r="5" fill="hsl(344, 80%, 65%)" />
<circle cx="189.81" cy="324.81" r="6" fill="hsl(352, 80%, 65%)" />
<circle cx="258.34" cy="160.28" r="2" fill="hsl(0, 80%, 65%)" />
<circle cx="319.11" cy="328.36" r="3" fill="hsl(8, 80%, 65%)" />
<circle cx="160.33" cy="245.25" r="4" fill="hsl(16, 80%, 65%)" />
<circle cx="334.02" cy="199.15" r="5" fill="hsl(24, 80%, 65%)" />
<circle cx="236.82" cy="350.88" r="6" fill="hsl(32, 80%, 65%)" />
<circle cx="205.91" cy="172.85" r="2" fill="hsl(40, 80%, 65%)" />
<circle cx="349.35" cy="283.55" r="3" fill="hsl(48, 80%, 65%)" />
<circle cx="168.32" cy="298.85" r="4" fill="hsl(56, 80%, 65%)" />
<circle cx="291.80" cy="164.93" r="5" fill="hsl(64, 80%, 65%)" />
<circle cx="291.21" cy="347.57" r="6" fill="hsl(72, 80%, 65%)" />
<circle cx="167.95" cy="212.15" r="2" fill="hsl(80, 80%, 65%)" />
<circle cx="350.80" cy="228.79" r="3" fill="hsl(88, 80%, 65%)" />
<circle cx="204.35" cy="340.32" r="4" fill="hsl(96, 80%, 65%)" />
<circle cx="237.08" cy="158.68" r="5" fill="hsl(104, 80%, 65%)" />
<circle cx="335.90" cy="315.13" r="6" fill="hsl(112, 80%, 65%)" />
<circle cx="156.89" cy="266.39" r="2" fill="hsl(120, 80%, 65%)" />
<circle cx="322.23" cy="181.20" r="3" fill="hsl(128, 80%, 65%)" />
<circle cx="257.70" cy="356.15" r="4" fill="hsl(136, 80%, 65%)" />
<circle cx="186.92" cy="183.11" r="5" fill="hsl(144, 80%, 65%)" />
<circle cx="356.42" cy="263.10" r="6" fill="hsl(152, 80%, 65%)" />
<circle cx="176.96" cy="318.75" r="2" fill="hsl(160, 80%, 65%)" />
<circle cx="271.93" cy="156.09" r="3" fill="hsl(168, 80%, 65%)" />
<circle cx="311.88" cy="340.65" r="4" fill="hsl(176, 80%, 65%)" />
<circle cx="157.37" cy="231.27" r="5" fill="hsl(184, 80%, 65%)" />
<circle cx="345.65" cy="207.49" r="6" fill="hsl(192, 80%, 65%)" />
<circle cx="222.58" cy="352.56" r="2" fill="hsl(200, 80%, 65%)" />
<circle cx="215.32" cy="162.00" r="3" fill="hsl(208, 80%, 65%)" />
<circle cx="349.72" cy="297.94" r="4" fill="hsl(216, 80%, 65%)" />
<circle cx="158.33" cy="288.46" r="5" fill="hsl(224, 80%, 65%)" />
<circle cx="306.21" cy="165.87" r="6" fill="hsl(232, 80%, 65%)" />
<circle cx="279.91" cy="356.61" r="2" fill="hsl(240, 80%, 65%)" />
<circle cx="170.20" cy="197.83" r="3" fill="hsl(248, 80%, 65%)" />
<circle cx="358.81" cy="240.90" r="4" fill="hsl(256, 80%, 65%)" />
<circle cx="190.24" cy="336.77" r="5" fill="hsl(264, 80%, 65%)" />
<circle cx="249.92" cy="151.78" r="6" fill="hsl(272, 80%, 65%)" />
<circle cx="331.06" cy="328.91" r="2" fill="hsl(280, 80%, 65%)" />
<circle cx="151.16" cy="252.93" r="3" fill="hsl(288, 80%, 65%)" />
<circle cx="335.56" cy="187.29" r="4" fill="hsl(296, 80%, 65%)" />
<circle cx="243.72" cy="360.65" r="5" fill="hsl(304, 80%, 65%)" />
<circle cx="194.22" cy="170.34" r="6" fill="hsl(312, 80%, 65%)" />
<circle cx="359.65" cy="277.48" r="2" fill="hsl(320, 80%, 65%)" />
<circle cx="164.86" cy="310.30" r="3" fill="hsl(328, 80%, 65%)" />
<circle cx="286.60" cy="154.17" r="4" fill="hsl(336, 80%, 65%)" />
<circle cx="302.33" cy="351.97" r="5" fill="hsl(344, 80%, 65%)" />
<circle cx="156.79" cy="216.44" r="6" fill="hsl(352, 80%, 65%)" />
<circle cx="356.10" cy="218.07" r="2" fill="hsl(0, 80%, 65%)" />
<circle cx="207.70" cy="351.80" r="3" fill="hsl(8, 80%, 65%)" />
<circle cx="226.84" cy="152.51" r="4" fill="hsl(16, 80%, 65%)" />
<circle cx="347.61" cy="312.74" r="5" fill="hsl(24, 80%, 65%)" />
<circle cx="149.89" cy="276.09" r="6" fill="hsl(32, 80%, 65%)" />
<circle cx="320.81" cy="169.32" r="2" fill="hsl(40, 80%, 65%)" />
<circle cx="266.78" cy="363.93" r="3" fill="hsl(48, 80%, 65%)" />
<circle cx="174.97" cy="183.55" r="4" fill="hsl(56, 80%, 65%)" />
<circle cx="364.93" cy="254.69" r="5" fill="hsl(64, 80%, 65%)" />
<circle cx="176.40" cy="330.71" r="6" fill="hsl(72, 80%, 65%)" />
<circle cx="264.25" cy="146.91" r="2" fill="hsl(80, 80%, 65%)" />
<circle cx="323.75" cy="342.19" r="3" fill="hsl(88, 80%, 65%)" />
<circle cx="147.59" cy="238.17" r="4" fill="hsl(96, 80%, 65%)" />
<circle cx="348.17" cy="195.79" r="5" fill="hsl(104, 80%, 65%)" />
<circle cx="228.65" cy="362.88" r="6" fill="hsl(112, 80%, 65%)" />
<circle cx="203.86" cy="158.51" r="2" fill="hsl(120, 80%, 65%)" />
<circle cx="360.52" cy="292.75" r="3" fill="hsl(128, 80%, 65%)" />
<circle cx="153.90" cy="299.59" r="4" fill="hsl(136, 80%, 65%)" />
<circle cx="301.93" cy="154.68" r="5" fill="hsl(144, 80%, 65%)" />
<circle cx="290.64" cy="361.96" r="6" fill="hsl(152, 80%, 65%)" />
<circle cx="158.68" cy="201.16" r="2" fill="hsl(160, 80%, 65%)" />
<circle cx="365.02" cy="230.65" r="3" fill="hsl(168, 80%, 65%)" />
<circle cx="192.61" cy="348.52" r="4" fill="hsl(176, 80%, 65%)" />
<circle cx="240.21" cy="144.73" r="5" fill="hsl(184, 80%, 65%)" />
<circle cx="342.98" cy="327.53" r="6" fill="hsl(192, 80%, 65%)" />
<circle cx="143.32" cy="262.02" r="2" fill="hsl(200, 80%, 65%)" />
<circle cx="335.17" cy="175.29" r="3" fill="hsl(208, 80%, 65%)" />
<circle cx="252.13" cy="369.22" r="4" fill="hsl(216, 80%, 65%)" />
<circle cx="182.23" cy="169.73" r="5" fill="hsl(224, 80%, 65%)" />
<circle cx="368.90" cy="269.81" r="6" fill="hsl(232, 80%, 65%)" />
<circle cx="163.25" cy="322.21" r="2" fill="hsl(240, 80%, 65%)" />
<circle cx="279.72" cy="144.31" r="3" fill="hsl(248, 80%, 65%)" />
<circle cx="314.07" cy="354.57" r="4" fill="hsl(256, 80%, 65%)" />
<circle cx="146.38" cy="222.48" r="5" fill="hsl(264, 80%, 65%)" />
<circle cx="359.67" cy="206.58" r="6" fill="hsl(272, 80%, 65%)" />
<circle cx="212.86" cy="362.68" r="2" fill="hsl(280, 80%, 65%)" />
<circle cx="215.67" cy="147.99" r="3" fill="hsl(288, 80%, 65%)" />
<circle cx="358.89" cy="308.50" r="4" fill="hsl(296, 80%, 65%)" />
<circle cx="144.45" cy="286.85" r="5" fill="hsl(304, 80%, 65%)" />
<circle cx="317.53" cy="157.72" r="6" fill="hsl(312, 80%, 65%)" />
<circle cx="277.06" cy="370.25" r="2" fill="hsl(320, 80%, 65%)" />
<circle cx="163.12" cy="185.85" r="3" fill="hsl(328, 80%, 65%)" />
<circle cx="372.09" cy="244.97" r="4" fill="hsl(336, 80%, 65%)" />
<circle cx="177.70" cy="342.71" r="5" fill="hsl(344, 80%, 65%)" />
<circle cx="255.16" cy="138.96" r="6" fill="hsl(352, 80%, 65%)" />
<circle cx="335.83" cy="341.90" r="2" fill="hsl(0, 80%, 65%)" />
<circle cx="138.90" cy="246.57" r="3" fill="hsl(8, 80%, 65%)" />
<circle cx="348.89" cy="183.72" r="4" fill="hsl(16, 80%, 65%)" />
<circle cx="236.30" cy="372.26" r="5" fill="hsl(24, 80%, 65%)" />
<circle cx="191.88" cy="156.79" r="6" fill="hsl(32, 80%, 65%)" />
<circle cx="370.51" cy="285.90" r="2" fill="hsl(40, 80%, 65%)" />
<circle cx="151.18" cy="311.40" r="3" fill="hsl(48, 80%, 65%)" />
<circle cx="295.94" cy="144.14" r="4" fill="hsl(56, 80%, 65%)" />
<circle cx="302.19" cy="365.66" r="5" fill="hsl(64, 80%, 65%)" />
<circle cx="147.67" cy="206.25" r="6" fill="hsl(72, 80%, 65%)" />
<circle cx="369.68" cy="219.44" r="2" fill="hsl(80, 80%, 65%)" />
<circle cx="196.76" cy="359.93" r="3" fill="hsl(88, 80%, 65%)" />
</svg>
