<svg xmlns="http://www.w3.org/2000/svg" width="512" height="512" viewBox="0 0 512 512">
<rect width="100%" height="100%" fill="#0b1020"/>
<circle cx="409" cy="75" r="42" fill="#f8f3c9" opacity="0.95" />
<circle cx="355.0" cy="37.0" r="2.5" fill="white" />
<circle cx="345.0" cy="126.0" r="3.2" fill="white" />
<circle cx="481.0" cy="170.0" r="2.2" fill="white" />
<circle cx="287.0" cy="118.0" r="1.9" fill="white" />
<circle cx="478.0" cy="178.0" r="2.0" fill="white" />
<circle cx="150.0" cy="159.0" r="1.6" fill="white" />
<path d="M 20 430 C 120 425, 167 441, 295 431 S 450 402, 512 432" stroke="#5dade2" stroke-width="6" fill="none" opacity="0.85" />
<line x1="0" y1="391" x2="512" y2="391" stroke="#445566" stroke-width="4" />
<polygon points="218,365 258,305 298,325 318,295 338,315 350,355 318,377 268,381" fill="#1e1e1e" />
<polygon points="293,305 306,283 316,307" fill="#1e1e1e" />
<line x1="348" y1="350" x2="378" y2="325" stroke="#1e1e1e" stroke-width="6" />
</svg>
