<svg xmlns="http://www.w3.org/2000/svg" width="512" height="512" viewBox="0 0 512 512">
<rect width="100%" height="100%" fill="#0b1020"/>
<circle cx="355" cy="104" r="48" fill="#f8f3c9" opacity="0.95" />
<circle cx="74.0" cy="124.0" r="1.6" fill="white" />
<circle cx="484.0" cy="24.0" r="1.6" fill="white" />
<circle cx="398.0" cy="38.0" r="3.3" fill="white" />
<circle cx="368.0" cy="47.0" r="3.4" fill="white" />
<circle cx="328.0" cy="138.0" r="3.2" fill="white" />
<circle cx="263.0" cy="143.0" r="1.7" fill="white" />
<circle cx="294.0" cy="131.0" r="2.2" fill="white" />
<circle cx="409.0" cy="112.0" r="3.4" fill="white" />
<circle cx="380.0" cy="68.0" r="1.8" fill="white" />
<circle cx="98.0" cy="149.0" r="2.5" fill="white" />
<circle cx="169.0" cy="57.0" r="2.3" fill="white" />
<circle cx="34.0" cy="152.0" r="3.0" fill="white" />
<path d="M 20 430 C 127 418, 178 457, 295 438 S 450 390, 512 420" stroke="#5dade2" stroke-width="8" fill="none" opacity="0.85" />
<line x1="0" y1="385" x2="512" y2="385" stroke="#445566" stroke-width="3" />
<polygon points="212,358 252,298 292,318 312,288 332,308 344,348 312,370 262,374" fill="#1e1e1e" />
<polygon points="287,298 300,276 310,300" fill="#1e1e1e" />
<line x1="342" y1="343" x2="372" y2="318" stroke="#1e1e1e" stroke-width="6" />
</svg>
