<svg xmlns="http://www.w3.org/2000/svg" width="512" height="512" viewBox="0 0 512 512">
<rect width="100%" height="100%" fill="#0b1020"/>
<circle cx="434" cy="136" r="43" fill="#f8f3c9" opacity="0.95" />
<circle cx="292.0" cy="159.0" r="2.8" fill="white" />
<circle cx="402.0" cy="45.0" r="1.6" fill="white" />
<circle cx="281.0" cy="76.0" r="3.2" fill="white" />
<circle cx="176.0" cy="80.0" r="3.2" fill="white" />
<circle cx="313.0" cy="170.0" r="2.9" fill="white" />
<circle cx="172.0" cy="98.0" r="2.0" fill="white" />
<circle cx="142.0" cy="46.0" r="1.9" fill="white" />
<path d="M 20 430 C 115 417, 186 453, 293 424 S 450 403, 512 433" stroke="#5dade2" stroke-width="8" fill="none" opacity="0.85" />
<line x1="0" y1="397" x2="512" y2="397" stroke="#445566" stroke-width="3" />
<polygon points="181,358 221,298 261,318 281,288 301,308 313,348 281,370 231,374" fill="#1e1e1e" />
<polygon points="256,298 269,276 279,300" fill="#1e1e1e" />
<line x1="311" y1="343" x2="341" y2="318" stroke="#1e1e1e" stroke-width="6" />
</svg>
