<svg xmlns="http://www.w3.org/2000/svg" width="512" height="512" viewBox="0 0 512 512">
<rect width="100%" height="100%" fill="#0b1020"/>
<circle cx="361" cy="95" r="40" fill="#f8f3c9" opacity="0.95" />
<circle cx="358.0" cy="102.0" r="1.5" fill="white" />
<circle cx="312.0" cy="163.0" r="2.6" fill="white" />
<circle cx="260.0" cy="72.0" r="3.3" fill="white" />
<circle cx="308.0" cy="38.0" r="2.0" fill="white" />
<circle cx="369.0" cy="69.0" r="2.2" fill="white" />
<path d="M 20 430 C 103 423, 185 440, 310 434 S 450 380, 512 410" stroke="#5dade2" stroke-width="8" fill="none" opacity="0.85" />
<line x1="0" y1="395" x2="512" y2="395" stroke="#445566" stroke-width="2" />
<polygon points="172,356 212,296 252,316 272,286 292,306 304,346 272,368 222,372" fill="#1e1e1e" />
<polygon points="247,296 260,274 270,298" fill="#1e1e1e" />
<line x1="302" y1="341" x2="332" y2="316" stroke="#1e1e1e" stroke-width="6" />
</svg>
