<svg xmlns="http://www.w3.org/2000/svg" width="512" height="512" viewBox="0 0 512 512">
<rect width="100%" height="100%" fill="#0b1020"/>
<circle cx="460" cy="113" r="53" fill="#f8f3c9" opacity="0.95" />
<circle cx="296.0" cy="42.0" r="2.3" fill="white" />
<circle cx="464.0" cy="54.0" r="2.1" fill="white" />
<circle cx="151.0" cy="28.0" r="1.9" fill="white" />
<circle cx="40.0" cy="132.0" r="1.6" fill="white" />
<circle cx="478.0" cy="48.0" r="2.2" fill="white" />
<circle cx="35.0" cy="54.0" r="1.6" fill="white" />
<path d="M 20 430 C 123 412, 181 455, 282 424 S 450 377, 512 407" stroke="#5dade2" stroke-width="7" fill="none" opacity="0.85" />
<line x1="0" y1="413" x2="512" y2="413" stroke="#445566" stroke-width="2" />
<polygon points="177,363 217,303 257,323 277,293 297,313 309,353 277,375 227,379" fill="#1e1e1e" />
<polygon points="252,303 265,281 275,305" fill="#1e1e1e" />
<line x1="307" y1="348" x2="337" y2="323" stroke="#1e1e1e" stroke-width="6" />
</svg>
