<svg xmlns="http://www.w3.org/2000/svg" width="512" height="512" viewBox="0 0 512 512">
<rect width="100%" height="100%" fill="#0b1020"/>
<circle cx="419" cy="125" r="46" fill="#f8f3c9" opacity="0.95" />
<circle cx="307.0" cy="37.0" r="3.4" fill="white" />
<circle cx="472.0" cy="117.0" r="2.2" fill="white" />
<circle cx="412.0" cy="74.0" r="2.4" fill="white" />
<circle cx="488.0" cy="104.0" r="1.6" fill="white" />
<circle cx="355.0" cy="39.0" r="2.7" fill="white" />
<circle cx="212.0" cy="78.0" r="2.1" fill="white" />
<circle cx="131.0" cy="69.0" r="3.4" fill="white" />
<circle cx="21.0" cy="56.0" r="2.8" fill="white" />
<circle cx="218.0" cy="138.0" r="3.1" fill="white" />
<circle cx="224.0" cy="122.0" r="3.0" fill="white" />
<circle cx="459.0" cy="101.0" r="2.0" fill="white" />
<circle cx="462.0" cy="24.0" r="2.3" fill="white" />
<circle cx="148.0" cy="40.0" r="1.6" fill="white" />
<path d="M 20 430 C 110 420, 190 447, 311 438 S 450 384, 512 414" stroke="#5dade2" stroke-width="7" fill="none" opacity="0.85" />
<line x1="0" y1="389" x2="512" y2="389" stroke="#445566" stroke-width="4" />
<polygon points="160,358 200,298 240,318 260,288 280,308 292,348 260,370 210,374" fill="#1e1e1e" />
<polygon points="235,298 248,276 258,300" fill="#1e1e1e" />
<line x1="290" y1="343" x2="320" y2="318" stroke="#1e1e1e" stroke-width="6" />
</svg>
