<svg xmlns="http://www.w3.org/2000/svg" width="512" height="512" viewBox="0 0 512 512">
<rect width="100%" height="100%" fill="#0b1020"/>
<circle cx="417" cy="82" r="55" fill="#f8f3c9" opacity="0.95" />
<circle cx="209.0" cy="49.0" r="2.4" fill="white" />
<circle cx="188.0" cy="65.0" r="1.5" fill="white" />
<circle cx="402.0" cy="61.0" r="3.1" fill="white" />
<circle cx="106.0" cy="83.0" r="2.8" fill="white" />
<circle cx="295.0" cy="40.0" r="2.9" fill="white" />
<circle cx="452.0" cy="98.0" r="2.7" fill="white" />
<circle cx="348.0" cy="164.0" r="3.1" fill="white" />
<circle cx="60.0" cy="20.0" r="2.8" fill="white" />
<circle cx="199.0" cy="142.0" r="2.3" fill="white" />
<circle cx="88.0" cy="48.0" r="2.5" fill="white" />
<circle cx="384.0" cy="101.0" r="1.6" fill="white" />
<circle cx="245.0" cy="21.0" r="1.9" fill="white" />
<circle cx="86.0" cy="179.0" r="2.5" fill="white" />
<circle cx="369.0" cy="59.0" r="2.6" fill="white" />
<circle cx="470.0" cy="92.0" r="1.9" fill="white" />
<path d="M 20 430 C 129 412, 163 459, 283 420 S 450 382, 512 412" stroke="#5dade2" stroke-width="8" fill="none" opacity="0.85" />
<line x1="0" y1="389" x2="512" y2="389" stroke="#445566" stroke-width="2" />
<polygon points="208,352 248,292 288,312 308,282 328,302 340,342 308,364 258,368" fill="#1e1e1e" />
<polygon points="283,292 296,270 306,294" fill="#1e1e1e" />
<line x1="338" y1="337" x2="368" y2="312" stroke="#1e1e1e" stroke-width="6" />
</svg>
