<svg xmlns="http://www.w3.org/2000/svg" width="512" height="512" viewBox="0 0 512 512">
<rect width="100%" height="100%" fill="#0b1020"/>
<circle cx="443" cy="115" r="55" fill="#f8f3c9" opacity="0.95" />
<circle cx="75.0" cy="54.0" r="3.4" fill="white" />
<circle cx="23.0" cy="157.0" r="3.2" fill="white" />
<circle cx="434.0" cy="70.0" r="3.5" fill="white" />
<circle cx="165.0" cy="110.0" r="2.9" fill="white" />
<circle cx="234.0" cy="62.0" r="2.6" fill="white" />
<circle cx="378.0" cy="91.0" r="2.0" fill="white" />
<circle cx="479.0" cy="128.0" r="3.0" fill="white" />
<circle cx="310.0" cy="98.0" r="3.4" fill="white" />
<circle cx="274.0" cy="150.0" r="2.2" fill="white" />
<circle cx="390.0" cy="129.0" r="1.6" fill="white" />
<circle cx="304.0" cy="64.0" r="2.5" fill="white" />
<circle cx="143.0" cy="80.0" r="3.1" fill="white" />
<circle cx="80.0" cy="112.0" r="1.6" fill="white" />
<circle cx="286.0" cy="101.0" r="2.0" fill="white" />
<circle cx="132.0" cy="136.0" r="2.7" fill="white" />
<path d="M 20 430 C 108 423, 181 451, 304 432 S 450 405, 512 435" stroke="#5dade2" stroke-width="5" fill="none" opacity="0.85" />
<line x1="0" y1="385" x2="512" y2="385" stroke="#445566" stroke-width="3" />
<polygon points="213,354 253,294 293,314 313,284 333,304 345,344 313,366 263,370" fill="#1e1e1e" />
<polygon points="288,294 301,272 311,296" fill="#1e1e1e" />
<line x1="343" y1="339" x2="373" y2="314" stroke="#1e1e1e" stroke-width="6" />
</svg>
