<svg xmlns="http://www.w3.org/2000/svg" width="512" height="512" viewBox="0 0 512 512">
<rect width="100%" height="100%" fill="#0b1020"/>
<circle cx="343" cy="67" r="47" fill="#f8f3c9" opacity="0.95" />
<circle cx="86.0" cy="127.0" r="2.8" fill="white" />
<circle cx="377.0" cy="104.0" r="2.2" fill="white" />
<circle cx="292.0" cy="128.0" r="1.9" fill="white" />
<circle cx="285.0" cy="60.0" r="1.5" fill="white" />
<circle cx="295.0" cy="51.0" r="2.5" fill="white" />
<circle cx="126.0" cy="151.0" r="1.6" fill="white" />
<circle cx="75.0" cy="33.0" r="2.5" fill="white" />
<circle cx="82.0" cy="44.0" r="2.7" fill="white" />
<circle cx="81.0" cy="107.0" r="1.7" fill="white" />
<circle cx="265.0" cy="106.0" r="2.1" fill="white" />
<path d="M 20 430 C 132 413, 175 447, 308 437 S 450 398, 512 428" stroke="#5dade2" stroke-width="5" fill="none" opacity="0.85" />
<line x1="0" y1="399" x2="512" y2="399" stroke="#445566" stroke-width="2" />
<polygon points="176,353 216,293 256,313 276,283 296,303 308,343 276,365 226,369" fill="#1e1e1e" />
<polygon points="251,293 264,271 274,295" fill="#1e1e1e" />
<line x1="306" y1="338" x2="336" y2="313" stroke="#1e1e1e" stroke-width="6" />
</svg>
