<svg xmlns="http://www.w3.org/2000/svg" width="512" height="512" viewBox="0 0 512 512">
<rect width="100%" height="100%" fill="#0b1020"/>
<circle cx="410" cy="82" r="44" fill="#f8f3c9" opacity="0.95" />
<circle cx="248.0" cy="34.0" r="2.9" fill="white" />
<circle cx="171.0" cy="41.0" r="2.8" fill="white" />
<circle cx="69.0" cy="178.0" r="2.7" fill="white" />
<circle cx="59.0" cy="137.0" r="2.5" fill="white" />
<circle cx="387.0" cy="98.0" r="3.2" fill="white" />
<circle cx="340.0" cy="110.0" r="1.9" fill="white" />
<circle cx="133.0" cy="154.0" r="2.4" fill="white" />
<circle cx="217.0" cy="80.0" r="3.1" fill="white" />
<circle cx="349.0" cy="45.0" r="2.5" fill="white" />
<path d="M 20 430 C 128 415, 169 459, 280 423 S 450 395, 512 425" stroke="#5dade2" stroke-width="5" fill="none" opacity="0.85" />
<line x1="0" y1="391" x2="512" y2="391" stroke="#445566" stroke-width="3" />
<polygon points="150,350 190,290 230,310 250,280 270,300 282,340 250,362 200,366" fill="#1e1e1e" />
<polygon points="225,290 238,268 248,292" fill="#1e1e1e" />
<line x1="280" y1="335" x2="310" y2="310" stroke="#1e1e1e" stroke-width="6" />
</svg>
