<svg xmlns="http://www.w3.org/2000/svg" width="512" height="512" viewBox="0 0 512 512">
<rect width="100%" height="100%" fill="#0b1020"/>
<circle cx="458" cy="71" r="49" fill="#f8f3c9" opacity="0.95" />
<circle cx="345.0" cy="136.0" r="2.7" fill="white" />
<circle cx="160.0" cy="134.0" r="2.9" fill="white" />
<circle cx="22.0" cy="20.0" r="3.3" fill="white" />
<circle cx="482.0" cy="177.0" r="2.0" fill="white" />
<circle cx="78.0" cy="25.0" r="3.4" fill="white" />
<circle cx="118.0" cy="99.0" r="2.1" fill="white" />
<circle cx="246.0" cy="35.0" r="2.2" fill="white" />
<circle cx="88.0" cy="50.0" r="1.6" fill="white" />
<circle cx="251.0" cy="107.0" r="2.2" fill="white" />
<circle cx="476.0" cy="35.0" r="1.6" fill="white" />
<circle cx="274.0" cy="32.0" r="2.1" fill="white" />
<circle cx="251.0" cy="173.0" r="2.5" fill="white" />
<path d="M 20 430 C 106 426, 198 454, 301 422 S 450 378, 512 408" stroke="#5dade2" stroke-width="7" fill="none" opacity="0.85" />
<line x1="0" y1="411" x2="512" y2="411" stroke="#445566" stroke-width="2" />
<polygon points="204,360 244,300 284,320 304,290 324,310 336,350 304,372 254,376" fill="#1e1e1e" />
<polygon points="279,300 292,278 302,302" fill="#1e1e1e" />
<line x1="334" y1="345" x2="364" y2="320" stroke="#1e1e1e" stroke-width="6" />
</svg>
