<svg xmlns="http://www.w3.org/2000/svg" width="512" height="512" viewBox="0 0 512 512">
<rect width="100%" height="100%" fill="#0b1020"/>
<circle cx="445" cy="81" r="40" fill="#f8f3c9" opacity="0.95" />
<circle cx="86.0" cy="61.0" r="1.7" fill="white" />
<circle cx="232.0" cy="94.0" r="1.7" fill="white" />
<circle cx="458.0" cy="66.0" r="1.6" fill="white" />
<circle cx="130.0" cy="95.0" r="2.1" fill="white" />
<circle cx="172.0" cy="25.0" r="2.3" fill="white" />
<circle cx="69.0" cy="59.0" r="1.9" fill="white" />
<circle cx="50.0" cy="117.0" r="2.9" fill="white" />
<circle cx="113.0" cy="83.0" r="1.8" fill="white" />
<circle cx="128.0" cy="100.0" r="3.3" fill="white" />
<circle cx="117.0" cy="137.0" r="1.8" fill="white" />
<circle cx="286.0" cy="125.0" r="2.2" fill="white" />
<circle cx="297.0" cy="59.0" r="2.3" fill="white" />
<circle cx="56.0" cy="130.0" r="3.2" fill="white" />
<circle cx="272.0" cy="32.0" r="2.8" fill="white" />
<path d="M 20 430 C 102 422, 174 455, 308 439 S 450 403, 512 433" stroke="#5dade2" stroke-width="7" fill="none" opacity="0.85" />
<line x1="0" y1="406" x2="512" y2="406" stroke="#445566" stroke-width="3" />
<polygon points="183,363 223,303 263,323 283,293 303,313 315,353 283,375 233,379" fill="#1e1e1e" />
<polygon points="258,303 271,281 281,305" fill="#1e1e1e" />
<line x1="313" y1="348" x2="343" y2="323" stroke="#1e1e1e" stroke-width="6" />
</svg>
