<svg xmlns="http://www.w3.org/2000/svg" width="512" height="512" viewBox="0 0 512 512">
<rect width="100%" height="100%" fill="#0b1020"/>
<circle cx="455" cy="140" r="47" fill="#f8f3c9" opacity="0.95" />
<circle cx="290.0" cy="126.0" r="2.5" fill="white" />
<circle cx="333.0" cy="177.0" r="3.0" fill="white" />
<circle cx="354.0" cy="109.0" r="1.7" fill="white" />
<circle cx="397.0" cy="109.0" r="1.6" fill="white" />
<circle cx="304.0" cy="98.0" r="3.1" fill="white" />
<circle cx="340.0" cy="87.0" r="1.5" fill="white" />
<path d="M 20 430 C 140 428, 181 442, 308 435 S 450 399, 512 429" stroke="#5dade2" stroke-width="6" fill="none" opacity="0.85" />
<line x1="0" y1="403" x2="512" y2="403" stroke="#445566" stroke-width="4" />
<polygon points="157,350 197,290 237,310 257,280 277,300 289,340 257,362 207,366" fill="#1e1e1e" />
<polygon points="232,290 245,268 255,292" fill="#1e1e1e" />
<line x1="287" y1="335" x2="317" y2="310" stroke="#1e1e1e" stroke-width="6" />
</svg>
