<svg xmlns="http://www.w3.org/2000/svg" width="512" height="512" viewBox="0 0 512 512">
<rect width="100%" height="100%" fill="#0b1020"/>
<circle cx="348" cy="134" r="40" fill="#f8f3c9" opacity="0.95" />
<circle cx="332.0" cy="82.0" r="3.4" fill="white" />
<circle cx="69.0" cy="57.0" r="2.5" fill="white" />
<circle cx="363.0" cy="124.0" r="2.2" fill="white" />
<circle cx="122.0" cy="147.0" r="2.3" fill="white" />
<circle cx="51.0" cy="57.0" r="3.1" fill="white" />
<circle cx="454.0" cy="88.0" r="3.3" fill="white" />
<circle cx="282.0" cy="21.0" r="2.1" fill="white" />
<circle cx="225.0" cy="83.0" r="2.9" fill="white" />
<circle cx="455.0" cy="93.0" r="3.2" fill="white" />
<circle cx="80.0" cy="119.0" r="2.9" fill="white" />
<circle cx="183.0" cy="85.0" r="1.6" fill="white" />
<circle cx="360.0" cy="29.0" r="2.9" fill="white" />
<circle cx="270.0" cy="143.0" r="1.7" fill="white" />
<circle cx="354.0" cy="141.0" r="2.6" fill="white" />
<path d="M 20 430 C 138 411, 182 449, 296 429 S 450 375, 512 405" stroke="#5dade2" stroke-width="7" fill="none" opacity="0.85" />
<line x1="0" y1="402" x2="512" y2="402" stroke="#445566" stroke-width="3" />
<polygon points="167,354 207,294 247,314 267,284 287,304 299,344 267,366 217,370" fill="#1e1e1e" />
<polygon points="242,294 255,272 265,296" fill="#1e1e1e" />
<line x1="297" y1="339" x2="327" y2="314" stroke="#1e1e1e" stroke-width="6" />
</svg>
