<svg xmlns="http://www.w3.org/2000/svg" width="512" height="512" viewBox="0 0 512 512">
<rect width="100%" height="100%" fill="#0b1020"/>
<circle cx="453" cy="76" r="42" fill="#f8f3c9" opacity="0.95" />
<circle cx="287.0" cy="132.0" r="2.7" fill="white" />
<circle cx="366.0" cy="32.0" r="1.6" fill="white" />
<circle cx="125.0" cy="179.0" r="3.2" fill="white" />
<circle cx="308.0" cy="29.0" r="2.1" fill="white" />
<circle cx="473.0" cy="62.0" r="3.2" fill="white" />
<circle cx="178.0" cy="88.0" r="2.9" fill="white" />
<path d="M 20 430 C 106 419, 199 454, 312 440 S 450 377, 512 407" stroke="#5dade2" stroke-width="7" fill="none" opacity="0.85" />
<line x1="0" y1="394" x2="512" y2="394" stroke="#445566" stroke-width="3" />
<polygon points="146,359 186,299 226,319 246,289 266,309 278,349 246,371 196,375" fill="#1e1e1e" />
<polygon points="221,299 234,277 244,301" fill="#1e1e1e" />
<line x1="276" y1="344" x2="306" y2="319" stroke="#1e1e1e" stroke-width="6" />
</svg>
