<svg xmlns="http://www.w3.org/2000/svg" width="512" height="512" viewBox="0 0 512 512">
<rect width="100%" height="100%" fill="#0b1020"/>
<circle cx="356" cy="107" r="44" fill="#f8f3c9" opacity="0.95" />
<circle cx="247.0" cy="62.0" r="1.7" fill="white" />
<circle cx="21.0" cy="82.0" r="2.3" fill="white" />
<circle cx="93.0" cy="180.0" r="2.7" fill="white" />
<circle cx="87.0" cy="26.0" r="1.8" fill="white" />
<circle cx="486.0" cy="133.0" r="2.7" fill="white" />
<circle cx="253.0" cy="77.0" r="3.0" fill="white" />
<circle cx="106.0" cy="85.0" r="3.1" fill="white" />
<circle cx="467.0" cy="114.0" r="3.1" fill="white" />
<circle cx="446.0" cy="144.0" r="1.6" fill="white" />
<circle cx="319.0" cy="159.0" r="2.8" fill="white" />
<circle cx="381.0" cy="66.0" r="2.5" fill="white" />
<circle cx="339.0" cy="63.0" r="3.2" fill="white" />
<circle cx="452.0" cy="54.0" r="2.2" fill="white" />
<circle cx="163.0" cy="175.0" r="2.2" fill="white" />
<circle cx="394.0" cy="24.0" r="2.8" fill="white" />
<path d="M 20 430 C 134 429, 177 458, 315 440 S 450 381, 512 411" stroke="#5dade2" stroke-width="5" fill="none" opacity="0.85" />
<line x1="0" y1="389" x2="512" y2="389" stroke="#445566" stroke-width="3" />
<polygon points="140,353 180,293 220,313 240,283 260,303 272,343 240,365 190,369" fill="#1e1e1e" />
<polygon points="215,293 228,271 238,295" fill="#1e1e1e" />
<line x1="270" y1="338" x2="300" y2="313" stroke="#1e1e1e" stroke-width="6" />
</svg>
