<svg xmlns="http://www.w3.org/2000/svg" width="512" height="512" viewBox="0 0 512 512">
<rect width="100%" height="100%" fill="#0b1020"/>
<circle cx="440" cy="123" r="53" fill="#f8f3c9" opacity="0.95" />
<circle cx="481.0" cy="84.0" r="1.6" fill="white" />
<circle cx="141.0" cy="156.0" r="2.6" fill="white" />
<circle cx="56.0" cy="95.0" r="1.7" fill="white" />
<circle cx="161.0" cy="41.0" r="3.2" fill="white" />
<circle cx="359.0" cy="86.0" r="3.5" fill="white" />
<circle cx="167.0" cy="175.0" r="3.3" fill="white" />
<path d="M 20 430 C 113 421, 165 441, 309 422 S 450 384, 512 414" stroke="#5dade2" stroke-width="7" fill="none" opacity="0.85" />
<line x1="0" y1="410" x2="512" y2="410" stroke="#445566" stroke-width="3" />
<polygon points="196,363 236,303 276,323 296,293 316,313 328,353 296,375 246,379" fill="#1e1e1e" />
<polygon points="271,303 284,281 294,305" fill="#1e1e1e" />
<line x1="326" y1="348" x2="356" y2="323" stroke="#1e1e1e" stroke-width="6" />
</svg>
