<svg xmlns="http://www.w3.org/2000/svg" width="512" height="512" viewBox="0 0 512 512">
<rect width="100%" height="100%" fill="#0b1020"/>
<circle cx="386" cy="118" r="51" fill="#f8f3c9" opacity="0.95" />
<circle cx="98.0" cy="53.0" r="3.0" fill="white" />
<circle cx="229.0" cy="51.0" r="2.9" fill="white" />
<circle cx="253.0" cy="55.0" r="2.4" fill="white" />
<circle cx="357.0" cy="147.0" r="1.7" fill="white" />
<circle cx="135.0" cy="150.0" r="3.0" fill="white" />
<circle cx="169.0" cy="28.0" r="2.6" fill="white" />
<circle cx="487.0" cy="148.0" r="2.9" fill="white" />
<circle cx="378.0" cy="25.0" r="2.1" fill="white" />
<circle cx="51.0" cy="29.0" r="2.3" fill="white" />
<path d="M 20 430 C 114 423, 170 448, 315 435 S 450 388, 512 418" stroke="#5dade2" stroke-width="6" fill="none" opacity="0.85" />
<line x1="0" y1="404" x2="512" y2="404" stroke="#445566" stroke-width="4" />
<polygon points="179,361 219,301 259,321 279,291 299,311 311,351 279,373 229,377" fill="#1e1e1e" />
<polygon points="254,301 267,279 277,303" fill="#1e1e1e" />
<line x1="309" y1="346" x2="339" y2="321" stroke="#1e1e1e" stroke-width="6" />
</svg>
