<svg xmlns="http://www.w3.org/2000/svg" width="512" height="512" viewBox="0 0 512 512">
<rect width="100%" height="100%" fill="#0b1020"/>
<circle cx="404" cy="97" r="44" fill="#f8f3c9" opacity="0.95" />
<circle cx="449.0" cy="139.0" r="2.2" fill="white" />
<circle cx="80.0" cy="174.0" r="1.8" fill="white" />
<circle cx="378.0" cy="98.0" r="2.7" fill="white" />
<circle cx="369.0" cy="88.0" r="3.4" fill="white" />
<circle cx="52.0" cy="127.0" r="2.9" fill="white" />
<circle cx="138.0" cy="132.0" r="3.3" fill="white" />
<circle cx="192.0" cy="171.0" r="3.1" fill="white" />
<circle cx="286.0" cy="177.0" r="1.6" fill="white" />
<circle cx="309.0" cy="69.0" r="2.5" fill="white" />
<circle cx="262.0" cy="78.0" r="1.6" fill="white" />
<circle cx="447.0" cy="87.0" r="2.5" fill="white" />
<circle cx="67.0" cy="102.0" r="2.9" fill="white" />
<circle cx="41.0" cy="109.0" r="2.9" fill="white" />
<circle cx="318.0" cy="67.0" r="2.7" fill="white" />
<path d="M 20 430 C 134 421, 166 440, 292 428 S 450 397, 512 427" stroke="#5dade2" stroke-width="5" fill="none" opacity="0.85" />
<line x1="0" y1="406" x2="512" y2="406" stroke="#445566" stroke-width="2" />
<polygon points="205,356 245,296 285,316 305,286 325,306 337,346 305,368 255,372" fill="#1e1e1e" />
<polygon points="280,296 293,274 303,298" fill="#1e1e1e" />
<line x1="335" y1="341" x2="365" y2="316" stroke="#1e1e1e" stroke-width="6" />
</svg>
