<svg xmlns="http://www.w3.org/2000/svg" width="512" height="512" viewBox="0 0 512 512">
<rect width="100%" height="100%" fill="#0b1020"/>
<circle cx="396" cy="122" r="40" fill="#f8f3c9" opacity="0.95" />
<circle cx="191.0" cy="179.0" r="1.6" fill="white" />
<circle cx="159.0" cy="135.0" r="1.7" fill="white" />
<circle cx="75.0" cy="78.0" r="1.8" fill="white" />
<circle cx="340.0" cy="101.0" r="3.2" fill="white" />
<circle cx="154.0" cy="149.0" r="2.9" fill="white" />
<circle cx="45.0" cy="152.0" r="3.3" fill="white" />
<circle cx="416.0" cy="104.0" r="3.1" fill="white" />
<circle cx="255.0" cy="160.0" r="1.9" fill="white" />
<circle cx="370.0" cy="138.0" r="2.3" fill="white" />
<circle cx="216.0" cy="52.0" r="2.8" fill="white" />
<circle cx="132.0" cy="116.0" r="2.1" fill="white" />
<circle cx="324.0" cy="118.0" r="1.8" fill="white" />
<circle cx="235.0" cy="82.0" r="1.5" fill="white" />
<circle cx="483.0" cy="128.0" r="2.6" fill="white" />
<circle cx="81.0" cy="47.0" r="2.6" fill="white" />
<path d="M 20 430 C 133 414, 188 455, 280 427 S 450 398, 512 428" stroke="#5dade2" stroke-width="7" fill="none" opacity="0.85" />
<line x1="0" y1="412" x2="512" y2="412" stroke="#445566" stroke-width="3" />
<polygon points="203,360 243,300 283,320 303,290 323,310 335,350 303,372 253,376" fill="#1e1e1e" />
<polygon points="278,300 291,278 301,302" fill="#1e1e1e" />
<line x1="333" y1="345" x2="363" y2="320" stroke="#1e1e1e" stroke-width="6" />
</svg>
