<svg xmlns="http://www.w3.org/2000/svg" width="512" height="512" viewBox="0 0 512 512">
<rect width="100%" height="100%" fill="black"/>
<polyline points="262.00,256.00 262.45,257.76 262.36,259.75 261.63,261.78 260.24,263.66 258.24,265.18 255.72,266.13 252.87,266.36 249.88,265.76 247.02,264.27 244.55,261.93 242.72,258.85 241.75,255.22 241.80,251.28 242.97,247.33 245.26,243.68 248.58,240.67 252.75,238.58 257.51,237.65 262.52,238.05 267.41,239.84 271.80,242.97 275.30,247.31 277.59,252.58 278.41,258.46 277.61,264.53 275.16,270.33 271.13,275.41 265.76,279.34 259.36,281.77 252.36,282.43 245.26,281.17 238.59,278.00 232.85,273.05 228.54,266.61 226.03,259.07 225.60,250.96 227.37,242.85 231.31,235.34 237.23,229.00 244.77,224.36 253.44,221.83 262.65,221.69 271.76,224.03 280.07,228.79 286.96,235.71 291.87,244.36 294.36,254.18 294.15,264.49 291.19,274.55 285.56,283.63 277.61,291.03 267.82,296.14 256.86,298.53 245.46,297.92 234.46,294.27 224.66,287.74 216.82,278.72 211.55,267.78 209.33,255.66 210.40,243.20 214.79,231.30 222.27,220.82 232.39,212.58 244.49,207.22 257.76,205.22 271.27,206.82 284.04,211.99 295.15,220.46 303.74,231.71 309.12,244.99 310.84,259.40 308.66,273.94 302.65,287.55 293.15,299.24 280.75,308.12 266.28,313.48 250.73,314.84 235.19,312.03 220.77,305.13 208.55,294.56 199.44,280.99 194.17,265.32 193.22,248.64 196.73,232.12 204.56,216.94 216.23,204.23 231.00,194.95 247.87,189.84 265.67,189.35 283.15,193.61 299.04,202.42 312.19,215.23 321.58,231.22 326.48,249.29 326.44,268.19 321.37,286.60 311.54,303.17 297.55,316.69 280.33,326.14 261.06,330.76 241.07,330.13 221.77,324.20 204.56,313.30 190.72,298.12 181.28,279.65 177.00,259.18 178.27,238.12 185.11,217.96 197.13,200.17 213.54,186.05 233.26,176.68 254.93,172.80 277.04,174.79 298.02,182.59 316.35,195.75 330.68,213.42 339.92,234.41 343.33,257.27 340.58,280.40 331.76,302.16 317.41,320.98 298.47,335.46 276.21,344.51 252.17,347.40 228.04,343.82 205.53,333.94 186.28,318.37 171.71,298.13 162.92,274.59 160.62,249.39 165.07,224.29 176.06,201.08 192.89,181.45 214.45,166.84 239.26,158.37 265.62,156.72 291.66,162.11 315.52,174.25 335.48,192.37 350.06,215.26 358.15,241.35 359.09,268.84 352.71,295.79 339.37,320.26 319.93,340.49 295.69,354.98 268.32,362.62 239.72,362.79 211.90,355.36 186.87,340.79 166.43,320.00 152.09,294.41 144.96,265.76 145.63,236.07 154.15,207.42 170.00,181.87 192.16,161.28 219.12,147.16 249.03,140.61 279.79,142.17 309.23,151.83 335.24,169.01 355.92,192.56 369.76,220.90 375.67,252.05 373.16,283.85 362.30,314.04 343.77,340.45 318.80,361.17 289.09,374.66 256.69,379.87 223.89,376.35 192.99,364.25 166.23,344.33 145.54,317.92 132.47,286.83 128.02,253.21 132.61,219.43 146.00,187.88 167.34,160.82 195.20,140.23 227.67,127.63 262.49,124.01 297.22,129.72 329.38,144.45 356.67,167.24 377.11,196.57 389.16,230.41 391.88,266.41 385.00,302.05 368.90,334.77 344.62,362.24 313.82,382.45 278.61,393.89 241.44,395.66 204.95,387.55 171.71,370.03 144.13,344.24 124.21,311.95 113.45,275.38 112.69,237.09 122.08,199.77 141.07,166.07 168.38,138.44 202.16,118.88 240.08,108.86 279.48,109.18 317.58,119.90 351.67,140.38 379.30,169.25 398.43,204.53 407.65,243.78 406.19,284.25 394.08,323.09 372.07,357.52 341.63,385.07 304.86,403.71 264.29,412.05 222.77,409.41" fill="none" stroke="cyan" stroke-width="2"/>
</svg>
