<svg xmlns="http://www.w3.org/2000/svg" width="512" height="512" viewBox="0 0 512 512">
<rect width="100%" height="100%" fill="#0b1020"/>
<circle cx="433" cy="66" r="53" fill="#f8f3c9" opacity="0.95" />
<circle cx="479.0" cy="174.0" r="2.4" fill="white" />
<circle cx="446.0" cy="100.0" r="2.7" fill="white" />
<circle cx="353.0" cy="114.0" r="2.1" fill="white" />
<circle cx="327.0" cy="162.0" r="2.5" fill="white" />
<circle cx="299.0" cy="109.0" r="2.1" fill="white" />
<circle cx="231.0" cy="162.0" r="2.3" fill="white" />
<path d="M 20 430 C 101 415, 167 443, 306 427 S 450 389, 512 419" stroke="#5dade2" stroke-width="7" fill="none" opacity="0.85" />
<line x1="0" y1="402" x2="512" y2="402" stroke="#445566" stroke-width="4" />
<polygon points="181,350 221,290 261,310 281,280 301,300 313,340 281,362 231,366" fill="#1e1e1e" />
<polygon points="256,290 269,268 279,292" fill="#1e1e1e" />
<line x1="311" y1="335" x2="341" y2="310" stroke="#1e1e1e" stroke-width="6" />
</svg>
