<svg xmlns="http://www.w3.org/2000/svg" width="512" height="512" viewBox="0 0 512 512">
<rect width="100%" height="100%" fill="#0b1020"/>
<circle cx="363" cy="121" r="50" fill="#f8f3c9" opacity="0.95" />
<circle cx="151.0" cy="65.0" r="2.5" fill="white" />
<circle cx="444.0" cy="172.0" r="2.5" fill="white" />
<circle cx="344.0" cy="172.0" r="3.3" fill="white" />
<circle cx="438.0" cy="20.0" r="2.5" fill="white" />
<circle cx="400.0" cy="174.0" r="3.3" fill="white" />
<circle cx="34.0" cy="105.0" r="2.7" fill="white" />
<circle cx="426.0" cy="150.0" r="1.6" fill="white" />
<circle cx="371.0" cy="96.0" r="2.3" fill="white" />
<path d="M 20 430 C 133 412, 172 445, 300 437 S 450 395, 512 425" stroke="#5dade2" stroke-width="5" fill="none" opacity="0.85" />
<line x1="0" y1="406" x2="512" y2="406" stroke="#445566" stroke-width="2" />
<polygon points="192,358 232,298 272,318 292,288 312,308 324,348 292,370 242,374" fill="#1e1e1e" />
<polygon points="267,298 280,276 290,300" fill="#1e1e1e" />
<line x1="322" y1="343" x2="352" y2="318" stroke="#1e1e1e" stroke-width="6" />
</svg>
