<svg xmlns="http://www.w3.org/2000/svg" width="512" height="512" viewBox="0 0 512 512">
<rect width="100%" height="100%" fill="#0b1020"/>
<circle cx="342" cy="67" r="47" fill="#f8f3c9" opacity="0.95" />
<circle cx="286.0" cy="120.0" r="2.3" fill="white" />
<circle cx="466.0" cy="32.0" r="2.0" fill="white" />
<circle cx="319.0" cy="90.0" r="2.4" fill="white" />
<circle cx="373.0" cy="31.0" r="2.1" fill="white" />
<circle cx="36.0" cy="75.0" r="1.9" fill="white" />
<circle cx="344.0" cy="152.0" r="3.0" fill="white" />
<circle cx="178.0" cy="162.0" r="2.9" fill="white" />
<circle cx="170.0" cy="42.0" r="3.0" fill="white" />
<circle cx="256.0" cy="152.0" r="1.6" fill="white" />
<circle cx="429.0" cy="115.0" r="2.9" fill="white" />
<circle cx="234.0" cy="30.0" r="2.6" fill="white" />
<path d="M 20 430 C 129 428, 162 451, 299 434 S 450 380, 512 410" stroke="#5dade2" stroke-width="5" fill="none" opacity="0.85" />
<line x1="0" y1="396" x2="512" y2="396" stroke="#445566" stroke-width="2" />
<polygon points="217,361 257,301 297,321 317,291 337,311 349,351 317,373 267,377" fill="#1e1e1e" />
<polygon points="292,301 305,279 315,303" fill="#1e1e1e" />
<line x1="347" y1="346" x2="377" y2="321" stroke="#1e1e1e" stroke-width="6" />
</svg>
