<svg xmlns="http://www.w3.org/2000/svg" width="512" height="512" viewBox="0 0 512 512">
<rect width="100%" height="100%" fill="#0b1020"/>
<circle cx="412" cy="103" r="50" fill="#f8f3c9" opacity="0.95" />
<circle cx="273.0" cy="40.0" r="3.3" fill="white" />
<circle cx="121.0" cy="140.0" r="2.5" fill="white" />
<circle cx="252.0" cy="59.0" r="3.1" fill="white" />
<circle cx="322.0" cy="135.0" r="3.2" fill="white" />
<circle cx="81.0" cy="175.0" r="2.9" fill="white" />
<circle cx="419.0" cy="65.0" r="1.6" fill="white" />
<circle cx="427.0" cy="56.0" r="3.1" fill="white" />
<circle cx="264.0" cy="100.0" r="2.0" fill="white" />
<path d="M 20 430 C 140 421, 185 442, 292 421 S 450 377, 512 407" stroke="#5dade2" stroke-width="5" fill="none" opacity="0.85" />
<line x1="0" y1="397" x2="512" y2="397" stroke="#445566" stroke-width="3" />
<polygon points="173,351 213,291 253,311 273,281 293,301 305,341 273,363 223,367" fill="#1e1e1e" />
<polygon points="248,291 261,269 271,293" fill="#1e1e1e" />
<line x1="303" y1="336" x2="333" y2="311" stroke="#1e1e1e" stroke-width="6" />
</svg>
