<svg xmlns="http://www.w3.org/2000/svg" width="512" height="512" viewBox="0 0 512 512">
<rect width="100%" height="100%" fill="#0b1020"/>
<circle cx="427" cy="98" r="42" fill="#f8f3c9" opacity="0.95" />
<circle cx="202.0" cy="31.0" r="1.9" fill="white" />
<circle cx="178.0" cy="69.0" r="1.5" fill="white" />
<circle cx="250.0" cy="170.0" r="2.0" fill="white" />
<circle cx="208.0" cy="156.0" r="2.6" fill="white" />
<circle cx="406.0" cy="59.0" r="2.2" fill="white" />
<circle cx="200.0" cy="98.0" r="2.0" fill="white" />
<circle cx="173.0" cy="117.0" r="3.1" fill="white" />
<circle cx="453.0" cy="173.0" r="2.3" fill="white" />
<circle cx="294.0" cy="100.0" r="2.8" fill="white" />
<path d="M 20 430 C 135 411, 167 460, 302 420 S 450 379, 512 409" stroke="#5dade2" stroke-width="8" fill="none" opacity="0.85" />
<line x1="0" y1="409" x2="512" y2="409" stroke="#445566" stroke-width="4" />
<polygon points="173,358 213,298 253,318 273,288 293,308 305,348 273,370 223,374" fill="#1e1e1e" />
<polygon points="248,298 261,276 271,300" fill="#1e1e1e" />
<line x1="303" y1="343" x2="333" y2="318" stroke="#1e1e1e" stroke-width="6" />
</svg>
