<svg xmlns="http://www.w3.org/2000/svg" width="512" height="512" viewBox="0 0 512 512">
<rect width="100%" height="100%" fill="#0b1020"/>
<circle cx="412" cy="113" r="53" fill="#f8f3c9" opacity="0.95" />
<circle cx="366.0" cy="48.0" r="3.2" fill="white" />
<circle cx="341.0" cy="26.0" r="1.7" fill="white" />
<circle cx="24.0" cy="112.0" r="1.5" fill="white" />
<circle cx="26.0" cy="31.0" r="2.8" fill="white" />
<circle cx="384.0" cy="93.0" r="2.7" fill="white" />
<circle cx="452.0" cy="153.0" r="1.7" fill="white" />
<circle cx="351.0" cy="28.0" r="3.3" fill="white" />
<path d="M 20 430 C 116 418, 180 459, 303 429 S 450 391, 512 421" stroke="#5dade2" stroke-width="7" fill="none" opacity="0.85" />
<line x1="0" y1="405" x2="512" y2="405" stroke="#445566" stroke-width="2" />
<polygon points="159,350 199,290 239,310 259,280 279,300 291,340 259,362 209,366" fill="#1e1e1e" />
<polygon points="234,290 247,268 257,292" fill="#1e1e1e" />
<line x1="289" y1="335" x2="319" y2="310" stroke="#1e1e1e" stroke-width="6" />
</svg>
