<svg xmlns="http://www.w3.org/2000/svg" width="512" height="512" viewBox="0 0 512 512">
<rect width="100%" height="100%" fill="#0b1020"/>
<circle cx="344" cy="83" r="51" fill="#f8f3c9" opacity="0.95" />
<circle cx="245.0" cy="69.0" r="2.9" fill="white" />
<circle cx="154.0" cy="56.0" r="2.7" fill="white" />
<circle cx="295.0" cy="41.0" r="2.9" fill="white" />
<circle cx="436.0" cy="135.0" r="3.5" fill="white" />
<circle cx="144.0" cy="117.0" r="3.3" fill="white" />
<circle cx="141.0" cy="66.0" r="3.1" fill="white" />
<circle cx="428.0" cy="24.0" r="2.1" fill="white" />
<circle cx="36.0" cy="60.0" r="2.3" fill="white" />
<circle cx="208.0" cy="33.0" r="2.0" fill="white" />
<circle cx="204.0" cy="53.0" r="3.3" fill="white" />
<circle cx="130.0" cy="141.0" r="2.3" fill="white" />
<circle cx="121.0" cy="145.0" r="1.9" fill="white" />
<circle cx="371.0" cy="165.0" r="3.3" fill="white" />
<circle cx="438.0" cy="179.0" r="2.3" fill="white" />
<path d="M 20 430 C 132 429, 191 460, 293 428 S 450 389, 512 419" stroke="#5dade2" stroke-width="6" fill="none" opacity="0.85" />
<line x1="0" y1="405" x2="512" y2="405" stroke="#445566" stroke-width="4" />
<polygon points="160,355 200,295 240,315 260,285 280,305 292,345 260,367 210,371" fill="#1e1e1e" />
<polygon points="235,295 248,273 258,297" fill="#1e1e1e" />
<line x1="290" y1="340" x2="320" y2="315" stroke="#1e1e1e" stroke-width="6" />
</svg>
