<svg xmlns="http://www.w3.org/2000/svg" width="512" height="512" viewBox="0 0 512 512">
<rect width="100%" height="100%" fill="#0b1020"/>
<circle cx="400" cy="110" r="46" fill="#f8f3c9" opacity="0.95" />
<circle cx="384.0" cy="129.0" r="2.6" fill="white" />
<circle cx="341.0" cy="27.0" r="1.9" fill="white" />
<circle cx="309.0" cy="21.0" r="2.9" fill="white" />
<circle cx="27.0" cy="58.0" r="1.6" fill="white" />
<circle cx="305.0" cy="77.0" r="3.2" fill="white" />
<circle cx="384.0" cy="123.0" r="2.2" fill="white" />
<circle cx="68.0" cy="46.0" r="2.5" fill="white" />
<circle cx="490.0" cy="168.0" r="2.4" fill="white" />
<circle cx="421.0" cy="177.0" r="2.0" fill="white" />
<circle cx="177.0" cy="89.0" r="2.3" fill="white" />
<circle cx="448.0" cy="87.0" r="2.8" fill="white" />
<path d="M 20 430 C 138 423, 200 444, 297 423 S 450 405, 512 435" stroke="#5dade2" stroke-width="6" fill="none" opacity="0.85" />
<line x1="0" y1="395" x2="512" y2="395" stroke="#445566" stroke-width="3" />
<polygon points="146,359 186,299 226,319 246,289 266,309 278,349 246,371 196,375" fill="#1e1e1e" />
<polygon points="221,299 234,277 244,301" fill="#1e1e1e" />
<line x1="276" y1="344" x2="306" y2="319" stroke="#1e1e1e" stroke-width="6" />
</svg>
