<svg xmlns="http://www.w3.org/2000/svg" width="512" height="512" viewBox="0 0 512 512">
<rect width="100%" height="100%" fill="#0b1020"/>
<circle cx="456" cy="81" r="55" fill="#f8f3c9" opacity="0.95" />
<circle cx="330.0" cy="31.0" r="2.2" fill="white" />
<circle cx="338.0" cy="59.0" r="1.5" fill="white" />
<circle cx="201.0" cy="159.0" r="2.4" fill="white" />
<circle cx="256.0" cy="51.0" r="1.8" fill="white" />
<circle cx="46.0" cy="147.0" r="2.1" fill="white" />
<circle cx="157.0" cy="115.0" r="2.6" fill="white" />
<circle cx="221.0" cy="141.0" r="1.5" fill="white" />
<circle cx="199.0" cy="45.0" r="1.9" fill="white" />
<circle cx="321.0" cy="142.0" r="1.6" fill="white" />
<circle cx="279.0" cy="55.0" r="1.6" fill="white" />
<circle cx="376.0" cy="90.0" r="2.4" fill="white" />
<circle cx="216.0" cy="115.0" r="2.3" fill="white" />
<circle cx="124.0" cy="106.0" r="1.8" fill="white" />
<circle cx="283.0" cy="53.0" r="2.7" fill="white" />
<path d="M 20 430 C 120 423, 182 447, 290 440 S 450 390, 512 420" stroke="#5dade2" stroke-width="5" fill="none" opacity="0.85" />
<line x1="0" y1="394" x2="512" y2="394" stroke="#445566" stroke-width="4" />
<polygon points="184,352 224,292 264,312 284,282 304,302 316,342 284,364 234,368" fill="#1e1e1e" />
<polygon points="259,292 272,270 282,294" fill="#1e1e1e" />
<line x1="314" y1="337" x2="344" y2="312" stroke="#1e1e1e" stroke-width="6" />
</svg>
