<svg xmlns="http://www.w3.org/2000/svg" width="512" height="512" viewBox="0 0 512 512">
<rect width="100%" height="100%" fill="black"/>
<polyline points="0.00,256.00 4.00,258.16 8.00,260.31 12.00,262.43 16.00,264.52 20.00,266.57 24.00,268.56 28.00,270.49 32.00,272.34 36.00,274.11 40.00,275.78 44.00,277.35 48.00,278.81 52.00,280.16 56.00,281.37 60.00,282.46 64.00,283.41 68.00,284.21 72.00,284.87 76.00,285.39 80.00,285.74 84.00,285.95 88.00,286.00 92.00,285.89 96.00,285.63 100.00,285.22 104.00,284.65 108.00,283.93 112.00,283.08 116.00,282.08 120.00,280.94 124.00,279.68 128.00,278.29 132.00,276.79 136.00,275.18 140.00,273.47 144.00,271.67 148.00,269.79 152.00,267.84 156.00,265.82 160.00,263.76 164.00,261.65 168.00,259.52 172.00,257.37 176.00,255.21 180.00,253.05 184.00,250.91 188.00,248.80 192.00,246.72 196.00,244.69 200.00,242.72 204.00,240.82 208.00,239.00 212.00,237.27 216.00,235.63 220.00,234.10 224.00,232.68 228.00,231.38 232.00,230.21 236.00,229.18 240.00,228.28 244.00,227.53 248.00,226.92 252.00,226.47 256.00,226.16 260.00,226.02 264.00,226.02 268.00,226.19 272.00,226.50 276.00,226.97 280.00,227.60 284.00,228.36 288.00,229.27 292.00,230.32 296.00,231.51 300.00,232.82 304.00,234.25 308.00,235.79 312.00,237.44 316.00,239.18 320.00,241.01 324.00,242.92 328.00,244.90 332.00,246.93 336.00,249.01 340.00,251.13 344.00,253.27 348.00,255.42 352.00,257.58 356.00,259.73 360.00,261.87 364.00,263.97 368.00,266.03 372.00,268.04 376.00,269.98 380.00,271.85 384.00,273.65 388.00,275.35 392.00,276.94 396.00,278.44 400.00,279.81 404.00,281.06 408.00,282.18 412.00,283.17 416.00,284.01 420.00,284.71 424.00,285.26 428.00,285.66 432.00,285.91 436.00,286.00 440.00,285.93 444.00,285.71 448.00,285.34 452.00,284.81 456.00,284.14 460.00,283.32 464.00,282.36 468.00,281.26 472.00,280.03 476.00,278.67 480.00,277.20 484.00,275.62 488.00,273.93 492.00,272.16 496.00,270.30 500.00,268.36 504.00,266.37 508.00,264.31 512.00,262.22" fill="none" stroke="#66ccff" stroke-width="2"/>
<polyline points="0.00,310.06 4.00,311.82 8.00,313.08 12.00,313.80 16.00,313.99 20.00,313.65 24.00,312.78 28.00,311.39 32.00,309.48 36.00,307.09 40.00,304.22 44.00,300.91 48.00,297.18 52.00,293.08 56.00,288.63 60.00,283.89 64.00,278.88 68.00,273.67 72.00,268.29 76.00,262.80 80.00,257.25 84.00,251.69 88.00,246.16 92.00,240.73 96.00,235.44 100.00,230.33 104.00,225.47 108.00,220.88 112.00,216.62 116.00,212.72 120.00,209.22 124.00,206.15 128.00,203.53 132.00,201.41 136.00,199.78 140.00,198.67 144.00,198.09 148.00,198.05 152.00,198.53 156.00,199.55 160.00,201.08 164.00,203.13 168.00,205.66 172.00,208.65 176.00,212.08 180.00,215.91 184.00,220.11 188.00,224.64 192.00,229.46 196.00,234.53 200.00,239.79 204.00,245.21 208.00,250.72 212.00,256.28 216.00,261.84 220.00,267.34 224.00,272.74 228.00,277.99 232.00,283.03 236.00,287.82 240.00,292.33 244.00,296.49 248.00,300.29 252.00,303.67 256.00,306.62 260.00,309.10 264.00,311.09 268.00,312.58 272.00,313.54 276.00,313.97 280.00,313.87 284.00,313.24 288.00,312.08 292.00,310.40 296.00,308.23 300.00,305.57 304.00,302.45 308.00,298.91 312.00,294.97 316.00,290.67 320.00,286.06 324.00,281.16 328.00,276.04 332.00,270.73 336.00,265.28 340.00,259.75 344.00,254.19 348.00,248.64 352.00,243.16 356.00,237.80 360.00,232.60 364.00,227.62 368.00,222.91 372.00,218.49 376.00,214.42 380.00,210.74 384.00,207.47 388.00,204.65 392.00,202.30 396.00,200.45 400.00,199.11 404.00,198.29 408.00,198.00 412.00,198.25 416.00,199.03 420.00,200.33 424.00,202.15 428.00,204.46 432.00,207.25 436.00,210.48 440.00,214.14 444.00,218.18 448.00,222.57 452.00,227.26 456.00,232.22 460.00,237.40 464.00,242.76 468.00,248.23 472.00,253.78 476.00,259.34 480.00,264.88 484.00,270.33 488.00,275.65 492.00,280.79 496.00,285.70 500.00,290.34 504.00,294.66 508.00,298.63 512.00,302.20" fill="none" stroke="#ff66cc" stroke-width="2"/>
<polyline points="0.00,314.09 4.00,306.08 8.00,297.35 12.00,288.03 16.00,278.24 20.00,268.14 24.00,257.86 28.00,247.55 32.00,237.37 36.00,227.45 40.00,217.94 44.00,208.98 48.00,200.70 52.00,193.21 56.00,186.63 60.00,181.04 64.00,176.54 68.00,173.17 72.00,171.00 76.00,170.05 80.00,170.33 84.00,171.85 88.00,174.57 92.00,178.47 96.00,183.49 100.00,189.54 104.00,196.55 108.00,204.42 112.00,213.03 116.00,222.26 120.00,231.97 124.00,242.03 128.00,252.29 132.00,262.60 136.00,272.82 140.00,282.79 144.00,292.38 148.00,301.45 152.00,309.86 156.00,317.50 160.00,324.26 164.00,330.03 168.00,334.74 172.00,338.31 176.00,340.70 180.00,341.87 184.00,341.81 188.00,340.52 192.00,338.00 196.00,334.31 200.00,329.50 204.00,323.62 208.00,316.77 212.00,309.05 216.00,300.57 220.00,291.44 224.00,281.81 228.00,271.80 232.00,261.57 236.00,251.25 240.00,241.01 244.00,230.98 248.00,221.31 252.00,212.14 256.00,203.60 260.00,195.81 264.00,188.89 268.00,182.93 272.00,178.03 276.00,174.25 280.00,171.64 284.00,170.25 288.00,170.08 292.00,171.16 296.00,173.46 300.00,176.94 304.00,181.56 308.00,187.25 312.00,193.93 316.00,201.50 320.00,209.85 324.00,218.87 328.00,228.43 332.00,238.38 336.00,248.58 340.00,258.89 344.00,269.16 348.00,279.24 352.00,288.98 356.00,298.26 360.00,306.92 364.00,314.85 368.00,321.93 372.00,328.07 376.00,333.17 380.00,337.16 384.00,339.98 388.00,341.59 392.00,341.98 396.00,341.12 400.00,339.05 404.00,335.77 408.00,331.35 412.00,325.85 416.00,319.34 420.00,311.92 424.00,303.70 428.00,294.79 432.00,285.32 436.00,275.44 440.00,265.27 444.00,254.96 448.00,244.68 452.00,234.55 456.00,224.74 460.00,215.37 464.00,206.59 468.00,198.52 472.00,191.27 476.00,184.96 480.00,179.67 484.00,175.48 488.00,172.44 492.00,170.61 496.00,170.00 500.00,170.63 504.00,172.49 508.00,175.55 512.00,179.77" fill="none" stroke="#ffee66" stroke-width="2"/>
<line x1="0" y1="256" x2="512" y2="256" stroke="#223344" stroke-width="1"/>
</svg>
