<svg xmlns="http://www.w3.org/2000/svg" width="512" height="512" viewBox="0 0 512 512">
<rect width="100%" height="100%" fill="#0b1020"/>
<circle cx="430" cy="125" r="47" fill="#f8f3c9" opacity="0.95" />
<circle cx="334.0" cy="71.0" r="3.2" fill="white" />
<circle cx="356.0" cy="90.0" r="3.2" fill="white" />
<circle cx="386.0" cy="65.0" r="2.0" fill="white" />
<circle cx="398.0" cy="114.0" r="2.7" fill="white" />
<circle cx="235.0" cy="65.0" r="2.6" fill="white" />
<circle cx="192.0" cy="179.0" r="3.3" fill="white" />
<circle cx="73.0" cy="32.0" r="1.6" fill="white" />
<circle cx="145.0" cy="32.0" r="3.4" fill="white" />
<circle cx="424.0" cy="136.0" r="2.2" fill="white" />
<path d="M 20 430 C 138 426, 190 457, 288 426 S 450 399, 512 429" stroke="#5dade2" stroke-width="5" fill="none" opacity="0.85" />
<line x1="0" y1="392" x2="512" y2="392" stroke="#445566" stroke-width="3" />
<polygon points="202,350 242,290 282,310 302,280 322,300 334,340 302,362 252,366" fill="#1e1e1e" />
<polygon points="277,290 290,268 300,292" fill="#1e1e1e" />
<line x1="332" y1="335" x2="362" y2="310" stroke="#1e1e1e" stroke-width="6" />
</svg>
