<svg xmlns="http://www.w3.org/2000/svg" width="512" height="512" viewBox="0 0 512 512">
<rect width="100%" height="100%" fill="#0b1020"/>
<circle cx="415" cy="113" r="42" fill="#f8f3c9" opacity="0.95" />
<circle cx="158.0" cy="90.0" r="2.0" fill="white" />
<circle cx="91.0" cy="21.0" r="2.6" fill="white" />
<circle cx="252.0" cy="75.0" r="3.2" fill="white" />
<circle cx="97.0" cy="71.0" r="2.8" fill="white" />
<circle cx="345.0" cy="168.0" r="2.3" fill="white" />
<circle cx="380.0" cy="148.0" r="2.3" fill="white" />
<circle cx="131.0" cy="152.0" r="1.7" fill="white" />
<circle cx="256.0" cy="124.0" r="1.8" fill="white" />
<circle cx="130.0" cy="152.0" r="3.0" fill="white" />
<circle cx="238.0" cy="166.0" r="2.5" fill="white" />
<circle cx="89.0" cy="75.0" r="3.3" fill="white" />
<circle cx="47.0" cy="130.0" r="1.8" fill="white" />
<circle cx="249.0" cy="130.0" r="2.6" fill="white" />
<path d="M 20 430 C 111 427, 171 445, 294 435 S 450 394, 512 424" stroke="#5dade2" stroke-width="5" fill="none" opacity="0.85" />
<line x1="0" y1="393" x2="512" y2="393" stroke="#445566" stroke-width="4" />
<polygon points="144,357 184,297 224,317 244,287 264,307 276,347 244,369 194,373" fill="#1e1e1e" />
<polygon points="219,297 232,275 242,299" fill="#1e1e1e" />
<line x1="274" y1="342" x2="304" y2="317" stroke="#1e1e1e" stroke-width="6" />
</svg>
