<svg xmlns="http://www.w3.org/2000/svg" width="512" height="512" viewBox="0 0 512 512">
<rect width="100%" height="100%" fill="#0b1020"/>
<circle cx="356" cy="103" r="47" fill="#f8f3c9" opacity="0.95" />
<circle cx="336.0" cy="125.0" r="2.9" fill="white" />
<circle cx="260.0" cy="142.0" r="3.2" fill="white" />
<circle cx="156.0" cy="34.0" r="1.9" fill="white" />
<circle cx="124.0" cy="83.0" r="1.9" fill="white" />
<circle cx="372.0" cy="68.0" r="3.0" fill="white" />
<circle cx="295.0" cy="85.0" r="1.6" fill="white" />
<circle cx="128.0" cy="30.0" r="1.7" fill="white" />
<path d="M 20 430 C 103 417, 180 446, 310 425 S 450 375, 512 405" stroke="#5dade2" stroke-width="5" fill="none" opacity="0.85" />
<line x1="0" y1="410" x2="512" y2="410" stroke="#445566" stroke-width="2" />
<polygon points="140,354 180,294 220,314 240,284 260,304 272,344 240,366 190,370" fill="#1e1e1e" />
<polygon points="215,294 228,272 238,296" fill="#1e1e1e" />
<line x1="270" y1="339" x2="300" y2="314" stroke="#1e1e1e" stroke-width="6" />
</svg>
