<svg xmlns="http://www.w3.org/2000/svg" width="512" height="512" viewBox="0 0 512 512">
<rect width="100%" height="100%" fill="#0b1020"/>
<circle cx="356" cy="80" r="55" fill="#f8f3c9" opacity="0.95" />
<circle cx="371.0" cy="106.0" r="2.9" fill="white" />
<circle cx="72.0" cy="46.0" r="3.3" fill="white" />
<circle cx="481.0" cy="75.0" r="1.7" fill="white" />
<circle cx="165.0" cy="146.0" r="2.5" fill="white" />
<circle cx="33.0" cy="68.0" r="1.8" fill="white" />
<circle cx="180.0" cy="31.0" r="2.2" fill="white" />
<circle cx="224.0" cy="36.0" r="2.0" fill="white" />
<circle cx="193.0" cy="66.0" r="2.5" fill="white" />
<circle cx="343.0" cy="105.0" r="1.7" fill="white" />
<circle cx="97.0" cy="177.0" r="2.9" fill="white" />
<circle cx="295.0" cy="59.0" r="3.5" fill="white" />
<circle cx="97.0" cy="178.0" r="3.3" fill="white" />
<path d="M 20 430 C 131 418, 194 443, 285 436 S 450 396, 512 426" stroke="#5dade2" stroke-width="5" fill="none" opacity="0.85" />
<line x1="0" y1="396" x2="512" y2="396" stroke="#445566" stroke-width="4" />
<polygon points="186,362 226,302 266,322 286,292 306,312 318,352 286,374 236,378" fill="#1e1e1e" />
<polygon points="261,302 274,280 284,304" fill="#1e1e1e" />
<line x1="316" y1="347" x2="346" y2="322" stroke="#1e1e1e" stroke-width="6" />
</svg>
