<svg xmlns="http://www.w3.org/2000/svg" width="512" height="512" viewBox="0 0 512 512">
<rect width="100%" height="100%" fill="#0b1020"/>
<circle cx="452" cy="101" r="46" fill="#f8f3c9" opacity="0.95" />
<circle cx="155.0" cy="146.0" r="1.6" fill="white" />
<circle cx="160.0" cy="38.0" r="2.4" fill="white" />
<circle cx="365.0" cy="152.0" r="1.7" fill="white" />
<circle cx="78.0" cy="165.0" r="3.1" fill="white" />
<circle cx="441.0" cy="72.0" r="2.1" fill="white" />
<circle cx="481.0" cy="76.0" r="3.3" fill="white" />
<circle cx="287.0" cy="88.0" r="2.3" fill="white" />
<circle cx="255.0" cy="177.0" r="1.5" fill="white" />
<circle cx="21.0" cy="102.0" r="2.2" fill="white" />
<circle cx="164.0" cy="121.0" r="2.7" fill="white" />
<path d="M 20 430 C 139 419, 188 448, 301 435 S 450 375, 512 405" stroke="#5dade2" stroke-width="7" fill="none" opacity="0.85" />
<line x1="0" y1="414" x2="512" y2="414" stroke="#445566" stroke-width="4" />
<polygon points="174,351 214,291 254,311 274,281 294,301 306,341 274,363 224,367" fill="#1e1e1e" />
<polygon points="249,291 262,269 272,293" fill="#1e1e1e" />
<line x1="304" y1="336" x2="334" y2="311" stroke="#1e1e1e" stroke-width="6" />
</svg>
