<svg xmlns="http://www.w3.org/2000/svg" width="512" height="512" viewBox="0 0 512 512">
<rect width="100%" height="100%" fill="black"/>
<circle cx="256.00" cy="256.00" r="2" fill="hsl(0, 80%, 65%)" />
<circle cx="251.03" cy="260.55" r="3" fill="hsl(6, 80%, 65%)" />
<circle cx="256.83" cy="246.51" r="4" fill="hsl(12, 80%, 65%)" />
<circle cx="263.10" cy="265.26" r="5" fill="hsl(18, 80%, 65%)" />
<circle cx="242.73" cy="253.65" r="6" fill="hsl(24, 80%, 65%)" />
<circle cx="268.71" cy="247.91" r="2" fill="hsl(30, 80%, 65%)" />
<circle cx="251.72" cy="271.94" r="3" fill="hsl(36, 80%, 65%)" />
<circle cx="247.78" cy="240.18" r="4" fill="hsl(42, 80%, 65%)" />
<circle cx="273.90" cy="262.54" r="5" fill="hsl(48, 80%, 65%)" />
<circle cx="237.32" cy="263.71" r="6" fill="hsl(54, 80%, 65%)" />
<circle cx="265.03" cy="236.70" r="2" fill="hsl(60, 80%, 65%)" />
<circle cx="262.69" cy="277.32" r="3" fill="hsl(66, 80%, 65%)" />
<circle cx="235.81" cy="244.30" r="4" fill="hsl(72, 80%, 65%)" />
<circle cx="279.72" cy="250.78" r="5" fill="hsl(78, 80%, 65%)" />
<circle cx="241.50" cy="276.62" r="6" fill="hsl(84, 80%, 65%)" />
<circle cx="252.65" cy="230.12" r="2" fill="hsl(90, 80%, 65%)" />
<circle cx="276.61" cy="273.37" r="3" fill="hsl(96, 80%, 65%)" />
<circle cx="228.25" cy="257.15" r="4" fill="hsl(102, 80%, 65%)" />
<circle cx="276.26" cy="235.84" r="5" fill="hsl(108, 80%, 65%)" />
<circle cx="254.64" cy="285.33" r="6" fill="hsl(114, 80%, 65%)" />
<circle cx="236.70" cy="232.87" r="2" fill="hsl(120, 80%, 65%)" />
<circle cx="286.60" cy="260.12" r="3" fill="hsl(126, 80%, 65%)" />
<circle cx="230.06" cy="274.05" r="4" fill="hsl(132, 80%, 65%)" />
<circle cx="263.09" cy="224.48" r="5" fill="hsl(138, 80%, 65%)" />
<circle cx="272.41" cy="284.64" r="6" fill="hsl(144, 80%, 65%)" />
<circle cx="223.91" cy="245.76" r="2" fill="hsl(150, 80%, 65%)" />
<circle cx="287.18" cy="241.59" r="3" fill="hsl(156, 80%, 65%)" />
<circle cx="242.49" cy="288.29" r="4" fill="hsl(162, 80%, 65%)" />
<circle cx="243.93" cy="222.46" r="5" fill="hsl(168, 80%, 65%)" />
<circle cx="288.11" cy="272.88" r="6" fill="hsl(174, 80%, 65%)" />
<circle cx="220.32" cy="265.41" r="2" fill="hsl(180, 80%, 65%)" />
<circle cx="276.29" cy="224.45" r="3" fill="hsl(186, 80%, 65%)" />
<circle cx="262.45" cy="293.56" r="4" fill="hsl(192, 80%, 65%)" />
<circle cx="225.40" cy="232.30" r="5" fill="hsl(198, 80%, 65%)" />
<circle cx="295.15" cy="252.76" r="6" fill="hsl(204, 80%, 65%)" />
<circle cx="228.93" cy="285.26" r="2" fill="hsl(210, 80%, 65%)" />
<circle cx="256.20" cy="215.58" r="3" fill="hsl(216, 80%, 65%)" />
<circle cx="283.53" cy="286.35" r="4" fill="hsl(222, 80%, 65%)" />
<circle cx="214.65" cy="252.17" r="5" fill="hsl(228, 80%, 65%)" />
<circle cx="289.51" cy="230.56" r="6" fill="hsl(234, 80%, 65%)" />
<circle cx="248.37" cy="297.92" r="2" fill="hsl(240, 80%, 65%)" />
<circle cx="233.02" cy="219.49" r="3" fill="hsl(246, 80%, 65%)" />
<circle cx="298.11" cy="267.54" r="4" fill="hsl(252, 80%, 65%)" />
<circle cx="216.70" cy="276.17" r="5" fill="hsl(258, 80%, 65%)" />
<circle cx="271.53" cy="214.10" r="6" fill="hsl(264, 80%, 65%)" />
<circle cx="273.04" cy="297.86" r="2" fill="hsl(270, 80%, 65%)" />
<circle cx="214.71" cy="236.43" r="3" fill="hsl(276, 80%, 65%)" />
<circle cx="300.14" cy="242.39" r="4" fill="hsl(282, 80%, 65%)" />
<circle cx="232.40" cy="296.27" r="5" fill="hsl(288, 80%, 65%)" />
<circle cx="246.10" cy="209.89" r="6" fill="hsl(294, 80%, 65%)" />
<circle cx="294.84" cy="283.59" r="2" fill="hsl(300, 80%, 65%)" />
<circle cx="208.26" cy="261.95" r="3" fill="hsl(306, 80%, 65%)" />
<circle cx="287.49" cy="219.01" r="4" fill="hsl(312, 80%, 65%)" />
<circle cx="257.79" cy="305.01" r="5" fill="hsl(318, 80%, 65%)" />
<circle cx="221.25" cy="220.74" r="6" fill="hsl(324, 80%, 65%)" />
<circle cx="305.90" cy="258.55" r="2" fill="hsl(330, 80%, 65%)" />
<circle cx="217.14" cy="288.11" r="3" fill="hsl(336, 80%, 65%)" />
<circle cx="263.03" cy="205.63" r="4" fill="hsl(342, 80%, 65%)" />
<circle cx="285.10" cy="298.26" r="5" fill="hsl(348, 80%, 65%)" />
<circle cx="205.57" cy="244.40" r="6" fill="hsl(354, 80%, 65%)" />
<circle cx="301.40" cy="230.28" r="2" fill="hsl(0, 80%, 65%)" />
<circle cx="239.76" cy="306.05" r="3" fill="hsl(6, 80%, 65%)" />
<circle cx="233.99" cy="207.74" r="4" fill="hsl(12, 80%, 65%)" />
<circle cx="305.23" cy="276.88" r="5" fill="hsl(18, 80%, 65%)" />
<circle cx="205.20" cy="273.99" r="6" fill="hsl(24, 80%, 65%)" />
<circle cx="281.50" cy="208.04" r="2" fill="hsl(30, 80%, 65%)" />
<circle cx="269.69" cy="308.99" r="3" fill="hsl(36, 80%, 65%)" />
<circle cx="209.76" cy="225.95" r="4" fill="hsl(42, 80%, 65%)" />
<circle cx="310.80" cy="246.86" r="5" fill="hsl(48, 80%, 65%)" />
<circle cx="221.52" cy="300.08" r="6" fill="hsl(54, 80%, 65%)" />
<circle cx="251.62" cy="199.81" r="2" fill="hsl(60, 80%, 65%)" />
<circle cx="297.48" cy="294.75" r="3" fill="hsl(66, 80%, 65%)" />
<circle cx="198.84" cy="255.44" r="4" fill="hsl(72, 80%, 65%)" />
<circle cx="298.82" cy="217.53" r="5" fill="hsl(78, 80%, 65%)" />
<circle cx="250.37" cy="313.68" r="6" fill="hsl(84, 80%, 65%)" />
<circle cx="220.95" cy="209.35" r="2" fill="hsl(90, 80%, 65%)" />
<circle cx="313.73" cy="266.79" r="3" fill="hsl(96, 80%, 65%)" />
<circle cx="205.81" cy="287.24" r="4" fill="hsl(102, 80%, 65%)" />
<circle cx="272.01" cy="198.69" r="5" fill="hsl(108, 80%, 65%)" />
<circle cx="283.08" cy="309.41" r="6" fill="hsl(114, 80%, 65%)" />
<circle cx="199.60" cy="234.78" r="2" fill="hsl(120, 80%, 65%)" />
<circle cx="312.27" cy="233.41" r="3" fill="hsl(126, 80%, 65%)" />
<circle cx="229.61" cy="311.00" r="4" fill="hsl(132, 80%, 65%)" />
<circle cx="238.20" cy="197.26" r="5" fill="hsl(138, 80%, 65%)" />
<circle cx="309.12" cy="287.48" r="6" fill="hsl(144, 80%, 65%)" />
<circle cx="195.21" cy="268.74" r="2" fill="hsl(150, 80%, 65%)" />
<circle cx="292.43" cy="205.24" r="3" fill="hsl(156, 80%, 65%)" />
<circle cx="263.47" cy="318.39" r="4" fill="hsl(162, 80%, 65%)" />
<circle cx="208.08" cy="214.80" r="5" fill="hsl(168, 80%, 65%)" />
<circle cx="319.52" cy="253.99" r="6" fill="hsl(174, 80%, 65%)" />
<circle cx="210.26" cy="300.64" r="2" fill="hsl(180, 80%, 65%)" />
<circle cx="259.59" cy="191.83" r="3" fill="hsl(186, 80%, 65%)" />
<circle cx="296.92" cy="306.01" r="4" fill="hsl(192, 80%, 65%)" />
<circle cx="191.70" cy="246.71" r="5" fill="hsl(198, 80%, 65%)" />
<circle cx="309.98" cy="219.22" r="6" fill="hsl(204, 80%, 65%)" />
<circle cx="240.96" cy="319.92" r="2" fill="hsl(210, 80%, 65%)" />
<circle cx="223.74" cy="198.41" r="3" fill="hsl(216, 80%, 65%)" />
<circle cx="319.01" cy="276.78" r="4" fill="hsl(222, 80%, 65%)" />
<circle cx="195.19" cy="283.38" r="5" fill="hsl(228, 80%, 65%)" />
<circle cx="282.48" cy="194.42" r="6" fill="hsl(234, 80%, 65%)" />
<circle cx="278.18" cy="319.61" r="2" fill="hsl(240, 80%, 65%)" />
<circle cx="196.38" cy="223.92" r="3" fill="hsl(246, 80%, 65%)" />
<circle cx="321.96" cy="239.30" r="4" fill="hsl(252, 80%, 65%)" />
<circle cx="218.46" cy="313.15" r="5" fill="hsl(258, 80%, 65%)" />
<circle cx="245.02" cy="188.18" r="6" fill="hsl(264, 80%, 65%)" />
<circle cx="310.16" cy="298.80" r="2" fill="hsl(270, 80%, 65%)" />
<circle cx="186.82" cy="261.05" r="3" fill="hsl(276, 80%, 65%)" />
<circle cx="303.82" cy="205.31" r="4" fill="hsl(282, 80%, 65%)" />
<circle cx="254.98" cy="326.00" r="5" fill="hsl(288, 80%, 65%)" />
<circle cx="209.25" cy="203.45" r="6" fill="hsl(294, 80%, 65%)" />
<circle cx="326.29" cy="263.21" r="2" fill="hsl(300, 80%, 65%)" />
<circle cx="199.05" cy="298.36" r="3" fill="hsl(306, 80%, 65%)" />
<circle cx="269.44" cy="185.98" r="4" fill="hsl(312, 80%, 65%)" />
<circle cx="293.55" cy="316.98" r="5" fill="hsl(318, 80%, 65%)" />
<circle cx="186.82" cy="236.31" r="6" fill="hsl(324, 80%, 65%)" />
<circle cx="320.59" cy="223.64" r="2" fill="hsl(330, 80%, 65%)" />
<circle cx="230.11" cy="323.78" r="3" fill="hsl(336, 80%, 65%)" />
<circle cx="229.18" cy="188.24" r="4" fill="hsl(342, 80%, 65%)" />
<circle cx="321.82" cy="287.98" r="5" fill="hsl(348, 80%, 65%)" />
<circle cx="185.56" cy="276.97" r="6" fill="hsl(354, 80%, 65%)" />
<circle cx="293.93" cy="192.70" r="2" fill="hsl(0, 80%, 65%)" />
<circle cx="270.85" cy="328.60" r="3" fill="hsl(6, 80%, 65%)" />
<circle cx="195.76" cy="212.32" r="4" fill="hsl(12, 80%, 65%)" />
<circle cx="330.23" cy="247.48" r="5" fill="hsl(18, 80%, 65%)" />
<circle cx="206.82" cy="312.65" r="6" fill="hsl(24, 80%, 65%)" />
<circle cx="253.99" cy="180.71" r="2" fill="hsl(30, 80%, 65%)" />
<circle cx="308.55" cy="310.38" r="3" fill="hsl(36, 80%, 65%)" />
<circle cx="180.22" cy="251.38" r="4" fill="hsl(42, 80%, 65%)" />
<circle cx="315.23" cy="208.03" r="5" fill="hsl(48, 80%, 65%)" />
<circle cx="244.69" cy="331.68" r="6" fill="hsl(54, 80%, 65%)" />
<circle cx="213.06" cy="192.31" r="2" fill="hsl(60, 80%, 65%)" />
<circle cx="330.97" cy="274.02" r="3" fill="hsl(66, 80%, 65%)" />
<circle cx="188.29" cy="293.50" r="4" fill="hsl(72, 80%, 65%)" />
<circle cx="280.69" cy="182.33" r="5" fill="hsl(78, 80%, 65%)" />
<circle cx="287.67" cy="327.27" r="6" fill="hsl(84, 80%, 65%)" />
<circle cx="184.24" cy="224.73" r="2" fill="hsl(90, 80%, 65%)" />
<circle cx="330.31" cy="230.49" r="3" fill="hsl(96, 80%, 65%)" />
<circle cx="218.30" cy="325.26" r="4" fill="hsl(102, 80%, 65%)" />
<circle cx="236.95" cy="179.19" r="5" fill="hsl(108, 80%, 65%)" />
<circle cx="322.17" cy="299.93" r="6" fill="hsl(114, 80%, 65%)" />
<circle cx="177.25" cy="268.35" r="2" fill="hsl(120, 80%, 65%)" />
<circle cx="305.90" cy="193.48" r="3" fill="hsl(126, 80%, 65%)" />
<circle cx="261.46" cy="336.09" r="4" fill="hsl(132, 80%, 65%)" />
<circle cx="197.67" cy="200.43" r="5" fill="hsl(138, 80%, 65%)" />
<circle cx="336.83" cy="257.58" r="6" fill="hsl(144, 80%, 65%)" />
<circle cx="195.12" cy="309.62" r="2" fill="hsl(150, 80%, 65%)" />
<circle cx="264.70" cy="175.06" r="3" fill="hsl(156, 80%, 65%)" />
<circle cx="304.42" cy="321.78" r="4" fill="hsl(162, 80%, 65%)" />
<circle cx="175.59" cy="240.15" r="5" fill="hsl(168, 80%, 65%)" />
<circle cx="326.23" cy="213.22" r="6" fill="hsl(174, 80%, 65%)" />
<circle cx="233.03" cy="335.25" r="2" fill="hsl(180, 80%, 65%)" />
<circle cx="219.28" cy="181.80" r="3" fill="hsl(186, 80%, 65%)" />
<circle cx="333.45" cy="286.01" r="4" fill="hsl(192, 80%, 65%)" />
<circle cx="178.37" cy="286.29" r="5" fill="hsl(198, 80%, 65%)" />
<circle cx="292.91" cy="180.98" r="6" fill="hsl(204, 80%, 65%)" />
<circle cx="279.54" cy="336.50" r="2" fill="hsl(210, 80%, 65%)" />
<circle cx="184.03" cy="212.40" r="3" fill="hsl(216, 80%, 65%)" />
<circle cx="338.78" cy="239.49" r="4" fill="hsl(222, 80%, 65%)" />
<circle cx="205.95" cy="324.31" r="5" fill="hsl(228, 80%, 65%)" />
<circle cx="246.73" cy="171.56" r="6" fill="hsl(234, 80%, 65%)" />
<circle cx="320.08" cy="312.18" r="2" fill="hsl(240, 80%, 65%)" />
<circle cx="170.54" cy="257.86" r="3" fill="hsl(246, 80%, 65%)" />
<circle cx="317.95" cy="196.71" r="4" fill="hsl(252, 80%, 65%)" />
<circle cx="250.35" cy="341.83" r="5" fill="hsl(258, 80%, 65%)" />
<circle cx="202.03" cy="188.69" r="6" fill="hsl(264, 80%, 65%)" />
<circle cx="341.52" cy="269.21" r="2" fill="hsl(270, 80%, 65%)" />
<circle cx="183.80" cy="304.17" r="3" fill="hsl(276, 80%, 65%)" />
<circle cx="276.76" cy="171.45" r="4" fill="hsl(282, 80%, 65%)" />
<circle cx="297.93" cy="332.60" r="5" fill="hsl(288, 80%, 65%)" />
<circle cx="173.10" cy="227.76" r="6" fill="hsl(294, 80%, 65%)" />
<circle cx="336.44" cy="220.72" r="2" fill="hsl(300, 80%, 65%)" />
<circle cx="220.41" cy="336.59" r="3" fill="hsl(306, 80%, 65%)" />
<circle cx="227.72" cy="172.29" r="4" fill="hsl(312, 80%, 65%)" />
<circle cx="333.62" cy="298.75" r="5" fill="hsl(318, 80%, 65%)" />
<circle cx="169.64" cy="276.97" r="6" fill="hsl(324, 80%, 65%)" />
<circle cx="305.65" cy="181.99" r="2" fill="hsl(330, 80%, 65%)" />
<circle cx="269.42" cy="344.36" r="3" fill="hsl(336, 80%, 65%)" />
<circle cx="186.22" cy="199.75" r="4" fill="hsl(342, 80%, 65%)" />
<circle cx="345.70" cy="250.33" r="5" fill="hsl(348, 80%, 65%)" />
<circle cx="193.51" cy="320.96" r="6" fill="hsl(354, 80%, 65%)" />
<circle cx="258.20" cy="165.64" r="2" fill="hsl(0, 80%, 65%)" />
<circle cx="315.58" cy="324.31" r="3" fill="hsl(6, 80%, 65%)" />
<circle cx="165.68" cy="245.85" r="4" fill="hsl(12, 80%, 65%)" />
<circle cx="329.66" cy="202.33" r="5" fill="hsl(18, 80%, 65%)" />
<circle cx="237.89" cy="345.57" r="6" fill="hsl(24, 80%, 65%)" />
<circle cx="208.72" cy="177.51" r="2" fill="hsl(30, 80%, 65%)" />
<circle cx="344.12" cy="282.01" r="3" fill="hsl(36, 80%, 65%)" />
<circle cx="173.23" cy="296.45" r="4" fill="hsl(42, 80%, 65%)" />
<circle cx="289.79" cy="170.03" r="5" fill="hsl(48, 80%, 65%)" />
<circle cx="289.24" cy="342.45" r="6" fill="hsl(54, 80%, 65%)" />
<circle cx="172.88" cy="214.60" r="2" fill="hsl(60, 80%, 65%)" />
<circle cx="345.49" cy="230.31" r="3" fill="hsl(66, 80%, 65%)" />
<circle cx="207.24" cy="335.60" r="4" fill="hsl(72, 80%, 65%)" />
<circle cx="238.14" cy="164.13" r="5" fill="hsl(78, 80%, 65%)" />
<circle cx="331.42" cy="311.82" r="6" fill="hsl(84, 80%, 65%)" />
<circle cx="162.44" cy="265.81" r="2" fill="hsl(90, 80%, 65%)" />
<circle cx="318.52" cy="185.38" r="3" fill="hsl(96, 80%, 65%)" />
<circle cx="257.60" cy="350.54" r="4" fill="hsl(102, 80%, 65%)" />
<circle cx="190.79" cy="187.19" r="5" fill="hsl(108, 80%, 65%)" />
<circle cx="350.80" cy="262.70" r="6" fill="hsl(114, 80%, 65%)" />
<circle cx="181.38" cy="315.24" r="2" fill="hsl(120, 80%, 65%)" />
<circle cx="271.04" cy="161.68" r="3" fill="hsl(126, 80%, 65%)" />
<circle cx="308.75" cy="335.91" r="4" fill="hsl(132, 80%, 65%)" />
<circle cx="162.90" cy="232.66" r="5" fill="hsl(138, 80%, 65%)" />
<circle cx="340.63" cy="210.21" r="6" fill="hsl(144, 80%, 65%)" />
<circle cx="224.45" cy="347.15" r="2" fill="hsl(150, 80%, 65%)" />
<circle cx="217.60" cy="167.26" r="3" fill="hsl(156, 80%, 65%)" />
<circle cx="344.47" cy="295.59" r="4" fill="hsl(162, 80%, 65%)" />
<circle cx="163.80" cy="286.64" r="5" fill="hsl(168, 80%, 65%)" />
<circle cx="303.40" cy="170.92" r="6" fill="hsl(174, 80%, 65%)" />
<circle cx="278.57" cy="350.98" r="2" fill="hsl(180, 80%, 65%)" />
<circle cx="175.00" cy="201.08" r="3" fill="hsl(186, 80%, 65%)" />
<circle cx="353.05" cy="241.75" r="4" fill="hsl(192, 80%, 65%)" />
<circle cx="193.92" cy="332.24" r="5" fill="hsl(198, 80%, 65%)" />
<circle cx="250.26" cy="157.61" r="6" fill="hsl(204, 80%, 65%)" />
<circle cx="326.86" cy="324.83" r="2" fill="hsl(210, 80%, 65%)" />
<circle cx="157.03" cy="253.10" r="3" fill="hsl(216, 80%, 65%)" />
<circle cx="331.11" cy="191.13" r="4" fill="hsl(222, 80%, 65%)" />
<circle cx="244.41" cy="354.79" r="5" fill="hsl(228, 80%, 65%)" />
<circle cx="197.68" cy="175.14" r="6" fill="hsl(234, 80%, 65%)" />
<circle cx="353.85" cy="276.28" r="2" fill="hsl(240, 80%, 65%)" />
<circle cx="169.96" cy="307.26" r="3" fill="hsl(246, 80%, 65%)" />
<circle cx="284.88" cy="159.87" r="4" fill="hsl(252, 80%, 65%)" />
<circle cx="299.74" cy="346.60" r="5" fill="hsl(258, 80%, 65%)" />
<circle cx="162.34" cy="218.65" r="6" fill="hsl(264, 80%, 65%)" />
<circle cx="350.50" cy="220.19" r="2" fill="hsl(270, 80%, 65%)" />
<circle cx="210.41" cy="346.44" r="3" fill="hsl(276, 80%, 65%)" />
<circle cx="228.47" cy="158.30" r="4" fill="hsl(282, 80%, 65%)" />
<circle cx="342.48" cy="309.56" r="5" fill="hsl(288, 80%, 65%)" />
<circle cx="155.83" cy="274.97" r="6" fill="hsl(294, 80%, 65%)" />
<circle cx="317.18" cy="174.17" r="2" fill="hsl(300, 80%, 65%)" />
<circle cx="266.18" cy="357.89" r="3" fill="hsl(306, 80%, 65%)" />
<circle cx="179.51" cy="187.60" r="4" fill="hsl(312, 80%, 65%)" />
<circle cx="358.83" cy="254.76" r="5" fill="hsl(318, 80%, 65%)" />
<circle cx="180.86" cy="326.52" r="6" fill="hsl(324, 80%, 65%)" />
<circle cx="263.79" cy="153.02" r="2" fill="hsl(330, 80%, 65%)" />
<circle cx="319.96" cy="337.37" r="3" fill="hsl(336, 80%, 65%)" />
<circle cx="153.66" cy="239.17" r="4" fill="hsl(342, 80%, 65%)" />
<circle cx="343.01" cy="199.16" r="5" fill="hsl(348, 80%, 65%)" />
<circle cx="230.18" cy="356.90" r="6" fill="hsl(354, 80%, 65%)" />
<circle cx="206.78" cy="163.97" r="2" fill="hsl(0, 80%, 65%)" />
<circle cx="354.66" cy="290.69" r="3" fill="hsl(6, 80%, 65%)" />
<circle cx="159.62" cy="297.15" r="4" fill="hsl(12, 80%, 65%)" />
<circle cx="299.36" cy="160.35" r="5" fill="hsl(18, 80%, 65%)" />
<circle cx="288.70" cy="356.02" r="6" fill="hsl(24, 80%, 65%)" />
<circle cx="164.13" cy="204.23" r="2" fill="hsl(30, 80%, 65%)" />
<circle cx="358.92" cy="232.07" r="3" fill="hsl(36, 80%, 65%)" />
<circle cx="196.15" cy="343.34" r="4" fill="hsl(42, 80%, 65%)" />
<circle cx="241.10" cy="150.96" r="5" fill="hsl(48, 80%, 65%)" />
<circle cx="338.11" cy="323.52" r="6" fill="hsl(54, 80%, 65%)" />
<circle cx="149.63" cy="261.68" r="2" fill="hsl(60, 80%, 65%)" />
<circle cx="330.74" cy="179.81" r="3" fill="hsl(66, 80%, 65%)" />
<circle cx="252.35" cy="362.88" r="4" fill="hsl(72, 80%, 65%)" />
<circle cx="186.36" cy="174.56" r="5" fill="hsl(78, 80%, 65%)" />
<circle cx="362.58" cy="269.03" r="6" fill="hsl(84, 80%, 65%)" />
<circle cx="168.44" cy="318.50" r="2" fill="hsl(90, 80%, 65%)" />
<circle cx="278.39" cy="150.56" r="3" fill="hsl(96, 80%, 65%)" />
<circle cx="310.82" cy="349.05" r="4" fill="hsl(102, 80%, 65%)" />
<circle cx="152.52" cy="224.36" r="5" fill="hsl(108, 80%, 65%)" />
<circle cx="353.87" cy="209.34" r="6" fill="hsl(114, 80%, 65%)" />
<circle cx="215.27" cy="356.71" r="2" fill="hsl(120, 80%, 65%)" />
<circle cx="217.93" cy="154.04" r="3" fill="hsl(126, 80%, 65%)" />
<circle cx="353.13" cy="305.56" r="4" fill="hsl(132, 80%, 65%)" />
<circle cx="150.70" cy="285.12" r="5" fill="hsl(138, 80%, 65%)" />
</svg>
