<svg xmlns="http://www.w3.org/2000/svg" width="512" height="512" viewBox="0 0 512 512">
<rect width="100%" height="100%" fill="#0b1020"/>
<circle cx="447" cy="130" r="44" fill="#f8f3c9" opacity="0.95" />
<circle cx="387.0" cy="129.0" r="3.2" fill="white" />
<circle cx="329.0" cy="82.0" r="1.7" fill="white" />
<circle cx="240.0" cy="152.0" r="2.8" fill="white" />
<circle cx="389.0" cy="168.0" r="2.5" fill="white" />
<circle cx="107.0" cy="117.0" r="2.6" fill="white" />
<circle cx="147.0" cy="177.0" r="3.2" fill="white" />
<circle cx="431.0" cy="30.0" r="2.6" fill="white" />
<path d="M 20 430 C 109 413, 162 455, 318 429 S 450 397, 512 427" stroke="#5dade2" stroke-width="5" fill="none" opacity="0.85" />
<line x1="0" y1="385" x2="512" y2="385" stroke="#445566" stroke-width="4" />
<polygon points="202,363 242,303 282,323 302,293 322,313 334,353 302,375 252,379" fill="#1e1e1e" />
<polygon points="277,303 290,281 300,305" fill="#1e1e1e" />
<line x1="332" y1="348" x2="362" y2="323" stroke="#1e1e1e" stroke-width="6" />
</svg>
