<svg xmlns="http://www.w3.org/2000/svg" width="512" height="512" viewBox="0 0 512 512">
<rect width="100%" height="100%" fill="#0b1020"/>
<circle cx="351" cy="130" r="53" fill="#f8f3c9" opacity="0.95" />
<circle cx="403.0" cy="20.0" r="3.4" fill="white" />
<circle cx="99.0" cy="64.0" r="2.9" fill="white" />
<circle cx="469.0" cy="147.0" r="2.2" fill="white" />
<circle cx="194.0" cy="77.0" r="2.9" fill="white" />
<circle cx="229.0" cy="142.0" r="2.3" fill="white" />
<circle cx="287.0" cy="79.0" r="2.4" fill="white" />
<circle cx="198.0" cy="147.0" r="1.6" fill="white" />
<circle cx="185.0" cy="120.0" r="1.9" fill="white" />
<circle cx="487.0" cy="170.0" r="1.7" fill="white" />
<circle cx="163.0" cy="89.0" r="3.1" fill="white" />
<circle cx="403.0" cy="33.0" r="2.2" fill="white" />
<circle cx="170.0" cy="115.0" r="3.5" fill="white" />
<path d="M 20 430 C 127 422, 170 447, 314 429 S 450 386, 512 416" stroke="#5dade2" stroke-width="8" fill="none" opacity="0.85" />
<line x1="0" y1="389" x2="512" y2="389" stroke="#445566" stroke-width="2" />
<polygon points="187,358 227,298 267,318 287,288 307,308 319,348 287,370 237,374" fill="#1e1e1e" />
<polygon points="262,298 275,276 285,300" fill="#1e1e1e" />
<line x1="317" y1="343" x2="347" y2="318" stroke="#1e1e1e" stroke-width="6" />
</svg>
