<svg xmlns="http://www.w3.org/2000/svg" width="512" height="512" viewBox="0 0 512 512">
<rect width="100%" height="100%" fill="#0b1020"/>
<circle cx="371" cy="84" r="49" fill="#f8f3c9" opacity="0.95" />
<circle cx="200.0" cy="76.0" r="3.1" fill="white" />
<circle cx="381.0" cy="178.0" r="2.4" fill="white" />
<circle cx="52.0" cy="115.0" r="2.3" fill="white" />
<circle cx="384.0" cy="94.0" r="1.9" fill="white" />
<circle cx="201.0" cy="22.0" r="1.7" fill="white" />
<circle cx="274.0" cy="51.0" r="1.9" fill="white" />
<path d="M 20 430 C 112 421, 185 447, 296 424 S 450 382, 512 412" stroke="#5dade2" stroke-width="7" fill="none" opacity="0.85" />
<line x1="0" y1="406" x2="512" y2="406" stroke="#445566" stroke-width="3" />
<polygon points="150,363 190,303 230,323 250,293 270,313 282,353 250,375 200,379" fill="#1e1e1e" />
<polygon points="225,303 238,281 248,305" fill="#1e1e1e" />
<line x1="280" y1="348" x2="310" y2="323" stroke="#1e1e1e" stroke-width="6" />
</svg>
