<svg xmlns="http://www.w3.org/2000/svg" width="512" height="512" viewBox="0 0 512 512">
<rect width="100%" height="100%" fill="#0b1020"/>
<circle cx="395" cy="65" r="50" fill="#f8f3c9" opacity="0.95" />
<circle cx="415.0" cy="43.0" r="2.9" fill="white" />
<circle cx="359.0" cy="171.0" r="2.2" fill="white" />
<circle cx="295.0" cy="163.0" r="1.8" fill="white" />
<circle cx="241.0" cy="86.0" r="2.5" fill="white" />
<circle cx="203.0" cy="114.0" r="1.8" fill="white" />
<circle cx="356.0" cy="90.0" r="2.7" fill="white" />
<circle cx="439.0" cy="22.0" r="2.5" fill="white" />
<circle cx="243.0" cy="148.0" r="1.6" fill="white" />
<path d="M 20 430 C 112 428, 166 458, 280 422 S 450 396, 512 426" stroke="#5dade2" stroke-width="5" fill="none" opacity="0.85" />
<line x1="0" y1="415" x2="512" y2="415" stroke="#445566" stroke-width="3" />
<polygon points="161,357 201,297 241,317 261,287 281,307 293,347 261,369 211,373" fill="#1e1e1e" />
<polygon points="236,297 249,275 259,299" fill="#1e1e1e" />
<line x1="291" y1="342" x2="321" y2="317" stroke="#1e1e1e" stroke-width="6" />
</svg>
