<svg xmlns="http://www.w3.org/2000/svg" width="512" height="512" viewBox="0 0 512 512">
<rect width="100%" height="100%" fill="#0b1020"/>
<circle cx="341" cy="111" r="56" fill="#f8f3c9" opacity="0.95" />
<circle cx="93.0" cy="168.0" r="1.8" fill="white" />
<circle cx="429.0" cy="166.0" r="1.7" fill="white" />
<circle cx="213.0" cy="135.0" r="1.9" fill="white" />
<circle cx="291.0" cy="53.0" r="3.3" fill="white" />
<circle cx="37.0" cy="22.0" r="1.7" fill="white" />
<circle cx="171.0" cy="157.0" r="2.7" fill="white" />
<circle cx="211.0" cy="20.0" r="2.6" fill="white" />
<circle cx="372.0" cy="176.0" r="3.1" fill="white" />
<path d="M 20 430 C 113 420, 180 445, 295 422 S 450 403, 512 433" stroke="#5dade2" stroke-width="7" fill="none" opacity="0.85" />
<line x1="0" y1="411" x2="512" y2="411" stroke="#445566" stroke-width="4" />
<polygon points="173,354 213,294 253,314 273,284 293,304 305,344 273,366 223,370" fill="#1e1e1e" />
<polygon points="248,294 261,272 271,296" fill="#1e1e1e" />
<line x1="303" y1="339" x2="333" y2="314" stroke="#1e1e1e" stroke-width="6" />
</svg>
