<svg xmlns="http://www.w3.org/2000/svg" width="512" height="512" viewBox="0 0 512 512">
<rect width="100%" height="100%" fill="black"/>
<circle cx="256.00" cy="256.00" r="2" fill="hsl(0, 80%, 65%)" />
<circle cx="250.24" cy="261.27" r="3" fill="hsl(5, 80%, 65%)" />
<circle cx="256.97" cy="245.00" r="4" fill="hsl(10, 80%, 65%)" />
<circle cx="264.23" cy="266.73" r="5" fill="hsl(15, 80%, 65%)" />
<circle cx="240.62" cy="253.28" r="6" fill="hsl(20, 80%, 65%)" />
<circle cx="270.73" cy="246.63" r="2" fill="hsl(25, 80%, 65%)" />
<circle cx="251.04" cy="274.47" r="3" fill="hsl(30, 80%, 65%)" />
<circle cx="246.48" cy="237.67" r="4" fill="hsl(35, 80%, 65%)" />
<circle cx="276.74" cy="263.58" r="5" fill="hsl(40, 80%, 65%)" />
<circle cx="234.35" cy="264.94" r="6" fill="hsl(45, 80%, 65%)" />
<circle cx="266.46" cy="233.64" r="2" fill="hsl(50, 80%, 65%)" />
<circle cx="263.75" cy="280.71" r="3" fill="hsl(55, 80%, 65%)" />
<circle cx="232.60" cy="242.44" r="4" fill="hsl(60, 80%, 65%)" />
<circle cx="283.49" cy="249.96" r="5" fill="hsl(65, 80%, 65%)" />
<circle cx="239.20" cy="279.90" r="6" fill="hsl(70, 80%, 65%)" />
<circle cx="252.11" cy="226.01" r="2" fill="hsl(75, 80%, 65%)" />
<circle cx="279.88" cy="276.13" r="3" fill="hsl(80, 80%, 65%)" />
<circle cx="223.84" cy="257.33" r="4" fill="hsl(85, 80%, 65%)" />
<circle cx="279.48" cy="232.63" r="5" fill="hsl(90, 80%, 65%)" />
<circle cx="254.43" cy="290.00" r="6" fill="hsl(95, 80%, 65%)" />
<circle cx="233.63" cy="229.19" r="2" fill="hsl(100, 80%, 65%)" />
<circle cx="291.46" cy="260.77" r="3" fill="hsl(105, 80%, 65%)" />
<circle cx="225.94" cy="276.92" r="4" fill="hsl(110, 80%, 65%)" />
<circle cx="264.22" cy="219.47" r="5" fill="hsl(115, 80%, 65%)" />
<circle cx="275.02" cy="289.19" r="6" fill="hsl(120, 80%, 65%)" />
<circle cx="218.81" cy="244.14" r="2" fill="hsl(125, 80%, 65%)" />
<circle cx="292.14" cy="239.30" r="3" fill="hsl(130, 80%, 65%)" />
<circle cx="240.34" cy="293.42" r="4" fill="hsl(135, 80%, 65%)" />
<circle cx="242.02" cy="217.12" r="5" fill="hsl(140, 80%, 65%)" />
<circle cx="293.22" cy="275.56" r="6" fill="hsl(145, 80%, 65%)" />
<circle cx="214.65" cy="266.90" r="2" fill="hsl(150, 80%, 65%)" />
<circle cx="279.51" cy="219.44" r="3" fill="hsl(155, 80%, 65%)" />
<circle cx="263.48" cy="299.53" r="4" fill="hsl(160, 80%, 65%)" />
<circle cx="220.54" cy="228.54" r="5" fill="hsl(165, 80%, 65%)" />
<circle cx="301.37" cy="252.24" r="6" fill="hsl(170, 80%, 65%)" />
<circle cx="224.63" cy="289.91" r="2" fill="hsl(175, 80%, 65%)" />
<circle cx="256.23" cy="209.16" r="3" fill="hsl(180, 80%, 65%)" />
<circle cx="287.91" cy="291.17" r="4" fill="hsl(185, 80%, 65%)" />
<circle cx="208.08" cy="251.56" r="5" fill="hsl(190, 80%, 65%)" />
<circle cx="294.84" cy="226.52" r="6" fill="hsl(195, 80%, 65%)" />
<circle cx="247.16" cy="304.58" r="2" fill="hsl(200, 80%, 65%)" />
<circle cx="229.37" cy="213.69" r="3" fill="hsl(205, 80%, 65%)" />
<circle cx="304.80" cy="269.37" r="4" fill="hsl(210, 80%, 65%)" />
<circle cx="210.45" cy="279.38" r="5" fill="hsl(215, 80%, 65%)" />
<circle cx="274.00" cy="207.44" r="6" fill="hsl(220, 80%, 65%)" />
<circle cx="275.75" cy="304.51" r="2" fill="hsl(225, 80%, 65%)" />
<circle cx="208.15" cy="233.32" r="3" fill="hsl(230, 80%, 65%)" />
<circle cx="307.15" cy="240.23" r="4" fill="hsl(235, 80%, 65%)" />
<circle cx="228.65" cy="302.67" r="5" fill="hsl(240, 80%, 65%)" />
<circle cx="244.53" cy="202.57" r="6" fill="hsl(245, 80%, 65%)" />
<circle cx="301.01" cy="287.97" r="2" fill="hsl(250, 80%, 65%)" />
<circle cx="200.67" cy="262.90" r="3" fill="hsl(255, 80%, 65%)" />
<circle cx="292.49" cy="213.13" r="4" fill="hsl(260, 80%, 65%)" />
<circle cx="258.07" cy="312.80" r="5" fill="hsl(265, 80%, 65%)" />
<circle cx="215.73" cy="215.14" r="6" fill="hsl(270, 80%, 65%)" />
<circle cx="313.83" cy="258.96" r="2" fill="hsl(275, 80%, 65%)" />
<circle cx="210.96" cy="293.21" r="3" fill="hsl(280, 80%, 65%)" />
<circle cx="264.15" cy="197.62" r="4" fill="hsl(285, 80%, 65%)" />
<circle cx="289.72" cy="304.97" r="5" fill="hsl(290, 80%, 65%)" />
<circle cx="197.56" cy="242.55" r="6" fill="hsl(295, 80%, 65%)" />
<circle cx="308.62" cy="226.19" r="2" fill="hsl(300, 80%, 65%)" />
<circle cx="237.18" cy="314.00" r="3" fill="hsl(305, 80%, 65%)" />
<circle cx="230.49" cy="200.07" r="4" fill="hsl(310, 80%, 65%)" />
<circle cx="313.05" cy="280.20" r="5" fill="hsl(315, 80%, 65%)" />
<circle cx="197.12" cy="276.85" r="6" fill="hsl(320, 80%, 65%)" />
<circle cx="285.56" cy="200.42" r="2" fill="hsl(325, 80%, 65%)" />
<circle cx="271.87" cy="317.41" r="3" fill="hsl(330, 80%, 65%)" />
<circle cx="202.42" cy="221.17" r="4" fill="hsl(335, 80%, 65%)" />
<circle cx="319.50" cy="245.40" r="5" fill="hsl(340, 80%, 65%)" />
<circle cx="216.04" cy="307.08" r="6" fill="hsl(345, 80%, 65%)" />
<circle cx="250.92" cy="190.88" r="2" fill="hsl(350, 80%, 65%)" />
<circle cx="304.07" cy="300.91" r="3" fill="hsl(355, 80%, 65%)" />
<circle cx="189.75" cy="255.35" r="4" fill="hsl(0, 80%, 65%)" />
<circle cx="305.63" cy="211.42" r="5" fill="hsl(5, 80%, 65%)" />
<circle cx="249.48" cy="322.85" r="6" fill="hsl(10, 80%, 65%)" />
<circle cx="215.39" cy="201.94" r="2" fill="hsl(15, 80%, 65%)" />
<circle cx="322.91" cy="268.51" r="3" fill="hsl(20, 80%, 65%)" />
<circle cx="197.84" cy="292.21" r="4" fill="hsl(25, 80%, 65%)" />
<circle cx="274.55" cy="189.59" r="5" fill="hsl(30, 80%, 65%)" />
<circle cx="287.38" cy="317.89" r="6" fill="hsl(35, 80%, 65%)" />
<circle cx="190.64" cy="231.41" r="2" fill="hsl(40, 80%, 65%)" />
<circle cx="321.21" cy="229.82" r="3" fill="hsl(45, 80%, 65%)" />
<circle cx="225.41" cy="319.74" r="4" fill="hsl(50, 80%, 65%)" />
<circle cx="235.38" cy="187.93" r="5" fill="hsl(55, 80%, 65%)" />
<circle cx="317.56" cy="292.48" r="6" fill="hsl(60, 80%, 65%)" />
<circle cx="185.55" cy="270.77" r="2" fill="hsl(65, 80%, 65%)" />
<circle cx="298.22" cy="197.18" r="3" fill="hsl(70, 80%, 65%)" />
<circle cx="264.65" cy="328.31" r="4" fill="hsl(75, 80%, 65%)" />
<circle cx="200.46" cy="208.26" r="5" fill="hsl(80, 80%, 65%)" />
<circle cx="329.62" cy="253.67" r="6" fill="hsl(85, 80%, 65%)" />
<circle cx="202.99" cy="307.73" r="2" fill="hsl(90, 80%, 65%)" />
<circle cx="260.17" cy="181.64" r="3" fill="hsl(95, 80%, 65%)" />
<circle cx="303.42" cy="313.96" r="4" fill="hsl(100, 80%, 65%)" />
<circle cx="181.48" cy="245.23" r="5" fill="hsl(105, 80%, 65%)" />
<circle cx="318.56" cy="213.38" r="6" fill="hsl(110, 80%, 65%)" />
<circle cx="238.57" cy="330.08" r="2" fill="hsl(115, 80%, 65%)" />
<circle cx="218.62" cy="189.26" r="3" fill="hsl(120, 80%, 65%)" />
<circle cx="329.03" cy="280.08" r="4" fill="hsl(125, 80%, 65%)" />
<circle cx="185.52" cy="287.73" r="5" fill="hsl(130, 80%, 65%)" />
<circle cx="286.69" cy="184.63" r="6" fill="hsl(135, 80%, 65%)" />
<circle cx="281.71" cy="329.72" r="2" fill="hsl(140, 80%, 65%)" />
<circle cx="186.90" cy="218.82" r="3" fill="hsl(145, 80%, 65%)" />
<circle cx="332.44" cy="236.65" r="4" fill="hsl(150, 80%, 65%)" />
<circle cx="212.50" cy="322.23" r="5" fill="hsl(155, 80%, 65%)" />
<circle cx="243.28" cy="177.40" r="6" fill="hsl(160, 80%, 65%)" />
<circle cx="318.77" cy="305.60" r="2" fill="hsl(165, 80%, 65%)" />
<circle cx="175.83" cy="261.85" r="3" fill="hsl(170, 80%, 65%)" />
<circle cx="311.42" cy="197.25" r="4" fill="hsl(175, 80%, 65%)" />
<circle cx="254.81" cy="337.13" r="5" fill="hsl(180, 80%, 65%)" />
<circle cx="201.82" cy="195.10" r="6" fill="hsl(185, 80%, 65%)" />
<circle cx="337.46" cy="264.35" r="2" fill="hsl(190, 80%, 65%)" />
<circle cx="190.00" cy="305.09" r="3" fill="hsl(195, 80%, 65%)" />
<circle cx="271.58" cy="174.86" r="4" fill="hsl(200, 80%, 65%)" />
<circle cx="299.52" cy="326.67" r="5" fill="hsl(205, 80%, 65%)" />
<circle cx="175.82" cy="233.18" r="6" fill="hsl(210, 80%, 65%)" />
<circle cx="330.86" cy="218.50" r="2" fill="hsl(215, 80%, 65%)" />
<circle cx="226.00" cy="334.56" r="3" fill="hsl(220, 80%, 65%)" />
<circle cx="224.92" cy="177.47" r="4" fill="hsl(225, 80%, 65%)" />
<circle cx="332.28" cy="293.07" r="5" fill="hsl(230, 80%, 65%)" />
<circle cx="174.37" cy="280.30" r="6" fill="hsl(235, 80%, 65%)" />
<circle cx="299.96" cy="182.64" r="2" fill="hsl(240, 80%, 65%)" />
<circle cx="273.21" cy="340.14" r="3" fill="hsl(245, 80%, 65%)" />
<circle cx="186.19" cy="205.38" r="4" fill="hsl(250, 80%, 65%)" />
<circle cx="342.03" cy="246.13" r="5" fill="hsl(255, 80%, 65%)" />
<circle cx="199.00" cy="321.65" r="6" fill="hsl(260, 80%, 65%)" />
<circle cx="253.67" cy="168.74" r="2" fill="hsl(265, 80%, 65%)" />
<circle cx="316.90" cy="319.02" r="3" fill="hsl(270, 80%, 65%)" />
<circle cx="168.18" cy="250.65" r="4" fill="hsl(275, 80%, 65%)" />
<circle cx="324.64" cy="200.40" r="5" fill="hsl(280, 80%, 65%)" />
<circle cx="242.89" cy="343.70" r="6" fill="hsl(285, 80%, 65%)" />
<circle cx="206.23" cy="182.19" r="2" fill="hsl(290, 80%, 65%)" />
<circle cx="342.89" cy="276.89" r="3" fill="hsl(295, 80%, 65%)" />
<circle cx="177.53" cy="299.45" r="4" fill="hsl(300, 80%, 65%)" />
<circle cx="284.62" cy="170.63" r="5" fill="hsl(305, 80%, 65%)" />
<circle cx="292.70" cy="338.59" r="6" fill="hsl(310, 80%, 65%)" />
<circle cx="172.84" cy="219.76" r="2" fill="hsl(315, 80%, 65%)" />
<circle cx="342.12" cy="226.44" r="3" fill="hsl(320, 80%, 65%)" />
<circle cx="212.31" cy="336.26" r="4" fill="hsl(325, 80%, 65%)" />
<circle cx="233.92" cy="166.98" r="5" fill="hsl(330, 80%, 65%)" />
<circle cx="332.69" cy="306.91" r="6" fill="hsl(335, 80%, 65%)" />
<circle cx="164.74" cy="270.31" r="2" fill="hsl(340, 80%, 65%)" />
<circle cx="313.83" cy="183.54" r="3" fill="hsl(345, 80%, 65%)" />
<circle cx="262.32" cy="348.82" r="4" fill="hsl(350, 80%, 65%)" />
<circle cx="188.40" cy="191.60" r="5" fill="hsl(355, 80%, 65%)" />
<circle cx="349.67" cy="257.83" r="6" fill="hsl(0, 80%, 65%)" />
<circle cx="185.45" cy="318.14" r="2" fill="hsl(5, 80%, 65%)" />
<circle cx="266.08" cy="162.20" r="3" fill="hsl(10, 80%, 65%)" />
<circle cx="312.12" cy="332.23" r="4" fill="hsl(15, 80%, 65%)" />
<circle cx="162.81" cy="237.63" r="5" fill="hsl(20, 80%, 65%)" />
<circle cx="337.40" cy="206.43" r="6" fill="hsl(25, 80%, 65%)" />
<circle cx="229.38" cy="347.84" r="2" fill="hsl(30, 80%, 65%)" />
<circle cx="213.45" cy="170.01" r="3" fill="hsl(35, 80%, 65%)" />
<circle cx="345.76" cy="290.78" r="4" fill="hsl(40, 80%, 65%)" />
<circle cx="166.03" cy="291.10" r="5" fill="hsl(45, 80%, 65%)" />
<circle cx="298.77" cy="169.06" r="6" fill="hsl(50, 80%, 65%)" />
<circle cx="283.28" cy="349.30" r="2" fill="hsl(55, 80%, 65%)" />
<circle cx="172.60" cy="205.47" r="3" fill="hsl(60, 80%, 65%)" />
<circle cx="351.94" cy="236.86" r="4" fill="hsl(65, 80%, 65%)" />
<circle cx="198.00" cy="335.17" r="5" fill="hsl(70, 80%, 65%)" />
<circle cx="245.26" cy="158.14" r="6" fill="hsl(75, 80%, 65%)" />
<circle cx="330.26" cy="321.11" r="2" fill="hsl(80, 80%, 65%)" />
<circle cx="156.96" cy="258.16" r="3" fill="hsl(85, 80%, 65%)" />
<circle cx="327.79" cy="187.29" r="4" fill="hsl(90, 80%, 65%)" />
<circle cx="249.45" cy="355.46" r="5" fill="hsl(95, 80%, 65%)" />
<circle cx="193.45" cy="178.00" r="6" fill="hsl(100, 80%, 65%)" />
<circle cx="355.11" cy="271.31" r="2" fill="hsl(105, 80%, 65%)" />
<circle cx="172.32" cy="311.83" r="3" fill="hsl(110, 80%, 65%)" />
<circle cx="280.06" cy="158.02" r="4" fill="hsl(115, 80%, 65%)" />
<circle cx="304.59" cy="344.77" r="5" fill="hsl(120, 80%, 65%)" />
<circle cx="159.92" cy="223.27" r="6" fill="hsl(125, 80%, 65%)" />
<circle cx="349.23" cy="215.12" r="2" fill="hsl(130, 80%, 65%)" />
<circle cx="214.75" cy="349.39" r="3" fill="hsl(135, 80%, 65%)" />
<circle cx="223.23" cy="158.99" r="4" fill="hsl(140, 80%, 65%)" />
<circle cx="345.95" cy="305.54" r="5" fill="hsl(145, 80%, 65%)" />
<circle cx="155.92" cy="280.30" r="6" fill="hsl(150, 80%, 65%)" />
<circle cx="313.54" cy="170.23" r="2" fill="hsl(155, 80%, 65%)" />
<circle cx="271.55" cy="358.40" r="3" fill="hsl(160, 80%, 65%)" />
<circle cx="175.13" cy="190.81" r="4" fill="hsl(165, 80%, 65%)" />
<circle cx="359.96" cy="249.43" r="5" fill="hsl(170, 80%, 65%)" />
<circle cx="183.58" cy="331.28" r="6" fill="hsl(175, 80%, 65%)" />
<circle cx="258.55" cy="151.28" r="2" fill="hsl(180, 80%, 65%)" />
<circle cx="325.04" cy="335.16" r="3" fill="hsl(185, 80%, 65%)" />
<circle cx="151.33" cy="244.24" r="4" fill="hsl(190, 80%, 65%)" />
<circle cx="341.36" cy="193.80" r="5" fill="hsl(195, 80%, 65%)" />
<circle cx="235.02" cy="359.81" r="6" fill="hsl(200, 80%, 65%)" />
<circle cx="201.21" cy="165.04" r="2" fill="hsl(205, 80%, 65%)" />
<circle cx="358.12" cy="286.14" r="3" fill="hsl(210, 80%, 65%)" />
<circle cx="160.08" cy="302.88" r="4" fill="hsl(215, 80%, 65%)" />
<circle cx="295.16" cy="156.37" r="5" fill="hsl(220, 80%, 65%)" />
<circle cx="294.52" cy="356.18" r="6" fill="hsl(225, 80%, 65%)" />
<circle cx="159.67" cy="208.02" r="2" fill="hsl(230, 80%, 65%)" />
<circle cx="359.71" cy="226.23" r="3" fill="hsl(235, 80%, 65%)" />
<circle cx="199.49" cy="348.25" r="4" fill="hsl(240, 80%, 65%)" />
<circle cx="235.30" cy="149.53" r="5" fill="hsl(245, 80%, 65%)" />
<circle cx="343.41" cy="320.69" r="6" fill="hsl(250, 80%, 65%)" />
<circle cx="147.57" cy="267.37" r="2" fill="hsl(255, 80%, 65%)" />
<circle cx="328.46" cy="174.16" r="3" fill="hsl(260, 80%, 65%)" />
<circle cx="257.86" cy="365.57" r="4" fill="hsl(265, 80%, 65%)" />
<circle cx="180.43" cy="176.26" r="5" fill="hsl(270, 80%, 65%)" />
<circle cx="365.86" cy="263.77" r="6" fill="hsl(275, 80%, 65%)" />
<circle cx="169.53" cy="324.66" r="2" fill="hsl(280, 80%, 65%)" />
<circle cx="273.43" cy="146.69" r="3" fill="hsl(285, 80%, 65%)" />
<circle cx="317.14" cy="348.61" r="4" fill="hsl(290, 80%, 65%)" />
<circle cx="148.10" cy="228.95" r="5" fill="hsl(295, 80%, 65%)" />
<circle cx="354.08" cy="202.93" r="6" fill="hsl(300, 80%, 65%)" />
<circle cx="219.44" cy="361.64" r="2" fill="hsl(305, 80%, 65%)" />
<circle cx="211.49" cy="153.16" r="3" fill="hsl(310, 80%, 65%)" />
<circle cx="358.53" cy="301.88" r="4" fill="hsl(315, 80%, 65%)" />
<circle cx="149.15" cy="291.51" r="5" fill="hsl(320, 80%, 65%)" />
<circle cx="310.93" cy="157.40" r="6" fill="hsl(325, 80%, 65%)" />
<circle cx="282.16" cy="366.08" r="2" fill="hsl(330, 80%, 65%)" />
<circle cx="162.13" cy="192.35" r="3" fill="hsl(335, 80%, 65%)" />
<circle cx="368.47" cy="239.48" r="4" fill="hsl(340, 80%, 65%)" />
<circle cx="184.05" cy="344.36" r="5" fill="hsl(345, 80%, 65%)" />
<circle cx="249.35" cy="141.98" r="6" fill="hsl(350, 80%, 65%)" />
<circle cx="338.12" cy="335.77" r="2" fill="hsl(355, 80%, 65%)" />
<circle cx="141.30" cy="252.64" r="3" fill="hsl(0, 80%, 65%)" />
<circle cx="343.04" cy="180.83" r="4" fill="hsl(5, 80%, 65%)" />
<circle cx="242.57" cy="370.49" r="5" fill="hsl(10, 80%, 65%)" />
<circle cx="188.41" cy="162.29" r="6" fill="hsl(15, 80%, 65%)" />
<circle cx="369.39" cy="279.50" r="2" fill="hsl(20, 80%, 65%)" />
<circle cx="156.29" cy="315.40" r="3" fill="hsl(25, 80%, 65%)" />
<circle cx="289.47" cy="144.59" r="4" fill="hsl(30, 80%, 65%)" />
<circle cx="306.69" cy="361.00" r="5" fill="hsl(35, 80%, 65%)" />
<circle cx="147.46" cy="212.72" r="6" fill="hsl(40, 80%, 65%)" />
<circle cx="365.51" cy="214.50" r="2" fill="hsl(45, 80%, 65%)" />
<circle cx="203.16" cy="360.81" r="3" fill="hsl(50, 80%, 65%)" />
<circle cx="224.09" cy="142.78" r="4" fill="hsl(55, 80%, 65%)" />
<circle cx="356.23" cy="318.07" r="5" fill="hsl(60, 80%, 65%)" />
<circle cx="139.91" cy="277.98" r="6" fill="hsl(65, 80%, 65%)" />
<circle cx="326.90" cy="161.17" r="2" fill="hsl(70, 80%, 65%)" />
<circle cx="267.80" cy="374.08" r="3" fill="hsl(75, 80%, 65%)" />
<circle cx="167.35" cy="176.73" r="4" fill="hsl(80, 80%, 65%)" />
<circle cx="375.17" cy="254.56" r="5" fill="hsl(85, 80%, 65%)" />
<circle cx="168.91" cy="337.73" r="6" fill="hsl(90, 80%, 65%)" />
<circle cx="265.03" cy="136.65" r="2" fill="hsl(95, 80%, 65%)" />
<circle cx="330.12" cy="350.30" r="3" fill="hsl(100, 80%, 65%)" />
<circle cx="137.40" cy="236.49" r="4" fill="hsl(105, 80%, 65%)" />
<circle cx="356.84" cy="190.13" r="5" fill="hsl(110, 80%, 65%)" />
<circle cx="226.07" cy="372.93" r="6" fill="hsl(115, 80%, 65%)" />
<circle cx="198.96" cy="149.34" r="2" fill="hsl(120, 80%, 65%)" />
<circle cx="370.34" cy="296.20" r="3" fill="hsl(125, 80%, 65%)" />
<circle cx="144.30" cy="303.69" r="4" fill="hsl(130, 80%, 65%)" />
<circle cx="306.25" cy="145.15" r="5" fill="hsl(135, 80%, 65%)" />
<circle cx="293.90" cy="371.92" r="6" fill="hsl(140, 80%, 65%)" />
<circle cx="149.53" cy="196.00" r="2" fill="hsl(145, 80%, 65%)" />
<circle cx="375.27" cy="228.27" r="3" fill="hsl(150, 80%, 65%)" />
<circle cx="186.64" cy="357.22" r="4" fill="hsl(155, 80%, 65%)" />
<circle cx="238.73" cy="134.27" r="5" fill="hsl(160, 80%, 65%)" />
<circle cx="351.16" cy="334.25" r="6" fill="hsl(165, 80%, 65%)" />
<circle cx="132.73" cy="262.59" r="2" fill="hsl(170, 80%, 65%)" />
<circle cx="342.62" cy="167.70" r="3" fill="hsl(175, 80%, 65%)" />
<circle cx="251.77" cy="379.87" r="4" fill="hsl(180, 80%, 65%)" />
<circle cx="175.29" cy="161.62" r="5" fill="hsl(185, 80%, 65%)" />
<circle cx="379.51" cy="271.10" r="6" fill="hsl(190, 80%, 65%)" />
<circle cx="154.52" cy="328.44" r="2" fill="hsl(195, 80%, 65%)" />
<circle cx="281.95" cy="133.80" r="3" fill="hsl(200, 80%, 65%)" />
<circle cx="319.53" cy="363.84" r="4" fill="hsl(205, 80%, 65%)" />
<circle cx="136.07" cy="219.33" r="5" fill="hsl(210, 80%, 65%)" />
<circle cx="369.42" cy="201.93" r="6" fill="hsl(215, 80%, 65%)" />
<circle cx="208.80" cy="372.71" r="2" fill="hsl(220, 80%, 65%)" />
<circle cx="211.88" cy="137.83" r="3" fill="hsl(225, 80%, 65%)" />
<circle cx="368.57" cy="313.44" r="4" fill="hsl(230, 80%, 65%)" />
<circle cx="133.96" cy="289.75" r="5" fill="hsl(235, 80%, 65%)" />
<circle cx="323.32" cy="148.48" r="6" fill="hsl(240, 80%, 65%)" />
<circle cx="279.04" cy="380.99" r="2" fill="hsl(245, 80%, 65%)" />
<circle cx="154.39" cy="179.25" r="3" fill="hsl(250, 80%, 65%)" />
<circle cx="383.00" cy="243.93" r="4" fill="hsl(255, 80%, 65%)" />
<circle cx="170.34" cy="350.86" r="5" fill="hsl(260, 80%, 65%)" />
</svg>
