<svg xmlns="http://www.w3.org/2000/svg" width="512" height="512" viewBox="0 0 512 512">
<rect width="100%" height="100%" fill="#0b1020"/>
<circle cx="425" cy="129" r="50" fill="#f8f3c9" opacity="0.95" />
<circle cx="99.0" cy="54.0" r="1.8" fill="white" />
<circle cx="366.0" cy="161.0" r="3.4" fill="white" />
<circle cx="368.0" cy="128.0" r="2.9" fill="white" />
<circle cx="409.0" cy="52.0" r="2.2" fill="white" />
<circle cx="319.0" cy="94.0" r="2.9" fill="white" />
<circle cx="190.0" cy="56.0" r="2.5" fill="white" />
<circle cx="66.0" cy="29.0" r="2.0" fill="white" />
<circle cx="422.0" cy="133.0" r="1.7" fill="white" />
<circle cx="358.0" cy="68.0" r="3.4" fill="white" />
<circle cx="327.0" cy="86.0" r="3.4" fill="white" />
<circle cx="76.0" cy="60.0" r="3.1" fill="white" />
<circle cx="349.0" cy="145.0" r="3.1" fill="white" />
<path d="M 20 430 C 118 412, 167 445, 304 428 S 450 405, 512 435" stroke="#5dade2" stroke-width="8" fill="none" opacity="0.85" />
<line x1="0" y1="390" x2="512" y2="390" stroke="#445566" stroke-width="2" />
<polygon points="195,356 235,296 275,316 295,286 315,306 327,346 295,368 245,372" fill="#1e1e1e" />
<polygon points="270,296 283,274 293,298" fill="#1e1e1e" />
<line x1="325" y1="341" x2="355" y2="316" stroke="#1e1e1e" stroke-width="6" />
</svg>
