<svg xmlns="http://www.w3.org/2000/svg" width="512" height="512" viewBox="0 0 512 512">
<rect width="100%" height="100%" fill="#0b1020"/>
<circle cx="351" cy="112" r="54" fill="#f8f3c9" opacity="0.95" />
<circle cx="442.0" cy="107.0" r="2.1" fill="white" />
<circle cx="363.0" cy="139.0" r="2.8" fill="white" />
<circle cx="352.0" cy="166.0" r="2.5" fill="white" />
<circle cx="335.0" cy="150.0" r="2.5" fill="white" />
<circle cx="453.0" cy="55.0" r="2.4" fill="white" />
<circle cx="24.0" cy="47.0" r="3.2" fill="white" />
<circle cx="293.0" cy="84.0" r="2.9" fill="white" />
<circle cx="243.0" cy="138.0" r="2.6" fill="white" />
<circle cx="428.0" cy="51.0" r="3.1" fill="white" />
<circle cx="475.0" cy="177.0" r="2.8" fill="white" />
<circle cx="100.0" cy="105.0" r="2.4" fill="white" />
<circle cx="357.0" cy="27.0" r="3.2" fill="white" />
<circle cx="89.0" cy="139.0" r="1.5" fill="white" />
<circle cx="60.0" cy="165.0" r="2.3" fill="white" />
<path d="M 20 430 C 139 422, 193 454, 285 432 S 450 380, 512 410" stroke="#5dade2" stroke-width="8" fill="none" opacity="0.85" />
<line x1="0" y1="385" x2="512" y2="385" stroke="#445566" stroke-width="3" />
<polygon points="198,353 238,293 278,313 298,283 318,303 330,343 298,365 248,369" fill="#1e1e1e" />
<polygon points="273,293 286,271 296,295" fill="#1e1e1e" />
<line x1="328" y1="338" x2="358" y2="313" stroke="#1e1e1e" stroke-width="6" />
</svg>
