<svg xmlns="http://www.w3.org/2000/svg" width="512" height="512" viewBox="0 0 512 512">
<rect width="100%" height="100%" fill="#0b1020"/>
<circle cx="399" cy="131" r="55" fill="#f8f3c9" opacity="0.95" />
<circle cx="30.0" cy="72.0" r="1.9" fill="white" />
<circle cx="122.0" cy="148.0" r="2.6" fill="white" />
<circle cx="236.0" cy="149.0" r="2.6" fill="white" />
<circle cx="471.0" cy="144.0" r="2.4" fill="white" />
<circle cx="375.0" cy="107.0" r="3.2" fill="white" />
<circle cx="349.0" cy="151.0" r="1.9" fill="white" />
<path d="M 20 430 C 138 421, 197 460, 317 421 S 450 382, 512 412" stroke="#5dade2" stroke-width="5" fill="none" opacity="0.85" />
<line x1="0" y1="407" x2="512" y2="407" stroke="#445566" stroke-width="2" />
<polygon points="195,357 235,297 275,317 295,287 315,307 327,347 295,369 245,373" fill="#1e1e1e" />
<polygon points="270,297 283,275 293,299" fill="#1e1e1e" />
<line x1="325" y1="342" x2="355" y2="317" stroke="#1e1e1e" stroke-width="6" />
</svg>
