<svg xmlns="http://www.w3.org/2000/svg" width="512" height="512" viewBox="0 0 512 512">
<rect width="100%" height="100%" fill="#0b1020"/>
<circle cx="347" cy="114" r="53" fill="#f8f3c9" opacity="0.95" />
<circle cx="323.0" cy="123.0" r="1.7" fill="white" />
<circle cx="208.0" cy="118.0" r="1.8" fill="white" />
<circle cx="484.0" cy="137.0" r="2.1" fill="white" />
<circle cx="428.0" cy="27.0" r="2.4" fill="white" />
<circle cx="205.0" cy="59.0" r="3.0" fill="white" />
<circle cx="459.0" cy="92.0" r="2.6" fill="white" />
<circle cx="156.0" cy="91.0" r="1.7" fill="white" />
<circle cx="250.0" cy="178.0" r="2.1" fill="white" />
<circle cx="112.0" cy="34.0" r="1.8" fill="white" />
<circle cx="224.0" cy="123.0" r="2.7" fill="white" />
<path d="M 20 430 C 100 426, 195 442, 299 428 S 450 386, 512 416" stroke="#5dade2" stroke-width="6" fill="none" opacity="0.85" />
<line x1="0" y1="405" x2="512" y2="405" stroke="#445566" stroke-width="4" />
<polygon points="184,356 224,296 264,316 284,286 304,306 316,346 284,368 234,372" fill="#1e1e1e" />
<polygon points="259,296 272,274 282,298" fill="#1e1e1e" />
<line x1="314" y1="341" x2="344" y2="316" stroke="#1e1e1e" stroke-width="6" />
</svg>
