<svg xmlns="http://www.w3.org/2000/svg" width="512" height="512" viewBox="0 0 512 512">
<rect width="100%" height="100%" fill="#0b1020"/>
<circle cx="407" cy="81" r="44" fill="#f8f3c9" opacity="0.95" />
<circle cx="462.0" cy="32.0" r="3.2" fill="white" />
<circle cx="74.0" cy="109.0" r="2.1" fill="white" />
<circle cx="305.0" cy="151.0" r="2.9" fill="white" />
<circle cx="105.0" cy="57.0" r="1.8" fill="white" />
<circle cx="94.0" cy="80.0" r="2.2" fill="white" />
<circle cx="209.0" cy="137.0" r="3.3" fill="white" />
<circle cx="21.0" cy="139.0" r="1.6" fill="white" />
<circle cx="190.0" cy="142.0" r="2.5" fill="white" />
<circle cx="228.0" cy="122.0" r="2.3" fill="white" />
<circle cx="343.0" cy="174.0" r="2.4" fill="white" />
<circle cx="120.0" cy="21.0" r="1.6" fill="white" />
<circle cx="492.0" cy="80.0" r="1.8" fill="white" />
<path d="M 20 430 C 118 422, 183 443, 294 420 S 450 381, 512 411" stroke="#5dade2" stroke-width="8" fill="none" opacity="0.85" />
<line x1="0" y1="387" x2="512" y2="387" stroke="#445566" stroke-width="4" />
<polygon points="182,354 222,294 262,314 282,284 302,304 314,344 282,366 232,370" fill="#1e1e1e" />
<polygon points="257,294 270,272 280,296" fill="#1e1e1e" />
<line x1="312" y1="339" x2="342" y2="314" stroke="#1e1e1e" stroke-width="6" />
</svg>
