<svg xmlns="http://www.w3.org/2000/svg" width="512" height="512" viewBox="0 0 512 512">
<rect width="100%" height="100%" fill="black"/>
<circle cx="80" cy="80" r="6" fill="hsl(160, 80%, 65%)" />
<circle cx="80" cy="128" r="6" fill="hsl(208, 80%, 65%)" />
<circle cx="80" cy="176" r="6" fill="hsl(256, 80%, 65%)" />
<circle cx="80" cy="224" r="6" fill="hsl(304, 80%, 65%)" />
<circle cx="80" cy="272" r="6" fill="hsl(352, 80%, 65%)" />
<circle cx="80" cy="320" r="6" fill="hsl(40, 80%, 65%)" />
<circle cx="80" cy="368" r="6" fill="hsl(88, 80%, 65%)" />
<circle cx="80" cy="416" r="6" fill="hsl(136, 80%, 65%)" />
<circle cx="128" cy="80" r="6" fill="hsl(208, 80%, 65%)" />
<circle cx="128" cy="128" r="6" fill="hsl(256, 80%, 65%)" />
<circle cx="128" cy="176" r="6" fill="hsl(304, 80%, 65%)" />
<circle cx="128" cy="224" r="6" fill="hsl(352, 80%, 65%)" />
<circle cx="128" cy="272" r="6" fill="hsl(40, 80%, 65%)" />
<circle cx="128" cy="320" r="6" fill="hsl(88, 80%, 65%)" />
<circle cx="128" cy="368" r="6" fill="hsl(136, 80%, 65%)" />
<circle cx="128" cy="416" r="6" fill="hsl(184, 80%, 65%)" />
<circle cx="176" cy="80" r="6" fill="hsl(256, 80%, 65%)" />
<circle cx="176" cy="128" r="6" fill="hsl(304, 80%, 65%)" />
<circle cx="176" cy="176" r="6" fill="hsl(352, 80%, 65%)" />
<circle cx="176" cy="224" r="6" fill="hsl(40, 80%, 65%)" />
<circle cx="176" cy="272" r="6" fill="hsl(88, 80%, 65%)" />
<circle cx="176" cy="320" r="6" fill="hsl(136, 80%, 65%)" />
<circle cx="176" cy="368" r="6" fill="hsl(184, 80%, 65%)" />
<circle cx="176" cy="416" r="6" fill="hsl(232, 80%, 65%)" />
<circle cx="224" cy="80" r="6" fill="hsl(304, 80%, 65%)" />
<circle cx="224" cy="128" r="6" fill="hsl(352, 80%, 65%)" />
<circle cx="224" cy="176" r="6" fill="hsl(40, 80%, 65%)" />
<circle cx="224" cy="224" r="6" fill="hsl(88, 80%, 65%)" />
<circle cx="224" cy="272" r="6" fill="hsl(136, 80%, 65%)" />
<circle cx="224" cy="320" r="6" fill="hsl(184, 80%, 65%)" />
<circle cx="224" cy="368" r="6" fill="hsl(232, 80%, 65%)" />
<circle cx="224" cy="416" r="6" fill="hsl(280, 80%, 65%)" />
<circle cx="272" cy="80" r="6" fill="hsl(352, 80%, 65%)" />
<circle cx="272" cy="128" r="6" fill="hsl(40, 80%, 65%)" />
<circle cx="272" cy="176" r="6" fill="hsl(88, 80%, 65%)" />
<circle cx="272" cy="224" r="6" fill="hsl(136, 80%, 65%)" />
<circle cx="272" cy="272" r="6" fill="hsl(184, 80%, 65%)" />
<circle cx="272" cy="320" r="6" fill="hsl(232, 80%, 65%)" />
<circle cx="272" cy="368" r="6" fill="hsl(280, 80%, 65%)" />
<circle cx="272" cy="416" r="6" fill="hsl(328, 80%, 65%)" />
<circle cx="320" cy="80" r="6" fill="hsl(40, 80%, 65%)" />
<circle cx="320" cy="128" r="6" fill="hsl(88, 80%, 65%)" />
<circle cx="320" cy="176" r="6" fill="hsl(136, 80%, 65%)" />
<circle cx="320" cy="224" r="6" fill="hsl(184, 80%, 65%)" />
<circle cx="320" cy="272" r="6" fill="hsl(232, 80%, 65%)" />
<circle cx="320" cy="320" r="6" fill="hsl(280, 80%, 65%)" />
<circle cx="320" cy="368" r="6" fill="hsl(328, 80%, 65%)" />
<circle cx="320" cy="416" r="6" fill="hsl(16, 80%, 65%)" />
<circle cx="368" cy="80" r="6" fill="hsl(88, 80%, 65%)" />
<circle cx="368" cy="128" r="6" fill="hsl(136, 80%, 65%)" />
<circle cx="368" cy="176" r="6" fill="hsl(184, 80%, 65%)" />
<circle cx="368" cy="224" r="6" fill="hsl(232, 80%, 65%)" />
<circle cx="368" cy="272" r="6" fill="hsl(280, 80%, 65%)" />
<circle cx="368" cy="320" r="6" fill="hsl(328, 80%, 65%)" />
<circle cx="368" cy="368" r="6" fill="hsl(16, 80%, 65%)" />
<circle cx="368" cy="416" r="6" fill="hsl(64, 80%, 65%)" />
<circle cx="416" cy="80" r="6" fill="hsl(136, 80%, 65%)" />
<circle cx="416" cy="128" r="6" fill="hsl(184, 80%, 65%)" />
<circle cx="416" cy="176" r="6" fill="hsl(232, 80%, 65%)" />
<circle cx="416" cy="224" r="6" fill="hsl(280, 80%, 65%)" />
<circle cx="416" cy="272" r="6" fill="hsl(328, 80%, 65%)" />
<circle cx="416" cy="320" r="6" fill="hsl(16, 80%, 65%)" />
<circle cx="416" cy="368" r="6" fill="hsl(64, 80%, 65%)" />
<circle cx="416" cy="416" r="6" fill="hsl(112, 80%, 65%)" />
<line x1="80" y1="80" x2="80" y2="432" stroke="#335577" stroke-width="1"/>
<line x1="128" y1="80" x2="128" y2="432" stroke="#335577" stroke-width="1"/>
<line x1="176" y1="80" x2="176" y2="432" stroke="#335577" stroke-width="1"/>
<line x1="224" y1="80" x2="224" y2="432" stroke="#335577" stroke-width="1"/>
<line x1="272" y1="80" x2="272" y2="432" stroke="#335577" stroke-width="1"/>
<line x1="320" y1="80" x2="320" y2="432" stroke="#335577" stroke-width="1"/>
<line x1="368" y1="80" x2="368" y2="432" stroke="#335577" stroke-width="1"/>
<line x1="416" y1="80" x2="416" y2="432" stroke="#335577" stroke-width="1"/>
<line x1="80" y1="80" x2="432" y2="80" stroke="#335577" stroke-width="1"/>
<line x1="80" y1="128" x2="432" y2="128" stroke="#335577" stroke-width="1"/>
<line x1="80" y1="176" x2="432" y2="176" stroke="#335577" stroke-width="1"/>
<line x1="80" y1="224" x2="432" y2="224" stroke="#335577" stroke-width="1"/>
<line x1="80" y1="272" x2="432" y2="272" stroke="#335577" stroke-width="1"/>
<line x1="80" y1="320" x2="432" y2="320" stroke="#335577" stroke-width="1"/>
<line x1="80" y1="368" x2="432" y2="368" stroke="#335577" stroke-width="1"/>
<line x1="80" y1="416" x2="432" y2="416" stroke="#335577" stroke-width="1"/>
</svg>
