<svg xmlns="http://www.w3.org/2000/svg" width="512" height="512" viewBox="0 0 512 512">
<rect width="100%" height="100%" fill="#0b1020"/>
<circle cx="362" cy="99" r="44" fill="#f8f3c9" opacity="0.95" />
<circle cx="482.0" cy="155.0" r="1.7" fill="white" />
<circle cx="263.0" cy="136.0" r="2.6" fill="white" />
<circle cx="249.0" cy="62.0" r="3.4" fill="white" />
<circle cx="171.0" cy="51.0" r="3.0" fill="white" />
<circle cx="479.0" cy="47.0" r="1.5" fill="white" />
<circle cx="453.0" cy="46.0" r="2.7" fill="white" />
<circle cx="32.0" cy="71.0" r="3.1" fill="white" />
<circle cx="407.0" cy="165.0" r="2.5" fill="white" />
<circle cx="80.0" cy="148.0" r="3.4" fill="white" />
<circle cx="466.0" cy="137.0" r="3.1" fill="white" />
<circle cx="481.0" cy="158.0" r="1.7" fill="white" />
<path d="M 20 430 C 131 430, 160 454, 301 439 S 450 402, 512 432" stroke="#5dade2" stroke-width="8" fill="none" opacity="0.85" />
<line x1="0" y1="393" x2="512" y2="393" stroke="#445566" stroke-width="4" />
<polygon points="177,355 217,295 257,315 277,285 297,305 309,345 277,367 227,371" fill="#1e1e1e" />
<polygon points="252,295 265,273 275,297" fill="#1e1e1e" />
<line x1="307" y1="340" x2="337" y2="315" stroke="#1e1e1e" stroke-width="6" />
</svg>
