<svg xmlns="http://www.w3.org/2000/svg" width="512" height="512" viewBox="0 0 512 512">
<rect width="100%" height="100%" fill="black"/>
<circle cx="224" cy="368" r="7" fill="hsl(0, 80%, 65%)" />
<circle cx="97" cy="293" r="2" fill="hsl(9, 80%, 65%)" />
<circle cx="370" cy="250" r="8" fill="hsl(18, 80%, 65%)" />
<circle cx="372" cy="224" r="8" fill="hsl(27, 80%, 65%)" />
<circle cx="206" cy="330" r="5" fill="hsl(36, 80%, 65%)" />
<circle cx="204" cy="335" r="4" fill="hsl(45, 80%, 65%)" />
<circle cx="247" cy="339" r="8" fill="hsl(54, 80%, 65%)" />
<circle cx="143" cy="254" r="5" fill="hsl(63, 80%, 65%)" />
<circle cx="121" cy="424" r="3" fill="hsl(72, 80%, 65%)" />
<circle cx="310" cy="403" r="5" fill="hsl(81, 80%, 65%)" />
<circle cx="326" cy="383" r="6" fill="hsl(90, 80%, 65%)" />
<circle cx="266" cy="277" r="2" fill="hsl(99, 80%, 65%)" />
<circle cx="143" cy="256" r="8" fill="hsl(108, 80%, 65%)" />
<circle cx="93" cy="332" r="2" fill="hsl(117, 80%, 65%)" />
<circle cx="247" cy="92" r="8" fill="hsl(126, 80%, 65%)" />
<circle cx="258" cy="403" r="6" fill="hsl(135, 80%, 65%)" />
<circle cx="109" cy="329" r="6" fill="hsl(144, 80%, 65%)" />
<circle cx="427" cy="279" r="5" fill="hsl(153, 80%, 65%)" />
<circle cx="209" cy="394" r="8" fill="hsl(162, 80%, 65%)" />
<circle cx="70" cy="94" r="4" fill="hsl(171, 80%, 65%)" />
<circle cx="399" cy="289" r="7" fill="hsl(180, 80%, 65%)" />
<circle cx="285" cy="232" r="5" fill="hsl(189, 80%, 65%)" />
<circle cx="127" cy="390" r="2" fill="hsl(198, 80%, 65%)" />
<circle cx="136" cy="311" r="2" fill="hsl(207, 80%, 65%)" />
<circle cx="203" cy="97" r="8" fill="hsl(216, 80%, 65%)" />
<circle cx="379" cy="271" r="6" fill="hsl(225, 80%, 65%)" />
<circle cx="130" cy="275" r="7" fill="hsl(234, 80%, 65%)" />
<circle cx="252" cy="90" r="3" fill="hsl(243, 80%, 65%)" />
<circle cx="117" cy="251" r="3" fill="hsl(252, 80%, 65%)" />
<circle cx="71" cy="139" r="6" fill="hsl(261, 80%, 65%)" />
<circle cx="169" cy="100" r="2" fill="hsl(270, 80%, 65%)" />
<circle cx="367" cy="158" r="7" fill="hsl(279, 80%, 65%)" />
<circle cx="84" cy="224" r="4" fill="hsl(288, 80%, 65%)" />
<circle cx="169" cy="336" r="6" fill="hsl(297, 80%, 65%)" />
<circle cx="71" cy="311" r="5" fill="hsl(306, 80%, 65%)" />
<circle cx="170" cy="403" r="6" fill="hsl(315, 80%, 65%)" />
<circle cx="71" cy="354" r="8" fill="hsl(324, 80%, 65%)" />
<circle cx="395" cy="396" r="4" fill="hsl(333, 80%, 65%)" />
<circle cx="392" cy="72" r="6" fill="hsl(342, 80%, 65%)" />
<circle cx="354" cy="167" r="7" fill="hsl(351, 80%, 65%)" />
<circle cx="379" cy="152" r="3" fill="hsl(0, 80%, 65%)" />
<circle cx="100" cy="418" r="7" fill="hsl(9, 80%, 65%)" />
<circle cx="283" cy="429" r="3" fill="hsl(18, 80%, 65%)" />
<circle cx="89" cy="112" r="4" fill="hsl(27, 80%, 65%)" />
<circle cx="301" cy="413" r="4" fill="hsl(36, 80%, 65%)" />
<circle cx="415" cy="169" r="5" fill="hsl(45, 80%, 65%)" />
<circle cx="108" cy="173" r="7" fill="hsl(54, 80%, 65%)" />
<circle cx="157" cy="227" r="3" fill="hsl(63, 80%, 65%)" />
<circle cx="344" cy="76" r="5" fill="hsl(72, 80%, 65%)" />
<circle cx="412" cy="393" r="5" fill="hsl(81, 80%, 65%)" />
<circle cx="230" cy="168" r="2" fill="hsl(90, 80%, 65%)" />
<circle cx="295" cy="266" r="2" fill="hsl(99, 80%, 65%)" />
<circle cx="305" cy="322" r="7" fill="hsl(108, 80%, 65%)" />
<circle cx="121" cy="251" r="5" fill="hsl(117, 80%, 65%)" />
<circle cx="145" cy="165" r="3" fill="hsl(126, 80%, 65%)" />
<circle cx="343" cy="303" r="3" fill="hsl(135, 80%, 65%)" />
<circle cx="317" cy="372" r="8" fill="hsl(144, 80%, 65%)" />
<circle cx="286" cy="402" r="4" fill="hsl(153, 80%, 65%)" />
<circle cx="312" cy="393" r="4" fill="hsl(162, 80%, 65%)" />
<circle cx="231" cy="143" r="5" fill="hsl(171, 80%, 65%)" />
<circle cx="108" cy="386" r="7" fill="hsl(180, 80%, 65%)" />
<circle cx="335" cy="353" r="8" fill="hsl(189, 80%, 65%)" />
<circle cx="240" cy="118" r="3" fill="hsl(198, 80%, 65%)" />
<circle cx="94" cy="389" r="2" fill="hsl(207, 80%, 65%)" />
<circle cx="386" cy="168" r="4" fill="hsl(216, 80%, 65%)" />
<circle cx="406" cy="438" r="6" fill="hsl(225, 80%, 65%)" />
<circle cx="418" cy="372" r="7" fill="hsl(234, 80%, 65%)" />
<circle cx="287" cy="351" r="4" fill="hsl(243, 80%, 65%)" />
<circle cx="414" cy="222" r="5" fill="hsl(252, 80%, 65%)" />
<circle cx="255" cy="249" r="4" fill="hsl(261, 80%, 65%)" />
<circle cx="73" cy="200" r="4" fill="hsl(270, 80%, 65%)" />
<circle cx="252" cy="414" r="6" fill="hsl(279, 80%, 65%)" />
<circle cx="261" cy="187" r="5" fill="hsl(288, 80%, 65%)" />
<circle cx="342" cy="212" r="5" fill="hsl(297, 80%, 65%)" />
<circle cx="270" cy="251" r="7" fill="hsl(306, 80%, 65%)" />
<circle cx="112" cy="377" r="7" fill="hsl(315, 80%, 65%)" />
<circle cx="191" cy="317" r="6" fill="hsl(324, 80%, 65%)" />
<circle cx="173" cy="312" r="4" fill="hsl(333, 80%, 65%)" />
<circle cx="418" cy="172" r="2" fill="hsl(342, 80%, 65%)" />
<circle cx="323" cy="145" r="8" fill="hsl(351, 80%, 65%)" />
<circle cx="110" cy="164" r="5" fill="hsl(0, 80%, 65%)" />
<circle cx="315" cy="283" r="5" fill="hsl(9, 80%, 65%)" />
<circle cx="347" cy="123" r="5" fill="hsl(18, 80%, 65%)" />
<circle cx="281" cy="159" r="4" fill="hsl(27, 80%, 65%)" />
<circle cx="137" cy="136" r="6" fill="hsl(36, 80%, 65%)" />
<circle cx="393" cy="94" r="2" fill="hsl(45, 80%, 65%)" />
<circle cx="175" cy="104" r="7" fill="hsl(54, 80%, 65%)" />
<circle cx="379" cy="327" r="6" fill="hsl(63, 80%, 65%)" />
<circle cx="279" cy="391" r="2" fill="hsl(72, 80%, 65%)" />
<circle cx="101" cy="102" r="4" fill="hsl(81, 80%, 65%)" />
<circle cx="235" cy="80" r="5" fill="hsl(90, 80%, 65%)" />
<circle cx="154" cy="169" r="4" fill="hsl(99, 80%, 65%)" />
<circle cx="83" cy="350" r="3" fill="hsl(108, 80%, 65%)" />
<circle cx="217" cy="225" r="7" fill="hsl(117, 80%, 65%)" />
<circle cx="273" cy="372" r="4" fill="hsl(126, 80%, 65%)" />
<circle cx="325" cy="310" r="6" fill="hsl(135, 80%, 65%)" />
<circle cx="240" cy="372" r="8" fill="hsl(144, 80%, 65%)" />
<circle cx="427" cy="280" r="2" fill="hsl(153, 80%, 65%)" />
<circle cx="437" cy="317" r="4" fill="hsl(162, 80%, 65%)" />
<circle cx="128" cy="315" r="2" fill="hsl(171, 80%, 65%)" />
<circle cx="253" cy="123" r="2" fill="hsl(180, 80%, 65%)" />
<circle cx="399" cy="433" r="2" fill="hsl(189, 80%, 65%)" />
<circle cx="239" cy="297" r="8" fill="hsl(198, 80%, 65%)" />
<circle cx="170" cy="380" r="7" fill="hsl(207, 80%, 65%)" />
<circle cx="372" cy="140" r="3" fill="hsl(216, 80%, 65%)" />
<circle cx="91" cy="207" r="7" fill="hsl(225, 80%, 65%)" />
<circle cx="254" cy="311" r="3" fill="hsl(234, 80%, 65%)" />
<circle cx="383" cy="109" r="4" fill="hsl(243, 80%, 65%)" />
<circle cx="235" cy="103" r="5" fill="hsl(252, 80%, 65%)" />
<circle cx="86" cy="140" r="4" fill="hsl(261, 80%, 65%)" />
<circle cx="234" cy="104" r="6" fill="hsl(270, 80%, 65%)" />
<circle cx="117" cy="188" r="8" fill="hsl(279, 80%, 65%)" />
<circle cx="157" cy="311" r="8" fill="hsl(288, 80%, 65%)" />
<circle cx="315" cy="376" r="3" fill="hsl(297, 80%, 65%)" />
<circle cx="124" cy="246" r="3" fill="hsl(306, 80%, 65%)" />
<circle cx="233" cy="402" r="7" fill="hsl(315, 80%, 65%)" />
<circle cx="251" cy="418" r="5" fill="hsl(324, 80%, 65%)" />
<circle cx="314" cy="348" r="2" fill="hsl(333, 80%, 65%)" />
<circle cx="388" cy="179" r="3" fill="hsl(342, 80%, 65%)" />
<circle cx="323" cy="196" r="7" fill="hsl(351, 80%, 65%)" />
<circle cx="331" cy="205" r="2" fill="hsl(0, 80%, 65%)" />
<circle cx="355" cy="277" r="6" fill="hsl(9, 80%, 65%)" />
<circle cx="307" cy="317" r="3" fill="hsl(18, 80%, 65%)" />
<circle cx="133" cy="256" r="6" fill="hsl(27, 80%, 65%)" />
<circle cx="409" cy="330" r="2" fill="hsl(36, 80%, 65%)" />
<circle cx="202" cy="382" r="8" fill="hsl(45, 80%, 65%)" />
<circle cx="331" cy="428" r="2" fill="hsl(54, 80%, 65%)" />
<circle cx="91" cy="140" r="8" fill="hsl(63, 80%, 65%)" />
<circle cx="323" cy="165" r="6" fill="hsl(72, 80%, 65%)" />
<circle cx="372" cy="89" r="6" fill="hsl(81, 80%, 65%)" />
<circle cx="234" cy="113" r="4" fill="hsl(90, 80%, 65%)" />
<circle cx="258" cy="107" r="4" fill="hsl(99, 80%, 65%)" />
<circle cx="159" cy="94" r="6" fill="hsl(108, 80%, 65%)" />
<circle cx="237" cy="333" r="3" fill="hsl(117, 80%, 65%)" />
<circle cx="167" cy="211" r="7" fill="hsl(126, 80%, 65%)" />
<circle cx="379" cy="227" r="2" fill="hsl(135, 80%, 65%)" />
<circle cx="438" cy="310" r="2" fill="hsl(144, 80%, 65%)" />
<circle cx="183" cy="276" r="6" fill="hsl(153, 80%, 65%)" />
<circle cx="302" cy="97" r="4" fill="hsl(162, 80%, 65%)" />
<circle cx="368" cy="423" r="5" fill="hsl(171, 80%, 65%)" />
<circle cx="94" cy="378" r="3" fill="hsl(180, 80%, 65%)" />
<circle cx="205" cy="352" r="3" fill="hsl(189, 80%, 65%)" />
<circle cx="183" cy="371" r="6" fill="hsl(198, 80%, 65%)" />
<circle cx="393" cy="304" r="6" fill="hsl(207, 80%, 65%)" />
<circle cx="142" cy="392" r="6" fill="hsl(216, 80%, 65%)" />
<circle cx="85" cy="368" r="4" fill="hsl(225, 80%, 65%)" />
<circle cx="71" cy="121" r="7" fill="hsl(234, 80%, 65%)" />
<circle cx="181" cy="413" r="6" fill="hsl(243, 80%, 65%)" />
<circle cx="165" cy="347" r="6" fill="hsl(252, 80%, 65%)" />
<circle cx="82" cy="338" r="8" fill="hsl(261, 80%, 65%)" />
<circle cx="70" cy="269" r="8" fill="hsl(270, 80%, 65%)" />
<circle cx="375" cy="180" r="7" fill="hsl(279, 80%, 65%)" />
<circle cx="425" cy="269" r="8" fill="hsl(288, 80%, 65%)" />
<circle cx="309" cy="354" r="8" fill="hsl(297, 80%, 65%)" />
<circle cx="384" cy="423" r="8" fill="hsl(306, 80%, 65%)" />
<circle cx="433" cy="212" r="2" fill="hsl(315, 80%, 65%)" />
<circle cx="112" cy="401" r="4" fill="hsl(324, 80%, 65%)" />
<circle cx="251" cy="402" r="3" fill="hsl(333, 80%, 65%)" />
<circle cx="436" cy="309" r="2" fill="hsl(342, 80%, 65%)" />
<circle cx="424" cy="169" r="7" fill="hsl(351, 80%, 65%)" />
<circle cx="205" cy="111" r="8" fill="hsl(0, 80%, 65%)" />
<circle cx="281" cy="244" r="3" fill="hsl(9, 80%, 65%)" />
<circle cx="351" cy="142" r="2" fill="hsl(18, 80%, 65%)" />
<circle cx="99" cy="384" r="4" fill="hsl(27, 80%, 65%)" />
<circle cx="425" cy="278" r="5" fill="hsl(36, 80%, 65%)" />
<circle cx="377" cy="367" r="3" fill="hsl(45, 80%, 65%)" />
<circle cx="153" cy="96" r="4" fill="hsl(54, 80%, 65%)" />
<circle cx="285" cy="435" r="4" fill="hsl(63, 80%, 65%)" />
<circle cx="174" cy="227" r="8" fill="hsl(72, 80%, 65%)" />
<circle cx="369" cy="253" r="4" fill="hsl(81, 80%, 65%)" />
<circle cx="413" cy="278" r="8" fill="hsl(90, 80%, 65%)" />
<circle cx="151" cy="266" r="5" fill="hsl(99, 80%, 65%)" />
<circle cx="386" cy="432" r="2" fill="hsl(108, 80%, 65%)" />
<circle cx="283" cy="260" r="3" fill="hsl(117, 80%, 65%)" />
<circle cx="89" cy="316" r="7" fill="hsl(126, 80%, 65%)" />
<circle cx="246" cy="415" r="6" fill="hsl(135, 80%, 65%)" />
<circle cx="196" cy="81" r="3" fill="hsl(144, 80%, 65%)" />
<circle cx="305" cy="75" r="3" fill="hsl(153, 80%, 65%)" />
<circle cx="252" cy="95" r="8" fill="hsl(162, 80%, 65%)" />
<circle cx="382" cy="324" r="6" fill="hsl(171, 80%, 65%)" />
<line x1="192" y1="61" x2="191" y2="85" stroke="#223344" stroke-width="1"/>
<line x1="143" y1="366" x2="158" y2="408" stroke="#223344" stroke-width="1"/>
<line x1="265" y1="193" x2="297" y2="116" stroke="#223344" stroke-width="1"/>
<line x1="190" y1="425" x2="210" y2="346" stroke="#223344" stroke-width="1"/>
<line x1="155" y1="220" x2="157" y2="286" stroke="#223344" stroke-width="1"/>
<line x1="337" y1="122" x2="271" y2="136" stroke="#223344" stroke-width="1"/>
<line x1="124" y1="118" x2="176" y2="156" stroke="#223344" stroke-width="1"/>
<line x1="183" y1="315" x2="148" y2="322" stroke="#223344" stroke-width="1"/>
<line x1="409" y1="183" x2="399" y2="201" stroke="#223344" stroke-width="1"/>
<line x1="111" y1="93" x2="106" y2="127" stroke="#223344" stroke-width="1"/>
<line x1="119" y1="74" x2="127" y2="97" stroke="#223344" stroke-width="1"/>
<line x1="64" y1="203" x2="46" y2="274" stroke="#223344" stroke-width="1"/>
<line x1="280" y1="448" x2="251" y2="394" stroke="#223344" stroke-width="1"/>
<line x1="269" y1="156" x2="294" y2="108" stroke="#223344" stroke-width="1"/>
<line x1="109" y1="310" x2="109" y2="361" stroke="#223344" stroke-width="1"/>
<line x1="247" y1="267" x2="216" y2="288" stroke="#223344" stroke-width="1"/>
<line x1="77" y1="331" x2="14" y2="331" stroke="#223344" stroke-width="1"/>
<line x1="333" y1="140" x2="263" y2="114" stroke="#223344" stroke-width="1"/>
<line x1="160" y1="171" x2="193" y2="210" stroke="#223344" stroke-width="1"/>
<line x1="231" y1="83" x2="186" y2="132" stroke="#223344" stroke-width="1"/>
<line x1="448" y1="110" x2="430" y2="32" stroke="#223344" stroke-width="1"/>
<line x1="291" y1="142" x2="362" y2="142" stroke="#223344" stroke-width="1"/>
<line x1="261" y1="203" x2="212" y2="124" stroke="#223344" stroke-width="1"/>
<line x1="392" y1="319" x2="390" y2="295" stroke="#223344" stroke-width="1"/>
</svg>
