<svg xmlns="http://www.w3.org/2000/svg" width="512" height="512" viewBox="0 0 512 512">
<rect width="100%" height="100%" fill="#0b1020"/>
<circle cx="355" cy="89" r="50" fill="#f8f3c9" opacity="0.95" />
<circle cx="258.0" cy="83.0" r="2.7" fill="white" />
<circle cx="72.0" cy="49.0" r="2.1" fill="white" />
<circle cx="257.0" cy="54.0" r="1.5" fill="white" />
<circle cx="205.0" cy="173.0" r="3.4" fill="white" />
<circle cx="342.0" cy="30.0" r="1.6" fill="white" />
<circle cx="438.0" cy="156.0" r="3.4" fill="white" />
<circle cx="453.0" cy="36.0" r="3.1" fill="white" />
<circle cx="312.0" cy="37.0" r="2.9" fill="white" />
<circle cx="21.0" cy="55.0" r="3.4" fill="white" />
<path d="M 20 430 C 104 430, 168 443, 313 440 S 450 402, 512 432" stroke="#5dade2" stroke-width="6" fill="none" opacity="0.85" />
<line x1="0" y1="410" x2="512" y2="410" stroke="#445566" stroke-width="3" />
<polygon points="211,352 251,292 291,312 311,282 331,302 343,342 311,364 261,368" fill="#1e1e1e" />
<polygon points="286,292 299,270 309,294" fill="#1e1e1e" />
<line x1="341" y1="337" x2="371" y2="312" stroke="#1e1e1e" stroke-width="6" />
</svg>
