<svg xmlns="http://www.w3.org/2000/svg" width="512" height="512" viewBox="0 0 512 512">
<rect width="100%" height="100%" fill="#0b1020"/>
<circle cx="411" cy="82" r="43" fill="#f8f3c9" opacity="0.95" />
<circle cx="139.0" cy="85.0" r="3.5" fill="white" />
<circle cx="234.0" cy="123.0" r="3.0" fill="white" />
<circle cx="132.0" cy="162.0" r="2.6" fill="white" />
<circle cx="388.0" cy="55.0" r="2.1" fill="white" />
<circle cx="311.0" cy="61.0" r="1.7" fill="white" />
<circle cx="91.0" cy="136.0" r="2.2" fill="white" />
<circle cx="174.0" cy="77.0" r="2.8" fill="white" />
<path d="M 20 430 C 114 429, 175 459, 312 428 S 450 395, 512 425" stroke="#5dade2" stroke-width="6" fill="none" opacity="0.85" />
<line x1="0" y1="407" x2="512" y2="407" stroke="#445566" stroke-width="3" />
<polygon points="142,365 182,305 222,325 242,295 262,315 274,355 242,377 192,381" fill="#1e1e1e" />
<polygon points="217,305 230,283 240,307" fill="#1e1e1e" />
<line x1="272" y1="350" x2="302" y2="325" stroke="#1e1e1e" stroke-width="6" />
</svg>
