<svg xmlns="http://www.w3.org/2000/svg" width="512" height="512" viewBox="0 0 512 512">
<rect width="100%" height="100%" fill="#0b1020"/>
<circle cx="422" cy="69" r="55" fill="#f8f3c9" opacity="0.95" />
<circle cx="318.0" cy="66.0" r="1.6" fill="white" />
<circle cx="205.0" cy="22.0" r="2.1" fill="white" />
<circle cx="253.0" cy="152.0" r="1.8" fill="white" />
<circle cx="384.0" cy="30.0" r="2.6" fill="white" />
<circle cx="76.0" cy="98.0" r="3.0" fill="white" />
<circle cx="230.0" cy="152.0" r="2.0" fill="white" />
<circle cx="455.0" cy="80.0" r="2.3" fill="white" />
<circle cx="186.0" cy="43.0" r="3.3" fill="white" />
<circle cx="124.0" cy="157.0" r="2.0" fill="white" />
<circle cx="298.0" cy="52.0" r="3.4" fill="white" />
<path d="M 20 430 C 112 423, 178 451, 301 439 S 450 394, 512 424" stroke="#5dade2" stroke-width="8" fill="none" opacity="0.85" />
<line x1="0" y1="389" x2="512" y2="389" stroke="#445566" stroke-width="4" />
<polygon points="194,358 234,298 274,318 294,288 314,308 326,348 294,370 244,374" fill="#1e1e1e" />
<polygon points="269,298 282,276 292,300" fill="#1e1e1e" />
<line x1="324" y1="343" x2="354" y2="318" stroke="#1e1e1e" stroke-width="6" />
</svg>
