<svg xmlns="http://www.w3.org/2000/svg" width="512" height="512" viewBox="0 0 512 512">
<rect width="100%" height="100%" fill="#0b1020"/>
<circle cx="365" cy="76" r="51" fill="#f8f3c9" opacity="0.95" />
<circle cx="383.0" cy="139.0" r="3.4" fill="white" />
<circle cx="23.0" cy="110.0" r="1.8" fill="white" />
<circle cx="88.0" cy="136.0" r="3.3" fill="white" />
<circle cx="88.0" cy="143.0" r="2.1" fill="white" />
<circle cx="476.0" cy="101.0" r="2.5" fill="white" />
<circle cx="114.0" cy="135.0" r="1.7" fill="white" />
<circle cx="373.0" cy="167.0" r="2.3" fill="white" />
<path d="M 20 430 C 105 417, 174 457, 285 435 S 450 390, 512 420" stroke="#5dade2" stroke-width="7" fill="none" opacity="0.85" />
<line x1="0" y1="408" x2="512" y2="408" stroke="#445566" stroke-width="3" />
<polygon points="169,357 209,297 249,317 269,287 289,307 301,347 269,369 219,373" fill="#1e1e1e" />
<polygon points="244,297 257,275 267,299" fill="#1e1e1e" />
<line x1="299" y1="342" x2="329" y2="317" stroke="#1e1e1e" stroke-width="6" />
</svg>
