<svg xmlns="http://www.w3.org/2000/svg" width="512" height="512" viewBox="0 0 512 512">
<rect width="100%" height="100%" fill="#0b1020"/>
<circle cx="344" cy="107" r="42" fill="#f8f3c9" opacity="0.95" />
<circle cx="475.0" cy="152.0" r="2.6" fill="white" />
<circle cx="483.0" cy="176.0" r="2.6" fill="white" />
<circle cx="255.0" cy="34.0" r="1.6" fill="white" />
<circle cx="225.0" cy="133.0" r="2.5" fill="white" />
<circle cx="301.0" cy="155.0" r="3.2" fill="white" />
<circle cx="118.0" cy="180.0" r="2.0" fill="white" />
<circle cx="439.0" cy="32.0" r="1.7" fill="white" />
<circle cx="219.0" cy="126.0" r="2.4" fill="white" />
<circle cx="363.0" cy="135.0" r="1.6" fill="white" />
<circle cx="258.0" cy="40.0" r="2.3" fill="white" />
<path d="M 20 430 C 100 429, 168 456, 310 432 S 450 398, 512 428" stroke="#5dade2" stroke-width="6" fill="none" opacity="0.85" />
<line x1="0" y1="398" x2="512" y2="398" stroke="#445566" stroke-width="3" />
<polygon points="144,357 184,297 224,317 244,287 264,307 276,347 244,369 194,373" fill="#1e1e1e" />
<polygon points="219,297 232,275 242,299" fill="#1e1e1e" />
<line x1="274" y1="342" x2="304" y2="317" stroke="#1e1e1e" stroke-width="6" />
</svg>
