<svg xmlns="http://www.w3.org/2000/svg" width="512" height="512" viewBox="0 0 512 512">
<rect width="100%" height="100%" fill="#0b1020"/>
<circle cx="340" cy="95" r="54" fill="#f8f3c9" opacity="0.95" />
<circle cx="175.0" cy="29.0" r="1.9" fill="white" />
<circle cx="59.0" cy="42.0" r="2.6" fill="white" />
<circle cx="467.0" cy="66.0" r="2.1" fill="white" />
<circle cx="311.0" cy="123.0" r="3.0" fill="white" />
<circle cx="489.0" cy="145.0" r="3.1" fill="white" />
<circle cx="114.0" cy="141.0" r="3.4" fill="white" />
<circle cx="60.0" cy="81.0" r="2.2" fill="white" />
<circle cx="62.0" cy="134.0" r="2.2" fill="white" />
<circle cx="256.0" cy="177.0" r="3.3" fill="white" />
<path d="M 20 430 C 133 419, 173 454, 290 430 S 450 395, 512 425" stroke="#5dade2" stroke-width="5" fill="none" opacity="0.85" />
<line x1="0" y1="402" x2="512" y2="402" stroke="#445566" stroke-width="4" />
<polygon points="161,365 201,305 241,325 261,295 281,315 293,355 261,377 211,381" fill="#1e1e1e" />
<polygon points="236,305 249,283 259,307" fill="#1e1e1e" />
<line x1="291" y1="350" x2="321" y2="325" stroke="#1e1e1e" stroke-width="6" />
</svg>
