<svg xmlns="http://www.w3.org/2000/svg" width="512" height="512" viewBox="0 0 512 512">
<rect width="100%" height="100%" fill="#0b1020"/>
<circle cx="399" cy="65" r="52" fill="#f8f3c9" opacity="0.95" />
<circle cx="53.0" cy="82.0" r="1.6" fill="white" />
<circle cx="405.0" cy="97.0" r="1.7" fill="white" />
<circle cx="277.0" cy="50.0" r="2.5" fill="white" />
<circle cx="222.0" cy="133.0" r="2.4" fill="white" />
<circle cx="161.0" cy="93.0" r="1.9" fill="white" />
<circle cx="110.0" cy="58.0" r="2.4" fill="white" />
<circle cx="348.0" cy="55.0" r="1.9" fill="white" />
<circle cx="41.0" cy="82.0" r="2.5" fill="white" />
<circle cx="480.0" cy="84.0" r="3.1" fill="white" />
<circle cx="152.0" cy="38.0" r="3.2" fill="white" />
<circle cx="288.0" cy="178.0" r="2.9" fill="white" />
<circle cx="226.0" cy="31.0" r="1.9" fill="white" />
<circle cx="184.0" cy="122.0" r="3.2" fill="white" />
<path d="M 20 430 C 104 416, 193 447, 302 436 S 450 391, 512 421" stroke="#5dade2" stroke-width="7" fill="none" opacity="0.85" />
<line x1="0" y1="404" x2="512" y2="404" stroke="#445566" stroke-width="4" />
<polygon points="171,358 211,298 251,318 271,288 291,308 303,348 271,370 221,374" fill="#1e1e1e" />
<polygon points="246,298 259,276 269,300" fill="#1e1e1e" />
<line x1="301" y1="343" x2="331" y2="318" stroke="#1e1e1e" stroke-width="6" />
</svg>
