<svg xmlns="http://www.w3.org/2000/svg" width="512" height="512" viewBox="0 0 512 512">
<rect width="100%" height="100%" fill="#0b1020"/>
<circle cx="453" cy="121" r="46" fill="#f8f3c9" opacity="0.95" />
<circle cx="308.0" cy="82.0" r="2.4" fill="white" />
<circle cx="267.0" cy="165.0" r="1.6" fill="white" />
<circle cx="478.0" cy="59.0" r="2.3" fill="white" />
<circle cx="288.0" cy="123.0" r="3.4" fill="white" />
<circle cx="155.0" cy="92.0" r="2.5" fill="white" />
<circle cx="204.0" cy="47.0" r="2.1" fill="white" />
<circle cx="173.0" cy="171.0" r="2.5" fill="white" />
<circle cx="205.0" cy="161.0" r="2.9" fill="white" />
<circle cx="387.0" cy="98.0" r="1.6" fill="white" />
<circle cx="258.0" cy="176.0" r="1.8" fill="white" />
<circle cx="276.0" cy="80.0" r="2.4" fill="white" />
<circle cx="394.0" cy="112.0" r="1.7" fill="white" />
<path d="M 20 430 C 104 428, 197 459, 285 434 S 450 404, 512 434" stroke="#5dade2" stroke-width="8" fill="none" opacity="0.85" />
<line x1="0" y1="405" x2="512" y2="405" stroke="#445566" stroke-width="3" />
<polygon points="141,350 181,290 221,310 241,280 261,300 273,340 241,362 191,366" fill="#1e1e1e" />
<polygon points="216,290 229,268 239,292" fill="#1e1e1e" />
<line x1="271" y1="335" x2="301" y2="310" stroke="#1e1e1e" stroke-width="6" />
</svg>
