<svg xmlns="http://www.w3.org/2000/svg" width="512" height="512" viewBox="0 0 512 512">
<rect width="100%" height="100%" fill="#0b1020"/>
<circle cx="446" cy="90" r="42" fill="#f8f3c9" opacity="0.95" />
<circle cx="433.0" cy="52.0" r="2.0" fill="white" />
<circle cx="174.0" cy="168.0" r="2.4" fill="white" />
<circle cx="201.0" cy="137.0" r="2.8" fill="white" />
<circle cx="51.0" cy="82.0" r="2.6" fill="white" />
<circle cx="69.0" cy="31.0" r="1.6" fill="white" />
<circle cx="298.0" cy="47.0" r="2.3" fill="white" />
<circle cx="149.0" cy="150.0" r="2.2" fill="white" />
<circle cx="114.0" cy="90.0" r="2.3" fill="white" />
<circle cx="104.0" cy="170.0" r="3.0" fill="white" />
<circle cx="77.0" cy="58.0" r="2.4" fill="white" />
<circle cx="120.0" cy="23.0" r="1.8" fill="white" />
<circle cx="80.0" cy="27.0" r="2.9" fill="white" />
<circle cx="212.0" cy="22.0" r="1.8" fill="white" />
<path d="M 20 430 C 113 410, 165 454, 286 420 S 450 379, 512 409" stroke="#5dade2" stroke-width="5" fill="none" opacity="0.85" />
<line x1="0" y1="394" x2="512" y2="394" stroke="#445566" stroke-width="4" />
<polygon points="149,354 189,294 229,314 249,284 269,304 281,344 249,366 199,370" fill="#1e1e1e" />
<polygon points="224,294 237,272 247,296" fill="#1e1e1e" />
<line x1="279" y1="339" x2="309" y2="314" stroke="#1e1e1e" stroke-width="6" />
</svg>
