<svg xmlns="http://www.w3.org/2000/svg" width="512" height="512" viewBox="0 0 512 512">
<rect width="100%" height="100%" fill="#0b1020"/>
<circle cx="436" cy="87" r="49" fill="#f8f3c9" opacity="0.95" />
<circle cx="427.0" cy="22.0" r="3.2" fill="white" />
<circle cx="398.0" cy="91.0" r="3.1" fill="white" />
<circle cx="203.0" cy="68.0" r="3.3" fill="white" />
<circle cx="470.0" cy="106.0" r="1.7" fill="white" />
<circle cx="447.0" cy="151.0" r="3.2" fill="white" />
<path d="M 20 430 C 135 424, 191 449, 288 424 S 450 375, 512 405" stroke="#5dade2" stroke-width="8" fill="none" opacity="0.85" />
<line x1="0" y1="394" x2="512" y2="394" stroke="#445566" stroke-width="2" />
<polygon points="183,363 223,303 263,323 283,293 303,313 315,353 283,375 233,379" fill="#1e1e1e" />
<polygon points="258,303 271,281 281,305" fill="#1e1e1e" />
<line x1="313" y1="348" x2="343" y2="323" stroke="#1e1e1e" stroke-width="6" />
</svg>
