<svg xmlns="http://www.w3.org/2000/svg" width="512" height="512" viewBox="0 0 512 512">
<rect width="100%" height="100%" fill="#0b1020"/>
<circle cx="403" cy="79" r="52" fill="#f8f3c9" opacity="0.95" />
<circle cx="52.0" cy="169.0" r="2.6" fill="white" />
<circle cx="200.0" cy="87.0" r="3.2" fill="white" />
<circle cx="84.0" cy="147.0" r="2.5" fill="white" />
<circle cx="232.0" cy="36.0" r="2.2" fill="white" />
<circle cx="420.0" cy="167.0" r="2.3" fill="white" />
<circle cx="363.0" cy="53.0" r="1.9" fill="white" />
<circle cx="290.0" cy="109.0" r="3.3" fill="white" />
<circle cx="191.0" cy="111.0" r="1.9" fill="white" />
<circle cx="262.0" cy="76.0" r="1.7" fill="white" />
<circle cx="258.0" cy="131.0" r="2.9" fill="white" />
<path d="M 20 430 C 120 416, 190 440, 289 421 S 450 392, 512 422" stroke="#5dade2" stroke-width="6" fill="none" opacity="0.85" />
<line x1="0" y1="385" x2="512" y2="385" stroke="#445566" stroke-width="2" />
<polygon points="177,361 217,301 257,321 277,291 297,311 309,351 277,373 227,377" fill="#1e1e1e" />
<polygon points="252,301 265,279 275,303" fill="#1e1e1e" />
<line x1="307" y1="346" x2="337" y2="321" stroke="#1e1e1e" stroke-width="6" />
</svg>
