<svg xmlns="http://www.w3.org/2000/svg" width="512" height="512" viewBox="0 0 512 512">
<rect width="100%" height="100%" fill="#0b1020"/>
<circle cx="441" cy="122" r="53" fill="#f8f3c9" opacity="0.95" />
<circle cx="423.0" cy="99.0" r="3.4" fill="white" />
<circle cx="24.0" cy="97.0" r="2.1" fill="white" />
<circle cx="150.0" cy="100.0" r="2.9" fill="white" />
<circle cx="313.0" cy="27.0" r="1.8" fill="white" />
<circle cx="418.0" cy="69.0" r="3.0" fill="white" />
<circle cx="346.0" cy="120.0" r="2.3" fill="white" />
<circle cx="289.0" cy="152.0" r="3.4" fill="white" />
<circle cx="81.0" cy="127.0" r="2.8" fill="white" />
<path d="M 20 430 C 120 430, 197 441, 306 432 S 450 386, 512 416" stroke="#5dade2" stroke-width="7" fill="none" opacity="0.85" />
<line x1="0" y1="402" x2="512" y2="402" stroke="#445566" stroke-width="3" />
<polygon points="143,355 183,295 223,315 243,285 263,305 275,345 243,367 193,371" fill="#1e1e1e" />
<polygon points="218,295 231,273 241,297" fill="#1e1e1e" />
<line x1="273" y1="340" x2="303" y2="315" stroke="#1e1e1e" stroke-width="6" />
</svg>
