<svg xmlns="http://www.w3.org/2000/svg" width="512" height="512" viewBox="0 0 512 512">
<rect width="100%" height="100%" fill="#0b1020"/>
<circle cx="404" cy="100" r="44" fill="#f8f3c9" opacity="0.95" />
<circle cx="240.0" cy="178.0" r="2.2" fill="white" />
<circle cx="280.0" cy="59.0" r="2.6" fill="white" />
<circle cx="58.0" cy="53.0" r="3.4" fill="white" />
<circle cx="479.0" cy="37.0" r="3.0" fill="white" />
<circle cx="272.0" cy="123.0" r="2.3" fill="white" />
<circle cx="90.0" cy="111.0" r="3.2" fill="white" />
<circle cx="300.0" cy="71.0" r="2.5" fill="white" />
<circle cx="411.0" cy="162.0" r="2.2" fill="white" />
<circle cx="24.0" cy="179.0" r="1.9" fill="white" />
<circle cx="52.0" cy="158.0" r="1.7" fill="white" />
<circle cx="272.0" cy="137.0" r="2.6" fill="white" />
<circle cx="160.0" cy="129.0" r="3.1" fill="white" />
<circle cx="151.0" cy="91.0" r="3.1" fill="white" />
<path d="M 20 430 C 131 413, 188 450, 310 435 S 450 400, 512 430" stroke="#5dade2" stroke-width="8" fill="none" opacity="0.85" />
<line x1="0" y1="394" x2="512" y2="394" stroke="#445566" stroke-width="2" />
<polygon points="200,360 240,300 280,320 300,290 320,310 332,350 300,372 250,376" fill="#1e1e1e" />
<polygon points="275,300 288,278 298,302" fill="#1e1e1e" />
<line x1="330" y1="345" x2="360" y2="320" stroke="#1e1e1e" stroke-width="6" />
</svg>
