<svg xmlns="http://www.w3.org/2000/svg" width="512" height="512" viewBox="0 0 512 512">
<rect width="100%" height="100%" fill="black"/>
<circle cx="256.00" cy="256.00" r="2" fill="hsl(0, 80%, 65%)" />
<circle cx="250.30" cy="261.22" r="3" fill="hsl(5, 80%, 65%)" />
<circle cx="256.95" cy="245.12" r="4" fill="hsl(10, 80%, 65%)" />
<circle cx="264.14" cy="266.62" r="5" fill="hsl(15, 80%, 65%)" />
<circle cx="240.79" cy="253.31" r="6" fill="hsl(20, 80%, 65%)" />
<circle cx="270.57" cy="246.73" r="2" fill="hsl(25, 80%, 65%)" />
<circle cx="251.09" cy="274.27" r="3" fill="hsl(30, 80%, 65%)" />
<circle cx="246.58" cy="237.86" r="4" fill="hsl(35, 80%, 65%)" />
<circle cx="276.52" cy="263.49" r="5" fill="hsl(40, 80%, 65%)" />
<circle cx="234.58" cy="264.84" r="6" fill="hsl(45, 80%, 65%)" />
<circle cx="266.35" cy="233.88" r="2" fill="hsl(50, 80%, 65%)" />
<circle cx="263.67" cy="280.44" r="3" fill="hsl(55, 80%, 65%)" />
<circle cx="232.85" cy="242.58" r="4" fill="hsl(60, 80%, 65%)" />
<circle cx="283.20" cy="250.02" r="5" fill="hsl(65, 80%, 65%)" />
<circle cx="239.38" cy="279.64" r="6" fill="hsl(70, 80%, 65%)" />
<circle cx="252.16" cy="226.33" r="2" fill="hsl(75, 80%, 65%)" />
<circle cx="279.62" cy="275.91" r="3" fill="hsl(80, 80%, 65%)" />
<circle cx="224.18" cy="257.32" r="4" fill="hsl(85, 80%, 65%)" />
<circle cx="279.23" cy="232.88" r="5" fill="hsl(90, 80%, 65%)" />
<circle cx="254.44" cy="289.63" r="6" fill="hsl(95, 80%, 65%)" />
<circle cx="233.87" cy="229.48" r="2" fill="hsl(100, 80%, 65%)" />
<circle cx="291.08" cy="260.72" r="3" fill="hsl(105, 80%, 65%)" />
<circle cx="226.26" cy="276.69" r="4" fill="hsl(110, 80%, 65%)" />
<circle cx="264.13" cy="219.86" r="5" fill="hsl(115, 80%, 65%)" />
<circle cx="274.81" cy="288.83" r="6" fill="hsl(120, 80%, 65%)" />
<circle cx="219.21" cy="244.26" r="2" fill="hsl(125, 80%, 65%)" />
<circle cx="291.75" cy="239.48" r="3" fill="hsl(130, 80%, 65%)" />
<circle cx="240.51" cy="293.02" r="4" fill="hsl(135, 80%, 65%)" />
<circle cx="242.17" cy="217.54" r="5" fill="hsl(140, 80%, 65%)" />
<circle cx="292.82" cy="275.35" r="6" fill="hsl(145, 80%, 65%)" />
<circle cx="215.09" cy="266.78" r="2" fill="hsl(150, 80%, 65%)" />
<circle cx="279.26" cy="219.83" r="3" fill="hsl(155, 80%, 65%)" />
<circle cx="263.40" cy="299.06" r="4" fill="hsl(160, 80%, 65%)" />
<circle cx="220.92" cy="228.83" r="5" fill="hsl(165, 80%, 65%)" />
<circle cx="300.88" cy="252.28" r="6" fill="hsl(170, 80%, 65%)" />
<circle cx="224.97" cy="289.54" r="2" fill="hsl(175, 80%, 65%)" />
<circle cx="256.23" cy="209.66" r="3" fill="hsl(180, 80%, 65%)" />
<circle cx="287.57" cy="290.80" r="4" fill="hsl(185, 80%, 65%)" />
<circle cx="208.59" cy="251.61" r="5" fill="hsl(190, 80%, 65%)" />
<circle cx="294.42" cy="226.84" r="6" fill="hsl(195, 80%, 65%)" />
<circle cx="247.26" cy="304.06" r="2" fill="hsl(200, 80%, 65%)" />
<circle cx="229.66" cy="214.14" r="3" fill="hsl(205, 80%, 65%)" />
<circle cx="304.28" cy="269.23" r="4" fill="hsl(210, 80%, 65%)" />
<circle cx="210.94" cy="279.13" r="5" fill="hsl(215, 80%, 65%)" />
<circle cx="273.81" cy="207.96" r="6" fill="hsl(220, 80%, 65%)" />
<circle cx="275.54" cy="303.99" r="2" fill="hsl(225, 80%, 65%)" />
<circle cx="208.66" cy="233.56" r="3" fill="hsl(230, 80%, 65%)" />
<circle cx="306.60" cy="240.40" r="4" fill="hsl(235, 80%, 65%)" />
<circle cx="228.94" cy="302.17" r="5" fill="hsl(240, 80%, 65%)" />
<circle cx="244.65" cy="203.14" r="6" fill="hsl(245, 80%, 65%)" />
<circle cx="300.53" cy="287.63" r="2" fill="hsl(250, 80%, 65%)" />
<circle cx="201.26" cy="262.82" r="3" fill="hsl(255, 80%, 65%)" />
<circle cx="292.10" cy="213.59" r="4" fill="hsl(260, 80%, 65%)" />
<circle cx="258.05" cy="312.19" r="5" fill="hsl(265, 80%, 65%)" />
<circle cx="216.16" cy="215.57" r="6" fill="hsl(270, 80%, 65%)" />
<circle cx="313.21" cy="258.93" r="2" fill="hsl(275, 80%, 65%)" />
<circle cx="211.44" cy="292.82" r="3" fill="hsl(280, 80%, 65%)" />
<circle cx="264.06" cy="198.24" r="4" fill="hsl(285, 80%, 65%)" />
<circle cx="289.36" cy="304.45" r="5" fill="hsl(290, 80%, 65%)" />
<circle cx="198.18" cy="242.70" r="6" fill="hsl(295, 80%, 65%)" />
<circle cx="308.06" cy="226.51" r="2" fill="hsl(300, 80%, 65%)" />
<circle cx="237.38" cy="313.38" r="3" fill="hsl(305, 80%, 65%)" />
<circle cx="230.76" cy="200.66" r="4" fill="hsl(310, 80%, 65%)" />
<circle cx="312.44" cy="279.94" r="5" fill="hsl(315, 80%, 65%)" />
<circle cx="197.75" cy="276.63" r="6" fill="hsl(320, 80%, 65%)" />
<circle cx="285.24" cy="201.02" r="2" fill="hsl(325, 80%, 65%)" />
<circle cx="271.70" cy="316.76" r="3" fill="hsl(330, 80%, 65%)" />
<circle cx="202.99" cy="221.55" r="4" fill="hsl(335, 80%, 65%)" />
<circle cx="318.83" cy="245.52" r="5" fill="hsl(340, 80%, 65%)" />
<circle cx="216.47" cy="306.53" r="6" fill="hsl(345, 80%, 65%)" />
<circle cx="250.98" cy="191.57" r="2" fill="hsl(350, 80%, 65%)" />
<circle cx="303.56" cy="300.43" r="3" fill="hsl(355, 80%, 65%)" />
<circle cx="190.46" cy="255.36" r="4" fill="hsl(0, 80%, 65%)" />
<circle cx="305.09" cy="211.90" r="5" fill="hsl(5, 80%, 65%)" />
<circle cx="249.55" cy="322.13" r="6" fill="hsl(10, 80%, 65%)" />
<circle cx="215.82" cy="202.52" r="2" fill="hsl(15, 80%, 65%)" />
<circle cx="322.19" cy="268.38" r="3" fill="hsl(20, 80%, 65%)" />
<circle cx="198.46" cy="291.82" r="4" fill="hsl(25, 80%, 65%)" />
<circle cx="274.35" cy="190.30" r="5" fill="hsl(30, 80%, 65%)" />
<circle cx="287.05" cy="317.23" r="6" fill="hsl(35, 80%, 65%)" />
<circle cx="191.34" cy="231.67" r="2" fill="hsl(40, 80%, 65%)" />
<circle cx="320.51" cy="230.10" r="3" fill="hsl(45, 80%, 65%)" />
<circle cx="225.74" cy="319.06" r="4" fill="hsl(50, 80%, 65%)" />
<circle cx="235.60" cy="188.65" r="5" fill="hsl(55, 80%, 65%)" />
<circle cx="316.90" cy="292.09" r="6" fill="hsl(60, 80%, 65%)" />
<circle cx="186.30" cy="270.61" r="2" fill="hsl(65, 80%, 65%)" />
<circle cx="297.77" cy="197.81" r="3" fill="hsl(70, 80%, 65%)" />
<circle cx="264.56" cy="327.54" r="4" fill="hsl(75, 80%, 65%)" />
<circle cx="201.05" cy="208.77" r="5" fill="hsl(80, 80%, 65%)" />
<circle cx="328.83" cy="253.70" r="6" fill="hsl(85, 80%, 65%)" />
<circle cx="203.56" cy="307.18" r="2" fill="hsl(90, 80%, 65%)" />
<circle cx="260.12" cy="182.43" r="3" fill="hsl(95, 80%, 65%)" />
<circle cx="302.91" cy="313.34" r="4" fill="hsl(100, 80%, 65%)" />
<circle cx="182.28" cy="245.35" r="5" fill="hsl(105, 80%, 65%)" />
<circle cx="317.89" cy="213.83" r="6" fill="hsl(110, 80%, 65%)" />
<circle cx="238.76" cy="329.28" r="2" fill="hsl(115, 80%, 65%)" />
<circle cx="219.02" cy="189.97" r="3" fill="hsl(120, 80%, 65%)" />
<circle cx="328.25" cy="279.83" r="4" fill="hsl(125, 80%, 65%)" />
<circle cx="186.28" cy="287.39" r="5" fill="hsl(130, 80%, 65%)" />
<circle cx="286.36" cy="185.40" r="6" fill="hsl(135, 80%, 65%)" />
<circle cx="281.43" cy="328.93" r="2" fill="hsl(140, 80%, 65%)" />
<circle cx="187.64" cy="219.22" r="3" fill="hsl(145, 80%, 65%)" />
<circle cx="331.62" cy="236.85" r="4" fill="hsl(150, 80%, 65%)" />
<circle cx="212.96" cy="321.52" r="5" fill="hsl(155, 80%, 65%)" />
<circle cx="243.42" cy="178.24" r="6" fill="hsl(160, 80%, 65%)" />
<circle cx="318.10" cy="305.07" r="2" fill="hsl(165, 80%, 65%)" />
<circle cx="176.69" cy="261.79" r="3" fill="hsl(170, 80%, 65%)" />
<circle cx="310.83" cy="197.88" r="4" fill="hsl(175, 80%, 65%)" />
<circle cx="254.83" cy="336.26" r="5" fill="hsl(180, 80%, 65%)" />
<circle cx="202.40" cy="195.75" r="6" fill="hsl(185, 80%, 65%)" />
<circle cx="336.59" cy="264.26" r="2" fill="hsl(190, 80%, 65%)" />
<circle cx="190.70" cy="304.56" r="3" fill="hsl(195, 80%, 65%)" />
<circle cx="271.41" cy="175.72" r="4" fill="hsl(200, 80%, 65%)" />
<circle cx="299.05" cy="325.92" r="5" fill="hsl(205, 80%, 65%)" />
<circle cx="176.68" cy="233.43" r="6" fill="hsl(210, 80%, 65%)" />
<circle cx="330.06" cy="218.90" r="2" fill="hsl(215, 80%, 65%)" />
<circle cx="226.32" cy="333.72" r="3" fill="hsl(220, 80%, 65%)" />
<circle cx="225.26" cy="178.31" r="4" fill="hsl(225, 80%, 65%)" />
<circle cx="331.47" cy="292.67" r="5" fill="hsl(230, 80%, 65%)" />
<circle cx="175.24" cy="280.04" r="6" fill="hsl(235, 80%, 65%)" />
<circle cx="299.49" cy="183.42" r="2" fill="hsl(240, 80%, 65%)" />
<circle cx="273.03" cy="339.24" r="3" fill="hsl(245, 80%, 65%)" />
<circle cx="186.93" cy="205.92" r="4" fill="hsl(250, 80%, 65%)" />
<circle cx="341.11" cy="246.24" r="5" fill="hsl(255, 80%, 65%)" />
<circle cx="199.61" cy="320.95" r="6" fill="hsl(260, 80%, 65%)" />
<circle cx="253.69" cy="169.67" r="2" fill="hsl(265, 80%, 65%)" />
<circle cx="316.25" cy="318.35" r="3" fill="hsl(270, 80%, 65%)" />
<circle cx="169.12" cy="250.71" r="4" fill="hsl(275, 80%, 65%)" />
<circle cx="323.91" cy="201.00" r="5" fill="hsl(280, 80%, 65%)" />
<circle cx="243.03" cy="342.76" r="6" fill="hsl(285, 80%, 65%)" />
<circle cx="206.76" cy="182.98" r="2" fill="hsl(290, 80%, 65%)" />
<circle cx="341.96" cy="276.66" r="3" fill="hsl(295, 80%, 65%)" />
<circle cx="178.36" cy="298.99" r="4" fill="hsl(300, 80%, 65%)" />
<circle cx="284.31" cy="171.54" r="5" fill="hsl(305, 80%, 65%)" />
<circle cx="292.31" cy="337.71" r="6" fill="hsl(310, 80%, 65%)" />
<circle cx="173.73" cy="220.14" r="2" fill="hsl(315, 80%, 65%)" />
<circle cx="341.20" cy="226.76" r="3" fill="hsl(320, 80%, 65%)" />
<circle cx="212.77" cy="335.40" r="4" fill="hsl(325, 80%, 65%)" />
<circle cx="234.16" cy="167.93" r="5" fill="hsl(330, 80%, 65%)" />
<circle cx="331.87" cy="306.37" r="6" fill="hsl(335, 80%, 65%)" />
<circle cx="165.71" cy="270.16" r="2" fill="hsl(340, 80%, 65%)" />
<circle cx="313.21" cy="184.31" r="3" fill="hsl(345, 80%, 65%)" />
<circle cx="262.26" cy="347.83" r="4" fill="hsl(350, 80%, 65%)" />
<circle cx="189.12" cy="192.29" r="5" fill="hsl(355, 80%, 65%)" />
<circle cx="348.67" cy="257.81" r="6" fill="hsl(0, 80%, 65%)" />
<circle cx="186.20" cy="317.48" r="2" fill="hsl(5, 80%, 65%)" />
<circle cx="265.97" cy="163.20" r="3" fill="hsl(10, 80%, 65%)" />
<circle cx="311.52" cy="331.42" r="4" fill="hsl(15, 80%, 65%)" />
<circle cx="163.81" cy="237.83" r="5" fill="hsl(20, 80%, 65%)" />
<circle cx="336.53" cy="206.96" r="6" fill="hsl(25, 80%, 65%)" />
<circle cx="229.66" cy="346.86" r="2" fill="hsl(30, 80%, 65%)" />
<circle cx="213.90" cy="170.93" r="3" fill="hsl(35, 80%, 65%)" />
<circle cx="344.80" cy="290.41" r="4" fill="hsl(40, 80%, 65%)" />
<circle cx="166.99" cy="290.72" r="5" fill="hsl(45, 80%, 65%)" />
<circle cx="298.31" cy="169.99" r="6" fill="hsl(50, 80%, 65%)" />
<circle cx="282.98" cy="348.30" r="2" fill="hsl(55, 80%, 65%)" />
<circle cx="173.49" cy="206.01" r="3" fill="hsl(60, 80%, 65%)" />
<circle cx="350.91" cy="237.07" r="4" fill="hsl(65, 80%, 65%)" />
<circle cx="198.62" cy="334.32" r="5" fill="hsl(70, 80%, 65%)" />
<circle cx="245.37" cy="159.18" r="6" fill="hsl(75, 80%, 65%)" />
<circle cx="329.47" cy="320.41" r="2" fill="hsl(80, 80%, 65%)" />
<circle cx="158.02" cy="258.14" r="3" fill="hsl(85, 80%, 65%)" />
<circle cx="327.03" cy="188.03" r="4" fill="hsl(90, 80%, 65%)" />
<circle cx="249.52" cy="354.40" r="5" fill="hsl(95, 80%, 65%)" />
<circle cx="194.12" cy="178.83" r="6" fill="hsl(100, 80%, 65%)" />
<circle cx="354.05" cy="271.15" r="2" fill="hsl(105, 80%, 65%)" />
<circle cx="173.22" cy="311.23" r="3" fill="hsl(110, 80%, 65%)" />
<circle cx="279.80" cy="159.06" r="4" fill="hsl(115, 80%, 65%)" />
<circle cx="304.07" cy="343.82" r="5" fill="hsl(120, 80%, 65%)" />
<circle cx="160.95" cy="223.62" r="6" fill="hsl(125, 80%, 65%)" />
<circle cx="348.23" cy="215.55" r="2" fill="hsl(130, 80%, 65%)" />
<circle cx="215.20" cy="348.40" r="3" fill="hsl(135, 80%, 65%)" />
<circle cx="223.58" cy="160.03" r="4" fill="hsl(140, 80%, 65%)" />
<circle cx="344.99" cy="305.01" r="5" fill="hsl(145, 80%, 65%)" />
<circle cx="156.99" cy="280.04" r="6" fill="hsl(150, 80%, 65%)" />
<circle cx="312.93" cy="171.15" r="2" fill="hsl(155, 80%, 65%)" />
<circle cx="271.38" cy="357.31" r="3" fill="hsl(160, 80%, 65%)" />
<circle cx="176.00" cy="191.51" r="4" fill="hsl(165, 80%, 65%)" />
<circle cx="358.85" cy="249.50" r="5" fill="hsl(170, 80%, 65%)" />
<circle cx="184.36" cy="330.48" r="6" fill="hsl(175, 80%, 65%)" />
<circle cx="258.53" cy="152.40" r="2" fill="hsl(180, 80%, 65%)" />
<circle cx="324.31" cy="334.31" r="3" fill="hsl(185, 80%, 65%)" />
<circle cx="152.45" cy="244.36" r="4" fill="hsl(190, 80%, 65%)" />
<circle cx="340.45" cy="194.47" r="5" fill="hsl(195, 80%, 65%)" />
<circle cx="235.24" cy="358.70" r="6" fill="hsl(200, 80%, 65%)" />
<circle cx="201.79" cy="166.01" r="2" fill="hsl(205, 80%, 65%)" />
<circle cx="357.03" cy="285.82" r="3" fill="hsl(210, 80%, 65%)" />
<circle cx="161.10" cy="302.38" r="4" fill="hsl(215, 80%, 65%)" />
<circle cx="294.75" cy="157.43" r="5" fill="hsl(220, 80%, 65%)" />
<circle cx="294.11" cy="355.11" r="6" fill="hsl(225, 80%, 65%)" />
<circle cx="160.70" cy="208.53" r="2" fill="hsl(230, 80%, 65%)" />
<circle cx="358.60" cy="226.55" r="3" fill="hsl(235, 80%, 65%)" />
<circle cx="200.09" cy="347.27" r="4" fill="hsl(240, 80%, 65%)" />
<circle cx="235.52" cy="150.67" r="5" fill="hsl(245, 80%, 65%)" />
<circle cx="342.48" cy="320.00" r="6" fill="hsl(250, 80%, 65%)" />
<circle cx="148.73" cy="267.25" r="2" fill="hsl(255, 80%, 65%)" />
<circle cx="327.68" cy="175.04" r="3" fill="hsl(260, 80%, 65%)" />
<circle cx="257.84" cy="364.40" r="4" fill="hsl(265, 80%, 65%)" />
<circle cx="181.24" cy="177.11" r="5" fill="hsl(270, 80%, 65%)" />
<circle cx="364.69" cy="263.69" r="6" fill="hsl(275, 80%, 65%)" />
<circle cx="170.45" cy="323.92" r="2" fill="hsl(280, 80%, 65%)" />
<circle cx="273.25" cy="147.86" r="3" fill="hsl(285, 80%, 65%)" />
<circle cx="316.48" cy="347.62" r="4" fill="hsl(290, 80%, 65%)" />
<circle cx="149.25" cy="229.23" r="5" fill="hsl(295, 80%, 65%)" />
<circle cx="353.03" cy="203.50" r="6" fill="hsl(300, 80%, 65%)" />
<circle cx="219.83" cy="360.51" r="2" fill="hsl(305, 80%, 65%)" />
<circle cx="211.97" cy="154.26" r="3" fill="hsl(310, 80%, 65%)" />
<circle cx="357.44" cy="301.39" r="4" fill="hsl(315, 80%, 65%)" />
<circle cx="150.29" cy="291.14" r="5" fill="hsl(320, 80%, 65%)" />
<circle cx="310.35" cy="158.45" r="6" fill="hsl(325, 80%, 65%)" />
<circle cx="281.88" cy="364.90" r="2" fill="hsl(330, 80%, 65%)" />
<circle cx="163.13" cy="193.04" r="3" fill="hsl(335, 80%, 65%)" />
<circle cx="367.27" cy="239.66" r="4" fill="hsl(340, 80%, 65%)" />
<circle cx="184.82" cy="343.42" r="5" fill="hsl(345, 80%, 65%)" />
<circle cx="249.42" cy="143.20" r="6" fill="hsl(350, 80%, 65%)" />
<circle cx="337.24" cy="334.92" r="2" fill="hsl(355, 80%, 65%)" />
<circle cx="142.53" cy="252.68" r="3" fill="hsl(0, 80%, 65%)" />
<circle cx="342.11" cy="181.63" r="4" fill="hsl(5, 80%, 65%)" />
<circle cx="242.71" cy="369.27" r="5" fill="hsl(10, 80%, 65%)" />
<circle cx="189.14" cy="163.29" r="6" fill="hsl(15, 80%, 65%)" />
<circle cx="368.18" cy="279.25" r="2" fill="hsl(20, 80%, 65%)" />
<circle cx="157.35" cy="314.77" r="3" fill="hsl(25, 80%, 65%)" />
<circle cx="289.12" cy="145.78" r="4" fill="hsl(30, 80%, 65%)" />
<circle cx="306.14" cy="359.87" r="5" fill="hsl(35, 80%, 65%)" />
<circle cx="148.62" cy="213.18" r="6" fill="hsl(40, 80%, 65%)" />
<circle cx="364.34" cy="214.95" r="2" fill="hsl(45, 80%, 65%)" />
<circle cx="203.73" cy="359.69" r="3" fill="hsl(50, 80%, 65%)" />
<circle cx="224.44" cy="143.99" r="4" fill="hsl(55, 80%, 65%)" />
<circle cx="355.16" cy="317.41" r="5" fill="hsl(60, 80%, 65%)" />
<circle cx="141.15" cy="277.75" r="6" fill="hsl(65, 80%, 65%)" />
<circle cx="326.15" cy="162.18" r="2" fill="hsl(70, 80%, 65%)" />
<circle cx="267.67" cy="372.81" r="3" fill="hsl(75, 80%, 65%)" />
<circle cx="168.30" cy="177.58" r="4" fill="hsl(80, 80%, 65%)" />
<circle cx="373.89" cy="254.58" r="5" fill="hsl(85, 80%, 65%)" />
<circle cx="169.84" cy="336.86" r="6" fill="hsl(90, 80%, 65%)" />
<circle cx="264.93" cy="137.93" r="2" fill="hsl(95, 80%, 65%)" />
<circle cx="329.33" cy="349.29" r="3" fill="hsl(100, 80%, 65%)" />
<circle cx="138.67" cy="236.70" r="4" fill="hsl(105, 80%, 65%)" />
<circle cx="355.76" cy="190.83" r="5" fill="hsl(110, 80%, 65%)" />
<circle cx="226.39" cy="371.68" r="6" fill="hsl(115, 80%, 65%)" />
<circle cx="199.57" cy="150.48" r="2" fill="hsl(120, 80%, 65%)" />
<circle cx="369.12" cy="295.77" r="3" fill="hsl(125, 80%, 65%)" />
<circle cx="145.49" cy="303.18" r="4" fill="hsl(130, 80%, 65%)" />
<circle cx="305.71" cy="146.34" r="5" fill="hsl(135, 80%, 65%)" />
<circle cx="293.50" cy="370.68" r="6" fill="hsl(140, 80%, 65%)" />
<circle cx="150.67" cy="196.65" r="2" fill="hsl(145, 80%, 65%)" />
<circle cx="374.00" cy="228.56" r="3" fill="hsl(150, 80%, 65%)" />
<circle cx="187.39" cy="356.14" r="4" fill="hsl(155, 80%, 65%)" />
<circle cx="238.91" cy="135.57" r="5" fill="hsl(160, 80%, 65%)" />
<circle cx="350.14" cy="333.42" r="6" fill="hsl(165, 80%, 65%)" />
<circle cx="134.05" cy="262.52" r="2" fill="hsl(170, 80%, 65%)" />
<circle cx="341.69" cy="168.64" r="3" fill="hsl(175, 80%, 65%)" />
<circle cx="251.81" cy="378.54" r="4" fill="hsl(180, 80%, 65%)" />
<circle cx="176.15" cy="162.63" r="5" fill="hsl(185, 80%, 65%)" />
<circle cx="378.19" cy="270.94" r="6" fill="hsl(190, 80%, 65%)" />
<circle cx="155.61" cy="327.66" r="2" fill="hsl(195, 80%, 65%)" />
<circle cx="281.67" cy="135.11" r="3" fill="hsl(200, 80%, 65%)" />
<circle cx="318.86" cy="362.69" r="4" fill="hsl(205, 80%, 65%)" />
<circle cx="137.36" cy="219.72" r="5" fill="hsl(210, 80%, 65%)" />
<circle cx="368.21" cy="202.51" r="6" fill="hsl(215, 80%, 65%)" />
</svg>
