<svg xmlns="http://www.w3.org/2000/svg" width="512" height="512" viewBox="0 0 512 512">
<rect width="100%" height="100%" fill="#0b1020"/>
<circle cx="433" cy="116" r="44" fill="#f8f3c9" opacity="0.95" />
<circle cx="224.0" cy="93.0" r="1.6" fill="white" />
<circle cx="112.0" cy="178.0" r="2.3" fill="white" />
<circle cx="366.0" cy="39.0" r="2.2" fill="white" />
<circle cx="360.0" cy="151.0" r="3.1" fill="white" />
<circle cx="407.0" cy="154.0" r="2.0" fill="white" />
<circle cx="71.0" cy="121.0" r="2.9" fill="white" />
<path d="M 20 430 C 100 410, 192 442, 284 439 S 450 398, 512 428" stroke="#5dade2" stroke-width="6" fill="none" opacity="0.85" />
<line x1="0" y1="388" x2="512" y2="388" stroke="#445566" stroke-width="2" />
<polygon points="214,351 254,291 294,311 314,281 334,301 346,341 314,363 264,367" fill="#1e1e1e" />
<polygon points="289,291 302,269 312,293" fill="#1e1e1e" />
<line x1="344" y1="336" x2="374" y2="311" stroke="#1e1e1e" stroke-width="6" />
</svg>
