<svg xmlns="http://www.w3.org/2000/svg" width="512" height="512" viewBox="0 0 512 512">
<rect width="100%" height="100%" fill="#0b1020"/>
<circle cx="442" cy="119" r="41" fill="#f8f3c9" opacity="0.95" />
<circle cx="28.0" cy="146.0" r="3.5" fill="white" />
<circle cx="488.0" cy="35.0" r="1.8" fill="white" />
<circle cx="339.0" cy="165.0" r="3.5" fill="white" />
<circle cx="76.0" cy="84.0" r="3.0" fill="white" />
<circle cx="294.0" cy="65.0" r="2.8" fill="white" />
<circle cx="353.0" cy="103.0" r="3.3" fill="white" />
<circle cx="210.0" cy="112.0" r="2.1" fill="white" />
<circle cx="251.0" cy="88.0" r="2.1" fill="white" />
<circle cx="166.0" cy="166.0" r="2.7" fill="white" />
<circle cx="410.0" cy="134.0" r="2.4" fill="white" />
<circle cx="393.0" cy="109.0" r="2.1" fill="white" />
<circle cx="332.0" cy="177.0" r="3.2" fill="white" />
<circle cx="28.0" cy="132.0" r="1.6" fill="white" />
<path d="M 20 430 C 115 423, 172 442, 281 427 S 450 395, 512 425" stroke="#5dade2" stroke-width="5" fill="none" opacity="0.85" />
<line x1="0" y1="394" x2="512" y2="394" stroke="#445566" stroke-width="2" />
<polygon points="199,356 239,296 279,316 299,286 319,306 331,346 299,368 249,372" fill="#1e1e1e" />
<polygon points="274,296 287,274 297,298" fill="#1e1e1e" />
<line x1="329" y1="341" x2="359" y2="316" stroke="#1e1e1e" stroke-width="6" />
</svg>
