<svg xmlns="http://www.w3.org/2000/svg" width="512" height="512" viewBox="0 0 512 512">
<rect width="100%" height="100%" fill="black"/>
<circle cx="256.00" cy="256.00" r="2" fill="hsl(0, 80%, 65%)" />
<circle cx="250.52" cy="261.02" r="3" fill="hsl(8, 80%, 65%)" />
<circle cx="256.92" cy="245.54" r="4" fill="hsl(16, 80%, 65%)" />
<circle cx="263.83" cy="266.21" r="5" fill="hsl(24, 80%, 65%)" />
<circle cx="241.37" cy="253.41" r="6" fill="hsl(32, 80%, 65%)" />
<circle cx="270.01" cy="247.09" r="2" fill="hsl(40, 80%, 65%)" />
<circle cx="251.28" cy="273.57" r="3" fill="hsl(48, 80%, 65%)" />
<circle cx="246.94" cy="238.56" r="4" fill="hsl(56, 80%, 65%)" />
<circle cx="275.73" cy="263.21" r="5" fill="hsl(64, 80%, 65%)" />
<circle cx="235.41" cy="264.50" r="6" fill="hsl(72, 80%, 65%)" />
<circle cx="265.95" cy="234.73" r="2" fill="hsl(80, 80%, 65%)" />
<circle cx="263.37" cy="279.50" r="3" fill="hsl(88, 80%, 65%)" />
<circle cx="233.74" cy="243.10" r="4" fill="hsl(96, 80%, 65%)" />
<circle cx="282.15" cy="250.25" r="5" fill="hsl(104, 80%, 65%)" />
<circle cx="240.02" cy="278.73" r="6" fill="hsl(112, 80%, 65%)" />
<circle cx="252.30" cy="227.48" r="2" fill="hsl(120, 80%, 65%)" />
<circle cx="278.71" cy="275.14" r="3" fill="hsl(128, 80%, 65%)" />
<circle cx="225.41" cy="257.27" r="4" fill="hsl(136, 80%, 65%)" />
<circle cx="278.33" cy="233.77" r="5" fill="hsl(144, 80%, 65%)" />
<circle cx="254.50" cy="288.34" r="6" fill="hsl(152, 80%, 65%)" />
<circle cx="234.72" cy="230.50" r="2" fill="hsl(160, 80%, 65%)" />
<circle cx="289.73" cy="260.54" r="3" fill="hsl(168, 80%, 65%)" />
<circle cx="227.41" cy="275.89" r="4" fill="hsl(176, 80%, 65%)" />
<circle cx="263.82" cy="221.25" r="5" fill="hsl(184, 80%, 65%)" />
<circle cx="274.09" cy="287.57" r="6" fill="hsl(192, 80%, 65%)" />
<circle cx="220.62" cy="244.71" r="2" fill="hsl(200, 80%, 65%)" />
<circle cx="290.38" cy="240.12" r="3" fill="hsl(208, 80%, 65%)" />
<circle cx="241.10" cy="291.60" r="4" fill="hsl(216, 80%, 65%)" />
<circle cx="242.70" cy="219.02" r="5" fill="hsl(224, 80%, 65%)" />
<circle cx="291.40" cy="274.61" r="6" fill="hsl(232, 80%, 65%)" />
<circle cx="216.67" cy="266.37" r="2" fill="hsl(240, 80%, 65%)" />
<circle cx="278.36" cy="221.22" r="3" fill="hsl(248, 80%, 65%)" />
<circle cx="263.12" cy="297.40" r="4" fill="hsl(256, 80%, 65%)" />
<circle cx="222.27" cy="229.88" r="5" fill="hsl(264, 80%, 65%)" />
<circle cx="299.16" cy="252.42" r="6" fill="hsl(272, 80%, 65%)" />
<circle cx="226.16" cy="288.25" r="2" fill="hsl(280, 80%, 65%)" />
<circle cx="256.22" cy="211.44" r="3" fill="hsl(288, 80%, 65%)" />
<circle cx="286.35" cy="289.46" r="4" fill="hsl(296, 80%, 65%)" />
<circle cx="210.42" cy="251.78" r="5" fill="hsl(304, 80%, 65%)" />
<circle cx="292.94" cy="227.96" r="6" fill="hsl(312, 80%, 65%)" />
<circle cx="247.59" cy="302.21" r="2" fill="hsl(320, 80%, 65%)" />
<circle cx="230.67" cy="215.75" r="3" fill="hsl(328, 80%, 65%)" />
<circle cx="302.42" cy="268.72" r="4" fill="hsl(336, 80%, 65%)" />
<circle cx="212.67" cy="278.23" r="5" fill="hsl(344, 80%, 65%)" />
<circle cx="273.12" cy="209.81" r="6" fill="hsl(352, 80%, 65%)" />
<circle cx="274.78" cy="302.14" r="2" fill="hsl(0, 80%, 65%)" />
<circle cx="210.48" cy="234.43" r="3" fill="hsl(8, 80%, 65%)" />
<circle cx="304.65" cy="241.00" r="4" fill="hsl(16, 80%, 65%)" />
<circle cx="229.98" cy="300.39" r="5" fill="hsl(24, 80%, 65%)" />
<circle cx="245.09" cy="205.17" r="6" fill="hsl(32, 80%, 65%)" />
<circle cx="298.81" cy="286.41" r="2" fill="hsl(40, 80%, 65%)" />
<circle cx="203.37" cy="262.56" r="3" fill="hsl(48, 80%, 65%)" />
<circle cx="290.71" cy="215.22" r="4" fill="hsl(56, 80%, 65%)" />
<circle cx="257.97" cy="310.03" r="5" fill="hsl(64, 80%, 65%)" />
<circle cx="217.69" cy="217.13" r="6" fill="hsl(72, 80%, 65%)" />
<circle cx="311.00" cy="258.81" r="2" fill="hsl(80, 80%, 65%)" />
<circle cx="213.16" cy="291.40" r="3" fill="hsl(88, 80%, 65%)" />
<circle cx="263.75" cy="200.47" r="4" fill="hsl(96, 80%, 65%)" />
<circle cx="288.08" cy="302.58" r="5" fill="hsl(104, 80%, 65%)" />
<circle cx="200.41" cy="243.21" r="6" fill="hsl(112, 80%, 65%)" />
<circle cx="306.05" cy="227.64" r="2" fill="hsl(120, 80%, 65%)" />
<circle cx="238.10" cy="311.17" r="3" fill="hsl(128, 80%, 65%)" />
<circle cx="231.73" cy="202.80" r="4" fill="hsl(136, 80%, 65%)" />
<circle cx="310.26" cy="279.02" r="5" fill="hsl(144, 80%, 65%)" />
<circle cx="200.00" cy="275.84" r="6" fill="hsl(152, 80%, 65%)" />
<circle cx="284.11" cy="203.14" r="2" fill="hsl(160, 80%, 65%)" />
<circle cx="271.09" cy="314.41" r="3" fill="hsl(168, 80%, 65%)" />
<circle cx="205.03" cy="222.87" r="4" fill="hsl(176, 80%, 65%)" />
<circle cx="316.41" cy="245.92" r="5" fill="hsl(184, 80%, 65%)" />
<circle cx="217.99" cy="304.59" r="6" fill="hsl(192, 80%, 65%)" />
<circle cx="251.17" cy="194.05" r="2" fill="hsl(200, 80%, 65%)" />
<circle cx="301.73" cy="298.72" r="3" fill="hsl(208, 80%, 65%)" />
<circle cx="192.99" cy="255.39" r="4" fill="hsl(216, 80%, 65%)" />
<circle cx="303.20" cy="213.60" r="5" fill="hsl(224, 80%, 65%)" />
<circle cx="249.79" cy="319.58" r="6" fill="hsl(232, 80%, 65%)" />
<circle cx="217.37" cy="204.58" r="2" fill="hsl(240, 80%, 65%)" />
<circle cx="319.64" cy="267.90" r="3" fill="hsl(248, 80%, 65%)" />
<circle cx="200.68" cy="290.44" r="4" fill="hsl(256, 80%, 65%)" />
<circle cx="273.64" cy="192.83" r="5" fill="hsl(264, 80%, 65%)" />
<circle cx="285.85" cy="314.87" r="6" fill="hsl(272, 80%, 65%)" />
<circle cx="193.83" cy="232.61" r="2" fill="hsl(280, 80%, 65%)" />
<circle cx="318.03" cy="231.10" r="3" fill="hsl(288, 80%, 65%)" />
<circle cx="226.90" cy="316.63" r="4" fill="hsl(296, 80%, 65%)" />
<circle cx="236.38" cy="191.25" r="5" fill="hsl(304, 80%, 65%)" />
<circle cx="314.55" cy="290.70" r="6" fill="hsl(312, 80%, 65%)" />
<circle cx="188.99" cy="270.05" r="2" fill="hsl(320, 80%, 65%)" />
<circle cx="296.16" cy="200.05" r="3" fill="hsl(328, 80%, 65%)" />
<circle cx="264.23" cy="324.78" r="4" fill="hsl(336, 80%, 65%)" />
<circle cx="203.17" cy="210.59" r="5" fill="hsl(344, 80%, 65%)" />
<circle cx="326.03" cy="253.79" r="6" fill="hsl(352, 80%, 65%)" />
<circle cx="205.58" cy="305.21" r="2" fill="hsl(0, 80%, 65%)" />
<circle cx="259.96" cy="185.27" r="3" fill="hsl(8, 80%, 65%)" />
<circle cx="301.10" cy="311.13" r="4" fill="hsl(16, 80%, 65%)" />
<circle cx="185.12" cy="245.76" r="5" fill="hsl(24, 80%, 65%)" />
<circle cx="315.50" cy="215.46" r="6" fill="hsl(32, 80%, 65%)" />
<circle cx="239.42" cy="326.46" r="2" fill="hsl(40, 80%, 65%)" />
<circle cx="220.44" cy="192.52" r="3" fill="hsl(48, 80%, 65%)" />
<circle cx="325.46" cy="278.91" r="4" fill="hsl(56, 80%, 65%)" />
<circle cx="188.96" cy="286.18" r="5" fill="hsl(64, 80%, 65%)" />
<circle cx="285.19" cy="188.12" r="6" fill="hsl(72, 80%, 65%)" />
<circle cx="280.45" cy="326.12" r="2" fill="hsl(80, 80%, 65%)" />
<circle cx="190.28" cy="220.63" r="3" fill="hsl(88, 80%, 65%)" />
<circle cx="328.71" cy="237.59" r="4" fill="hsl(96, 80%, 65%)" />
<circle cx="214.62" cy="319.00" r="5" fill="hsl(104, 80%, 65%)" />
<circle cx="243.90" cy="181.24" r="6" fill="hsl(112, 80%, 65%)" />
<circle cx="315.71" cy="303.18" r="2" fill="hsl(120, 80%, 65%)" />
<circle cx="179.74" cy="261.57" r="3" fill="hsl(128, 80%, 65%)" />
<circle cx="308.71" cy="200.12" r="4" fill="hsl(136, 80%, 65%)" />
<circle cx="254.87" cy="333.17" r="5" fill="hsl(144, 80%, 65%)" />
<circle cx="204.47" cy="198.07" r="6" fill="hsl(152, 80%, 65%)" />
<circle cx="333.48" cy="263.94" r="2" fill="hsl(160, 80%, 65%)" />
<circle cx="193.22" cy="302.69" r="3" fill="hsl(168, 80%, 65%)" />
<circle cx="270.82" cy="178.82" r="4" fill="hsl(176, 80%, 65%)" />
<circle cx="297.39" cy="323.22" r="5" fill="hsl(184, 80%, 65%)" />
<circle cx="179.73" cy="234.30" r="6" fill="hsl(192, 80%, 65%)" />
<circle cx="327.21" cy="220.33" r="2" fill="hsl(200, 80%, 65%)" />
<circle cx="227.47" cy="330.72" r="3" fill="hsl(208, 80%, 65%)" />
<circle cx="226.44" cy="181.31" r="4" fill="hsl(216, 80%, 65%)" />
<circle cx="328.56" cy="291.26" r="5" fill="hsl(224, 80%, 65%)" />
<circle cx="178.35" cy="279.11" r="6" fill="hsl(232, 80%, 65%)" />
<circle cx="297.82" cy="186.22" r="2" fill="hsl(240, 80%, 65%)" />
<circle cx="272.37" cy="336.03" r="3" fill="hsl(248, 80%, 65%)" />
<circle cx="189.59" cy="207.85" r="4" fill="hsl(256, 80%, 65%)" />
<circle cx="337.83" cy="246.61" r="5" fill="hsl(264, 80%, 65%)" />
<circle cx="201.79" cy="318.45" r="6" fill="hsl(272, 80%, 65%)" />
<circle cx="253.78" cy="173.00" r="2" fill="hsl(280, 80%, 65%)" />
<circle cx="313.93" cy="315.94" r="3" fill="hsl(288, 80%, 65%)" />
<circle cx="172.46" cy="250.91" r="4" fill="hsl(296, 80%, 65%)" />
<circle cx="321.29" cy="203.12" r="5" fill="hsl(304, 80%, 65%)" />
<circle cx="243.53" cy="339.42" r="6" fill="hsl(312, 80%, 65%)" />
<circle cx="208.66" cy="185.79" r="2" fill="hsl(320, 80%, 65%)" />
<circle cx="338.65" cy="275.87" r="3" fill="hsl(328, 80%, 65%)" />
<circle cx="181.36" cy="297.33" r="4" fill="hsl(336, 80%, 65%)" />
<circle cx="283.22" cy="174.80" r="5" fill="hsl(344, 80%, 65%)" />
<circle cx="290.91" cy="334.56" r="6" fill="hsl(352, 80%, 65%)" />
<circle cx="176.90" cy="221.53" r="2" fill="hsl(0, 80%, 65%)" />
<circle cx="337.92" cy="227.88" r="3" fill="hsl(8, 80%, 65%)" />
<circle cx="214.44" cy="332.34" r="4" fill="hsl(16, 80%, 65%)" />
<circle cx="235.00" cy="171.32" r="5" fill="hsl(24, 80%, 65%)" />
<circle cx="328.95" cy="304.43" r="6" fill="hsl(32, 80%, 65%)" />
<circle cx="169.19" cy="269.61" r="2" fill="hsl(40, 80%, 65%)" />
<circle cx="311.01" cy="187.08" r="3" fill="hsl(48, 80%, 65%)" />
<circle cx="262.02" cy="344.29" r="4" fill="hsl(56, 80%, 65%)" />
<circle cx="191.70" cy="194.74" r="5" fill="hsl(64, 80%, 65%)" />
<circle cx="345.10" cy="257.74" r="6" fill="hsl(72, 80%, 65%)" />
<circle cx="188.89" cy="315.11" r="2" fill="hsl(80, 80%, 65%)" />
<circle cx="265.59" cy="166.78" r="3" fill="hsl(88, 80%, 65%)" />
<circle cx="309.38" cy="328.51" r="4" fill="hsl(96, 80%, 65%)" />
<circle cx="167.36" cy="238.53" r="5" fill="hsl(104, 80%, 65%)" />
<circle cx="333.42" cy="208.85" r="6" fill="hsl(112, 80%, 65%)" />
<circle cx="230.68" cy="343.36" r="2" fill="hsl(120, 80%, 65%)" />
<circle cx="215.53" cy="174.21" r="3" fill="hsl(128, 80%, 65%)" />
<circle cx="341.37" cy="289.08" r="4" fill="hsl(136, 80%, 65%)" />
<circle cx="170.42" cy="289.39" r="5" fill="hsl(144, 80%, 65%)" />
<circle cx="296.68" cy="173.31" r="6" fill="hsl(152, 80%, 65%)" />
<circle cx="281.94" cy="344.74" r="2" fill="hsl(160, 80%, 65%)" />
<circle cx="176.67" cy="207.93" r="3" fill="hsl(168, 80%, 65%)" />
<circle cx="347.26" cy="237.80" r="4" fill="hsl(176, 80%, 65%)" />
<circle cx="200.83" cy="331.30" r="5" fill="hsl(184, 80%, 65%)" />
<circle cx="245.78" cy="162.92" r="6" fill="hsl(192, 80%, 65%)" />
<circle cx="326.63" cy="317.93" r="2" fill="hsl(200, 80%, 65%)" />
<circle cx="161.79" cy="258.06" r="3" fill="hsl(208, 80%, 65%)" />
<circle cx="324.29" cy="190.64" r="4" fill="hsl(216, 80%, 65%)" />
<circle cx="249.77" cy="350.61" r="5" fill="hsl(224, 80%, 65%)" />
<circle cx="196.50" cy="181.80" r="6" fill="hsl(232, 80%, 65%)" />
<circle cx="350.28" cy="270.56" r="2" fill="hsl(240, 80%, 65%)" />
<circle cx="176.41" cy="309.10" r="3" fill="hsl(248, 80%, 65%)" />
<circle cx="278.89" cy="162.80" r="4" fill="hsl(256, 80%, 65%)" />
<circle cx="302.22" cy="340.44" r="5" fill="hsl(264, 80%, 65%)" />
<circle cx="164.61" cy="224.87" r="6" fill="hsl(272, 80%, 65%)" />
<circle cx="344.68" cy="217.11" r="2" fill="hsl(280, 80%, 65%)" />
<circle cx="216.77" cy="344.84" r="3" fill="hsl(288, 80%, 65%)" />
<circle cx="224.83" cy="163.72" r="4" fill="hsl(296, 80%, 65%)" />
<circle cx="341.56" cy="303.12" r="5" fill="hsl(304, 80%, 65%)" />
<circle cx="160.80" cy="279.12" r="6" fill="hsl(312, 80%, 65%)" />
<circle cx="310.74" cy="174.42" r="2" fill="hsl(320, 80%, 65%)" />
<circle cx="270.79" cy="353.41" r="3" fill="hsl(328, 80%, 65%)" />
<circle cx="179.08" cy="193.99" r="4" fill="hsl(336, 80%, 65%)" />
<circle cx="354.88" cy="249.75" r="5" fill="hsl(344, 80%, 65%)" />
<circle cx="187.12" cy="327.61" r="6" fill="hsl(352, 80%, 65%)" />
<circle cx="258.43" cy="156.39" r="2" fill="hsl(0, 80%, 65%)" />
<circle cx="321.67" cy="331.30" r="3" fill="hsl(8, 80%, 65%)" />
<circle cx="156.44" cy="244.81" r="4" fill="hsl(16, 80%, 65%)" />
<circle cx="337.20" cy="196.84" r="5" fill="hsl(24, 80%, 65%)" />
<circle cx="236.04" cy="354.74" r="6" fill="hsl(32, 80%, 65%)" />
<circle cx="203.88" cy="169.47" r="2" fill="hsl(40, 80%, 65%)" />
<circle cx="353.14" cy="284.67" r="3" fill="hsl(48, 80%, 65%)" />
<circle cx="164.76" cy="300.60" r="4" fill="hsl(56, 80%, 65%)" />
<circle cx="293.25" cy="161.23" r="5" fill="hsl(64, 80%, 65%)" />
<circle cx="292.64" cy="351.30" r="6" fill="hsl(72, 80%, 65%)" />
<circle cx="164.37" cy="210.36" r="2" fill="hsl(80, 80%, 65%)" />
<circle cx="354.65" cy="227.68" r="3" fill="hsl(88, 80%, 65%)" />
<circle cx="202.25" cy="343.75" r="4" fill="hsl(96, 80%, 65%)" />
<circle cx="236.31" cy="154.72" r="5" fill="hsl(104, 80%, 65%)" />
<circle cx="339.14" cy="317.54" r="6" fill="hsl(112, 80%, 65%)" />
<circle cx="152.86" cy="266.81" r="2" fill="hsl(120, 80%, 65%)" />
<circle cx="324.92" cy="178.16" r="3" fill="hsl(128, 80%, 65%)" />
<circle cx="257.77" cy="360.22" r="4" fill="hsl(136, 80%, 65%)" />
<circle cx="184.12" cy="180.15" r="5" fill="hsl(144, 80%, 65%)" />
<circle cx="360.50" cy="263.39" r="6" fill="hsl(152, 80%, 65%)" />
<circle cx="173.75" cy="321.30" r="2" fill="hsl(160, 80%, 65%)" />
<circle cx="272.58" cy="152.03" r="3" fill="hsl(168, 80%, 65%)" />
<circle cx="314.15" cy="344.09" r="4" fill="hsl(176, 80%, 65%)" />
<circle cx="153.37" cy="230.27" r="5" fill="hsl(184, 80%, 65%)" />
<circle cx="349.29" cy="205.52" r="6" fill="hsl(192, 80%, 65%)" />
<circle cx="221.22" cy="356.48" r="2" fill="hsl(200, 80%, 65%)" />
<circle cx="213.67" cy="158.18" r="3" fill="hsl(208, 80%, 65%)" />
<circle cx="353.53" cy="299.64" r="4" fill="hsl(216, 80%, 65%)" />
<circle cx="154.36" cy="289.78" r="5" fill="hsl(224, 80%, 65%)" />
<circle cx="308.25" cy="162.21" r="6" fill="hsl(232, 80%, 65%)" />
<circle cx="280.89" cy="360.70" r="2" fill="hsl(240, 80%, 65%)" />
<circle cx="166.71" cy="195.46" r="3" fill="hsl(248, 80%, 65%)" />
<circle cx="362.98" cy="240.29" r="4" fill="hsl(256, 80%, 65%)" />
<circle cx="187.56" cy="340.05" r="5" fill="hsl(264, 80%, 65%)" />
<circle cx="249.67" cy="147.54" r="6" fill="hsl(272, 80%, 65%)" />
<circle cx="334.11" cy="331.87" r="2" fill="hsl(280, 80%, 65%)" />
<circle cx="146.90" cy="252.81" r="3" fill="hsl(288, 80%, 65%)" />
<circle cx="338.80" cy="184.49" r="4" fill="hsl(296, 80%, 65%)" />
<circle cx="243.22" cy="364.90" r="5" fill="hsl(304, 80%, 65%)" />
<circle cx="191.71" cy="166.86" r="6" fill="hsl(312, 80%, 65%)" />
<circle cx="363.86" cy="278.35" r="2" fill="hsl(320, 80%, 65%)" />
<circle cx="161.15" cy="312.50" r="3" fill="hsl(328, 80%, 65%)" />
<circle cx="287.84" cy="150.03" r="4" fill="hsl(336, 80%, 65%)" />
<circle cx="304.21" cy="355.87" r="5" fill="hsl(344, 80%, 65%)" />
<circle cx="152.76" cy="214.83" r="6" fill="hsl(352, 80%, 65%)" />
<circle cx="360.17" cy="216.53" r="2" fill="hsl(0, 80%, 65%)" />
<circle cx="205.74" cy="355.69" r="3" fill="hsl(8, 80%, 65%)" />
<circle cx="225.65" cy="148.30" r="4" fill="hsl(16, 80%, 65%)" />
<circle cx="351.34" cy="315.04" r="5" fill="hsl(24, 80%, 65%)" />
<circle cx="145.58" cy="276.91" r="6" fill="hsl(32, 80%, 65%)" />
<circle cx="323.44" cy="165.80" r="2" fill="hsl(40, 80%, 65%)" />
<circle cx="267.22" cy="368.31" r="3" fill="hsl(48, 80%, 65%)" />
<circle cx="171.68" cy="180.60" r="4" fill="hsl(56, 80%, 65%)" />
<circle cx="369.35" cy="254.63" r="5" fill="hsl(64, 80%, 65%)" />
<circle cx="173.16" cy="333.74" r="6" fill="hsl(72, 80%, 65%)" />
<circle cx="264.58" cy="142.48" r="2" fill="hsl(80, 80%, 65%)" />
<circle cx="326.50" cy="345.70" r="3" fill="hsl(88, 80%, 65%)" />
<circle cx="143.19" cy="237.45" r="4" fill="hsl(96, 80%, 65%)" />
<circle cx="351.92" cy="193.35" r="5" fill="hsl(104, 80%, 65%)" />
<circle cx="227.53" cy="367.23" r="6" fill="hsl(112, 80%, 65%)" />
<circle cx="201.74" cy="154.55" r="2" fill="hsl(120, 80%, 65%)" />
<circle cx="364.76" cy="294.24" r="3" fill="hsl(128, 80%, 65%)" />
<circle cx="149.75" cy="301.37" r="4" fill="hsl(136, 80%, 65%)" />
<circle cx="303.80" cy="150.56" r="5" fill="hsl(144, 80%, 65%)" />
<circle cx="292.05" cy="366.26" r="6" fill="hsl(152, 80%, 65%)" />
<circle cx="154.73" cy="198.93" r="2" fill="hsl(160, 80%, 65%)" />
<circle cx="369.45" cy="229.62" r="3" fill="hsl(168, 80%, 65%)" />
<circle cx="190.03" cy="352.28" r="4" fill="hsl(176, 80%, 65%)" />
<circle cx="239.57" cy="140.21" r="5" fill="hsl(184, 80%, 65%)" />
<circle cx="346.51" cy="330.44" r="6" fill="hsl(192, 80%, 65%)" />
<circle cx="138.74" cy="262.27" r="2" fill="hsl(200, 80%, 65%)" />
<circle cx="338.39" cy="172.01" r="3" fill="hsl(208, 80%, 65%)" />
<circle cx="251.98" cy="373.82" r="4" fill="hsl(216, 80%, 65%)" />
<circle cx="179.23" cy="166.22" r="5" fill="hsl(224, 80%, 65%)" />
<circle cx="373.48" cy="270.37" r="6" fill="hsl(232, 80%, 65%)" />
<circle cx="159.48" cy="324.90" r="2" fill="hsl(240, 80%, 65%)" />
<circle cx="280.68" cy="139.77" r="3" fill="hsl(248, 80%, 65%)" />
<circle cx="316.43" cy="358.58" r="4" fill="hsl(256, 80%, 65%)" />
<circle cx="141.93" cy="221.12" r="5" fill="hsl(264, 80%, 65%)" />
<circle cx="363.88" cy="204.57" r="6" fill="hsl(272, 80%, 65%)" />
<circle cx="211.11" cy="367.01" r="2" fill="hsl(280, 80%, 65%)" />
<circle cx="214.03" cy="143.60" r="3" fill="hsl(288, 80%, 65%)" />
<circle cx="363.07" cy="310.64" r="4" fill="hsl(296, 80%, 65%)" />
<circle cx="139.92" cy="288.10" r="5" fill="hsl(304, 80%, 65%)" />
<circle cx="320.03" cy="153.72" r="6" fill="hsl(312, 80%, 65%)" />
<circle cx="277.91" cy="374.89" r="2" fill="hsl(320, 80%, 65%)" />
<circle cx="159.35" cy="183.00" r="3" fill="hsl(328, 80%, 65%)" />
<circle cx="376.81" cy="244.52" r="4" fill="hsl(336, 80%, 65%)" />
<circle cx="174.52" cy="346.23" r="5" fill="hsl(344, 80%, 65%)" />
<circle cx="255.13" cy="134.20" r="6" fill="hsl(352, 80%, 65%)" />
<circle cx="339.07" cy="345.39" r="2" fill="hsl(0, 80%, 65%)" />
<circle cx="134.14" cy="246.19" r="3" fill="hsl(8, 80%, 65%)" />
<circle cx="352.66" cy="180.78" r="4" fill="hsl(16, 80%, 65%)" />
<circle cx="235.50" cy="376.98" r="5" fill="hsl(24, 80%, 65%)" />
<circle cx="189.28" cy="152.75" r="6" fill="hsl(32, 80%, 65%)" />
<circle cx="375.16" cy="287.12" r="2" fill="hsl(40, 80%, 65%)" />
<circle cx="146.92" cy="313.65" r="3" fill="hsl(48, 80%, 65%)" />
<circle cx="297.57" cy="139.60" r="4" fill="hsl(56, 80%, 65%)" />
</svg>
