<svg xmlns="http://www.w3.org/2000/svg" width="512" height="512" viewBox="0 0 512 512">
<rect width="100%" height="100%" fill="black"/>
<circle cx="256.00" cy="256.00" r="2" fill="hsl(0, 80%, 65%)" />
<circle cx="250.09" cy="261.41" r="3" fill="hsl(7, 80%, 65%)" />
<circle cx="256.99" cy="244.71" r="4" fill="hsl(14, 80%, 65%)" />
<circle cx="264.45" cy="267.02" r="5" fill="hsl(21, 80%, 65%)" />
<circle cx="240.21" cy="253.21" r="6" fill="hsl(28, 80%, 65%)" />
<circle cx="271.12" cy="246.38" r="2" fill="hsl(35, 80%, 65%)" />
<circle cx="250.90" cy="274.96" r="3" fill="hsl(42, 80%, 65%)" />
<circle cx="246.23" cy="237.18" r="4" fill="hsl(49, 80%, 65%)" />
<circle cx="277.30" cy="263.78" r="5" fill="hsl(56, 80%, 65%)" />
<circle cx="233.77" cy="265.17" r="6" fill="hsl(63, 80%, 65%)" />
<circle cx="266.74" cy="233.04" r="2" fill="hsl(70, 80%, 65%)" />
<circle cx="263.96" cy="281.37" r="3" fill="hsl(77, 80%, 65%)" />
<circle cx="231.98" cy="242.08" r="4" fill="hsl(84, 80%, 65%)" />
<circle cx="284.23" cy="249.79" r="5" fill="hsl(91, 80%, 65%)" />
<circle cx="238.75" cy="280.53" r="6" fill="hsl(98, 80%, 65%)" />
<circle cx="252.01" cy="225.21" r="2" fill="hsl(105, 80%, 65%)" />
<circle cx="280.52" cy="276.66" r="3" fill="hsl(112, 80%, 65%)" />
<circle cx="222.98" cy="257.37" r="4" fill="hsl(119, 80%, 65%)" />
<circle cx="280.10" cy="232.01" r="5" fill="hsl(126, 80%, 65%)" />
<circle cx="254.39" cy="290.90" r="6" fill="hsl(133, 80%, 65%)" />
<circle cx="233.03" cy="228.48" r="2" fill="hsl(140, 80%, 65%)" />
<circle cx="292.40" cy="260.90" r="3" fill="hsl(147, 80%, 65%)" />
<circle cx="225.14" cy="277.47" r="4" fill="hsl(154, 80%, 65%)" />
<circle cx="264.44" cy="218.50" r="5" fill="hsl(161, 80%, 65%)" />
<circle cx="275.52" cy="290.07" r="6" fill="hsl(168, 80%, 65%)" />
<circle cx="217.82" cy="243.82" r="2" fill="hsl(175, 80%, 65%)" />
<circle cx="293.10" cy="238.86" r="3" fill="hsl(182, 80%, 65%)" />
<circle cx="239.92" cy="294.42" r="4" fill="hsl(189, 80%, 65%)" />
<circle cx="241.65" cy="216.09" r="5" fill="hsl(196, 80%, 65%)" />
<circle cx="294.21" cy="276.08" r="6" fill="hsl(203, 80%, 65%)" />
<circle cx="213.55" cy="267.19" r="2" fill="hsl(210, 80%, 65%)" />
<circle cx="280.14" cy="218.46" r="3" fill="hsl(217, 80%, 65%)" />
<circle cx="263.68" cy="300.69" r="4" fill="hsl(224, 80%, 65%)" />
<circle cx="219.60" cy="227.81" r="5" fill="hsl(231, 80%, 65%)" />
<circle cx="302.58" cy="252.14" r="6" fill="hsl(238, 80%, 65%)" />
<circle cx="223.80" cy="290.81" r="2" fill="hsl(245, 80%, 65%)" />
<circle cx="256.23" cy="207.91" r="3" fill="hsl(252, 80%, 65%)" />
<circle cx="288.76" cy="292.11" r="4" fill="hsl(259, 80%, 65%)" />
<circle cx="206.80" cy="251.44" r="5" fill="hsl(266, 80%, 65%)" />
<circle cx="295.87" cy="225.74" r="6" fill="hsl(273, 80%, 65%)" />
<circle cx="246.93" cy="305.88" r="2" fill="hsl(280, 80%, 65%)" />
<circle cx="228.66" cy="212.56" r="3" fill="hsl(287, 80%, 65%)" />
<circle cx="306.10" cy="269.73" r="4" fill="hsl(294, 80%, 65%)" />
<circle cx="209.24" cy="280.00" r="5" fill="hsl(301, 80%, 65%)" />
<circle cx="274.48" cy="206.15" r="6" fill="hsl(308, 80%, 65%)" />
<circle cx="276.27" cy="305.80" r="2" fill="hsl(315, 80%, 65%)" />
<circle cx="206.87" cy="232.72" r="3" fill="hsl(322, 80%, 65%)" />
<circle cx="308.51" cy="239.81" r="4" fill="hsl(329, 80%, 65%)" />
<circle cx="227.92" cy="303.91" r="5" fill="hsl(336, 80%, 65%)" />
<circle cx="244.22" cy="201.14" r="6" fill="hsl(343, 80%, 65%)" />
<circle cx="302.21" cy="288.82" r="2" fill="hsl(350, 80%, 65%)" />
<circle cx="199.20" cy="263.08" r="3" fill="hsl(357, 80%, 65%)" />
<circle cx="293.46" cy="211.99" r="4" fill="hsl(4, 80%, 65%)" />
<circle cx="258.13" cy="314.31" r="5" fill="hsl(11, 80%, 65%)" />
<circle cx="214.66" cy="214.05" r="6" fill="hsl(18, 80%, 65%)" />
<circle cx="315.37" cy="259.04" r="2" fill="hsl(25, 80%, 65%)" />
<circle cx="209.76" cy="294.21" r="3" fill="hsl(32, 80%, 65%)" />
<circle cx="264.36" cy="196.07" r="4" fill="hsl(39, 80%, 65%)" />
<circle cx="290.62" cy="306.28" r="5" fill="hsl(46, 80%, 65%)" />
<circle cx="196.00" cy="242.19" r="6" fill="hsl(53, 80%, 65%)" />
<circle cx="310.02" cy="225.39" r="2" fill="hsl(60, 80%, 65%)" />
<circle cx="236.68" cy="315.55" r="3" fill="hsl(67, 80%, 65%)" />
<circle cx="229.81" cy="198.58" r="4" fill="hsl(74, 80%, 65%)" />
<circle cx="314.57" cy="280.85" r="5" fill="hsl(81, 80%, 65%)" />
<circle cx="195.56" cy="277.41" r="6" fill="hsl(88, 80%, 65%)" />
<circle cx="286.34" cy="198.94" r="2" fill="hsl(95, 80%, 65%)" />
<circle cx="272.29" cy="319.05" r="3" fill="hsl(102, 80%, 65%)" />
<circle cx="200.99" cy="220.25" r="4" fill="hsl(109, 80%, 65%)" />
<circle cx="321.20" cy="245.12" r="5" fill="hsl(116, 80%, 65%)" />
<circle cx="214.98" cy="308.44" r="6" fill="hsl(123, 80%, 65%)" />
<circle cx="250.79" cy="189.14" r="2" fill="hsl(130, 80%, 65%)" />
<circle cx="305.35" cy="302.11" r="3" fill="hsl(137, 80%, 65%)" />
<circle cx="187.99" cy="255.34" r="4" fill="hsl(144, 80%, 65%)" />
<circle cx="306.95" cy="210.24" r="5" fill="hsl(151, 80%, 65%)" />
<circle cx="249.30" cy="324.62" r="6" fill="hsl(158, 80%, 65%)" />
<circle cx="214.30" cy="200.50" r="2" fill="hsl(165, 80%, 65%)" />
<circle cx="324.69" cy="268.84" r="3" fill="hsl(172, 80%, 65%)" />
<circle cx="196.29" cy="293.17" r="4" fill="hsl(179, 80%, 65%)" />
<circle cx="275.04" cy="187.82" r="5" fill="hsl(186, 80%, 65%)" />
<circle cx="288.22" cy="319.54" r="6" fill="hsl(193, 80%, 65%)" />
<circle cx="188.90" cy="230.75" r="2" fill="hsl(200, 80%, 65%)" />
<circle cx="322.95" cy="229.13" r="3" fill="hsl(207, 80%, 65%)" />
<circle cx="224.60" cy="321.44" r="4" fill="hsl(214, 80%, 65%)" />
<circle cx="234.83" cy="186.11" r="5" fill="hsl(221, 80%, 65%)" />
<circle cx="319.20" cy="293.45" r="6" fill="hsl(228, 80%, 65%)" />
<circle cx="183.67" cy="271.16" r="2" fill="hsl(235, 80%, 65%)" />
<circle cx="299.34" cy="195.61" r="3" fill="hsl(242, 80%, 65%)" />
<circle cx="264.88" cy="330.23" r="4" fill="hsl(249, 80%, 65%)" />
<circle cx="198.98" cy="206.98" r="5" fill="hsl(256, 80%, 65%)" />
<circle cx="331.58" cy="253.61" r="6" fill="hsl(263, 80%, 65%)" />
<circle cx="201.58" cy="309.11" r="2" fill="hsl(270, 80%, 65%)" />
<circle cx="260.28" cy="179.66" r="3" fill="hsl(277, 80%, 65%)" />
<circle cx="304.68" cy="315.51" r="4" fill="hsl(284, 80%, 65%)" />
<circle cx="179.50" cy="244.95" r="5" fill="hsl(291, 80%, 65%)" />
<circle cx="320.22" cy="212.24" r="6" fill="hsl(298, 80%, 65%)" />
<circle cx="238.11" cy="332.05" r="2" fill="hsl(305, 80%, 65%)" />
<circle cx="217.62" cy="187.48" r="3" fill="hsl(312, 80%, 65%)" />
<circle cx="330.97" cy="280.73" r="4" fill="hsl(319, 80%, 65%)" />
<circle cx="183.65" cy="288.58" r="5" fill="hsl(326, 80%, 65%)" />
<circle cx="287.51" cy="182.73" r="6" fill="hsl(333, 80%, 65%)" />
<circle cx="282.39" cy="331.68" r="2" fill="hsl(340, 80%, 65%)" />
<circle cx="185.06" cy="217.83" r="3" fill="hsl(347, 80%, 65%)" />
<circle cx="334.48" cy="236.13" r="4" fill="hsl(354, 80%, 65%)" />
<circle cx="211.34" cy="323.99" r="5" fill="hsl(1, 80%, 65%)" />
<circle cx="242.94" cy="175.31" r="6" fill="hsl(8, 80%, 65%)" />
<circle cx="320.44" cy="306.92" r="2" fill="hsl(15, 80%, 65%)" />
<circle cx="173.70" cy="262.01" r="3" fill="hsl(22, 80%, 65%)" />
<circle cx="312.89" cy="195.69" r="4" fill="hsl(29, 80%, 65%)" />
<circle cx="254.78" cy="339.29" r="5" fill="hsl(36, 80%, 65%)" />
<circle cx="200.38" cy="193.47" r="6" fill="hsl(43, 80%, 65%)" />
<circle cx="339.63" cy="264.57" r="2" fill="hsl(50, 80%, 65%)" />
<circle cx="188.24" cy="306.39" r="3" fill="hsl(57, 80%, 65%)" />
<circle cx="272.00" cy="172.70" r="4" fill="hsl(64, 80%, 65%)" />
<circle cx="300.67" cy="328.55" r="5" fill="hsl(71, 80%, 65%)" />
<circle cx="173.69" cy="232.58" r="6" fill="hsl(78, 80%, 65%)" />
<circle cx="332.85" cy="217.50" r="2" fill="hsl(85, 80%, 65%)" />
<circle cx="225.20" cy="336.65" r="3" fill="hsl(92, 80%, 65%)" />
<circle cx="224.10" cy="175.38" r="4" fill="hsl(99, 80%, 65%)" />
<circle cx="334.31" cy="294.05" r="5" fill="hsl(106, 80%, 65%)" />
<circle cx="172.20" cy="280.94" r="6" fill="hsl(113, 80%, 65%)" />
<circle cx="301.13" cy="180.68" r="2" fill="hsl(120, 80%, 65%)" />
<circle cx="273.67" cy="342.38" r="3" fill="hsl(127, 80%, 65%)" />
<circle cx="184.33" cy="204.03" r="4" fill="hsl(134, 80%, 65%)" />
<circle cx="344.32" cy="245.87" r="5" fill="hsl(141, 80%, 65%)" />
<circle cx="197.49" cy="323.40" r="6" fill="hsl(148, 80%, 65%)" />
<circle cx="253.61" cy="166.42" r="2" fill="hsl(155, 80%, 65%)" />
<circle cx="318.52" cy="320.70" r="3" fill="hsl(162, 80%, 65%)" />
<circle cx="165.84" cy="250.51" r="4" fill="hsl(169, 80%, 65%)" />
<circle cx="326.47" cy="198.92" r="5" fill="hsl(176, 80%, 65%)" />
<circle cx="242.54" cy="346.04" r="6" fill="hsl(183, 80%, 65%)" />
<circle cx="204.91" cy="180.23" r="2" fill="hsl(190, 80%, 65%)" />
<circle cx="345.20" cy="277.44" r="3" fill="hsl(197, 80%, 65%)" />
<circle cx="175.44" cy="300.61" r="4" fill="hsl(204, 80%, 65%)" />
<circle cx="285.38" cy="168.36" r="5" fill="hsl(211, 80%, 65%)" />
<circle cx="293.68" cy="340.79" r="6" fill="hsl(218, 80%, 65%)" />
<circle cx="170.63" cy="218.79" r="2" fill="hsl(225, 80%, 65%)" />
<circle cx="344.41" cy="225.65" r="3" fill="hsl(232, 80%, 65%)" />
<circle cx="211.14" cy="338.40" r="4" fill="hsl(239, 80%, 65%)" />
<circle cx="233.33" cy="164.61" r="5" fill="hsl(246, 80%, 65%)" />
<circle cx="334.73" cy="308.27" r="6" fill="hsl(253, 80%, 65%)" />
<circle cx="162.31" cy="270.69" r="2" fill="hsl(260, 80%, 65%)" />
<circle cx="315.37" cy="181.61" r="3" fill="hsl(267, 80%, 65%)" />
<circle cx="262.49" cy="351.29" r="4" fill="hsl(274, 80%, 65%)" />
<circle cx="186.60" cy="189.89" r="5" fill="hsl(281, 80%, 65%)" />
<circle cx="352.17" cy="257.88" r="6" fill="hsl(288, 80%, 65%)" />
<circle cx="183.57" cy="319.80" r="2" fill="hsl(295, 80%, 65%)" />
<circle cx="266.35" cy="159.70" r="3" fill="hsl(302, 80%, 65%)" />
<circle cx="313.61" cy="334.26" r="4" fill="hsl(309, 80%, 65%)" />
<circle cx="160.33" cy="237.14" r="5" fill="hsl(316, 80%, 65%)" />
<circle cx="339.56" cy="205.11" r="6" fill="hsl(323, 80%, 65%)" />
<circle cx="228.67" cy="350.29" r="2" fill="hsl(330, 80%, 65%)" />
<circle cx="212.32" cy="167.72" r="3" fill="hsl(337, 80%, 65%)" />
<circle cx="348.14" cy="291.70" r="4" fill="hsl(344, 80%, 65%)" />
<circle cx="163.64" cy="292.03" r="5" fill="hsl(351, 80%, 65%)" />
<circle cx="299.91" cy="166.75" r="6" fill="hsl(358, 80%, 65%)" />
<circle cx="284.00" cy="351.78" r="2" fill="hsl(5, 80%, 65%)" />
<circle cx="170.38" cy="204.12" r="3" fill="hsl(12, 80%, 65%)" />
<circle cx="354.49" cy="236.35" r="4" fill="hsl(19, 80%, 65%)" />
<circle cx="196.46" cy="337.27" r="5" fill="hsl(26, 80%, 65%)" />
<circle cx="244.97" cy="155.53" r="6" fill="hsl(33, 80%, 65%)" />
<circle cx="332.24" cy="322.84" r="2" fill="hsl(40, 80%, 65%)" />
<circle cx="154.32" cy="258.22" r="3" fill="hsl(47, 80%, 65%)" />
<circle cx="329.70" cy="185.46" r="4" fill="hsl(54, 80%, 65%)" />
<circle cx="249.28" cy="358.11" r="5" fill="hsl(61, 80%, 65%)" />
<circle cx="191.78" cy="175.92" r="6" fill="hsl(68, 80%, 65%)" />
<circle cx="357.75" cy="271.72" r="2" fill="hsl(75, 80%, 65%)" />
<circle cx="170.09" cy="313.32" r="3" fill="hsl(82, 80%, 65%)" />
<circle cx="280.70" cy="155.41" r="4" fill="hsl(89, 80%, 65%)" />
<circle cx="305.88" cy="347.13" r="5" fill="hsl(96, 80%, 65%)" />
<circle cx="157.37" cy="222.40" r="6" fill="hsl(103, 80%, 65%)" />
<circle cx="351.71" cy="214.03" r="2" fill="hsl(110, 80%, 65%)" />
<circle cx="213.66" cy="351.88" r="3" fill="hsl(117, 80%, 65%)" />
<circle cx="222.36" cy="156.41" r="4" fill="hsl(124, 80%, 65%)" />
<circle cx="348.35" cy="306.86" r="5" fill="hsl(131, 80%, 65%)" />
<circle cx="153.26" cy="280.95" r="6" fill="hsl(138, 80%, 65%)" />
<circle cx="315.08" cy="167.95" r="2" fill="hsl(145, 80%, 65%)" />
<circle cx="271.96" cy="361.13" r="3" fill="hsl(152, 80%, 65%)" />
<circle cx="172.98" cy="189.07" r="4" fill="hsl(159, 80%, 65%)" />
<circle cx="362.73" cy="249.25" r="5" fill="hsl(166, 80%, 65%)" />
<circle cx="181.65" cy="333.28" r="6" fill="hsl(173, 80%, 65%)" />
<circle cx="258.62" cy="148.49" r="2" fill="hsl(180, 80%, 65%)" />
<circle cx="326.88" cy="337.27" r="3" fill="hsl(187, 80%, 65%)" />
<circle cx="148.54" cy="243.92" r="4" fill="hsl(194, 80%, 65%)" />
<circle cx="343.63" cy="192.15" r="5" fill="hsl(201, 80%, 65%)" />
<circle cx="234.46" cy="362.57" r="6" fill="hsl(208, 80%, 65%)" />
<circle cx="199.75" cy="162.61" r="2" fill="hsl(215, 80%, 65%)" />
<circle cx="360.84" cy="286.94" r="3" fill="hsl(222, 80%, 65%)" />
<circle cx="157.52" cy="304.13" r="4" fill="hsl(229, 80%, 65%)" />
<circle cx="296.21" cy="153.72" r="5" fill="hsl(236, 80%, 65%)" />
<circle cx="295.55" cy="358.85" r="6" fill="hsl(243, 80%, 65%)" />
<circle cx="157.10" cy="206.74" r="2" fill="hsl(250, 80%, 65%)" />
<circle cx="362.47" cy="225.43" r="3" fill="hsl(257, 80%, 65%)" />
<circle cx="197.98" cy="350.71" r="4" fill="hsl(264, 80%, 65%)" />
<circle cx="234.75" cy="146.69" r="5" fill="hsl(271, 80%, 65%)" />
<circle cx="345.74" cy="322.42" r="6" fill="hsl(278, 80%, 65%)" />
<circle cx="144.68" cy="267.67" r="2" fill="hsl(285, 80%, 65%)" />
<circle cx="330.39" cy="171.98" r="3" fill="hsl(292, 80%, 65%)" />
<circle cx="257.91" cy="368.49" r="4" fill="hsl(299, 80%, 65%)" />
<circle cx="178.42" cy="174.14" r="5" fill="hsl(306, 80%, 65%)" />
<circle cx="368.79" cy="263.98" r="6" fill="hsl(313, 80%, 65%)" />
<circle cx="167.22" cy="326.48" r="2" fill="hsl(320, 80%, 65%)" />
<circle cx="273.90" cy="143.78" r="3" fill="hsl(327, 80%, 65%)" />
<circle cx="318.76" cy="351.07" r="4" fill="hsl(334, 80%, 65%)" />
<circle cx="145.23" cy="228.22" r="5" fill="hsl(341, 80%, 65%)" />
<circle cx="356.69" cy="201.52" r="6" fill="hsl(348, 80%, 65%)" />
<circle cx="218.46" cy="364.45" r="2" fill="hsl(355, 80%, 65%)" />
<circle cx="210.31" cy="150.42" r="3" fill="hsl(2, 80%, 65%)" />
<circle cx="361.26" cy="303.10" r="4" fill="hsl(9, 80%, 65%)" />
<circle cx="146.30" cy="292.46" r="5" fill="hsl(16, 80%, 65%)" />
<circle cx="312.40" cy="154.77" r="6" fill="hsl(23, 80%, 65%)" />
<circle cx="282.86" cy="369.01" r="2" fill="hsl(30, 80%, 65%)" />
<circle cx="159.63" cy="190.66" r="3" fill="hsl(37, 80%, 65%)" />
<circle cx="371.47" cy="239.04" r="4" fill="hsl(44, 80%, 65%)" />
<circle cx="182.14" cy="346.71" r="5" fill="hsl(51, 80%, 65%)" />
<circle cx="249.17" cy="138.94" r="6" fill="hsl(58, 80%, 65%)" />
<circle cx="340.30" cy="337.89" r="2" fill="hsl(65, 80%, 65%)" />
<circle cx="138.25" cy="252.55" r="3" fill="hsl(72, 80%, 65%)" />
<circle cx="345.36" cy="178.82" r="4" fill="hsl(79, 80%, 65%)" />
<circle cx="242.21" cy="373.54" r="5" fill="hsl(86, 80%, 65%)" />
<circle cx="186.61" cy="159.79" r="6" fill="hsl(93, 80%, 65%)" />
<circle cx="372.41" cy="280.13" r="2" fill="hsl(100, 80%, 65%)" />
<circle cx="153.63" cy="316.99" r="3" fill="hsl(107, 80%, 65%)" />
<circle cx="290.37" cy="141.62" r="4" fill="hsl(114, 80%, 65%)" />
<circle cx="308.04" cy="363.79" r="5" fill="hsl(121, 80%, 65%)" />
<circle cx="144.57" cy="211.57" r="6" fill="hsl(128, 80%, 65%)" />
<circle cx="368.43" cy="213.40" r="2" fill="hsl(135, 80%, 65%)" />
<circle cx="201.76" cy="363.60" r="3" fill="hsl(142, 80%, 65%)" />
<circle cx="223.25" cy="139.76" r="4" fill="hsl(149, 80%, 65%)" />
<circle cx="358.90" cy="319.72" r="5" fill="hsl(156, 80%, 65%)" />
<circle cx="136.82" cy="278.57" r="6" fill="hsl(163, 80%, 65%)" />
<circle cx="328.79" cy="158.65" r="2" fill="hsl(170, 80%, 65%)" />
<circle cx="268.11" cy="377.22" r="3" fill="hsl(177, 80%, 65%)" />
<circle cx="164.99" cy="174.62" r="4" fill="hsl(184, 80%, 65%)" />
<circle cx="378.34" cy="254.52" r="5" fill="hsl(191, 80%, 65%)" />
<circle cx="166.60" cy="339.91" r="6" fill="hsl(198, 80%, 65%)" />
<circle cx="265.27" cy="133.48" r="2" fill="hsl(205, 80%, 65%)" />
<circle cx="332.09" cy="352.81" r="3" fill="hsl(212, 80%, 65%)" />
<circle cx="134.24" cy="235.97" r="4" fill="hsl(219, 80%, 65%)" />
<circle cx="359.53" cy="188.38" r="5" fill="hsl(226, 80%, 65%)" />
<circle cx="225.28" cy="376.05" r="6" fill="hsl(233, 80%, 65%)" />
<circle cx="197.44" cy="146.50" r="2" fill="hsl(240, 80%, 65%)" />
<circle cx="373.39" cy="297.27" r="3" fill="hsl(247, 80%, 65%)" />
<circle cx="141.33" cy="304.96" r="4" fill="hsl(254, 80%, 65%)" />
<circle cx="307.59" cy="142.20" r="5" fill="hsl(261, 80%, 65%)" />
<circle cx="294.91" cy="375.00" r="6" fill="hsl(268, 80%, 65%)" />
<circle cx="146.70" cy="194.41" r="2" fill="hsl(275, 80%, 65%)" />
<circle cx="378.45" cy="227.53" r="3" fill="hsl(282, 80%, 65%)" />
<circle cx="184.80" cy="359.92" r="4" fill="hsl(289, 80%, 65%)" />
<circle cx="238.27" cy="131.03" r="5" fill="hsl(296, 80%, 65%)" />
<circle cx="353.69" cy="336.34" r="6" fill="hsl(303, 80%, 65%)" />
<circle cx="129.45" cy="262.76" r="2" fill="hsl(310, 80%, 65%)" />
<circle cx="344.93" cy="165.35" r="3" fill="hsl(317, 80%, 65%)" />
<circle cx="251.66" cy="383.17" r="4" fill="hsl(324, 80%, 65%)" />
<circle cx="173.14" cy="159.11" r="5" fill="hsl(331, 80%, 65%)" />
<circle cx="382.80" cy="271.51" r="6" fill="hsl(338, 80%, 65%)" />
<circle cx="151.82" cy="330.36" r="2" fill="hsl(345, 80%, 65%)" />
<circle cx="282.64" cy="130.55" r="3" fill="hsl(352, 80%, 65%)" />
<circle cx="321.23" cy="366.71" r="4" fill="hsl(359, 80%, 65%)" />
<circle cx="132.88" cy="218.35" r="5" fill="hsl(6, 80%, 65%)" />
<circle cx="372.44" cy="200.49" r="6" fill="hsl(13, 80%, 65%)" />
<circle cx="207.55" cy="375.82" r="2" fill="hsl(20, 80%, 65%)" />
<circle cx="210.71" cy="134.69" r="3" fill="hsl(27, 80%, 65%)" />
<circle cx="371.56" cy="314.97" r="4" fill="hsl(34, 80%, 65%)" />
<circle cx="130.71" cy="290.65" r="5" fill="hsl(41, 80%, 65%)" />
<circle cx="325.11" cy="145.61" r="6" fill="hsl(48, 80%, 65%)" />
<circle cx="279.65" cy="384.32" r="2" fill="hsl(55, 80%, 65%)" />
<circle cx="151.69" cy="177.21" r="3" fill="hsl(62, 80%, 65%)" />
<circle cx="386.39" cy="243.61" r="4" fill="hsl(69, 80%, 65%)" />
</svg>
