<svg xmlns="http://www.w3.org/2000/svg" width="512" height="512" viewBox="0 0 512 512">
<rect width="100%" height="100%" fill="#0b1020"/>
<circle cx="445" cy="102" r="52" fill="#f8f3c9" opacity="0.95" />
<circle cx="425.0" cy="68.0" r="3.3" fill="white" />
<circle cx="336.0" cy="119.0" r="3.0" fill="white" />
<circle cx="354.0" cy="80.0" r="3.3" fill="white" />
<circle cx="367.0" cy="68.0" r="2.8" fill="white" />
<circle cx="226.0" cy="116.0" r="1.6" fill="white" />
<circle cx="103.0" cy="76.0" r="3.2" fill="white" />
<circle cx="437.0" cy="124.0" r="2.1" fill="white" />
<circle cx="220.0" cy="29.0" r="2.9" fill="white" />
<circle cx="149.0" cy="26.0" r="1.8" fill="white" />
<circle cx="364.0" cy="132.0" r="2.8" fill="white" />
<circle cx="299.0" cy="120.0" r="2.4" fill="white" />
<circle cx="82.0" cy="167.0" r="2.8" fill="white" />
<circle cx="271.0" cy="78.0" r="3.4" fill="white" />
<circle cx="231.0" cy="134.0" r="2.1" fill="white" />
<circle cx="162.0" cy="79.0" r="2.9" fill="white" />
<path d="M 20 430 C 125 412, 184 440, 280 421 S 450 392, 512 422" stroke="#5dade2" stroke-width="5" fill="none" opacity="0.85" />
<line x1="0" y1="390" x2="512" y2="390" stroke="#445566" stroke-width="2" />
<polygon points="158,358 198,298 238,318 258,288 278,308 290,348 258,370 208,374" fill="#1e1e1e" />
<polygon points="233,298 246,276 256,300" fill="#1e1e1e" />
<line x1="288" y1="343" x2="318" y2="318" stroke="#1e1e1e" stroke-width="6" />
</svg>
