<svg xmlns="http://www.w3.org/2000/svg" width="512" height="512" viewBox="0 0 512 512">
<rect width="100%" height="100%" fill="#0b1020"/>
<circle cx="355" cy="63" r="55" fill="#f8f3c9" opacity="0.95" />
<circle cx="345.0" cy="24.0" r="3.3" fill="white" />
<circle cx="404.0" cy="153.0" r="3.1" fill="white" />
<circle cx="72.0" cy="102.0" r="2.4" fill="white" />
<circle cx="432.0" cy="24.0" r="2.8" fill="white" />
<circle cx="68.0" cy="158.0" r="2.1" fill="white" />
<circle cx="264.0" cy="43.0" r="1.5" fill="white" />
<circle cx="414.0" cy="79.0" r="3.3" fill="white" />
<path d="M 20 430 C 105 417, 177 448, 314 421 S 450 381, 512 411" stroke="#5dade2" stroke-width="5" fill="none" opacity="0.85" />
<line x1="0" y1="394" x2="512" y2="394" stroke="#445566" stroke-width="4" />
<polygon points="179,365 219,305 259,325 279,295 299,315 311,355 279,377 229,381" fill="#1e1e1e" />
<polygon points="254,305 267,283 277,307" fill="#1e1e1e" />
<line x1="309" y1="350" x2="339" y2="325" stroke="#1e1e1e" stroke-width="6" />
</svg>
