<svg xmlns="http://www.w3.org/2000/svg" width="512" height="512" viewBox="0 0 512 512">
<rect width="100%" height="100%" fill="#0b1020"/>
<circle cx="444" cy="129" r="46" fill="#f8f3c9" opacity="0.95" />
<circle cx="152.0" cy="75.0" r="3.3" fill="white" />
<circle cx="151.0" cy="66.0" r="2.3" fill="white" />
<circle cx="313.0" cy="159.0" r="1.6" fill="white" />
<circle cx="114.0" cy="114.0" r="3.2" fill="white" />
<circle cx="175.0" cy="131.0" r="3.4" fill="white" />
<circle cx="189.0" cy="126.0" r="3.1" fill="white" />
<circle cx="29.0" cy="92.0" r="1.6" fill="white" />
<circle cx="433.0" cy="138.0" r="2.8" fill="white" />
<circle cx="391.0" cy="87.0" r="2.7" fill="white" />
<circle cx="345.0" cy="121.0" r="1.8" fill="white" />
<circle cx="290.0" cy="171.0" r="2.6" fill="white" />
<circle cx="373.0" cy="107.0" r="3.4" fill="white" />
<circle cx="269.0" cy="173.0" r="2.5" fill="white" />
<path d="M 20 430 C 123 419, 161 447, 302 439 S 450 400, 512 430" stroke="#5dade2" stroke-width="5" fill="none" opacity="0.85" />
<line x1="0" y1="408" x2="512" y2="408" stroke="#445566" stroke-width="3" />
<polygon points="154,360 194,300 234,320 254,290 274,310 286,350 254,372 204,376" fill="#1e1e1e" />
<polygon points="229,300 242,278 252,302" fill="#1e1e1e" />
<line x1="284" y1="345" x2="314" y2="320" stroke="#1e1e1e" stroke-width="6" />
</svg>
