<svg xmlns="http://www.w3.org/2000/svg" width="512" height="512" viewBox="0 0 512 512">
<rect width="100%" height="100%" fill="black"/>
<circle cx="256.00" cy="256.00" r="2" fill="hsl(0, 80%, 65%)" />
<circle cx="250.91" cy="260.66" r="3" fill="hsl(6, 80%, 65%)" />
<circle cx="256.85" cy="246.28" r="4" fill="hsl(12, 80%, 65%)" />
<circle cx="263.27" cy="265.48" r="5" fill="hsl(18, 80%, 65%)" />
<circle cx="242.41" cy="253.60" r="6" fill="hsl(24, 80%, 65%)" />
<circle cx="269.02" cy="247.72" r="2" fill="hsl(30, 80%, 65%)" />
<circle cx="251.61" cy="272.32" r="3" fill="hsl(36, 80%, 65%)" />
<circle cx="247.59" cy="239.80" r="4" fill="hsl(42, 80%, 65%)" />
<circle cx="274.33" cy="262.69" r="5" fill="hsl(48, 80%, 65%)" />
<circle cx="236.87" cy="263.90" r="6" fill="hsl(54, 80%, 65%)" />
<circle cx="265.25" cy="236.24" r="2" fill="hsl(60, 80%, 65%)" />
<circle cx="262.85" cy="277.83" r="3" fill="hsl(66, 80%, 65%)" />
<circle cx="235.32" cy="244.02" r="4" fill="hsl(72, 80%, 65%)" />
<circle cx="280.30" cy="250.66" r="5" fill="hsl(78, 80%, 65%)" />
<circle cx="241.15" cy="277.12" r="6" fill="hsl(84, 80%, 65%)" />
<circle cx="252.57" cy="229.50" r="2" fill="hsl(90, 80%, 65%)" />
<circle cx="277.10" cy="273.79" r="3" fill="hsl(96, 80%, 65%)" />
<circle cx="227.58" cy="257.18" r="4" fill="hsl(102, 80%, 65%)" />
<circle cx="276.75" cy="235.35" r="5" fill="hsl(108, 80%, 65%)" />
<circle cx="254.61" cy="286.04" r="6" fill="hsl(114, 80%, 65%)" />
<circle cx="236.23" cy="232.31" r="2" fill="hsl(120, 80%, 65%)" />
<circle cx="287.34" cy="260.22" r="3" fill="hsl(126, 80%, 65%)" />
<circle cx="229.44" cy="274.48" r="4" fill="hsl(132, 80%, 65%)" />
<circle cx="263.26" cy="223.72" r="5" fill="hsl(138, 80%, 65%)" />
<circle cx="272.81" cy="285.33" r="6" fill="hsl(144, 80%, 65%)" />
<circle cx="223.13" cy="245.51" r="2" fill="hsl(150, 80%, 65%)" />
<circle cx="287.94" cy="241.24" r="3" fill="hsl(156, 80%, 65%)" />
<circle cx="242.16" cy="289.07" r="4" fill="hsl(162, 80%, 65%)" />
<circle cx="243.64" cy="221.65" r="5" fill="hsl(168, 80%, 65%)" />
<circle cx="288.89" cy="273.29" r="6" fill="hsl(174, 80%, 65%)" />
<circle cx="219.46" cy="265.63" r="2" fill="hsl(180, 80%, 65%)" />
<circle cx="276.78" cy="223.69" r="3" fill="hsl(186, 80%, 65%)" />
<circle cx="262.61" cy="294.47" r="4" fill="hsl(192, 80%, 65%)" />
<circle cx="224.66" cy="231.73" r="5" fill="hsl(198, 80%, 65%)" />
<circle cx="296.09" cy="252.68" r="6" fill="hsl(204, 80%, 65%)" />
<circle cx="228.28" cy="285.96" r="2" fill="hsl(210, 80%, 65%)" />
<circle cx="256.20" cy="214.60" r="3" fill="hsl(216, 80%, 65%)" />
<circle cx="284.20" cy="287.08" r="4" fill="hsl(222, 80%, 65%)" />
<circle cx="213.65" cy="252.08" r="5" fill="hsl(228, 80%, 65%)" />
<circle cx="290.32" cy="229.95" r="6" fill="hsl(234, 80%, 65%)" />
<circle cx="248.19" cy="298.93" r="2" fill="hsl(240, 80%, 65%)" />
<circle cx="232.47" cy="218.61" r="3" fill="hsl(246, 80%, 65%)" />
<circle cx="299.12" cy="267.82" r="4" fill="hsl(252, 80%, 65%)" />
<circle cx="215.75" cy="276.66" r="5" fill="hsl(258, 80%, 65%)" />
<circle cx="271.91" cy="213.09" r="6" fill="hsl(264, 80%, 65%)" />
<circle cx="273.45" cy="298.87" r="2" fill="hsl(270, 80%, 65%)" />
<circle cx="213.71" cy="235.96" r="3" fill="hsl(276, 80%, 65%)" />
<circle cx="301.20" cy="242.06" r="4" fill="hsl(282, 80%, 65%)" />
<circle cx="231.83" cy="297.24" r="5" fill="hsl(288, 80%, 65%)" />
<circle cx="245.86" cy="208.78" r="6" fill="hsl(294, 80%, 65%)" />
<circle cx="295.77" cy="284.25" r="2" fill="hsl(300, 80%, 65%)" />
<circle cx="207.11" cy="262.09" r="3" fill="hsl(306, 80%, 65%)" />
<circle cx="288.25" cy="218.11" r="4" fill="hsl(312, 80%, 65%)" />
<circle cx="257.83" cy="306.20" r="5" fill="hsl(318, 80%, 65%)" />
<circle cx="220.41" cy="219.89" r="6" fill="hsl(324, 80%, 65%)" />
<circle cx="307.10" cy="258.61" r="2" fill="hsl(330, 80%, 65%)" />
<circle cx="216.20" cy="288.89" r="3" fill="hsl(336, 80%, 65%)" />
<circle cx="263.20" cy="204.41" r="4" fill="hsl(342, 80%, 65%)" />
<circle cx="285.80" cy="299.28" r="5" fill="hsl(348, 80%, 65%)" />
<circle cx="204.35" cy="244.12" r="6" fill="hsl(354, 80%, 65%)" />
<circle cx="302.50" cy="229.66" r="2" fill="hsl(0, 80%, 65%)" />
<circle cx="239.37" cy="307.26" r="3" fill="hsl(6, 80%, 65%)" />
<circle cx="233.45" cy="206.57" r="4" fill="hsl(12, 80%, 65%)" />
<circle cx="306.41" cy="277.39" r="5" fill="hsl(18, 80%, 65%)" />
<circle cx="203.97" cy="274.43" r="6" fill="hsl(24, 80%, 65%)" />
<circle cx="282.12" cy="206.89" r="2" fill="hsl(30, 80%, 65%)" />
<circle cx="270.02" cy="310.27" r="3" fill="hsl(36, 80%, 65%)" />
<circle cx="208.65" cy="225.22" r="4" fill="hsl(42, 80%, 65%)" />
<circle cx="312.12" cy="246.64" r="5" fill="hsl(48, 80%, 65%)" />
<circle cx="220.69" cy="301.14" r="6" fill="hsl(54, 80%, 65%)" />
<circle cx="251.51" cy="198.45" r="2" fill="hsl(60, 80%, 65%)" />
<circle cx="298.48" cy="295.69" r="3" fill="hsl(66, 80%, 65%)" />
<circle cx="197.46" cy="255.43" r="4" fill="hsl(72, 80%, 65%)" />
<circle cx="299.85" cy="216.61" r="5" fill="hsl(78, 80%, 65%)" />
<circle cx="250.23" cy="315.07" r="6" fill="hsl(84, 80%, 65%)" />
<circle cx="220.11" cy="208.23" r="2" fill="hsl(90, 80%, 65%)" />
<circle cx="315.12" cy="267.05" r="3" fill="hsl(96, 80%, 65%)" />
<circle cx="204.60" cy="288.00" r="4" fill="hsl(102, 80%, 65%)" />
<circle cx="272.39" cy="197.31" r="5" fill="hsl(108, 80%, 65%)" />
<circle cx="283.73" cy="310.70" r="6" fill="hsl(114, 80%, 65%)" />
<circle cx="198.24" cy="234.27" r="2" fill="hsl(120, 80%, 65%)" />
<circle cx="313.63" cy="232.87" r="3" fill="hsl(126, 80%, 65%)" />
<circle cx="228.97" cy="312.33" r="4" fill="hsl(132, 80%, 65%)" />
<circle cx="237.77" cy="195.84" r="5" fill="hsl(138, 80%, 65%)" />
<circle cx="310.40" cy="288.24" r="6" fill="hsl(144, 80%, 65%)" />
<circle cx="193.74" cy="269.05" r="2" fill="hsl(150, 80%, 65%)" />
<circle cx="293.31" cy="204.02" r="3" fill="hsl(156, 80%, 65%)" />
<circle cx="263.65" cy="319.90" r="4" fill="hsl(162, 80%, 65%)" />
<circle cx="206.92" cy="213.81" r="5" fill="hsl(168, 80%, 65%)" />
<circle cx="321.06" cy="253.95" r="6" fill="hsl(174, 80%, 65%)" />
<circle cx="209.16" cy="301.72" r="2" fill="hsl(180, 80%, 65%)" />
<circle cx="259.68" cy="190.29" r="3" fill="hsl(186, 80%, 65%)" />
<circle cx="297.90" cy="307.22" r="4" fill="hsl(192, 80%, 65%)" />
<circle cx="190.15" cy="246.48" r="5" fill="hsl(198, 80%, 65%)" />
<circle cx="311.28" cy="218.33" r="6" fill="hsl(204, 80%, 65%)" />
<circle cx="240.60" cy="321.46" r="2" fill="hsl(210, 80%, 65%)" />
<circle cx="222.96" cy="197.02" r="3" fill="hsl(216, 80%, 65%)" />
<circle cx="320.53" cy="277.28" r="4" fill="hsl(222, 80%, 65%)" />
<circle cx="193.72" cy="284.04" r="5" fill="hsl(228, 80%, 65%)" />
<circle cx="283.12" cy="192.93" r="6" fill="hsl(234, 80%, 65%)" />
<circle cx="278.72" cy="321.15" r="2" fill="hsl(240, 80%, 65%)" />
<circle cx="194.94" cy="223.14" r="3" fill="hsl(246, 80%, 65%)" />
<circle cx="323.55" cy="238.90" r="4" fill="hsl(252, 80%, 65%)" />
<circle cx="217.56" cy="314.53" r="5" fill="hsl(258, 80%, 65%)" />
<circle cx="244.76" cy="186.54" r="6" fill="hsl(264, 80%, 65%)" />
<circle cx="311.47" cy="299.83" r="2" fill="hsl(270, 80%, 65%)" />
<circle cx="185.15" cy="261.17" r="3" fill="hsl(276, 80%, 65%)" />
<circle cx="304.97" cy="204.09" r="4" fill="hsl(282, 80%, 65%)" />
<circle cx="254.95" cy="327.69" r="5" fill="hsl(288, 80%, 65%)" />
<circle cx="208.12" cy="202.18" r="6" fill="hsl(294, 80%, 65%)" />
<circle cx="327.99" cy="263.38" r="2" fill="hsl(300, 80%, 65%)" />
<circle cx="197.67" cy="299.38" r="3" fill="hsl(306, 80%, 65%)" />
<circle cx="269.77" cy="184.29" r="4" fill="hsl(312, 80%, 65%)" />
<circle cx="294.46" cy="318.45" r="5" fill="hsl(318, 80%, 65%)" />
<circle cx="185.15" cy="235.84" r="6" fill="hsl(324, 80%, 65%)" />
<circle cx="322.15" cy="222.86" r="2" fill="hsl(330, 80%, 65%)" />
<circle cx="229.49" cy="325.42" r="3" fill="hsl(336, 80%, 65%)" />
<circle cx="228.54" cy="186.61" r="4" fill="hsl(342, 80%, 65%)" />
<circle cx="323.41" cy="288.76" r="5" fill="hsl(348, 80%, 65%)" />
<circle cx="183.86" cy="277.47" r="6" fill="hsl(354, 80%, 65%)" />
<circle cx="294.85" cy="191.17" r="2" fill="hsl(0, 80%, 65%)" />
<circle cx="271.21" cy="330.36" r="3" fill="hsl(6, 80%, 65%)" />
<circle cx="194.31" cy="211.26" r="4" fill="hsl(12, 80%, 65%)" />
<circle cx="332.02" cy="247.28" r="5" fill="hsl(18, 80%, 65%)" />
<circle cx="205.63" cy="314.02" r="6" fill="hsl(24, 80%, 65%)" />
<circle cx="253.94" cy="178.89" r="2" fill="hsl(30, 80%, 65%)" />
<circle cx="309.82" cy="311.69" r="3" fill="hsl(36, 80%, 65%)" />
<circle cx="178.39" cy="251.27" r="4" fill="hsl(42, 80%, 65%)" />
<circle cx="316.66" cy="206.87" r="5" fill="hsl(48, 80%, 65%)" />
<circle cx="244.42" cy="333.50" r="6" fill="hsl(54, 80%, 65%)" />
<circle cx="212.02" cy="190.78" r="2" fill="hsl(60, 80%, 65%)" />
<circle cx="332.78" cy="274.46" r="3" fill="hsl(66, 80%, 65%)" />
<circle cx="186.65" cy="294.40" r="4" fill="hsl(72, 80%, 65%)" />
<circle cx="281.29" cy="180.56" r="5" fill="hsl(78, 80%, 65%)" />
<circle cx="288.43" cy="328.99" r="6" fill="hsl(84, 80%, 65%)" />
<circle cx="182.51" cy="223.97" r="2" fill="hsl(90, 80%, 65%)" />
<circle cx="332.10" cy="229.88" r="3" fill="hsl(96, 80%, 65%)" />
<circle cx="217.39" cy="326.93" r="4" fill="hsl(102, 80%, 65%)" />
<circle cx="236.49" cy="177.33" r="5" fill="hsl(108, 80%, 65%)" />
<circle cx="323.77" cy="300.99" r="6" fill="hsl(114, 80%, 65%)" />
<circle cx="175.35" cy="268.65" r="2" fill="hsl(120, 80%, 65%)" />
<circle cx="307.11" cy="191.97" r="3" fill="hsl(126, 80%, 65%)" />
<circle cx="261.59" cy="338.03" r="4" fill="hsl(132, 80%, 65%)" />
<circle cx="196.26" cy="199.09" r="5" fill="hsl(138, 80%, 65%)" />
<circle cx="338.78" cy="257.62" r="6" fill="hsl(144, 80%, 65%)" />
<circle cx="193.66" cy="310.91" r="2" fill="hsl(150, 80%, 65%)" />
<circle cx="264.91" cy="173.11" r="3" fill="hsl(156, 80%, 65%)" />
<circle cx="305.59" cy="323.37" r="4" fill="hsl(162, 80%, 65%)" />
<circle cx="173.65" cy="239.77" r="5" fill="hsl(168, 80%, 65%)" />
<circle cx="327.93" cy="212.19" r="6" fill="hsl(174, 80%, 65%)" />
<circle cx="232.47" cy="337.16" r="2" fill="hsl(180, 80%, 65%)" />
<circle cx="218.40" cy="180.01" r="3" fill="hsl(186, 80%, 65%)" />
<circle cx="335.32" cy="286.73" r="4" fill="hsl(192, 80%, 65%)" />
<circle cx="176.49" cy="287.02" r="5" fill="hsl(198, 80%, 65%)" />
<circle cx="293.80" cy="179.17" r="6" fill="hsl(204, 80%, 65%)" />
<circle cx="280.10" cy="338.45" r="2" fill="hsl(210, 80%, 65%)" />
<circle cx="182.30" cy="211.34" r="3" fill="hsl(216, 80%, 65%)" />
<circle cx="340.78" cy="239.09" r="4" fill="hsl(222, 80%, 65%)" />
<circle cx="204.75" cy="325.96" r="5" fill="hsl(228, 80%, 65%)" />
<circle cx="246.51" cy="169.52" r="6" fill="hsl(234, 80%, 65%)" />
<circle cx="321.62" cy="313.53" r="2" fill="hsl(240, 80%, 65%)" />
<circle cx="168.48" cy="257.91" r="3" fill="hsl(246, 80%, 65%)" />
<circle cx="319.44" cy="195.28" r="4" fill="hsl(252, 80%, 65%)" />
<circle cx="250.21" cy="343.90" r="5" fill="hsl(258, 80%, 65%)" />
<circle cx="200.72" cy="187.07" r="6" fill="hsl(264, 80%, 65%)" />
<circle cx="343.59" cy="269.53" r="2" fill="hsl(270, 80%, 65%)" />
<circle cx="182.05" cy="305.34" r="3" fill="hsl(276, 80%, 65%)" />
<circle cx="277.26" cy="169.41" r="4" fill="hsl(282, 80%, 65%)" />
<circle cx="298.94" cy="334.44" r="5" fill="hsl(288, 80%, 65%)" />
<circle cx="171.10" cy="227.08" r="6" fill="hsl(294, 80%, 65%)" />
<circle cx="338.38" cy="219.87" r="2" fill="hsl(300, 80%, 65%)" />
<circle cx="219.55" cy="338.53" r="3" fill="hsl(306, 80%, 65%)" />
<circle cx="227.04" cy="170.27" r="4" fill="hsl(312, 80%, 65%)" />
<circle cx="335.49" cy="299.78" r="5" fill="hsl(318, 80%, 65%)" />
<circle cx="167.56" cy="277.48" r="6" fill="hsl(324, 80%, 65%)" />
<circle cx="306.85" cy="180.21" r="2" fill="hsl(330, 80%, 65%)" />
<circle cx="269.74" cy="346.50" r="3" fill="hsl(336, 80%, 65%)" />
<circle cx="184.54" cy="198.39" r="4" fill="hsl(342, 80%, 65%)" />
<circle cx="347.87" cy="250.19" r="5" fill="hsl(348, 80%, 65%)" />
<circle cx="192.00" cy="322.52" r="6" fill="hsl(354, 80%, 65%)" />
<circle cx="258.26" cy="163.46" r="2" fill="hsl(0, 80%, 65%)" />
<circle cx="317.01" cy="325.95" r="3" fill="hsl(6, 80%, 65%)" />
<circle cx="163.50" cy="245.60" r="4" fill="hsl(12, 80%, 65%)" />
<circle cx="331.43" cy="201.03" r="5" fill="hsl(18, 80%, 65%)" />
<circle cx="237.46" cy="347.73" r="6" fill="hsl(24, 80%, 65%)" />
<circle cx="207.58" cy="175.61" r="2" fill="hsl(30, 80%, 65%)" />
<circle cx="346.25" cy="282.64" r="3" fill="hsl(36, 80%, 65%)" />
<circle cx="171.23" cy="297.43" r="4" fill="hsl(42, 80%, 65%)" />
<circle cx="290.61" cy="167.96" r="5" fill="hsl(48, 80%, 65%)" />
<circle cx="290.04" cy="344.53" r="6" fill="hsl(54, 80%, 65%)" />
<circle cx="170.87" cy="213.60" r="2" fill="hsl(60, 80%, 65%)" />
<circle cx="347.65" cy="229.69" r="3" fill="hsl(66, 80%, 65%)" />
<circle cx="206.06" cy="337.52" r="4" fill="hsl(72, 80%, 65%)" />
<circle cx="237.71" cy="161.91" r="5" fill="hsl(78, 80%, 65%)" />
<circle cx="333.24" cy="313.17" r="6" fill="hsl(84, 80%, 65%)" />
<circle cx="160.18" cy="266.05" r="2" fill="hsl(90, 80%, 65%)" />
<circle cx="320.03" cy="183.68" r="3" fill="hsl(96, 80%, 65%)" />
<circle cx="257.64" cy="352.83" r="4" fill="hsl(102, 80%, 65%)" />
<circle cx="189.22" cy="185.53" r="5" fill="hsl(108, 80%, 65%)" />
<circle cx="353.09" cy="262.87" r="6" fill="hsl(114, 80%, 65%)" />
<circle cx="179.58" cy="316.67" r="2" fill="hsl(120, 80%, 65%)" />
<circle cx="271.40" cy="159.40" r="3" fill="hsl(126, 80%, 65%)" />
<circle cx="310.03" cy="337.84" r="4" fill="hsl(132, 80%, 65%)" />
<circle cx="160.65" cy="232.09" r="5" fill="hsl(138, 80%, 65%)" />
<circle cx="342.67" cy="209.11" r="6" fill="hsl(144, 80%, 65%)" />
<circle cx="223.69" cy="349.35" r="2" fill="hsl(150, 80%, 65%)" />
<circle cx="216.67" cy="165.12" r="3" fill="hsl(156, 80%, 65%)" />
<circle cx="346.61" cy="296.54" r="4" fill="hsl(162, 80%, 65%)" />
<circle cx="161.57" cy="287.38" r="5" fill="hsl(168, 80%, 65%)" />
<circle cx="304.54" cy="168.86" r="6" fill="hsl(174, 80%, 65%)" />
<circle cx="279.12" cy="353.27" r="2" fill="hsl(180, 80%, 65%)" />
<circle cx="173.05" cy="199.76" r="3" fill="hsl(186, 80%, 65%)" />
<circle cx="355.39" cy="241.40" r="4" fill="hsl(192, 80%, 65%)" />
<circle cx="192.42" cy="334.08" r="5" fill="hsl(198, 80%, 65%)" />
<circle cx="250.12" cy="155.24" r="6" fill="hsl(204, 80%, 65%)" />
<circle cx="328.57" cy="326.49" r="2" fill="hsl(210, 80%, 65%)" />
<circle cx="154.64" cy="253.03" r="3" fill="hsl(216, 80%, 65%)" />
<circle cx="332.92" cy="189.57" r="4" fill="hsl(222, 80%, 65%)" />
<circle cx="244.13" cy="357.18" r="5" fill="hsl(228, 80%, 65%)" />
<circle cx="196.27" cy="173.19" r="6" fill="hsl(234, 80%, 65%)" />
<circle cx="356.21" cy="276.77" r="2" fill="hsl(240, 80%, 65%)" />
<circle cx="167.88" cy="308.50" r="3" fill="hsl(246, 80%, 65%)" />
<circle cx="285.58" cy="157.55" r="4" fill="hsl(252, 80%, 65%)" />
<circle cx="300.79" cy="348.79" r="5" fill="hsl(258, 80%, 65%)" />
<circle cx="160.08" cy="217.75" r="6" fill="hsl(264, 80%, 65%)" />
<circle cx="352.78" cy="219.33" r="2" fill="hsl(270, 80%, 65%)" />
<circle cx="209.31" cy="348.62" r="3" fill="hsl(276, 80%, 65%)" />
<circle cx="227.81" cy="155.94" r="4" fill="hsl(282, 80%, 65%)" />
<circle cx="344.57" cy="310.85" r="5" fill="hsl(288, 80%, 65%)" />
<circle cx="153.41" cy="275.42" r="6" fill="hsl(294, 80%, 65%)" />
<circle cx="318.66" cy="172.20" r="2" fill="hsl(300, 80%, 65%)" />
<circle cx="266.43" cy="360.34" r="3" fill="hsl(306, 80%, 65%)" />
<circle cx="177.66" cy="185.95" r="4" fill="hsl(312, 80%, 65%)" />
<circle cx="361.31" cy="254.73" r="5" fill="hsl(318, 80%, 65%)" />
<circle cx="179.04" cy="328.23" r="6" fill="hsl(324, 80%, 65%)" />
<circle cx="263.98" cy="150.53" r="2" fill="hsl(330, 80%, 65%)" />
<circle cx="321.50" cy="339.33" r="3" fill="hsl(336, 80%, 65%)" />
<circle cx="151.19" cy="238.76" r="4" fill="hsl(342, 80%, 65%)" />
<circle cx="345.11" cy="197.79" r="5" fill="hsl(348, 80%, 65%)" />
<circle cx="229.55" cy="359.33" r="6" fill="hsl(354, 80%, 65%)" />
<circle cx="205.59" cy="161.74" r="2" fill="hsl(0, 80%, 65%)" />
<circle cx="357.05" cy="291.53" r="3" fill="hsl(6, 80%, 65%)" />
<circle cx="157.29" cy="298.15" r="4" fill="hsl(12, 80%, 65%)" />
<circle cx="300.41" cy="158.04" r="5" fill="hsl(18, 80%, 65%)" />
<circle cx="289.49" cy="358.44" r="6" fill="hsl(24, 80%, 65%)" />
<circle cx="161.92" cy="202.98" r="2" fill="hsl(30, 80%, 65%)" />
<circle cx="361.40" cy="231.49" r="3" fill="hsl(36, 80%, 65%)" />
<circle cx="194.71" cy="345.45" r="4" fill="hsl(42, 80%, 65%)" />
<circle cx="240.74" cy="148.42" r="5" fill="hsl(48, 80%, 65%)" />
<circle cx="340.09" cy="325.15" r="6" fill="hsl(54, 80%, 65%)" />
<circle cx="147.06" cy="261.82" r="2" fill="hsl(60, 80%, 65%)" />
<circle cx="332.55" cy="177.97" r="3" fill="hsl(66, 80%, 65%)" />
<circle cx="252.26" cy="365.46" r="4" fill="hsl(72, 80%, 65%)" />
<circle cx="184.68" cy="172.59" r="5" fill="hsl(78, 80%, 65%)" />
<circle cx="365.15" cy="269.35" r="6" fill="hsl(84, 80%, 65%)" />
<circle cx="166.33" cy="320.01" r="2" fill="hsl(90, 80%, 65%)" />
<circle cx="278.93" cy="148.02" r="3" fill="hsl(96, 80%, 65%)" />
<circle cx="312.15" cy="351.30" r="4" fill="hsl(102, 80%, 65%)" />
<circle cx="150.02" cy="223.59" r="5" fill="hsl(108, 80%, 65%)" />
<circle cx="356.23" cy="208.22" r="6" fill="hsl(114, 80%, 65%)" />
<circle cx="214.29" cy="359.14" r="2" fill="hsl(120, 80%, 65%)" />
</svg>
