<svg xmlns="http://www.w3.org/2000/svg" width="512" height="512" viewBox="0 0 512 512">
<rect width="100%" height="100%" fill="#0b1020"/>
<circle cx="362" cy="109" r="53" fill="#f8f3c9" opacity="0.95" />
<circle cx="477.0" cy="60.0" r="2.8" fill="white" />
<circle cx="125.0" cy="42.0" r="1.5" fill="white" />
<circle cx="186.0" cy="73.0" r="2.1" fill="white" />
<circle cx="120.0" cy="145.0" r="2.5" fill="white" />
<circle cx="326.0" cy="128.0" r="2.6" fill="white" />
<circle cx="358.0" cy="144.0" r="1.9" fill="white" />
<circle cx="123.0" cy="43.0" r="2.6" fill="white" />
<circle cx="134.0" cy="72.0" r="1.8" fill="white" />
<circle cx="185.0" cy="26.0" r="2.2" fill="white" />
<circle cx="200.0" cy="140.0" r="1.9" fill="white" />
<circle cx="130.0" cy="156.0" r="2.4" fill="white" />
<circle cx="180.0" cy="147.0" r="2.7" fill="white" />
<path d="M 20 430 C 128 425, 199 440, 287 434 S 450 394, 512 424" stroke="#5dade2" stroke-width="8" fill="none" opacity="0.85" />
<line x1="0" y1="396" x2="512" y2="396" stroke="#445566" stroke-width="3" />
<polygon points="192,355 232,295 272,315 292,285 312,305 324,345 292,367 242,371" fill="#1e1e1e" />
<polygon points="267,295 280,273 290,297" fill="#1e1e1e" />
<line x1="322" y1="340" x2="352" y2="315" stroke="#1e1e1e" stroke-width="6" />
</svg>
