<svg xmlns="http://www.w3.org/2000/svg" width="512" height="512" viewBox="0 0 512 512">
<rect width="100%" height="100%" fill="black"/>
<polyline points="262.00,256.00 262.73,257.51 263.06,259.32 262.87,261.33 262.12,263.40 260.76,265.36 258.83,267.04 256.38,268.29 253.52,268.96 250.39,268.94 247.17,268.13 244.06,266.50 241.27,264.08 239.00,260.92 237.44,257.14 236.74,252.92 237.04,248.46 238.40,244.00 240.83,239.79 244.27,236.10 248.62,233.16 253.70,231.21 259.28,230.41 265.10,230.90 270.84,232.73 276.20,235.89 280.86,240.30 284.53,245.80 286.96,252.17 287.95,259.10 287.36,266.28 285.13,273.34 281.30,279.89 275.98,285.59 269.37,290.07 261.75,293.06 253.47,294.32 244.91,293.70 236.52,291.16 228.71,286.74 221.93,280.57 216.57,272.89 212.95,264.05 211.33,254.43 211.88,244.49 214.65,234.72 219.60,225.64 226.56,217.71 235.24,211.39 245.28,207.06 256.23,205.00 267.55,205.40 278.70,208.33 289.11,213.72 298.24,221.40 305.57,231.04 310.70,242.24 313.28,254.49 313.11,267.20 310.12,279.75 304.35,291.52 296.03,301.90 285.47,310.32 273.16,316.31 259.63,319.50 245.54,319.65 231.57,316.67 218.41,310.61 206.74,301.71 197.17,290.31 190.25,276.92 186.37,262.14 185.82,246.68 188.70,231.28 194.96,216.70 204.37,203.68 216.56,192.92 230.98,184.98 246.97,180.34 263.79,179.29 280.63,181.99 296.65,188.38 311.05,198.23 323.08,211.13 332.09,226.53 337.58,243.71 339.19,261.87 336.77,280.14 330.34,297.63 320.13,313.45 306.57,326.79 290.26,336.95 271.93,343.36 252.44,345.63 232.74,343.56 213.78,337.17 196.50,326.69 181.79,312.55 170.42,295.37 163.01,275.93 160.00,255.15 161.63,234.02 167.89,213.56 178.57,194.80 193.22,178.68 211.21,166.03 231.71,157.55 253.76,153.72 276.31,154.82 298.26,160.87 318.54,171.66 336.12,186.75 350.10,205.48 359.72,226.99 364.45,250.27 363.97,274.23 358.22,297.69 347.40,319.51 331.95,338.59 312.54,353.95 290.07,364.79 265.59,370.50 240.25,370.72 215.28,365.36 191.90,354.60 171.29,338.86 154.48,318.85 142.36,295.48 135.59,269.83 134.58,243.12 139.47,216.65 150.09,191.70 166.03,169.51 186.57,151.21 210.79,137.75 237.56,129.84 265.60,127.96 293.58,132.28 320.11,142.68 343.90,158.73 363.74,179.74 378.62,204.75 387.73,232.58 390.57,261.93 386.90,291.39 376.82,319.53 360.73,344.94 339.34,366.37 313.61,382.72 284.76,393.12 254.13,396.99 223.20,394.06 193.47,384.38 166.40,368.34 143.34,346.64 125.46,320.27 113.71,290.45 108.72,258.58 110.83,226.20 120.01,194.87 135.91,166.12 157.83,141.40 184.78,121.94 215.52,108.76 248.58,102.58 282.40,103.77 315.32,112.37 345.75,128.04 372.18,150.11 393.27,177.57 407.94,209.15 415.40,243.36 415.21,278.58 407.28,313.10 391.93,345.23 369.81,373.39 341.92,396.16 309.55,412.39 274.23,421.20 237.64,422.09 201.55,414.93 167.70,399.98 137.79,377.89 113.28,349.65 95.44,316.56 85.20,280.19 83.14,242.26 89.45,204.61 103.90,169.05 125.87,137.35 154.38,111.07 188.12,91.56 225.49,79.82 264.71,76.51 303.91,81.87 341.18,95.73 374.69,117.50 402.77,146.20 424.02,180.50 437.33,218.81 441.97,259.29 437.64,300.01 424.47,338.99 403.00,374.32 374.20,404.25 339.39,427.28 300.21,442.22 258.52,448.28 216.31,445.08 175.63,432.68 138.47,411.60 106.66,382.78 81.79,347.56 65.14,307.57 57.59,264.71 59.59,221.05 71.12,178.68 91.71,139.68 120.45,105.96 156.02,79.21" fill="none" stroke="cyan" stroke-width="2"/>
</svg>
