<svg xmlns="http://www.w3.org/2000/svg" width="512" height="512" viewBox="0 0 512 512">
<rect width="100%" height="100%" fill="#0b1020"/>
<circle cx="352" cy="116" r="52" fill="#f8f3c9" opacity="0.95" />
<circle cx="416.0" cy="24.0" r="2.4" fill="white" />
<circle cx="454.0" cy="58.0" r="3.1" fill="white" />
<circle cx="280.0" cy="94.0" r="1.5" fill="white" />
<circle cx="372.0" cy="165.0" r="2.2" fill="white" />
<circle cx="48.0" cy="126.0" r="1.6" fill="white" />
<circle cx="362.0" cy="105.0" r="1.6" fill="white" />
<circle cx="189.0" cy="92.0" r="3.4" fill="white" />
<circle cx="441.0" cy="112.0" r="2.6" fill="white" />
<circle cx="273.0" cy="178.0" r="3.1" fill="white" />
<circle cx="24.0" cy="99.0" r="1.6" fill="white" />
<circle cx="323.0" cy="127.0" r="2.1" fill="white" />
<circle cx="486.0" cy="167.0" r="1.7" fill="white" />
<path d="M 20 430 C 118 422, 192 440, 301 420 S 450 375, 512 405" stroke="#5dade2" stroke-width="6" fill="none" opacity="0.85" />
<line x1="0" y1="405" x2="512" y2="405" stroke="#445566" stroke-width="4" />
<polygon points="162,351 202,291 242,311 262,281 282,301 294,341 262,363 212,367" fill="#1e1e1e" />
<polygon points="237,291 250,269 260,293" fill="#1e1e1e" />
<line x1="292" y1="336" x2="322" y2="311" stroke="#1e1e1e" stroke-width="6" />
</svg>
