<svg xmlns="http://www.w3.org/2000/svg" width="512" height="512" viewBox="0 0 512 512">
<rect width="100%" height="100%" fill="#0b1020"/>
<circle cx="407" cy="77" r="50" fill="#f8f3c9" opacity="0.95" />
<circle cx="144.0" cy="169.0" r="3.2" fill="white" />
<circle cx="274.0" cy="74.0" r="2.1" fill="white" />
<circle cx="197.0" cy="98.0" r="3.1" fill="white" />
<circle cx="61.0" cy="178.0" r="2.4" fill="white" />
<circle cx="433.0" cy="52.0" r="3.3" fill="white" />
<circle cx="267.0" cy="97.0" r="1.7" fill="white" />
<circle cx="486.0" cy="89.0" r="2.1" fill="white" />
<circle cx="418.0" cy="161.0" r="2.0" fill="white" />
<circle cx="221.0" cy="112.0" r="1.7" fill="white" />
<circle cx="458.0" cy="75.0" r="2.5" fill="white" />
<circle cx="40.0" cy="67.0" r="2.7" fill="white" />
<circle cx="120.0" cy="24.0" r="3.0" fill="white" />
<circle cx="361.0" cy="88.0" r="2.8" fill="white" />
<path d="M 20 430 C 133 418, 199 445, 292 422 S 450 377, 512 407" stroke="#5dade2" stroke-width="7" fill="none" opacity="0.85" />
<line x1="0" y1="391" x2="512" y2="391" stroke="#445566" stroke-width="3" />
<polygon points="206,352 246,292 286,312 306,282 326,302 338,342 306,364 256,368" fill="#1e1e1e" />
<polygon points="281,292 294,270 304,294" fill="#1e1e1e" />
<line x1="336" y1="337" x2="366" y2="312" stroke="#1e1e1e" stroke-width="6" />
</svg>
