<svg xmlns="http://www.w3.org/2000/svg" width="512" height="512" viewBox="0 0 512 512">
<rect width="100%" height="100%" fill="#0b1020"/>
<circle cx="456" cy="128" r="48" fill="#f8f3c9" opacity="0.95" />
<circle cx="109.0" cy="36.0" r="1.6" fill="white" />
<circle cx="372.0" cy="155.0" r="2.3" fill="white" />
<circle cx="287.0" cy="52.0" r="2.7" fill="white" />
<circle cx="318.0" cy="152.0" r="1.8" fill="white" />
<circle cx="390.0" cy="90.0" r="1.5" fill="white" />
<path d="M 20 430 C 114 427, 171 455, 300 440 S 450 395, 512 425" stroke="#5dade2" stroke-width="7" fill="none" opacity="0.85" />
<line x1="0" y1="412" x2="512" y2="412" stroke="#445566" stroke-width="3" />
<polygon points="189,365 229,305 269,325 289,295 309,315 321,355 289,377 239,381" fill="#1e1e1e" />
<polygon points="264,305 277,283 287,307" fill="#1e1e1e" />
<line x1="319" y1="350" x2="349" y2="325" stroke="#1e1e1e" stroke-width="6" />
</svg>
