<svg xmlns="http://www.w3.org/2000/svg" width="512" height="512" viewBox="0 0 512 512">
<rect width="100%" height="100%" fill="black"/>
<circle cx="437" cy="326" r="8" fill="hsl(0, 80%, 65%)" />
<circle cx="142" cy="350" r="4" fill="hsl(9, 80%, 65%)" />
<circle cx="185" cy="426" r="5" fill="hsl(18, 80%, 65%)" />
<circle cx="185" cy="372" r="3" fill="hsl(27, 80%, 65%)" />
<circle cx="167" cy="265" r="3" fill="hsl(36, 80%, 65%)" />
<circle cx="436" cy="161" r="7" fill="hsl(45, 80%, 65%)" />
<circle cx="163" cy="251" r="8" fill="hsl(54, 80%, 65%)" />
<circle cx="432" cy="349" r="2" fill="hsl(63, 80%, 65%)" />
<circle cx="104" cy="108" r="7" fill="hsl(72, 80%, 65%)" />
<circle cx="357" cy="418" r="4" fill="hsl(81, 80%, 65%)" />
<circle cx="123" cy="84" r="7" fill="hsl(90, 80%, 65%)" />
<circle cx="400" cy="363" r="6" fill="hsl(99, 80%, 65%)" />
<circle cx="190" cy="133" r="5" fill="hsl(108, 80%, 65%)" />
<circle cx="190" cy="298" r="3" fill="hsl(117, 80%, 65%)" />
<circle cx="400" cy="165" r="3" fill="hsl(126, 80%, 65%)" />
<circle cx="417" cy="363" r="6" fill="hsl(135, 80%, 65%)" />
<circle cx="292" cy="175" r="6" fill="hsl(144, 80%, 65%)" />
<circle cx="427" cy="153" r="7" fill="hsl(153, 80%, 65%)" />
<circle cx="361" cy="85" r="7" fill="hsl(162, 80%, 65%)" />
<circle cx="399" cy="398" r="5" fill="hsl(171, 80%, 65%)" />
<circle cx="381" cy="324" r="6" fill="hsl(180, 80%, 65%)" />
<circle cx="375" cy="361" r="2" fill="hsl(189, 80%, 65%)" />
<circle cx="280" cy="126" r="2" fill="hsl(198, 80%, 65%)" />
<circle cx="300" cy="225" r="4" fill="hsl(207, 80%, 65%)" />
<circle cx="119" cy="81" r="6" fill="hsl(216, 80%, 65%)" />
<circle cx="232" cy="179" r="2" fill="hsl(225, 80%, 65%)" />
<circle cx="291" cy="351" r="6" fill="hsl(234, 80%, 65%)" />
<circle cx="185" cy="179" r="8" fill="hsl(243, 80%, 65%)" />
<circle cx="387" cy="410" r="3" fill="hsl(252, 80%, 65%)" />
<circle cx="150" cy="335" r="8" fill="hsl(261, 80%, 65%)" />
<circle cx="214" cy="313" r="6" fill="hsl(270, 80%, 65%)" />
<circle cx="244" cy="195" r="8" fill="hsl(279, 80%, 65%)" />
<circle cx="75" cy="103" r="3" fill="hsl(288, 80%, 65%)" />
<circle cx="98" cy="156" r="7" fill="hsl(297, 80%, 65%)" />
<circle cx="158" cy="424" r="4" fill="hsl(306, 80%, 65%)" />
<circle cx="322" cy="176" r="2" fill="hsl(315, 80%, 65%)" />
<circle cx="136" cy="299" r="4" fill="hsl(324, 80%, 65%)" />
<circle cx="407" cy="283" r="5" fill="hsl(333, 80%, 65%)" />
<circle cx="302" cy="166" r="8" fill="hsl(342, 80%, 65%)" />
<circle cx="90" cy="132" r="2" fill="hsl(351, 80%, 65%)" />
<circle cx="338" cy="274" r="5" fill="hsl(0, 80%, 65%)" />
<circle cx="216" cy="182" r="3" fill="hsl(9, 80%, 65%)" />
<circle cx="412" cy="384" r="5" fill="hsl(18, 80%, 65%)" />
<circle cx="226" cy="333" r="3" fill="hsl(27, 80%, 65%)" />
<circle cx="317" cy="424" r="7" fill="hsl(36, 80%, 65%)" />
<circle cx="342" cy="384" r="3" fill="hsl(45, 80%, 65%)" />
<circle cx="327" cy="163" r="7" fill="hsl(54, 80%, 65%)" />
<circle cx="353" cy="380" r="2" fill="hsl(63, 80%, 65%)" />
<circle cx="97" cy="155" r="2" fill="hsl(72, 80%, 65%)" />
<circle cx="384" cy="250" r="8" fill="hsl(81, 80%, 65%)" />
<circle cx="276" cy="321" r="5" fill="hsl(90, 80%, 65%)" />
<circle cx="234" cy="227" r="6" fill="hsl(99, 80%, 65%)" />
<circle cx="275" cy="179" r="6" fill="hsl(108, 80%, 65%)" />
<circle cx="185" cy="371" r="6" fill="hsl(117, 80%, 65%)" />
<circle cx="213" cy="263" r="6" fill="hsl(126, 80%, 65%)" />
<circle cx="290" cy="257" r="6" fill="hsl(135, 80%, 65%)" />
<circle cx="409" cy="439" r="2" fill="hsl(144, 80%, 65%)" />
<circle cx="189" cy="168" r="2" fill="hsl(153, 80%, 65%)" />
<circle cx="98" cy="385" r="3" fill="hsl(162, 80%, 65%)" />
<circle cx="400" cy="411" r="3" fill="hsl(171, 80%, 65%)" />
<circle cx="310" cy="247" r="8" fill="hsl(180, 80%, 65%)" />
<circle cx="256" cy="245" r="8" fill="hsl(189, 80%, 65%)" />
<circle cx="386" cy="96" r="8" fill="hsl(198, 80%, 65%)" />
<circle cx="281" cy="198" r="8" fill="hsl(207, 80%, 65%)" />
<circle cx="104" cy="163" r="4" fill="hsl(216, 80%, 65%)" />
<circle cx="400" cy="268" r="6" fill="hsl(225, 80%, 65%)" />
<circle cx="158" cy="357" r="4" fill="hsl(234, 80%, 65%)" />
<circle cx="321" cy="286" r="8" fill="hsl(243, 80%, 65%)" />
<circle cx="73" cy="409" r="5" fill="hsl(252, 80%, 65%)" />
<circle cx="92" cy="206" r="4" fill="hsl(261, 80%, 65%)" />
<circle cx="237" cy="286" r="8" fill="hsl(270, 80%, 65%)" />
<circle cx="224" cy="347" r="8" fill="hsl(279, 80%, 65%)" />
<circle cx="415" cy="154" r="2" fill="hsl(288, 80%, 65%)" />
<circle cx="123" cy="274" r="3" fill="hsl(297, 80%, 65%)" />
<circle cx="71" cy="90" r="7" fill="hsl(306, 80%, 65%)" />
<circle cx="110" cy="223" r="7" fill="hsl(315, 80%, 65%)" />
<circle cx="412" cy="281" r="5" fill="hsl(324, 80%, 65%)" />
<circle cx="200" cy="405" r="5" fill="hsl(333, 80%, 65%)" />
<circle cx="268" cy="169" r="6" fill="hsl(342, 80%, 65%)" />
<circle cx="262" cy="392" r="7" fill="hsl(351, 80%, 65%)" />
<circle cx="135" cy="77" r="5" fill="hsl(0, 80%, 65%)" />
<circle cx="113" cy="315" r="5" fill="hsl(9, 80%, 65%)" />
<circle cx="109" cy="400" r="6" fill="hsl(18, 80%, 65%)" />
<circle cx="106" cy="423" r="3" fill="hsl(27, 80%, 65%)" />
<circle cx="299" cy="308" r="4" fill="hsl(36, 80%, 65%)" />
<circle cx="120" cy="338" r="2" fill="hsl(45, 80%, 65%)" />
<circle cx="302" cy="207" r="3" fill="hsl(54, 80%, 65%)" />
<circle cx="382" cy="370" r="4" fill="hsl(63, 80%, 65%)" />
<circle cx="312" cy="177" r="6" fill="hsl(72, 80%, 65%)" />
<circle cx="170" cy="368" r="5" fill="hsl(81, 80%, 65%)" />
<circle cx="404" cy="199" r="7" fill="hsl(90, 80%, 65%)" />
<circle cx="412" cy="267" r="2" fill="hsl(99, 80%, 65%)" />
<circle cx="129" cy="257" r="3" fill="hsl(108, 80%, 65%)" />
<circle cx="361" cy="391" r="2" fill="hsl(117, 80%, 65%)" />
<circle cx="368" cy="384" r="7" fill="hsl(126, 80%, 65%)" />
<circle cx="193" cy="125" r="6" fill="hsl(135, 80%, 65%)" />
<circle cx="157" cy="279" r="5" fill="hsl(144, 80%, 65%)" />
<circle cx="235" cy="364" r="2" fill="hsl(153, 80%, 65%)" />
<circle cx="371" cy="159" r="6" fill="hsl(162, 80%, 65%)" />
<circle cx="294" cy="130" r="2" fill="hsl(171, 80%, 65%)" />
<circle cx="307" cy="229" r="4" fill="hsl(180, 80%, 65%)" />
<circle cx="240" cy="275" r="6" fill="hsl(189, 80%, 65%)" />
<circle cx="346" cy="274" r="2" fill="hsl(198, 80%, 65%)" />
<circle cx="220" cy="266" r="5" fill="hsl(207, 80%, 65%)" />
<circle cx="390" cy="283" r="4" fill="hsl(216, 80%, 65%)" />
<circle cx="438" cy="97" r="3" fill="hsl(225, 80%, 65%)" />
<circle cx="244" cy="286" r="3" fill="hsl(234, 80%, 65%)" />
<circle cx="370" cy="172" r="8" fill="hsl(243, 80%, 65%)" />
<circle cx="271" cy="171" r="3" fill="hsl(252, 80%, 65%)" />
<circle cx="203" cy="334" r="7" fill="hsl(261, 80%, 65%)" />
<circle cx="391" cy="220" r="4" fill="hsl(270, 80%, 65%)" />
<circle cx="296" cy="211" r="5" fill="hsl(279, 80%, 65%)" />
<circle cx="102" cy="310" r="5" fill="hsl(288, 80%, 65%)" />
<circle cx="303" cy="368" r="5" fill="hsl(297, 80%, 65%)" />
<circle cx="196" cy="341" r="3" fill="hsl(306, 80%, 65%)" />
<circle cx="83" cy="431" r="5" fill="hsl(315, 80%, 65%)" />
<circle cx="423" cy="92" r="4" fill="hsl(324, 80%, 65%)" />
<circle cx="386" cy="418" r="8" fill="hsl(333, 80%, 65%)" />
<circle cx="270" cy="365" r="7" fill="hsl(342, 80%, 65%)" />
<circle cx="432" cy="303" r="4" fill="hsl(351, 80%, 65%)" />
<circle cx="333" cy="99" r="2" fill="hsl(0, 80%, 65%)" />
<circle cx="116" cy="408" r="6" fill="hsl(9, 80%, 65%)" />
<circle cx="159" cy="272" r="5" fill="hsl(18, 80%, 65%)" />
<circle cx="250" cy="385" r="2" fill="hsl(27, 80%, 65%)" />
<circle cx="87" cy="322" r="6" fill="hsl(36, 80%, 65%)" />
<circle cx="351" cy="159" r="8" fill="hsl(45, 80%, 65%)" />
<circle cx="365" cy="371" r="5" fill="hsl(54, 80%, 65%)" />
<circle cx="242" cy="256" r="4" fill="hsl(63, 80%, 65%)" />
<circle cx="339" cy="356" r="4" fill="hsl(72, 80%, 65%)" />
<circle cx="229" cy="399" r="4" fill="hsl(81, 80%, 65%)" />
<circle cx="304" cy="295" r="8" fill="hsl(90, 80%, 65%)" />
<circle cx="274" cy="316" r="6" fill="hsl(99, 80%, 65%)" />
<circle cx="295" cy="176" r="8" fill="hsl(108, 80%, 65%)" />
<circle cx="170" cy="165" r="4" fill="hsl(117, 80%, 65%)" />
<circle cx="70" cy="90" r="6" fill="hsl(126, 80%, 65%)" />
<circle cx="211" cy="132" r="7" fill="hsl(135, 80%, 65%)" />
<circle cx="350" cy="406" r="5" fill="hsl(144, 80%, 65%)" />
<circle cx="341" cy="435" r="2" fill="hsl(153, 80%, 65%)" />
<circle cx="285" cy="318" r="5" fill="hsl(162, 80%, 65%)" />
<circle cx="143" cy="124" r="4" fill="hsl(171, 80%, 65%)" />
<circle cx="257" cy="136" r="7" fill="hsl(180, 80%, 65%)" />
<circle cx="354" cy="417" r="4" fill="hsl(189, 80%, 65%)" />
<circle cx="119" cy="242" r="2" fill="hsl(198, 80%, 65%)" />
<circle cx="167" cy="229" r="4" fill="hsl(207, 80%, 65%)" />
<circle cx="439" cy="377" r="7" fill="hsl(216, 80%, 65%)" />
<circle cx="402" cy="173" r="2" fill="hsl(225, 80%, 65%)" />
<circle cx="196" cy="118" r="6" fill="hsl(234, 80%, 65%)" />
<circle cx="210" cy="370" r="3" fill="hsl(243, 80%, 65%)" />
<circle cx="260" cy="317" r="5" fill="hsl(252, 80%, 65%)" />
<circle cx="271" cy="218" r="2" fill="hsl(261, 80%, 65%)" />
<circle cx="391" cy="322" r="5" fill="hsl(270, 80%, 65%)" />
<circle cx="120" cy="219" r="3" fill="hsl(279, 80%, 65%)" />
<circle cx="230" cy="74" r="7" fill="hsl(288, 80%, 65%)" />
<circle cx="231" cy="363" r="3" fill="hsl(297, 80%, 65%)" />
<circle cx="173" cy="208" r="2" fill="hsl(306, 80%, 65%)" />
<circle cx="273" cy="94" r="5" fill="hsl(315, 80%, 65%)" />
<circle cx="266" cy="380" r="6" fill="hsl(324, 80%, 65%)" />
<circle cx="415" cy="171" r="5" fill="hsl(333, 80%, 65%)" />
<circle cx="114" cy="242" r="6" fill="hsl(342, 80%, 65%)" />
<circle cx="393" cy="377" r="5" fill="hsl(351, 80%, 65%)" />
<circle cx="128" cy="330" r="6" fill="hsl(0, 80%, 65%)" />
<circle cx="143" cy="200" r="8" fill="hsl(9, 80%, 65%)" />
<circle cx="280" cy="148" r="4" fill="hsl(18, 80%, 65%)" />
<circle cx="409" cy="434" r="3" fill="hsl(27, 80%, 65%)" />
<circle cx="307" cy="237" r="6" fill="hsl(36, 80%, 65%)" />
<circle cx="304" cy="297" r="8" fill="hsl(45, 80%, 65%)" />
<circle cx="136" cy="289" r="3" fill="hsl(54, 80%, 65%)" />
<circle cx="426" cy="423" r="6" fill="hsl(63, 80%, 65%)" />
<circle cx="322" cy="210" r="4" fill="hsl(72, 80%, 65%)" />
<circle cx="141" cy="207" r="5" fill="hsl(81, 80%, 65%)" />
<circle cx="377" cy="436" r="4" fill="hsl(90, 80%, 65%)" />
<circle cx="242" cy="199" r="6" fill="hsl(99, 80%, 65%)" />
<circle cx="413" cy="92" r="3" fill="hsl(108, 80%, 65%)" />
<circle cx="337" cy="413" r="7" fill="hsl(117, 80%, 65%)" />
<circle cx="293" cy="72" r="5" fill="hsl(126, 80%, 65%)" />
<circle cx="233" cy="396" r="5" fill="hsl(135, 80%, 65%)" />
<circle cx="202" cy="316" r="6" fill="hsl(144, 80%, 65%)" />
<circle cx="431" cy="151" r="7" fill="hsl(153, 80%, 65%)" />
<circle cx="77" cy="200" r="6" fill="hsl(162, 80%, 65%)" />
<circle cx="396" cy="180" r="8" fill="hsl(171, 80%, 65%)" />
<line x1="147" y1="75" x2="93" y2="41" stroke="#223344" stroke-width="1"/>
<line x1="435" y1="444" x2="420" y2="473" stroke="#223344" stroke-width="1"/>
<line x1="341" y1="225" x2="396" y2="176" stroke="#223344" stroke-width="1"/>
<line x1="180" y1="133" x2="178" y2="148" stroke="#223344" stroke-width="1"/>
<line x1="449" y1="143" x2="469" y2="211" stroke="#223344" stroke-width="1"/>
<line x1="438" y1="306" x2="417" y2="231" stroke="#223344" stroke-width="1"/>
<line x1="420" y1="92" x2="415" y2="127" stroke="#223344" stroke-width="1"/>
<line x1="439" y1="443" x2="413" y2="464" stroke="#223344" stroke-width="1"/>
<line x1="166" y1="111" x2="203" y2="47" stroke="#223344" stroke-width="1"/>
<line x1="202" y1="95" x2="160" y2="125" stroke="#223344" stroke-width="1"/>
<line x1="202" y1="258" x2="190" y2="235" stroke="#223344" stroke-width="1"/>
<line x1="74" y1="279" x2="148" y2="313" stroke="#223344" stroke-width="1"/>
<line x1="276" y1="425" x2="209" y2="461" stroke="#223344" stroke-width="1"/>
<line x1="274" y1="289" x2="230" y2="347" stroke="#223344" stroke-width="1"/>
<line x1="228" y1="202" x2="175" y2="246" stroke="#223344" stroke-width="1"/>
<line x1="292" y1="368" x2="224" y2="426" stroke="#223344" stroke-width="1"/>
<line x1="349" y1="124" x2="404" y2="81" stroke="#223344" stroke-width="1"/>
<line x1="205" y1="356" x2="203" y2="310" stroke="#223344" stroke-width="1"/>
<line x1="267" y1="298" x2="327" y2="367" stroke="#223344" stroke-width="1"/>
<line x1="359" y1="345" x2="350" y2="342" stroke="#223344" stroke-width="1"/>
<line x1="252" y1="149" x2="182" y2="220" stroke="#223344" stroke-width="1"/>
<line x1="366" y1="81" x2="377" y2="150" stroke="#223344" stroke-width="1"/>
<line x1="393" y1="297" x2="414" y2="372" stroke="#223344" stroke-width="1"/>
<line x1="195" y1="312" x2="247" y2="303" stroke="#223344" stroke-width="1"/>
</svg>
