<svg xmlns="http://www.w3.org/2000/svg" width="512" height="512" viewBox="0 0 512 512">
<rect width="100%" height="100%" fill="#0b1020"/>
<circle cx="402" cy="103" r="52" fill="#f8f3c9" opacity="0.95" />
<circle cx="168.0" cy="63.0" r="2.0" fill="white" />
<circle cx="224.0" cy="35.0" r="2.8" fill="white" />
<circle cx="474.0" cy="152.0" r="2.9" fill="white" />
<circle cx="112.0" cy="97.0" r="2.9" fill="white" />
<circle cx="61.0" cy="107.0" r="2.8" fill="white" />
<path d="M 20 430 C 119 414, 183 449, 281 435 S 450 391, 512 421" stroke="#5dade2" stroke-width="6" fill="none" opacity="0.85" />
<line x1="0" y1="389" x2="512" y2="389" stroke="#445566" stroke-width="2" />
<polygon points="168,363 208,303 248,323 268,293 288,313 300,353 268,375 218,379" fill="#1e1e1e" />
<polygon points="243,303 256,281 266,305" fill="#1e1e1e" />
<line x1="298" y1="348" x2="328" y2="323" stroke="#1e1e1e" stroke-width="6" />
</svg>
