<svg xmlns="http://www.w3.org/2000/svg" width="512" height="512" viewBox="0 0 512 512">
<rect width="100%" height="100%" fill="black"/>
<polyline points="262.00,256.00 262.82,257.65 263.15,259.68 262.85,261.92 261.86,264.20 260.15,266.29 257.76,267.98 254.79,269.07 251.42,269.39 247.85,268.79 244.34,267.22 241.14,264.67 238.54,261.23 236.79,257.03 236.08,252.29 236.59,247.29 238.38,242.34 241.45,237.78 245.72,233.95 250.99,231.15 257.02,229.65 263.47,229.65 269.96,231.26 276.09,234.50 281.44,239.27 285.62,245.38 288.30,252.54 289.21,260.37 288.20,268.43 285.21,276.24 280.30,283.31 273.67,289.16 265.63,293.37 256.58,295.61 247.01,295.62 237.49,293.31 228.57,288.69 220.83,281.92 214.78,273.31 210.86,263.29 209.40,252.38 210.59,241.20 214.48,230.39 220.96,220.62 229.74,212.49 240.41,206.56 252.41,203.27 265.10,202.90 277.74,205.60 289.60,211.32 299.96,219.83 308.15,230.75 313.63,243.51 315.97,257.45 314.92,271.79 310.45,285.70 302.68,298.36 291.98,309.00 278.85,316.93 263.99,321.61 248.21,322.66 232.39,319.91 217.45,313.40 204.27,303.41 193.67,290.39 186.35,275.03 182.81,258.13 183.36,240.64 188.10,223.54 196.86,207.83 209.24,194.45 224.63,184.24 242.22,177.87 261.06,175.80 280.09,178.27 298.23,185.25 314.40,196.45 327.64,211.32 337.11,229.12 342.17,248.88 342.43,269.51 337.77,289.86 328.33,308.76 314.54,325.07 297.10,337.82 276.92,346.18 255.10,349.59 232.85,347.74 211.44,340.62 192.10,328.52 176.00,312.03 164.11,292.00 157.21,269.50 155.80,245.77 160.06,222.14 169.87,199.95 184.78,180.52 204.03,164.99 226.63,154.34 251.33,149.27 276.78,150.16 301.53,157.10 324.15,169.79 343.33,187.62 357.89,209.67 366.93,234.76 369.83,261.51 366.32,288.43 356.47,313.99 340.74,336.71 319.91,355.24 295.10,368.46 267.64,375.51 239.04,375.90 210.92,369.49 184.89,356.53 162.47,337.64 144.98,313.81 133.50,286.30 128.79,256.63 131.23,226.44 140.78,197.45 157.02,171.31 179.13,149.57 205.95,133.53 236.03,124.19 267.70,122.17 299.19,127.72 328.70,140.62 354.54,160.26 375.18,185.62 389.37,215.35 396.21,247.82 395.20,281.23 386.29,313.69 369.86,343.35 346.75,368.48 318.16,387.60 285.65,399.53 251.01,403.49 216.17,399.16 183.10,386.65 153.71,366.58 129.71,339.96 112.54,308.23 103.27,273.12 102.52,236.57 110.45,200.63 126.73,167.36 150.54,138.67 180.63,116.25 215.37,101.45 252.86,95.21 291.01,97.99 327.66,109.76 360.71,129.94 388.25,157.52 408.65,191.01 420.67,228.59 423.51,268.18 416.91,307.57 401.12,344.52 376.93,376.90 345.62,402.84 308.86,420.77 268.67,429.60 227.29,428.71 187.06,418.04 150.25,398.08 119.00,369.86 95.14,334.87 80.10,295.02 74.84,252.51 79.77,209.72 94.71,169.06 118.94,132.87 151.19,103.23 189.72,81.90 232.43,70.19 276.93,68.85 320.73,78.07 361.35,97.45 396.45,126.01 423.99,162.21 442.32,204.11 450.32,249.38 447.42,295.50 433.67,339.87 409.74,379.96 376.87,413.47 336.83,438.42 291.81,453.32 244.31,457.22 196.99,449.80 152.52,431.34 113.46,402.80 82.05,365.67 60.16,321.98 49.12,274.13 49.66,224.78 61.85,176.72 85.14,132.66 118.30,95.14 159.56,66.35 206.67,47.99 257.01,41.20 307.77,46.48 356.10,63.64 399.22,91.83 434.66,129.56 460.35,174.78 474.73,225.01 476.89,277.45 466.61,329.16 444.33,377.22 411.22,418.87 369.04,451.71 320.09,473.79 267.09,483.77 212.98,480.99" fill="none" stroke="cyan" stroke-width="2"/>
</svg>
