<svg xmlns="http://www.w3.org/2000/svg" width="512" height="512" viewBox="0 0 512 512">
<rect width="100%" height="100%" fill="#0b1020"/>
<circle cx="404" cy="84" r="49" fill="#f8f3c9" opacity="0.95" />
<circle cx="79.0" cy="180.0" r="3.1" fill="white" />
<circle cx="439.0" cy="53.0" r="3.2" fill="white" />
<circle cx="418.0" cy="179.0" r="2.0" fill="white" />
<circle cx="402.0" cy="137.0" r="3.4" fill="white" />
<circle cx="141.0" cy="78.0" r="3.4" fill="white" />
<circle cx="172.0" cy="63.0" r="1.6" fill="white" />
<circle cx="40.0" cy="94.0" r="2.0" fill="white" />
<circle cx="75.0" cy="27.0" r="3.5" fill="white" />
<circle cx="24.0" cy="83.0" r="2.6" fill="white" />
<circle cx="162.0" cy="22.0" r="3.4" fill="white" />
<circle cx="25.0" cy="86.0" r="2.5" fill="white" />
<circle cx="272.0" cy="118.0" r="2.1" fill="white" />
<circle cx="56.0" cy="153.0" r="2.4" fill="white" />
<path d="M 20 430 C 111 413, 172 459, 298 420 S 450 393, 512 423" stroke="#5dade2" stroke-width="7" fill="none" opacity="0.85" />
<line x1="0" y1="398" x2="512" y2="398" stroke="#445566" stroke-width="2" />
<polygon points="152,362 192,302 232,322 252,292 272,312 284,352 252,374 202,378" fill="#1e1e1e" />
<polygon points="227,302 240,280 250,304" fill="#1e1e1e" />
<line x1="282" y1="347" x2="312" y2="322" stroke="#1e1e1e" stroke-width="6" />
</svg>
