<svg xmlns="http://www.w3.org/2000/svg" width="512" height="512" viewBox="0 0 512 512">
<rect width="100%" height="100%" fill="#0b1020"/>
<circle cx="454" cy="132" r="48" fill="#f8f3c9" opacity="0.95" />
<circle cx="346.0" cy="63.0" r="3.3" fill="white" />
<circle cx="51.0" cy="141.0" r="3.0" fill="white" />
<circle cx="353.0" cy="109.0" r="2.0" fill="white" />
<circle cx="197.0" cy="46.0" r="3.3" fill="white" />
<circle cx="151.0" cy="72.0" r="2.1" fill="white" />
<circle cx="118.0" cy="44.0" r="2.1" fill="white" />
<circle cx="174.0" cy="38.0" r="3.3" fill="white" />
<circle cx="179.0" cy="106.0" r="1.5" fill="white" />
<circle cx="472.0" cy="40.0" r="1.6" fill="white" />
<circle cx="305.0" cy="55.0" r="1.6" fill="white" />
<circle cx="150.0" cy="167.0" r="2.1" fill="white" />
<circle cx="367.0" cy="23.0" r="2.5" fill="white" />
<circle cx="99.0" cy="94.0" r="1.8" fill="white" />
<path d="M 20 430 C 140 429, 182 445, 302 439 S 450 401, 512 431" stroke="#5dade2" stroke-width="6" fill="none" opacity="0.85" />
<line x1="0" y1="404" x2="512" y2="404" stroke="#445566" stroke-width="3" />
<polygon points="196,359 236,299 276,319 296,289 316,309 328,349 296,371 246,375" fill="#1e1e1e" />
<polygon points="271,299 284,277 294,301" fill="#1e1e1e" />
<line x1="326" y1="344" x2="356" y2="319" stroke="#1e1e1e" stroke-width="6" />
</svg>
