<svg xmlns="http://www.w3.org/2000/svg" width="512" height="512" viewBox="0 0 512 512">
<rect width="100%" height="100%" fill="#0b1020"/>
<circle cx="356" cy="122" r="40" fill="#f8f3c9" opacity="0.95" />
<circle cx="427.0" cy="28.0" r="3.5" fill="white" />
<circle cx="54.0" cy="43.0" r="2.1" fill="white" />
<circle cx="89.0" cy="157.0" r="3.2" fill="white" />
<circle cx="61.0" cy="39.0" r="1.9" fill="white" />
<circle cx="415.0" cy="39.0" r="3.2" fill="white" />
<circle cx="78.0" cy="26.0" r="3.0" fill="white" />
<circle cx="315.0" cy="39.0" r="2.8" fill="white" />
<circle cx="93.0" cy="46.0" r="2.8" fill="white" />
<circle cx="151.0" cy="57.0" r="2.9" fill="white" />
<path d="M 20 430 C 106 420, 160 460, 290 429 S 450 399, 512 429" stroke="#5dade2" stroke-width="6" fill="none" opacity="0.85" />
<line x1="0" y1="385" x2="512" y2="385" stroke="#445566" stroke-width="2" />
<polygon points="211,363 251,303 291,323 311,293 331,313 343,353 311,375 261,379" fill="#1e1e1e" />
<polygon points="286,303 299,281 309,305" fill="#1e1e1e" />
<line x1="341" y1="348" x2="371" y2="323" stroke="#1e1e1e" stroke-width="6" />
</svg>
