<svg xmlns="http://www.w3.org/2000/svg" width="512" height="512" viewBox="0 0 512 512">
<rect width="100%" height="100%" fill="#0b1020"/>
<circle cx="373" cy="127" r="53" fill="#f8f3c9" opacity="0.95" />
<circle cx="348.0" cy="56.0" r="2.3" fill="white" />
<circle cx="186.0" cy="106.0" r="3.4" fill="white" />
<circle cx="328.0" cy="76.0" r="1.6" fill="white" />
<circle cx="263.0" cy="33.0" r="3.2" fill="white" />
<circle cx="244.0" cy="140.0" r="2.7" fill="white" />
<circle cx="445.0" cy="133.0" r="3.2" fill="white" />
<path d="M 20 430 C 108 412, 164 455, 302 431 S 450 385, 512 415" stroke="#5dade2" stroke-width="5" fill="none" opacity="0.85" />
<line x1="0" y1="392" x2="512" y2="392" stroke="#445566" stroke-width="2" />
<polygon points="143,357 183,297 223,317 243,287 263,307 275,347 243,369 193,373" fill="#1e1e1e" />
<polygon points="218,297 231,275 241,299" fill="#1e1e1e" />
<line x1="273" y1="342" x2="303" y2="317" stroke="#1e1e1e" stroke-width="6" />
</svg>
