<svg xmlns="http://www.w3.org/2000/svg" width="512" height="512" viewBox="0 0 512 512">
<rect width="100%" height="100%" fill="#0b1020"/>
<circle cx="410" cy="86" r="52" fill="#f8f3c9" opacity="0.95" />
<circle cx="236.0" cy="137.0" r="3.3" fill="white" />
<circle cx="59.0" cy="39.0" r="2.3" fill="white" />
<circle cx="62.0" cy="99.0" r="2.1" fill="white" />
<circle cx="66.0" cy="87.0" r="2.5" fill="white" />
<circle cx="85.0" cy="102.0" r="2.3" fill="white" />
<circle cx="419.0" cy="139.0" r="1.8" fill="white" />
<circle cx="128.0" cy="34.0" r="2.8" fill="white" />
<path d="M 20 430 C 117 424, 189 452, 308 435 S 450 397, 512 427" stroke="#5dade2" stroke-width="7" fill="none" opacity="0.85" />
<line x1="0" y1="393" x2="512" y2="393" stroke="#445566" stroke-width="4" />
<polygon points="213,354 253,294 293,314 313,284 333,304 345,344 313,366 263,370" fill="#1e1e1e" />
<polygon points="288,294 301,272 311,296" fill="#1e1e1e" />
<line x1="343" y1="339" x2="373" y2="314" stroke="#1e1e1e" stroke-width="6" />
</svg>
