<svg xmlns="http://www.w3.org/2000/svg" width="512" height="512" viewBox="0 0 512 512">
<rect width="100%" height="100%" fill="#0b1020"/>
<circle cx="349" cy="76" r="56" fill="#f8f3c9" opacity="0.95" />
<circle cx="210.0" cy="136.0" r="2.1" fill="white" />
<circle cx="120.0" cy="94.0" r="1.8" fill="white" />
<circle cx="441.0" cy="103.0" r="2.3" fill="white" />
<circle cx="248.0" cy="156.0" r="3.2" fill="white" />
<circle cx="414.0" cy="60.0" r="3.1" fill="white" />
<circle cx="428.0" cy="84.0" r="2.7" fill="white" />
<circle cx="278.0" cy="99.0" r="1.9" fill="white" />
<circle cx="181.0" cy="34.0" r="3.5" fill="white" />
<circle cx="121.0" cy="40.0" r="1.5" fill="white" />
<path d="M 20 430 C 121 430, 183 442, 290 423 S 450 376, 512 406" stroke="#5dade2" stroke-width="6" fill="none" opacity="0.85" />
<line x1="0" y1="402" x2="512" y2="402" stroke="#445566" stroke-width="2" />
<polygon points="195,363 235,303 275,323 295,293 315,313 327,353 295,375 245,379" fill="#1e1e1e" />
<polygon points="270,303 283,281 293,305" fill="#1e1e1e" />
<line x1="325" y1="348" x2="355" y2="323" stroke="#1e1e1e" stroke-width="6" />
</svg>
