<svg xmlns="http://www.w3.org/2000/svg" width="512" height="512" viewBox="0 0 512 512">
<rect width="100%" height="100%" fill="#0b1020"/>
<circle cx="341" cy="74" r="42" fill="#f8f3c9" opacity="0.95" />
<circle cx="482.0" cy="140.0" r="3.2" fill="white" />
<circle cx="276.0" cy="140.0" r="3.3" fill="white" />
<circle cx="44.0" cy="76.0" r="3.5" fill="white" />
<circle cx="411.0" cy="35.0" r="2.3" fill="white" />
<circle cx="178.0" cy="151.0" r="2.3" fill="white" />
<path d="M 20 430 C 126 419, 189 449, 309 431 S 450 404, 512 434" stroke="#5dade2" stroke-width="7" fill="none" opacity="0.85" />
<line x1="0" y1="410" x2="512" y2="410" stroke="#445566" stroke-width="2" />
<polygon points="171,355 211,295 251,315 271,285 291,305 303,345 271,367 221,371" fill="#1e1e1e" />
<polygon points="246,295 259,273 269,297" fill="#1e1e1e" />
<line x1="301" y1="340" x2="331" y2="315" stroke="#1e1e1e" stroke-width="6" />
</svg>
