<svg xmlns="http://www.w3.org/2000/svg" width="512" height="512" viewBox="0 0 512 512">
<rect width="100%" height="100%" fill="#0b1020"/>
<circle cx="413" cy="117" r="44" fill="#f8f3c9" opacity="0.95" />
<circle cx="423.0" cy="133.0" r="3.0" fill="white" />
<circle cx="347.0" cy="136.0" r="3.1" fill="white" />
<circle cx="450.0" cy="67.0" r="2.5" fill="white" />
<circle cx="189.0" cy="20.0" r="2.5" fill="white" />
<circle cx="150.0" cy="50.0" r="3.2" fill="white" />
<circle cx="325.0" cy="155.0" r="1.7" fill="white" />
<circle cx="390.0" cy="90.0" r="2.5" fill="white" />
<circle cx="403.0" cy="107.0" r="3.3" fill="white" />
<circle cx="466.0" cy="85.0" r="2.6" fill="white" />
<path d="M 20 430 C 138 410, 170 454, 304 429 S 450 391, 512 421" stroke="#5dade2" stroke-width="7" fill="none" opacity="0.85" />
<line x1="0" y1="415" x2="512" y2="415" stroke="#445566" stroke-width="2" />
<polygon points="180,360 220,300 260,320 280,290 300,310 312,350 280,372 230,376" fill="#1e1e1e" />
<polygon points="255,300 268,278 278,302" fill="#1e1e1e" />
<line x1="310" y1="345" x2="340" y2="320" stroke="#1e1e1e" stroke-width="6" />
</svg>
