<svg xmlns="http://www.w3.org/2000/svg" width="512" height="512" viewBox="0 0 512 512">
<rect width="100%" height="100%" fill="black"/>
<circle cx="64" cy="388" r="3" fill="hsl(0, 80%, 65%)" />
<circle cx="393" cy="75" r="8" fill="hsl(10, 80%, 65%)" />
<circle cx="387" cy="308" r="2" fill="hsl(12, 80%, 65%)" />
<circle cx="441" cy="358" r="2" fill="hsl(15, 80%, 65%)" />
<circle cx="264" cy="77" r="4" fill="hsl(24, 80%, 65%)" />
<circle cx="57" cy="137" r="2" fill="hsl(40, 80%, 65%)" />
<circle cx="68" cy="277" r="9" fill="hsl(60, 80%, 65%)" />
<circle cx="439" cy="225" r="3" fill="hsl(84, 80%, 65%)" />
<circle cx="318" cy="371" r="2" fill="hsl(40, 80%, 65%)" />
<circle cx="203" cy="323" r="5" fill="hsl(63, 80%, 65%)" />
<circle cx="326" cy="138" r="9" fill="hsl(130, 80%, 65%)" />
<circle cx="180" cy="90" r="2" fill="hsl(132, 80%, 65%)" />
<circle cx="161" cy="388" r="8" fill="hsl(96, 80%, 65%)" />
<circle cx="255" cy="285" r="9" fill="hsl(65, 80%, 65%)" />
<circle cx="461" cy="62" r="4" fill="hsl(70, 80%, 65%)" />
<circle cx="230" cy="273" r="3" fill="hsl(165, 80%, 65%)" />
<circle cx="134" cy="185" r="5" fill="hsl(144, 80%, 65%)" />
<circle cx="250" cy="390" r="2" fill="hsl(85, 80%, 65%)" />
<circle cx="82" cy="401" r="4" fill="hsl(198, 80%, 65%)" />
<circle cx="267" cy="406" r="8" fill="hsl(95, 80%, 65%)" />
<circle cx="411" cy="274" r="3" fill="hsl(120, 80%, 65%)" />
<circle cx="439" cy="50" r="5" fill="hsl(252, 80%, 65%)" />
<circle cx="67" cy="193" r="6" fill="hsl(132, 80%, 65%)" />
<circle cx="409" cy="427" r="2" fill="hsl(161, 80%, 65%)" />
<circle cx="303" cy="285" r="8" fill="hsl(168, 80%, 65%)" />
<circle cx="302" cy="319" r="3" fill="hsl(250, 80%, 65%)" />
<circle cx="195" cy="57" r="5" fill="hsl(156, 80%, 65%)" />
<circle cx="450" cy="143" r="7" fill="hsl(270, 80%, 65%)" />
<circle cx="87" cy="396" r="9" fill="hsl(280, 80%, 65%)" />
<circle cx="202" cy="65" r="3" fill="hsl(17, 80%, 65%)" />
<circle cx="335" cy="429" r="8" fill="hsl(180, 80%, 65%)" />
<circle cx="288" cy="292" r="6" fill="hsl(279, 80%, 65%)" />
<circle cx="351" cy="358" r="3" fill="hsl(160, 80%, 65%)" />
<circle cx="92" cy="100" r="6" fill="hsl(3, 80%, 65%)" />
<circle cx="345" cy="136" r="3" fill="hsl(272, 80%, 65%)" />
<circle cx="385" cy="147" r="3" fill="hsl(280, 80%, 65%)" />
<circle cx="176" cy="312" r="7" fill="hsl(180, 80%, 65%)" />
<circle cx="151" cy="227" r="3" fill="hsl(84, 80%, 65%)" />
<circle cx="390" cy="237" r="3" fill="hsl(304, 80%, 65%)" />
<circle cx="217" cy="213" r="7" fill="hsl(147, 80%, 65%)" />
<circle cx="401" cy="149" r="3" fill="hsl(120, 80%, 65%)" />
<circle cx="335" cy="322" r="2" fill="hsl(328, 80%, 65%)" />
<circle cx="412" cy="91" r="6" fill="hsl(144, 80%, 65%)" />
<circle cx="432" cy="126" r="5" fill="hsl(258, 80%, 65%)" />
<circle cx="298" cy="319" r="6" fill="hsl(308, 80%, 65%)" />
<circle cx="104" cy="448" r="5" fill="hsl(270, 80%, 65%)" />
<circle cx="359" cy="390" r="8" fill="hsl(322, 80%, 65%)" />
<circle cx="99" cy="444" r="3" fill="hsl(16, 80%, 65%)" />
<circle cx="159" cy="123" r="4" fill="hsl(288, 80%, 65%)" />
<circle cx="196" cy="286" r="3" fill="hsl(294, 80%, 65%)" />
<circle cx="73" cy="74" r="3" fill="hsl(350, 80%, 65%)" />
<circle cx="460" cy="430" r="6" fill="hsl(357, 80%, 65%)" />
<circle cx="187" cy="56" r="3" fill="hsl(56, 80%, 65%)" />
<circle cx="234" cy="427" r="7" fill="hsl(223, 80%, 65%)" />
<circle cx="217" cy="68" r="2" fill="hsl(180, 80%, 65%)" />
<circle cx="176" cy="450" r="3" fill="hsl(330, 80%, 65%)" />
<circle cx="339" cy="387" r="2" fill="hsl(256, 80%, 65%)" />
<circle cx="126" cy="427" r="8" fill="hsl(153, 80%, 65%)" />
<circle cx="461" cy="180" r="9" fill="hsl(220, 80%, 65%)" />
<circle cx="290" cy="66" r="4" fill="hsl(171, 80%, 65%)" />
<circle cx="298" cy="325" r="9" fill="hsl(0, 80%, 65%)" />
<circle cx="260" cy="360" r="9" fill="hsl(305, 80%, 65%)" />
<circle cx="292" cy="337" r="6" fill="hsl(74, 80%, 65%)" />
<circle cx="244" cy="137" r="2" fill="hsl(333, 80%, 65%)" />
<circle cx="328" cy="347" r="6" fill="hsl(112, 80%, 65%)" />
<circle cx="301" cy="452" r="2" fill="hsl(95, 80%, 65%)" />
<circle cx="91" cy="176" r="4" fill="hsl(6, 80%, 65%)" />
<circle cx="86" cy="84" r="9" fill="hsl(243, 80%, 65%)" />
<circle cx="249" cy="177" r="6" fill="hsl(96, 80%, 65%)" />
<circle cx="359" cy="123" r="2" fill="hsl(192, 80%, 65%)" />
<circle cx="261" cy="291" r="9" fill="hsl(190, 80%, 65%)" />
<circle cx="235" cy="67" r="6" fill="hsl(137, 80%, 65%)" />
<circle cx="234" cy="85" r="9" fill="hsl(288, 80%, 65%)" />
<circle cx="81" cy="142" r="9" fill="hsl(229, 80%, 65%)" />
<circle cx="357" cy="78" r="6" fill="hsl(242, 80%, 65%)" />
<circle cx="354" cy="242" r="6" fill="hsl(255, 80%, 65%)" />
<circle cx="443" cy="92" r="8" fill="hsl(192, 80%, 65%)" />
<circle cx="108" cy="78" r="3" fill="hsl(179, 80%, 65%)" />
<circle cx="334" cy="339" r="4" fill="hsl(216, 80%, 65%)" />
<circle cx="336" cy="196" r="4" fill="hsl(114, 80%, 65%)" />
<circle cx="220" cy="150" r="3" fill="hsl(200, 80%, 65%)" />
<circle cx="216" cy="260" r="9" fill="hsl(126, 80%, 65%)" />
<circle cx="376" cy="103" r="6" fill="hsl(214, 80%, 65%)" />
<circle cx="423" cy="461" r="9" fill="hsl(55, 80%, 65%)" />
<circle cx="206" cy="80" r="6" fill="hsl(144, 80%, 65%)" />
<circle cx="236" cy="66" r="6" fill="hsl(130, 80%, 65%)" />
<circle cx="361" cy="349" r="2" fill="hsl(242, 80%, 65%)" />
<circle cx="448" cy="393" r="5" fill="hsl(336, 80%, 65%)" />
<circle cx="332" cy="318" r="6" fill="hsl(248, 80%, 65%)" />
<circle cx="384" cy="394" r="3" fill="hsl(348, 80%, 65%)" />
<circle cx="150" cy="296" r="7" fill="hsl(90, 80%, 65%)" />
<circle cx="267" cy="66" r="9" fill="hsl(281, 80%, 65%)" />
<circle cx="442" cy="370" r="9" fill="hsl(284, 80%, 65%)" />
<circle cx="51" cy="433" r="4" fill="hsl(210, 80%, 65%)" />
<circle cx="276" cy="288" r="5" fill="hsl(32, 80%, 65%)" />
<circle cx="403" cy="263" r="5" fill="hsl(210, 80%, 65%)" />
<circle cx="305" cy="353" r="4" fill="hsl(72, 80%, 65%)" />
<circle cx="179" cy="429" r="7" fill="hsl(347, 80%, 65%)" />
<circle cx="334" cy="431" r="2" fill="hsl(260, 80%, 65%)" />
<circle cx="155" cy="83" r="4" fill="hsl(108, 80%, 65%)" />
<circle cx="303" cy="391" r="8" fill="hsl(220, 80%, 65%)" />
<circle cx="231" cy="351" r="6" fill="hsl(189, 80%, 65%)" />
<circle cx="372" cy="379" r="4" fill="hsl(42, 80%, 65%)" />
<circle cx="244" cy="435" r="5" fill="hsl(310, 80%, 65%)" />
<circle cx="372" cy="377" r="4" fill="hsl(112, 80%, 65%)" />
<circle cx="289" cy="334" r="2" fill="hsl(120, 80%, 65%)" />
<circle cx="86" cy="400" r="2" fill="hsl(298, 80%, 65%)" />
<circle cx="403" cy="173" r="3" fill="hsl(204, 80%, 65%)" />
<circle cx="376" cy="254" r="7" fill="hsl(180, 80%, 65%)" />
<circle cx="410" cy="217" r="6" fill="hsl(337, 80%, 65%)" />
<circle cx="413" cy="52" r="9" fill="hsl(50, 80%, 65%)" />
<circle cx="449" cy="383" r="8" fill="hsl(279, 80%, 65%)" />
<circle cx="201" cy="58" r="8" fill="hsl(152, 80%, 65%)" />
<circle cx="122" cy="241" r="6" fill="hsl(205, 80%, 65%)" />
<circle cx="276" cy="307" r="4" fill="hsl(192, 80%, 65%)" />
<circle cx="462" cy="148" r="5" fill="hsl(55, 80%, 65%)" />
<circle cx="433" cy="171" r="6" fill="hsl(92, 80%, 65%)" />
<circle cx="327" cy="234" r="2" fill="hsl(333, 80%, 65%)" />
<circle cx="400" cy="321" r="8" fill="hsl(342, 80%, 65%)" />
<circle cx="110" cy="311" r="2" fill="hsl(107, 80%, 65%)" />
<circle cx="209" cy="205" r="3" fill="hsl(0, 80%, 65%)" />
<circle cx="361" cy="174" r="2" fill="hsl(245, 80%, 65%)" />
<circle cx="294" cy="327" r="3" fill="hsl(134, 80%, 65%)" />
<circle cx="347" cy="332" r="2" fill="hsl(273, 80%, 65%)" />
<circle cx="186" cy="196" r="2" fill="hsl(160, 80%, 65%)" />
<circle cx="360" cy="226" r="3" fill="hsl(280, 80%, 65%)" />
<circle cx="84" cy="67" r="3" fill="hsl(36, 80%, 65%)" />
<circle cx="333" cy="291" r="4" fill="hsl(296, 80%, 65%)" />
<circle cx="168" cy="432" r="8" fill="hsl(96, 80%, 65%)" />
<circle cx="239" cy="205" r="4" fill="hsl(183, 80%, 65%)" />
<circle cx="258" cy="286" r="8" fill="hsl(190, 80%, 65%)" />
<circle cx="136" cy="213" r="3" fill="hsl(99, 80%, 65%)" />
<circle cx="439" cy="65" r="2" fill="hsl(108, 80%, 65%)" />
<circle cx="222" cy="198" r="3" fill="hsl(211, 80%, 65%)" />
<circle cx="312" cy="223" r="3" fill="hsl(260, 80%, 65%)" />
<circle cx="334" cy="432" r="4" fill="hsl(180, 80%, 65%)" />
<circle cx="325" cy="226" r="9" fill="hsl(320, 80%, 65%)" />
<circle cx="286" cy="241" r="8" fill="hsl(16, 80%, 65%)" />
<circle cx="385" cy="52" r="2" fill="hsl(330, 80%, 65%)" />
<circle cx="295" cy="168" r="3" fill="hsl(310, 80%, 65%)" />
<circle cx="359" cy="89" r="3" fill="hsl(20, 80%, 65%)" />
<circle cx="253" cy="239" r="5" fill="hsl(48, 80%, 65%)" />
<circle cx="90" cy="353" r="6" fill="hsl(198, 80%, 65%)" />
<circle cx="377" cy="99" r="9" fill="hsl(207, 80%, 65%)" />
<circle cx="193" cy="135" r="5" fill="hsl(288, 80%, 65%)" />
<circle cx="282" cy="355" r="6" fill="hsl(150, 80%, 65%)" />
<circle cx="185" cy="326" r="5" fill="hsl(302, 80%, 65%)" />
<circle cx="86" cy="216" r="5" fill="hsl(96, 80%, 65%)" />
<circle cx="119" cy="371" r="7" fill="hsl(124, 80%, 65%)" />
<circle cx="381" cy="405" r="3" fill="hsl(50, 80%, 65%)" />
<circle cx="155" cy="133" r="7" fill="hsl(330, 80%, 65%)" />
<circle cx="278" cy="203" r="9" fill="hsl(221, 80%, 65%)" />
<circle cx="427" cy="278" r="4" fill="hsl(80, 80%, 65%)" />
<circle cx="109" cy="147" r="9" fill="hsl(297, 80%, 65%)" />
<circle cx="58" cy="208" r="5" fill="hsl(358, 80%, 65%)" />
<circle cx="320" cy="65" r="2" fill="hsl(110, 80%, 65%)" />
<circle cx="241" cy="225" r="9" fill="hsl(60, 80%, 65%)" />
<circle cx="235" cy="357" r="9" fill="hsl(241, 80%, 65%)" />
<circle cx="60" cy="62" r="4" fill="hsl(298, 80%, 65%)" />
<circle cx="185" cy="210" r="8" fill="hsl(33, 80%, 65%)" />
<circle cx="350" cy="195" r="7" fill="hsl(0, 80%, 65%)" />
<circle cx="50" cy="369" r="8" fill="hsl(293, 80%, 65%)" />
<circle cx="376" cy="148" r="6" fill="hsl(54, 80%, 65%)" />
<circle cx="150" cy="420" r="5" fill="hsl(258, 80%, 65%)" />
<circle cx="263" cy="317" r="6" fill="hsl(264, 80%, 65%)" />
<circle cx="156" cy="206" r="4" fill="hsl(105, 80%, 65%)" />
<circle cx="413" cy="300" r="2" fill="hsl(192, 80%, 65%)" />
<circle cx="134" cy="406" r="4" fill="hsl(282, 80%, 65%)" />
<circle cx="157" cy="244" r="7" fill="hsl(240, 80%, 65%)" />
<circle cx="348" cy="318" r="9" fill="hsl(103, 80%, 65%)" />
<circle cx="448" cy="460" r="5" fill="hsl(130, 80%, 65%)" />
<circle cx="413" cy="186" r="6" fill="hsl(270, 80%, 65%)" />
<circle cx="71" cy="98" r="4" fill="hsl(108, 80%, 65%)" />
<circle cx="165" cy="254" r="6" fill="hsl(103, 80%, 65%)" />
<circle cx="86" cy="254" r="6" fill="hsl(126, 80%, 65%)" />
<circle cx="187" cy="72" r="9" fill="hsl(300, 80%, 65%)" />
<circle cx="456" cy="237" r="6" fill="hsl(320, 80%, 65%)" />
<circle cx="402" cy="398" r="6" fill="hsl(153, 80%, 65%)" />
<circle cx="360" cy="339" r="9" fill="hsl(162, 80%, 65%)" />
<circle cx="201" cy="56" r="9" fill="hsl(173, 80%, 65%)" />
<circle cx="251" cy="193" r="5" fill="hsl(180, 80%, 65%)" />
<circle cx="339" cy="220" r="9" fill="hsl(193, 80%, 65%)" />
<circle cx="175" cy="280" r="9" fill="hsl(206, 80%, 65%)" />
<circle cx="75" cy="439" r="3" fill="hsl(195, 80%, 65%)" />
<circle cx="419" cy="323" r="6" fill="hsl(24, 80%, 65%)" />
<circle cx="306" cy="107" r="6" fill="hsl(40, 80%, 65%)" />
<circle cx="446" cy="170" r="3" fill="hsl(246, 80%, 65%)" />
<line x1="203" y1="68" x2="121" y2="48" stroke="#223344" stroke-width="1"/>
<line x1="378" y1="146" x2="358" y2="100" stroke="#223344" stroke-width="1"/>
<line x1="390" y1="254" x2="424" y2="189" stroke="#223344" stroke-width="1"/>
<line x1="128" y1="316" x2="60" y2="331" stroke="#223344" stroke-width="1"/>
<line x1="371" y1="83" x2="294" y2="11" stroke="#223344" stroke-width="1"/>
<line x1="291" y1="290" x2="208" y2="198" stroke="#223344" stroke-width="1"/>
<line x1="241" y1="157" x2="298" y2="127" stroke="#223344" stroke-width="1"/>
<line x1="430" y1="63" x2="509" y2="113" stroke="#223344" stroke-width="1"/>
<line x1="51" y1="165" x2="69" y2="76" stroke="#223344" stroke-width="1"/>
<line x1="265" y1="352" x2="191" y2="312" stroke="#223344" stroke-width="1"/>
<line x1="288" y1="350" x2="220" y2="311" stroke="#223344" stroke-width="1"/>
<line x1="403" y1="397" x2="498" y2="393" stroke="#223344" stroke-width="1"/>
<line x1="180" y1="69" x2="217" y2="21" stroke="#223344" stroke-width="1"/>
<line x1="266" y1="456" x2="279" y2="440" stroke="#223344" stroke-width="1"/>
<line x1="132" y1="154" x2="114" y2="215" stroke="#223344" stroke-width="1"/>
<line x1="360" y1="219" x2="268" y2="311" stroke="#223344" stroke-width="1"/>
<line x1="56" y1="227" x2="128" y2="257" stroke="#223344" stroke-width="1"/>
<line x1="215" y1="269" x2="206" y2="171" stroke="#223344" stroke-width="1"/>
<line x1="241" y1="86" x2="142" y2="102" stroke="#223344" stroke-width="1"/>
<line x1="111" y1="292" x2="52" y2="205" stroke="#223344" stroke-width="1"/>
<line x1="132" y1="338" x2="176" y2="313" stroke="#223344" stroke-width="1"/>
<line x1="169" y1="79" x2="185" y2="63" stroke="#223344" stroke-width="1"/>
<line x1="268" y1="444" x2="230" y2="475" stroke="#223344" stroke-width="1"/>
<line x1="159" y1="371" x2="236" y2="275" stroke="#223344" stroke-width="1"/>
<line x1="289" y1="79" x2="330" y2="5" stroke="#223344" stroke-width="1"/>
<line x1="442" y1="377" x2="403" y2="395" stroke="#223344" stroke-width="1"/>
<line x1="57" y1="244" x2="50" y2="324" stroke="#223344" stroke-width="1"/>
<line x1="415" y1="77" x2="445" y2="44" stroke="#223344" stroke-width="1"/>
<line x1="449" y1="223" x2="497" y2="259" stroke="#223344" stroke-width="1"/>
<line x1="408" y1="330" x2="415" y2="424" stroke="#223344" stroke-width="1"/>
<line x1="156" y1="152" x2="144" y2="231" stroke="#223344" stroke-width="1"/>
<line x1="444" y1="384" x2="473" y2="462" stroke="#223344" stroke-width="1"/>
</svg>
