<svg xmlns="http://www.w3.org/2000/svg" width="512" height="512" viewBox="0 0 512 512">
<rect width="100%" height="100%" fill="black"/>
<circle cx="256.00" cy="256.00" r="2" fill="hsl(0, 80%, 65%)" />
<circle cx="250.06" cy="261.44" r="3" fill="hsl(8, 80%, 65%)" />
<circle cx="257.00" cy="244.66" r="4" fill="hsl(16, 80%, 65%)" />
<circle cx="264.48" cy="267.07" r="5" fill="hsl(24, 80%, 65%)" />
<circle cx="240.15" cy="253.20" r="6" fill="hsl(32, 80%, 65%)" />
<circle cx="271.19" cy="246.34" r="2" fill="hsl(40, 80%, 65%)" />
<circle cx="250.88" cy="275.04" r="3" fill="hsl(48, 80%, 65%)" />
<circle cx="246.18" cy="237.10" r="4" fill="hsl(56, 80%, 65%)" />
<circle cx="277.39" cy="263.81" r="5" fill="hsl(64, 80%, 65%)" />
<circle cx="233.68" cy="265.21" r="6" fill="hsl(72, 80%, 65%)" />
<circle cx="266.79" cy="232.94" r="2" fill="hsl(80, 80%, 65%)" />
<circle cx="263.99" cy="281.48" r="3" fill="hsl(88, 80%, 65%)" />
<circle cx="231.87" cy="242.02" r="4" fill="hsl(96, 80%, 65%)" />
<circle cx="284.35" cy="249.77" r="5" fill="hsl(104, 80%, 65%)" />
<circle cx="238.68" cy="280.64" r="6" fill="hsl(112, 80%, 65%)" />
<circle cx="251.99" cy="225.08" r="2" fill="hsl(120, 80%, 65%)" />
<circle cx="280.62" cy="276.75" r="3" fill="hsl(128, 80%, 65%)" />
<circle cx="222.84" cy="257.37" r="4" fill="hsl(136, 80%, 65%)" />
<circle cx="280.21" cy="231.91" r="5" fill="hsl(144, 80%, 65%)" />
<circle cx="254.38" cy="291.05" r="6" fill="hsl(152, 80%, 65%)" />
<circle cx="232.93" cy="228.36" r="2" fill="hsl(160, 80%, 65%)" />
<circle cx="292.56" cy="260.92" r="3" fill="hsl(168, 80%, 65%)" />
<circle cx="225.01" cy="277.57" r="4" fill="hsl(176, 80%, 65%)" />
<circle cx="264.47" cy="218.33" r="5" fill="hsl(184, 80%, 65%)" />
<circle cx="275.61" cy="290.22" r="6" fill="hsl(192, 80%, 65%)" />
<circle cx="217.65" cy="243.77" r="2" fill="hsl(200, 80%, 65%)" />
<circle cx="293.26" cy="238.78" r="3" fill="hsl(208, 80%, 65%)" />
<circle cx="239.85" cy="294.59" r="4" fill="hsl(216, 80%, 65%)" />
<circle cx="241.58" cy="215.92" r="5" fill="hsl(224, 80%, 65%)" />
<circle cx="294.37" cy="276.17" r="6" fill="hsl(232, 80%, 65%)" />
<circle cx="213.36" cy="267.24" r="2" fill="hsl(240, 80%, 65%)" />
<circle cx="280.24" cy="218.30" r="3" fill="hsl(248, 80%, 65%)" />
<circle cx="263.71" cy="300.88" r="4" fill="hsl(256, 80%, 65%)" />
<circle cx="219.44" cy="227.68" r="5" fill="hsl(264, 80%, 65%)" />
<circle cx="302.78" cy="252.12" r="6" fill="hsl(272, 80%, 65%)" />
<circle cx="223.66" cy="290.96" r="2" fill="hsl(280, 80%, 65%)" />
<circle cx="256.24" cy="207.70" r="3" fill="hsl(288, 80%, 65%)" />
<circle cx="288.90" cy="292.27" r="4" fill="hsl(296, 80%, 65%)" />
<circle cx="206.59" cy="251.42" r="5" fill="hsl(304, 80%, 65%)" />
<circle cx="296.05" cy="225.61" r="6" fill="hsl(312, 80%, 65%)" />
<circle cx="246.89" cy="306.09" r="2" fill="hsl(320, 80%, 65%)" />
<circle cx="228.55" cy="212.37" r="3" fill="hsl(328, 80%, 65%)" />
<circle cx="306.32" cy="269.79" r="4" fill="hsl(336, 80%, 65%)" />
<circle cx="209.03" cy="280.10" r="5" fill="hsl(344, 80%, 65%)" />
<circle cx="274.56" cy="205.93" r="6" fill="hsl(352, 80%, 65%)" />
<circle cx="276.36" cy="306.02" r="2" fill="hsl(0, 80%, 65%)" />
<circle cx="206.66" cy="232.62" r="3" fill="hsl(8, 80%, 65%)" />
<circle cx="308.74" cy="239.74" r="4" fill="hsl(16, 80%, 65%)" />
<circle cx="227.80" cy="304.12" r="5" fill="hsl(24, 80%, 65%)" />
<circle cx="244.17" cy="200.90" r="6" fill="hsl(32, 80%, 65%)" />
<circle cx="302.41" cy="288.97" r="2" fill="hsl(40, 80%, 65%)" />
<circle cx="198.95" cy="263.11" r="3" fill="hsl(48, 80%, 65%)" />
<circle cx="293.63" cy="211.79" r="4" fill="hsl(56, 80%, 65%)" />
<circle cx="258.14" cy="314.57" r="5" fill="hsl(64, 80%, 65%)" />
<circle cx="214.48" cy="213.86" r="6" fill="hsl(72, 80%, 65%)" />
<circle cx="315.62" cy="259.05" r="2" fill="hsl(80, 80%, 65%)" />
<circle cx="209.56" cy="294.37" r="3" fill="hsl(88, 80%, 65%)" />
<circle cx="264.40" cy="195.81" r="4" fill="hsl(96, 80%, 65%)" />
<circle cx="290.77" cy="306.50" r="5" fill="hsl(104, 80%, 65%)" />
<circle cx="195.74" cy="242.13" r="6" fill="hsl(112, 80%, 65%)" />
<circle cx="310.25" cy="225.26" r="2" fill="hsl(120, 80%, 65%)" />
<circle cx="236.60" cy="315.81" r="3" fill="hsl(128, 80%, 65%)" />
<circle cx="229.69" cy="198.33" r="4" fill="hsl(136, 80%, 65%)" />
<circle cx="314.82" cy="280.96" r="5" fill="hsl(144, 80%, 65%)" />
<circle cx="195.29" cy="277.50" r="6" fill="hsl(152, 80%, 65%)" />
<circle cx="286.47" cy="198.70" r="2" fill="hsl(160, 80%, 65%)" />
<circle cx="272.36" cy="319.32" r="3" fill="hsl(168, 80%, 65%)" />
<circle cx="200.75" cy="220.09" r="4" fill="hsl(176, 80%, 65%)" />
<circle cx="321.48" cy="245.08" r="5" fill="hsl(184, 80%, 65%)" />
<circle cx="214.80" cy="308.67" r="6" fill="hsl(192, 80%, 65%)" />
<circle cx="250.77" cy="188.85" r="2" fill="hsl(200, 80%, 65%)" />
<circle cx="305.57" cy="302.31" r="3" fill="hsl(208, 80%, 65%)" />
<circle cx="187.70" cy="255.33" r="4" fill="hsl(216, 80%, 65%)" />
<circle cx="307.17" cy="210.04" r="5" fill="hsl(224, 80%, 65%)" />
<circle cx="249.27" cy="324.92" r="6" fill="hsl(232, 80%, 65%)" />
<circle cx="214.12" cy="200.26" r="2" fill="hsl(240, 80%, 65%)" />
<circle cx="324.98" cy="268.90" r="3" fill="hsl(248, 80%, 65%)" />
<circle cx="196.03" cy="293.33" r="4" fill="hsl(256, 80%, 65%)" />
<circle cx="275.13" cy="187.52" r="5" fill="hsl(264, 80%, 65%)" />
<circle cx="288.36" cy="319.82" r="6" fill="hsl(272, 80%, 65%)" />
<circle cx="188.61" cy="230.64" r="2" fill="hsl(280, 80%, 65%)" />
<circle cx="323.24" cy="229.01" r="3" fill="hsl(288, 80%, 65%)" />
<circle cx="224.46" cy="321.72" r="4" fill="hsl(296, 80%, 65%)" />
<circle cx="234.73" cy="185.81" r="5" fill="hsl(304, 80%, 65%)" />
<circle cx="319.47" cy="293.62" r="6" fill="hsl(312, 80%, 65%)" />
<circle cx="183.36" cy="271.23" r="2" fill="hsl(320, 80%, 65%)" />
<circle cx="299.53" cy="195.35" r="3" fill="hsl(328, 80%, 65%)" />
<circle cx="264.92" cy="330.56" r="4" fill="hsl(336, 80%, 65%)" />
<circle cx="198.73" cy="206.77" r="5" fill="hsl(344, 80%, 65%)" />
<circle cx="331.91" cy="253.60" r="6" fill="hsl(352, 80%, 65%)" />
<circle cx="201.34" cy="309.34" r="2" fill="hsl(0, 80%, 65%)" />
<circle cx="260.30" cy="179.33" r="3" fill="hsl(8, 80%, 65%)" />
<circle cx="304.89" cy="315.76" r="4" fill="hsl(16, 80%, 65%)" />
<circle cx="179.16" cy="244.90" r="5" fill="hsl(24, 80%, 65%)" />
<circle cx="320.50" cy="212.05" r="6" fill="hsl(32, 80%, 65%)" />
<circle cx="238.03" cy="332.38" r="2" fill="hsl(40, 80%, 65%)" />
<circle cx="217.45" cy="187.18" r="3" fill="hsl(48, 80%, 65%)" />
<circle cx="331.30" cy="280.83" r="4" fill="hsl(56, 80%, 65%)" />
<circle cx="183.33" cy="288.72" r="5" fill="hsl(64, 80%, 65%)" />
<circle cx="287.64" cy="182.42" r="6" fill="hsl(72, 80%, 65%)" />
<circle cx="282.51" cy="332.01" r="2" fill="hsl(80, 80%, 65%)" />
<circle cx="184.76" cy="217.66" r="3" fill="hsl(88, 80%, 65%)" />
<circle cx="334.82" cy="236.04" r="4" fill="hsl(96, 80%, 65%)" />
<circle cx="211.14" cy="324.29" r="5" fill="hsl(104, 80%, 65%)" />
<circle cx="242.88" cy="174.96" r="6" fill="hsl(112, 80%, 65%)" />
<circle cx="320.72" cy="307.14" r="2" fill="hsl(120, 80%, 65%)" />
<circle cx="173.34" cy="262.04" r="3" fill="hsl(128, 80%, 65%)" />
<circle cx="313.14" cy="195.43" r="4" fill="hsl(136, 80%, 65%)" />
<circle cx="254.78" cy="339.65" r="5" fill="hsl(144, 80%, 65%)" />
<circle cx="200.14" cy="193.20" r="6" fill="hsl(152, 80%, 65%)" />
<circle cx="339.99" cy="264.61" r="2" fill="hsl(160, 80%, 65%)" />
<circle cx="187.94" cy="306.61" r="3" fill="hsl(168, 80%, 65%)" />
<circle cx="272.07" cy="172.33" r="4" fill="hsl(176, 80%, 65%)" />
<circle cx="300.87" cy="328.87" r="5" fill="hsl(184, 80%, 65%)" />
<circle cx="173.33" cy="232.47" r="6" fill="hsl(192, 80%, 65%)" />
<circle cx="333.19" cy="217.34" r="2" fill="hsl(200, 80%, 65%)" />
<circle cx="225.07" cy="337.00" r="3" fill="hsl(208, 80%, 65%)" />
<circle cx="223.96" cy="175.03" r="4" fill="hsl(216, 80%, 65%)" />
<circle cx="334.65" cy="294.22" r="5" fill="hsl(224, 80%, 65%)" />
<circle cx="171.83" cy="281.05" r="6" fill="hsl(232, 80%, 65%)" />
<circle cx="301.33" cy="180.36" r="2" fill="hsl(240, 80%, 65%)" />
<circle cx="273.75" cy="342.76" r="3" fill="hsl(248, 80%, 65%)" />
<circle cx="184.02" cy="203.80" r="4" fill="hsl(256, 80%, 65%)" />
<circle cx="344.70" cy="245.82" r="5" fill="hsl(264, 80%, 65%)" />
<circle cx="197.23" cy="323.69" r="6" fill="hsl(272, 80%, 65%)" />
<circle cx="253.60" cy="166.03" r="2" fill="hsl(280, 80%, 65%)" />
<circle cx="318.80" cy="320.98" r="3" fill="hsl(288, 80%, 65%)" />
<circle cx="165.45" cy="250.48" r="4" fill="hsl(296, 80%, 65%)" />
<circle cx="326.77" cy="198.68" r="5" fill="hsl(304, 80%, 65%)" />
<circle cx="242.48" cy="346.43" r="6" fill="hsl(312, 80%, 65%)" />
<circle cx="204.69" cy="179.90" r="2" fill="hsl(320, 80%, 65%)" />
<circle cx="345.59" cy="277.54" r="3" fill="hsl(328, 80%, 65%)" />
<circle cx="175.09" cy="300.80" r="4" fill="hsl(336, 80%, 65%)" />
<circle cx="285.51" cy="167.97" r="5" fill="hsl(344, 80%, 65%)" />
<circle cx="293.84" cy="341.16" r="6" fill="hsl(352, 80%, 65%)" />
<circle cx="170.25" cy="218.63" r="2" fill="hsl(0, 80%, 65%)" />
<circle cx="344.80" cy="225.52" r="3" fill="hsl(8, 80%, 65%)" />
<circle cx="210.95" cy="338.76" r="4" fill="hsl(16, 80%, 65%)" />
<circle cx="233.24" cy="164.21" r="5" fill="hsl(24, 80%, 65%)" />
<circle cx="335.07" cy="308.49" r="6" fill="hsl(32, 80%, 65%)" />
<circle cx="161.90" cy="270.76" r="2" fill="hsl(40, 80%, 65%)" />
<circle cx="315.63" cy="181.29" r="3" fill="hsl(48, 80%, 65%)" />
<circle cx="262.52" cy="351.71" r="4" fill="hsl(56, 80%, 65%)" />
<circle cx="186.30" cy="189.60" r="5" fill="hsl(64, 80%, 65%)" />
<circle cx="352.58" cy="257.88" r="6" fill="hsl(72, 80%, 65%)" />
<circle cx="183.26" cy="320.07" r="2" fill="hsl(80, 80%, 65%)" />
<circle cx="266.39" cy="159.29" r="3" fill="hsl(88, 80%, 65%)" />
<circle cx="313.86" cy="334.60" r="4" fill="hsl(96, 80%, 65%)" />
<circle cx="159.91" cy="237.06" r="5" fill="hsl(104, 80%, 65%)" />
<circle cx="339.93" cy="204.89" r="6" fill="hsl(112, 80%, 65%)" />
<circle cx="228.55" cy="350.70" r="2" fill="hsl(120, 80%, 65%)" />
<circle cx="212.13" cy="167.34" r="3" fill="hsl(128, 80%, 65%)" />
<circle cx="348.55" cy="291.86" r="4" fill="hsl(136, 80%, 65%)" />
<circle cx="163.23" cy="292.19" r="5" fill="hsl(144, 80%, 65%)" />
<circle cx="300.10" cy="166.36" r="6" fill="hsl(152, 80%, 65%)" />
<circle cx="284.12" cy="352.20" r="2" fill="hsl(160, 80%, 65%)" />
<circle cx="170.01" cy="203.90" r="3" fill="hsl(168, 80%, 65%)" />
<circle cx="354.92" cy="236.27" r="4" fill="hsl(176, 80%, 65%)" />
<circle cx="196.20" cy="337.63" r="5" fill="hsl(184, 80%, 65%)" />
<circle cx="244.92" cy="155.10" r="6" fill="hsl(192, 80%, 65%)" />
<circle cx="332.57" cy="323.13" r="2" fill="hsl(200, 80%, 65%)" />
<circle cx="153.88" cy="258.23" r="3" fill="hsl(208, 80%, 65%)" />
<circle cx="330.02" cy="185.16" r="4" fill="hsl(216, 80%, 65%)" />
<circle cx="249.25" cy="358.56" r="5" fill="hsl(224, 80%, 65%)" />
<circle cx="191.50" cy="175.57" r="6" fill="hsl(232, 80%, 65%)" />
<circle cx="358.19" cy="271.79" r="2" fill="hsl(240, 80%, 65%)" />
<circle cx="169.72" cy="313.57" r="3" fill="hsl(248, 80%, 65%)" />
<circle cx="280.81" cy="154.97" r="4" fill="hsl(256, 80%, 65%)" />
<circle cx="306.10" cy="347.53" r="5" fill="hsl(264, 80%, 65%)" />
<circle cx="156.94" cy="222.25" r="6" fill="hsl(272, 80%, 65%)" />
<circle cx="352.12" cy="213.84" r="2" fill="hsl(280, 80%, 65%)" />
<circle cx="213.47" cy="352.30" r="3" fill="hsl(288, 80%, 65%)" />
<circle cx="222.21" cy="155.98" r="4" fill="hsl(296, 80%, 65%)" />
<circle cx="348.75" cy="307.08" r="5" fill="hsl(304, 80%, 65%)" />
<circle cx="152.81" cy="281.06" r="6" fill="hsl(312, 80%, 65%)" />
<circle cx="315.33" cy="167.57" r="2" fill="hsl(320, 80%, 65%)" />
<circle cx="272.03" cy="361.59" r="3" fill="hsl(328, 80%, 65%)" />
<circle cx="172.62" cy="188.78" r="4" fill="hsl(336, 80%, 65%)" />
<circle cx="363.19" cy="249.22" r="5" fill="hsl(344, 80%, 65%)" />
<circle cx="181.33" cy="333.62" r="6" fill="hsl(352, 80%, 65%)" />
<circle cx="258.63" cy="148.03" r="2" fill="hsl(0, 80%, 65%)" />
<circle cx="327.19" cy="337.62" r="3" fill="hsl(8, 80%, 65%)" />
<circle cx="148.08" cy="243.87" r="4" fill="hsl(16, 80%, 65%)" />
<circle cx="344.01" cy="191.87" r="5" fill="hsl(24, 80%, 65%)" />
<circle cx="234.36" cy="363.03" r="6" fill="hsl(32, 80%, 65%)" />
<circle cx="199.50" cy="162.21" r="2" fill="hsl(40, 80%, 65%)" />
<circle cx="361.30" cy="287.08" r="3" fill="hsl(48, 80%, 65%)" />
<circle cx="157.10" cy="304.34" r="4" fill="hsl(56, 80%, 65%)" />
<circle cx="296.38" cy="153.27" r="5" fill="hsl(64, 80%, 65%)" />
<circle cx="295.72" cy="359.30" r="6" fill="hsl(72, 80%, 65%)" />
<circle cx="156.67" cy="206.53" r="2" fill="hsl(80, 80%, 65%)" />
<circle cx="362.94" cy="225.30" r="3" fill="hsl(88, 80%, 65%)" />
<circle cx="197.73" cy="351.12" r="4" fill="hsl(96, 80%, 65%)" />
<circle cx="234.66" cy="146.22" r="5" fill="hsl(104, 80%, 65%)" />
<circle cx="346.13" cy="322.71" r="6" fill="hsl(112, 80%, 65%)" />
<circle cx="144.20" cy="267.72" r="2" fill="hsl(120, 80%, 65%)" />
<circle cx="330.71" cy="171.62" r="3" fill="hsl(128, 80%, 65%)" />
<circle cx="257.91" cy="368.97" r="4" fill="hsl(136, 80%, 65%)" />
<circle cx="178.08" cy="173.78" r="5" fill="hsl(144, 80%, 65%)" />
<circle cx="369.28" cy="264.01" r="6" fill="hsl(152, 80%, 65%)" />
<circle cx="166.84" cy="326.79" r="2" fill="hsl(160, 80%, 65%)" />
<circle cx="273.97" cy="143.29" r="3" fill="hsl(168, 80%, 65%)" />
<circle cx="319.04" cy="351.48" r="4" fill="hsl(176, 80%, 65%)" />
<circle cx="144.75" cy="228.10" r="5" fill="hsl(184, 80%, 65%)" />
<circle cx="357.13" cy="201.28" r="6" fill="hsl(192, 80%, 65%)" />
<circle cx="218.30" cy="364.92" r="2" fill="hsl(200, 80%, 65%)" />
<circle cx="210.11" cy="149.96" r="3" fill="hsl(208, 80%, 65%)" />
<circle cx="361.72" cy="303.31" r="4" fill="hsl(216, 80%, 65%)" />
<circle cx="145.82" cy="292.62" r="5" fill="hsl(224, 80%, 65%)" />
<circle cx="312.64" cy="154.33" r="6" fill="hsl(232, 80%, 65%)" />
<circle cx="282.98" cy="369.50" r="2" fill="hsl(240, 80%, 65%)" />
<circle cx="159.21" cy="190.38" r="3" fill="hsl(248, 80%, 65%)" />
<circle cx="371.97" cy="238.97" r="4" fill="hsl(256, 80%, 65%)" />
<circle cx="181.82" cy="347.11" r="5" fill="hsl(264, 80%, 65%)" />
<circle cx="249.14" cy="138.44" r="6" fill="hsl(272, 80%, 65%)" />
<circle cx="340.67" cy="338.25" r="2" fill="hsl(280, 80%, 65%)" />
<circle cx="137.74" cy="252.54" r="3" fill="hsl(288, 80%, 65%)" />
<circle cx="345.75" cy="178.49" r="4" fill="hsl(296, 80%, 65%)" />
<circle cx="242.15" cy="374.05" r="5" fill="hsl(304, 80%, 65%)" />
<circle cx="186.31" cy="159.38" r="6" fill="hsl(312, 80%, 65%)" />
<circle cx="372.92" cy="280.23" r="2" fill="hsl(320, 80%, 65%)" />
<circle cx="153.19" cy="317.25" r="3" fill="hsl(328, 80%, 65%)" />
<circle cx="290.51" cy="141.13" r="4" fill="hsl(336, 80%, 65%)" />
<circle cx="308.26" cy="364.26" r="5" fill="hsl(344, 80%, 65%)" />
<circle cx="144.08" cy="211.37" r="6" fill="hsl(352, 80%, 65%)" />
<circle cx="368.92" cy="213.21" r="2" fill="hsl(0, 80%, 65%)" />
<circle cx="201.52" cy="364.06" r="3" fill="hsl(8, 80%, 65%)" />
<circle cx="223.10" cy="139.26" r="4" fill="hsl(16, 80%, 65%)" />
<circle cx="359.34" cy="320.00" r="5" fill="hsl(24, 80%, 65%)" />
<circle cx="136.31" cy="278.66" r="6" fill="hsl(32, 80%, 65%)" />
<circle cx="329.11" cy="158.22" r="2" fill="hsl(40, 80%, 65%)" />
<circle cx="268.17" cy="377.75" r="3" fill="hsl(48, 80%, 65%)" />
<circle cx="164.59" cy="174.27" r="4" fill="hsl(56, 80%, 65%)" />
<circle cx="378.87" cy="254.52" r="5" fill="hsl(64, 80%, 65%)" />
<circle cx="166.21" cy="340.27" r="6" fill="hsl(72, 80%, 65%)" />
<circle cx="265.31" cy="132.94" r="2" fill="hsl(80, 80%, 65%)" />
<circle cx="332.42" cy="353.23" r="3" fill="hsl(88, 80%, 65%)" />
<circle cx="133.71" cy="235.89" r="4" fill="hsl(96, 80%, 65%)" />
<circle cx="359.98" cy="188.08" r="5" fill="hsl(104, 80%, 65%)" />
<circle cx="225.14" cy="376.57" r="6" fill="hsl(112, 80%, 65%)" />
<circle cx="197.19" cy="146.02" r="2" fill="hsl(120, 80%, 65%)" />
<circle cx="373.90" cy="297.45" r="3" fill="hsl(128, 80%, 65%)" />
</svg>
