<svg xmlns="http://www.w3.org/2000/svg" width="512" height="512" viewBox="0 0 512 512">
<rect width="100%" height="100%" fill="#0b1020"/>
<circle cx="349" cy="118" r="41" fill="#f8f3c9" opacity="0.95" />
<circle cx="286.0" cy="37.0" r="2.1" fill="white" />
<circle cx="158.0" cy="44.0" r="2.0" fill="white" />
<circle cx="329.0" cy="180.0" r="3.4" fill="white" />
<circle cx="240.0" cy="130.0" r="3.4" fill="white" />
<circle cx="306.0" cy="180.0" r="2.6" fill="white" />
<circle cx="425.0" cy="120.0" r="3.2" fill="white" />
<circle cx="445.0" cy="82.0" r="3.1" fill="white" />
<path d="M 20 430 C 127 413, 200 448, 315 429 S 450 391, 512 421" stroke="#5dade2" stroke-width="5" fill="none" opacity="0.85" />
<line x1="0" y1="387" x2="512" y2="387" stroke="#445566" stroke-width="4" />
<polygon points="155,359 195,299 235,319 255,289 275,309 287,349 255,371 205,375" fill="#1e1e1e" />
<polygon points="230,299 243,277 253,301" fill="#1e1e1e" />
<line x1="285" y1="344" x2="315" y2="319" stroke="#1e1e1e" stroke-width="6" />
</svg>
