<svg xmlns="http://www.w3.org/2000/svg" width="512" height="512" viewBox="0 0 512 512">
<rect width="100%" height="100%" fill="#0b1020"/>
<circle cx="439" cy="101" r="42" fill="#f8f3c9" opacity="0.95" />
<circle cx="229.0" cy="88.0" r="1.5" fill="white" />
<circle cx="74.0" cy="119.0" r="3.0" fill="white" />
<circle cx="182.0" cy="69.0" r="1.6" fill="white" />
<circle cx="190.0" cy="122.0" r="1.8" fill="white" />
<circle cx="96.0" cy="140.0" r="3.1" fill="white" />
<circle cx="200.0" cy="35.0" r="1.6" fill="white" />
<circle cx="192.0" cy="165.0" r="2.4" fill="white" />
<path d="M 20 430 C 140 415, 169 458, 301 440 S 450 379, 512 409" stroke="#5dade2" stroke-width="5" fill="none" opacity="0.85" />
<line x1="0" y1="409" x2="512" y2="409" stroke="#445566" stroke-width="4" />
<polygon points="205,350 245,290 285,310 305,280 325,300 337,340 305,362 255,366" fill="#1e1e1e" />
<polygon points="280,290 293,268 303,292" fill="#1e1e1e" />
<line x1="335" y1="335" x2="365" y2="310" stroke="#1e1e1e" stroke-width="6" />
</svg>
