<svg xmlns="http://www.w3.org/2000/svg" width="512" height="512" viewBox="0 0 512 512">
<rect width="100%" height="100%" fill="#0b1020"/>
<circle cx="401" cy="107" r="46" fill="#f8f3c9" opacity="0.95" />
<circle cx="24.0" cy="50.0" r="2.6" fill="white" />
<circle cx="388.0" cy="45.0" r="3.1" fill="white" />
<circle cx="480.0" cy="94.0" r="2.4" fill="white" />
<circle cx="193.0" cy="132.0" r="2.1" fill="white" />
<circle cx="127.0" cy="82.0" r="2.4" fill="white" />
<circle cx="434.0" cy="46.0" r="2.0" fill="white" />
<circle cx="416.0" cy="90.0" r="2.0" fill="white" />
<circle cx="475.0" cy="137.0" r="2.7" fill="white" />
<circle cx="140.0" cy="117.0" r="1.5" fill="white" />
<circle cx="347.0" cy="45.0" r="2.8" fill="white" />
<path d="M 20 430 C 109 415, 186 451, 298 420 S 450 394, 512 424" stroke="#5dade2" stroke-width="5" fill="none" opacity="0.85" />
<line x1="0" y1="396" x2="512" y2="396" stroke="#445566" stroke-width="4" />
<polygon points="141,363 181,303 221,323 241,293 261,313 273,353 241,375 191,379" fill="#1e1e1e" />
<polygon points="216,303 229,281 239,305" fill="#1e1e1e" />
<line x1="271" y1="348" x2="301" y2="323" stroke="#1e1e1e" stroke-width="6" />
</svg>
