<svg xmlns="http://www.w3.org/2000/svg" width="512" height="512" viewBox="0 0 512 512">
<rect width="100%" height="100%" fill="#0b1020"/>
<circle cx="344" cy="105" r="47" fill="#f8f3c9" opacity="0.95" />
<circle cx="152.0" cy="29.0" r="2.3" fill="white" />
<circle cx="269.0" cy="87.0" r="2.5" fill="white" />
<circle cx="54.0" cy="152.0" r="2.8" fill="white" />
<circle cx="123.0" cy="72.0" r="2.5" fill="white" />
<circle cx="26.0" cy="62.0" r="3.0" fill="white" />
<circle cx="48.0" cy="46.0" r="2.9" fill="white" />
<circle cx="93.0" cy="69.0" r="1.7" fill="white" />
<path d="M 20 430 C 117 421, 185 446, 299 432 S 450 378, 512 408" stroke="#5dade2" stroke-width="5" fill="none" opacity="0.85" />
<line x1="0" y1="392" x2="512" y2="392" stroke="#445566" stroke-width="4" />
<polygon points="162,357 202,297 242,317 262,287 282,307 294,347 262,369 212,373" fill="#1e1e1e" />
<polygon points="237,297 250,275 260,299" fill="#1e1e1e" />
<line x1="292" y1="342" x2="322" y2="317" stroke="#1e1e1e" stroke-width="6" />
</svg>
