<svg xmlns="http://www.w3.org/2000/svg" width="512" height="512" viewBox="0 0 512 512">
<rect width="100%" height="100%" fill="#0b1020"/>
<circle cx="418" cy="106" r="46" fill="#f8f3c9" opacity="0.95" />
<circle cx="84.0" cy="35.0" r="1.9" fill="white" />
<circle cx="333.0" cy="132.0" r="3.0" fill="white" />
<circle cx="147.0" cy="99.0" r="3.4" fill="white" />
<circle cx="199.0" cy="53.0" r="2.2" fill="white" />
<circle cx="412.0" cy="144.0" r="1.5" fill="white" />
<circle cx="328.0" cy="155.0" r="1.8" fill="white" />
<circle cx="254.0" cy="28.0" r="2.4" fill="white" />
<circle cx="40.0" cy="47.0" r="2.0" fill="white" />
<circle cx="391.0" cy="179.0" r="2.1" fill="white" />
<circle cx="400.0" cy="163.0" r="1.8" fill="white" />
<path d="M 20 430 C 134 424, 181 451, 316 439 S 450 388, 512 418" stroke="#5dade2" stroke-width="7" fill="none" opacity="0.85" />
<line x1="0" y1="388" x2="512" y2="388" stroke="#445566" stroke-width="3" />
<polygon points="175,357 215,297 255,317 275,287 295,307 307,347 275,369 225,373" fill="#1e1e1e" />
<polygon points="250,297 263,275 273,299" fill="#1e1e1e" />
<line x1="305" y1="342" x2="335" y2="317" stroke="#1e1e1e" stroke-width="6" />
</svg>
