<svg xmlns="http://www.w3.org/2000/svg" width="512" height="512" viewBox="0 0 512 512">
<rect width="100%" height="100%" fill="#0b1020"/>
<circle cx="372" cy="125" r="46" fill="#f8f3c9" opacity="0.95" />
<circle cx="447.0" cy="149.0" r="1.6" fill="white" />
<circle cx="490.0" cy="80.0" r="3.5" fill="white" />
<circle cx="352.0" cy="176.0" r="2.5" fill="white" />
<circle cx="130.0" cy="56.0" r="3.5" fill="white" />
<circle cx="187.0" cy="50.0" r="2.1" fill="white" />
<circle cx="95.0" cy="164.0" r="1.9" fill="white" />
<circle cx="482.0" cy="117.0" r="1.6" fill="white" />
<path d="M 20 430 C 118 423, 199 443, 299 440 S 450 392, 512 422" stroke="#5dade2" stroke-width="6" fill="none" opacity="0.85" />
<line x1="0" y1="400" x2="512" y2="400" stroke="#445566" stroke-width="3" />
<polygon points="219,364 259,304 299,324 319,294 339,314 351,354 319,376 269,380" fill="#1e1e1e" />
<polygon points="294,304 307,282 317,306" fill="#1e1e1e" />
<line x1="349" y1="349" x2="379" y2="324" stroke="#1e1e1e" stroke-width="6" />
</svg>
