<svg xmlns="http://www.w3.org/2000/svg" width="512" height="512" viewBox="0 0 512 512">
<rect width="100%" height="100%" fill="#0b1020"/>
<circle cx="418" cy="88" r="45" fill="#f8f3c9" opacity="0.95" />
<circle cx="219.0" cy="119.0" r="2.3" fill="white" />
<circle cx="183.0" cy="23.0" r="3.0" fill="white" />
<circle cx="312.0" cy="29.0" r="3.2" fill="white" />
<circle cx="456.0" cy="178.0" r="3.0" fill="white" />
<circle cx="119.0" cy="97.0" r="2.9" fill="white" />
<circle cx="165.0" cy="49.0" r="1.6" fill="white" />
<circle cx="46.0" cy="174.0" r="1.5" fill="white" />
<circle cx="426.0" cy="122.0" r="3.0" fill="white" />
<circle cx="145.0" cy="140.0" r="1.7" fill="white" />
<circle cx="400.0" cy="163.0" r="1.9" fill="white" />
<circle cx="191.0" cy="128.0" r="3.5" fill="white" />
<circle cx="47.0" cy="37.0" r="1.8" fill="white" />
<circle cx="335.0" cy="119.0" r="2.4" fill="white" />
<path d="M 20 430 C 109 423, 194 456, 300 430 S 450 378, 512 408" stroke="#5dade2" stroke-width="8" fill="none" opacity="0.85" />
<line x1="0" y1="412" x2="512" y2="412" stroke="#445566" stroke-width="4" />
<polygon points="216,353 256,293 296,313 316,283 336,303 348,343 316,365 266,369" fill="#1e1e1e" />
<polygon points="291,293 304,271 314,295" fill="#1e1e1e" />
<line x1="346" y1="338" x2="376" y2="313" stroke="#1e1e1e" stroke-width="6" />
</svg>
