<svg xmlns="http://www.w3.org/2000/svg" width="512" height="512" viewBox="0 0 512 512">
<rect width="100%" height="100%" fill="#0b1020"/>
<circle cx="351" cy="110" r="42" fill="#f8f3c9" opacity="0.95" />
<circle cx="261.0" cy="22.0" r="2.7" fill="white" />
<circle cx="277.0" cy="69.0" r="1.5" fill="white" />
<circle cx="443.0" cy="54.0" r="2.4" fill="white" />
<circle cx="132.0" cy="174.0" r="2.1" fill="white" />
<circle cx="415.0" cy="149.0" r="3.0" fill="white" />
<circle cx="75.0" cy="105.0" r="3.4" fill="white" />
<circle cx="98.0" cy="153.0" r="2.0" fill="white" />
<circle cx="257.0" cy="94.0" r="1.7" fill="white" />
<circle cx="281.0" cy="57.0" r="2.8" fill="white" />
<circle cx="23.0" cy="107.0" r="3.0" fill="white" />
<circle cx="465.0" cy="87.0" r="2.2" fill="white" />
<circle cx="106.0" cy="124.0" r="2.5" fill="white" />
<circle cx="272.0" cy="143.0" r="2.8" fill="white" />
<circle cx="119.0" cy="108.0" r="2.1" fill="white" />
<circle cx="359.0" cy="175.0" r="2.9" fill="white" />
<path d="M 20 430 C 111 416, 194 447, 303 438 S 450 379, 512 409" stroke="#5dade2" stroke-width="8" fill="none" opacity="0.85" />
<line x1="0" y1="415" x2="512" y2="415" stroke="#445566" stroke-width="3" />
<polygon points="141,356 181,296 221,316 241,286 261,306 273,346 241,368 191,372" fill="#1e1e1e" />
<polygon points="216,296 229,274 239,298" fill="#1e1e1e" />
<line x1="271" y1="341" x2="301" y2="316" stroke="#1e1e1e" stroke-width="6" />
</svg>
