<svg xmlns="http://www.w3.org/2000/svg" width="512" height="512" viewBox="0 0 512 512">
<rect width="100%" height="100%" fill="#0b1020"/>
<circle cx="449" cy="129" r="45" fill="#f8f3c9" opacity="0.95" />
<circle cx="73.0" cy="41.0" r="2.7" fill="white" />
<circle cx="86.0" cy="146.0" r="2.1" fill="white" />
<circle cx="451.0" cy="157.0" r="3.2" fill="white" />
<circle cx="283.0" cy="115.0" r="3.4" fill="white" />
<circle cx="410.0" cy="78.0" r="1.9" fill="white" />
<circle cx="165.0" cy="121.0" r="1.9" fill="white" />
<circle cx="396.0" cy="29.0" r="1.6" fill="white" />
<circle cx="374.0" cy="75.0" r="1.8" fill="white" />
<circle cx="216.0" cy="156.0" r="2.4" fill="white" />
<circle cx="297.0" cy="48.0" r="3.2" fill="white" />
<circle cx="372.0" cy="21.0" r="2.4" fill="white" />
<path d="M 20 430 C 112 420, 189 449, 288 421 S 450 382, 512 412" stroke="#5dade2" stroke-width="6" fill="none" opacity="0.85" />
<line x1="0" y1="387" x2="512" y2="387" stroke="#445566" stroke-width="3" />
<polygon points="211,356 251,296 291,316 311,286 331,306 343,346 311,368 261,372" fill="#1e1e1e" />
<polygon points="286,296 299,274 309,298" fill="#1e1e1e" />
<line x1="341" y1="341" x2="371" y2="316" stroke="#1e1e1e" stroke-width="6" />
</svg>
