<svg xmlns="http://www.w3.org/2000/svg" width="512" height="512" viewBox="0 0 512 512">
<rect width="100%" height="100%" fill="#0b1020"/>
<circle cx="454" cy="105" r="53" fill="#f8f3c9" opacity="0.95" />
<circle cx="202.0" cy="129.0" r="3.2" fill="white" />
<circle cx="145.0" cy="53.0" r="2.7" fill="white" />
<circle cx="170.0" cy="70.0" r="2.6" fill="white" />
<circle cx="315.0" cy="102.0" r="2.2" fill="white" />
<circle cx="166.0" cy="97.0" r="2.5" fill="white" />
<circle cx="322.0" cy="119.0" r="3.4" fill="white" />
<circle cx="295.0" cy="176.0" r="3.3" fill="white" />
<circle cx="411.0" cy="88.0" r="3.2" fill="white" />
<circle cx="67.0" cy="168.0" r="3.2" fill="white" />
<circle cx="168.0" cy="35.0" r="3.3" fill="white" />
<circle cx="483.0" cy="97.0" r="1.9" fill="white" />
<circle cx="443.0" cy="86.0" r="2.2" fill="white" />
<path d="M 20 430 C 106 423, 161 459, 315 421 S 450 405, 512 435" stroke="#5dade2" stroke-width="8" fill="none" opacity="0.85" />
<line x1="0" y1="397" x2="512" y2="397" stroke="#445566" stroke-width="4" />
<polygon points="162,363 202,303 242,323 262,293 282,313 294,353 262,375 212,379" fill="#1e1e1e" />
<polygon points="237,303 250,281 260,305" fill="#1e1e1e" />
<line x1="292" y1="348" x2="322" y2="323" stroke="#1e1e1e" stroke-width="6" />
</svg>
