<svg xmlns="http://www.w3.org/2000/svg" width="512" height="512" viewBox="0 0 512 512">
<rect width="100%" height="100%" fill="#0b1020"/>
<circle cx="395" cy="122" r="41" fill="#f8f3c9" opacity="0.95" />
<circle cx="183.0" cy="92.0" r="2.6" fill="white" />
<circle cx="153.0" cy="98.0" r="2.4" fill="white" />
<circle cx="367.0" cy="171.0" r="2.0" fill="white" />
<circle cx="205.0" cy="93.0" r="3.5" fill="white" />
<circle cx="315.0" cy="75.0" r="1.6" fill="white" />
<circle cx="407.0" cy="118.0" r="2.9" fill="white" />
<circle cx="252.0" cy="72.0" r="3.2" fill="white" />
<circle cx="217.0" cy="38.0" r="3.1" fill="white" />
<circle cx="119.0" cy="117.0" r="1.6" fill="white" />
<circle cx="362.0" cy="101.0" r="2.4" fill="white" />
<circle cx="257.0" cy="159.0" r="1.9" fill="white" />
<circle cx="254.0" cy="54.0" r="2.1" fill="white" />
<circle cx="186.0" cy="72.0" r="1.8" fill="white" />
<circle cx="139.0" cy="65.0" r="3.4" fill="white" />
<circle cx="221.0" cy="143.0" r="1.5" fill="white" />
<path d="M 20 430 C 122 427, 193 442, 315 429 S 450 388, 512 418" stroke="#5dade2" stroke-width="8" fill="none" opacity="0.85" />
<line x1="0" y1="403" x2="512" y2="403" stroke="#445566" stroke-width="4" />
<polygon points="143,365 183,305 223,325 243,295 263,315 275,355 243,377 193,381" fill="#1e1e1e" />
<polygon points="218,305 231,283 241,307" fill="#1e1e1e" />
<line x1="273" y1="350" x2="303" y2="325" stroke="#1e1e1e" stroke-width="6" />
</svg>
