<svg xmlns="http://www.w3.org/2000/svg" width="512" height="512" viewBox="0 0 512 512">
<rect width="100%" height="100%" fill="black"/>
<circle cx="256.00" cy="256.00" r="2" fill="hsl(0, 80%, 65%)" />
<circle cx="251.24" cy="260.36" r="3" fill="hsl(6, 80%, 65%)" />
<circle cx="256.80" cy="246.91" r="4" fill="hsl(12, 80%, 65%)" />
<circle cx="262.80" cy="264.86" r="5" fill="hsl(18, 80%, 65%)" />
<circle cx="243.30" cy="253.75" r="6" fill="hsl(24, 80%, 65%)" />
<circle cx="268.17" cy="248.26" r="2" fill="hsl(30, 80%, 65%)" />
<circle cx="251.90" cy="271.26" r="3" fill="hsl(36, 80%, 65%)" />
<circle cx="248.14" cy="240.86" r="4" fill="hsl(42, 80%, 65%)" />
<circle cx="273.13" cy="262.26" r="5" fill="hsl(48, 80%, 65%)" />
<circle cx="238.12" cy="263.38" r="6" fill="hsl(54, 80%, 65%)" />
<circle cx="264.64" cy="237.53" r="2" fill="hsl(60, 80%, 65%)" />
<circle cx="262.40" cy="276.41" r="3" fill="hsl(66, 80%, 65%)" />
<circle cx="236.67" cy="244.80" r="4" fill="hsl(72, 80%, 65%)" />
<circle cx="278.71" cy="251.01" r="5" fill="hsl(78, 80%, 65%)" />
<circle cx="242.12" cy="275.74" r="6" fill="hsl(84, 80%, 65%)" />
<circle cx="252.79" cy="231.23" r="2" fill="hsl(90, 80%, 65%)" />
<circle cx="275.73" cy="272.62" r="3" fill="hsl(96, 80%, 65%)" />
<circle cx="229.43" cy="257.10" r="4" fill="hsl(102, 80%, 65%)" />
<circle cx="275.39" cy="236.70" r="5" fill="hsl(108, 80%, 65%)" />
<circle cx="254.70" cy="284.08" r="6" fill="hsl(114, 80%, 65%)" />
<circle cx="237.52" cy="233.86" r="2" fill="hsl(120, 80%, 65%)" />
<circle cx="285.29" cy="259.94" r="3" fill="hsl(126, 80%, 65%)" />
<circle cx="231.17" cy="273.28" r="4" fill="hsl(132, 80%, 65%)" />
<circle cx="262.79" cy="225.83" r="5" fill="hsl(138, 80%, 65%)" />
<circle cx="271.71" cy="283.41" r="6" fill="hsl(144, 80%, 65%)" />
<circle cx="225.28" cy="246.20" r="2" fill="hsl(150, 80%, 65%)" />
<circle cx="285.85" cy="242.21" r="3" fill="hsl(156, 80%, 65%)" />
<circle cx="243.06" cy="286.91" r="4" fill="hsl(162, 80%, 65%)" />
<circle cx="244.45" cy="223.89" r="5" fill="hsl(168, 80%, 65%)" />
<circle cx="286.74" cy="272.16" r="6" fill="hsl(174, 80%, 65%)" />
<circle cx="221.84" cy="265.00" r="2" fill="hsl(180, 80%, 65%)" />
<circle cx="275.42" cy="225.80" r="3" fill="hsl(186, 80%, 65%)" />
<circle cx="262.18" cy="291.95" r="4" fill="hsl(192, 80%, 65%)" />
<circle cx="226.71" cy="233.32" r="5" fill="hsl(198, 80%, 65%)" />
<circle cx="293.48" cy="252.90" r="6" fill="hsl(204, 80%, 65%)" />
<circle cx="230.09" cy="284.01" r="2" fill="hsl(210, 80%, 65%)" />
<circle cx="256.19" cy="217.31" r="3" fill="hsl(216, 80%, 65%)" />
<circle cx="282.36" cy="285.05" r="4" fill="hsl(222, 80%, 65%)" />
<circle cx="216.41" cy="252.33" r="5" fill="hsl(228, 80%, 65%)" />
<circle cx="288.08" cy="231.65" r="6" fill="hsl(234, 80%, 65%)" />
<circle cx="248.70" cy="296.13" r="2" fill="hsl(240, 80%, 65%)" />
<circle cx="234.01" cy="221.05" r="3" fill="hsl(246, 80%, 65%)" />
<circle cx="296.31" cy="267.05" r="4" fill="hsl(252, 80%, 65%)" />
<circle cx="218.38" cy="275.31" r="5" fill="hsl(258, 80%, 65%)" />
<circle cx="270.87" cy="215.89" r="6" fill="hsl(264, 80%, 65%)" />
<circle cx="272.31" cy="296.07" r="2" fill="hsl(270, 80%, 65%)" />
<circle cx="216.47" cy="237.27" r="3" fill="hsl(276, 80%, 65%)" />
<circle cx="298.25" cy="242.97" r="4" fill="hsl(282, 80%, 65%)" />
<circle cx="233.41" cy="294.55" r="5" fill="hsl(288, 80%, 65%)" />
<circle cx="246.52" cy="211.86" r="6" fill="hsl(294, 80%, 65%)" />
<circle cx="293.18" cy="282.41" r="2" fill="hsl(300, 80%, 65%)" />
<circle cx="210.30" cy="261.70" r="3" fill="hsl(306, 80%, 65%)" />
<circle cx="286.14" cy="220.59" r="4" fill="hsl(312, 80%, 65%)" />
<circle cx="257.71" cy="302.92" r="5" fill="hsl(318, 80%, 65%)" />
<circle cx="222.74" cy="222.25" r="6" fill="hsl(324, 80%, 65%)" />
<circle cx="303.77" cy="258.44" r="2" fill="hsl(330, 80%, 65%)" />
<circle cx="218.80" cy="286.74" r="3" fill="hsl(336, 80%, 65%)" />
<circle cx="262.73" cy="207.78" r="4" fill="hsl(342, 80%, 65%)" />
<circle cx="283.85" cy="296.45" r="5" fill="hsl(348, 80%, 65%)" />
<circle cx="207.73" cy="244.89" r="6" fill="hsl(354, 80%, 65%)" />
<circle cx="299.46" cy="231.38" r="2" fill="hsl(0, 80%, 65%)" />
<circle cx="240.46" cy="303.91" r="3" fill="hsl(6, 80%, 65%)" />
<circle cx="234.93" cy="209.80" r="4" fill="hsl(12, 80%, 65%)" />
<circle cx="303.12" cy="275.99" r="5" fill="hsl(18, 80%, 65%)" />
<circle cx="207.37" cy="273.22" r="6" fill="hsl(24, 80%, 65%)" />
<circle cx="280.41" cy="210.09" r="2" fill="hsl(30, 80%, 65%)" />
<circle cx="269.11" cy="306.73" r="3" fill="hsl(36, 80%, 65%)" />
<circle cx="211.74" cy="227.23" r="4" fill="hsl(42, 80%, 65%)" />
<circle cx="308.46" cy="247.25" r="5" fill="hsl(48, 80%, 65%)" />
<circle cx="222.99" cy="298.19" r="6" fill="hsl(54, 80%, 65%)" />
<circle cx="251.81" cy="202.21" r="2" fill="hsl(60, 80%, 65%)" />
<circle cx="295.71" cy="293.10" r="3" fill="hsl(66, 80%, 65%)" />
<circle cx="201.28" cy="255.47" r="4" fill="hsl(72, 80%, 65%)" />
<circle cx="296.99" cy="219.18" r="5" fill="hsl(78, 80%, 65%)" />
<circle cx="250.61" cy="311.21" r="6" fill="hsl(84, 80%, 65%)" />
<circle cx="222.45" cy="211.35" r="2" fill="hsl(90, 80%, 65%)" />
<circle cx="311.26" cy="266.33" r="3" fill="hsl(96, 80%, 65%)" />
<circle cx="207.96" cy="285.91" r="4" fill="hsl(102, 80%, 65%)" />
<circle cx="271.32" cy="201.14" r="5" fill="hsl(108, 80%, 65%)" />
<circle cx="281.92" cy="307.12" r="6" fill="hsl(114, 80%, 65%)" />
<circle cx="202.01" cy="235.69" r="2" fill="hsl(120, 80%, 65%)" />
<circle cx="309.86" cy="234.38" r="3" fill="hsl(126, 80%, 65%)" />
<circle cx="230.73" cy="308.65" r="4" fill="hsl(132, 80%, 65%)" />
<circle cx="238.96" cy="199.77" r="5" fill="hsl(138, 80%, 65%)" />
<circle cx="306.85" cy="286.13" r="6" fill="hsl(144, 80%, 65%)" />
<circle cx="197.81" cy="268.20" r="2" fill="hsl(150, 80%, 65%)" />
<circle cx="290.87" cy="207.41" r="3" fill="hsl(156, 80%, 65%)" />
<circle cx="263.15" cy="315.73" r="4" fill="hsl(162, 80%, 65%)" />
<circle cx="210.12" cy="216.56" r="5" fill="hsl(168, 80%, 65%)" />
<circle cx="316.81" cy="254.08" r="6" fill="hsl(174, 80%, 65%)" />
<circle cx="212.21" cy="298.73" r="2" fill="hsl(180, 80%, 65%)" />
<circle cx="259.44" cy="194.58" r="3" fill="hsl(186, 80%, 65%)" />
<circle cx="295.17" cy="303.88" r="4" fill="hsl(192, 80%, 65%)" />
<circle cx="194.45" cy="247.11" r="5" fill="hsl(198, 80%, 65%)" />
<circle cx="307.67" cy="220.79" r="6" fill="hsl(204, 80%, 65%)" />
<circle cx="241.61" cy="317.19" r="2" fill="hsl(210, 80%, 65%)" />
<circle cx="225.12" cy="200.87" r="3" fill="hsl(216, 80%, 65%)" />
<circle cx="316.32" cy="275.89" r="4" fill="hsl(222, 80%, 65%)" />
<circle cx="197.79" cy="282.21" r="5" fill="hsl(228, 80%, 65%)" />
<circle cx="281.35" cy="197.05" r="6" fill="hsl(234, 80%, 65%)" />
<circle cx="277.23" cy="316.89" r="2" fill="hsl(240, 80%, 65%)" />
<circle cx="198.93" cy="225.29" r="3" fill="hsl(246, 80%, 65%)" />
<circle cx="319.14" cy="240.01" r="4" fill="hsl(252, 80%, 65%)" />
<circle cx="220.07" cy="310.70" r="5" fill="hsl(258, 80%, 65%)" />
<circle cx="245.49" cy="191.08" r="6" fill="hsl(264, 80%, 65%)" />
<circle cx="307.85" cy="296.97" r="2" fill="hsl(270, 80%, 65%)" />
<circle cx="189.78" cy="260.84" r="3" fill="hsl(276, 80%, 65%)" />
<circle cx="301.78" cy="207.47" r="4" fill="hsl(282, 80%, 65%)" />
<circle cx="255.02" cy="323.01" r="5" fill="hsl(288, 80%, 65%)" />
<circle cx="211.25" cy="205.69" r="6" fill="hsl(294, 80%, 65%)" />
<circle cx="323.29" cy="262.90" r="2" fill="hsl(300, 80%, 65%)" />
<circle cx="201.48" cy="296.55" r="3" fill="hsl(306, 80%, 65%)" />
<circle cx="268.87" cy="188.97" r="4" fill="hsl(312, 80%, 65%)" />
<circle cx="291.94" cy="314.38" r="5" fill="hsl(318, 80%, 65%)" />
<circle cx="189.77" cy="237.15" r="6" fill="hsl(324, 80%, 65%)" />
<circle cx="317.83" cy="225.03" r="2" fill="hsl(330, 80%, 65%)" />
<circle cx="231.22" cy="320.89" r="3" fill="hsl(336, 80%, 65%)" />
<circle cx="230.33" cy="191.14" r="4" fill="hsl(342, 80%, 65%)" />
<circle cx="319.01" cy="286.62" r="5" fill="hsl(348, 80%, 65%)" />
<circle cx="188.57" cy="276.07" r="6" fill="hsl(354, 80%, 65%)" />
<circle cx="292.31" cy="195.40" r="2" fill="hsl(0, 80%, 65%)" />
<circle cx="270.22" cy="325.50" r="3" fill="hsl(6, 80%, 65%)" />
<circle cx="198.33" cy="214.18" r="4" fill="hsl(12, 80%, 65%)" />
<circle cx="327.06" cy="247.85" r="5" fill="hsl(18, 80%, 65%)" />
<circle cx="208.92" cy="310.23" r="6" fill="hsl(24, 80%, 65%)" />
<circle cx="254.08" cy="183.92" r="2" fill="hsl(30, 80%, 65%)" />
<circle cx="306.31" cy="308.05" r="3" fill="hsl(36, 80%, 65%)" />
<circle cx="183.46" cy="251.58" r="4" fill="hsl(42, 80%, 65%)" />
<circle cx="312.70" cy="210.08" r="5" fill="hsl(48, 80%, 65%)" />
<circle cx="245.17" cy="328.44" r="6" fill="hsl(54, 80%, 65%)" />
<circle cx="214.89" cy="195.03" r="2" fill="hsl(60, 80%, 65%)" />
<circle cx="327.77" cy="273.25" r="3" fill="hsl(66, 80%, 65%)" />
<circle cx="191.18" cy="291.89" r="4" fill="hsl(72, 80%, 65%)" />
<circle cx="279.64" cy="185.48" r="5" fill="hsl(78, 80%, 65%)" />
<circle cx="286.32" cy="324.22" r="6" fill="hsl(84, 80%, 65%)" />
<circle cx="187.31" cy="226.06" r="2" fill="hsl(90, 80%, 65%)" />
<circle cx="327.14" cy="231.58" r="3" fill="hsl(96, 80%, 65%)" />
<circle cx="219.91" cy="322.30" r="4" fill="hsl(102, 80%, 65%)" />
<circle cx="237.76" cy="182.47" r="5" fill="hsl(108, 80%, 65%)" />
<circle cx="319.35" cy="298.05" r="6" fill="hsl(114, 80%, 65%)" />
<circle cx="180.61" cy="267.82" r="2" fill="hsl(120, 80%, 65%)" />
<circle cx="303.77" cy="196.15" r="3" fill="hsl(126, 80%, 65%)" />
<circle cx="261.22" cy="332.67" r="4" fill="hsl(132, 80%, 65%)" />
<circle cx="200.16" cy="202.81" r="5" fill="hsl(138, 80%, 65%)" />
<circle cx="333.37" cy="257.51" r="6" fill="hsl(144, 80%, 65%)" />
<circle cx="197.73" cy="307.33" r="2" fill="hsl(150, 80%, 65%)" />
<circle cx="264.33" cy="178.52" r="3" fill="hsl(156, 80%, 65%)" />
<circle cx="302.35" cy="318.97" r="4" fill="hsl(162, 80%, 65%)" />
<circle cx="179.02" cy="240.83" r="5" fill="hsl(168, 80%, 65%)" />
<circle cx="323.23" cy="215.05" r="6" fill="hsl(174, 80%, 65%)" />
<circle cx="234.01" cy="331.86" r="2" fill="hsl(180, 80%, 65%)" />
<circle cx="220.85" cy="184.97" r="3" fill="hsl(186, 80%, 65%)" />
<circle cx="330.14" cy="284.73" r="4" fill="hsl(192, 80%, 65%)" />
<circle cx="181.68" cy="284.99" r="5" fill="hsl(198, 80%, 65%)" />
<circle cx="291.33" cy="184.19" r="6" fill="hsl(204, 80%, 65%)" />
<circle cx="278.53" cy="333.06" r="2" fill="hsl(210, 80%, 65%)" />
<circle cx="187.11" cy="214.26" r="3" fill="hsl(216, 80%, 65%)" />
<circle cx="335.25" cy="240.19" r="4" fill="hsl(222, 80%, 65%)" />
<circle cx="208.09" cy="321.39" r="5" fill="hsl(228, 80%, 65%)" />
<circle cx="247.13" cy="175.17" r="6" fill="hsl(234, 80%, 65%)" />
<circle cx="317.34" cy="309.78" r="2" fill="hsl(240, 80%, 65%)" />
<circle cx="174.19" cy="257.79" r="3" fill="hsl(246, 80%, 65%)" />
<circle cx="315.30" cy="199.25" r="4" fill="hsl(252, 80%, 65%)" />
<circle cx="250.59" cy="338.16" r="5" fill="hsl(258, 80%, 65%)" />
<circle cx="204.33" cy="191.57" r="6" fill="hsl(264, 80%, 65%)" />
<circle cx="337.87" cy="268.65" r="2" fill="hsl(270, 80%, 65%)" />
<circle cx="186.88" cy="302.12" r="3" fill="hsl(276, 80%, 65%)" />
<circle cx="275.87" cy="175.06" r="4" fill="hsl(282, 80%, 65%)" />
<circle cx="296.14" cy="329.32" r="5" fill="hsl(288, 80%, 65%)" />
<circle cx="176.64" cy="228.97" r="6" fill="hsl(294, 80%, 65%)" />
<circle cx="333.01" cy="222.23" r="2" fill="hsl(300, 80%, 65%)" />
<circle cx="221.93" cy="333.14" r="3" fill="hsl(306, 80%, 65%)" />
<circle cx="228.93" cy="175.87" r="4" fill="hsl(312, 80%, 65%)" />
<circle cx="330.30" cy="296.92" r="5" fill="hsl(318, 80%, 65%)" />
<circle cx="173.33" cy="276.07" r="6" fill="hsl(324, 80%, 65%)" />
<circle cx="303.53" cy="185.15" r="2" fill="hsl(330, 80%, 65%)" />
<circle cx="268.84" cy="340.59" r="3" fill="hsl(336, 80%, 65%)" />
<circle cx="189.20" cy="202.15" r="4" fill="hsl(342, 80%, 65%)" />
<circle cx="341.87" cy="250.57" r="5" fill="hsl(348, 80%, 65%)" />
<circle cx="196.18" cy="318.18" r="6" fill="hsl(354, 80%, 65%)" />
<circle cx="258.11" cy="169.50" r="2" fill="hsl(0, 80%, 65%)" />
<circle cx="313.03" cy="321.39" r="3" fill="hsl(6, 80%, 65%)" />
<circle cx="169.54" cy="246.28" r="4" fill="hsl(12, 80%, 65%)" />
<circle cx="326.51" cy="204.62" r="5" fill="hsl(18, 80%, 65%)" />
<circle cx="238.67" cy="341.75" r="6" fill="hsl(24, 80%, 65%)" />
<circle cx="210.74" cy="180.86" r="2" fill="hsl(30, 80%, 65%)" />
<circle cx="340.36" cy="280.90" r="3" fill="hsl(36, 80%, 65%)" />
<circle cx="176.77" cy="294.73" r="4" fill="hsl(42, 80%, 65%)" />
<circle cx="288.35" cy="173.70" r="5" fill="hsl(48, 80%, 65%)" />
<circle cx="287.82" cy="338.75" r="6" fill="hsl(54, 80%, 65%)" />
<circle cx="176.43" cy="216.37" r="2" fill="hsl(60, 80%, 65%)" />
<circle cx="341.67" cy="231.41" r="3" fill="hsl(66, 80%, 65%)" />
<circle cx="209.32" cy="332.20" r="4" fill="hsl(72, 80%, 65%)" />
<circle cx="238.90" cy="168.05" r="5" fill="hsl(78, 80%, 65%)" />
<circle cx="328.20" cy="309.44" r="6" fill="hsl(84, 80%, 65%)" />
<circle cx="166.43" cy="265.39" r="2" fill="hsl(90, 80%, 65%)" />
<circle cx="315.85" cy="188.40" r="3" fill="hsl(96, 80%, 65%)" />
<circle cx="257.53" cy="346.50" r="4" fill="hsl(102, 80%, 65%)" />
<circle cx="193.58" cy="190.13" r="5" fill="hsl(108, 80%, 65%)" />
<circle cx="346.75" cy="262.42" r="6" fill="hsl(114, 80%, 65%)" />
<circle cx="184.57" cy="312.71" r="2" fill="hsl(120, 80%, 65%)" />
<circle cx="270.40" cy="165.71" r="3" fill="hsl(126, 80%, 65%)" />
<circle cx="306.50" cy="332.49" r="4" fill="hsl(132, 80%, 65%)" />
<circle cx="166.87" cy="233.65" r="5" fill="hsl(138, 80%, 65%)" />
<circle cx="337.01" cy="212.17" r="6" fill="hsl(144, 80%, 65%)" />
<circle cx="225.80" cy="343.26" r="2" fill="hsl(150, 80%, 65%)" />
<circle cx="219.24" cy="171.05" r="3" fill="hsl(156, 80%, 65%)" />
<circle cx="340.69" cy="293.90" r="4" fill="hsl(162, 80%, 65%)" />
<circle cx="167.74" cy="285.34" r="5" fill="hsl(168, 80%, 65%)" />
<circle cx="301.37" cy="174.55" r="6" fill="hsl(174, 80%, 65%)" />
<circle cx="277.61" cy="346.92" r="2" fill="hsl(180, 80%, 65%)" />
<circle cx="178.46" cy="203.43" r="3" fill="hsl(186, 80%, 65%)" />
<circle cx="348.90" cy="242.36" r="4" fill="hsl(192, 80%, 65%)" />
<circle cx="196.57" cy="328.99" r="5" fill="hsl(198, 80%, 65%)" />
<circle cx="250.51" cy="161.82" r="6" fill="hsl(204, 80%, 65%)" />
<circle cx="323.83" cy="321.89" r="2" fill="hsl(210, 80%, 65%)" />
<circle cx="161.26" cy="253.23" r="3" fill="hsl(216, 80%, 65%)" />
<circle cx="327.90" cy="193.91" r="4" fill="hsl(222, 80%, 65%)" />
<circle cx="244.90" cy="350.57" r="5" fill="hsl(228, 80%, 65%)" />
<circle cx="200.17" cy="178.59" r="6" fill="hsl(234, 80%, 65%)" />
<circle cx="349.67" cy="275.41" r="2" fill="hsl(240, 80%, 65%)" />
<circle cx="173.64" cy="305.07" r="3" fill="hsl(246, 80%, 65%)" />
<circle cx="283.65" cy="163.97" r="4" fill="hsl(252, 80%, 65%)" />
<circle cx="297.87" cy="342.73" r="5" fill="hsl(258, 80%, 65%)" />
<circle cx="166.34" cy="220.25" r="6" fill="hsl(264, 80%, 65%)" />
<circle cx="346.46" cy="221.72" r="2" fill="hsl(270, 80%, 65%)" />
<circle cx="212.36" cy="342.57" r="3" fill="hsl(276, 80%, 65%)" />
<circle cx="229.65" cy="162.48" r="4" fill="hsl(282, 80%, 65%)" />
<circle cx="338.79" cy="307.27" r="5" fill="hsl(288, 80%, 65%)" />
<circle cx="160.11" cy="274.16" r="6" fill="hsl(294, 80%, 65%)" />
<circle cx="314.57" cy="177.67" r="2" fill="hsl(300, 80%, 65%)" />
<circle cx="265.75" cy="353.53" r="3" fill="hsl(306, 80%, 65%)" />
<circle cx="182.77" cy="190.53" r="4" fill="hsl(312, 80%, 65%)" />
<circle cx="354.43" cy="254.81" r="5" fill="hsl(318, 80%, 65%)" />
<circle cx="184.07" cy="323.51" r="6" fill="hsl(324, 80%, 65%)" />
<circle cx="263.45" cy="157.42" r="2" fill="hsl(330, 80%, 65%)" />
<circle cx="317.22" cy="333.89" r="3" fill="hsl(336, 80%, 65%)" />
<circle cx="158.03" cy="239.89" r="4" fill="hsl(342, 80%, 65%)" />
<circle cx="339.30" cy="201.59" r="5" fill="hsl(348, 80%, 65%)" />
<circle cx="231.28" cy="352.59" r="6" fill="hsl(354, 80%, 65%)" />
<circle cx="208.89" cy="167.90" r="2" fill="hsl(0, 80%, 65%)" />
<circle cx="350.45" cy="289.21" r="3" fill="hsl(6, 80%, 65%)" />
<circle cx="163.73" cy="295.39" r="4" fill="hsl(12, 80%, 65%)" />
<circle cx="297.51" cy="164.44" r="5" fill="hsl(18, 80%, 65%)" />
<circle cx="287.31" cy="351.75" r="6" fill="hsl(24, 80%, 65%)" />
<circle cx="168.06" cy="206.44" r="2" fill="hsl(30, 80%, 65%)" />
<circle cx="354.52" cy="233.09" r="3" fill="hsl(36, 80%, 65%)" />
<circle cx="198.71" cy="339.61" r="4" fill="hsl(42, 80%, 65%)" />
<circle cx="241.73" cy="155.45" r="5" fill="hsl(48, 80%, 65%)" />
<circle cx="334.60" cy="320.64" r="6" fill="hsl(54, 80%, 65%)" />
<circle cx="154.18" cy="261.44" r="2" fill="hsl(60, 80%, 65%)" />
<circle cx="327.55" cy="183.06" r="3" fill="hsl(66, 80%, 65%)" />
<circle cx="252.50" cy="358.32" r="4" fill="hsl(72, 80%, 65%)" />
<circle cx="189.33" cy="178.04" r="5" fill="hsl(78, 80%, 65%)" />
<circle cx="358.02" cy="268.48" r="6" fill="hsl(84, 80%, 65%)" />
<circle cx="172.18" cy="315.83" r="2" fill="hsl(90, 80%, 65%)" />
<circle cx="277.43" cy="155.06" r="3" fill="hsl(96, 80%, 65%)" />
<circle cx="308.48" cy="345.08" r="4" fill="hsl(102, 80%, 65%)" />
<circle cx="156.94" cy="225.71" r="5" fill="hsl(108, 80%, 65%)" />
<circle cx="349.69" cy="211.34" r="6" fill="hsl(114, 80%, 65%)" />
<circle cx="217.01" cy="352.40" r="2" fill="hsl(120, 80%, 65%)" />
<circle cx="219.56" cy="158.39" r="3" fill="hsl(126, 80%, 65%)" />
<circle cx="348.98" cy="303.45" r="4" fill="hsl(132, 80%, 65%)" />
<circle cx="155.20" cy="283.88" r="5" fill="hsl(138, 80%, 65%)" />
<circle cx="311.60" cy="167.19" r="6" fill="hsl(144, 80%, 65%)" />
<circle cx="275.03" cy="359.24" r="2" fill="hsl(150, 80%, 65%)" />
<circle cx="172.07" cy="192.60" r="3" fill="hsl(156, 80%, 65%)" />
<circle cx="360.91" cy="246.03" r="4" fill="hsl(162, 80%, 65%)" />
<circle cx="185.25" cy="334.36" r="5" fill="hsl(168, 80%, 65%)" />
<circle cx="255.24" cy="150.23" r="6" fill="hsl(174, 80%, 65%)" />
<circle cx="328.14" cy="333.62" r="2" fill="hsl(180, 80%, 65%)" />
<circle cx="150.18" cy="247.48" r="3" fill="hsl(186, 80%, 65%)" />
<circle cx="339.94" cy="190.68" r="4" fill="hsl(192, 80%, 65%)" />
<circle cx="238.19" cy="361.06" r="5" fill="hsl(198, 80%, 65%)" />
<circle cx="198.06" cy="166.34" r="6" fill="hsl(204, 80%, 65%)" />
<circle cx="359.48" cy="283.02" r="2" fill="hsl(210, 80%, 65%)" />
<circle cx="161.28" cy="306.06" r="3" fill="hsl(216, 80%, 65%)" />
<circle cx="292.09" cy="154.92" r="4" fill="hsl(222, 80%, 65%)" />
<circle cx="297.74" cy="355.10" r="5" fill="hsl(228, 80%, 65%)" />
<circle cx="158.11" cy="211.04" r="6" fill="hsl(234, 80%, 65%)" />
<circle cx="358.73" cy="222.96" r="2" fill="hsl(240, 80%, 65%)" />
<circle cx="202.47" cy="349.92" r="3" fill="hsl(246, 80%, 65%)" />
<circle cx="231.99" cy="150.40" r="4" fill="hsl(252, 80%, 65%)" />
<circle cx="345.20" cy="317.76" r="5" fill="hsl(258, 80%, 65%)" />
<circle cx="148.32" cy="270.74" r="6" fill="hsl(264, 80%, 65%)" />
<circle cx="325.56" cy="172.25" r="2" fill="hsl(270, 80%, 65%)" />
<circle cx="261.29" cy="364.94" r="3" fill="hsl(276, 80%, 65%)" />
<circle cx="178.38" cy="179.11" r="4" fill="hsl(282, 80%, 65%)" />
<circle cx="365.36" cy="260.27" r="5" fill="hsl(288, 80%, 65%)" />
<circle cx="172.33" cy="326.85" r="6" fill="hsl(294, 80%, 65%)" />
<circle cx="269.86" cy="147.05" r="2" fill="hsl(300, 80%, 65%)" />
<circle cx="319.48" cy="345.85" r="3" fill="hsl(306, 80%, 65%)" />
<circle cx="148.31" cy="232.59" r="4" fill="hsl(312, 80%, 65%)" />
<circle cx="351.38" cy="200.43" r="5" fill="hsl(318, 80%, 65%)" />
<circle cx="223.15" cy="361.59" r="6" fill="hsl(324, 80%, 65%)" />
<circle cx="208.82" cy="155.78" r="2" fill="hsl(330, 80%, 65%)" />
<circle cx="358.66" cy="298.10" r="3" fill="hsl(336, 80%, 65%)" />
<circle cx="151.69" cy="294.37" r="4" fill="hsl(342, 80%, 65%)" />
<circle cx="307.08" cy="157.08" r="5" fill="hsl(348, 80%, 65%)" />
</svg>
