<svg xmlns="http://www.w3.org/2000/svg" width="512" height="512" viewBox="0 0 512 512">
<rect width="100%" height="100%" fill="black"/>
<circle cx="256.00" cy="256.00" r="2" fill="hsl(0, 80%, 65%)" />
<circle cx="251.12" cy="260.47" r="3" fill="hsl(8, 80%, 65%)" />
<circle cx="256.82" cy="246.68" r="4" fill="hsl(16, 80%, 65%)" />
<circle cx="262.97" cy="265.09" r="5" fill="hsl(24, 80%, 65%)" />
<circle cx="242.97" cy="253.70" r="6" fill="hsl(32, 80%, 65%)" />
<circle cx="268.48" cy="248.06" r="2" fill="hsl(40, 80%, 65%)" />
<circle cx="251.79" cy="271.65" r="3" fill="hsl(48, 80%, 65%)" />
<circle cx="247.93" cy="240.46" r="4" fill="hsl(56, 80%, 65%)" />
<circle cx="273.58" cy="262.42" r="5" fill="hsl(64, 80%, 65%)" />
<circle cx="237.65" cy="263.57" r="6" fill="hsl(72, 80%, 65%)" />
<circle cx="264.87" cy="237.05" r="2" fill="hsl(80, 80%, 65%)" />
<circle cx="262.57" cy="276.94" r="3" fill="hsl(88, 80%, 65%)" />
<circle cx="236.17" cy="244.51" r="4" fill="hsl(96, 80%, 65%)" />
<circle cx="279.30" cy="250.88" r="5" fill="hsl(104, 80%, 65%)" />
<circle cx="241.76" cy="276.25" r="6" fill="hsl(112, 80%, 65%)" />
<circle cx="252.71" cy="230.59" r="2" fill="hsl(120, 80%, 65%)" />
<circle cx="276.24" cy="273.06" r="3" fill="hsl(128, 80%, 65%)" />
<circle cx="228.74" cy="257.13" r="4" fill="hsl(136, 80%, 65%)" />
<circle cx="275.90" cy="236.20" r="5" fill="hsl(144, 80%, 65%)" />
<circle cx="254.67" cy="284.81" r="6" fill="hsl(152, 80%, 65%)" />
<circle cx="237.04" cy="233.28" r="2" fill="hsl(160, 80%, 65%)" />
<circle cx="286.05" cy="260.04" r="3" fill="hsl(168, 80%, 65%)" />
<circle cx="230.53" cy="273.72" r="4" fill="hsl(176, 80%, 65%)" />
<circle cx="262.96" cy="225.04" r="5" fill="hsl(184, 80%, 65%)" />
<circle cx="272.12" cy="284.12" r="6" fill="hsl(192, 80%, 65%)" />
<circle cx="224.48" cy="245.95" r="2" fill="hsl(200, 80%, 65%)" />
<circle cx="286.63" cy="241.85" r="3" fill="hsl(208, 80%, 65%)" />
<circle cx="242.73" cy="287.71" r="4" fill="hsl(216, 80%, 65%)" />
<circle cx="244.15" cy="223.06" r="5" fill="hsl(224, 80%, 65%)" />
<circle cx="287.54" cy="272.58" r="6" fill="hsl(232, 80%, 65%)" />
<circle cx="220.96" cy="265.24" r="2" fill="hsl(240, 80%, 65%)" />
<circle cx="275.92" cy="225.01" r="3" fill="hsl(248, 80%, 65%)" />
<circle cx="262.34" cy="292.89" r="4" fill="hsl(256, 80%, 65%)" />
<circle cx="225.95" cy="232.73" r="5" fill="hsl(264, 80%, 65%)" />
<circle cx="294.45" cy="252.81" r="6" fill="hsl(272, 80%, 65%)" />
<circle cx="229.42" cy="284.73" r="2" fill="hsl(280, 80%, 65%)" />
<circle cx="256.19" cy="216.30" r="3" fill="hsl(288, 80%, 65%)" />
<circle cx="283.04" cy="285.81" r="4" fill="hsl(296, 80%, 65%)" />
<circle cx="215.39" cy="252.24" r="5" fill="hsl(304, 80%, 65%)" />
<circle cx="288.91" cy="231.02" r="6" fill="hsl(312, 80%, 65%)" />
<circle cx="248.51" cy="297.17" r="2" fill="hsl(320, 80%, 65%)" />
<circle cx="233.44" cy="220.14" r="3" fill="hsl(328, 80%, 65%)" />
<circle cx="297.35" cy="267.33" r="4" fill="hsl(336, 80%, 65%)" />
<circle cx="217.40" cy="275.81" r="5" fill="hsl(344, 80%, 65%)" />
<circle cx="271.26" cy="214.85" r="6" fill="hsl(352, 80%, 65%)" />
<circle cx="272.73" cy="297.11" r="2" fill="hsl(0, 80%, 65%)" />
<circle cx="215.45" cy="236.78" r="3" fill="hsl(8, 80%, 65%)" />
<circle cx="299.35" cy="242.64" r="4" fill="hsl(16, 80%, 65%)" />
<circle cx="232.82" cy="295.55" r="5" fill="hsl(24, 80%, 65%)" />
<circle cx="246.28" cy="210.72" r="6" fill="hsl(32, 80%, 65%)" />
<circle cx="294.14" cy="283.09" r="2" fill="hsl(40, 80%, 65%)" />
<circle cx="209.11" cy="261.84" r="3" fill="hsl(48, 80%, 65%)" />
<circle cx="286.93" cy="219.67" r="4" fill="hsl(56, 80%, 65%)" />
<circle cx="257.76" cy="304.14" r="5" fill="hsl(64, 80%, 65%)" />
<circle cx="221.87" cy="221.37" r="6" fill="hsl(72, 80%, 65%)" />
<circle cx="305.00" cy="258.51" r="2" fill="hsl(80, 80%, 65%)" />
<circle cx="217.83" cy="287.54" r="3" fill="hsl(88, 80%, 65%)" />
<circle cx="262.90" cy="206.53" r="4" fill="hsl(96, 80%, 65%)" />
<circle cx="284.58" cy="297.50" r="5" fill="hsl(104, 80%, 65%)" />
<circle cx="206.47" cy="244.60" r="6" fill="hsl(112, 80%, 65%)" />
<circle cx="300.59" cy="230.74" r="2" fill="hsl(120, 80%, 65%)" />
<circle cx="240.05" cy="305.15" r="3" fill="hsl(128, 80%, 65%)" />
<circle cx="234.38" cy="208.60" r="4" fill="hsl(136, 80%, 65%)" />
<circle cx="304.35" cy="276.51" r="5" fill="hsl(144, 80%, 65%)" />
<circle cx="206.11" cy="273.67" r="6" fill="hsl(152, 80%, 65%)" />
<circle cx="281.05" cy="208.90" r="2" fill="hsl(160, 80%, 65%)" />
<circle cx="269.45" cy="308.04" r="3" fill="hsl(168, 80%, 65%)" />
<circle cx="210.59" cy="226.49" r="4" fill="hsl(176, 80%, 65%)" />
<circle cx="309.82" cy="247.02" r="5" fill="hsl(184, 80%, 65%)" />
<circle cx="222.14" cy="299.29" r="6" fill="hsl(192, 80%, 65%)" />
<circle cx="251.70" cy="200.81" r="2" fill="hsl(200, 80%, 65%)" />
<circle cx="296.74" cy="294.06" r="3" fill="hsl(208, 80%, 65%)" />
<circle cx="199.86" cy="255.45" r="4" fill="hsl(216, 80%, 65%)" />
<circle cx="298.05" cy="218.22" r="5" fill="hsl(224, 80%, 65%)" />
<circle cx="250.47" cy="312.65" r="6" fill="hsl(232, 80%, 65%)" />
<circle cx="221.58" cy="210.19" r="2" fill="hsl(240, 80%, 65%)" />
<circle cx="312.70" cy="266.60" r="3" fill="hsl(248, 80%, 65%)" />
<circle cx="206.71" cy="286.68" r="4" fill="hsl(256, 80%, 65%)" />
<circle cx="271.72" cy="199.72" r="5" fill="hsl(264, 80%, 65%)" />
<circle cx="282.59" cy="308.45" r="6" fill="hsl(272, 80%, 65%)" />
<circle cx="200.61" cy="235.16" r="2" fill="hsl(280, 80%, 65%)" />
<circle cx="311.26" cy="233.82" r="3" fill="hsl(288, 80%, 65%)" />
<circle cx="230.08" cy="310.02" r="4" fill="hsl(296, 80%, 65%)" />
<circle cx="238.52" cy="198.31" r="5" fill="hsl(304, 80%, 65%)" />
<circle cx="308.17" cy="286.92" r="6" fill="hsl(312, 80%, 65%)" />
<circle cx="196.30" cy="268.52" r="2" fill="hsl(320, 80%, 65%)" />
<circle cx="291.78" cy="206.15" r="3" fill="hsl(328, 80%, 65%)" />
<circle cx="263.33" cy="317.28" r="4" fill="hsl(336, 80%, 65%)" />
<circle cx="208.93" cy="215.54" r="5" fill="hsl(344, 80%, 65%)" />
<circle cx="318.39" cy="254.03" r="6" fill="hsl(352, 80%, 65%)" />
<circle cx="211.08" cy="299.84" r="2" fill="hsl(0, 80%, 65%)" />
<circle cx="259.53" cy="192.98" r="3" fill="hsl(8, 80%, 65%)" />
<circle cx="296.18" cy="305.12" r="4" fill="hsl(16, 80%, 65%)" />
<circle cx="192.85" cy="246.88" r="5" fill="hsl(24, 80%, 65%)" />
<circle cx="309.01" cy="219.88" r="6" fill="hsl(32, 80%, 65%)" />
<circle cx="241.23" cy="318.78" r="2" fill="hsl(40, 80%, 65%)" />
<circle cx="224.32" cy="199.44" r="3" fill="hsl(48, 80%, 65%)" />
<circle cx="317.89" cy="276.41" r="4" fill="hsl(56, 80%, 65%)" />
<circle cx="196.27" cy="282.89" r="5" fill="hsl(64, 80%, 65%)" />
<circle cx="282.01" cy="195.52" r="6" fill="hsl(72, 80%, 65%)" />
<circle cx="277.79" cy="318.48" r="2" fill="hsl(80, 80%, 65%)" />
<circle cx="197.44" cy="224.49" r="3" fill="hsl(88, 80%, 65%)" />
<circle cx="320.78" cy="239.60" r="4" fill="hsl(96, 80%, 65%)" />
<circle cx="219.13" cy="312.12" r="5" fill="hsl(104, 80%, 65%)" />
<circle cx="245.22" cy="189.39" r="6" fill="hsl(112, 80%, 65%)" />
<circle cx="309.20" cy="298.03" r="2" fill="hsl(120, 80%, 65%)" />
<circle cx="188.06" cy="260.96" r="3" fill="hsl(128, 80%, 65%)" />
<circle cx="302.96" cy="206.22" r="4" fill="hsl(136, 80%, 65%)" />
<circle cx="254.99" cy="324.75" r="5" fill="hsl(144, 80%, 65%)" />
<circle cx="210.09" cy="204.39" r="6" fill="hsl(152, 80%, 65%)" />
<circle cx="325.03" cy="263.08" r="2" fill="hsl(160, 80%, 65%)" />
<circle cx="200.06" cy="297.60" r="3" fill="hsl(168, 80%, 65%)" />
<circle cx="269.20" cy="187.23" r="4" fill="hsl(176, 80%, 65%)" />
<circle cx="292.88" cy="315.89" r="5" fill="hsl(184, 80%, 65%)" />
<circle cx="188.05" cy="236.66" r="6" fill="hsl(192, 80%, 65%)" />
<circle cx="319.44" cy="224.22" r="2" fill="hsl(200, 80%, 65%)" />
<circle cx="230.58" cy="322.57" r="3" fill="hsl(208, 80%, 65%)" />
<circle cx="229.66" cy="189.45" r="4" fill="hsl(216, 80%, 65%)" />
<circle cx="320.65" cy="287.41" r="5" fill="hsl(224, 80%, 65%)" />
<circle cx="186.82" cy="276.59" r="6" fill="hsl(232, 80%, 65%)" />
<circle cx="293.26" cy="193.83" r="2" fill="hsl(240, 80%, 65%)" />
<circle cx="270.59" cy="327.30" r="3" fill="hsl(248, 80%, 65%)" />
<circle cx="196.84" cy="213.10" r="4" fill="hsl(256, 80%, 65%)" />
<circle cx="328.90" cy="247.64" r="5" fill="hsl(264, 80%, 65%)" />
<circle cx="207.70" cy="311.64" r="6" fill="hsl(272, 80%, 65%)" />
<circle cx="254.03" cy="182.05" r="2" fill="hsl(280, 80%, 65%)" />
<circle cx="307.61" cy="309.41" r="3" fill="hsl(288, 80%, 65%)" />
<circle cx="181.57" cy="251.47" r="4" fill="hsl(296, 80%, 65%)" />
<circle cx="314.17" cy="208.88" r="5" fill="hsl(304, 80%, 65%)" />
<circle cx="244.89" cy="330.32" r="6" fill="hsl(312, 80%, 65%)" />
<circle cx="213.83" cy="193.45" r="2" fill="hsl(320, 80%, 65%)" />
<circle cx="329.63" cy="273.70" r="3" fill="hsl(328, 80%, 65%)" />
<circle cx="189.50" cy="292.83" r="4" fill="hsl(336, 80%, 65%)" />
<circle cx="280.25" cy="183.65" r="5" fill="hsl(344, 80%, 65%)" />
<circle cx="287.10" cy="325.99" r="6" fill="hsl(352, 80%, 65%)" />
<circle cx="185.53" cy="225.29" r="2" fill="hsl(0, 80%, 65%)" />
<circle cx="328.98" cy="230.95" r="3" fill="hsl(8, 80%, 65%)" />
<circle cx="218.97" cy="324.02" r="4" fill="hsl(16, 80%, 65%)" />
<circle cx="237.29" cy="180.56" r="5" fill="hsl(24, 80%, 65%)" />
<circle cx="320.99" cy="299.14" r="6" fill="hsl(32, 80%, 65%)" />
<circle cx="178.66" cy="268.13" r="2" fill="hsl(40, 80%, 65%)" />
<circle cx="305.01" cy="194.59" r="3" fill="hsl(48, 80%, 65%)" />
<circle cx="261.36" cy="334.66" r="4" fill="hsl(56, 80%, 65%)" />
<circle cx="198.71" cy="201.43" r="5" fill="hsl(64, 80%, 65%)" />
<circle cx="335.38" cy="257.55" r="6" fill="hsl(72, 80%, 65%)" />
<circle cx="196.21" cy="308.66" r="2" fill="hsl(80, 80%, 65%)" />
<circle cx="264.54" cy="176.51" r="3" fill="hsl(88, 80%, 65%)" />
<circle cx="303.56" cy="320.60" r="4" fill="hsl(96, 80%, 65%)" />
<circle cx="177.03" cy="240.44" r="5" fill="hsl(104, 80%, 65%)" />
<circle cx="324.98" cy="213.99" r="6" fill="hsl(112, 80%, 65%)" />
<circle cx="233.44" cy="333.83" r="2" fill="hsl(120, 80%, 65%)" />
<circle cx="219.94" cy="183.13" r="3" fill="hsl(128, 80%, 65%)" />
<circle cx="332.06" cy="285.47" r="4" fill="hsl(136, 80%, 65%)" />
<circle cx="179.76" cy="285.74" r="5" fill="hsl(144, 80%, 65%)" />
<circle cx="292.25" cy="182.33" r="6" fill="hsl(152, 80%, 65%)" />
<circle cx="279.11" cy="335.06" r="2" fill="hsl(160, 80%, 65%)" />
<circle cx="185.32" cy="213.18" r="3" fill="hsl(168, 80%, 65%)" />
<circle cx="337.30" cy="239.78" r="4" fill="hsl(176, 80%, 65%)" />
<circle cx="206.85" cy="323.09" r="5" fill="hsl(184, 80%, 65%)" />
<circle cx="246.89" cy="173.07" r="6" fill="hsl(192, 80%, 65%)" />
<circle cx="318.93" cy="311.17" r="2" fill="hsl(200, 80%, 65%)" />
<circle cx="172.07" cy="257.83" r="3" fill="hsl(208, 80%, 65%)" />
<circle cx="316.84" cy="197.77" r="4" fill="hsl(216, 80%, 65%)" />
<circle cx="250.45" cy="340.29" r="5" fill="hsl(224, 80%, 65%)" />
<circle cx="202.99" cy="189.90" r="6" fill="hsl(232, 80%, 65%)" />
<circle cx="339.99" cy="268.97" r="2" fill="hsl(240, 80%, 65%)" />
<circle cx="185.09" cy="303.31" r="3" fill="hsl(248, 80%, 65%)" />
<circle cx="276.39" cy="172.96" r="4" fill="hsl(256, 80%, 65%)" />
<circle cx="297.18" cy="331.23" r="5" fill="hsl(264, 80%, 65%)" />
<circle cx="174.58" cy="228.26" r="6" fill="hsl(272, 80%, 65%)" />
<circle cx="335.00" cy="221.35" r="2" fill="hsl(280, 80%, 65%)" />
<circle cx="221.05" cy="335.15" r="3" fill="hsl(288, 80%, 65%)" />
<circle cx="228.23" cy="173.79" r="4" fill="hsl(296, 80%, 65%)" />
<circle cx="332.23" cy="297.98" r="5" fill="hsl(304, 80%, 65%)" />
<circle cx="171.19" cy="276.60" r="6" fill="hsl(312, 80%, 65%)" />
<circle cx="304.77" cy="183.32" r="2" fill="hsl(320, 80%, 65%)" />
<circle cx="269.18" cy="342.78" r="3" fill="hsl(328, 80%, 65%)" />
<circle cx="187.47" cy="200.75" r="4" fill="hsl(336, 80%, 65%)" />
<circle cx="344.10" cy="250.43" r="5" fill="hsl(344, 80%, 65%)" />
<circle cx="194.63" cy="319.80" r="6" fill="hsl(352, 80%, 65%)" />
<circle cx="258.16" cy="167.26" r="2" fill="hsl(0, 80%, 65%)" />
<circle cx="314.51" cy="323.08" r="3" fill="hsl(8, 80%, 65%)" />
<circle cx="167.30" cy="246.03" r="4" fill="hsl(16, 80%, 65%)" />
<circle cx="328.34" cy="203.29" r="5" fill="hsl(24, 80%, 65%)" />
<circle cx="238.22" cy="343.97" r="6" fill="hsl(32, 80%, 65%)" />
<circle cx="209.56" cy="178.91" r="2" fill="hsl(40, 80%, 65%)" />
<circle cx="342.55" cy="281.54" r="3" fill="hsl(48, 80%, 65%)" />
<circle cx="174.71" cy="295.73" r="4" fill="hsl(56, 80%, 65%)" />
<circle cx="289.19" cy="171.57" r="5" fill="hsl(64, 80%, 65%)" />
<circle cx="288.65" cy="340.90" r="6" fill="hsl(72, 80%, 65%)" />
<circle cx="174.36" cy="215.34" r="2" fill="hsl(80, 80%, 65%)" />
<circle cx="343.89" cy="230.77" r="3" fill="hsl(88, 80%, 65%)" />
<circle cx="208.11" cy="334.18" r="4" fill="hsl(96, 80%, 65%)" />
<circle cx="238.46" cy="165.77" r="5" fill="hsl(104, 80%, 65%)" />
<circle cx="330.07" cy="310.82" r="6" fill="hsl(112, 80%, 65%)" />
<circle cx="164.11" cy="265.64" r="2" fill="hsl(120, 80%, 65%)" />
<circle cx="317.40" cy="186.65" r="3" fill="hsl(128, 80%, 65%)" />
<circle cx="257.57" cy="348.85" r="4" fill="hsl(136, 80%, 65%)" />
<circle cx="191.96" cy="188.42" r="5" fill="hsl(144, 80%, 65%)" />
<circle cx="349.10" cy="262.58" r="6" fill="hsl(152, 80%, 65%)" />
<circle cx="182.72" cy="314.18" r="2" fill="hsl(160, 80%, 65%)" />
<circle cx="270.77" cy="163.37" r="3" fill="hsl(168, 80%, 65%)" />
<circle cx="307.81" cy="334.48" r="4" fill="hsl(176, 80%, 65%)" />
<circle cx="164.56" cy="233.07" r="5" fill="hsl(184, 80%, 65%)" />
<circle cx="339.12" cy="211.03" r="6" fill="hsl(192, 80%, 65%)" />
<circle cx="225.01" cy="345.52" r="2" fill="hsl(200, 80%, 65%)" />
<circle cx="218.28" cy="168.85" r="3" fill="hsl(208, 80%, 65%)" />
<circle cx="342.89" cy="294.88" r="4" fill="hsl(216, 80%, 65%)" />
<circle cx="165.45" cy="286.10" r="5" fill="hsl(224, 80%, 65%)" />
<circle cx="302.55" cy="172.44" r="6" fill="hsl(232, 80%, 65%)" />
<circle cx="278.17" cy="349.28" r="2" fill="hsl(240, 80%, 65%)" />
<circle cx="176.45" cy="202.06" r="3" fill="hsl(248, 80%, 65%)" />
<circle cx="351.31" cy="242.00" r="4" fill="hsl(256, 80%, 65%)" />
<circle cx="195.03" cy="330.88" r="5" fill="hsl(264, 80%, 65%)" />
<circle cx="250.36" cy="159.37" r="6" fill="hsl(272, 80%, 65%)" />
<circle cx="325.59" cy="323.60" r="2" fill="hsl(280, 80%, 65%)" />
<circle cx="158.80" cy="253.15" r="3" fill="hsl(288, 80%, 65%)" />
<circle cx="329.76" cy="192.29" r="4" fill="hsl(296, 80%, 65%)" />
<circle cx="244.61" cy="353.02" r="5" fill="hsl(304, 80%, 65%)" />
<circle cx="198.72" cy="176.58" r="6" fill="hsl(312, 80%, 65%)" />
<circle cx="352.10" cy="275.91" r="2" fill="hsl(320, 80%, 65%)" />
<circle cx="171.50" cy="306.34" r="3" fill="hsl(328, 80%, 65%)" />
<circle cx="284.37" cy="161.59" r="4" fill="hsl(336, 80%, 65%)" />
<circle cx="298.95" cy="344.98" r="5" fill="hsl(344, 80%, 65%)" />
<circle cx="164.02" cy="219.32" r="6" fill="hsl(352, 80%, 65%)" />
<circle cx="348.81" cy="220.83" r="2" fill="hsl(0, 80%, 65%)" />
<circle cx="211.22" cy="344.82" r="3" fill="hsl(8, 80%, 65%)" />
<circle cx="228.96" cy="160.05" r="4" fill="hsl(16, 80%, 65%)" />
<circle cx="340.94" cy="308.60" r="5" fill="hsl(24, 80%, 65%)" />
<circle cx="157.62" cy="274.63" r="6" fill="hsl(32, 80%, 65%)" />
<circle cx="316.09" cy="175.64" r="2" fill="hsl(40, 80%, 65%)" />
<circle cx="266.00" cy="356.06" r="3" fill="hsl(48, 80%, 65%)" />
<circle cx="180.87" cy="188.83" r="4" fill="hsl(56, 80%, 65%)" />
<circle cx="356.99" cy="254.78" r="5" fill="hsl(64, 80%, 65%)" />
<circle cx="182.20" cy="325.26" r="6" fill="hsl(72, 80%, 65%)" />
<circle cx="263.65" cy="154.86" r="2" fill="hsl(80, 80%, 65%)" />
<circle cx="318.81" cy="335.91" r="3" fill="hsl(88, 80%, 65%)" />
<circle cx="155.49" cy="239.47" r="4" fill="hsl(96, 80%, 65%)" />
<circle cx="341.46" cy="200.18" r="5" fill="hsl(104, 80%, 65%)" />
<circle cx="230.64" cy="355.09" r="6" fill="hsl(112, 80%, 65%)" />
<circle cx="207.66" cy="165.61" r="2" fill="hsl(120, 80%, 65%)" />
<circle cx="352.90" cy="290.07" r="3" fill="hsl(128, 80%, 65%)" />
</svg>
