<svg xmlns="http://www.w3.org/2000/svg" width="512" height="512" viewBox="0 0 512 512">
<rect width="100%" height="100%" fill="#0b1020"/>
<circle cx="413" cy="85" r="54" fill="#f8f3c9" opacity="0.95" />
<circle cx="124.0" cy="96.0" r="3.2" fill="white" />
<circle cx="480.0" cy="132.0" r="1.7" fill="white" />
<circle cx="468.0" cy="49.0" r="3.1" fill="white" />
<circle cx="204.0" cy="23.0" r="1.6" fill="white" />
<circle cx="126.0" cy="95.0" r="3.0" fill="white" />
<path d="M 20 430 C 108 410, 191 445, 283 423 S 450 396, 512 426" stroke="#5dade2" stroke-width="5" fill="none" opacity="0.85" />
<line x1="0" y1="386" x2="512" y2="386" stroke="#445566" stroke-width="2" />
<polygon points="167,358 207,298 247,318 267,288 287,308 299,348 267,370 217,374" fill="#1e1e1e" />
<polygon points="242,298 255,276 265,300" fill="#1e1e1e" />
<line x1="297" y1="343" x2="327" y2="318" stroke="#1e1e1e" stroke-width="6" />
</svg>
