<svg xmlns="http://www.w3.org/2000/svg" width="512" height="512" viewBox="0 0 512 512">
<rect width="100%" height="100%" fill="black"/>
<line x1="0" y1="0" x2="0" y2="512" stroke="#224" stroke-width="1"/>
<line x1="32" y1="0" x2="32" y2="512" stroke="#224" stroke-width="1"/>
<line x1="64" y1="0" x2="64" y2="512" stroke="#224" stroke-width="1"/>
<line x1="96" y1="0" x2="96" y2="512" stroke="#224" stroke-width="1"/>
<line x1="128" y1="0" x2="128" y2="512" stroke="#224" stroke-width="1"/>
<line x1="160" y1="0" x2="160" y2="512" stroke="#224" stroke-width="1"/>
<line x1="192" y1="0" x2="192" y2="512" stroke="#224" stroke-width="1"/>
<line x1="224" y1="0" x2="224" y2="512" stroke="#224" stroke-width="1"/>
<line x1="256" y1="0" x2="256" y2="512" stroke="#224" stroke-width="1"/>
<line x1="288" y1="0" x2="288" y2="512" stroke="#224" stroke-width="1"/>
<line x1="320" y1="0" x2="320" y2="512" stroke="#224" stroke-width="1"/>
<line x1="352" y1="0" x2="352" y2="512" stroke="#224" stroke-width="1"/>
<line x1="384" y1="0" x2="384" y2="512" stroke="#224" stroke-width="1"/>
<line x1="416" y1="0" x2="416" y2="512" stroke="#224" stroke-width="1"/>
<line x1="448" y1="0" x2="448" y2="512" stroke="#224" stroke-width="1"/>
<line x1="480" y1="0" x2="480" y2="512" stroke="#224" stroke-width="1"/>
<line x1="512" y1="0" x2="512" y2="512" stroke="#224" stroke-width="1"/>
<line x1="0" y1="0" x2="512" y2="0" stroke="#224" stroke-width="1"/>
<line x1="0" y1="32" x2="512" y2="32" stroke="#224" stroke-width="1"/>
<line x1="0" y1="64" x2="512" y2="64" stroke="#224" stroke-width="1"/>
<line x1="0" y1="96" x2="512" y2="96" stroke="#224" stroke-width="1"/>
<line x1="0" y1="128" x2="512" y2="128" stroke="#224" stroke-width="1"/>
<line x1="0" y1="160" x2="512" y2="160" stroke="#224" stroke-width="1"/>
<line x1="0" y1="192" x2="512" y2="192" stroke="#224" stroke-width="1"/>
<line x1="0" y1="224" x2="512" y2="224" stroke="#224" stroke-width="1"/>
<line x1="0" y1="256" x2="512" y2="256" stroke="#224" stroke-width="1"/>
<line x1="0" y1="288" x2="512" y2="288" stroke="#224" stroke-width="1"/>
<line x1="0" y1="320" x2="512" y2="320" stroke="#224" stroke-width="1"/>
<line x1="0" y1="352" x2="512" y2="352" stroke="#224" stroke-width="1"/>
<line x1="0" y1="384" x2="512" y2="384" stroke="#224" stroke-width="1"/>
<line x1="0" y1="416" x2="512" y2="416" stroke="#224" stroke-width="1"/>
<line x1="0" y1="448" x2="512" y2="448" stroke="#224" stroke-width="1"/>
<line x1="0" y1="480" x2="512" y2="480" stroke="#224" stroke-width="1"/>
<line x1="0" y1="512" x2="512" y2="512" stroke="#224" stroke-width="1"/>
<rect x="32" y="32" width="448" height="448" fill="none" stroke="gold" stroke-width="2"/>
</svg>
