<svg xmlns="http://www.w3.org/2000/svg" width="512" height="512" viewBox="0 0 512 512">
<rect width="100%" height="100%" fill="#0b1020"/>
<circle cx="458" cy="96" r="43" fill="#f8f3c9" opacity="0.95" />
<circle cx="95.0" cy="83.0" r="2.1" fill="white" />
<circle cx="195.0" cy="170.0" r="2.3" fill="white" />
<circle cx="307.0" cy="24.0" r="3.2" fill="white" />
<circle cx="275.0" cy="87.0" r="3.5" fill="white" />
<circle cx="219.0" cy="137.0" r="2.5" fill="white" />
<circle cx="123.0" cy="47.0" r="1.7" fill="white" />
<circle cx="70.0" cy="83.0" r="2.5" fill="white" />
<circle cx="390.0" cy="95.0" r="3.1" fill="white" />
<circle cx="328.0" cy="26.0" r="2.5" fill="white" />
<circle cx="140.0" cy="84.0" r="2.1" fill="white" />
<circle cx="287.0" cy="159.0" r="2.8" fill="white" />
<circle cx="347.0" cy="54.0" r="3.4" fill="white" />
<circle cx="258.0" cy="41.0" r="2.2" fill="white" />
<circle cx="314.0" cy="112.0" r="1.6" fill="white" />
<path d="M 20 430 C 128 410, 177 447, 291 440 S 450 385, 512 415" stroke="#5dade2" stroke-width="5" fill="none" opacity="0.85" />
<line x1="0" y1="386" x2="512" y2="386" stroke="#445566" stroke-width="3" />
<polygon points="200,350 240,290 280,310 300,280 320,300 332,340 300,362 250,366" fill="#1e1e1e" />
<polygon points="275,290 288,268 298,292" fill="#1e1e1e" />
<line x1="330" y1="335" x2="360" y2="310" stroke="#1e1e1e" stroke-width="6" />
</svg>
