<svg xmlns="http://www.w3.org/2000/svg" width="512" height="512" viewBox="0 0 512 512">
<rect width="100%" height="100%" fill="black"/>
<circle cx="256.00" cy="256.00" r="2" fill="hsl(0, 80%, 65%)" />
<circle cx="250.46" cy="261.07" r="3" fill="hsl(5, 80%, 65%)" />
<circle cx="256.93" cy="245.42" r="4" fill="hsl(10, 80%, 65%)" />
<circle cx="263.91" cy="266.32" r="5" fill="hsl(15, 80%, 65%)" />
<circle cx="241.21" cy="253.38" r="6" fill="hsl(20, 80%, 65%)" />
<circle cx="270.17" cy="246.99" r="2" fill="hsl(25, 80%, 65%)" />
<circle cx="251.22" cy="273.77" r="3" fill="hsl(30, 80%, 65%)" />
<circle cx="246.84" cy="238.37" r="4" fill="hsl(35, 80%, 65%)" />
<circle cx="275.95" cy="263.29" r="5" fill="hsl(40, 80%, 65%)" />
<circle cx="235.17" cy="264.60" r="6" fill="hsl(45, 80%, 65%)" />
<circle cx="266.07" cy="234.49" r="2" fill="hsl(50, 80%, 65%)" />
<circle cx="263.45" cy="279.77" r="3" fill="hsl(55, 80%, 65%)" />
<circle cx="233.49" cy="242.96" r="4" fill="hsl(60, 80%, 65%)" />
<circle cx="282.45" cy="250.19" r="5" fill="hsl(65, 80%, 65%)" />
<circle cx="239.84" cy="278.99" r="6" fill="hsl(70, 80%, 65%)" />
<circle cx="252.26" cy="227.15" r="2" fill="hsl(75, 80%, 65%)" />
<circle cx="278.97" cy="275.36" r="3" fill="hsl(80, 80%, 65%)" />
<circle cx="225.06" cy="257.28" r="4" fill="hsl(85, 80%, 65%)" />
<circle cx="278.59" cy="233.52" r="5" fill="hsl(90, 80%, 65%)" />
<circle cx="254.49" cy="288.70" r="6" fill="hsl(95, 80%, 65%)" />
<circle cx="234.48" cy="230.21" r="2" fill="hsl(100, 80%, 65%)" />
<circle cx="290.11" cy="260.59" r="3" fill="hsl(105, 80%, 65%)" />
<circle cx="227.08" cy="276.12" r="4" fill="hsl(110, 80%, 65%)" />
<circle cx="263.91" cy="220.86" r="5" fill="hsl(115, 80%, 65%)" />
<circle cx="274.29" cy="287.92" r="6" fill="hsl(120, 80%, 65%)" />
<circle cx="220.22" cy="244.59" r="2" fill="hsl(125, 80%, 65%)" />
<circle cx="290.76" cy="239.94" r="3" fill="hsl(130, 80%, 65%)" />
<circle cx="240.93" cy="292.00" r="4" fill="hsl(135, 80%, 65%)" />
<circle cx="242.55" cy="218.60" r="5" fill="hsl(140, 80%, 65%)" />
<circle cx="291.80" cy="274.82" r="6" fill="hsl(145, 80%, 65%)" />
<circle cx="216.22" cy="266.49" r="2" fill="hsl(150, 80%, 65%)" />
<circle cx="278.62" cy="220.83" r="3" fill="hsl(155, 80%, 65%)" />
<circle cx="263.20" cy="297.87" r="4" fill="hsl(160, 80%, 65%)" />
<circle cx="221.89" cy="229.58" r="5" fill="hsl(165, 80%, 65%)" />
<circle cx="299.64" cy="252.38" r="6" fill="hsl(170, 80%, 65%)" />
<circle cx="225.83" cy="288.62" r="2" fill="hsl(175, 80%, 65%)" />
<circle cx="256.22" cy="210.94" r="3" fill="hsl(180, 80%, 65%)" />
<circle cx="286.69" cy="289.84" r="4" fill="hsl(185, 80%, 65%)" />
<circle cx="209.90" cy="251.73" r="5" fill="hsl(190, 80%, 65%)" />
<circle cx="293.36" cy="227.65" r="6" fill="hsl(195, 80%, 65%)" />
<circle cx="247.50" cy="302.73" r="2" fill="hsl(200, 80%, 65%)" />
<circle cx="230.39" cy="215.30" r="3" fill="hsl(205, 80%, 65%)" />
<circle cx="302.94" cy="268.86" r="4" fill="hsl(210, 80%, 65%)" />
<circle cx="212.18" cy="278.49" r="5" fill="hsl(215, 80%, 65%)" />
<circle cx="273.32" cy="209.29" r="6" fill="hsl(220, 80%, 65%)" />
<circle cx="275.00" cy="302.66" r="2" fill="hsl(225, 80%, 65%)" />
<circle cx="209.97" cy="234.19" r="3" fill="hsl(230, 80%, 65%)" />
<circle cx="305.20" cy="240.83" r="4" fill="hsl(235, 80%, 65%)" />
<circle cx="229.69" cy="300.89" r="5" fill="hsl(240, 80%, 65%)" />
<circle cx="244.96" cy="204.60" r="6" fill="hsl(245, 80%, 65%)" />
<circle cx="299.29" cy="286.75" r="2" fill="hsl(250, 80%, 65%)" />
<circle cx="202.78" cy="262.63" r="3" fill="hsl(255, 80%, 65%)" />
<circle cx="291.10" cy="214.76" r="4" fill="hsl(260, 80%, 65%)" />
<circle cx="257.99" cy="310.64" r="5" fill="hsl(265, 80%, 65%)" />
<circle cx="217.26" cy="216.69" r="6" fill="hsl(270, 80%, 65%)" />
<circle cx="311.63" cy="258.84" r="2" fill="hsl(275, 80%, 65%)" />
<circle cx="212.67" cy="291.80" r="3" fill="hsl(280, 80%, 65%)" />
<circle cx="263.84" cy="199.84" r="4" fill="hsl(285, 80%, 65%)" />
<circle cx="288.44" cy="303.11" r="5" fill="hsl(290, 80%, 65%)" />
<circle cx="199.78" cy="243.06" r="6" fill="hsl(295, 80%, 65%)" />
<circle cx="306.62" cy="227.32" r="2" fill="hsl(300, 80%, 65%)" />
<circle cx="237.90" cy="311.79" r="3" fill="hsl(305, 80%, 65%)" />
<circle cx="231.46" cy="202.20" r="4" fill="hsl(310, 80%, 65%)" />
<circle cx="310.88" cy="279.28" r="5" fill="hsl(315, 80%, 65%)" />
<circle cx="199.36" cy="276.06" r="6" fill="hsl(320, 80%, 65%)" />
<circle cx="284.43" cy="202.54" r="2" fill="hsl(325, 80%, 65%)" />
<circle cx="271.26" cy="315.07" r="3" fill="hsl(330, 80%, 65%)" />
<circle cx="204.45" cy="222.50" r="4" fill="hsl(335, 80%, 65%)" />
<circle cx="317.09" cy="245.81" r="5" fill="hsl(340, 80%, 65%)" />
<circle cx="217.56" cy="305.14" r="6" fill="hsl(345, 80%, 65%)" />
<circle cx="251.12" cy="193.35" r="2" fill="hsl(350, 80%, 65%)" />
<circle cx="302.24" cy="299.20" r="3" fill="hsl(355, 80%, 65%)" />
<circle cx="192.28" cy="255.38" r="4" fill="hsl(0, 80%, 65%)" />
<circle cx="303.74" cy="213.12" r="5" fill="hsl(5, 80%, 65%)" />
<circle cx="249.72" cy="320.30" r="6" fill="hsl(10, 80%, 65%)" />
<circle cx="216.93" cy="204.00" r="2" fill="hsl(15, 80%, 65%)" />
<circle cx="320.36" cy="268.03" r="3" fill="hsl(20, 80%, 65%)" />
<circle cx="200.05" cy="290.83" r="4" fill="hsl(25, 80%, 65%)" />
<circle cx="273.84" cy="192.12" r="5" fill="hsl(30, 80%, 65%)" />
<circle cx="286.19" cy="315.54" r="6" fill="hsl(35, 80%, 65%)" />
<circle cx="193.13" cy="232.34" r="2" fill="hsl(40, 80%, 65%)" />
<circle cx="318.73" cy="230.82" r="3" fill="hsl(45, 80%, 65%)" />
<circle cx="226.58" cy="317.31" r="4" fill="hsl(50, 80%, 65%)" />
<circle cx="236.16" cy="190.52" r="5" fill="hsl(55, 80%, 65%)" />
<circle cx="315.22" cy="291.09" r="6" fill="hsl(60, 80%, 65%)" />
<circle cx="188.23" cy="270.21" r="2" fill="hsl(65, 80%, 65%)" />
<circle cx="296.61" cy="199.42" r="3" fill="hsl(70, 80%, 65%)" />
<circle cx="264.32" cy="325.56" r="4" fill="hsl(75, 80%, 65%)" />
<circle cx="202.57" cy="210.07" r="5" fill="hsl(80, 80%, 65%)" />
<circle cx="326.82" cy="253.76" r="6" fill="hsl(85, 80%, 65%)" />
<circle cx="205.01" cy="305.76" r="2" fill="hsl(90, 80%, 65%)" />
<circle cx="260.01" cy="184.47" r="3" fill="hsl(95, 80%, 65%)" />
<circle cx="301.61" cy="311.76" r="4" fill="hsl(100, 80%, 65%)" />
<circle cx="184.32" cy="245.64" r="5" fill="hsl(105, 80%, 65%)" />
<circle cx="316.17" cy="215.00" r="6" fill="hsl(110, 80%, 65%)" />
<circle cx="239.24" cy="327.26" r="2" fill="hsl(115, 80%, 65%)" />
<circle cx="220.04" cy="191.80" r="3" fill="hsl(120, 80%, 65%)" />
<circle cx="326.25" cy="279.17" r="4" fill="hsl(125, 80%, 65%)" />
<circle cx="188.21" cy="286.52" r="5" fill="hsl(130, 80%, 65%)" />
<circle cx="285.52" cy="187.35" r="6" fill="hsl(135, 80%, 65%)" />
<circle cx="280.73" cy="326.92" r="2" fill="hsl(140, 80%, 65%)" />
<circle cx="189.53" cy="220.24" r="3" fill="hsl(145, 80%, 65%)" />
<circle cx="329.53" cy="237.38" r="4" fill="hsl(150, 80%, 65%)" />
<circle cx="214.15" cy="319.71" r="5" fill="hsl(155, 80%, 65%)" />
<circle cx="243.76" cy="180.39" r="6" fill="hsl(160, 80%, 65%)" />
<circle cx="316.38" cy="303.71" r="2" fill="hsl(165, 80%, 65%)" />
<circle cx="178.88" cy="261.63" r="3" fill="hsl(170, 80%, 65%)" />
<circle cx="309.31" cy="199.49" r="4" fill="hsl(175, 80%, 65%)" />
<circle cx="254.86" cy="334.04" r="5" fill="hsl(180, 80%, 65%)" />
<circle cx="203.89" cy="197.41" r="6" fill="hsl(185, 80%, 65%)" />
<circle cx="334.36" cy="264.03" r="2" fill="hsl(190, 80%, 65%)" />
<circle cx="192.51" cy="303.22" r="3" fill="hsl(195, 80%, 65%)" />
<circle cx="270.99" cy="177.94" r="4" fill="hsl(200, 80%, 65%)" />
<circle cx="297.86" cy="323.98" r="5" fill="hsl(205, 80%, 65%)" />
<circle cx="178.87" cy="234.05" r="6" fill="hsl(210, 80%, 65%)" />
<circle cx="328.01" cy="219.93" r="2" fill="hsl(215, 80%, 65%)" />
<circle cx="227.14" cy="331.57" r="3" fill="hsl(220, 80%, 65%)" />
<circle cx="226.11" cy="180.46" r="4" fill="hsl(225, 80%, 65%)" />
<circle cx="329.38" cy="291.66" r="5" fill="hsl(230, 80%, 65%)" />
<circle cx="177.48" cy="279.37" r="6" fill="hsl(235, 80%, 65%)" />
<circle cx="298.29" cy="185.43" r="2" fill="hsl(240, 80%, 65%)" />
<circle cx="272.56" cy="336.94" r="3" fill="hsl(245, 80%, 65%)" />
<circle cx="188.84" cy="207.30" r="4" fill="hsl(250, 80%, 65%)" />
<circle cx="338.75" cy="246.51" r="5" fill="hsl(255, 80%, 65%)" />
<circle cx="201.17" cy="319.15" r="6" fill="hsl(260, 80%, 65%)" />
<circle cx="253.76" cy="172.06" r="2" fill="hsl(265, 80%, 65%)" />
<circle cx="314.58" cy="316.62" r="3" fill="hsl(270, 80%, 65%)" />
<circle cx="171.52" cy="250.85" r="4" fill="hsl(275, 80%, 65%)" />
<circle cx="322.03" cy="202.52" r="5" fill="hsl(280, 80%, 65%)" />
<circle cx="243.39" cy="340.36" r="6" fill="hsl(285, 80%, 65%)" />
<circle cx="208.13" cy="185.00" r="2" fill="hsl(290, 80%, 65%)" />
<circle cx="339.58" cy="276.09" r="3" fill="hsl(295, 80%, 65%)" />
<circle cx="180.51" cy="297.80" r="4" fill="hsl(300, 80%, 65%)" />
<circle cx="283.53" cy="173.88" r="5" fill="hsl(305, 80%, 65%)" />
<circle cx="291.30" cy="335.45" r="6" fill="hsl(310, 80%, 65%)" />
<circle cx="176.00" cy="221.14" r="2" fill="hsl(315, 80%, 65%)" />
<circle cx="338.84" cy="227.57" r="3" fill="hsl(320, 80%, 65%)" />
<circle cx="213.97" cy="333.21" r="4" fill="hsl(325, 80%, 65%)" />
<circle cx="234.76" cy="170.37" r="5" fill="hsl(330, 80%, 65%)" />
<circle cx="329.77" cy="304.97" r="6" fill="hsl(335, 80%, 65%)" />
<circle cx="168.21" cy="269.77" r="2" fill="hsl(340, 80%, 65%)" />
<circle cx="311.63" cy="186.30" r="3" fill="hsl(345, 80%, 65%)" />
<circle cx="262.08" cy="345.29" r="4" fill="hsl(350, 80%, 65%)" />
<circle cx="190.97" cy="194.05" r="5" fill="hsl(355, 80%, 65%)" />
<circle cx="346.11" cy="257.76" r="6" fill="hsl(0, 80%, 65%)" />
<circle cx="188.14" cy="315.78" r="2" fill="hsl(5, 80%, 65%)" />
<circle cx="265.70" cy="165.77" r="3" fill="hsl(10, 80%, 65%)" />
<circle cx="309.98" cy="329.33" r="4" fill="hsl(15, 80%, 65%)" />
<circle cx="166.36" cy="238.33" r="5" fill="hsl(20, 80%, 65%)" />
<circle cx="334.30" cy="208.31" r="6" fill="hsl(25, 80%, 65%)" />
<circle cx="230.39" cy="344.35" r="2" fill="hsl(30, 80%, 65%)" />
<circle cx="215.07" cy="173.28" r="3" fill="hsl(35, 80%, 65%)" />
<circle cx="342.34" cy="289.45" r="4" fill="hsl(40, 80%, 65%)" />
<circle cx="169.46" cy="289.76" r="5" fill="hsl(45, 80%, 65%)" />
<circle cx="297.14" cy="172.37" r="6" fill="hsl(50, 80%, 65%)" />
<circle cx="282.24" cy="345.75" r="2" fill="hsl(55, 80%, 65%)" />
<circle cx="175.77" cy="207.39" r="3" fill="hsl(60, 80%, 65%)" />
<circle cx="348.29" cy="237.59" r="4" fill="hsl(65, 80%, 65%)" />
<circle cx="200.21" cy="332.15" r="5" fill="hsl(70, 80%, 65%)" />
<circle cx="245.66" cy="161.86" r="6" fill="hsl(75, 80%, 65%)" />
<circle cx="327.43" cy="318.63" r="2" fill="hsl(80, 80%, 65%)" />
<circle cx="160.73" cy="258.08" r="3" fill="hsl(85, 80%, 65%)" />
<circle cx="325.06" cy="189.91" r="4" fill="hsl(90, 80%, 65%)" />
<circle cx="249.70" cy="351.68" r="5" fill="hsl(95, 80%, 65%)" />
<circle cx="195.83" cy="180.97" r="6" fill="hsl(100, 80%, 65%)" />
<circle cx="351.34" cy="270.73" r="2" fill="hsl(105, 80%, 65%)" />
<circle cx="175.51" cy="309.70" r="3" fill="hsl(110, 80%, 65%)" />
<circle cx="279.15" cy="161.75" r="4" fill="hsl(115, 80%, 65%)" />
<circle cx="302.74" cy="341.39" r="5" fill="hsl(120, 80%, 65%)" />
<circle cx="163.58" cy="224.52" r="6" fill="hsl(125, 80%, 65%)" />
<circle cx="345.68" cy="216.67" r="2" fill="hsl(130, 80%, 65%)" />
<circle cx="216.32" cy="345.84" r="3" fill="hsl(135, 80%, 65%)" />
<circle cx="224.48" cy="162.68" r="4" fill="hsl(140, 80%, 65%)" />
<circle cx="342.53" cy="303.65" r="5" fill="hsl(145, 80%, 65%)" />
<circle cx="159.73" cy="279.38" r="6" fill="hsl(150, 80%, 65%)" />
<circle cx="311.35" cy="173.50" r="2" fill="hsl(155, 80%, 65%)" />
<circle cx="270.96" cy="354.51" r="3" fill="hsl(160, 80%, 65%)" />
<circle cx="178.21" cy="193.29" r="4" fill="hsl(165, 80%, 65%)" />
<circle cx="356.00" cy="249.68" r="5" fill="hsl(170, 80%, 65%)" />
<circle cx="186.34" cy="328.41" r="6" fill="hsl(175, 80%, 65%)" />
<circle cx="258.46" cy="155.27" r="2" fill="hsl(180, 80%, 65%)" />
<circle cx="322.41" cy="332.15" r="3" fill="hsl(185, 80%, 65%)" />
<circle cx="155.31" cy="244.68" r="4" fill="hsl(190, 80%, 65%)" />
<circle cx="338.11" cy="196.17" r="5" fill="hsl(195, 80%, 65%)" />
<circle cx="235.81" cy="355.85" r="6" fill="hsl(200, 80%, 65%)" />
<circle cx="203.29" cy="168.50" r="2" fill="hsl(205, 80%, 65%)" />
<circle cx="354.24" cy="284.99" r="3" fill="hsl(210, 80%, 65%)" />
<circle cx="163.73" cy="301.10" r="4" fill="hsl(215, 80%, 65%)" />
<circle cx="293.67" cy="160.16" r="5" fill="hsl(220, 80%, 65%)" />
<circle cx="293.06" cy="352.37" r="6" fill="hsl(225, 80%, 65%)" />
<circle cx="163.33" cy="209.85" r="2" fill="hsl(230, 80%, 65%)" />
<circle cx="355.77" cy="227.36" r="3" fill="hsl(235, 80%, 65%)" />
<circle cx="201.64" cy="344.74" r="4" fill="hsl(240, 80%, 65%)" />
<circle cx="236.09" cy="153.58" r="5" fill="hsl(245, 80%, 65%)" />
<circle cx="340.08" cy="318.23" r="6" fill="hsl(250, 80%, 65%)" />
<circle cx="151.70" cy="266.94" r="2" fill="hsl(255, 80%, 65%)" />
<circle cx="325.70" cy="177.28" r="3" fill="hsl(260, 80%, 65%)" />
<circle cx="257.79" cy="361.40" r="4" fill="hsl(265, 80%, 65%)" />
<circle cx="183.31" cy="179.30" r="5" fill="hsl(270, 80%, 65%)" />
<circle cx="361.68" cy="263.47" r="6" fill="hsl(275, 80%, 65%)" />
<circle cx="172.82" cy="322.04" r="2" fill="hsl(280, 80%, 65%)" />
<circle cx="272.77" cy="150.85" r="3" fill="hsl(285, 80%, 65%)" />
<circle cx="314.81" cy="345.08" r="4" fill="hsl(290, 80%, 65%)" />
<circle cx="152.21" cy="229.98" r="5" fill="hsl(295, 80%, 65%)" />
<circle cx="350.34" cy="204.95" r="6" fill="hsl(300, 80%, 65%)" />
<circle cx="220.83" cy="357.62" r="2" fill="hsl(305, 80%, 65%)" />
<circle cx="213.19" cy="157.07" r="3" fill="hsl(310, 80%, 65%)" />
<circle cx="354.63" cy="300.13" r="4" fill="hsl(315, 80%, 65%)" />
<circle cx="153.21" cy="290.16" r="5" fill="hsl(320, 80%, 65%)" />
<circle cx="308.84" cy="161.15" r="6" fill="hsl(325, 80%, 65%)" />
<circle cx="281.17" cy="361.89" r="2" fill="hsl(330, 80%, 65%)" />
<circle cx="165.70" cy="194.78" r="3" fill="hsl(335, 80%, 65%)" />
<circle cx="364.19" cy="240.11" r="4" fill="hsl(340, 80%, 65%)" />
<circle cx="186.79" cy="341.00" r="5" fill="hsl(345, 80%, 65%)" />
<circle cx="249.60" cy="146.32" r="6" fill="hsl(350, 80%, 65%)" />
<circle cx="334.99" cy="332.73" r="2" fill="hsl(355, 80%, 65%)" />
<circle cx="145.67" cy="252.77" r="3" fill="hsl(0, 80%, 65%)" />
<circle cx="339.73" cy="183.69" r="4" fill="hsl(5, 80%, 65%)" />
<circle cx="243.08" cy="366.13" r="5" fill="hsl(10, 80%, 65%)" />
<circle cx="190.99" cy="165.86" r="6" fill="hsl(15, 80%, 65%)" />
<circle cx="365.08" cy="278.61" r="2" fill="hsl(20, 80%, 65%)" />
<circle cx="160.08" cy="313.14" r="3" fill="hsl(25, 80%, 65%)" />
<circle cx="288.20" cy="148.83" r="4" fill="hsl(30, 80%, 65%)" />
<circle cx="304.76" cy="357.00" r="5" fill="hsl(35, 80%, 65%)" />
<circle cx="151.59" cy="214.37" r="6" fill="hsl(40, 80%, 65%)" />
<circle cx="361.35" cy="216.08" r="2" fill="hsl(45, 80%, 65%)" />
<circle cx="205.17" cy="356.82" r="3" fill="hsl(50, 80%, 65%)" />
<circle cx="225.31" cy="147.09" r="4" fill="hsl(55, 80%, 65%)" />
<circle cx="352.41" cy="315.71" r="5" fill="hsl(60, 80%, 65%)" />
<circle cx="144.33" cy="277.14" r="6" fill="hsl(65, 80%, 65%)" />
<circle cx="324.21" cy="164.78" r="2" fill="hsl(70, 80%, 65%)" />
<circle cx="267.35" cy="369.58" r="3" fill="hsl(75, 80%, 65%)" />
<circle cx="170.72" cy="179.75" r="4" fill="hsl(80, 80%, 65%)" />
<circle cx="370.63" cy="254.62" r="5" fill="hsl(85, 80%, 65%)" />
<circle cx="172.23" cy="334.62" r="6" fill="hsl(90, 80%, 65%)" />
<circle cx="264.68" cy="141.20" r="2" fill="hsl(95, 80%, 65%)" />
<circle cx="327.30" cy="346.71" r="3" fill="hsl(100, 80%, 65%)" />
<circle cx="141.91" cy="237.24" r="4" fill="hsl(105, 80%, 65%)" />
<circle cx="353.00" cy="192.64" r="5" fill="hsl(110, 80%, 65%)" />
<circle cx="227.21" cy="368.48" r="6" fill="hsl(115, 80%, 65%)" />
<circle cx="201.13" cy="153.40" r="2" fill="hsl(120, 80%, 65%)" />
<circle cx="365.99" cy="294.67" r="3" fill="hsl(125, 80%, 65%)" />
<circle cx="148.55" cy="301.88" r="4" fill="hsl(130, 80%, 65%)" />
<circle cx="304.34" cy="149.37" r="5" fill="hsl(135, 80%, 65%)" />
<circle cx="292.46" cy="367.51" r="6" fill="hsl(140, 80%, 65%)" />
<circle cx="153.59" cy="198.29" r="2" fill="hsl(145, 80%, 65%)" />
<circle cx="370.73" cy="229.32" r="3" fill="hsl(150, 80%, 65%)" />
<circle cx="189.28" cy="353.37" r="4" fill="hsl(155, 80%, 65%)" />
<circle cx="239.39" cy="138.90" r="5" fill="hsl(160, 80%, 65%)" />
<circle cx="347.53" cy="331.28" r="6" fill="hsl(165, 80%, 65%)" />
<circle cx="137.42" cy="262.34" r="2" fill="hsl(170, 80%, 65%)" />
<circle cx="339.32" cy="171.06" r="3" fill="hsl(175, 80%, 65%)" />
<circle cx="251.93" cy="375.15" r="4" fill="hsl(180, 80%, 65%)" />
<circle cx="178.36" cy="165.21" r="5" fill="hsl(185, 80%, 65%)" />
<circle cx="374.81" cy="270.53" r="6" fill="hsl(190, 80%, 65%)" />
<circle cx="158.39" cy="325.68" r="2" fill="hsl(195, 80%, 65%)" />
<circle cx="280.96" cy="138.46" r="3" fill="hsl(200, 80%, 65%)" />
<circle cx="317.12" cy="359.73" r="4" fill="hsl(205, 80%, 65%)" />
<circle cx="140.64" cy="220.72" r="5" fill="hsl(210, 80%, 65%)" />
<circle cx="365.10" cy="203.99" r="6" fill="hsl(215, 80%, 65%)" />
<circle cx="210.60" cy="368.27" r="2" fill="hsl(220, 80%, 65%)" />
<circle cx="213.56" cy="142.33" r="3" fill="hsl(225, 80%, 65%)" />
<circle cx="364.28" cy="311.25" r="4" fill="hsl(230, 80%, 65%)" />
<circle cx="138.61" cy="288.46" r="5" fill="hsl(235, 80%, 65%)" />
<circle cx="320.75" cy="152.57" r="6" fill="hsl(240, 80%, 65%)" />
<circle cx="278.16" cy="376.23" r="2" fill="hsl(245, 80%, 65%)" />
<circle cx="158.26" cy="182.17" r="3" fill="hsl(250, 80%, 65%)" />
<circle cx="378.17" cy="244.39" r="4" fill="hsl(255, 80%, 65%)" />
<circle cx="173.60" cy="347.25" r="5" fill="hsl(260, 80%, 65%)" />
<circle cx="255.12" cy="132.83" r="6" fill="hsl(265, 80%, 65%)" />
<circle cx="340.01" cy="346.40" r="2" fill="hsl(270, 80%, 65%)" />
<circle cx="132.76" cy="246.08" r="3" fill="hsl(275, 80%, 65%)" />
<circle cx="353.75" cy="179.93" r="4" fill="hsl(280, 80%, 65%)" />
<circle cx="235.26" cy="378.35" r="5" fill="hsl(285, 80%, 65%)" />
<circle cx="188.52" cy="151.59" r="6" fill="hsl(290, 80%, 65%)" />
<circle cx="376.50" cy="287.47" r="2" fill="hsl(295, 80%, 65%)" />
<circle cx="145.69" cy="314.30" r="3" fill="hsl(300, 80%, 65%)" />
<circle cx="298.03" cy="138.28" r="4" fill="hsl(305, 80%, 65%)" />
<circle cx="304.61" cy="371.40" r="5" fill="hsl(310, 80%, 65%)" />
<circle cx="142.00" cy="203.65" r="6" fill="hsl(315, 80%, 65%)" />
<circle cx="375.64" cy="217.53" r="2" fill="hsl(320, 80%, 65%)" />
<circle cx="193.66" cy="365.38" r="3" fill="hsl(325, 80%, 65%)" />
<circle cx="228.04" cy="133.02" r="4" fill="hsl(330, 80%, 65%)" />
<circle cx="359.88" cy="327.92" r="5" fill="hsl(335, 80%, 65%)" />
<circle cx="130.60" cy="273.17" r="6" fill="hsl(340, 80%, 65%)" />
<circle cx="337.01" cy="158.47" r="2" fill="hsl(345, 80%, 65%)" />
<circle cx="262.16" cy="382.86" r="3" fill="hsl(350, 80%, 65%)" />
<circle cx="165.61" cy="166.46" r="4" fill="hsl(355, 80%, 65%)" />
<circle cx="383.36" cy="260.97" r="5" fill="hsl(0, 80%, 65%)" />
<circle cx="158.56" cy="338.50" r="6" fill="hsl(5, 80%, 65%)" />
<circle cx="272.14" cy="129.13" r="2" fill="hsl(10, 80%, 65%)" />
<circle cx="329.92" cy="360.64" r="3" fill="hsl(15, 80%, 65%)" />
<circle cx="130.59" cy="228.73" r="4" fill="hsl(20, 80%, 65%)" />
</svg>
