<svg xmlns="http://www.w3.org/2000/svg" width="512" height="512" viewBox="0 0 512 512">
<rect width="100%" height="100%" fill="black"/>
<circle cx="256.00" cy="256.00" r="2" fill="hsl(0, 80%, 65%)" />
<circle cx="251.17" cy="260.43" r="3" fill="hsl(6, 80%, 65%)" />
<circle cx="256.81" cy="246.76" r="4" fill="hsl(12, 80%, 65%)" />
<circle cx="262.91" cy="265.01" r="5" fill="hsl(18, 80%, 65%)" />
<circle cx="243.09" cy="253.72" r="6" fill="hsl(24, 80%, 65%)" />
<circle cx="268.37" cy="248.13" r="2" fill="hsl(30, 80%, 65%)" />
<circle cx="251.83" cy="271.51" r="3" fill="hsl(36, 80%, 65%)" />
<circle cx="248.00" cy="240.60" r="4" fill="hsl(42, 80%, 65%)" />
<circle cx="273.42" cy="262.36" r="5" fill="hsl(48, 80%, 65%)" />
<circle cx="237.82" cy="263.51" r="6" fill="hsl(54, 80%, 65%)" />
<circle cx="264.79" cy="237.22" r="2" fill="hsl(60, 80%, 65%)" />
<circle cx="262.51" cy="276.75" r="3" fill="hsl(66, 80%, 65%)" />
<circle cx="236.35" cy="244.61" r="4" fill="hsl(72, 80%, 65%)" />
<circle cx="279.09" cy="250.92" r="5" fill="hsl(78, 80%, 65%)" />
<circle cx="241.89" cy="276.07" r="6" fill="hsl(84, 80%, 65%)" />
<circle cx="252.74" cy="230.82" r="2" fill="hsl(90, 80%, 65%)" />
<circle cx="276.05" cy="272.90" r="3" fill="hsl(96, 80%, 65%)" />
<circle cx="228.99" cy="257.12" r="4" fill="hsl(102, 80%, 65%)" />
<circle cx="275.72" cy="236.38" r="5" fill="hsl(108, 80%, 65%)" />
<circle cx="254.68" cy="284.55" r="6" fill="hsl(114, 80%, 65%)" />
<circle cx="237.21" cy="233.49" r="2" fill="hsl(120, 80%, 65%)" />
<circle cx="285.78" cy="260.01" r="3" fill="hsl(126, 80%, 65%)" />
<circle cx="230.76" cy="273.56" r="4" fill="hsl(132, 80%, 65%)" />
<circle cx="262.90" cy="225.32" r="5" fill="hsl(138, 80%, 65%)" />
<circle cx="271.97" cy="283.87" r="6" fill="hsl(144, 80%, 65%)" />
<circle cx="224.77" cy="246.04" r="2" fill="hsl(150, 80%, 65%)" />
<circle cx="286.35" cy="241.98" r="3" fill="hsl(156, 80%, 65%)" />
<circle cx="242.85" cy="287.43" r="4" fill="hsl(162, 80%, 65%)" />
<circle cx="244.26" cy="223.35" r="5" fill="hsl(168, 80%, 65%)" />
<circle cx="287.26" cy="272.43" r="6" fill="hsl(174, 80%, 65%)" />
<circle cx="221.27" cy="265.15" r="2" fill="hsl(180, 80%, 65%)" />
<circle cx="275.74" cy="225.29" r="3" fill="hsl(186, 80%, 65%)" />
<circle cx="262.28" cy="292.55" r="4" fill="hsl(192, 80%, 65%)" />
<circle cx="226.22" cy="232.94" r="5" fill="hsl(198, 80%, 65%)" />
<circle cx="294.10" cy="252.84" r="6" fill="hsl(204, 80%, 65%)" />
<circle cx="229.66" cy="284.47" r="2" fill="hsl(210, 80%, 65%)" />
<circle cx="256.19" cy="216.66" r="3" fill="hsl(216, 80%, 65%)" />
<circle cx="282.80" cy="285.54" r="4" fill="hsl(222, 80%, 65%)" />
<circle cx="215.75" cy="252.27" r="5" fill="hsl(228, 80%, 65%)" />
<circle cx="288.62" cy="231.25" r="6" fill="hsl(234, 80%, 65%)" />
<circle cx="248.58" cy="296.80" r="2" fill="hsl(240, 80%, 65%)" />
<circle cx="233.64" cy="220.47" r="3" fill="hsl(246, 80%, 65%)" />
<circle cx="296.98" cy="267.23" r="4" fill="hsl(252, 80%, 65%)" />
<circle cx="217.75" cy="275.63" r="5" fill="hsl(258, 80%, 65%)" />
<circle cx="271.12" cy="215.22" r="6" fill="hsl(264, 80%, 65%)" />
<circle cx="272.58" cy="296.74" r="2" fill="hsl(270, 80%, 65%)" />
<circle cx="215.81" cy="236.96" r="3" fill="hsl(276, 80%, 65%)" />
<circle cx="298.96" cy="242.76" r="4" fill="hsl(282, 80%, 65%)" />
<circle cx="233.03" cy="295.19" r="5" fill="hsl(288, 80%, 65%)" />
<circle cx="246.36" cy="211.13" r="6" fill="hsl(294, 80%, 65%)" />
<circle cx="293.80" cy="282.85" r="2" fill="hsl(300, 80%, 65%)" />
<circle cx="209.53" cy="261.79" r="3" fill="hsl(306, 80%, 65%)" />
<circle cx="286.65" cy="220.00" r="4" fill="hsl(312, 80%, 65%)" />
<circle cx="257.74" cy="303.70" r="5" fill="hsl(318, 80%, 65%)" />
<circle cx="222.18" cy="221.68" r="6" fill="hsl(324, 80%, 65%)" />
<circle cx="304.56" cy="258.48" r="2" fill="hsl(330, 80%, 65%)" />
<circle cx="218.17" cy="287.25" r="3" fill="hsl(336, 80%, 65%)" />
<circle cx="262.84" cy="206.97" r="4" fill="hsl(342, 80%, 65%)" />
<circle cx="284.32" cy="297.13" r="5" fill="hsl(348, 80%, 65%)" />
<circle cx="206.92" cy="244.71" r="6" fill="hsl(354, 80%, 65%)" />
<circle cx="300.19" cy="230.96" r="2" fill="hsl(0, 80%, 65%)" />
<circle cx="240.20" cy="304.71" r="3" fill="hsl(6, 80%, 65%)" />
<circle cx="234.57" cy="209.03" r="4" fill="hsl(12, 80%, 65%)" />
<circle cx="303.91" cy="276.33" r="5" fill="hsl(18, 80%, 65%)" />
<circle cx="206.56" cy="273.51" r="6" fill="hsl(24, 80%, 65%)" />
<circle cx="280.82" cy="209.33" r="2" fill="hsl(30, 80%, 65%)" />
<circle cx="269.33" cy="307.57" r="3" fill="hsl(36, 80%, 65%)" />
<circle cx="211.00" cy="226.75" r="4" fill="hsl(42, 80%, 65%)" />
<circle cx="309.33" cy="247.10" r="5" fill="hsl(48, 80%, 65%)" />
<circle cx="222.44" cy="298.90" r="6" fill="hsl(54, 80%, 65%)" />
<circle cx="251.74" cy="201.31" r="2" fill="hsl(60, 80%, 65%)" />
<circle cx="296.37" cy="293.72" r="3" fill="hsl(66, 80%, 65%)" />
<circle cx="200.37" cy="255.46" r="4" fill="hsl(72, 80%, 65%)" />
<circle cx="297.68" cy="218.56" r="5" fill="hsl(78, 80%, 65%)" />
<circle cx="250.52" cy="312.14" r="6" fill="hsl(84, 80%, 65%)" />
<circle cx="221.89" cy="210.60" r="2" fill="hsl(90, 80%, 65%)" />
<circle cx="312.19" cy="266.51" r="3" fill="hsl(96, 80%, 65%)" />
<circle cx="207.16" cy="286.41" r="4" fill="hsl(102, 80%, 65%)" />
<circle cx="271.58" cy="200.23" r="5" fill="hsl(108, 80%, 65%)" />
<circle cx="282.35" cy="307.98" r="6" fill="hsl(114, 80%, 65%)" />
<circle cx="201.11" cy="235.35" r="2" fill="hsl(120, 80%, 65%)" />
<circle cx="310.76" cy="234.02" r="3" fill="hsl(126, 80%, 65%)" />
<circle cx="230.31" cy="309.53" r="4" fill="hsl(132, 80%, 65%)" />
<circle cx="238.68" cy="198.83" r="5" fill="hsl(138, 80%, 65%)" />
<circle cx="307.70" cy="286.64" r="6" fill="hsl(144, 80%, 65%)" />
<circle cx="196.84" cy="268.40" r="2" fill="hsl(150, 80%, 65%)" />
<circle cx="291.45" cy="206.60" r="3" fill="hsl(156, 80%, 65%)" />
<circle cx="263.27" cy="316.72" r="4" fill="hsl(162, 80%, 65%)" />
<circle cx="209.36" cy="215.90" r="5" fill="hsl(168, 80%, 65%)" />
<circle cx="317.83" cy="254.05" r="6" fill="hsl(174, 80%, 65%)" />
<circle cx="211.48" cy="299.44" r="2" fill="hsl(180, 80%, 65%)" />
<circle cx="259.50" cy="193.55" r="3" fill="hsl(186, 80%, 65%)" />
<circle cx="295.82" cy="304.68" r="4" fill="hsl(192, 80%, 65%)" />
<circle cx="193.42" cy="246.96" r="5" fill="hsl(198, 80%, 65%)" />
<circle cx="308.53" cy="220.20" r="6" fill="hsl(204, 80%, 65%)" />
<circle cx="241.37" cy="318.21" r="2" fill="hsl(210, 80%, 65%)" />
<circle cx="224.60" cy="199.95" r="3" fill="hsl(216, 80%, 65%)" />
<circle cx="317.33" cy="276.23" r="4" fill="hsl(222, 80%, 65%)" />
<circle cx="196.81" cy="282.65" r="5" fill="hsl(228, 80%, 65%)" />
<circle cx="281.77" cy="196.07" r="6" fill="hsl(234, 80%, 65%)" />
<circle cx="277.59" cy="317.91" r="2" fill="hsl(240, 80%, 65%)" />
<circle cx="197.97" cy="224.78" r="3" fill="hsl(246, 80%, 65%)" />
<circle cx="320.19" cy="239.75" r="4" fill="hsl(252, 80%, 65%)" />
<circle cx="219.47" cy="311.62" r="5" fill="hsl(258, 80%, 65%)" />
<circle cx="245.32" cy="189.99" r="6" fill="hsl(264, 80%, 65%)" />
<circle cx="308.72" cy="297.66" r="2" fill="hsl(270, 80%, 65%)" />
<circle cx="188.67" cy="260.92" r="3" fill="hsl(276, 80%, 65%)" />
<circle cx="302.54" cy="206.66" r="4" fill="hsl(282, 80%, 65%)" />
<circle cx="255.00" cy="324.13" r="5" fill="hsl(288, 80%, 65%)" />
<circle cx="210.50" cy="204.85" r="6" fill="hsl(294, 80%, 65%)" />
<circle cx="324.41" cy="263.01" r="2" fill="hsl(300, 80%, 65%)" />
<circle cx="200.57" cy="297.22" r="3" fill="hsl(306, 80%, 65%)" />
<circle cx="269.09" cy="187.85" r="4" fill="hsl(312, 80%, 65%)" />
<circle cx="292.54" cy="315.35" r="5" fill="hsl(318, 80%, 65%)" />
<circle cx="188.67" cy="236.84" r="6" fill="hsl(324, 80%, 65%)" />
<circle cx="318.87" cy="224.51" r="2" fill="hsl(330, 80%, 65%)" />
<circle cx="230.81" cy="321.97" r="3" fill="hsl(336, 80%, 65%)" />
<circle cx="229.90" cy="190.05" r="4" fill="hsl(342, 80%, 65%)" />
<circle cx="320.06" cy="287.13" r="5" fill="hsl(348, 80%, 65%)" />
<circle cx="187.45" cy="276.41" r="6" fill="hsl(354, 80%, 65%)" />
<circle cx="292.92" cy="194.39" r="2" fill="hsl(0, 80%, 65%)" />
<circle cx="270.45" cy="326.66" r="3" fill="hsl(6, 80%, 65%)" />
<circle cx="197.37" cy="213.49" r="4" fill="hsl(12, 80%, 65%)" />
<circle cx="328.24" cy="247.71" r="5" fill="hsl(18, 80%, 65%)" />
<circle cx="208.13" cy="311.13" r="6" fill="hsl(24, 80%, 65%)" />
<circle cx="254.04" cy="182.72" r="2" fill="hsl(30, 80%, 65%)" />
<circle cx="307.15" cy="308.92" r="3" fill="hsl(36, 80%, 65%)" />
<circle cx="182.25" cy="251.51" r="4" fill="hsl(42, 80%, 65%)" />
<circle cx="313.64" cy="209.31" r="5" fill="hsl(48, 80%, 65%)" />
<circle cx="244.99" cy="329.65" r="6" fill="hsl(54, 80%, 65%)" />
<circle cx="214.21" cy="194.02" r="2" fill="hsl(60, 80%, 65%)" />
<circle cx="328.97" cy="273.54" r="3" fill="hsl(66, 80%, 65%)" />
<circle cx="190.10" cy="292.49" r="4" fill="hsl(72, 80%, 65%)" />
<circle cx="280.03" cy="184.30" r="5" fill="hsl(78, 80%, 65%)" />
<circle cx="286.82" cy="325.36" r="6" fill="hsl(84, 80%, 65%)" />
<circle cx="186.16" cy="225.56" r="2" fill="hsl(90, 80%, 65%)" />
<circle cx="328.32" cy="231.18" r="3" fill="hsl(96, 80%, 65%)" />
<circle cx="219.31" cy="323.40" r="4" fill="hsl(102, 80%, 65%)" />
<circle cx="237.46" cy="181.24" r="5" fill="hsl(108, 80%, 65%)" />
<circle cx="320.40" cy="298.76" r="6" fill="hsl(114, 80%, 65%)" />
<circle cx="179.36" cy="268.02" r="2" fill="hsl(120, 80%, 65%)" />
<circle cx="304.57" cy="195.15" r="3" fill="hsl(126, 80%, 65%)" />
<circle cx="261.31" cy="333.95" r="4" fill="hsl(132, 80%, 65%)" />
<circle cx="199.23" cy="201.92" r="5" fill="hsl(138, 80%, 65%)" />
<circle cx="334.67" cy="257.54" r="6" fill="hsl(144, 80%, 65%)" />
<circle cx="196.75" cy="308.19" r="2" fill="hsl(150, 80%, 65%)" />
<circle cx="264.46" cy="177.23" r="3" fill="hsl(156, 80%, 65%)" />
<circle cx="303.13" cy="320.02" r="4" fill="hsl(162, 80%, 65%)" />
<circle cx="177.74" cy="240.58" r="5" fill="hsl(168, 80%, 65%)" />
<circle cx="324.36" cy="214.37" r="6" fill="hsl(174, 80%, 65%)" />
<circle cx="233.64" cy="333.13" r="2" fill="hsl(180, 80%, 65%)" />
<circle cx="220.27" cy="183.79" r="3" fill="hsl(186, 80%, 65%)" />
<circle cx="331.38" cy="285.21" r="4" fill="hsl(192, 80%, 65%)" />
<circle cx="180.44" cy="285.48" r="5" fill="hsl(198, 80%, 65%)" />
<circle cx="291.92" cy="182.99" r="6" fill="hsl(204, 80%, 65%)" />
<circle cx="278.91" cy="334.35" r="2" fill="hsl(210, 80%, 65%)" />
<circle cx="185.96" cy="213.56" r="3" fill="hsl(216, 80%, 65%)" />
<circle cx="336.57" cy="239.93" r="4" fill="hsl(222, 80%, 65%)" />
<circle cx="207.29" cy="322.48" r="5" fill="hsl(228, 80%, 65%)" />
<circle cx="246.98" cy="173.82" r="6" fill="hsl(234, 80%, 65%)" />
<circle cx="318.36" cy="310.68" r="2" fill="hsl(240, 80%, 65%)" />
<circle cx="172.82" cy="257.81" r="3" fill="hsl(246, 80%, 65%)" />
<circle cx="316.29" cy="198.30" r="4" fill="hsl(252, 80%, 65%)" />
<circle cx="250.50" cy="339.53" r="5" fill="hsl(258, 80%, 65%)" />
<circle cx="203.47" cy="190.49" r="6" fill="hsl(264, 80%, 65%)" />
<circle cx="339.24" cy="268.86" r="2" fill="hsl(270, 80%, 65%)" />
<circle cx="185.73" cy="302.89" r="3" fill="hsl(276, 80%, 65%)" />
<circle cx="276.21" cy="173.71" r="4" fill="hsl(282, 80%, 65%)" />
<circle cx="296.81" cy="330.55" r="5" fill="hsl(288, 80%, 65%)" />
<circle cx="175.32" cy="228.51" r="6" fill="hsl(294, 80%, 65%)" />
<circle cx="334.29" cy="221.66" r="2" fill="hsl(300, 80%, 65%)" />
<circle cx="221.36" cy="334.43" r="3" fill="hsl(306, 80%, 65%)" />
<circle cx="228.48" cy="174.53" r="4" fill="hsl(312, 80%, 65%)" />
<circle cx="331.54" cy="297.60" r="5" fill="hsl(318, 80%, 65%)" />
<circle cx="171.95" cy="276.41" r="6" fill="hsl(324, 80%, 65%)" />
<circle cx="304.33" cy="183.97" r="2" fill="hsl(330, 80%, 65%)" />
<circle cx="269.06" cy="342.00" r="3" fill="hsl(336, 80%, 65%)" />
<circle cx="188.09" cy="201.25" r="4" fill="hsl(342, 80%, 65%)" />
<circle cx="343.30" cy="250.48" r="5" fill="hsl(348, 80%, 65%)" />
<circle cx="195.18" cy="319.22" r="6" fill="hsl(354, 80%, 65%)" />
<circle cx="258.15" cy="168.06" r="2" fill="hsl(0, 80%, 65%)" />
<circle cx="313.98" cy="322.48" r="3" fill="hsl(6, 80%, 65%)" />
<circle cx="168.10" cy="246.12" r="4" fill="hsl(12, 80%, 65%)" />
<circle cx="327.69" cy="203.77" r="5" fill="hsl(18, 80%, 65%)" />
<circle cx="238.38" cy="343.18" r="6" fill="hsl(24, 80%, 65%)" />
<circle cx="209.98" cy="179.61" r="2" fill="hsl(30, 80%, 65%)" />
<circle cx="341.76" cy="281.31" r="3" fill="hsl(36, 80%, 65%)" />
<circle cx="175.44" cy="295.37" r="4" fill="hsl(42, 80%, 65%)" />
<circle cx="288.89" cy="172.33" r="5" fill="hsl(48, 80%, 65%)" />
<circle cx="288.35" cy="340.14" r="6" fill="hsl(54, 80%, 65%)" />
<circle cx="175.10" cy="215.71" r="2" fill="hsl(60, 80%, 65%)" />
<circle cx="343.10" cy="231.00" r="3" fill="hsl(66, 80%, 65%)" />
<circle cx="208.54" cy="333.47" r="4" fill="hsl(72, 80%, 65%)" />
<circle cx="238.62" cy="166.58" r="5" fill="hsl(78, 80%, 65%)" />
<circle cx="329.41" cy="310.33" r="6" fill="hsl(84, 80%, 65%)" />
<circle cx="164.94" cy="265.55" r="2" fill="hsl(90, 80%, 65%)" />
<circle cx="316.85" cy="187.27" r="3" fill="hsl(96, 80%, 65%)" />
<circle cx="257.56" cy="348.02" r="4" fill="hsl(102, 80%, 65%)" />
<circle cx="192.53" cy="189.03" r="5" fill="hsl(108, 80%, 65%)" />
<circle cx="348.26" cy="262.52" r="6" fill="hsl(114, 80%, 65%)" />
<circle cx="183.38" cy="313.66" r="2" fill="hsl(120, 80%, 65%)" />
<circle cx="270.64" cy="164.20" r="3" fill="hsl(126, 80%, 65%)" />
<circle cx="307.34" cy="333.77" r="4" fill="hsl(132, 80%, 65%)" />
<circle cx="165.39" cy="233.28" r="5" fill="hsl(138, 80%, 65%)" />
<circle cx="338.37" cy="211.43" r="6" fill="hsl(144, 80%, 65%)" />
<circle cx="225.29" cy="344.71" r="2" fill="hsl(150, 80%, 65%)" />
<circle cx="218.62" cy="169.63" r="3" fill="hsl(156, 80%, 65%)" />
<circle cx="342.11" cy="294.53" r="4" fill="hsl(162, 80%, 65%)" />
<circle cx="166.26" cy="285.83" r="5" fill="hsl(168, 80%, 65%)" />
<circle cx="302.13" cy="173.19" r="6" fill="hsl(174, 80%, 65%)" />
<circle cx="277.97" cy="348.44" r="2" fill="hsl(180, 80%, 65%)" />
<circle cx="177.17" cy="202.55" r="3" fill="hsl(186, 80%, 65%)" />
<circle cx="350.45" cy="242.13" r="4" fill="hsl(192, 80%, 65%)" />
<circle cx="195.58" cy="330.21" r="5" fill="hsl(198, 80%, 65%)" />
<circle cx="250.41" cy="160.25" r="6" fill="hsl(204, 80%, 65%)" />
<circle cx="324.96" cy="322.99" r="2" fill="hsl(210, 80%, 65%)" />
<circle cx="159.68" cy="253.18" r="3" fill="hsl(216, 80%, 65%)" />
<circle cx="329.10" cy="192.87" r="4" fill="hsl(222, 80%, 65%)" />
<circle cx="244.72" cy="352.15" r="5" fill="hsl(228, 80%, 65%)" />
<circle cx="199.24" cy="177.30" r="6" fill="hsl(234, 80%, 65%)" />
<circle cx="351.23" cy="275.74" r="2" fill="hsl(240, 80%, 65%)" />
<circle cx="172.26" cy="305.89" r="3" fill="hsl(246, 80%, 65%)" />
<circle cx="284.11" cy="162.44" r="4" fill="hsl(252, 80%, 65%)" />
<circle cx="298.57" cy="344.18" r="5" fill="hsl(258, 80%, 65%)" />
<circle cx="164.85" cy="219.65" r="6" fill="hsl(264, 80%, 65%)" />
<circle cx="347.97" cy="221.15" r="2" fill="hsl(270, 80%, 65%)" />
<circle cx="211.63" cy="344.02" r="3" fill="hsl(276, 80%, 65%)" />
<circle cx="229.21" cy="160.92" r="4" fill="hsl(282, 80%, 65%)" />
<circle cx="340.17" cy="308.13" r="5" fill="hsl(288, 80%, 65%)" />
<circle cx="158.51" cy="274.46" r="6" fill="hsl(294, 80%, 65%)" />
<circle cx="315.55" cy="176.36" r="2" fill="hsl(300, 80%, 65%)" />
<circle cx="265.91" cy="355.16" r="3" fill="hsl(306, 80%, 65%)" />
<circle cx="181.55" cy="189.43" r="4" fill="hsl(312, 80%, 65%)" />
<circle cx="356.08" cy="254.79" r="5" fill="hsl(318, 80%, 65%)" />
<circle cx="182.86" cy="324.64" r="6" fill="hsl(324, 80%, 65%)" />
<circle cx="263.58" cy="155.77" r="2" fill="hsl(330, 80%, 65%)" />
<circle cx="318.25" cy="335.19" r="3" fill="hsl(336, 80%, 65%)" />
<circle cx="156.40" cy="239.62" r="4" fill="hsl(342, 80%, 65%)" />
<circle cx="340.69" cy="200.68" r="5" fill="hsl(348, 80%, 65%)" />
<circle cx="230.87" cy="354.20" r="6" fill="hsl(354, 80%, 65%)" />
<circle cx="208.10" cy="166.43" r="2" fill="hsl(0, 80%, 65%)" />
<circle cx="352.03" cy="289.76" r="3" fill="hsl(6, 80%, 65%)" />
<circle cx="162.19" cy="296.05" r="4" fill="hsl(12, 80%, 65%)" />
<circle cx="298.20" cy="162.91" r="5" fill="hsl(18, 80%, 65%)" />
<circle cx="287.83" cy="353.35" r="6" fill="hsl(24, 80%, 65%)" />
<circle cx="166.59" cy="205.62" r="2" fill="hsl(30, 80%, 65%)" />
<circle cx="356.17" cy="232.71" r="3" fill="hsl(36, 80%, 65%)" />
<circle cx="197.76" cy="341.01" r="4" fill="hsl(42, 80%, 65%)" />
<circle cx="241.50" cy="153.77" r="5" fill="hsl(48, 80%, 65%)" />
<circle cx="335.91" cy="321.72" r="6" fill="hsl(54, 80%, 65%)" />
<circle cx="152.48" cy="261.53" r="2" fill="hsl(60, 80%, 65%)" />
<circle cx="328.74" cy="181.84" r="3" fill="hsl(66, 80%, 65%)" />
<circle cx="252.45" cy="360.02" r="4" fill="hsl(72, 80%, 65%)" />
<circle cx="188.22" cy="176.74" r="5" fill="hsl(78, 80%, 65%)" />
<circle cx="359.72" cy="268.68" r="6" fill="hsl(84, 80%, 65%)" />
<circle cx="170.78" cy="316.83" r="2" fill="hsl(90, 80%, 65%)" />
<circle cx="277.79" cy="153.38" r="3" fill="hsl(96, 80%, 65%)" />
<circle cx="309.36" cy="346.56" r="4" fill="hsl(102, 80%, 65%)" />
<circle cx="155.29" cy="225.20" r="5" fill="hsl(108, 80%, 65%)" />
<circle cx="351.25" cy="210.59" r="6" fill="hsl(114, 80%, 65%)" />
<circle cx="216.36" cy="354.01" r="2" fill="hsl(120, 80%, 65%)" />
<circle cx="218.95" cy="156.76" r="3" fill="hsl(126, 80%, 65%)" />
<circle cx="350.53" cy="304.24" r="4" fill="hsl(132, 80%, 65%)" />
<circle cx="153.51" cy="284.34" r="5" fill="hsl(138, 80%, 65%)" />
<circle cx="312.53" cy="165.70" r="6" fill="hsl(144, 80%, 65%)" />
<circle cx="275.35" cy="360.97" r="2" fill="hsl(150, 80%, 65%)" />
<circle cx="170.67" cy="191.55" r="3" fill="hsl(156, 80%, 65%)" />
<circle cx="362.66" cy="245.87" r="4" fill="hsl(162, 80%, 65%)" />
<circle cx="184.06" cy="335.67" r="5" fill="hsl(168, 80%, 65%)" />
<circle cx="255.23" cy="148.46" r="6" fill="hsl(174, 80%, 65%)" />
<circle cx="329.35" cy="334.92" r="2" fill="hsl(180, 80%, 65%)" />
<circle cx="148.41" cy="247.34" r="3" fill="hsl(186, 80%, 65%)" />
<circle cx="341.34" cy="189.59" r="4" fill="hsl(192, 80%, 65%)" />
<circle cx="237.90" cy="362.81" r="5" fill="hsl(198, 80%, 65%)" />
<circle cx="197.09" cy="164.84" r="6" fill="hsl(204, 80%, 65%)" />
</svg>
