<svg xmlns="http://www.w3.org/2000/svg" width="512" height="512" viewBox="0 0 512 512">
<rect width="100%" height="100%" fill="#0b1020"/>
<circle cx="434" cy="118" r="41" fill="#f8f3c9" opacity="0.95" />
<circle cx="413.0" cy="147.0" r="1.6" fill="white" />
<circle cx="108.0" cy="94.0" r="2.0" fill="white" />
<circle cx="487.0" cy="28.0" r="3.0" fill="white" />
<circle cx="309.0" cy="20.0" r="2.7" fill="white" />
<circle cx="156.0" cy="29.0" r="3.2" fill="white" />
<path d="M 20 430 C 130 414, 162 449, 291 425 S 450 402, 512 432" stroke="#5dade2" stroke-width="7" fill="none" opacity="0.85" />
<line x1="0" y1="390" x2="512" y2="390" stroke="#445566" stroke-width="3" />
<polygon points="205,357 245,297 285,317 305,287 325,307 337,347 305,369 255,373" fill="#1e1e1e" />
<polygon points="280,297 293,275 303,299" fill="#1e1e1e" />
<line x1="335" y1="342" x2="365" y2="317" stroke="#1e1e1e" stroke-width="6" />
</svg>
