<svg xmlns="http://www.w3.org/2000/svg" width="512" height="512" viewBox="0 0 512 512">
<rect width="100%" height="100%" fill="#0b1020"/>
<circle cx="445" cy="85" r="48" fill="#f8f3c9" opacity="0.95" />
<circle cx="200.0" cy="46.0" r="3.4" fill="white" />
<circle cx="80.0" cy="77.0" r="2.1" fill="white" />
<circle cx="311.0" cy="72.0" r="3.1" fill="white" />
<circle cx="119.0" cy="84.0" r="2.8" fill="white" />
<circle cx="257.0" cy="132.0" r="2.3" fill="white" />
<circle cx="291.0" cy="27.0" r="1.7" fill="white" />
<path d="M 20 430 C 122 417, 167 442, 318 437 S 450 404, 512 434" stroke="#5dade2" stroke-width="5" fill="none" opacity="0.85" />
<line x1="0" y1="388" x2="512" y2="388" stroke="#445566" stroke-width="3" />
<polygon points="214,355 254,295 294,315 314,285 334,305 346,345 314,367 264,371" fill="#1e1e1e" />
<polygon points="289,295 302,273 312,297" fill="#1e1e1e" />
<line x1="344" y1="340" x2="374" y2="315" stroke="#1e1e1e" stroke-width="6" />
</svg>
