<svg xmlns="http://www.w3.org/2000/svg" width="512" height="512" viewBox="0 0 512 512">
<rect width="100%" height="100%" fill="#0b1020"/>
<circle cx="364" cy="64" r="40" fill="#f8f3c9" opacity="0.95" />
<circle cx="201.0" cy="135.0" r="3.3" fill="white" />
<circle cx="484.0" cy="177.0" r="1.8" fill="white" />
<circle cx="380.0" cy="141.0" r="2.4" fill="white" />
<circle cx="343.0" cy="91.0" r="2.2" fill="white" />
<circle cx="275.0" cy="115.0" r="2.5" fill="white" />
<circle cx="282.0" cy="102.0" r="2.9" fill="white" />
<circle cx="64.0" cy="76.0" r="2.9" fill="white" />
<circle cx="269.0" cy="90.0" r="1.6" fill="white" />
<path d="M 20 430 C 130 410, 187 453, 295 425 S 450 377, 512 407" stroke="#5dade2" stroke-width="6" fill="none" opacity="0.85" />
<line x1="0" y1="405" x2="512" y2="405" stroke="#445566" stroke-width="3" />
<polygon points="187,352 227,292 267,312 287,282 307,302 319,342 287,364 237,368" fill="#1e1e1e" />
<polygon points="262,292 275,270 285,294" fill="#1e1e1e" />
<line x1="317" y1="337" x2="347" y2="312" stroke="#1e1e1e" stroke-width="6" />
</svg>
