<svg xmlns="http://www.w3.org/2000/svg" width="512" height="512" viewBox="0 0 512 512">
<rect width="100%" height="100%" fill="#0b1020"/>
<circle cx="374" cy="69" r="51" fill="#f8f3c9" opacity="0.95" />
<circle cx="192.0" cy="166.0" r="3.2" fill="white" />
<circle cx="232.0" cy="64.0" r="2.6" fill="white" />
<circle cx="264.0" cy="64.0" r="1.9" fill="white" />
<circle cx="95.0" cy="157.0" r="2.2" fill="white" />
<circle cx="420.0" cy="130.0" r="2.8" fill="white" />
<circle cx="487.0" cy="142.0" r="1.8" fill="white" />
<circle cx="398.0" cy="103.0" r="3.1" fill="white" />
<circle cx="120.0" cy="110.0" r="2.0" fill="white" />
<circle cx="100.0" cy="178.0" r="2.6" fill="white" />
<circle cx="356.0" cy="127.0" r="1.8" fill="white" />
<circle cx="361.0" cy="129.0" r="3.1" fill="white" />
<circle cx="85.0" cy="44.0" r="3.5" fill="white" />
<circle cx="459.0" cy="83.0" r="2.5" fill="white" />
<circle cx="349.0" cy="42.0" r="1.9" fill="white" />
<circle cx="468.0" cy="115.0" r="1.6" fill="white" />
<path d="M 20 430 C 118 415, 192 454, 283 437 S 450 388, 512 418" stroke="#5dade2" stroke-width="6" fill="none" opacity="0.85" />
<line x1="0" y1="392" x2="512" y2="392" stroke="#445566" stroke-width="3" />
<polygon points="172,352 212,292 252,312 272,282 292,302 304,342 272,364 222,368" fill="#1e1e1e" />
<polygon points="247,292 260,270 270,294" fill="#1e1e1e" />
<line x1="302" y1="337" x2="332" y2="312" stroke="#1e1e1e" stroke-width="6" />
</svg>
