<svg xmlns="http://www.w3.org/2000/svg" width="512" height="512" viewBox="0 0 512 512">
<rect width="100%" height="100%" fill="black"/>
<circle cx="256.00" cy="256.00" r="2" fill="hsl(0, 80%, 65%)" />
<circle cx="250.27" cy="261.25" r="3" fill="hsl(7, 80%, 65%)" />
<circle cx="256.96" cy="245.05" r="4" fill="hsl(14, 80%, 65%)" />
<circle cx="264.19" cy="266.68" r="5" fill="hsl(21, 80%, 65%)" />
<circle cx="240.69" cy="253.29" r="6" fill="hsl(28, 80%, 65%)" />
<circle cx="270.66" cy="246.67" r="2" fill="hsl(35, 80%, 65%)" />
<circle cx="251.06" cy="274.39" r="3" fill="hsl(42, 80%, 65%)" />
<circle cx="246.52" cy="237.75" r="4" fill="hsl(49, 80%, 65%)" />
<circle cx="276.65" cy="263.54" r="5" fill="hsl(56, 80%, 65%)" />
<circle cx="234.45" cy="264.90" r="6" fill="hsl(63, 80%, 65%)" />
<circle cx="266.42" cy="233.74" r="2" fill="hsl(70, 80%, 65%)" />
<circle cx="263.71" cy="280.60" r="3" fill="hsl(77, 80%, 65%)" />
<circle cx="232.70" cy="242.50" r="4" fill="hsl(84, 80%, 65%)" />
<circle cx="283.37" cy="249.98" r="5" fill="hsl(91, 80%, 65%)" />
<circle cx="239.27" cy="279.79" r="6" fill="hsl(98, 80%, 65%)" />
<circle cx="252.13" cy="226.15" r="2" fill="hsl(105, 80%, 65%)" />
<circle cx="279.77" cy="276.04" r="3" fill="hsl(112, 80%, 65%)" />
<circle cx="223.98" cy="257.32" r="4" fill="hsl(119, 80%, 65%)" />
<circle cx="279.37" cy="232.74" r="5" fill="hsl(126, 80%, 65%)" />
<circle cx="254.44" cy="289.84" r="6" fill="hsl(133, 80%, 65%)" />
<circle cx="233.73" cy="229.31" r="2" fill="hsl(140, 80%, 65%)" />
<circle cx="291.30" cy="260.75" r="3" fill="hsl(147, 80%, 65%)" />
<circle cx="226.07" cy="276.82" r="4" fill="hsl(154, 80%, 65%)" />
<circle cx="264.18" cy="219.63" r="5" fill="hsl(161, 80%, 65%)" />
<circle cx="274.93" cy="289.04" r="6" fill="hsl(168, 80%, 65%)" />
<circle cx="218.98" cy="244.19" r="2" fill="hsl(175, 80%, 65%)" />
<circle cx="291.98" cy="239.38" r="3" fill="hsl(182, 80%, 65%)" />
<circle cx="240.41" cy="293.26" r="4" fill="hsl(189, 80%, 65%)" />
<circle cx="242.08" cy="217.30" r="5" fill="hsl(196, 80%, 65%)" />
<circle cx="293.05" cy="275.47" r="6" fill="hsl(203, 80%, 65%)" />
<circle cx="214.83" cy="266.85" r="2" fill="hsl(210, 80%, 65%)" />
<circle cx="279.40" cy="219.60" r="3" fill="hsl(217, 80%, 65%)" />
<circle cx="263.45" cy="299.33" r="4" fill="hsl(224, 80%, 65%)" />
<circle cx="220.70" cy="228.66" r="5" fill="hsl(231, 80%, 65%)" />
<circle cx="301.17" cy="252.26" r="6" fill="hsl(238, 80%, 65%)" />
<circle cx="224.77" cy="289.75" r="2" fill="hsl(245, 80%, 65%)" />
<circle cx="256.23" cy="209.37" r="3" fill="hsl(252, 80%, 65%)" />
<circle cx="287.77" cy="291.02" r="4" fill="hsl(259, 80%, 65%)" />
<circle cx="208.29" cy="251.58" r="5" fill="hsl(266, 80%, 65%)" />
<circle cx="294.66" cy="226.66" r="6" fill="hsl(273, 80%, 65%)" />
<circle cx="247.20" cy="304.36" r="2" fill="hsl(280, 80%, 65%)" />
<circle cx="229.49" cy="213.88" r="3" fill="hsl(287, 80%, 65%)" />
<circle cx="304.58" cy="269.31" r="4" fill="hsl(294, 80%, 65%)" />
<circle cx="210.66" cy="279.27" r="5" fill="hsl(301, 80%, 65%)" />
<circle cx="273.92" cy="207.66" r="6" fill="hsl(308, 80%, 65%)" />
<circle cx="275.66" cy="304.29" r="2" fill="hsl(315, 80%, 65%)" />
<circle cx="208.36" cy="233.42" r="3" fill="hsl(322, 80%, 65%)" />
<circle cx="306.92" cy="240.30" r="4" fill="hsl(329, 80%, 65%)" />
<circle cx="228.77" cy="302.46" r="5" fill="hsl(336, 80%, 65%)" />
<circle cx="244.58" cy="202.81" r="6" fill="hsl(343, 80%, 65%)" />
<circle cx="300.81" cy="287.83" r="2" fill="hsl(350, 80%, 65%)" />
<circle cx="200.92" cy="262.86" r="3" fill="hsl(357, 80%, 65%)" />
<circle cx="292.33" cy="213.32" r="4" fill="hsl(4, 80%, 65%)" />
<circle cx="258.06" cy="312.55" r="5" fill="hsl(11, 80%, 65%)" />
<circle cx="215.91" cy="215.32" r="6" fill="hsl(18, 80%, 65%)" />
<circle cx="313.57" cy="258.94" r="2" fill="hsl(25, 80%, 65%)" />
<circle cx="211.16" cy="293.05" r="3" fill="hsl(32, 80%, 65%)" />
<circle cx="264.11" cy="197.88" r="4" fill="hsl(39, 80%, 65%)" />
<circle cx="289.57" cy="304.75" r="5" fill="hsl(46, 80%, 65%)" />
<circle cx="197.82" cy="242.61" r="6" fill="hsl(53, 80%, 65%)" />
<circle cx="308.38" cy="226.32" r="2" fill="hsl(60, 80%, 65%)" />
<circle cx="237.27" cy="313.74" r="3" fill="hsl(67, 80%, 65%)" />
<circle cx="230.60" cy="200.32" r="4" fill="hsl(74, 80%, 65%)" />
<circle cx="312.79" cy="280.09" r="5" fill="hsl(81, 80%, 65%)" />
<circle cx="197.39" cy="276.76" r="6" fill="hsl(88, 80%, 65%)" />
<circle cx="285.42" cy="200.67" r="2" fill="hsl(95, 80%, 65%)" />
<circle cx="271.80" cy="317.14" r="3" fill="hsl(102, 80%, 65%)" />
<circle cx="202.66" cy="221.33" r="4" fill="hsl(109, 80%, 65%)" />
<circle cx="319.22" cy="245.45" r="5" fill="hsl(116, 80%, 65%)" />
<circle cx="216.22" cy="306.85" r="6" fill="hsl(123, 80%, 65%)" />
<circle cx="250.95" cy="191.17" r="2" fill="hsl(130, 80%, 65%)" />
<circle cx="303.86" cy="300.71" r="3" fill="hsl(137, 80%, 65%)" />
<circle cx="190.05" cy="255.36" r="4" fill="hsl(144, 80%, 65%)" />
<circle cx="305.40" cy="211.62" r="5" fill="hsl(151, 80%, 65%)" />
<circle cx="249.51" cy="322.54" r="6" fill="hsl(158, 80%, 65%)" />
<circle cx="215.57" cy="202.18" r="2" fill="hsl(165, 80%, 65%)" />
<circle cx="322.60" cy="268.45" r="3" fill="hsl(172, 80%, 65%)" />
<circle cx="198.10" cy="292.04" r="4" fill="hsl(179, 80%, 65%)" />
<circle cx="274.47" cy="189.89" r="5" fill="hsl(186, 80%, 65%)" />
<circle cx="287.24" cy="317.62" r="6" fill="hsl(193, 80%, 65%)" />
<circle cx="190.94" cy="231.52" r="2" fill="hsl(200, 80%, 65%)" />
<circle cx="320.92" cy="229.94" r="3" fill="hsl(207, 80%, 65%)" />
<circle cx="225.55" cy="319.45" r="4" fill="hsl(214, 80%, 65%)" />
<circle cx="235.47" cy="188.23" r="5" fill="hsl(221, 80%, 65%)" />
<circle cx="317.28" cy="292.32" r="6" fill="hsl(228, 80%, 65%)" />
<circle cx="185.87" cy="270.70" r="2" fill="hsl(235, 80%, 65%)" />
<circle cx="298.03" cy="197.44" r="3" fill="hsl(242, 80%, 65%)" />
<circle cx="264.61" cy="327.98" r="4" fill="hsl(249, 80%, 65%)" />
<circle cx="200.71" cy="208.47" r="5" fill="hsl(256, 80%, 65%)" />
<circle cx="329.29" cy="253.69" r="6" fill="hsl(263, 80%, 65%)" />
<circle cx="203.23" cy="307.50" r="2" fill="hsl(270, 80%, 65%)" />
<circle cx="260.15" cy="181.97" r="3" fill="hsl(277, 80%, 65%)" />
<circle cx="303.20" cy="313.70" r="4" fill="hsl(284, 80%, 65%)" />
<circle cx="181.82" cy="245.28" r="5" fill="hsl(291, 80%, 65%)" />
<circle cx="318.27" cy="213.57" r="6" fill="hsl(298, 80%, 65%)" />
<circle cx="238.65" cy="329.74" r="2" fill="hsl(305, 80%, 65%)" />
<circle cx="218.78" cy="189.56" r="3" fill="hsl(312, 80%, 65%)" />
<circle cx="328.70" cy="279.98" r="4" fill="hsl(319, 80%, 65%)" />
<circle cx="185.84" cy="287.59" r="5" fill="hsl(326, 80%, 65%)" />
<circle cx="286.55" cy="184.96" r="6" fill="hsl(333, 80%, 65%)" />
<circle cx="281.59" cy="329.39" r="2" fill="hsl(340, 80%, 65%)" />
<circle cx="187.21" cy="218.99" r="3" fill="hsl(347, 80%, 65%)" />
<circle cx="332.10" cy="236.73" r="4" fill="hsl(354, 80%, 65%)" />
<circle cx="212.69" cy="321.93" r="5" fill="hsl(1, 80%, 65%)" />
<circle cx="243.34" cy="177.75" r="6" fill="hsl(8, 80%, 65%)" />
<circle cx="318.49" cy="305.38" r="2" fill="hsl(15, 80%, 65%)" />
<circle cx="176.19" cy="261.83" r="3" fill="hsl(22, 80%, 65%)" />
<circle cx="311.17" cy="197.52" r="4" fill="hsl(29, 80%, 65%)" />
<circle cx="254.82" cy="336.76" r="5" fill="hsl(36, 80%, 65%)" />
<circle cx="202.07" cy="195.37" r="6" fill="hsl(43, 80%, 65%)" />
<circle cx="337.09" cy="264.31" r="2" fill="hsl(50, 80%, 65%)" />
<circle cx="190.29" cy="304.87" r="3" fill="hsl(57, 80%, 65%)" />
<circle cx="271.51" cy="175.22" r="4" fill="hsl(64, 80%, 65%)" />
<circle cx="299.32" cy="326.35" r="5" fill="hsl(71, 80%, 65%)" />
<circle cx="176.18" cy="233.29" r="6" fill="hsl(78, 80%, 65%)" />
<circle cx="330.52" cy="218.67" r="2" fill="hsl(85, 80%, 65%)" />
<circle cx="226.14" cy="334.20" r="3" fill="hsl(92, 80%, 65%)" />
<circle cx="225.06" cy="177.83" r="4" fill="hsl(99, 80%, 65%)" />
<circle cx="331.94" cy="292.90" r="5" fill="hsl(106, 80%, 65%)" />
<circle cx="174.74" cy="280.19" r="6" fill="hsl(113, 80%, 65%)" />
<circle cx="299.76" cy="182.97" r="2" fill="hsl(120, 80%, 65%)" />
<circle cx="273.13" cy="339.76" r="3" fill="hsl(127, 80%, 65%)" />
<circle cx="186.50" cy="205.60" r="4" fill="hsl(134, 80%, 65%)" />
<circle cx="341.64" cy="246.17" r="5" fill="hsl(141, 80%, 65%)" />
<circle cx="199.26" cy="321.36" r="6" fill="hsl(148, 80%, 65%)" />
<circle cx="253.68" cy="169.13" r="2" fill="hsl(155, 80%, 65%)" />
<circle cx="316.63" cy="318.74" r="3" fill="hsl(162, 80%, 65%)" />
<circle cx="168.57" cy="250.67" r="4" fill="hsl(169, 80%, 65%)" />
<circle cx="324.33" cy="200.65" r="5" fill="hsl(176, 80%, 65%)" />
<circle cx="242.95" cy="343.31" r="6" fill="hsl(183, 80%, 65%)" />
<circle cx="206.46" cy="182.52" r="2" fill="hsl(190, 80%, 65%)" />
<circle cx="342.50" cy="276.79" r="3" fill="hsl(197, 80%, 65%)" />
<circle cx="177.88" cy="299.26" r="4" fill="hsl(204, 80%, 65%)" />
<circle cx="284.49" cy="171.01" r="5" fill="hsl(211, 80%, 65%)" />
<circle cx="292.54" cy="338.22" r="6" fill="hsl(218, 80%, 65%)" />
<circle cx="173.21" cy="219.92" r="2" fill="hsl(225, 80%, 65%)" />
<circle cx="341.73" cy="226.57" r="3" fill="hsl(232, 80%, 65%)" />
<circle cx="212.50" cy="335.90" r="4" fill="hsl(239, 80%, 65%)" />
<circle cx="234.02" cy="167.38" r="5" fill="hsl(246, 80%, 65%)" />
<circle cx="332.34" cy="306.68" r="6" fill="hsl(253, 80%, 65%)" />
<circle cx="165.15" cy="270.25" r="2" fill="hsl(260, 80%, 65%)" />
<circle cx="313.57" cy="183.87" r="3" fill="hsl(267, 80%, 65%)" />
<circle cx="262.30" cy="348.40" r="4" fill="hsl(274, 80%, 65%)" />
<circle cx="188.70" cy="191.89" r="5" fill="hsl(281, 80%, 65%)" />
<circle cx="349.25" cy="257.82" r="6" fill="hsl(288, 80%, 65%)" />
<circle cx="185.77" cy="317.86" r="2" fill="hsl(295, 80%, 65%)" />
<circle cx="266.03" cy="162.62" r="3" fill="hsl(302, 80%, 65%)" />
<circle cx="311.87" cy="331.89" r="4" fill="hsl(309, 80%, 65%)" />
<circle cx="163.23" cy="237.72" r="5" fill="hsl(316, 80%, 65%)" />
<circle cx="337.03" cy="206.65" r="6" fill="hsl(323, 80%, 65%)" />
<circle cx="229.50" cy="347.43" r="2" fill="hsl(330, 80%, 65%)" />
<circle cx="213.64" cy="170.40" r="3" fill="hsl(337, 80%, 65%)" />
<circle cx="345.35" cy="290.62" r="4" fill="hsl(344, 80%, 65%)" />
<circle cx="166.44" cy="290.94" r="5" fill="hsl(351, 80%, 65%)" />
<circle cx="298.58" cy="169.45" r="6" fill="hsl(358, 80%, 65%)" />
<circle cx="283.15" cy="348.88" r="2" fill="hsl(5, 80%, 65%)" />
<circle cx="172.97" cy="205.70" r="3" fill="hsl(12, 80%, 65%)" />
<circle cx="351.51" cy="236.95" r="4" fill="hsl(19, 80%, 65%)" />
<circle cx="198.26" cy="334.81" r="5" fill="hsl(26, 80%, 65%)" />
<circle cx="245.30" cy="158.58" r="6" fill="hsl(33, 80%, 65%)" />
<circle cx="329.93" cy="320.81" r="2" fill="hsl(40, 80%, 65%)" />
<circle cx="157.40" cy="258.15" r="3" fill="hsl(47, 80%, 65%)" />
<circle cx="327.47" cy="187.60" r="4" fill="hsl(54, 80%, 65%)" />
<circle cx="249.48" cy="355.02" r="5" fill="hsl(61, 80%, 65%)" />
<circle cx="193.73" cy="178.35" r="6" fill="hsl(68, 80%, 65%)" />
<circle cx="354.67" cy="271.24" r="2" fill="hsl(75, 80%, 65%)" />
<circle cx="172.70" cy="311.58" r="3" fill="hsl(82, 80%, 65%)" />
<circle cx="279.95" cy="158.46" r="4" fill="hsl(89, 80%, 65%)" />
<circle cx="304.37" cy="344.37" r="5" fill="hsl(96, 80%, 65%)" />
<circle cx="160.36" cy="223.42" r="6" fill="hsl(103, 80%, 65%)" />
<circle cx="348.81" cy="215.30" r="2" fill="hsl(110, 80%, 65%)" />
<circle cx="214.94" cy="348.97" r="3" fill="hsl(117, 80%, 65%)" />
<circle cx="223.38" cy="159.43" r="4" fill="hsl(124, 80%, 65%)" />
<circle cx="345.55" cy="305.32" r="5" fill="hsl(131, 80%, 65%)" />
<circle cx="156.37" cy="280.19" r="6" fill="hsl(138, 80%, 65%)" />
<circle cx="313.29" cy="170.62" r="2" fill="hsl(145, 80%, 65%)" />
<circle cx="271.48" cy="357.94" r="3" fill="hsl(152, 80%, 65%)" />
<circle cx="175.50" cy="191.10" r="4" fill="hsl(159, 80%, 65%)" />
<circle cx="359.49" cy="249.46" r="5" fill="hsl(166, 80%, 65%)" />
<circle cx="183.91" cy="330.94" r="6" fill="hsl(173, 80%, 65%)" />
<circle cx="258.54" cy="151.75" r="2" fill="hsl(180, 80%, 65%)" />
<circle cx="324.73" cy="334.80" r="3" fill="hsl(187, 80%, 65%)" />
<circle cx="151.80" cy="244.29" r="4" fill="hsl(194, 80%, 65%)" />
<circle cx="340.98" cy="194.08" r="5" fill="hsl(201, 80%, 65%)" />
<circle cx="235.11" cy="359.34" r="6" fill="hsl(208, 80%, 65%)" />
<circle cx="201.45" cy="165.44" r="2" fill="hsl(215, 80%, 65%)" />
<circle cx="357.67" cy="286.01" r="3" fill="hsl(222, 80%, 65%)" />
<circle cx="160.51" cy="302.67" r="4" fill="hsl(229, 80%, 65%)" />
<circle cx="294.99" cy="156.82" r="5" fill="hsl(236, 80%, 65%)" />
<circle cx="294.35" cy="355.73" r="6" fill="hsl(243, 80%, 65%)" />
<circle cx="160.10" cy="208.24" r="2" fill="hsl(250, 80%, 65%)" />
<circle cx="359.25" cy="226.36" r="3" fill="hsl(257, 80%, 65%)" />
<circle cx="199.74" cy="347.84" r="4" fill="hsl(264, 80%, 65%)" />
<circle cx="235.39" cy="150.01" r="5" fill="hsl(271, 80%, 65%)" />
<circle cx="343.02" cy="320.40" r="6" fill="hsl(278, 80%, 65%)" />
<circle cx="148.06" cy="267.32" r="2" fill="hsl(285, 80%, 65%)" />
<circle cx="328.13" cy="174.53" r="3" fill="hsl(292, 80%, 65%)" />
<circle cx="257.85" cy="365.08" r="4" fill="hsl(299, 80%, 65%)" />
<circle cx="180.77" cy="176.62" r="5" fill="hsl(306, 80%, 65%)" />
<circle cx="365.37" cy="263.73" r="6" fill="hsl(313, 80%, 65%)" />
<circle cx="169.91" cy="324.35" r="2" fill="hsl(320, 80%, 65%)" />
<circle cx="273.35" cy="147.18" r="3" fill="hsl(327, 80%, 65%)" />
<circle cx="316.86" cy="348.19" r="4" fill="hsl(334, 80%, 65%)" />
<circle cx="148.59" cy="229.07" r="5" fill="hsl(341, 80%, 65%)" />
<circle cx="353.64" cy="203.17" r="6" fill="hsl(348, 80%, 65%)" />
<circle cx="219.60" cy="361.16" r="2" fill="hsl(355, 80%, 65%)" />
<circle cx="211.70" cy="153.62" r="3" fill="hsl(2, 80%, 65%)" />
<circle cx="358.07" cy="301.67" r="4" fill="hsl(9, 80%, 65%)" />
<circle cx="149.63" cy="291.36" r="5" fill="hsl(16, 80%, 65%)" />
<circle cx="310.69" cy="157.84" r="6" fill="hsl(23, 80%, 65%)" />
<circle cx="282.04" cy="365.58" r="2" fill="hsl(30, 80%, 65%)" />
<circle cx="162.55" cy="192.64" r="3" fill="hsl(37, 80%, 65%)" />
<circle cx="367.97" cy="239.56" r="4" fill="hsl(44, 80%, 65%)" />
<circle cx="184.38" cy="343.96" r="5" fill="hsl(51, 80%, 65%)" />
<circle cx="249.38" cy="142.49" r="6" fill="hsl(58, 80%, 65%)" />
<circle cx="337.75" cy="335.41" r="2" fill="hsl(65, 80%, 65%)" />
<circle cx="141.82" cy="252.66" r="3" fill="hsl(72, 80%, 65%)" />
<circle cx="342.65" cy="181.16" r="4" fill="hsl(79, 80%, 65%)" />
<circle cx="242.63" cy="369.98" r="5" fill="hsl(86, 80%, 65%)" />
<circle cx="188.72" cy="162.71" r="6" fill="hsl(93, 80%, 65%)" />
<circle cx="368.89" cy="279.39" r="2" fill="hsl(100, 80%, 65%)" />
<circle cx="156.73" cy="315.14" r="3" fill="hsl(107, 80%, 65%)" />
<circle cx="289.32" cy="145.09" r="4" fill="hsl(114, 80%, 65%)" />
<circle cx="306.46" cy="360.52" r="5" fill="hsl(121, 80%, 65%)" />
<circle cx="147.95" cy="212.91" r="6" fill="hsl(128, 80%, 65%)" />
<circle cx="365.02" cy="214.69" r="2" fill="hsl(135, 80%, 65%)" />
<circle cx="203.40" cy="360.34" r="3" fill="hsl(142, 80%, 65%)" />
<circle cx="224.24" cy="143.29" r="4" fill="hsl(149, 80%, 65%)" />
<circle cx="355.78" cy="317.79" r="5" fill="hsl(156, 80%, 65%)" />
<circle cx="140.44" cy="277.88" r="6" fill="hsl(163, 80%, 65%)" />
<circle cx="326.59" cy="161.60" r="2" fill="hsl(170, 80%, 65%)" />
<circle cx="267.75" cy="373.55" r="3" fill="hsl(177, 80%, 65%)" />
<circle cx="167.75" cy="177.09" r="4" fill="hsl(184, 80%, 65%)" />
<circle cx="374.63" cy="254.57" r="5" fill="hsl(191, 80%, 65%)" />
<circle cx="169.31" cy="337.36" r="6" fill="hsl(198, 80%, 65%)" />
<circle cx="264.98" cy="137.19" r="2" fill="hsl(205, 80%, 65%)" />
<circle cx="329.79" cy="349.87" r="3" fill="hsl(212, 80%, 65%)" />
<circle cx="137.93" cy="236.58" r="4" fill="hsl(219, 80%, 65%)" />
<circle cx="356.39" cy="190.43" r="5" fill="hsl(226, 80%, 65%)" />
<circle cx="226.21" cy="372.41" r="6" fill="hsl(233, 80%, 65%)" />
<circle cx="199.22" cy="149.82" r="2" fill="hsl(240, 80%, 65%)" />
<circle cx="369.83" cy="296.02" r="3" fill="hsl(247, 80%, 65%)" />
<circle cx="144.80" cy="303.48" r="4" fill="hsl(254, 80%, 65%)" />
<circle cx="306.03" cy="145.65" r="5" fill="hsl(261, 80%, 65%)" />
<circle cx="293.73" cy="371.40" r="6" fill="hsl(268, 80%, 65%)" />
<circle cx="150.01" cy="196.27" r="2" fill="hsl(275, 80%, 65%)" />
<circle cx="374.74" cy="228.39" r="3" fill="hsl(282, 80%, 65%)" />
<circle cx="186.96" cy="356.77" r="4" fill="hsl(289, 80%, 65%)" />
<circle cx="238.81" cy="134.81" r="5" fill="hsl(296, 80%, 65%)" />
<circle cx="350.73" cy="333.90" r="6" fill="hsl(303, 80%, 65%)" />
<circle cx="133.28" cy="262.56" r="2" fill="hsl(310, 80%, 65%)" />
<circle cx="342.23" cy="168.09" r="3" fill="hsl(317, 80%, 65%)" />
</svg>
