<svg xmlns="http://www.w3.org/2000/svg" width="512" height="512" viewBox="0 0 512 512">
<rect width="100%" height="100%" fill="#0b1020"/>
<circle cx="367" cy="99" r="42" fill="#f8f3c9" opacity="0.95" />
<circle cx="128.0" cy="175.0" r="2.0" fill="white" />
<circle cx="491.0" cy="131.0" r="2.0" fill="white" />
<circle cx="475.0" cy="146.0" r="1.6" fill="white" />
<circle cx="335.0" cy="48.0" r="1.9" fill="white" />
<circle cx="58.0" cy="132.0" r="2.4" fill="white" />
<circle cx="93.0" cy="52.0" r="2.6" fill="white" />
<circle cx="376.0" cy="28.0" r="2.9" fill="white" />
<circle cx="62.0" cy="89.0" r="1.8" fill="white" />
<path d="M 20 430 C 105 424, 176 440, 296 434 S 450 377, 512 407" stroke="#5dade2" stroke-width="8" fill="none" opacity="0.85" />
<line x1="0" y1="390" x2="512" y2="390" stroke="#445566" stroke-width="4" />
<polygon points="198,354 238,294 278,314 298,284 318,304 330,344 298,366 248,370" fill="#1e1e1e" />
<polygon points="273,294 286,272 296,296" fill="#1e1e1e" />
<line x1="328" y1="339" x2="358" y2="314" stroke="#1e1e1e" stroke-width="6" />
</svg>
