<svg xmlns="http://www.w3.org/2000/svg" width="512" height="512" viewBox="0 0 512 512">
<rect width="100%" height="100%" fill="#0b1020"/>
<circle cx="445" cy="62" r="45" fill="#f8f3c9" opacity="0.95" />
<circle cx="442.0" cy="167.0" r="1.8" fill="white" />
<circle cx="215.0" cy="80.0" r="1.9" fill="white" />
<circle cx="342.0" cy="119.0" r="2.8" fill="white" />
<circle cx="431.0" cy="173.0" r="2.3" fill="white" />
<circle cx="302.0" cy="38.0" r="3.2" fill="white" />
<circle cx="388.0" cy="30.0" r="2.4" fill="white" />
<circle cx="218.0" cy="26.0" r="2.8" fill="white" />
<circle cx="410.0" cy="153.0" r="3.2" fill="white" />
<circle cx="437.0" cy="118.0" r="3.1" fill="white" />
<circle cx="213.0" cy="34.0" r="2.7" fill="white" />
<circle cx="20.0" cy="54.0" r="1.5" fill="white" />
<circle cx="133.0" cy="51.0" r="2.1" fill="white" />
<circle cx="422.0" cy="93.0" r="1.6" fill="white" />
<circle cx="309.0" cy="140.0" r="2.6" fill="white" />
<circle cx="259.0" cy="116.0" r="1.6" fill="white" />
<path d="M 20 430 C 104 422, 197 458, 306 425 S 450 383, 512 413" stroke="#5dade2" stroke-width="8" fill="none" opacity="0.85" />
<line x1="0" y1="404" x2="512" y2="404" stroke="#445566" stroke-width="4" />
<polygon points="218,350 258,290 298,310 318,280 338,300 350,340 318,362 268,366" fill="#1e1e1e" />
<polygon points="293,290 306,268 316,292" fill="#1e1e1e" />
<line x1="348" y1="335" x2="378" y2="310" stroke="#1e1e1e" stroke-width="6" />
</svg>
