<svg xmlns="http://www.w3.org/2000/svg" width="512" height="512" viewBox="0 0 512 512">
<rect width="100%" height="100%" fill="#0b1020"/>
<circle cx="403" cy="124" r="55" fill="#f8f3c9" opacity="0.95" />
<circle cx="169.0" cy="99.0" r="2.7" fill="white" />
<circle cx="36.0" cy="147.0" r="3.0" fill="white" />
<circle cx="193.0" cy="50.0" r="1.9" fill="white" />
<circle cx="298.0" cy="35.0" r="3.3" fill="white" />
<circle cx="156.0" cy="97.0" r="1.5" fill="white" />
<circle cx="61.0" cy="66.0" r="2.5" fill="white" />
<circle cx="125.0" cy="157.0" r="3.4" fill="white" />
<circle cx="183.0" cy="68.0" r="2.6" fill="white" />
<circle cx="421.0" cy="124.0" r="2.6" fill="white" />
<circle cx="285.0" cy="39.0" r="1.7" fill="white" />
<circle cx="63.0" cy="51.0" r="3.4" fill="white" />
<path d="M 20 430 C 107 417, 198 449, 318 434 S 450 378, 512 408" stroke="#5dade2" stroke-width="7" fill="none" opacity="0.85" />
<line x1="0" y1="413" x2="512" y2="413" stroke="#445566" stroke-width="3" />
<polygon points="204,353 244,293 284,313 304,283 324,303 336,343 304,365 254,369" fill="#1e1e1e" />
<polygon points="279,293 292,271 302,295" fill="#1e1e1e" />
<line x1="334" y1="338" x2="364" y2="313" stroke="#1e1e1e" stroke-width="6" />
</svg>
