<svg xmlns="http://www.w3.org/2000/svg" width="512" height="512" viewBox="0 0 512 512">
<rect width="100%" height="100%" fill="#0b1020"/>
<circle cx="446" cy="137" r="50" fill="#f8f3c9" opacity="0.95" />
<circle cx="136.0" cy="170.0" r="2.8" fill="white" />
<circle cx="307.0" cy="167.0" r="3.1" fill="white" />
<circle cx="228.0" cy="127.0" r="3.4" fill="white" />
<circle cx="315.0" cy="160.0" r="3.2" fill="white" />
<circle cx="222.0" cy="27.0" r="2.2" fill="white" />
<circle cx="211.0" cy="85.0" r="1.8" fill="white" />
<circle cx="264.0" cy="24.0" r="3.0" fill="white" />
<circle cx="209.0" cy="104.0" r="1.9" fill="white" />
<circle cx="454.0" cy="164.0" r="2.1" fill="white" />
<circle cx="160.0" cy="80.0" r="2.7" fill="white" />
<circle cx="176.0" cy="115.0" r="1.9" fill="white" />
<circle cx="95.0" cy="91.0" r="1.9" fill="white" />
<circle cx="487.0" cy="166.0" r="3.3" fill="white" />
<circle cx="50.0" cy="56.0" r="1.9" fill="white" />
<circle cx="337.0" cy="36.0" r="2.0" fill="white" />
<path d="M 20 430 C 123 422, 173 454, 308 426 S 450 394, 512 424" stroke="#5dade2" stroke-width="6" fill="none" opacity="0.85" />
<line x1="0" y1="405" x2="512" y2="405" stroke="#445566" stroke-width="4" />
<polygon points="141,351 181,291 221,311 241,281 261,301 273,341 241,363 191,367" fill="#1e1e1e" />
<polygon points="216,291 229,269 239,293" fill="#1e1e1e" />
<line x1="271" y1="336" x2="301" y2="311" stroke="#1e1e1e" stroke-width="6" />
</svg>
