<svg xmlns="http://www.w3.org/2000/svg" width="512" height="512" viewBox="0 0 512 512">
<rect width="100%" height="100%" fill="#0b1020"/>
<circle cx="369" cy="87" r="53" fill="#f8f3c9" opacity="0.95" />
<circle cx="430.0" cy="72.0" r="2.9" fill="white" />
<circle cx="79.0" cy="137.0" r="2.2" fill="white" />
<circle cx="172.0" cy="39.0" r="3.1" fill="white" />
<circle cx="280.0" cy="123.0" r="3.1" fill="white" />
<circle cx="47.0" cy="180.0" r="3.3" fill="white" />
<circle cx="253.0" cy="134.0" r="2.6" fill="white" />
<circle cx="69.0" cy="142.0" r="1.6" fill="white" />
<circle cx="242.0" cy="22.0" r="1.6" fill="white" />
<circle cx="182.0" cy="127.0" r="3.2" fill="white" />
<path d="M 20 430 C 114 411, 186 446, 298 435 S 450 377, 512 407" stroke="#5dade2" stroke-width="5" fill="none" opacity="0.85" />
<line x1="0" y1="407" x2="512" y2="407" stroke="#445566" stroke-width="3" />
<polygon points="202,351 242,291 282,311 302,281 322,301 334,341 302,363 252,367" fill="#1e1e1e" />
<polygon points="277,291 290,269 300,293" fill="#1e1e1e" />
<line x1="332" y1="336" x2="362" y2="311" stroke="#1e1e1e" stroke-width="6" />
</svg>
