<svg xmlns="http://www.w3.org/2000/svg" width="512" height="512" viewBox="0 0 512 512">
<rect width="100%" height="100%" fill="#0b1020"/>
<circle cx="426" cy="86" r="55" fill="#f8f3c9" opacity="0.95" />
<circle cx="490.0" cy="171.0" r="3.5" fill="white" />
<circle cx="159.0" cy="147.0" r="1.9" fill="white" />
<circle cx="379.0" cy="156.0" r="2.0" fill="white" />
<circle cx="278.0" cy="135.0" r="2.6" fill="white" />
<circle cx="277.0" cy="147.0" r="1.5" fill="white" />
<circle cx="335.0" cy="152.0" r="1.7" fill="white" />
<circle cx="454.0" cy="91.0" r="2.4" fill="white" />
<circle cx="137.0" cy="79.0" r="2.7" fill="white" />
<circle cx="356.0" cy="134.0" r="2.6" fill="white" />
<path d="M 20 430 C 103 410, 195 443, 297 433 S 450 392, 512 422" stroke="#5dade2" stroke-width="8" fill="none" opacity="0.85" />
<line x1="0" y1="410" x2="512" y2="410" stroke="#445566" stroke-width="3" />
<polygon points="143,362 183,302 223,322 243,292 263,312 275,352 243,374 193,378" fill="#1e1e1e" />
<polygon points="218,302 231,280 241,304" fill="#1e1e1e" />
<line x1="273" y1="347" x2="303" y2="322" stroke="#1e1e1e" stroke-width="6" />
</svg>
