<svg xmlns="http://www.w3.org/2000/svg" width="512" height="512" viewBox="0 0 512 512">
<rect width="100%" height="100%" fill="#0b1020"/>
<circle cx="363" cy="96" r="50" fill="#f8f3c9" opacity="0.95" />
<circle cx="445.0" cy="93.0" r="3.4" fill="white" />
<circle cx="102.0" cy="78.0" r="3.0" fill="white" />
<circle cx="129.0" cy="75.0" r="3.5" fill="white" />
<circle cx="440.0" cy="66.0" r="1.7" fill="white" />
<circle cx="73.0" cy="50.0" r="1.8" fill="white" />
<circle cx="377.0" cy="171.0" r="2.0" fill="white" />
<circle cx="190.0" cy="70.0" r="2.1" fill="white" />
<circle cx="456.0" cy="175.0" r="2.6" fill="white" />
<circle cx="237.0" cy="149.0" r="1.9" fill="white" />
<circle cx="392.0" cy="145.0" r="2.5" fill="white" />
<circle cx="358.0" cy="36.0" r="2.0" fill="white" />
<circle cx="334.0" cy="177.0" r="1.7" fill="white" />
<path d="M 20 430 C 125 422, 194 442, 286 425 S 450 390, 512 420" stroke="#5dade2" stroke-width="6" fill="none" opacity="0.85" />
<line x1="0" y1="401" x2="512" y2="401" stroke="#445566" stroke-width="2" />
<polygon points="154,364 194,304 234,324 254,294 274,314 286,354 254,376 204,380" fill="#1e1e1e" />
<polygon points="229,304 242,282 252,306" fill="#1e1e1e" />
<line x1="284" y1="349" x2="314" y2="324" stroke="#1e1e1e" stroke-width="6" />
</svg>
