<svg xmlns="http://www.w3.org/2000/svg" width="512" height="512" viewBox="0 0 512 512">
<rect width="100%" height="100%" fill="#0b1020"/>
<circle cx="423" cy="79" r="40" fill="#f8f3c9" opacity="0.95" />
<circle cx="337.0" cy="148.0" r="2.5" fill="white" />
<circle cx="472.0" cy="62.0" r="3.2" fill="white" />
<circle cx="392.0" cy="104.0" r="3.1" fill="white" />
<circle cx="228.0" cy="57.0" r="2.0" fill="white" />
<circle cx="229.0" cy="66.0" r="2.6" fill="white" />
<circle cx="282.0" cy="38.0" r="2.8" fill="white" />
<path d="M 20 430 C 103 415, 171 455, 292 428 S 450 393, 512 423" stroke="#5dade2" stroke-width="5" fill="none" opacity="0.85" />
<line x1="0" y1="406" x2="512" y2="406" stroke="#445566" stroke-width="4" />
<polygon points="213,353 253,293 293,313 313,283 333,303 345,343 313,365 263,369" fill="#1e1e1e" />
<polygon points="288,293 301,271 311,295" fill="#1e1e1e" />
<line x1="343" y1="338" x2="373" y2="313" stroke="#1e1e1e" stroke-width="6" />
</svg>
