<svg xmlns="http://www.w3.org/2000/svg" width="512" height="512" viewBox="0 0 512 512">
<rect width="100%" height="100%" fill="#0b1020"/>
<circle cx="362" cy="136" r="45" fill="#f8f3c9" opacity="0.95" />
<circle cx="291.0" cy="63.0" r="3.0" fill="white" />
<circle cx="280.0" cy="31.0" r="1.8" fill="white" />
<circle cx="325.0" cy="66.0" r="2.8" fill="white" />
<circle cx="91.0" cy="176.0" r="3.3" fill="white" />
<circle cx="193.0" cy="78.0" r="2.8" fill="white" />
<path d="M 20 430 C 112 417, 165 460, 304 428 S 450 396, 512 426" stroke="#5dade2" stroke-width="5" fill="none" opacity="0.85" />
<line x1="0" y1="392" x2="512" y2="392" stroke="#445566" stroke-width="4" />
<polygon points="183,354 223,294 263,314 283,284 303,304 315,344 283,366 233,370" fill="#1e1e1e" />
<polygon points="258,294 271,272 281,296" fill="#1e1e1e" />
<line x1="313" y1="339" x2="343" y2="314" stroke="#1e1e1e" stroke-width="6" />
</svg>
