<svg xmlns="http://www.w3.org/2000/svg" width="512" height="512" viewBox="0 0 512 512">
<rect width="100%" height="100%" fill="#0b1020"/>
<circle cx="369" cy="130" r="52" fill="#f8f3c9" opacity="0.95" />
<circle cx="423.0" cy="118.0" r="2.7" fill="white" />
<circle cx="367.0" cy="119.0" r="3.1" fill="white" />
<circle cx="238.0" cy="98.0" r="2.3" fill="white" />
<circle cx="68.0" cy="78.0" r="1.9" fill="white" />
<circle cx="328.0" cy="170.0" r="2.2" fill="white" />
<circle cx="296.0" cy="40.0" r="3.2" fill="white" />
<circle cx="37.0" cy="103.0" r="2.1" fill="white" />
<circle cx="477.0" cy="149.0" r="3.0" fill="white" />
<circle cx="122.0" cy="33.0" r="3.1" fill="white" />
<circle cx="293.0" cy="43.0" r="2.5" fill="white" />
<circle cx="303.0" cy="158.0" r="2.1" fill="white" />
<circle cx="491.0" cy="127.0" r="2.1" fill="white" />
<circle cx="188.0" cy="158.0" r="2.1" fill="white" />
<circle cx="113.0" cy="120.0" r="2.0" fill="white" />
<circle cx="365.0" cy="140.0" r="2.2" fill="white" />
<path d="M 20 430 C 122 410, 188 451, 288 420 S 450 397, 512 427" stroke="#5dade2" stroke-width="7" fill="none" opacity="0.85" />
<line x1="0" y1="396" x2="512" y2="396" stroke="#445566" stroke-width="4" />
<polygon points="187,352 227,292 267,312 287,282 307,302 319,342 287,364 237,368" fill="#1e1e1e" />
<polygon points="262,292 275,270 285,294" fill="#1e1e1e" />
<line x1="317" y1="337" x2="347" y2="312" stroke="#1e1e1e" stroke-width="6" />
</svg>
