<svg xmlns="http://www.w3.org/2000/svg" width="512" height="512" viewBox="0 0 512 512">
<rect width="100%" height="100%" fill="black"/>
<circle cx="256.00" cy="256.00" r="2" fill="hsl(0, 80%, 65%)" />
<circle cx="250.52" cy="261.02" r="3" fill="hsl(7, 80%, 65%)" />
<circle cx="256.92" cy="245.53" r="4" fill="hsl(14, 80%, 65%)" />
<circle cx="263.83" cy="266.21" r="5" fill="hsl(21, 80%, 65%)" />
<circle cx="241.37" cy="253.41" r="6" fill="hsl(28, 80%, 65%)" />
<circle cx="270.02" cy="247.08" r="2" fill="hsl(35, 80%, 65%)" />
<circle cx="251.28" cy="273.57" r="3" fill="hsl(42, 80%, 65%)" />
<circle cx="246.94" cy="238.56" r="4" fill="hsl(49, 80%, 65%)" />
<circle cx="275.74" cy="263.21" r="5" fill="hsl(56, 80%, 65%)" />
<circle cx="235.40" cy="264.50" r="6" fill="hsl(63, 80%, 65%)" />
<circle cx="265.96" cy="234.72" r="2" fill="hsl(70, 80%, 65%)" />
<circle cx="263.37" cy="279.51" r="3" fill="hsl(77, 80%, 65%)" />
<circle cx="233.73" cy="243.10" r="4" fill="hsl(84, 80%, 65%)" />
<circle cx="282.16" cy="250.25" r="5" fill="hsl(91, 80%, 65%)" />
<circle cx="240.01" cy="278.74" r="6" fill="hsl(98, 80%, 65%)" />
<circle cx="252.30" cy="227.47" r="2" fill="hsl(105, 80%, 65%)" />
<circle cx="278.72" cy="275.15" r="3" fill="hsl(112, 80%, 65%)" />
<circle cx="225.40" cy="257.27" r="4" fill="hsl(119, 80%, 65%)" />
<circle cx="278.34" cy="233.77" r="5" fill="hsl(126, 80%, 65%)" />
<circle cx="254.50" cy="288.35" r="6" fill="hsl(133, 80%, 65%)" />
<circle cx="234.71" cy="230.49" r="2" fill="hsl(140, 80%, 65%)" />
<circle cx="289.74" cy="260.54" r="3" fill="hsl(147, 80%, 65%)" />
<circle cx="227.40" cy="275.90" r="4" fill="hsl(154, 80%, 65%)" />
<circle cx="263.82" cy="221.24" r="5" fill="hsl(161, 80%, 65%)" />
<circle cx="274.09" cy="287.58" r="6" fill="hsl(168, 80%, 65%)" />
<circle cx="220.61" cy="244.71" r="2" fill="hsl(175, 80%, 65%)" />
<circle cx="290.39" cy="240.11" r="3" fill="hsl(182, 80%, 65%)" />
<circle cx="241.10" cy="291.61" r="4" fill="hsl(189, 80%, 65%)" />
<circle cx="242.70" cy="219.01" r="5" fill="hsl(196, 80%, 65%)" />
<circle cx="291.41" cy="274.61" r="6" fill="hsl(203, 80%, 65%)" />
<circle cx="216.65" cy="266.37" r="2" fill="hsl(210, 80%, 65%)" />
<circle cx="278.37" cy="221.21" r="3" fill="hsl(217, 80%, 65%)" />
<circle cx="263.12" cy="297.42" r="4" fill="hsl(224, 80%, 65%)" />
<circle cx="222.26" cy="229.87" r="5" fill="hsl(231, 80%, 65%)" />
<circle cx="299.17" cy="252.42" r="6" fill="hsl(238, 80%, 65%)" />
<circle cx="226.15" cy="288.26" r="2" fill="hsl(245, 80%, 65%)" />
<circle cx="256.22" cy="211.43" r="3" fill="hsl(252, 80%, 65%)" />
<circle cx="286.36" cy="289.47" r="4" fill="hsl(259, 80%, 65%)" />
<circle cx="210.40" cy="251.77" r="5" fill="hsl(266, 80%, 65%)" />
<circle cx="292.96" cy="227.95" r="6" fill="hsl(273, 80%, 65%)" />
<circle cx="247.59" cy="302.23" r="2" fill="hsl(280, 80%, 65%)" />
<circle cx="230.66" cy="215.74" r="3" fill="hsl(287, 80%, 65%)" />
<circle cx="302.43" cy="268.73" r="4" fill="hsl(294, 80%, 65%)" />
<circle cx="212.66" cy="278.24" r="5" fill="hsl(301, 80%, 65%)" />
<circle cx="273.13" cy="209.80" r="6" fill="hsl(308, 80%, 65%)" />
<circle cx="274.79" cy="302.16" r="2" fill="hsl(315, 80%, 65%)" />
<circle cx="210.47" cy="234.42" r="3" fill="hsl(322, 80%, 65%)" />
<circle cx="304.67" cy="240.99" r="4" fill="hsl(329, 80%, 65%)" />
<circle cx="229.98" cy="300.41" r="5" fill="hsl(336, 80%, 65%)" />
<circle cx="245.08" cy="205.16" r="6" fill="hsl(343, 80%, 65%)" />
<circle cx="298.83" cy="286.42" r="2" fill="hsl(350, 80%, 65%)" />
<circle cx="203.35" cy="262.56" r="3" fill="hsl(357, 80%, 65%)" />
<circle cx="290.72" cy="215.21" r="4" fill="hsl(4, 80%, 65%)" />
<circle cx="257.97" cy="310.05" r="5" fill="hsl(11, 80%, 65%)" />
<circle cx="217.68" cy="217.12" r="6" fill="hsl(18, 80%, 65%)" />
<circle cx="311.02" cy="258.81" r="2" fill="hsl(25, 80%, 65%)" />
<circle cx="213.14" cy="291.41" r="3" fill="hsl(32, 80%, 65%)" />
<circle cx="263.75" cy="200.45" r="4" fill="hsl(39, 80%, 65%)" />
<circle cx="288.09" cy="302.60" r="5" fill="hsl(46, 80%, 65%)" />
<circle cx="200.39" cy="243.20" r="6" fill="hsl(53, 80%, 65%)" />
<circle cx="306.07" cy="227.63" r="2" fill="hsl(60, 80%, 65%)" />
<circle cx="238.10" cy="311.19" r="3" fill="hsl(67, 80%, 65%)" />
<circle cx="231.72" cy="202.78" r="4" fill="hsl(74, 80%, 65%)" />
<circle cx="310.28" cy="279.03" r="5" fill="hsl(81, 80%, 65%)" />
<circle cx="199.98" cy="275.84" r="6" fill="hsl(88, 80%, 65%)" />
<circle cx="284.12" cy="203.12" r="2" fill="hsl(95, 80%, 65%)" />
<circle cx="271.10" cy="314.43" r="3" fill="hsl(102, 80%, 65%)" />
<circle cx="205.01" cy="222.86" r="4" fill="hsl(109, 80%, 65%)" />
<circle cx="316.43" cy="245.92" r="5" fill="hsl(116, 80%, 65%)" />
<circle cx="217.98" cy="304.60" r="6" fill="hsl(123, 80%, 65%)" />
<circle cx="251.17" cy="194.03" r="2" fill="hsl(130, 80%, 65%)" />
<circle cx="301.74" cy="298.73" r="3" fill="hsl(137, 80%, 65%)" />
<circle cx="192.97" cy="255.38" r="4" fill="hsl(144, 80%, 65%)" />
<circle cx="303.22" cy="213.58" r="5" fill="hsl(151, 80%, 65%)" />
<circle cx="249.79" cy="319.60" r="6" fill="hsl(158, 80%, 65%)" />
<circle cx="217.36" cy="204.56" r="2" fill="hsl(165, 80%, 65%)" />
<circle cx="319.66" cy="267.90" r="3" fill="hsl(172, 80%, 65%)" />
<circle cx="200.66" cy="290.45" r="4" fill="hsl(179, 80%, 65%)" />
<circle cx="273.65" cy="192.81" r="5" fill="hsl(186, 80%, 65%)" />
<circle cx="285.86" cy="314.89" r="6" fill="hsl(193, 80%, 65%)" />
<circle cx="193.81" cy="232.60" r="2" fill="hsl(200, 80%, 65%)" />
<circle cx="318.05" cy="231.09" r="3" fill="hsl(207, 80%, 65%)" />
<circle cx="226.89" cy="316.65" r="4" fill="hsl(214, 80%, 65%)" />
<circle cx="236.38" cy="191.23" r="5" fill="hsl(221, 80%, 65%)" />
<circle cx="314.57" cy="290.71" r="6" fill="hsl(228, 80%, 65%)" />
<circle cx="188.97" cy="270.05" r="2" fill="hsl(235, 80%, 65%)" />
<circle cx="296.17" cy="200.03" r="3" fill="hsl(242, 80%, 65%)" />
<circle cx="264.23" cy="324.80" r="4" fill="hsl(249, 80%, 65%)" />
<circle cx="203.15" cy="210.57" r="5" fill="hsl(256, 80%, 65%)" />
<circle cx="326.05" cy="253.79" r="6" fill="hsl(263, 80%, 65%)" />
<circle cx="205.56" cy="305.22" r="2" fill="hsl(270, 80%, 65%)" />
<circle cx="259.96" cy="185.24" r="3" fill="hsl(277, 80%, 65%)" />
<circle cx="301.12" cy="311.15" r="4" fill="hsl(284, 80%, 65%)" />
<circle cx="185.09" cy="245.75" r="5" fill="hsl(291, 80%, 65%)" />
<circle cx="315.52" cy="215.44" r="6" fill="hsl(298, 80%, 65%)" />
<circle cx="239.42" cy="326.48" r="2" fill="hsl(305, 80%, 65%)" />
<circle cx="220.43" cy="192.50" r="3" fill="hsl(312, 80%, 65%)" />
<circle cx="325.49" cy="278.92" r="4" fill="hsl(319, 80%, 65%)" />
<circle cx="188.94" cy="286.19" r="5" fill="hsl(326, 80%, 65%)" />
<circle cx="285.20" cy="188.10" r="6" fill="hsl(333, 80%, 65%)" />
<circle cx="280.46" cy="326.15" r="2" fill="hsl(340, 80%, 65%)" />
<circle cx="190.25" cy="220.62" r="3" fill="hsl(347, 80%, 65%)" />
<circle cx="328.73" cy="237.58" r="4" fill="hsl(354, 80%, 65%)" />
<circle cx="214.61" cy="319.02" r="5" fill="hsl(1, 80%, 65%)" />
<circle cx="243.90" cy="181.21" r="6" fill="hsl(8, 80%, 65%)" />
<circle cx="315.73" cy="303.20" r="2" fill="hsl(15, 80%, 65%)" />
<circle cx="179.72" cy="261.57" r="3" fill="hsl(22, 80%, 65%)" />
<circle cx="308.73" cy="200.10" r="4" fill="hsl(29, 80%, 65%)" />
<circle cx="254.87" cy="333.20" r="5" fill="hsl(36, 80%, 65%)" />
<circle cx="204.45" cy="198.05" r="6" fill="hsl(43, 80%, 65%)" />
<circle cx="333.51" cy="263.95" r="2" fill="hsl(50, 80%, 65%)" />
<circle cx="193.20" cy="302.71" r="3" fill="hsl(57, 80%, 65%)" />
<circle cx="270.83" cy="178.79" r="4" fill="hsl(64, 80%, 65%)" />
<circle cx="297.41" cy="323.25" r="5" fill="hsl(71, 80%, 65%)" />
<circle cx="179.71" cy="234.29" r="6" fill="hsl(78, 80%, 65%)" />
<circle cx="327.23" cy="220.32" r="2" fill="hsl(85, 80%, 65%)" />
<circle cx="227.46" cy="330.75" r="3" fill="hsl(92, 80%, 65%)" />
<circle cx="226.43" cy="181.28" r="4" fill="hsl(99, 80%, 65%)" />
<circle cx="328.58" cy="291.27" r="5" fill="hsl(106, 80%, 65%)" />
<circle cx="178.33" cy="279.12" r="6" fill="hsl(113, 80%, 65%)" />
<circle cx="297.83" cy="186.19" r="2" fill="hsl(120, 80%, 65%)" />
<circle cx="272.38" cy="336.06" r="3" fill="hsl(127, 80%, 65%)" />
<circle cx="189.57" cy="207.83" r="4" fill="hsl(134, 80%, 65%)" />
<circle cx="337.85" cy="246.61" r="5" fill="hsl(141, 80%, 65%)" />
<circle cx="201.77" cy="318.47" r="6" fill="hsl(148, 80%, 65%)" />
<circle cx="253.78" cy="172.97" r="2" fill="hsl(155, 80%, 65%)" />
<circle cx="313.95" cy="315.96" r="3" fill="hsl(162, 80%, 65%)" />
<circle cx="172.43" cy="250.91" r="4" fill="hsl(169, 80%, 65%)" />
<circle cx="321.31" cy="203.10" r="5" fill="hsl(176, 80%, 65%)" />
<circle cx="243.53" cy="339.45" r="6" fill="hsl(183, 80%, 65%)" />
<circle cx="208.65" cy="185.77" r="2" fill="hsl(190, 80%, 65%)" />
<circle cx="338.67" cy="275.87" r="3" fill="hsl(197, 80%, 65%)" />
<circle cx="181.33" cy="297.35" r="4" fill="hsl(204, 80%, 65%)" />
<circle cx="283.23" cy="174.77" r="5" fill="hsl(211, 80%, 65%)" />
<circle cx="290.92" cy="334.59" r="6" fill="hsl(218, 80%, 65%)" />
<circle cx="176.87" cy="221.51" r="2" fill="hsl(225, 80%, 65%)" />
<circle cx="337.94" cy="227.87" r="3" fill="hsl(232, 80%, 65%)" />
<circle cx="214.42" cy="332.37" r="4" fill="hsl(239, 80%, 65%)" />
<circle cx="234.99" cy="171.30" r="5" fill="hsl(246, 80%, 65%)" />
<circle cx="328.97" cy="304.44" r="6" fill="hsl(253, 80%, 65%)" />
<circle cx="169.16" cy="269.62" r="2" fill="hsl(260, 80%, 65%)" />
<circle cx="311.03" cy="187.05" r="3" fill="hsl(267, 80%, 65%)" />
<circle cx="262.02" cy="344.32" r="4" fill="hsl(274, 80%, 65%)" />
<circle cx="191.68" cy="194.72" r="5" fill="hsl(281, 80%, 65%)" />
<circle cx="345.13" cy="257.74" r="6" fill="hsl(288, 80%, 65%)" />
<circle cx="188.87" cy="315.13" r="2" fill="hsl(295, 80%, 65%)" />
<circle cx="265.59" cy="166.75" r="3" fill="hsl(302, 80%, 65%)" />
<circle cx="309.40" cy="328.54" r="4" fill="hsl(309, 80%, 65%)" />
<circle cx="167.33" cy="238.52" r="5" fill="hsl(316, 80%, 65%)" />
<circle cx="333.45" cy="208.83" r="6" fill="hsl(323, 80%, 65%)" />
<circle cx="230.67" cy="343.39" r="2" fill="hsl(330, 80%, 65%)" />
<circle cx="215.51" cy="174.18" r="3" fill="hsl(337, 80%, 65%)" />
<circle cx="341.40" cy="289.09" r="4" fill="hsl(344, 80%, 65%)" />
<circle cx="170.39" cy="289.40" r="5" fill="hsl(351, 80%, 65%)" />
<circle cx="296.70" cy="173.28" r="6" fill="hsl(358, 80%, 65%)" />
<circle cx="281.95" cy="344.77" r="2" fill="hsl(5, 80%, 65%)" />
<circle cx="176.64" cy="207.92" r="3" fill="hsl(12, 80%, 65%)" />
<circle cx="347.29" cy="237.79" r="4" fill="hsl(19, 80%, 65%)" />
<circle cx="200.81" cy="331.33" r="5" fill="hsl(26, 80%, 65%)" />
<circle cx="245.78" cy="162.88" r="6" fill="hsl(33, 80%, 65%)" />
<circle cx="326.66" cy="317.95" r="2" fill="hsl(40, 80%, 65%)" />
<circle cx="161.76" cy="258.06" r="3" fill="hsl(47, 80%, 65%)" />
<circle cx="324.31" cy="190.62" r="4" fill="hsl(54, 80%, 65%)" />
<circle cx="249.77" cy="350.64" r="5" fill="hsl(61, 80%, 65%)" />
<circle cx="196.48" cy="181.78" r="6" fill="hsl(68, 80%, 65%)" />
<circle cx="350.31" cy="270.57" r="2" fill="hsl(75, 80%, 65%)" />
<circle cx="176.38" cy="309.12" r="3" fill="hsl(82, 80%, 65%)" />
<circle cx="278.89" cy="162.77" r="4" fill="hsl(89, 80%, 65%)" />
<circle cx="302.23" cy="340.46" r="5" fill="hsl(96, 80%, 65%)" />
<circle cx="164.58" cy="224.86" r="6" fill="hsl(103, 80%, 65%)" />
<circle cx="344.71" cy="217.10" r="2" fill="hsl(110, 80%, 65%)" />
<circle cx="216.75" cy="344.87" r="3" fill="hsl(117, 80%, 65%)" />
<circle cx="224.82" cy="163.69" r="4" fill="hsl(124, 80%, 65%)" />
<circle cx="341.59" cy="303.14" r="5" fill="hsl(131, 80%, 65%)" />
<circle cx="160.77" cy="279.12" r="6" fill="hsl(138, 80%, 65%)" />
<circle cx="310.75" cy="174.39" r="2" fill="hsl(145, 80%, 65%)" />
<circle cx="270.79" cy="353.44" r="3" fill="hsl(152, 80%, 65%)" />
<circle cx="179.05" cy="193.97" r="4" fill="hsl(159, 80%, 65%)" />
<circle cx="354.92" cy="249.75" r="5" fill="hsl(166, 80%, 65%)" />
<circle cx="187.09" cy="327.63" r="6" fill="hsl(173, 80%, 65%)" />
<circle cx="258.43" cy="156.36" r="2" fill="hsl(180, 80%, 65%)" />
<circle cx="321.70" cy="331.32" r="3" fill="hsl(187, 80%, 65%)" />
<circle cx="156.41" cy="244.81" r="4" fill="hsl(194, 80%, 65%)" />
<circle cx="337.22" cy="196.82" r="5" fill="hsl(201, 80%, 65%)" />
<circle cx="236.03" cy="354.77" r="6" fill="hsl(208, 80%, 65%)" />
<circle cx="203.86" cy="169.45" r="2" fill="hsl(215, 80%, 65%)" />
<circle cx="353.17" cy="284.68" r="3" fill="hsl(222, 80%, 65%)" />
<circle cx="164.73" cy="300.61" r="4" fill="hsl(229, 80%, 65%)" />
<circle cx="293.27" cy="161.20" r="5" fill="hsl(236, 80%, 65%)" />
<circle cx="292.65" cy="351.33" r="6" fill="hsl(243, 80%, 65%)" />
<circle cx="164.34" cy="210.35" r="2" fill="hsl(250, 80%, 65%)" />
<circle cx="354.68" cy="227.67" r="3" fill="hsl(257, 80%, 65%)" />
<circle cx="202.23" cy="343.78" r="4" fill="hsl(264, 80%, 65%)" />
<circle cx="236.30" cy="154.69" r="5" fill="hsl(271, 80%, 65%)" />
<circle cx="339.17" cy="317.56" r="6" fill="hsl(278, 80%, 65%)" />
<circle cx="152.83" cy="266.82" r="2" fill="hsl(285, 80%, 65%)" />
<circle cx="324.95" cy="178.13" r="3" fill="hsl(292, 80%, 65%)" />
<circle cx="257.77" cy="360.26" r="4" fill="hsl(299, 80%, 65%)" />
<circle cx="184.09" cy="180.13" r="5" fill="hsl(306, 80%, 65%)" />
<circle cx="360.54" cy="263.39" r="6" fill="hsl(313, 80%, 65%)" />
<circle cx="173.72" cy="321.33" r="2" fill="hsl(320, 80%, 65%)" />
<circle cx="272.59" cy="151.99" r="3" fill="hsl(327, 80%, 65%)" />
<circle cx="314.17" cy="344.12" r="4" fill="hsl(334, 80%, 65%)" />
<circle cx="153.33" cy="230.26" r="5" fill="hsl(341, 80%, 65%)" />
<circle cx="349.32" cy="205.51" r="6" fill="hsl(348, 80%, 65%)" />
<circle cx="221.21" cy="356.52" r="2" fill="hsl(355, 80%, 65%)" />
<circle cx="213.65" cy="158.14" r="3" fill="hsl(2, 80%, 65%)" />
<circle cx="353.56" cy="299.66" r="4" fill="hsl(9, 80%, 65%)" />
<circle cx="154.33" cy="289.79" r="5" fill="hsl(16, 80%, 65%)" />
<circle cx="308.27" cy="162.18" r="6" fill="hsl(23, 80%, 65%)" />
<circle cx="280.89" cy="360.74" r="2" fill="hsl(30, 80%, 65%)" />
<circle cx="166.68" cy="195.44" r="3" fill="hsl(37, 80%, 65%)" />
<circle cx="363.02" cy="240.28" r="4" fill="hsl(44, 80%, 65%)" />
<circle cx="187.54" cy="340.08" r="5" fill="hsl(51, 80%, 65%)" />
<circle cx="249.67" cy="147.51" r="6" fill="hsl(58, 80%, 65%)" />
<circle cx="334.13" cy="331.90" r="2" fill="hsl(65, 80%, 65%)" />
<circle cx="146.86" cy="252.80" r="3" fill="hsl(72, 80%, 65%)" />
<circle cx="338.82" cy="184.47" r="4" fill="hsl(79, 80%, 65%)" />
<circle cx="243.22" cy="364.94" r="5" fill="hsl(86, 80%, 65%)" />
<circle cx="191.69" cy="166.83" r="6" fill="hsl(93, 80%, 65%)" />
<circle cx="363.90" cy="278.36" r="2" fill="hsl(100, 80%, 65%)" />
<circle cx="161.12" cy="312.52" r="3" fill="hsl(107, 80%, 65%)" />
<circle cx="287.85" cy="149.99" r="4" fill="hsl(114, 80%, 65%)" />
<circle cx="304.23" cy="355.91" r="5" fill="hsl(121, 80%, 65%)" />
<circle cx="152.72" cy="214.82" r="6" fill="hsl(128, 80%, 65%)" />
<circle cx="360.20" cy="216.51" r="2" fill="hsl(135, 80%, 65%)" />
<circle cx="205.72" cy="355.73" r="3" fill="hsl(142, 80%, 65%)" />
<circle cx="225.64" cy="148.27" r="4" fill="hsl(149, 80%, 65%)" />
<circle cx="351.37" cy="315.06" r="5" fill="hsl(156, 80%, 65%)" />
<circle cx="145.54" cy="276.92" r="6" fill="hsl(163, 80%, 65%)" />
<circle cx="323.47" cy="165.77" r="2" fill="hsl(170, 80%, 65%)" />
<circle cx="267.23" cy="368.35" r="3" fill="hsl(177, 80%, 65%)" />
<circle cx="171.65" cy="180.58" r="4" fill="hsl(184, 80%, 65%)" />
<circle cx="369.39" cy="254.63" r="5" fill="hsl(191, 80%, 65%)" />
<circle cx="173.14" cy="333.77" r="6" fill="hsl(198, 80%, 65%)" />
<circle cx="264.59" cy="142.44" r="2" fill="hsl(205, 80%, 65%)" />
<circle cx="326.53" cy="345.73" r="3" fill="hsl(212, 80%, 65%)" />
</svg>
