<svg xmlns="http://www.w3.org/2000/svg" width="512" height="512" viewBox="0 0 512 512">
<rect width="100%" height="100%" fill="#0b1020"/>
<circle cx="402" cy="123" r="50" fill="#f8f3c9" opacity="0.95" />
<circle cx="103.0" cy="143.0" r="2.5" fill="white" />
<circle cx="149.0" cy="34.0" r="3.1" fill="white" />
<circle cx="400.0" cy="151.0" r="2.5" fill="white" />
<circle cx="411.0" cy="66.0" r="1.6" fill="white" />
<circle cx="253.0" cy="111.0" r="2.6" fill="white" />
<circle cx="489.0" cy="110.0" r="3.1" fill="white" />
<circle cx="168.0" cy="39.0" r="2.5" fill="white" />
<circle cx="214.0" cy="50.0" r="1.7" fill="white" />
<circle cx="142.0" cy="125.0" r="1.5" fill="white" />
<circle cx="153.0" cy="22.0" r="2.9" fill="white" />
<path d="M 20 430 C 115 414, 184 456, 292 425 S 450 403, 512 433" stroke="#5dade2" stroke-width="7" fill="none" opacity="0.85" />
<line x1="0" y1="401" x2="512" y2="401" stroke="#445566" stroke-width="2" />
<polygon points="140,363 180,303 220,323 240,293 260,313 272,353 240,375 190,379" fill="#1e1e1e" />
<polygon points="215,303 228,281 238,305" fill="#1e1e1e" />
<line x1="270" y1="348" x2="300" y2="323" stroke="#1e1e1e" stroke-width="6" />
</svg>
