<svg xmlns="http://www.w3.org/2000/svg" width="512" height="512" viewBox="0 0 512 512">
<rect width="100%" height="100%" fill="#0b1020"/>
<circle cx="436" cy="75" r="56" fill="#f8f3c9" opacity="0.95" />
<circle cx="469.0" cy="34.0" r="2.5" fill="white" />
<circle cx="223.0" cy="133.0" r="2.4" fill="white" />
<circle cx="249.0" cy="137.0" r="2.6" fill="white" />
<circle cx="262.0" cy="116.0" r="3.3" fill="white" />
<circle cx="303.0" cy="161.0" r="2.3" fill="white" />
<circle cx="374.0" cy="69.0" r="1.6" fill="white" />
<circle cx="83.0" cy="75.0" r="1.6" fill="white" />
<path d="M 20 430 C 128 421, 178 456, 296 424 S 450 388, 512 418" stroke="#5dade2" stroke-width="8" fill="none" opacity="0.85" />
<line x1="0" y1="406" x2="512" y2="406" stroke="#445566" stroke-width="2" />
<polygon points="169,364 209,304 249,324 269,294 289,314 301,354 269,376 219,380" fill="#1e1e1e" />
<polygon points="244,304 257,282 267,306" fill="#1e1e1e" />
<line x1="299" y1="349" x2="329" y2="324" stroke="#1e1e1e" stroke-width="6" />
</svg>
