<svg xmlns="http://www.w3.org/2000/svg" width="512" height="512" viewBox="0 0 512 512">
<rect width="100%" height="100%" fill="#0b1020"/>
<circle cx="417" cy="114" r="56" fill="#f8f3c9" opacity="0.95" />
<circle cx="415.0" cy="169.0" r="3.4" fill="white" />
<circle cx="250.0" cy="125.0" r="1.9" fill="white" />
<circle cx="195.0" cy="23.0" r="2.4" fill="white" />
<circle cx="276.0" cy="174.0" r="2.1" fill="white" />
<circle cx="223.0" cy="132.0" r="1.8" fill="white" />
<circle cx="358.0" cy="80.0" r="2.5" fill="white" />
<circle cx="167.0" cy="40.0" r="3.2" fill="white" />
<path d="M 20 430 C 137 413, 179 443, 320 437 S 450 395, 512 425" stroke="#5dade2" stroke-width="5" fill="none" opacity="0.85" />
<line x1="0" y1="386" x2="512" y2="386" stroke="#445566" stroke-width="3" />
<polygon points="190,365 230,305 270,325 290,295 310,315 322,355 290,377 240,381" fill="#1e1e1e" />
<polygon points="265,305 278,283 288,307" fill="#1e1e1e" />
<line x1="320" y1="350" x2="350" y2="325" stroke="#1e1e1e" stroke-width="6" />
</svg>
