<svg xmlns="http://www.w3.org/2000/svg" width="512" height="512" viewBox="0 0 512 512">
<rect width="100%" height="100%" fill="#0b1020"/>
<circle cx="356" cy="120" r="55" fill="#f8f3c9" opacity="0.95" />
<circle cx="81.0" cy="90.0" r="3.4" fill="white" />
<circle cx="218.0" cy="31.0" r="2.5" fill="white" />
<circle cx="49.0" cy="104.0" r="2.2" fill="white" />
<circle cx="258.0" cy="36.0" r="3.4" fill="white" />
<circle cx="29.0" cy="57.0" r="3.3" fill="white" />
<circle cx="253.0" cy="133.0" r="1.9" fill="white" />
<circle cx="93.0" cy="86.0" r="2.3" fill="white" />
<circle cx="300.0" cy="48.0" r="2.2" fill="white" />
<circle cx="204.0" cy="179.0" r="2.2" fill="white" />
<path d="M 20 430 C 109 411, 170 446, 288 426 S 450 399, 512 429" stroke="#5dade2" stroke-width="6" fill="none" opacity="0.85" />
<line x1="0" y1="414" x2="512" y2="414" stroke="#445566" stroke-width="4" />
<polygon points="164,355 204,295 244,315 264,285 284,305 296,345 264,367 214,371" fill="#1e1e1e" />
<polygon points="239,295 252,273 262,297" fill="#1e1e1e" />
<line x1="294" y1="340" x2="324" y2="315" stroke="#1e1e1e" stroke-width="6" />
</svg>
