<svg xmlns="http://www.w3.org/2000/svg" width="512" height="512" viewBox="0 0 512 512">
<rect width="100%" height="100%" fill="#0b1020"/>
<circle cx="439" cy="79" r="54" fill="#f8f3c9" opacity="0.95" />
<circle cx="392.0" cy="44.0" r="2.9" fill="white" />
<circle cx="120.0" cy="29.0" r="1.7" fill="white" />
<circle cx="279.0" cy="122.0" r="2.0" fill="white" />
<circle cx="362.0" cy="107.0" r="1.7" fill="white" />
<circle cx="94.0" cy="27.0" r="2.1" fill="white" />
<circle cx="264.0" cy="46.0" r="2.8" fill="white" />
<circle cx="187.0" cy="137.0" r="3.2" fill="white" />
<circle cx="419.0" cy="38.0" r="2.5" fill="white" />
<circle cx="404.0" cy="29.0" r="1.8" fill="white" />
<circle cx="400.0" cy="23.0" r="3.0" fill="white" />
<circle cx="113.0" cy="29.0" r="1.7" fill="white" />
<circle cx="117.0" cy="30.0" r="2.7" fill="white" />
<path d="M 20 430 C 105 420, 188 452, 305 439 S 450 391, 512 421" stroke="#5dade2" stroke-width="8" fill="none" opacity="0.85" />
<line x1="0" y1="392" x2="512" y2="392" stroke="#445566" stroke-width="4" />
<polygon points="188,357 228,297 268,317 288,287 308,307 320,347 288,369 238,373" fill="#1e1e1e" />
<polygon points="263,297 276,275 286,299" fill="#1e1e1e" />
<line x1="318" y1="342" x2="348" y2="317" stroke="#1e1e1e" stroke-width="6" />
</svg>
