<svg xmlns="http://www.w3.org/2000/svg" width="512" height="512" viewBox="0 0 512 512">
<rect width="100%" height="100%" fill="#0b1020"/>
<circle cx="373" cy="125" r="44" fill="#f8f3c9" opacity="0.95" />
<circle cx="157.0" cy="148.0" r="3.5" fill="white" />
<circle cx="171.0" cy="69.0" r="2.1" fill="white" />
<circle cx="185.0" cy="28.0" r="2.9" fill="white" />
<circle cx="488.0" cy="30.0" r="2.1" fill="white" />
<circle cx="110.0" cy="49.0" r="3.2" fill="white" />
<circle cx="449.0" cy="74.0" r="2.8" fill="white" />
<circle cx="93.0" cy="78.0" r="2.6" fill="white" />
<circle cx="300.0" cy="38.0" r="2.1" fill="white" />
<circle cx="362.0" cy="151.0" r="2.5" fill="white" />
<circle cx="125.0" cy="180.0" r="2.5" fill="white" />
<path d="M 20 430 C 133 426, 172 440, 320 421 S 450 388, 512 418" stroke="#5dade2" stroke-width="6" fill="none" opacity="0.85" />
<line x1="0" y1="397" x2="512" y2="397" stroke="#445566" stroke-width="3" />
<polygon points="179,355 219,295 259,315 279,285 299,305 311,345 279,367 229,371" fill="#1e1e1e" />
<polygon points="254,295 267,273 277,297" fill="#1e1e1e" />
<line x1="309" y1="340" x2="339" y2="315" stroke="#1e1e1e" stroke-width="6" />
</svg>
