<svg xmlns="http://www.w3.org/2000/svg" width="512" height="512" viewBox="0 0 512 512">
<rect width="100%" height="100%" fill="#0b1020"/>
<circle cx="365" cy="100" r="48" fill="#f8f3c9" opacity="0.95" />
<circle cx="350.0" cy="124.0" r="2.5" fill="white" />
<circle cx="339.0" cy="103.0" r="2.7" fill="white" />
<circle cx="99.0" cy="174.0" r="3.1" fill="white" />
<circle cx="410.0" cy="95.0" r="2.0" fill="white" />
<circle cx="383.0" cy="77.0" r="2.7" fill="white" />
<circle cx="95.0" cy="146.0" r="3.5" fill="white" />
<circle cx="97.0" cy="142.0" r="2.2" fill="white" />
<circle cx="394.0" cy="174.0" r="2.3" fill="white" />
<circle cx="110.0" cy="163.0" r="2.9" fill="white" />
<circle cx="439.0" cy="78.0" r="3.4" fill="white" />
<path d="M 20 430 C 139 412, 185 452, 303 429 S 450 379, 512 409" stroke="#5dade2" stroke-width="6" fill="none" opacity="0.85" />
<line x1="0" y1="415" x2="512" y2="415" stroke="#445566" stroke-width="3" />
<polygon points="145,361 185,301 225,321 245,291 265,311 277,351 245,373 195,377" fill="#1e1e1e" />
<polygon points="220,301 233,279 243,303" fill="#1e1e1e" />
<line x1="275" y1="346" x2="305" y2="321" stroke="#1e1e1e" stroke-width="6" />
</svg>
