<svg xmlns="http://www.w3.org/2000/svg" width="512" height="512" viewBox="0 0 512 512">
<rect width="100%" height="100%" fill="#0b1020"/>
<circle cx="352" cy="112" r="49" fill="#f8f3c9" opacity="0.95" />
<circle cx="369.0" cy="91.0" r="3.1" fill="white" />
<circle cx="340.0" cy="127.0" r="3.2" fill="white" />
<circle cx="116.0" cy="83.0" r="2.0" fill="white" />
<circle cx="183.0" cy="141.0" r="1.6" fill="white" />
<circle cx="274.0" cy="121.0" r="2.2" fill="white" />
<circle cx="21.0" cy="119.0" r="2.2" fill="white" />
<circle cx="276.0" cy="32.0" r="2.7" fill="white" />
<circle cx="222.0" cy="165.0" r="3.4" fill="white" />
<circle cx="211.0" cy="22.0" r="2.2" fill="white" />
<circle cx="277.0" cy="178.0" r="2.0" fill="white" />
<circle cx="226.0" cy="108.0" r="3.1" fill="white" />
<circle cx="301.0" cy="37.0" r="1.7" fill="white" />
<circle cx="357.0" cy="63.0" r="1.5" fill="white" />
<circle cx="103.0" cy="87.0" r="1.7" fill="white" />
<path d="M 20 430 C 123 426, 163 456, 319 438 S 450 389, 512 419" stroke="#5dade2" stroke-width="8" fill="none" opacity="0.85" />
<line x1="0" y1="408" x2="512" y2="408" stroke="#445566" stroke-width="4" />
<polygon points="172,357 212,297 252,317 272,287 292,307 304,347 272,369 222,373" fill="#1e1e1e" />
<polygon points="247,297 260,275 270,299" fill="#1e1e1e" />
<line x1="302" y1="342" x2="332" y2="317" stroke="#1e1e1e" stroke-width="6" />
</svg>
