<svg xmlns="http://www.w3.org/2000/svg" width="512" height="512" viewBox="0 0 512 512">
<rect width="100%" height="100%" fill="#0b1020"/>
<circle cx="373" cy="124" r="46" fill="#f8f3c9" opacity="0.95" />
<circle cx="64.0" cy="154.0" r="1.8" fill="white" />
<circle cx="318.0" cy="58.0" r="3.3" fill="white" />
<circle cx="47.0" cy="28.0" r="1.9" fill="white" />
<circle cx="87.0" cy="125.0" r="3.0" fill="white" />
<circle cx="96.0" cy="133.0" r="2.4" fill="white" />
<circle cx="96.0" cy="68.0" r="2.6" fill="white" />
<circle cx="471.0" cy="67.0" r="2.2" fill="white" />
<circle cx="42.0" cy="77.0" r="1.9" fill="white" />
<circle cx="335.0" cy="133.0" r="1.5" fill="white" />
<circle cx="52.0" cy="177.0" r="3.0" fill="white" />
<path d="M 20 430 C 117 426, 199 441, 305 429 S 450 387, 512 417" stroke="#5dade2" stroke-width="6" fill="none" opacity="0.85" />
<line x1="0" y1="393" x2="512" y2="393" stroke="#445566" stroke-width="2" />
<polygon points="149,357 189,297 229,317 249,287 269,307 281,347 249,369 199,373" fill="#1e1e1e" />
<polygon points="224,297 237,275 247,299" fill="#1e1e1e" />
<line x1="279" y1="342" x2="309" y2="317" stroke="#1e1e1e" stroke-width="6" />
</svg>
