<svg xmlns="http://www.w3.org/2000/svg" width="512" height="512" viewBox="0 0 512 512">
<rect width="100%" height="100%" fill="#0b1020"/>
<circle cx="445" cy="101" r="50" fill="#f8f3c9" opacity="0.95" />
<circle cx="462.0" cy="27.0" r="2.6" fill="white" />
<circle cx="351.0" cy="23.0" r="2.1" fill="white" />
<circle cx="401.0" cy="26.0" r="2.4" fill="white" />
<circle cx="136.0" cy="161.0" r="2.7" fill="white" />
<circle cx="368.0" cy="137.0" r="3.1" fill="white" />
<circle cx="70.0" cy="20.0" r="3.4" fill="white" />
<circle cx="464.0" cy="158.0" r="2.4" fill="white" />
<circle cx="457.0" cy="152.0" r="2.4" fill="white" />
<circle cx="188.0" cy="69.0" r="2.3" fill="white" />
<circle cx="187.0" cy="54.0" r="2.5" fill="white" />
<path d="M 20 430 C 127 415, 188 458, 295 427 S 450 389, 512 419" stroke="#5dade2" stroke-width="8" fill="none" opacity="0.85" />
<line x1="0" y1="390" x2="512" y2="390" stroke="#445566" stroke-width="4" />
<polygon points="179,355 219,295 259,315 279,285 299,305 311,345 279,367 229,371" fill="#1e1e1e" />
<polygon points="254,295 267,273 277,297" fill="#1e1e1e" />
<line x1="309" y1="340" x2="339" y2="315" stroke="#1e1e1e" stroke-width="6" />
</svg>
