<svg xmlns="http://www.w3.org/2000/svg" width="512" height="512" viewBox="0 0 512 512">
<rect width="100%" height="100%" fill="#0b1020"/>
<circle cx="404" cy="118" r="45" fill="#f8f3c9" opacity="0.95" />
<circle cx="34.0" cy="93.0" r="1.9" fill="white" />
<circle cx="491.0" cy="27.0" r="3.3" fill="white" />
<circle cx="485.0" cy="113.0" r="1.6" fill="white" />
<circle cx="48.0" cy="112.0" r="2.8" fill="white" />
<circle cx="446.0" cy="26.0" r="2.8" fill="white" />
<circle cx="460.0" cy="104.0" r="2.1" fill="white" />
<circle cx="454.0" cy="75.0" r="3.4" fill="white" />
<circle cx="260.0" cy="116.0" r="3.4" fill="white" />
<circle cx="313.0" cy="144.0" r="1.9" fill="white" />
<path d="M 20 430 C 128 421, 188 440, 317 436 S 450 395, 512 425" stroke="#5dade2" stroke-width="7" fill="none" opacity="0.85" />
<line x1="0" y1="412" x2="512" y2="412" stroke="#445566" stroke-width="3" />
<polygon points="190,363 230,303 270,323 290,293 310,313 322,353 290,375 240,379" fill="#1e1e1e" />
<polygon points="265,303 278,281 288,305" fill="#1e1e1e" />
<line x1="320" y1="348" x2="350" y2="323" stroke="#1e1e1e" stroke-width="6" />
</svg>
