<svg xmlns="http://www.w3.org/2000/svg" width="512" height="512" viewBox="0 0 512 512">
<rect width="100%" height="100%" fill="#0b1020"/>
<circle cx="456" cy="66" r="41" fill="#f8f3c9" opacity="0.95" />
<circle cx="54.0" cy="127.0" r="1.6" fill="white" />
<circle cx="312.0" cy="154.0" r="2.9" fill="white" />
<circle cx="345.0" cy="125.0" r="2.3" fill="white" />
<circle cx="27.0" cy="83.0" r="1.6" fill="white" />
<circle cx="376.0" cy="46.0" r="1.8" fill="white" />
<circle cx="204.0" cy="95.0" r="2.2" fill="white" />
<circle cx="156.0" cy="114.0" r="3.1" fill="white" />
<circle cx="366.0" cy="136.0" r="1.7" fill="white" />
<circle cx="374.0" cy="141.0" r="3.0" fill="white" />
<circle cx="151.0" cy="54.0" r="2.1" fill="white" />
<circle cx="466.0" cy="64.0" r="2.9" fill="white" />
<circle cx="378.0" cy="47.0" r="1.5" fill="white" />
<path d="M 20 430 C 100 421, 164 455, 315 440 S 450 394, 512 424" stroke="#5dade2" stroke-width="8" fill="none" opacity="0.85" />
<line x1="0" y1="404" x2="512" y2="404" stroke="#445566" stroke-width="4" />
<polygon points="220,360 260,300 300,320 320,290 340,310 352,350 320,372 270,376" fill="#1e1e1e" />
<polygon points="295,300 308,278 318,302" fill="#1e1e1e" />
<line x1="350" y1="345" x2="380" y2="320" stroke="#1e1e1e" stroke-width="6" />
</svg>
