<svg xmlns="http://www.w3.org/2000/svg" width="512" height="512" viewBox="0 0 512 512">
<rect width="100%" height="100%" fill="#0b1020"/>
<circle cx="448" cy="62" r="45" fill="#f8f3c9" opacity="0.95" />
<circle cx="155.0" cy="110.0" r="2.6" fill="white" />
<circle cx="269.0" cy="38.0" r="2.3" fill="white" />
<circle cx="184.0" cy="103.0" r="2.2" fill="white" />
<circle cx="349.0" cy="47.0" r="1.7" fill="white" />
<circle cx="407.0" cy="161.0" r="1.6" fill="white" />
<circle cx="112.0" cy="159.0" r="2.0" fill="white" />
<circle cx="346.0" cy="123.0" r="3.1" fill="white" />
<circle cx="407.0" cy="71.0" r="3.3" fill="white" />
<path d="M 20 430 C 119 428, 167 455, 314 439 S 450 379, 512 409" stroke="#5dade2" stroke-width="6" fill="none" opacity="0.85" />
<line x1="0" y1="405" x2="512" y2="405" stroke="#445566" stroke-width="2" />
<polygon points="163,357 203,297 243,317 263,287 283,307 295,347 263,369 213,373" fill="#1e1e1e" />
<polygon points="238,297 251,275 261,299" fill="#1e1e1e" />
<line x1="293" y1="342" x2="323" y2="317" stroke="#1e1e1e" stroke-width="6" />
</svg>
