<svg xmlns="http://www.w3.org/2000/svg" width="512" height="512" viewBox="0 0 512 512">
<rect width="100%" height="100%" fill="#0b1020"/>
<circle cx="443" cy="102" r="46" fill="#f8f3c9" opacity="0.95" />
<circle cx="85.0" cy="53.0" r="1.5" fill="white" />
<circle cx="63.0" cy="142.0" r="1.9" fill="white" />
<circle cx="322.0" cy="59.0" r="2.8" fill="white" />
<circle cx="43.0" cy="162.0" r="3.2" fill="white" />
<circle cx="33.0" cy="31.0" r="1.9" fill="white" />
<path d="M 20 430 C 104 430, 168 453, 286 436 S 450 390, 512 420" stroke="#5dade2" stroke-width="6" fill="none" opacity="0.85" />
<line x1="0" y1="394" x2="512" y2="394" stroke="#445566" stroke-width="4" />
<polygon points="159,361 199,301 239,321 259,291 279,311 291,351 259,373 209,377" fill="#1e1e1e" />
<polygon points="234,301 247,279 257,303" fill="#1e1e1e" />
<line x1="289" y1="346" x2="319" y2="321" stroke="#1e1e1e" stroke-width="6" />
</svg>
