<svg xmlns="http://www.w3.org/2000/svg" width="512" height="512" viewBox="0 0 512 512">
<rect width="100%" height="100%" fill="black"/>
<circle cx="256.00" cy="256.00" r="2" fill="hsl(0, 80%, 65%)" />
<circle cx="250.63" cy="260.92" r="3" fill="hsl(9, 80%, 65%)" />
<circle cx="256.90" cy="245.75" r="4" fill="hsl(18, 80%, 65%)" />
<circle cx="263.67" cy="266.00" r="5" fill="hsl(27, 80%, 65%)" />
<circle cx="241.67" cy="253.46" r="6" fill="hsl(36, 80%, 65%)" />
<circle cx="269.73" cy="247.27" r="2" fill="hsl(45, 80%, 65%)" />
<circle cx="251.37" cy="273.22" r="3" fill="hsl(54, 80%, 65%)" />
<circle cx="247.13" cy="238.91" r="4" fill="hsl(63, 80%, 65%)" />
<circle cx="275.34" cy="263.06" r="5" fill="hsl(72, 80%, 65%)" />
<circle cx="235.82" cy="264.33" r="6" fill="hsl(81, 80%, 65%)" />
<circle cx="265.75" cy="235.16" r="2" fill="hsl(90, 80%, 65%)" />
<circle cx="263.22" cy="279.03" r="3" fill="hsl(99, 80%, 65%)" />
<circle cx="234.19" cy="243.36" r="4" fill="hsl(108, 80%, 65%)" />
<circle cx="281.63" cy="250.37" r="5" fill="hsl(117, 80%, 65%)" />
<circle cx="240.34" cy="278.28" r="6" fill="hsl(126, 80%, 65%)" />
<circle cx="252.38" cy="228.05" r="2" fill="hsl(135, 80%, 65%)" />
<circle cx="278.26" cy="274.76" r="3" fill="hsl(144, 80%, 65%)" />
<circle cx="226.02" cy="257.24" r="4" fill="hsl(153, 80%, 65%)" />
<circle cx="277.89" cy="234.22" r="5" fill="hsl(162, 80%, 65%)" />
<circle cx="254.53" cy="287.69" r="6" fill="hsl(171, 80%, 65%)" />
<circle cx="235.15" cy="231.01" r="2" fill="hsl(180, 80%, 65%)" />
<circle cx="289.05" cy="260.45" r="3" fill="hsl(189, 80%, 65%)" />
<circle cx="227.98" cy="275.50" r="4" fill="hsl(198, 80%, 65%)" />
<circle cx="263.66" cy="221.95" r="5" fill="hsl(207, 80%, 65%)" />
<circle cx="273.73" cy="286.93" r="6" fill="hsl(216, 80%, 65%)" />
<circle cx="221.33" cy="244.94" r="2" fill="hsl(225, 80%, 65%)" />
<circle cx="289.69" cy="240.44" r="3" fill="hsl(234, 80%, 65%)" />
<circle cx="241.40" cy="290.88" r="4" fill="hsl(243, 80%, 65%)" />
<circle cx="242.97" cy="219.76" r="5" fill="hsl(252, 80%, 65%)" />
<circle cx="290.69" cy="274.23" r="6" fill="hsl(261, 80%, 65%)" />
<circle cx="217.45" cy="266.16" r="2" fill="hsl(270, 80%, 65%)" />
<circle cx="277.92" cy="221.92" r="3" fill="hsl(279, 80%, 65%)" />
<circle cx="262.97" cy="296.57" r="4" fill="hsl(288, 80%, 65%)" />
<circle cx="222.95" cy="230.40" r="5" fill="hsl(297, 80%, 65%)" />
<circle cx="298.29" cy="252.50" r="6" fill="hsl(306, 80%, 65%)" />
<circle cx="226.76" cy="287.61" r="2" fill="hsl(315, 80%, 65%)" />
<circle cx="256.21" cy="212.33" r="3" fill="hsl(324, 80%, 65%)" />
<circle cx="285.74" cy="288.79" r="4" fill="hsl(333, 80%, 65%)" />
<circle cx="211.33" cy="251.86" r="5" fill="hsl(342, 80%, 65%)" />
<circle cx="292.20" cy="228.52" r="6" fill="hsl(351, 80%, 65%)" />
<circle cx="247.76" cy="301.29" r="2" fill="hsl(0, 80%, 65%)" />
<circle cx="231.18" cy="216.56" r="3" fill="hsl(9, 80%, 65%)" />
<circle cx="301.49" cy="268.47" r="4" fill="hsl(18, 80%, 65%)" />
<circle cx="213.54" cy="277.79" r="5" fill="hsl(27, 80%, 65%)" />
<circle cx="272.78" cy="210.74" r="6" fill="hsl(36, 80%, 65%)" />
<circle cx="274.41" cy="301.22" r="2" fill="hsl(45, 80%, 65%)" />
<circle cx="211.40" cy="234.86" r="3" fill="hsl(54, 80%, 65%)" />
<circle cx="303.68" cy="241.30" r="4" fill="hsl(63, 80%, 65%)" />
<circle cx="230.51" cy="299.50" r="5" fill="hsl(72, 80%, 65%)" />
<circle cx="245.30" cy="206.19" r="6" fill="hsl(81, 80%, 65%)" />
<circle cx="297.95" cy="285.80" r="2" fill="hsl(90, 80%, 65%)" />
<circle cx="204.43" cy="262.43" r="3" fill="hsl(99, 80%, 65%)" />
<circle cx="290.02" cy="216.04" r="4" fill="hsl(108, 80%, 65%)" />
<circle cx="257.93" cy="308.95" r="5" fill="hsl(117, 80%, 65%)" />
<circle cx="218.46" cy="217.91" r="6" fill="hsl(126, 80%, 65%)" />
<circle cx="309.90" cy="258.76" r="2" fill="hsl(135, 80%, 65%)" />
<circle cx="214.02" cy="290.69" r="3" fill="hsl(144, 80%, 65%)" />
<circle cx="263.59" cy="201.58" r="4" fill="hsl(153, 80%, 65%)" />
<circle cx="287.43" cy="301.65" r="5" fill="hsl(162, 80%, 65%)" />
<circle cx="201.52" cy="243.46" r="6" fill="hsl(171, 80%, 65%)" />
<circle cx="305.05" cy="228.21" r="2" fill="hsl(180, 80%, 65%)" />
<circle cx="238.46" cy="310.07" r="3" fill="hsl(189, 80%, 65%)" />
<circle cx="232.22" cy="203.86" r="4" fill="hsl(198, 80%, 65%)" />
<circle cx="309.18" cy="278.56" r="5" fill="hsl(207, 80%, 65%)" />
<circle cx="201.12" cy="275.44" r="6" fill="hsl(216, 80%, 65%)" />
<circle cx="283.55" cy="204.19" r="2" fill="hsl(225, 80%, 65%)" />
<circle cx="270.79" cy="313.24" r="3" fill="hsl(234, 80%, 65%)" />
<circle cx="206.05" cy="223.54" r="4" fill="hsl(243, 80%, 65%)" />
<circle cx="315.20" cy="246.12" r="5" fill="hsl(252, 80%, 65%)" />
<circle cx="218.75" cy="303.62" r="6" fill="hsl(261, 80%, 65%)" />
<circle cx="251.27" cy="195.29" r="2" fill="hsl(270, 80%, 65%)" />
<circle cx="300.81" cy="297.86" r="3" fill="hsl(279, 80%, 65%)" />
<circle cx="194.25" cy="255.40" r="4" fill="hsl(288, 80%, 65%)" />
<circle cx="302.26" cy="214.45" r="5" fill="hsl(297, 80%, 65%)" />
<circle cx="249.92" cy="318.31" r="6" fill="hsl(306, 80%, 65%)" />
<circle cx="218.14" cy="205.61" r="2" fill="hsl(315, 80%, 65%)" />
<circle cx="318.37" cy="267.66" r="3" fill="hsl(324, 80%, 65%)" />
<circle cx="201.78" cy="289.75" r="4" fill="hsl(333, 80%, 65%)" />
<circle cx="273.29" cy="194.09" r="5" fill="hsl(342, 80%, 65%)" />
<circle cx="285.25" cy="313.69" r="6" fill="hsl(351, 80%, 65%)" />
<circle cx="195.08" cy="233.07" r="2" fill="hsl(0, 80%, 65%)" />
<circle cx="316.79" cy="231.60" r="3" fill="hsl(9, 80%, 65%)" />
<circle cx="227.49" cy="315.42" r="4" fill="hsl(18, 80%, 65%)" />
<circle cx="236.77" cy="192.54" r="5" fill="hsl(27, 80%, 65%)" />
<circle cx="313.38" cy="290.01" r="6" fill="hsl(36, 80%, 65%)" />
<circle cx="190.33" cy="269.77" r="2" fill="hsl(45, 80%, 65%)" />
<circle cx="295.35" cy="201.17" r="3" fill="hsl(54, 80%, 65%)" />
<circle cx="264.07" cy="323.40" r="4" fill="hsl(63, 80%, 65%)" />
<circle cx="204.23" cy="211.50" r="5" fill="hsl(72, 80%, 65%)" />
<circle cx="324.62" cy="253.83" r="6" fill="hsl(81, 80%, 65%)" />
<circle cx="206.59" cy="304.22" r="2" fill="hsl(90, 80%, 65%)" />
<circle cx="259.88" cy="186.68" r="3" fill="hsl(99, 80%, 65%)" />
<circle cx="300.20" cy="310.03" r="4" fill="hsl(108, 80%, 65%)" />
<circle cx="186.54" cy="245.96" r="5" fill="hsl(117, 80%, 65%)" />
<circle cx="314.31" cy="216.27" r="6" fill="hsl(126, 80%, 65%)" />
<circle cx="239.76" cy="325.05" r="2" fill="hsl(135, 80%, 65%)" />
<circle cx="221.15" cy="193.79" r="3" fill="hsl(144, 80%, 65%)" />
<circle cx="324.07" cy="278.45" r="4" fill="hsl(153, 80%, 65%)" />
<circle cx="190.31" cy="285.58" r="5" fill="hsl(162, 80%, 65%)" />
<circle cx="284.61" cy="189.48" r="6" fill="hsl(171, 80%, 65%)" />
<circle cx="279.96" cy="324.72" r="2" fill="hsl(180, 80%, 65%)" />
<circle cx="191.59" cy="221.34" r="3" fill="hsl(189, 80%, 65%)" />
<circle cx="327.25" cy="237.96" r="4" fill="hsl(198, 80%, 65%)" />
<circle cx="215.45" cy="317.73" r="5" fill="hsl(207, 80%, 65%)" />
<circle cx="244.14" cy="182.73" r="6" fill="hsl(216, 80%, 65%)" />
<circle cx="314.51" cy="302.24" r="2" fill="hsl(225, 80%, 65%)" />
<circle cx="181.27" cy="261.46" r="3" fill="hsl(234, 80%, 65%)" />
<circle cx="307.66" cy="201.24" r="4" fill="hsl(243, 80%, 65%)" />
<circle cx="254.89" cy="331.62" r="5" fill="hsl(252, 80%, 65%)" />
<circle cx="205.50" cy="199.23" r="6" fill="hsl(261, 80%, 65%)" />
<circle cx="331.93" cy="263.79" r="2" fill="hsl(270, 80%, 65%)" />
<circle cx="194.47" cy="301.76" r="3" fill="hsl(279, 80%, 65%)" />
<circle cx="270.52" cy="180.36" r="4" fill="hsl(288, 80%, 65%)" />
<circle cx="296.56" cy="321.88" r="5" fill="hsl(297, 80%, 65%)" />
<circle cx="181.26" cy="234.73" r="6" fill="hsl(306, 80%, 65%)" />
<circle cx="325.78" cy="221.05" r="2" fill="hsl(315, 80%, 65%)" />
<circle cx="228.04" cy="329.23" r="3" fill="hsl(324, 80%, 65%)" />
<circle cx="227.03" cy="182.80" r="4" fill="hsl(333, 80%, 65%)" />
<circle cx="327.11" cy="290.55" r="5" fill="hsl(342, 80%, 65%)" />
<circle cx="179.91" cy="278.65" r="6" fill="hsl(351, 80%, 65%)" />
<circle cx="296.98" cy="187.61" r="2" fill="hsl(0, 80%, 65%)" />
<circle cx="272.04" cy="334.43" r="3" fill="hsl(9, 80%, 65%)" />
<circle cx="190.92" cy="208.81" r="4" fill="hsl(18, 80%, 65%)" />
<circle cx="336.19" cy="246.80" r="5" fill="hsl(27, 80%, 65%)" />
<circle cx="202.87" cy="317.20" r="6" fill="hsl(36, 80%, 65%)" />
<circle cx="253.83" cy="174.66" r="2" fill="hsl(45, 80%, 65%)" />
<circle cx="312.77" cy="314.74" r="3" fill="hsl(54, 80%, 65%)" />
<circle cx="174.14" cy="251.01" r="4" fill="hsl(63, 80%, 65%)" />
<circle cx="319.98" cy="204.18" r="5" fill="hsl(72, 80%, 65%)" />
<circle cx="243.78" cy="337.75" r="6" fill="hsl(81, 80%, 65%)" />
<circle cx="209.61" cy="187.20" r="2" fill="hsl(90, 80%, 65%)" />
<circle cx="336.99" cy="275.47" r="3" fill="hsl(99, 80%, 65%)" />
<circle cx="182.85" cy="296.51" r="4" fill="hsl(108, 80%, 65%)" />
<circle cx="282.68" cy="176.42" r="5" fill="hsl(117, 80%, 65%)" />
<circle cx="290.21" cy="332.99" r="6" fill="hsl(126, 80%, 65%)" />
<circle cx="178.48" cy="222.22" r="2" fill="hsl(135, 80%, 65%)" />
<circle cx="336.28" cy="228.45" r="3" fill="hsl(144, 80%, 65%)" />
<circle cx="215.27" cy="330.82" r="4" fill="hsl(153, 80%, 65%)" />
<circle cx="235.42" cy="173.02" r="5" fill="hsl(162, 80%, 65%)" />
<circle cx="327.49" cy="303.46" r="6" fill="hsl(171, 80%, 65%)" />
<circle cx="170.93" cy="269.34" r="2" fill="hsl(180, 80%, 65%)" />
<circle cx="309.91" cy="188.46" r="3" fill="hsl(189, 80%, 65%)" />
<circle cx="261.89" cy="342.52" r="4" fill="hsl(198, 80%, 65%)" />
<circle cx="192.99" cy="195.97" r="5" fill="hsl(207, 80%, 65%)" />
<circle cx="343.32" cy="257.70" r="6" fill="hsl(216, 80%, 65%)" />
<circle cx="190.24" cy="313.93" r="2" fill="hsl(225, 80%, 65%)" />
<circle cx="265.40" cy="168.57" r="3" fill="hsl(234, 80%, 65%)" />
<circle cx="308.31" cy="327.06" r="4" fill="hsl(243, 80%, 65%)" />
<circle cx="169.13" cy="238.88" r="5" fill="hsl(252, 80%, 65%)" />
<circle cx="331.87" cy="209.79" r="6" fill="hsl(261, 80%, 65%)" />
<circle cx="231.19" cy="341.61" r="2" fill="hsl(270, 80%, 65%)" />
<circle cx="216.34" cy="175.85" r="3" fill="hsl(279, 80%, 65%)" />
<circle cx="339.67" cy="288.42" r="4" fill="hsl(288, 80%, 65%)" />
<circle cx="172.13" cy="288.72" r="5" fill="hsl(297, 80%, 65%)" />
<circle cx="295.87" cy="174.96" r="6" fill="hsl(306, 80%, 65%)" />
<circle cx="281.43" cy="342.97" r="2" fill="hsl(315, 80%, 65%)" />
<circle cx="178.26" cy="208.90" r="3" fill="hsl(324, 80%, 65%)" />
<circle cx="345.43" cy="238.16" r="4" fill="hsl(333, 80%, 65%)" />
<circle cx="201.94" cy="329.80" r="5" fill="hsl(342, 80%, 65%)" />
<circle cx="245.98" cy="164.78" r="6" fill="hsl(351, 80%, 65%)" />
<circle cx="325.22" cy="316.69" r="2" fill="hsl(0, 80%, 65%)" />
<circle cx="163.68" cy="258.01" r="3" fill="hsl(9, 80%, 65%)" />
<circle cx="322.92" cy="191.95" r="4" fill="hsl(18, 80%, 65%)" />
<circle cx="249.90" cy="348.72" r="5" fill="hsl(27, 80%, 65%)" />
<circle cx="197.69" cy="183.29" r="6" fill="hsl(36, 80%, 65%)" />
<circle cx="348.39" cy="270.27" r="2" fill="hsl(45, 80%, 65%)" />
<circle cx="178.00" cy="308.04" r="3" fill="hsl(54, 80%, 65%)" />
<circle cx="278.43" cy="164.66" r="4" fill="hsl(63, 80%, 65%)" />
<circle cx="301.29" cy="338.75" r="5" fill="hsl(72, 80%, 65%)" />
<circle cx="166.44" cy="225.49" r="6" fill="hsl(81, 80%, 65%)" />
<circle cx="342.90" cy="217.89" r="2" fill="hsl(90, 80%, 65%)" />
<circle cx="217.55" cy="343.06" r="3" fill="hsl(99, 80%, 65%)" />
<circle cx="225.45" cy="165.57" r="4" fill="hsl(108, 80%, 65%)" />
<circle cx="339.85" cy="302.18" r="5" fill="hsl(117, 80%, 65%)" />
<circle cx="162.71" cy="278.65" r="6" fill="hsl(126, 80%, 65%)" />
<circle cx="309.64" cy="176.05" r="2" fill="hsl(135, 80%, 65%)" />
<circle cx="270.49" cy="351.46" r="3" fill="hsl(144, 80%, 65%)" />
<circle cx="180.62" cy="195.23" r="4" fill="hsl(153, 80%, 65%)" />
<circle cx="352.90" cy="249.87" r="5" fill="hsl(162, 80%, 65%)" />
<circle cx="188.50" cy="326.17" r="6" fill="hsl(171, 80%, 65%)" />
<circle cx="258.38" cy="158.39" r="2" fill="hsl(180, 80%, 65%)" />
<circle cx="320.36" cy="329.79" r="3" fill="hsl(189, 80%, 65%)" />
<circle cx="158.43" cy="245.03" r="4" fill="hsl(198, 80%, 65%)" />
<circle cx="335.57" cy="198.02" r="5" fill="hsl(207, 80%, 65%)" />
<circle cx="236.44" cy="352.76" r="6" fill="hsl(216, 80%, 65%)" />
<circle cx="204.92" cy="171.21" r="2" fill="hsl(225, 80%, 65%)" />
<circle cx="351.20" cy="284.10" r="3" fill="hsl(234, 80%, 65%)" />
<circle cx="166.59" cy="299.70" r="4" fill="hsl(243, 80%, 65%)" />
<circle cx="292.51" cy="163.13" r="5" fill="hsl(252, 80%, 65%)" />
<circle cx="291.91" cy="349.39" r="6" fill="hsl(261, 80%, 65%)" />
<circle cx="166.20" cy="211.28" r="2" fill="hsl(270, 80%, 65%)" />
<circle cx="352.68" cy="228.25" r="3" fill="hsl(279, 80%, 65%)" />
<circle cx="203.32" cy="341.99" r="4" fill="hsl(288, 80%, 65%)" />
<circle cx="236.71" cy="156.75" r="5" fill="hsl(297, 80%, 65%)" />
<circle cx="337.48" cy="316.30" r="6" fill="hsl(306, 80%, 65%)" />
<circle cx="154.93" cy="266.60" r="2" fill="hsl(315, 80%, 65%)" />
<circle cx="323.54" cy="179.72" r="3" fill="hsl(324, 80%, 65%)" />
<circle cx="257.73" cy="358.13" r="4" fill="hsl(333, 80%, 65%)" />
<circle cx="185.56" cy="181.67" r="5" fill="hsl(342, 80%, 65%)" />
<circle cx="358.41" cy="263.24" r="6" fill="hsl(351, 80%, 65%)" />
<circle cx="175.39" cy="320.00" r="2" fill="hsl(0, 80%, 65%)" />
<circle cx="272.25" cy="154.11" r="3" fill="hsl(9, 80%, 65%)" />
<circle cx="312.99" cy="342.32" r="4" fill="hsl(18, 80%, 65%)" />
<circle cx="155.42" cy="230.78" r="5" fill="hsl(27, 80%, 65%)" />
<circle cx="347.42" cy="206.53" r="6" fill="hsl(36, 80%, 65%)" />
<circle cx="221.92" cy="354.47" r="2" fill="hsl(45, 80%, 65%)" />
<circle cx="214.51" cy="160.14" r="3" fill="hsl(54, 80%, 65%)" />
<circle cx="351.58" cy="298.77" r="4" fill="hsl(63, 80%, 65%)" />
<circle cx="156.40" cy="289.11" r="5" fill="hsl(72, 80%, 65%)" />
<circle cx="307.21" cy="164.09" r="6" fill="hsl(81, 80%, 65%)" />
<circle cx="280.39" cy="358.61" r="2" fill="hsl(90, 80%, 65%)" />
<circle cx="168.50" cy="196.67" r="3" fill="hsl(99, 80%, 65%)" />
<circle cx="360.84" cy="240.60" r="4" fill="hsl(108, 80%, 65%)" />
<circle cx="188.93" cy="338.37" r="5" fill="hsl(117, 80%, 65%)" />
<circle cx="249.80" cy="149.72" r="6" fill="hsl(126, 80%, 65%)" />
<circle cx="332.54" cy="330.36" r="2" fill="hsl(135, 80%, 65%)" />
<circle cx="149.08" cy="252.87" r="3" fill="hsl(144, 80%, 65%)" />
<circle cx="337.14" cy="185.93" r="4" fill="hsl(153, 80%, 65%)" />
<circle cx="243.48" cy="362.72" r="5" fill="hsl(162, 80%, 65%)" />
<circle cx="193.00" cy="168.65" r="6" fill="hsl(171, 80%, 65%)" />
<circle cx="361.70" cy="277.91" r="2" fill="hsl(180, 80%, 65%)" />
<circle cx="163.05" cy="311.37" r="3" fill="hsl(189, 80%, 65%)" />
<circle cx="287.20" cy="152.15" r="4" fill="hsl(198, 80%, 65%)" />
<circle cx="303.25" cy="353.87" r="5" fill="hsl(207, 80%, 65%)" />
<circle cx="154.82" cy="215.66" r="6" fill="hsl(216, 80%, 65%)" />
<circle cx="358.08" cy="217.32" r="2" fill="hsl(225, 80%, 65%)" />
<circle cx="206.75" cy="353.70" r="3" fill="hsl(234, 80%, 65%)" />
<circle cx="226.26" cy="150.46" r="4" fill="hsl(243, 80%, 65%)" />
<circle cx="349.43" cy="313.86" r="5" fill="hsl(252, 80%, 65%)" />
<circle cx="147.79" cy="276.49" r="6" fill="hsl(261, 80%, 65%)" />
<circle cx="322.09" cy="167.60" r="2" fill="hsl(270, 80%, 65%)" />
<circle cx="267.00" cy="366.06" r="3" fill="hsl(279, 80%, 65%)" />
<circle cx="173.36" cy="182.11" r="4" fill="hsl(288, 80%, 65%)" />
<circle cx="367.08" cy="254.66" r="5" fill="hsl(297, 80%, 65%)" />
<circle cx="174.82" cy="332.19" r="6" fill="hsl(306, 80%, 65%)" />
<circle cx="264.41" cy="144.75" r="2" fill="hsl(315, 80%, 65%)" />
<circle cx="325.09" cy="343.90" r="3" fill="hsl(324, 80%, 65%)" />
<circle cx="145.45" cy="237.82" r="4" fill="hsl(333, 80%, 65%)" />
<circle cx="350.00" cy="194.60" r="5" fill="hsl(342, 80%, 65%)" />
<circle cx="228.10" cy="365.00" r="6" fill="hsl(351, 80%, 65%)" />
<circle cx="202.83" cy="156.58" r="2" fill="hsl(0, 80%, 65%)" />
<circle cx="362.59" cy="293.47" r="3" fill="hsl(9, 80%, 65%)" />
<circle cx="151.88" cy="300.46" r="4" fill="hsl(18, 80%, 65%)" />
<circle cx="302.84" cy="152.67" r="5" fill="hsl(27, 80%, 65%)" />
<circle cx="291.33" cy="364.05" r="6" fill="hsl(36, 80%, 65%)" />
<circle cx="156.76" cy="200.07" r="2" fill="hsl(45, 80%, 65%)" />
<circle cx="367.18" cy="230.15" r="3" fill="hsl(54, 80%, 65%)" />
<circle cx="191.35" cy="350.36" r="4" fill="hsl(63, 80%, 65%)" />
<circle cx="239.90" cy="142.53" r="5" fill="hsl(72, 80%, 65%)" />
<circle cx="344.70" cy="328.94" r="6" fill="hsl(81, 80%, 65%)" />
<circle cx="141.09" cy="262.14" r="2" fill="hsl(90, 80%, 65%)" />
<circle cx="336.74" cy="173.69" r="3" fill="hsl(99, 80%, 65%)" />
<circle cx="252.06" cy="371.46" r="4" fill="hsl(108, 80%, 65%)" />
<circle cx="180.76" cy="168.02" r="5" fill="hsl(117, 80%, 65%)" />
<circle cx="371.13" cy="270.08" r="6" fill="hsl(126, 80%, 65%)" />
<circle cx="161.41" cy="323.52" r="2" fill="hsl(135, 80%, 65%)" />
<circle cx="280.19" cy="142.09" r="3" fill="hsl(144, 80%, 65%)" />
<circle cx="315.22" cy="356.52" r="4" fill="hsl(153, 80%, 65%)" />
<circle cx="144.21" cy="221.82" r="5" fill="hsl(162, 80%, 65%)" />
<circle cx="361.72" cy="205.60" r="6" fill="hsl(171, 80%, 65%)" />
<circle cx="212.00" cy="364.79" r="2" fill="hsl(180, 80%, 65%)" />
<circle cx="214.87" cy="145.85" r="3" fill="hsl(189, 80%, 65%)" />
<circle cx="360.93" cy="309.54" r="4" fill="hsl(198, 80%, 65%)" />
<circle cx="142.24" cy="287.46" r="5" fill="hsl(207, 80%, 65%)" />
<circle cx="318.75" cy="155.77" r="6" fill="hsl(216, 80%, 65%)" />
<circle cx="277.47" cy="372.51" r="2" fill="hsl(225, 80%, 65%)" />
<circle cx="161.29" cy="184.46" r="3" fill="hsl(234, 80%, 65%)" />
<circle cx="374.39" cy="244.75" r="4" fill="hsl(243, 80%, 65%)" />
<circle cx="176.15" cy="344.43" r="5" fill="hsl(252, 80%, 65%)" />
<circle cx="255.14" cy="136.64" r="6" fill="hsl(261, 80%, 65%)" />
<circle cx="337.41" cy="343.60" r="2" fill="hsl(270, 80%, 65%)" />
<circle cx="136.58" cy="246.38" r="3" fill="hsl(279, 80%, 65%)" />
<circle cx="350.73" cy="182.29" r="4" fill="hsl(288, 80%, 65%)" />
<circle cx="235.91" cy="374.56" r="5" fill="hsl(297, 80%, 65%)" />
<circle cx="190.61" cy="154.82" r="6" fill="hsl(306, 80%, 65%)" />
<circle cx="372.77" cy="286.49" r="2" fill="hsl(315, 80%, 65%)" />
<circle cx="149.10" cy="312.50" r="3" fill="hsl(324, 80%, 65%)" />
</svg>
