<svg xmlns="http://www.w3.org/2000/svg" width="512" height="512" viewBox="0 0 512 512">
<rect width="100%" height="100%" fill="#0b1020"/>
<circle cx="409" cy="138" r="53" fill="#f8f3c9" opacity="0.95" />
<circle cx="190.0" cy="144.0" r="2.3" fill="white" />
<circle cx="462.0" cy="39.0" r="2.6" fill="white" />
<circle cx="79.0" cy="177.0" r="2.6" fill="white" />
<circle cx="307.0" cy="138.0" r="2.1" fill="white" />
<circle cx="380.0" cy="27.0" r="2.4" fill="white" />
<circle cx="419.0" cy="137.0" r="3.4" fill="white" />
<path d="M 20 430 C 131 414, 170 446, 286 423 S 450 377, 512 407" stroke="#5dade2" stroke-width="7" fill="none" opacity="0.85" />
<line x1="0" y1="399" x2="512" y2="399" stroke="#445566" stroke-width="3" />
<polygon points="209,360 249,300 289,320 309,290 329,310 341,350 309,372 259,376" fill="#1e1e1e" />
<polygon points="284,300 297,278 307,302" fill="#1e1e1e" />
<line x1="339" y1="345" x2="369" y2="320" stroke="#1e1e1e" stroke-width="6" />
</svg>
