<svg xmlns="http://www.w3.org/2000/svg" width="512" height="512" viewBox="0 0 512 512">
<rect width="100%" height="100%" fill="black"/>
<circle cx="256.00" cy="256.00" r="2" fill="hsl(0, 80%, 65%)" />
<circle cx="250.36" cy="261.17" r="3" fill="hsl(7, 80%, 65%)" />
<circle cx="256.95" cy="245.21" r="4" fill="hsl(14, 80%, 65%)" />
<circle cx="264.07" cy="266.52" r="5" fill="hsl(21, 80%, 65%)" />
<circle cx="240.92" cy="253.33" r="6" fill="hsl(28, 80%, 65%)" />
<circle cx="270.44" cy="246.81" r="2" fill="hsl(35, 80%, 65%)" />
<circle cx="251.13" cy="274.11" r="3" fill="hsl(42, 80%, 65%)" />
<circle cx="246.66" cy="238.03" r="4" fill="hsl(49, 80%, 65%)" />
<circle cx="276.34" cy="263.43" r="5" fill="hsl(56, 80%, 65%)" />
<circle cx="234.77" cy="264.76" r="6" fill="hsl(63, 80%, 65%)" />
<circle cx="266.26" cy="234.07" r="2" fill="hsl(70, 80%, 65%)" />
<circle cx="263.60" cy="280.23" r="3" fill="hsl(77, 80%, 65%)" />
<circle cx="233.06" cy="242.70" r="4" fill="hsl(84, 80%, 65%)" />
<circle cx="282.96" cy="250.07" r="5" fill="hsl(91, 80%, 65%)" />
<circle cx="239.53" cy="279.43" r="6" fill="hsl(98, 80%, 65%)" />
<circle cx="252.19" cy="226.60" r="2" fill="hsl(105, 80%, 65%)" />
<circle cx="279.42" cy="275.73" r="3" fill="hsl(112, 80%, 65%)" />
<circle cx="224.46" cy="257.30" r="4" fill="hsl(119, 80%, 65%)" />
<circle cx="279.02" cy="233.09" r="5" fill="hsl(126, 80%, 65%)" />
<circle cx="254.46" cy="289.33" r="6" fill="hsl(133, 80%, 65%)" />
<circle cx="234.06" cy="229.71" r="2" fill="hsl(140, 80%, 65%)" />
<circle cx="290.77" cy="260.68" r="3" fill="hsl(147, 80%, 65%)" />
<circle cx="226.53" cy="276.51" r="4" fill="hsl(154, 80%, 65%)" />
<circle cx="264.06" cy="220.18" r="5" fill="hsl(161, 80%, 65%)" />
<circle cx="274.65" cy="288.54" r="6" fill="hsl(168, 80%, 65%)" />
<circle cx="219.53" cy="244.37" r="2" fill="hsl(175, 80%, 65%)" />
<circle cx="291.44" cy="239.63" r="3" fill="hsl(182, 80%, 65%)" />
<circle cx="240.64" cy="292.70" r="4" fill="hsl(189, 80%, 65%)" />
<circle cx="242.29" cy="217.88" r="5" fill="hsl(196, 80%, 65%)" />
<circle cx="292.49" cy="275.18" r="6" fill="hsl(203, 80%, 65%)" />
<circle cx="215.45" cy="266.69" r="2" fill="hsl(210, 80%, 65%)" />
<circle cx="279.05" cy="220.15" r="3" fill="hsl(217, 80%, 65%)" />
<circle cx="263.34" cy="298.68" r="4" fill="hsl(224, 80%, 65%)" />
<circle cx="221.23" cy="229.07" r="5" fill="hsl(231, 80%, 65%)" />
<circle cx="300.49" cy="252.31" r="6" fill="hsl(238, 80%, 65%)" />
<circle cx="225.24" cy="289.25" r="2" fill="hsl(245, 80%, 65%)" />
<circle cx="256.22" cy="210.07" r="3" fill="hsl(252, 80%, 65%)" />
<circle cx="287.29" cy="290.49" r="4" fill="hsl(259, 80%, 65%)" />
<circle cx="209.01" cy="251.64" r="5" fill="hsl(266, 80%, 65%)" />
<circle cx="294.08" cy="227.10" r="6" fill="hsl(273, 80%, 65%)" />
<circle cx="247.33" cy="303.64" r="2" fill="hsl(280, 80%, 65%)" />
<circle cx="229.89" cy="214.51" r="3" fill="hsl(287, 80%, 65%)" />
<circle cx="303.85" cy="269.11" r="4" fill="hsl(294, 80%, 65%)" />
<circle cx="211.34" cy="278.92" r="5" fill="hsl(301, 80%, 65%)" />
<circle cx="273.65" cy="208.39" r="6" fill="hsl(308, 80%, 65%)" />
<circle cx="275.36" cy="303.56" r="2" fill="hsl(315, 80%, 65%)" />
<circle cx="209.08" cy="233.76" r="3" fill="hsl(322, 80%, 65%)" />
<circle cx="306.15" cy="240.54" r="4" fill="hsl(329, 80%, 65%)" />
<circle cx="229.18" cy="301.76" r="5" fill="hsl(336, 80%, 65%)" />
<circle cx="244.75" cy="203.61" r="6" fill="hsl(343, 80%, 65%)" />
<circle cx="300.13" cy="287.35" r="2" fill="hsl(350, 80%, 65%)" />
<circle cx="201.75" cy="262.76" r="3" fill="hsl(357, 80%, 65%)" />
<circle cx="291.78" cy="213.96" r="4" fill="hsl(4, 80%, 65%)" />
<circle cx="258.03" cy="311.70" r="5" fill="hsl(11, 80%, 65%)" />
<circle cx="216.51" cy="215.93" r="6" fill="hsl(18, 80%, 65%)" />
<circle cx="312.70" cy="258.90" r="2" fill="hsl(25, 80%, 65%)" />
<circle cx="211.84" cy="292.49" r="3" fill="hsl(32, 80%, 65%)" />
<circle cx="263.99" cy="198.76" r="4" fill="hsl(39, 80%, 65%)" />
<circle cx="289.06" cy="304.02" r="5" fill="hsl(46, 80%, 65%)" />
<circle cx="198.69" cy="242.81" r="6" fill="hsl(53, 80%, 65%)" />
<circle cx="307.59" cy="226.77" r="2" fill="hsl(60, 80%, 65%)" />
<circle cx="237.55" cy="312.87" r="3" fill="hsl(67, 80%, 65%)" />
<circle cx="230.98" cy="201.16" r="4" fill="hsl(74, 80%, 65%)" />
<circle cx="311.94" cy="279.73" r="5" fill="hsl(81, 80%, 65%)" />
<circle cx="198.27" cy="276.45" r="6" fill="hsl(88, 80%, 65%)" />
<circle cx="284.98" cy="201.51" r="2" fill="hsl(95, 80%, 65%)" />
<circle cx="271.56" cy="316.22" r="3" fill="hsl(102, 80%, 65%)" />
<circle cx="203.46" cy="221.85" r="4" fill="hsl(109, 80%, 65%)" />
<circle cx="318.27" cy="245.61" r="5" fill="hsl(116, 80%, 65%)" />
<circle cx="216.82" cy="306.09" r="6" fill="hsl(123, 80%, 65%)" />
<circle cx="251.02" cy="192.14" r="2" fill="hsl(130, 80%, 65%)" />
<circle cx="303.14" cy="300.04" r="3" fill="hsl(137, 80%, 65%)" />
<circle cx="191.04" cy="255.37" r="4" fill="hsl(144, 80%, 65%)" />
<circle cx="304.66" cy="212.29" r="5" fill="hsl(151, 80%, 65%)" />
<circle cx="249.60" cy="321.54" r="6" fill="hsl(158, 80%, 65%)" />
<circle cx="216.18" cy="202.99" r="2" fill="hsl(165, 80%, 65%)" />
<circle cx="321.60" cy="268.27" r="3" fill="hsl(172, 80%, 65%)" />
<circle cx="198.97" cy="291.50" r="4" fill="hsl(179, 80%, 65%)" />
<circle cx="274.19" cy="190.88" r="5" fill="hsl(186, 80%, 65%)" />
<circle cx="286.77" cy="316.69" r="6" fill="hsl(193, 80%, 65%)" />
<circle cx="191.91" cy="231.88" r="2" fill="hsl(200, 80%, 65%)" />
<circle cx="319.94" cy="230.33" r="3" fill="hsl(207, 80%, 65%)" />
<circle cx="226.01" cy="318.50" r="4" fill="hsl(214, 80%, 65%)" />
<circle cx="235.78" cy="189.25" r="5" fill="hsl(221, 80%, 65%)" />
<circle cx="316.36" cy="291.77" r="6" fill="hsl(228, 80%, 65%)" />
<circle cx="186.92" cy="270.48" r="2" fill="hsl(235, 80%, 65%)" />
<circle cx="297.40" cy="198.32" r="3" fill="hsl(242, 80%, 65%)" />
<circle cx="264.49" cy="326.90" r="4" fill="hsl(249, 80%, 65%)" />
<circle cx="201.54" cy="209.19" r="5" fill="hsl(256, 80%, 65%)" />
<circle cx="328.19" cy="253.72" r="6" fill="hsl(263, 80%, 65%)" />
<circle cx="204.02" cy="306.72" r="2" fill="hsl(270, 80%, 65%)" />
<circle cx="260.08" cy="183.09" r="3" fill="hsl(277, 80%, 65%)" />
<circle cx="302.49" cy="312.83" r="4" fill="hsl(284, 80%, 65%)" />
<circle cx="182.93" cy="245.44" r="5" fill="hsl(291, 80%, 65%)" />
<circle cx="317.34" cy="214.21" r="6" fill="hsl(298, 80%, 65%)" />
<circle cx="238.91" cy="328.63" r="2" fill="hsl(305, 80%, 65%)" />
<circle cx="219.34" cy="190.56" r="3" fill="hsl(312, 80%, 65%)" />
<circle cx="327.60" cy="279.62" r="4" fill="hsl(319, 80%, 65%)" />
<circle cx="186.90" cy="287.11" r="5" fill="hsl(326, 80%, 65%)" />
<circle cx="286.09" cy="186.02" r="6" fill="hsl(333, 80%, 65%)" />
<circle cx="281.21" cy="328.29" r="2" fill="hsl(340, 80%, 65%)" />
<circle cx="188.25" cy="219.54" r="3" fill="hsl(347, 80%, 65%)" />
<circle cx="330.95" cy="237.02" r="4" fill="hsl(354, 80%, 65%)" />
<circle cx="213.34" cy="320.94" r="5" fill="hsl(1, 80%, 65%)" />
<circle cx="243.53" cy="178.93" r="6" fill="hsl(8, 80%, 65%)" />
<circle cx="317.55" cy="304.64" r="2" fill="hsl(15, 80%, 65%)" />
<circle cx="177.39" cy="261.74" r="3" fill="hsl(22, 80%, 65%)" />
<circle cx="310.34" cy="198.40" r="4" fill="hsl(29, 80%, 65%)" />
<circle cx="254.84" cy="335.55" r="5" fill="hsl(36, 80%, 65%)" />
<circle cx="202.88" cy="196.28" r="6" fill="hsl(43, 80%, 65%)" />
<circle cx="335.87" cy="264.19" r="2" fill="hsl(50, 80%, 65%)" />
<circle cx="191.28" cy="304.13" r="3" fill="hsl(57, 80%, 65%)" />
<circle cx="271.28" cy="176.44" r="4" fill="hsl(64, 80%, 65%)" />
<circle cx="298.67" cy="325.30" r="5" fill="hsl(71, 80%, 65%)" />
<circle cx="177.38" cy="233.63" r="6" fill="hsl(78, 80%, 65%)" />
<circle cx="329.40" cy="219.23" r="2" fill="hsl(85, 80%, 65%)" />
<circle cx="226.59" cy="333.03" r="3" fill="hsl(92, 80%, 65%)" />
<circle cx="225.53" cy="179.00" r="4" fill="hsl(99, 80%, 65%)" />
<circle cx="330.80" cy="292.35" r="5" fill="hsl(106, 80%, 65%)" />
<circle cx="175.96" cy="279.82" r="6" fill="hsl(113, 80%, 65%)" />
<circle cx="299.11" cy="184.06" r="2" fill="hsl(120, 80%, 65%)" />
<circle cx="272.88" cy="338.50" r="3" fill="hsl(127, 80%, 65%)" />
<circle cx="187.55" cy="206.36" r="4" fill="hsl(134, 80%, 65%)" />
<circle cx="340.35" cy="246.32" r="5" fill="hsl(141, 80%, 65%)" />
<circle cx="200.11" cy="320.37" r="6" fill="hsl(148, 80%, 65%)" />
<circle cx="253.72" cy="170.44" r="2" fill="hsl(155, 80%, 65%)" />
<circle cx="315.72" cy="317.79" r="3" fill="hsl(162, 80%, 65%)" />
<circle cx="169.89" cy="250.75" r="4" fill="hsl(169, 80%, 65%)" />
<circle cx="323.30" cy="201.49" r="5" fill="hsl(176, 80%, 65%)" />
<circle cx="243.15" cy="341.99" r="6" fill="hsl(183, 80%, 65%)" />
<circle cx="207.20" cy="183.63" r="2" fill="hsl(190, 80%, 65%)" />
<circle cx="341.19" cy="276.48" r="3" fill="hsl(197, 80%, 65%)" />
<circle cx="179.05" cy="298.61" r="4" fill="hsl(204, 80%, 65%)" />
<circle cx="284.06" cy="172.29" r="5" fill="hsl(211, 80%, 65%)" />
<circle cx="291.99" cy="336.98" r="6" fill="hsl(218, 80%, 65%)" />
<circle cx="174.46" cy="220.46" r="2" fill="hsl(225, 80%, 65%)" />
<circle cx="340.44" cy="227.02" r="3" fill="hsl(232, 80%, 65%)" />
<circle cx="213.16" cy="334.70" r="4" fill="hsl(239, 80%, 65%)" />
<circle cx="234.35" cy="168.71" r="5" fill="hsl(246, 80%, 65%)" />
<circle cx="331.20" cy="305.92" r="6" fill="hsl(253, 80%, 65%)" />
<circle cx="166.51" cy="270.03" r="2" fill="hsl(260, 80%, 65%)" />
<circle cx="312.71" cy="184.95" r="3" fill="hsl(267, 80%, 65%)" />
<circle cx="262.20" cy="347.01" r="4" fill="hsl(274, 80%, 65%)" />
<circle cx="189.72" cy="192.86" r="5" fill="hsl(281, 80%, 65%)" />
<circle cx="347.85" cy="257.79" r="6" fill="hsl(288, 80%, 65%)" />
<circle cx="186.82" cy="316.93" r="2" fill="hsl(295, 80%, 65%)" />
<circle cx="265.88" cy="164.03" r="3" fill="hsl(302, 80%, 65%)" />
<circle cx="311.03" cy="330.75" r="4" fill="hsl(309, 80%, 65%)" />
<circle cx="164.62" cy="237.99" r="5" fill="hsl(316, 80%, 65%)" />
<circle cx="335.81" cy="207.39" r="6" fill="hsl(323, 80%, 65%)" />
<circle cx="229.90" cy="346.05" r="2" fill="hsl(330, 80%, 65%)" />
<circle cx="214.28" cy="171.69" r="3" fill="hsl(337, 80%, 65%)" />
<circle cx="344.01" cy="290.10" r="4" fill="hsl(344, 80%, 65%)" />
<circle cx="167.78" cy="290.42" r="5" fill="hsl(351, 80%, 65%)" />
<circle cx="297.94" cy="170.76" r="6" fill="hsl(358, 80%, 65%)" />
<circle cx="282.74" cy="347.48" r="2" fill="hsl(5, 80%, 65%)" />
<circle cx="174.22" cy="206.45" r="3" fill="hsl(12, 80%, 65%)" />
<circle cx="350.07" cy="237.24" r="4" fill="hsl(19, 80%, 65%)" />
<circle cx="199.13" cy="333.63" r="5" fill="hsl(26, 80%, 65%)" />
<circle cx="245.46" cy="160.04" r="6" fill="hsl(33, 80%, 65%)" />
<circle cx="328.81" cy="319.84" r="2" fill="hsl(40, 80%, 65%)" />
<circle cx="158.89" cy="258.12" r="3" fill="hsl(47, 80%, 65%)" />
<circle cx="326.40" cy="188.63" r="4" fill="hsl(54, 80%, 65%)" />
<circle cx="249.58" cy="353.53" r="5" fill="hsl(61, 80%, 65%)" />
<circle cx="194.67" cy="179.52" r="6" fill="hsl(68, 80%, 65%)" />
<circle cx="353.18" cy="271.01" r="2" fill="hsl(75, 80%, 65%)" />
<circle cx="173.95" cy="310.74" r="3" fill="hsl(82, 80%, 65%)" />
<circle cx="279.59" cy="159.92" r="4" fill="hsl(89, 80%, 65%)" />
<circle cx="303.64" cy="343.04" r="5" fill="hsl(96, 80%, 65%)" />
<circle cx="161.79" cy="223.91" r="6" fill="hsl(103, 80%, 65%)" />
<circle cx="347.41" cy="215.91" r="2" fill="hsl(110, 80%, 65%)" />
<circle cx="215.56" cy="347.58" r="3" fill="hsl(117, 80%, 65%)" />
<circle cx="223.87" cy="160.88" r="4" fill="hsl(124, 80%, 65%)" />
<circle cx="344.20" cy="304.58" r="5" fill="hsl(131, 80%, 65%)" />
<circle cx="157.87" cy="279.83" r="6" fill="hsl(138, 80%, 65%)" />
<circle cx="312.42" cy="171.90" r="2" fill="hsl(145, 80%, 65%)" />
<circle cx="271.25" cy="356.41" r="3" fill="hsl(152, 80%, 65%)" />
<circle cx="176.71" cy="192.08" r="4" fill="hsl(159, 80%, 65%)" />
<circle cx="357.93" cy="249.55" r="5" fill="hsl(166, 80%, 65%)" />
<circle cx="184.99" cy="329.81" r="6" fill="hsl(173, 80%, 65%)" />
<circle cx="258.50" cy="153.32" r="2" fill="hsl(180, 80%, 65%)" />
<circle cx="323.70" cy="333.62" r="3" fill="hsl(187, 80%, 65%)" />
<circle cx="153.37" cy="244.46" r="4" fill="hsl(194, 80%, 65%)" />
<circle cx="339.70" cy="195.01" r="5" fill="hsl(201, 80%, 65%)" />
<circle cx="235.42" cy="357.79" r="6" fill="hsl(208, 80%, 65%)" />
<circle cx="202.27" cy="166.81" r="2" fill="hsl(215, 80%, 65%)" />
<circle cx="356.14" cy="285.56" r="3" fill="hsl(222, 80%, 65%)" />
<circle cx="161.95" cy="301.97" r="4" fill="hsl(229, 80%, 65%)" />
<circle cx="294.40" cy="158.31" r="5" fill="hsl(236, 80%, 65%)" />
<circle cx="293.77" cy="354.23" r="6" fill="hsl(243, 80%, 65%)" />
<circle cx="161.54" cy="208.96" r="2" fill="hsl(250, 80%, 65%)" />
<circle cx="357.69" cy="226.81" r="3" fill="hsl(257, 80%, 65%)" />
<circle cx="200.59" cy="346.46" r="4" fill="hsl(264, 80%, 65%)" />
<circle cx="235.70" cy="151.60" r="5" fill="hsl(271, 80%, 65%)" />
<circle cx="341.71" cy="319.43" r="6" fill="hsl(278, 80%, 65%)" />
<circle cx="149.68" cy="267.15" r="2" fill="hsl(285, 80%, 65%)" />
<circle cx="327.05" cy="175.76" r="3" fill="hsl(292, 80%, 65%)" />
<circle cx="257.82" cy="363.43" r="4" fill="hsl(299, 80%, 65%)" />
<circle cx="181.90" cy="177.81" r="5" fill="hsl(306, 80%, 65%)" />
<circle cx="363.73" cy="263.62" r="6" fill="hsl(313, 80%, 65%)" />
<circle cx="171.21" cy="323.32" r="2" fill="hsl(320, 80%, 65%)" />
<circle cx="273.09" cy="148.82" r="3" fill="hsl(327, 80%, 65%)" />
<circle cx="315.95" cy="346.80" r="4" fill="hsl(334, 80%, 65%)" />
<circle cx="150.20" cy="229.47" r="5" fill="hsl(341, 80%, 65%)" />
<circle cx="352.17" cy="203.97" r="6" fill="hsl(348, 80%, 65%)" />
<circle cx="220.15" cy="359.58" r="2" fill="hsl(355, 80%, 65%)" />
<circle cx="212.36" cy="155.16" r="3" fill="hsl(2, 80%, 65%)" />
<circle cx="356.54" cy="300.99" r="4" fill="hsl(9, 80%, 65%)" />
<circle cx="151.23" cy="290.82" r="5" fill="hsl(16, 80%, 65%)" />
<circle cx="309.86" cy="159.32" r="6" fill="hsl(23, 80%, 65%)" />
<circle cx="281.65" cy="363.93" r="2" fill="hsl(30, 80%, 65%)" />
<circle cx="163.96" cy="193.59" r="3" fill="hsl(37, 80%, 65%)" />
<circle cx="366.28" cy="239.81" r="4" fill="hsl(44, 80%, 65%)" />
<circle cx="185.45" cy="342.64" r="5" fill="hsl(51, 80%, 65%)" />
<circle cx="249.48" cy="144.20" r="6" fill="hsl(58, 80%, 65%)" />
<circle cx="336.52" cy="334.21" r="2" fill="hsl(65, 80%, 65%)" />
<circle cx="143.54" cy="252.71" r="3" fill="hsl(72, 80%, 65%)" />
<circle cx="341.35" cy="182.29" r="4" fill="hsl(79, 80%, 65%)" />
<circle cx="242.83" cy="368.26" r="5" fill="hsl(86, 80%, 65%)" />
<circle cx="189.73" cy="164.11" r="6" fill="hsl(93, 80%, 65%)" />
<circle cx="367.19" cy="279.04" r="2" fill="hsl(100, 80%, 65%)" />
<circle cx="158.23" cy="314.25" r="3" fill="hsl(107, 80%, 65%)" />
</svg>
