<svg xmlns="http://www.w3.org/2000/svg" width="512" height="512" viewBox="0 0 512 512">
<rect width="100%" height="100%" fill="#0b1020"/>
<circle cx="365" cy="133" r="42" fill="#f8f3c9" opacity="0.95" />
<circle cx="346.0" cy="69.0" r="3.0" fill="white" />
<circle cx="110.0" cy="95.0" r="2.9" fill="white" />
<circle cx="92.0" cy="45.0" r="1.8" fill="white" />
<circle cx="346.0" cy="157.0" r="3.0" fill="white" />
<circle cx="307.0" cy="135.0" r="1.9" fill="white" />
<circle cx="131.0" cy="100.0" r="1.6" fill="white" />
<circle cx="20.0" cy="147.0" r="2.1" fill="white" />
<circle cx="411.0" cy="30.0" r="1.9" fill="white" />
<circle cx="96.0" cy="108.0" r="2.0" fill="white" />
<circle cx="362.0" cy="172.0" r="3.1" fill="white" />
<path d="M 20 430 C 139 418, 178 448, 296 420 S 450 402, 512 432" stroke="#5dade2" stroke-width="5" fill="none" opacity="0.85" />
<line x1="0" y1="404" x2="512" y2="404" stroke="#445566" stroke-width="4" />
<polygon points="175,357 215,297 255,317 275,287 295,307 307,347 275,369 225,373" fill="#1e1e1e" />
<polygon points="250,297 263,275 273,299" fill="#1e1e1e" />
<line x1="305" y1="342" x2="335" y2="317" stroke="#1e1e1e" stroke-width="6" />
</svg>
