<svg xmlns="http://www.w3.org/2000/svg" width="512" height="512" viewBox="0 0 512 512">
<rect width="100%" height="100%" fill="#0b1020"/>
<circle cx="362" cy="119" r="54" fill="#f8f3c9" opacity="0.95" />
<circle cx="436.0" cy="39.0" r="2.6" fill="white" />
<circle cx="391.0" cy="178.0" r="2.2" fill="white" />
<circle cx="141.0" cy="111.0" r="3.4" fill="white" />
<circle cx="26.0" cy="90.0" r="1.6" fill="white" />
<circle cx="291.0" cy="64.0" r="1.9" fill="white" />
<circle cx="313.0" cy="95.0" r="2.7" fill="white" />
<circle cx="237.0" cy="156.0" r="3.4" fill="white" />
<circle cx="141.0" cy="78.0" r="1.9" fill="white" />
<circle cx="282.0" cy="71.0" r="1.5" fill="white" />
<path d="M 20 430 C 133 428, 165 458, 320 420 S 450 378, 512 408" stroke="#5dade2" stroke-width="5" fill="none" opacity="0.85" />
<line x1="0" y1="399" x2="512" y2="399" stroke="#445566" stroke-width="3" />
<polygon points="202,362 242,302 282,322 302,292 322,312 334,352 302,374 252,378" fill="#1e1e1e" />
<polygon points="277,302 290,280 300,304" fill="#1e1e1e" />
<line x1="332" y1="347" x2="362" y2="322" stroke="#1e1e1e" stroke-width="6" />
</svg>
