<svg xmlns="http://www.w3.org/2000/svg" width="512" height="512" viewBox="0 0 512 512">
<rect width="100%" height="100%" fill="#0b1020"/>
<circle cx="353" cy="69" r="50" fill="#f8f3c9" opacity="0.95" />
<circle cx="202.0" cy="140.0" r="3.2" fill="white" />
<circle cx="330.0" cy="128.0" r="3.1" fill="white" />
<circle cx="97.0" cy="160.0" r="3.3" fill="white" />
<circle cx="152.0" cy="100.0" r="2.6" fill="white" />
<circle cx="150.0" cy="156.0" r="1.8" fill="white" />
<circle cx="216.0" cy="42.0" r="2.6" fill="white" />
<circle cx="334.0" cy="97.0" r="2.7" fill="white" />
<circle cx="356.0" cy="62.0" r="1.6" fill="white" />
<circle cx="457.0" cy="128.0" r="3.0" fill="white" />
<circle cx="95.0" cy="69.0" r="3.4" fill="white" />
<circle cx="253.0" cy="178.0" r="2.1" fill="white" />
<circle cx="52.0" cy="150.0" r="3.2" fill="white" />
<circle cx="421.0" cy="120.0" r="2.1" fill="white" />
<circle cx="401.0" cy="153.0" r="3.3" fill="white" />
<path d="M 20 430 C 140 417, 180 459, 312 439 S 450 387, 512 417" stroke="#5dade2" stroke-width="5" fill="none" opacity="0.85" />
<line x1="0" y1="394" x2="512" y2="394" stroke="#445566" stroke-width="2" />
<polygon points="145,355 185,295 225,315 245,285 265,305 277,345 245,367 195,371" fill="#1e1e1e" />
<polygon points="220,295 233,273 243,297" fill="#1e1e1e" />
<line x1="275" y1="340" x2="305" y2="315" stroke="#1e1e1e" stroke-width="6" />
</svg>
