<svg xmlns="http://www.w3.org/2000/svg" width="512" height="512" viewBox="0 0 512 512">
<rect width="100%" height="100%" fill="#0b1020"/>
<circle cx="417" cy="100" r="52" fill="#f8f3c9" opacity="0.95" />
<circle cx="49.0" cy="73.0" r="2.2" fill="white" />
<circle cx="211.0" cy="165.0" r="2.2" fill="white" />
<circle cx="348.0" cy="139.0" r="3.1" fill="white" />
<circle cx="239.0" cy="83.0" r="2.8" fill="white" />
<circle cx="442.0" cy="169.0" r="2.2" fill="white" />
<circle cx="115.0" cy="26.0" r="3.4" fill="white" />
<circle cx="296.0" cy="126.0" r="3.0" fill="white" />
<path d="M 20 430 C 110 422, 173 441, 308 428 S 450 392, 512 422" stroke="#5dade2" stroke-width="7" fill="none" opacity="0.85" />
<line x1="0" y1="395" x2="512" y2="395" stroke="#445566" stroke-width="4" />
<polygon points="201,361 241,301 281,321 301,291 321,311 333,351 301,373 251,377" fill="#1e1e1e" />
<polygon points="276,301 289,279 299,303" fill="#1e1e1e" />
<line x1="331" y1="346" x2="361" y2="321" stroke="#1e1e1e" stroke-width="6" />
</svg>
