<svg xmlns="http://www.w3.org/2000/svg" width="512" height="512" viewBox="0 0 512 512">
<rect width="100%" height="100%" fill="#0b1020"/>
<circle cx="374" cy="115" r="46" fill="#f8f3c9" opacity="0.95" />
<circle cx="194.0" cy="55.0" r="2.6" fill="white" />
<circle cx="381.0" cy="39.0" r="3.3" fill="white" />
<circle cx="467.0" cy="50.0" r="3.4" fill="white" />
<circle cx="216.0" cy="29.0" r="3.0" fill="white" />
<circle cx="80.0" cy="156.0" r="3.2" fill="white" />
<path d="M 20 430 C 124 430, 177 450, 318 432 S 450 378, 512 408" stroke="#5dade2" stroke-width="8" fill="none" opacity="0.85" />
<line x1="0" y1="393" x2="512" y2="393" stroke="#445566" stroke-width="3" />
<polygon points="184,354 224,294 264,314 284,284 304,304 316,344 284,366 234,370" fill="#1e1e1e" />
<polygon points="259,294 272,272 282,296" fill="#1e1e1e" />
<line x1="314" y1="339" x2="344" y2="314" stroke="#1e1e1e" stroke-width="6" />
</svg>
