<svg xmlns="http://www.w3.org/2000/svg" width="512" height="512" viewBox="0 0 512 512">
<rect width="100%" height="100%" fill="#0b1020"/>
<circle cx="421" cy="89" r="41" fill="#f8f3c9" opacity="0.95" />
<circle cx="487.0" cy="117.0" r="2.8" fill="white" />
<circle cx="59.0" cy="167.0" r="2.3" fill="white" />
<circle cx="196.0" cy="136.0" r="2.9" fill="white" />
<circle cx="181.0" cy="100.0" r="2.6" fill="white" />
<circle cx="277.0" cy="151.0" r="2.1" fill="white" />
<circle cx="144.0" cy="78.0" r="2.4" fill="white" />
<circle cx="21.0" cy="129.0" r="1.8" fill="white" />
<circle cx="264.0" cy="112.0" r="2.5" fill="white" />
<circle cx="181.0" cy="129.0" r="2.1" fill="white" />
<circle cx="164.0" cy="171.0" r="3.0" fill="white" />
<circle cx="344.0" cy="119.0" r="2.6" fill="white" />
<circle cx="277.0" cy="46.0" r="2.8" fill="white" />
<circle cx="184.0" cy="69.0" r="1.8" fill="white" />
<circle cx="204.0" cy="70.0" r="3.1" fill="white" />
<path d="M 20 430 C 140 416, 191 448, 309 433 S 450 385, 512 415" stroke="#5dade2" stroke-width="7" fill="none" opacity="0.85" />
<line x1="0" y1="414" x2="512" y2="414" stroke="#445566" stroke-width="3" />
<polygon points="208,365 248,305 288,325 308,295 328,315 340,355 308,377 258,381" fill="#1e1e1e" />
<polygon points="283,305 296,283 306,307" fill="#1e1e1e" />
<line x1="338" y1="350" x2="368" y2="325" stroke="#1e1e1e" stroke-width="6" />
</svg>
