<svg xmlns="http://www.w3.org/2000/svg" width="512" height="512" viewBox="0 0 512 512">
<rect width="100%" height="100%" fill="#0b1020"/>
<circle cx="451" cy="103" r="52" fill="#f8f3c9" opacity="0.95" />
<circle cx="290.0" cy="72.0" r="1.9" fill="white" />
<circle cx="310.0" cy="55.0" r="1.7" fill="white" />
<circle cx="94.0" cy="57.0" r="2.7" fill="white" />
<circle cx="159.0" cy="76.0" r="3.2" fill="white" />
<circle cx="119.0" cy="131.0" r="3.2" fill="white" />
<circle cx="410.0" cy="60.0" r="2.2" fill="white" />
<circle cx="311.0" cy="117.0" r="3.3" fill="white" />
<circle cx="364.0" cy="77.0" r="2.7" fill="white" />
<circle cx="28.0" cy="45.0" r="2.8" fill="white" />
<circle cx="239.0" cy="110.0" r="2.0" fill="white" />
<circle cx="383.0" cy="53.0" r="3.3" fill="white" />
<circle cx="28.0" cy="131.0" r="2.7" fill="white" />
<circle cx="256.0" cy="161.0" r="1.5" fill="white" />
<circle cx="217.0" cy="110.0" r="1.8" fill="white" />
<path d="M 20 430 C 126 421, 200 459, 291 435 S 450 399, 512 429" stroke="#5dade2" stroke-width="6" fill="none" opacity="0.85" />
<line x1="0" y1="394" x2="512" y2="394" stroke="#445566" stroke-width="2" />
<polygon points="167,356 207,296 247,316 267,286 287,306 299,346 267,368 217,372" fill="#1e1e1e" />
<polygon points="242,296 255,274 265,298" fill="#1e1e1e" />
<line x1="297" y1="341" x2="327" y2="316" stroke="#1e1e1e" stroke-width="6" />
</svg>
