<svg xmlns="http://www.w3.org/2000/svg" width="512" height="512" viewBox="0 0 512 512">
<rect width="100%" height="100%" fill="#0b1020"/>
<circle cx="351" cy="68" r="52" fill="#f8f3c9" opacity="0.95" />
<circle cx="353.0" cy="20.0" r="1.8" fill="white" />
<circle cx="423.0" cy="138.0" r="1.8" fill="white" />
<circle cx="424.0" cy="118.0" r="2.8" fill="white" />
<circle cx="38.0" cy="105.0" r="2.6" fill="white" />
<circle cx="429.0" cy="131.0" r="2.4" fill="white" />
<circle cx="237.0" cy="35.0" r="2.7" fill="white" />
<circle cx="401.0" cy="86.0" r="2.8" fill="white" />
<circle cx="138.0" cy="126.0" r="2.1" fill="white" />
<circle cx="157.0" cy="34.0" r="3.2" fill="white" />
<path d="M 20 430 C 113 413, 161 450, 319 437 S 450 402, 512 432" stroke="#5dade2" stroke-width="6" fill="none" opacity="0.85" />
<line x1="0" y1="408" x2="512" y2="408" stroke="#445566" stroke-width="2" />
<polygon points="206,365 246,305 286,325 306,295 326,315 338,355 306,377 256,381" fill="#1e1e1e" />
<polygon points="281,305 294,283 304,307" fill="#1e1e1e" />
<line x1="336" y1="350" x2="366" y2="325" stroke="#1e1e1e" stroke-width="6" />
</svg>
