<svg xmlns="http://www.w3.org/2000/svg" width="512" height="512" viewBox="0 0 512 512">
<rect width="100%" height="100%" fill="#0b1020"/>
<circle cx="351" cy="68" r="44" fill="#f8f3c9" opacity="0.95" />
<circle cx="213.0" cy="93.0" r="3.2" fill="white" />
<circle cx="48.0" cy="114.0" r="3.5" fill="white" />
<circle cx="440.0" cy="48.0" r="2.2" fill="white" />
<circle cx="293.0" cy="82.0" r="3.5" fill="white" />
<circle cx="233.0" cy="151.0" r="1.7" fill="white" />
<circle cx="299.0" cy="101.0" r="3.3" fill="white" />
<circle cx="124.0" cy="26.0" r="3.3" fill="white" />
<path d="M 20 430 C 133 420, 160 459, 314 431 S 450 377, 512 407" stroke="#5dade2" stroke-width="5" fill="none" opacity="0.85" />
<line x1="0" y1="386" x2="512" y2="386" stroke="#445566" stroke-width="2" />
<polygon points="155,362 195,302 235,322 255,292 275,312 287,352 255,374 205,378" fill="#1e1e1e" />
<polygon points="230,302 243,280 253,304" fill="#1e1e1e" />
<line x1="285" y1="347" x2="315" y2="322" stroke="#1e1e1e" stroke-width="6" />
</svg>
