<svg xmlns="http://www.w3.org/2000/svg" width="512" height="512" viewBox="0 0 512 512">
<rect width="100%" height="100%" fill="#0b1020"/>
<circle cx="433" cy="84" r="48" fill="#f8f3c9" opacity="0.95" />
<circle cx="207.0" cy="112.0" r="2.8" fill="white" />
<circle cx="315.0" cy="79.0" r="3.0" fill="white" />
<circle cx="29.0" cy="142.0" r="2.1" fill="white" />
<circle cx="454.0" cy="108.0" r="2.0" fill="white" />
<circle cx="383.0" cy="49.0" r="1.9" fill="white" />
<circle cx="458.0" cy="81.0" r="2.5" fill="white" />
<circle cx="363.0" cy="76.0" r="2.6" fill="white" />
<circle cx="400.0" cy="158.0" r="2.7" fill="white" />
<path d="M 20 430 C 127 425, 198 449, 308 437 S 450 379, 512 409" stroke="#5dade2" stroke-width="5" fill="none" opacity="0.85" />
<line x1="0" y1="407" x2="512" y2="407" stroke="#445566" stroke-width="4" />
<polygon points="192,362 232,302 272,322 292,292 312,312 324,352 292,374 242,378" fill="#1e1e1e" />
<polygon points="267,302 280,280 290,304" fill="#1e1e1e" />
<line x1="322" y1="347" x2="352" y2="322" stroke="#1e1e1e" stroke-width="6" />
</svg>
