<svg xmlns="http://www.w3.org/2000/svg" width="512" height="512" viewBox="0 0 512 512">
<rect width="100%" height="100%" fill="#0b1020"/>
<circle cx="437" cy="113" r="52" fill="#f8f3c9" opacity="0.95" />
<circle cx="114.0" cy="146.0" r="3.3" fill="white" />
<circle cx="320.0" cy="120.0" r="3.1" fill="white" />
<circle cx="463.0" cy="123.0" r="2.8" fill="white" />
<circle cx="91.0" cy="60.0" r="1.8" fill="white" />
<circle cx="211.0" cy="83.0" r="2.9" fill="white" />
<circle cx="135.0" cy="75.0" r="1.8" fill="white" />
<circle cx="284.0" cy="152.0" r="2.0" fill="white" />
<circle cx="356.0" cy="39.0" r="2.9" fill="white" />
<circle cx="181.0" cy="87.0" r="2.5" fill="white" />
<path d="M 20 430 C 123 429, 195 445, 296 425 S 450 392, 512 422" stroke="#5dade2" stroke-width="6" fill="none" opacity="0.85" />
<line x1="0" y1="387" x2="512" y2="387" stroke="#445566" stroke-width="3" />
<polygon points="210,362 250,302 290,322 310,292 330,312 342,352 310,374 260,378" fill="#1e1e1e" />
<polygon points="285,302 298,280 308,304" fill="#1e1e1e" />
<line x1="340" y1="347" x2="370" y2="322" stroke="#1e1e1e" stroke-width="6" />
</svg>
