<svg xmlns="http://www.w3.org/2000/svg" width="512" height="512" viewBox="0 0 512 512">
<rect width="100%" height="100%" fill="#0b1020"/>
<circle cx="438" cy="96" r="47" fill="#f8f3c9" opacity="0.95" />
<circle cx="426.0" cy="126.0" r="1.6" fill="white" />
<circle cx="203.0" cy="38.0" r="2.8" fill="white" />
<circle cx="201.0" cy="165.0" r="1.7" fill="white" />
<circle cx="455.0" cy="65.0" r="3.1" fill="white" />
<circle cx="379.0" cy="77.0" r="2.8" fill="white" />
<circle cx="273.0" cy="21.0" r="3.1" fill="white" />
<circle cx="229.0" cy="154.0" r="2.6" fill="white" />
<path d="M 20 430 C 134 415, 185 445, 281 440 S 450 391, 512 421" stroke="#5dade2" stroke-width="5" fill="none" opacity="0.85" />
<line x1="0" y1="394" x2="512" y2="394" stroke="#445566" stroke-width="4" />
<polygon points="158,361 198,301 238,321 258,291 278,311 290,351 258,373 208,377" fill="#1e1e1e" />
<polygon points="233,301 246,279 256,303" fill="#1e1e1e" />
<line x1="288" y1="346" x2="318" y2="321" stroke="#1e1e1e" stroke-width="6" />
</svg>
