<svg xmlns="http://www.w3.org/2000/svg" width="512" height="512" viewBox="0 0 512 512">
<rect width="100%" height="100%" fill="#0b1020"/>
<circle cx="393" cy="93" r="54" fill="#f8f3c9" opacity="0.95" />
<circle cx="485.0" cy="24.0" r="3.3" fill="white" />
<circle cx="296.0" cy="45.0" r="1.9" fill="white" />
<circle cx="410.0" cy="48.0" r="2.2" fill="white" />
<circle cx="371.0" cy="180.0" r="2.5" fill="white" />
<circle cx="171.0" cy="127.0" r="1.8" fill="white" />
<circle cx="205.0" cy="59.0" r="2.2" fill="white" />
<circle cx="451.0" cy="46.0" r="3.1" fill="white" />
<circle cx="212.0" cy="67.0" r="3.0" fill="white" />
<circle cx="308.0" cy="169.0" r="2.4" fill="white" />
<circle cx="173.0" cy="63.0" r="2.1" fill="white" />
<circle cx="287.0" cy="166.0" r="2.8" fill="white" />
<circle cx="462.0" cy="162.0" r="2.9" fill="white" />
<circle cx="400.0" cy="141.0" r="2.1" fill="white" />
<circle cx="457.0" cy="61.0" r="3.0" fill="white" />
<path d="M 20 430 C 126 423, 166 443, 281 424 S 450 384, 512 414" stroke="#5dade2" stroke-width="8" fill="none" opacity="0.85" />
<line x1="0" y1="397" x2="512" y2="397" stroke="#445566" stroke-width="2" />
<polygon points="197,364 237,304 277,324 297,294 317,314 329,354 297,376 247,380" fill="#1e1e1e" />
<polygon points="272,304 285,282 295,306" fill="#1e1e1e" />
<line x1="327" y1="349" x2="357" y2="324" stroke="#1e1e1e" stroke-width="6" />
</svg>
