<svg xmlns="http://www.w3.org/2000/svg" width="512" height="512" viewBox="0 0 512 512">
<rect width="100%" height="100%" fill="#0b1020"/>
<circle cx="354" cy="66" r="44" fill="#f8f3c9" opacity="0.95" />
<circle cx="21.0" cy="148.0" r="2.1" fill="white" />
<circle cx="286.0" cy="114.0" r="2.5" fill="white" />
<circle cx="215.0" cy="28.0" r="3.3" fill="white" />
<circle cx="464.0" cy="147.0" r="2.2" fill="white" />
<circle cx="274.0" cy="140.0" r="2.3" fill="white" />
<circle cx="258.0" cy="44.0" r="3.1" fill="white" />
<circle cx="101.0" cy="147.0" r="1.8" fill="white" />
<path d="M 20 430 C 109 414, 187 443, 281 433 S 450 381, 512 411" stroke="#5dade2" stroke-width="6" fill="none" opacity="0.85" />
<line x1="0" y1="410" x2="512" y2="410" stroke="#445566" stroke-width="3" />
<polygon points="209,364 249,304 289,324 309,294 329,314 341,354 309,376 259,380" fill="#1e1e1e" />
<polygon points="284,304 297,282 307,306" fill="#1e1e1e" />
<line x1="339" y1="349" x2="369" y2="324" stroke="#1e1e1e" stroke-width="6" />
</svg>
