<svg xmlns="http://www.w3.org/2000/svg" width="512" height="512" viewBox="0 0 512 512">
<rect width="100%" height="100%" fill="#0b1020"/>
<circle cx="395" cy="84" r="47" fill="#f8f3c9" opacity="0.95" />
<circle cx="481.0" cy="108.0" r="1.8" fill="white" />
<circle cx="476.0" cy="98.0" r="2.6" fill="white" />
<circle cx="220.0" cy="78.0" r="3.2" fill="white" />
<circle cx="395.0" cy="79.0" r="1.8" fill="white" />
<circle cx="331.0" cy="103.0" r="2.6" fill="white" />
<circle cx="141.0" cy="57.0" r="2.8" fill="white" />
<circle cx="437.0" cy="46.0" r="3.4" fill="white" />
<circle cx="71.0" cy="59.0" r="3.1" fill="white" />
<circle cx="421.0" cy="25.0" r="3.4" fill="white" />
<circle cx="472.0" cy="56.0" r="2.2" fill="white" />
<circle cx="344.0" cy="133.0" r="2.9" fill="white" />
<circle cx="85.0" cy="141.0" r="2.3" fill="white" />
<circle cx="404.0" cy="176.0" r="2.7" fill="white" />
<circle cx="485.0" cy="121.0" r="3.1" fill="white" />
<circle cx="192.0" cy="64.0" r="2.6" fill="white" />
<path d="M 20 430 C 126 423, 197 450, 317 439 S 450 399, 512 429" stroke="#5dade2" stroke-width="5" fill="none" opacity="0.85" />
<line x1="0" y1="392" x2="512" y2="392" stroke="#445566" stroke-width="3" />
<polygon points="205,361 245,301 285,321 305,291 325,311 337,351 305,373 255,377" fill="#1e1e1e" />
<polygon points="280,301 293,279 303,303" fill="#1e1e1e" />
<line x1="335" y1="346" x2="365" y2="321" stroke="#1e1e1e" stroke-width="6" />
</svg>
