<svg xmlns="http://www.w3.org/2000/svg" width="512" height="512" viewBox="0 0 512 512">
<rect width="100%" height="100%" fill="#0b1020"/>
<circle cx="432" cy="136" r="52" fill="#f8f3c9" opacity="0.95" />
<circle cx="207.0" cy="143.0" r="1.5" fill="white" />
<circle cx="93.0" cy="158.0" r="1.8" fill="white" />
<circle cx="364.0" cy="85.0" r="1.9" fill="white" />
<circle cx="429.0" cy="174.0" r="3.0" fill="white" />
<circle cx="298.0" cy="88.0" r="2.8" fill="white" />
<circle cx="250.0" cy="158.0" r="3.0" fill="white" />
<circle cx="411.0" cy="113.0" r="2.3" fill="white" />
<path d="M 20 430 C 118 413, 164 448, 317 435 S 450 397, 512 427" stroke="#5dade2" stroke-width="8" fill="none" opacity="0.85" />
<line x1="0" y1="393" x2="512" y2="393" stroke="#445566" stroke-width="2" />
<polygon points="207,359 247,299 287,319 307,289 327,309 339,349 307,371 257,375" fill="#1e1e1e" />
<polygon points="282,299 295,277 305,301" fill="#1e1e1e" />
<line x1="337" y1="344" x2="367" y2="319" stroke="#1e1e1e" stroke-width="6" />
</svg>
