<svg xmlns="http://www.w3.org/2000/svg" width="512" height="512" viewBox="0 0 512 512">
<rect width="100%" height="100%" fill="#0b1020"/>
<circle cx="428" cy="67" r="44" fill="#f8f3c9" opacity="0.95" />
<circle cx="376.0" cy="69.0" r="3.4" fill="white" />
<circle cx="173.0" cy="45.0" r="1.5" fill="white" />
<circle cx="120.0" cy="20.0" r="2.5" fill="white" />
<circle cx="370.0" cy="170.0" r="1.8" fill="white" />
<circle cx="363.0" cy="121.0" r="2.4" fill="white" />
<circle cx="182.0" cy="159.0" r="3.0" fill="white" />
<circle cx="80.0" cy="58.0" r="1.9" fill="white" />
<circle cx="453.0" cy="31.0" r="3.0" fill="white" />
<circle cx="233.0" cy="165.0" r="2.2" fill="white" />
<circle cx="245.0" cy="177.0" r="3.2" fill="white" />
<circle cx="171.0" cy="44.0" r="2.8" fill="white" />
<circle cx="456.0" cy="56.0" r="1.5" fill="white" />
<circle cx="215.0" cy="65.0" r="3.4" fill="white" />
<circle cx="101.0" cy="139.0" r="1.9" fill="white" />
<path d="M 20 430 C 137 418, 186 455, 304 434 S 450 385, 512 415" stroke="#5dade2" stroke-width="5" fill="none" opacity="0.85" />
<line x1="0" y1="399" x2="512" y2="399" stroke="#445566" stroke-width="4" />
<polygon points="168,353 208,293 248,313 268,283 288,303 300,343 268,365 218,369" fill="#1e1e1e" />
<polygon points="243,293 256,271 266,295" fill="#1e1e1e" />
<line x1="298" y1="338" x2="328" y2="313" stroke="#1e1e1e" stroke-width="6" />
</svg>
