<svg xmlns="http://www.w3.org/2000/svg" width="512" height="512" viewBox="0 0 512 512">
<rect width="100%" height="100%" fill="#0b1020"/>
<circle cx="390" cy="60" r="56" fill="#f8f3c9" opacity="0.95" />
<circle cx="410.0" cy="68.0" r="1.6" fill="white" />
<circle cx="241.0" cy="154.0" r="1.9" fill="white" />
<circle cx="468.0" cy="87.0" r="3.4" fill="white" />
<circle cx="303.0" cy="172.0" r="2.5" fill="white" />
<circle cx="356.0" cy="73.0" r="3.2" fill="white" />
<circle cx="478.0" cy="107.0" r="2.7" fill="white" />
<circle cx="417.0" cy="155.0" r="3.2" fill="white" />
<circle cx="340.0" cy="50.0" r="1.6" fill="white" />
<circle cx="308.0" cy="91.0" r="3.2" fill="white" />
<circle cx="314.0" cy="46.0" r="1.5" fill="white" />
<circle cx="131.0" cy="170.0" r="2.6" fill="white" />
<circle cx="482.0" cy="100.0" r="2.8" fill="white" />
<circle cx="148.0" cy="71.0" r="3.4" fill="white" />
<circle cx="314.0" cy="153.0" r="2.5" fill="white" />
<path d="M 20 430 C 134 410, 169 460, 309 436 S 450 385, 512 415" stroke="#5dade2" stroke-width="5" fill="none" opacity="0.85" />
<line x1="0" y1="394" x2="512" y2="394" stroke="#445566" stroke-width="2" />
<polygon points="169,360 209,300 249,320 269,290 289,310 301,350 269,372 219,376" fill="#1e1e1e" />
<polygon points="244,300 257,278 267,302" fill="#1e1e1e" />
<line x1="299" y1="345" x2="329" y2="320" stroke="#1e1e1e" stroke-width="6" />
</svg>
