<svg xmlns="http://www.w3.org/2000/svg" width="512" height="512" viewBox="0 0 512 512">
<rect width="100%" height="100%" fill="#0b1020"/>
<circle cx="381" cy="137" r="51" fill="#f8f3c9" opacity="0.95" />
<circle cx="244.0" cy="163.0" r="2.8" fill="white" />
<circle cx="174.0" cy="65.0" r="1.9" fill="white" />
<circle cx="374.0" cy="51.0" r="2.5" fill="white" />
<circle cx="198.0" cy="178.0" r="3.4" fill="white" />
<circle cx="244.0" cy="118.0" r="2.1" fill="white" />
<circle cx="150.0" cy="133.0" r="2.0" fill="white" />
<circle cx="122.0" cy="133.0" r="2.8" fill="white" />
<circle cx="206.0" cy="106.0" r="2.4" fill="white" />
<circle cx="91.0" cy="26.0" r="3.4" fill="white" />
<circle cx="83.0" cy="42.0" r="2.6" fill="white" />
<circle cx="420.0" cy="66.0" r="1.6" fill="white" />
<circle cx="488.0" cy="72.0" r="3.0" fill="white" />
<circle cx="270.0" cy="25.0" r="2.2" fill="white" />
<circle cx="187.0" cy="90.0" r="3.4" fill="white" />
<path d="M 20 430 C 116 417, 178 445, 301 433 S 450 375, 512 405" stroke="#5dade2" stroke-width="5" fill="none" opacity="0.85" />
<line x1="0" y1="388" x2="512" y2="388" stroke="#445566" stroke-width="2" />
<polygon points="164,362 204,302 244,322 264,292 284,312 296,352 264,374 214,378" fill="#1e1e1e" />
<polygon points="239,302 252,280 262,304" fill="#1e1e1e" />
<line x1="294" y1="347" x2="324" y2="322" stroke="#1e1e1e" stroke-width="6" />
</svg>
