<svg xmlns="http://www.w3.org/2000/svg" width="512" height="512" viewBox="0 0 512 512">
<rect width="100%" height="100%" fill="#0b1020"/>
<circle cx="452" cy="101" r="51" fill="#f8f3c9" opacity="0.95" />
<circle cx="249.0" cy="92.0" r="1.8" fill="white" />
<circle cx="459.0" cy="47.0" r="1.9" fill="white" />
<circle cx="45.0" cy="142.0" r="2.8" fill="white" />
<circle cx="285.0" cy="162.0" r="2.5" fill="white" />
<circle cx="395.0" cy="29.0" r="1.6" fill="white" />
<circle cx="201.0" cy="39.0" r="2.0" fill="white" />
<path d="M 20 430 C 124 421, 191 453, 304 429 S 450 383, 512 413" stroke="#5dade2" stroke-width="6" fill="none" opacity="0.85" />
<line x1="0" y1="413" x2="512" y2="413" stroke="#445566" stroke-width="4" />
<polygon points="176,362 216,302 256,322 276,292 296,312 308,352 276,374 226,378" fill="#1e1e1e" />
<polygon points="251,302 264,280 274,304" fill="#1e1e1e" />
<line x1="306" y1="347" x2="336" y2="322" stroke="#1e1e1e" stroke-width="6" />
</svg>
