<svg xmlns="http://www.w3.org/2000/svg" width="512" height="512" viewBox="0 0 512 512">
<rect width="100%" height="100%" fill="black"/>
<circle cx="460" cy="134" r="4" fill="hsl(0, 80%, 65%)" />
<circle cx="305" cy="352" r="6" fill="hsl(7, 80%, 65%)" />
<circle cx="313" cy="385" r="3" fill="hsl(10, 80%, 65%)" />
<circle cx="404" cy="204" r="9" fill="hsl(36, 80%, 65%)" />
<circle cx="172" cy="454" r="5" fill="hsl(20, 80%, 65%)" />
<circle cx="419" cy="227" r="8" fill="hsl(55, 80%, 65%)" />
<circle cx="303" cy="300" r="9" fill="hsl(36, 80%, 65%)" />
<circle cx="306" cy="167" r="3" fill="hsl(91, 80%, 65%)" />
<circle cx="341" cy="416" r="3" fill="hsl(40, 80%, 65%)" />
<circle cx="246" cy="378" r="2" fill="hsl(81, 80%, 65%)" />
<circle cx="434" cy="202" r="3" fill="hsl(60, 80%, 65%)" />
<circle cx="436" cy="194" r="9" fill="hsl(55, 80%, 65%)" />
<circle cx="190" cy="272" r="8" fill="hsl(156, 80%, 65%)" />
<circle cx="81" cy="221" r="7" fill="hsl(65, 80%, 65%)" />
<circle cx="332" cy="218" r="2" fill="hsl(154, 80%, 65%)" />
<circle cx="168" cy="179" r="6" fill="hsl(165, 80%, 65%)" />
<circle cx="240" cy="306" r="6" fill="hsl(160, 80%, 65%)" />
<circle cx="80" cy="280" r="4" fill="hsl(153, 80%, 65%)" />
<circle cx="143" cy="253" r="8" fill="hsl(216, 80%, 65%)" />
<circle cx="261" cy="433" r="5" fill="hsl(209, 80%, 65%)" />
<circle cx="116" cy="143" r="3" fill="hsl(260, 80%, 65%)" />
<circle cx="406" cy="280" r="3" fill="hsl(126, 80%, 65%)" />
<circle cx="390" cy="257" r="7" fill="hsl(176, 80%, 65%)" />
<circle cx="309" cy="267" r="6" fill="hsl(253, 80%, 65%)" />
<circle cx="194" cy="363" r="7" fill="hsl(144, 80%, 65%)" />
<circle cx="137" cy="105" r="3" fill="hsl(325, 80%, 65%)" />
<circle cx="335" cy="50" r="3" fill="hsl(208, 80%, 65%)" />
<circle cx="393" cy="177" r="9" fill="hsl(351, 80%, 65%)" />
<circle cx="218" cy="262" r="3" fill="hsl(336, 80%, 65%)" />
<circle cx="170" cy="143" r="5" fill="hsl(174, 80%, 65%)" />
<circle cx="363" cy="454" r="6" fill="hsl(330, 80%, 65%)" />
<circle cx="334" cy="383" r="8" fill="hsl(248, 80%, 65%)" />
<circle cx="118" cy="90" r="5" fill="hsl(160, 80%, 65%)" />
<circle cx="419" cy="162" r="5" fill="hsl(165, 80%, 65%)" />
<circle cx="151" cy="333" r="7" fill="hsl(340, 80%, 65%)" />
<circle cx="98" cy="386" r="3" fill="hsl(350, 80%, 65%)" />
<circle cx="59" cy="150" r="3" fill="hsl(324, 80%, 65%)" />
<circle cx="90" cy="304" r="2" fill="hsl(259, 80%, 65%)" />
<circle cx="234" cy="422" r="7" fill="hsl(228, 80%, 65%)" />
<circle cx="388" cy="447" r="5" fill="hsl(312, 80%, 65%)" />
<circle cx="71" cy="399" r="4" fill="hsl(120, 80%, 65%)" />
<circle cx="377" cy="128" r="7" fill="hsl(50, 80%, 65%)" />
<circle cx="395" cy="97" r="4" fill="hsl(186, 80%, 65%)" />
<circle cx="143" cy="434" r="7" fill="hsl(301, 80%, 65%)" />
<circle cx="289" cy="249" r="4" fill="hsl(80, 80%, 65%)" />
<circle cx="223" cy="95" r="4" fill="hsl(180, 80%, 65%)" />
<circle cx="352" cy="384" r="6" fill="hsl(146, 80%, 65%)" />
<circle cx="396" cy="320" r="3" fill="hsl(329, 80%, 65%)" />
<circle cx="430" cy="356" r="2" fill="hsl(72, 80%, 65%)" />
<circle cx="448" cy="212" r="6" fill="hsl(277, 80%, 65%)" />
<circle cx="457" cy="430" r="3" fill="hsl(90, 80%, 65%)" />
<circle cx="350" cy="439" r="3" fill="hsl(303, 80%, 65%)" />
<circle cx="434" cy="386" r="9" fill="hsl(4, 80%, 65%)" />
<circle cx="305" cy="347" r="9" fill="hsl(276, 80%, 65%)" />
<circle cx="196" cy="120" r="4" fill="hsl(18, 80%, 65%)" />
<circle cx="293" cy="104" r="3" fill="hsl(25, 80%, 65%)" />
<circle cx="306" cy="233" r="7" fill="hsl(32, 80%, 65%)" />
<circle cx="431" cy="377" r="6" fill="hsl(21, 80%, 65%)" />
<circle cx="103" cy="355" r="3" fill="hsl(348, 80%, 65%)" />
<circle cx="239" cy="310" r="5" fill="hsl(289, 80%, 65%)" />
<circle cx="176" cy="158" r="5" fill="hsl(120, 80%, 65%)" />
<circle cx="190" cy="274" r="3" fill="hsl(189, 80%, 65%)" />
<circle cx="122" cy="230" r="9" fill="hsl(24, 80%, 65%)" />
<circle cx="313" cy="235" r="7" fill="hsl(270, 80%, 65%)" />
<circle cx="262" cy="119" r="3" fill="hsl(320, 80%, 65%)" />
<circle cx="205" cy="143" r="2" fill="hsl(30, 80%, 65%)" />
<circle cx="434" cy="59" r="4" fill="hsl(102, 80%, 65%)" />
<circle cx="165" cy="354" r="5" fill="hsl(109, 80%, 65%)" />
<circle cx="61" cy="422" r="2" fill="hsl(28, 80%, 65%)" />
<circle cx="212" cy="337" r="3" fill="hsl(261, 80%, 65%)" />
<circle cx="204" cy="450" r="5" fill="hsl(60, 80%, 65%)" />
<circle cx="373" cy="139" r="5" fill="hsl(355, 80%, 65%)" />
<circle cx="188" cy="105" r="9" fill="hsl(72, 80%, 65%)" />
<circle cx="71" cy="152" r="7" fill="hsl(156, 80%, 65%)" />
<circle cx="327" cy="189" r="4" fill="hsl(306, 80%, 65%)" />
<circle cx="158" cy="423" r="8" fill="hsl(165, 80%, 65%)" />
<circle cx="339" cy="148" r="9" fill="hsl(96, 80%, 65%)" />
<circle cx="372" cy="326" r="7" fill="hsl(179, 80%, 65%)" />
<circle cx="56" cy="194" r="8" fill="hsl(108, 80%, 65%)" />
<circle cx="343" cy="453" r="2" fill="hsl(228, 80%, 65%)" />
<circle cx="65" cy="59" r="9" fill="hsl(160, 80%, 65%)" />
<circle cx="200" cy="190" r="2" fill="hsl(333, 80%, 65%)" />
<circle cx="245" cy="296" r="8" fill="hsl(182, 80%, 65%)" />
<circle cx="82" cy="403" r="4" fill="hsl(138, 80%, 65%)" />
<circle cx="105" cy="209" r="5" fill="hsl(144, 80%, 65%)" />
<circle cx="230" cy="375" r="2" fill="hsl(25, 80%, 65%)" />
<circle cx="211" cy="155" r="7" fill="hsl(54, 80%, 65%)" />
<circle cx="112" cy="178" r="4" fill="hsl(75, 80%, 65%)" />
<circle cx="427" cy="234" r="5" fill="hsl(72, 80%, 65%)" />
<circle cx="255" cy="118" r="8" fill="hsl(174, 80%, 65%)" />
<circle cx="128" cy="56" r="6" fill="hsl(90, 80%, 65%)" />
<circle cx="197" cy="207" r="3" fill="hsl(8, 80%, 65%)" />
<circle cx="280" cy="107" r="5" fill="hsl(116, 80%, 65%)" />
<circle cx="139" cy="96" r="7" fill="hsl(36, 80%, 65%)" />
<circle cx="333" cy="207" r="9" fill="hsl(48, 80%, 65%)" />
<circle cx="376" cy="403" r="8" fill="hsl(325, 80%, 65%)" />
<circle cx="341" cy="57" r="4" fill="hsl(144, 80%, 65%)" />
<circle cx="223" cy="336" r="8" fill="hsl(250, 80%, 65%)" />
<circle cx="193" cy="375" r="7" fill="hsl(64, 80%, 65%)" />
<circle cx="232" cy="78" r="4" fill="hsl(270, 80%, 65%)" />
<circle cx="211" cy="249" r="9" fill="hsl(240, 80%, 65%)" />
<circle cx="141" cy="161" r="8" fill="hsl(246, 80%, 65%)" />
<circle cx="238" cy="326" r="3" fill="hsl(300, 80%, 65%)" />
<circle cx="290" cy="369" r="7" fill="hsl(259, 80%, 65%)" />
<circle cx="296" cy="452" r="6" fill="hsl(112, 80%, 65%)" />
<circle cx="352" cy="344" r="8" fill="hsl(330, 80%, 65%)" />
<circle cx="371" cy="451" r="4" fill="hsl(192, 80%, 65%)" />
<circle cx="346" cy="406" r="9" fill="hsl(204, 80%, 65%)" />
<circle cx="165" cy="166" r="8" fill="hsl(288, 80%, 65%)" />
<circle cx="181" cy="148" r="4" fill="hsl(228, 80%, 65%)" />
<circle cx="138" cy="105" r="2" fill="hsl(50, 80%, 65%)" />
<circle cx="311" cy="327" r="7" fill="hsl(141, 80%, 65%)" />
<circle cx="366" cy="76" r="7" fill="hsl(264, 80%, 65%)" />
<circle cx="81" cy="258" r="6" fill="hsl(184, 80%, 65%)" />
<circle cx="115" cy="131" r="9" fill="hsl(174, 80%, 65%)" />
<circle cx="239" cy="239" r="6" fill="hsl(330, 80%, 65%)" />
<circle cx="356" cy="432" r="3" fill="hsl(336, 80%, 65%)" />
<circle cx="219" cy="349" r="5" fill="hsl(207, 80%, 65%)" />
<circle cx="307" cy="111" r="4" fill="hsl(342, 80%, 65%)" />
<circle cx="461" cy="363" r="6" fill="hsl(348, 80%, 65%)" />
<circle cx="55" cy="382" r="2" fill="hsl(240, 80%, 65%)" />
<circle cx="244" cy="359" r="8" fill="hsl(9, 80%, 65%)" />
<circle cx="295" cy="433" r="5" fill="hsl(24, 80%, 65%)" />
<circle cx="265" cy="400" r="4" fill="hsl(36, 80%, 65%)" />
<circle cx="285" cy="340" r="9" fill="hsl(36, 80%, 65%)" />
<circle cx="141" cy="284" r="5" fill="hsl(45, 80%, 65%)" />
<circle cx="281" cy="439" r="7" fill="hsl(180, 80%, 65%)" />
<circle cx="425" cy="288" r="8" fill="hsl(169, 80%, 65%)" />
<circle cx="439" cy="448" r="4" fill="hsl(176, 80%, 65%)" />
<circle cx="344" cy="290" r="8" fill="hsl(237, 80%, 65%)" />
<circle cx="130" cy="176" r="3" fill="hsl(320, 80%, 65%)" />
<circle cx="62" cy="152" r="3" fill="hsl(263, 80%, 65%)" />
<circle cx="271" cy="134" r="5" fill="hsl(300, 80%, 65%)" />
<circle cx="173" cy="232" r="8" fill="hsl(117, 80%, 65%)" />
<circle cx="111" cy="188" r="8" fill="hsl(168, 80%, 65%)" />
<circle cx="110" cy="236" r="6" fill="hsl(180, 80%, 65%)" />
<circle cx="149" cy="231" r="7" fill="hsl(328, 80%, 65%)" />
<circle cx="138" cy="364" r="5" fill="hsl(341, 80%, 65%)" />
<circle cx="364" cy="146" r="7" fill="hsl(216, 80%, 65%)" />
<circle cx="458" cy="398" r="8" fill="hsl(171, 80%, 65%)" />
<circle cx="100" cy="79" r="5" fill="hsl(120, 80%, 65%)" />
<circle cx="307" cy="81" r="5" fill="hsl(48, 80%, 65%)" />
<circle cx="162" cy="306" r="2" fill="hsl(132, 80%, 65%)" />
<circle cx="180" cy="103" r="4" fill="hsl(207, 80%, 65%)" />
<circle cx="222" cy="186" r="4" fill="hsl(288, 80%, 65%)" />
<circle cx="224" cy="169" r="2" fill="hsl(225, 80%, 65%)" />
<circle cx="437" cy="387" r="7" fill="hsl(156, 80%, 65%)" />
<circle cx="74" cy="187" r="7" fill="hsl(162, 80%, 65%)" />
<circle cx="161" cy="51" r="9" fill="hsl(316, 80%, 65%)" />
<circle cx="352" cy="394" r="3" fill="hsl(50, 80%, 65%)" />
<circle cx="460" cy="224" r="2" fill="hsl(150, 80%, 65%)" />
<circle cx="223" cy="375" r="4" fill="hsl(279, 80%, 65%)" />
<circle cx="159" cy="208" r="4" fill="hsl(192, 80%, 65%)" />
<circle cx="403" cy="427" r="3" fill="hsl(144, 80%, 65%)" />
<circle cx="201" cy="154" r="6" fill="hsl(202, 80%, 65%)" />
<circle cx="246" cy="364" r="4" fill="hsl(215, 80%, 65%)" />
<circle cx="155" cy="424" r="6" fill="hsl(324, 80%, 65%)" />
<circle cx="109" cy="103" r="7" fill="hsl(130, 80%, 65%)" />
<circle cx="72" cy="232" r="3" fill="hsl(70, 80%, 65%)" />
<circle cx="427" cy="312" r="6" fill="hsl(150, 80%, 65%)" />
<circle cx="395" cy="57" r="3" fill="hsl(80, 80%, 65%)" />
<circle cx="120" cy="444" r="3" fill="hsl(331, 80%, 65%)" />
<circle cx="186" cy="149" r="2" fill="hsl(18, 80%, 65%)" />
<circle cx="136" cy="125" r="3" fill="hsl(95, 80%, 65%)" />
<circle cx="305" cy="374" r="3" fill="hsl(200, 80%, 65%)" />
<circle cx="460" cy="196" r="8" fill="hsl(45, 80%, 65%)" />
<circle cx="141" cy="250" r="5" fill="hsl(82, 80%, 65%)" />
<circle cx="367" cy="288" r="5" fill="hsl(11, 80%, 65%)" />
<circle cx="418" cy="377" r="3" fill="hsl(216, 80%, 65%)" />
<circle cx="167" cy="62" r="5" fill="hsl(294, 80%, 65%)" />
<circle cx="300" cy="103" r="8" fill="hsl(110, 80%, 65%)" />
<circle cx="64" cy="200" r="5" fill="hsl(81, 80%, 65%)" />
<circle cx="352" cy="191" r="4" fill="hsl(108, 80%, 65%)" />
<circle cx="288" cy="147" r="4" fill="hsl(318, 80%, 65%)" />
<circle cx="417" cy="389" r="3" fill="hsl(312, 80%, 65%)" />
<circle cx="297" cy="443" r="7" fill="hsl(320, 80%, 65%)" />
<circle cx="461" cy="403" r="5" fill="hsl(336, 80%, 65%)" />
<circle cx="264" cy="458" r="7" fill="hsl(324, 80%, 65%)" />
<circle cx="424" cy="314" r="5" fill="hsl(170, 80%, 65%)" />
<circle cx="259" cy="54" r="8" fill="hsl(352, 80%, 65%)" />
<circle cx="259" cy="231" r="3" fill="hsl(0, 80%, 65%)" />
<circle cx="289" cy="238" r="2" fill="hsl(191, 80%, 65%)" />
<circle cx="96" cy="192" r="7" fill="hsl(198, 80%, 65%)" />
<circle cx="173" cy="321" r="6" fill="hsl(219, 80%, 65%)" />
<circle cx="161" cy="214" r="5" fill="hsl(232, 80%, 65%)" />
<circle cx="275" cy="226" r="3" fill="hsl(50, 80%, 65%)" />
<circle cx="289" cy="134" r="2" fill="hsl(72, 80%, 65%)" />
<circle cx="265" cy="413" r="4" fill="hsl(257, 80%, 65%)" />
<circle cx="80" cy="419" r="5" fill="hsl(284, 80%, 65%)" />
<circle cx="174" cy="104" r="5" fill="hsl(108, 80%, 65%)" />
<circle cx="272" cy="391" r="8" fill="hsl(80, 80%, 65%)" />
<circle cx="320" cy="220" r="3" fill="hsl(257, 80%, 65%)" />
<circle cx="82" cy="426" r="3" fill="hsl(144, 80%, 65%)" />
<circle cx="158" cy="118" r="8" fill="hsl(323, 80%, 65%)" />
<circle cx="76" cy="391" r="5" fill="hsl(250, 80%, 65%)" />
<circle cx="403" cy="450" r="3" fill="hsl(285, 80%, 65%)" />
<circle cx="274" cy="146" r="6" fill="hsl(128, 80%, 65%)" />
<circle cx="372" cy="216" r="4" fill="hsl(136, 80%, 65%)" />
<circle cx="264" cy="411" r="4" fill="hsl(54, 80%, 65%)" />
<circle cx="157" cy="355" r="6" fill="hsl(190, 80%, 65%)" />
<circle cx="422" cy="462" r="7" fill="hsl(0, 80%, 65%)" />
<circle cx="124" cy="53" r="9" fill="hsl(126, 80%, 65%)" />
<circle cx="347" cy="417" r="5" fill="hsl(264, 80%, 65%)" />
<circle cx="81" cy="263" r="7" fill="hsl(230, 80%, 65%)" />
<circle cx="417" cy="371" r="6" fill="hsl(144, 80%, 65%)" />
<circle cx="99" cy="140" r="8" fill="hsl(45, 80%, 65%)" />
<circle cx="89" cy="259" r="3" fill="hsl(158, 80%, 65%)" />
<circle cx="271" cy="86" r="7" fill="hsl(216, 80%, 65%)" />
<circle cx="359" cy="228" r="6" fill="hsl(72, 80%, 65%)" />
<circle cx="448" cy="440" r="2" fill="hsl(232, 80%, 65%)" />
<circle cx="155" cy="88" r="2" fill="hsl(150, 80%, 65%)" />
<circle cx="93" cy="365" r="6" fill="hsl(12, 80%, 65%)" />
<circle cx="441" cy="393" r="9" fill="hsl(340, 80%, 65%)" />
<circle cx="219" cy="449" r="9" fill="hsl(183, 80%, 65%)" />
<circle cx="147" cy="374" r="7" fill="hsl(126, 80%, 65%)" />
<circle cx="250" cy="222" r="5" fill="hsl(280, 80%, 65%)" />
<circle cx="227" cy="346" r="7" fill="hsl(72, 80%, 65%)" />
<circle cx="301" cy="274" r="3" fill="hsl(84, 80%, 65%)" />
<circle cx="177" cy="233" r="5" fill="hsl(86, 80%, 65%)" />
<circle cx="345" cy="115" r="8" fill="hsl(108, 80%, 65%)" />
<circle cx="299" cy="232" r="3" fill="hsl(40, 80%, 65%)" />
<circle cx="316" cy="191" r="3" fill="hsl(353, 80%, 65%)" />
<circle cx="195" cy="59" r="8" fill="hsl(336, 80%, 65%)" />
<circle cx="104" cy="211" r="3" fill="hsl(121, 80%, 65%)" />
<circle cx="398" cy="243" r="5" fill="hsl(304, 80%, 65%)" />
<circle cx="81" cy="65" r="4" fill="hsl(45, 80%, 65%)" />
<line x1="154" y1="126" x2="249" y2="131" stroke="#223344" stroke-width="1"/>
<line x1="287" y1="362" x2="314" y2="423" stroke="#223344" stroke-width="1"/>
<line x1="132" y1="447" x2="170" y2="401" stroke="#223344" stroke-width="1"/>
<line x1="329" y1="330" x2="249" y2="239" stroke="#223344" stroke-width="1"/>
<line x1="207" y1="156" x2="270" y2="250" stroke="#223344" stroke-width="1"/>
<line x1="145" y1="167" x2="148" y2="175" stroke="#223344" stroke-width="1"/>
<line x1="171" y1="301" x2="200" y2="243" stroke="#223344" stroke-width="1"/>
<line x1="448" y1="229" x2="372" y2="284" stroke="#223344" stroke-width="1"/>
<line x1="275" y1="451" x2="363" y2="519" stroke="#223344" stroke-width="1"/>
<line x1="289" y1="150" x2="332" y2="119" stroke="#223344" stroke-width="1"/>
<line x1="129" y1="415" x2="148" y2="347" stroke="#223344" stroke-width="1"/>
<line x1="455" y1="227" x2="438" y2="188" stroke="#223344" stroke-width="1"/>
<line x1="272" y1="215" x2="266" y2="204" stroke="#223344" stroke-width="1"/>
<line x1="164" y1="317" x2="218" y2="249" stroke="#223344" stroke-width="1"/>
<line x1="71" y1="344" x2="132" y2="384" stroke="#223344" stroke-width="1"/>
<line x1="153" y1="77" x2="169" y2="-16" stroke="#223344" stroke-width="1"/>
<line x1="445" y1="253" x2="455" y2="193" stroke="#223344" stroke-width="1"/>
<line x1="462" y1="201" x2="399" y2="296" stroke="#223344" stroke-width="1"/>
<line x1="211" y1="208" x2="310" y2="285" stroke="#223344" stroke-width="1"/>
<line x1="128" y1="137" x2="71" y2="112" stroke="#223344" stroke-width="1"/>
<line x1="146" y1="431" x2="111" y2="484" stroke="#223344" stroke-width="1"/>
<line x1="255" y1="184" x2="229" y2="201" stroke="#223344" stroke-width="1"/>
<line x1="382" y1="352" x2="482" y2="425" stroke="#223344" stroke-width="1"/>
<line x1="65" y1="105" x2="122" y2="103" stroke="#223344" stroke-width="1"/>
<line x1="285" y1="273" x2="289" y2="222" stroke="#223344" stroke-width="1"/>
</svg>
