<svg xmlns="http://www.w3.org/2000/svg" width="512" height="512" viewBox="0 0 512 512">
<rect width="100%" height="100%" fill="#0b1020"/>
<circle cx="452" cy="121" r="43" fill="#f8f3c9" opacity="0.95" />
<circle cx="365.0" cy="85.0" r="2.7" fill="white" />
<circle cx="153.0" cy="178.0" r="1.5" fill="white" />
<circle cx="336.0" cy="142.0" r="2.5" fill="white" />
<circle cx="360.0" cy="98.0" r="3.5" fill="white" />
<circle cx="33.0" cy="163.0" r="2.9" fill="white" />
<circle cx="315.0" cy="127.0" r="3.2" fill="white" />
<circle cx="153.0" cy="128.0" r="3.2" fill="white" />
<circle cx="491.0" cy="97.0" r="3.3" fill="white" />
<circle cx="116.0" cy="107.0" r="3.2" fill="white" />
<path d="M 20 430 C 108 423, 174 457, 307 434 S 450 391, 512 421" stroke="#5dade2" stroke-width="6" fill="none" opacity="0.85" />
<line x1="0" y1="389" x2="512" y2="389" stroke="#445566" stroke-width="2" />
<polygon points="212,356 252,296 292,316 312,286 332,306 344,346 312,368 262,372" fill="#1e1e1e" />
<polygon points="287,296 300,274 310,298" fill="#1e1e1e" />
<line x1="342" y1="341" x2="372" y2="316" stroke="#1e1e1e" stroke-width="6" />
</svg>
