<svg xmlns="http://www.w3.org/2000/svg" width="512" height="512" viewBox="0 0 512 512">
<rect width="100%" height="100%" fill="black"/>
<circle cx="256.00" cy="256.00" r="2" fill="hsl(0, 80%, 65%)" />
<circle cx="250.27" cy="261.25" r="3" fill="hsl(10, 80%, 65%)" />
<circle cx="256.96" cy="245.05" r="4" fill="hsl(20, 80%, 65%)" />
<circle cx="264.19" cy="266.68" r="5" fill="hsl(30, 80%, 65%)" />
<circle cx="240.70" cy="253.29" r="6" fill="hsl(40, 80%, 65%)" />
<circle cx="270.66" cy="246.67" r="2" fill="hsl(50, 80%, 65%)" />
<circle cx="251.06" cy="274.38" r="3" fill="hsl(60, 80%, 65%)" />
<circle cx="246.52" cy="237.76" r="4" fill="hsl(70, 80%, 65%)" />
<circle cx="276.64" cy="263.54" r="5" fill="hsl(80, 80%, 65%)" />
<circle cx="234.45" cy="264.89" r="6" fill="hsl(90, 80%, 65%)" />
<circle cx="266.41" cy="233.75" r="2" fill="hsl(100, 80%, 65%)" />
<circle cx="263.71" cy="280.59" r="3" fill="hsl(110, 80%, 65%)" />
<circle cx="232.71" cy="242.50" r="4" fill="hsl(120, 80%, 65%)" />
<circle cx="283.36" cy="249.98" r="5" fill="hsl(130, 80%, 65%)" />
<circle cx="239.28" cy="279.78" r="6" fill="hsl(140, 80%, 65%)" />
<circle cx="252.13" cy="226.16" r="2" fill="hsl(150, 80%, 65%)" />
<circle cx="279.77" cy="276.03" r="3" fill="hsl(160, 80%, 65%)" />
<circle cx="223.99" cy="257.32" r="4" fill="hsl(170, 80%, 65%)" />
<circle cx="279.37" cy="232.75" r="5" fill="hsl(180, 80%, 65%)" />
<circle cx="254.44" cy="289.83" r="6" fill="hsl(190, 80%, 65%)" />
<circle cx="233.74" cy="229.32" r="2" fill="hsl(200, 80%, 65%)" />
<circle cx="291.29" cy="260.75" r="3" fill="hsl(210, 80%, 65%)" />
<circle cx="226.08" cy="276.81" r="4" fill="hsl(220, 80%, 65%)" />
<circle cx="264.18" cy="219.64" r="5" fill="hsl(230, 80%, 65%)" />
<circle cx="274.93" cy="289.03" r="6" fill="hsl(240, 80%, 65%)" />
<circle cx="218.99" cy="244.19" r="2" fill="hsl(250, 80%, 65%)" />
<circle cx="291.97" cy="239.38" r="3" fill="hsl(260, 80%, 65%)" />
<circle cx="240.41" cy="293.24" r="4" fill="hsl(270, 80%, 65%)" />
<circle cx="242.08" cy="217.31" r="5" fill="hsl(280, 80%, 65%)" />
<circle cx="293.04" cy="275.47" r="6" fill="hsl(290, 80%, 65%)" />
<circle cx="214.85" cy="266.85" r="2" fill="hsl(300, 80%, 65%)" />
<circle cx="279.40" cy="219.61" r="3" fill="hsl(310, 80%, 65%)" />
<circle cx="263.44" cy="299.32" r="4" fill="hsl(320, 80%, 65%)" />
<circle cx="220.71" cy="228.67" r="5" fill="hsl(330, 80%, 65%)" />
<circle cx="301.15" cy="252.26" r="6" fill="hsl(340, 80%, 65%)" />
<circle cx="224.78" cy="289.74" r="2" fill="hsl(350, 80%, 65%)" />
<circle cx="256.23" cy="209.38" r="3" fill="hsl(0, 80%, 65%)" />
<circle cx="287.76" cy="291.01" r="4" fill="hsl(10, 80%, 65%)" />
<circle cx="208.31" cy="251.58" r="5" fill="hsl(20, 80%, 65%)" />
<circle cx="294.65" cy="226.66" r="6" fill="hsl(30, 80%, 65%)" />
<circle cx="247.20" cy="304.35" r="2" fill="hsl(40, 80%, 65%)" />
<circle cx="229.50" cy="213.89" r="3" fill="hsl(50, 80%, 65%)" />
<circle cx="304.56" cy="269.31" r="4" fill="hsl(60, 80%, 65%)" />
<circle cx="210.67" cy="279.26" r="5" fill="hsl(70, 80%, 65%)" />
<circle cx="273.92" cy="207.67" r="6" fill="hsl(80, 80%, 65%)" />
<circle cx="275.65" cy="304.28" r="2" fill="hsl(90, 80%, 65%)" />
<circle cx="208.38" cy="233.43" r="3" fill="hsl(100, 80%, 65%)" />
<circle cx="306.90" cy="240.31" r="4" fill="hsl(110, 80%, 65%)" />
<circle cx="228.78" cy="302.44" r="5" fill="hsl(120, 80%, 65%)" />
<circle cx="244.58" cy="202.82" r="6" fill="hsl(130, 80%, 65%)" />
<circle cx="300.79" cy="287.82" r="2" fill="hsl(140, 80%, 65%)" />
<circle cx="200.94" cy="262.86" r="3" fill="hsl(150, 80%, 65%)" />
<circle cx="292.32" cy="213.33" r="4" fill="hsl(160, 80%, 65%)" />
<circle cx="258.06" cy="312.53" r="5" fill="hsl(170, 80%, 65%)" />
<circle cx="215.92" cy="215.33" r="6" fill="hsl(180, 80%, 65%)" />
<circle cx="313.55" cy="258.94" r="2" fill="hsl(190, 80%, 65%)" />
<circle cx="211.18" cy="293.04" r="3" fill="hsl(200, 80%, 65%)" />
<circle cx="264.11" cy="197.90" r="4" fill="hsl(210, 80%, 65%)" />
<circle cx="289.56" cy="304.74" r="5" fill="hsl(220, 80%, 65%)" />
<circle cx="197.84" cy="242.62" r="6" fill="hsl(230, 80%, 65%)" />
<circle cx="308.37" cy="226.33" r="2" fill="hsl(240, 80%, 65%)" />
<circle cx="237.27" cy="313.72" r="3" fill="hsl(250, 80%, 65%)" />
<circle cx="230.61" cy="200.34" r="4" fill="hsl(260, 80%, 65%)" />
<circle cx="312.77" cy="280.09" r="5" fill="hsl(270, 80%, 65%)" />
<circle cx="197.41" cy="276.75" r="6" fill="hsl(280, 80%, 65%)" />
<circle cx="285.41" cy="200.69" r="2" fill="hsl(290, 80%, 65%)" />
<circle cx="271.79" cy="317.12" r="3" fill="hsl(300, 80%, 65%)" />
<circle cx="202.67" cy="221.34" r="4" fill="hsl(310, 80%, 65%)" />
<circle cx="319.20" cy="245.46" r="5" fill="hsl(320, 80%, 65%)" />
<circle cx="216.23" cy="306.84" r="6" fill="hsl(330, 80%, 65%)" />
<circle cx="250.95" cy="191.19" r="2" fill="hsl(340, 80%, 65%)" />
<circle cx="303.84" cy="300.69" r="3" fill="hsl(350, 80%, 65%)" />
<circle cx="190.07" cy="255.36" r="4" fill="hsl(0, 80%, 65%)" />
<circle cx="305.39" cy="211.64" r="5" fill="hsl(10, 80%, 65%)" />
<circle cx="249.51" cy="322.52" r="6" fill="hsl(20, 80%, 65%)" />
<circle cx="215.58" cy="202.20" r="2" fill="hsl(30, 80%, 65%)" />
<circle cx="322.58" cy="268.45" r="3" fill="hsl(40, 80%, 65%)" />
<circle cx="198.12" cy="292.03" r="4" fill="hsl(50, 80%, 65%)" />
<circle cx="274.46" cy="189.91" r="5" fill="hsl(60, 80%, 65%)" />
<circle cx="287.23" cy="317.60" r="6" fill="hsl(70, 80%, 65%)" />
<circle cx="190.96" cy="231.52" r="2" fill="hsl(80, 80%, 65%)" />
<circle cx="320.90" cy="229.95" r="3" fill="hsl(90, 80%, 65%)" />
<circle cx="225.56" cy="319.43" r="4" fill="hsl(100, 80%, 65%)" />
<circle cx="235.47" cy="188.25" r="5" fill="hsl(110, 80%, 65%)" />
<circle cx="317.26" cy="292.31" r="6" fill="hsl(120, 80%, 65%)" />
<circle cx="185.89" cy="270.70" r="2" fill="hsl(130, 80%, 65%)" />
<circle cx="298.01" cy="197.46" r="3" fill="hsl(140, 80%, 65%)" />
<circle cx="264.61" cy="327.96" r="4" fill="hsl(150, 80%, 65%)" />
<circle cx="200.73" cy="208.49" r="5" fill="hsl(160, 80%, 65%)" />
<circle cx="329.27" cy="253.69" r="6" fill="hsl(170, 80%, 65%)" />
<circle cx="203.25" cy="307.48" r="2" fill="hsl(180, 80%, 65%)" />
<circle cx="260.15" cy="181.99" r="3" fill="hsl(190, 80%, 65%)" />
<circle cx="303.19" cy="313.68" r="4" fill="hsl(200, 80%, 65%)" />
<circle cx="181.84" cy="245.28" r="5" fill="hsl(210, 80%, 65%)" />
<circle cx="318.25" cy="213.58" r="6" fill="hsl(220, 80%, 65%)" />
<circle cx="238.66" cy="329.72" r="2" fill="hsl(230, 80%, 65%)" />
<circle cx="218.80" cy="189.58" r="3" fill="hsl(240, 80%, 65%)" />
<circle cx="328.68" cy="279.97" r="4" fill="hsl(250, 80%, 65%)" />
<circle cx="185.86" cy="287.58" r="5" fill="hsl(260, 80%, 65%)" />
<circle cx="286.54" cy="184.98" r="6" fill="hsl(270, 80%, 65%)" />
<circle cx="281.58" cy="329.37" r="2" fill="hsl(280, 80%, 65%)" />
<circle cx="187.24" cy="219.00" r="3" fill="hsl(290, 80%, 65%)" />
<circle cx="332.07" cy="236.74" r="4" fill="hsl(300, 80%, 65%)" />
<circle cx="212.71" cy="321.91" r="5" fill="hsl(310, 80%, 65%)" />
<circle cx="243.34" cy="177.78" r="6" fill="hsl(320, 80%, 65%)" />
<circle cx="318.47" cy="305.36" r="2" fill="hsl(330, 80%, 65%)" />
<circle cx="176.21" cy="261.83" r="3" fill="hsl(340, 80%, 65%)" />
<circle cx="311.15" cy="197.54" r="4" fill="hsl(350, 80%, 65%)" />
<circle cx="254.82" cy="336.74" r="5" fill="hsl(0, 80%, 65%)" />
<circle cx="202.08" cy="195.39" r="6" fill="hsl(10, 80%, 65%)" />
<circle cx="337.07" cy="264.31" r="2" fill="hsl(20, 80%, 65%)" />
<circle cx="190.31" cy="304.85" r="3" fill="hsl(30, 80%, 65%)" />
<circle cx="271.51" cy="175.24" r="4" fill="hsl(40, 80%, 65%)" />
<circle cx="299.31" cy="326.33" r="5" fill="hsl(50, 80%, 65%)" />
<circle cx="176.21" cy="233.29" r="6" fill="hsl(60, 80%, 65%)" />
<circle cx="330.50" cy="218.68" r="2" fill="hsl(70, 80%, 65%)" />
<circle cx="226.15" cy="334.18" r="3" fill="hsl(80, 80%, 65%)" />
<circle cx="225.07" cy="177.85" r="4" fill="hsl(90, 80%, 65%)" />
<circle cx="331.92" cy="292.89" r="5" fill="hsl(100, 80%, 65%)" />
<circle cx="174.76" cy="280.18" r="6" fill="hsl(110, 80%, 65%)" />
<circle cx="299.75" cy="182.99" r="2" fill="hsl(120, 80%, 65%)" />
<circle cx="273.13" cy="339.74" r="3" fill="hsl(130, 80%, 65%)" />
<circle cx="186.52" cy="205.62" r="4" fill="hsl(140, 80%, 65%)" />
<circle cx="341.61" cy="246.18" r="5" fill="hsl(150, 80%, 65%)" />
<circle cx="199.28" cy="321.34" r="6" fill="hsl(160, 80%, 65%)" />
<circle cx="253.68" cy="169.16" r="2" fill="hsl(170, 80%, 65%)" />
<circle cx="316.61" cy="318.72" r="3" fill="hsl(180, 80%, 65%)" />
<circle cx="168.60" cy="250.68" r="4" fill="hsl(190, 80%, 65%)" />
<circle cx="324.31" cy="200.67" r="5" fill="hsl(200, 80%, 65%)" />
<circle cx="242.95" cy="343.28" r="6" fill="hsl(210, 80%, 65%)" />
<circle cx="206.47" cy="182.55" r="2" fill="hsl(220, 80%, 65%)" />
<circle cx="342.47" cy="276.79" r="3" fill="hsl(230, 80%, 65%)" />
<circle cx="177.90" cy="299.25" r="4" fill="hsl(240, 80%, 65%)" />
<circle cx="284.48" cy="171.04" r="5" fill="hsl(250, 80%, 65%)" />
<circle cx="292.53" cy="338.19" r="6" fill="hsl(260, 80%, 65%)" />
<circle cx="173.24" cy="219.93" r="2" fill="hsl(270, 80%, 65%)" />
<circle cx="341.71" cy="226.58" r="3" fill="hsl(280, 80%, 65%)" />
<circle cx="212.52" cy="335.88" r="4" fill="hsl(290, 80%, 65%)" />
<circle cx="234.03" cy="167.41" r="5" fill="hsl(300, 80%, 65%)" />
<circle cx="332.32" cy="306.67" r="6" fill="hsl(310, 80%, 65%)" />
<circle cx="165.17" cy="270.24" r="2" fill="hsl(320, 80%, 65%)" />
<circle cx="313.56" cy="183.89" r="3" fill="hsl(330, 80%, 65%)" />
<circle cx="262.29" cy="348.38" r="4" fill="hsl(340, 80%, 65%)" />
<circle cx="188.72" cy="191.91" r="5" fill="hsl(350, 80%, 65%)" />
<circle cx="349.22" cy="257.82" r="6" fill="hsl(0, 80%, 65%)" />
<circle cx="185.79" cy="317.84" r="2" fill="hsl(10, 80%, 65%)" />
<circle cx="266.03" cy="162.65" r="3" fill="hsl(20, 80%, 65%)" />
<circle cx="311.85" cy="331.87" r="4" fill="hsl(30, 80%, 65%)" />
<circle cx="163.26" cy="237.72" r="5" fill="hsl(40, 80%, 65%)" />
<circle cx="337.00" cy="206.66" r="6" fill="hsl(50, 80%, 65%)" />
<circle cx="229.51" cy="347.40" r="2" fill="hsl(60, 80%, 65%)" />
<circle cx="213.65" cy="170.42" r="3" fill="hsl(70, 80%, 65%)" />
<circle cx="345.32" cy="290.61" r="4" fill="hsl(80, 80%, 65%)" />
<circle cx="166.46" cy="290.93" r="5" fill="hsl(90, 80%, 65%)" />
<circle cx="298.57" cy="169.48" r="6" fill="hsl(100, 80%, 65%)" />
<circle cx="283.15" cy="348.85" r="2" fill="hsl(110, 80%, 65%)" />
<circle cx="173.00" cy="205.71" r="3" fill="hsl(120, 80%, 65%)" />
<circle cx="351.48" cy="236.95" r="4" fill="hsl(130, 80%, 65%)" />
<circle cx="198.28" cy="334.79" r="5" fill="hsl(140, 80%, 65%)" />
<circle cx="245.31" cy="158.61" r="6" fill="hsl(150, 80%, 65%)" />
<circle cx="329.90" cy="320.79" r="2" fill="hsl(160, 80%, 65%)" />
<circle cx="157.43" cy="258.15" r="3" fill="hsl(170, 80%, 65%)" />
<circle cx="327.45" cy="187.62" r="4" fill="hsl(180, 80%, 65%)" />
<circle cx="249.49" cy="354.99" r="5" fill="hsl(190, 80%, 65%)" />
<circle cx="193.75" cy="178.37" r="6" fill="hsl(200, 80%, 65%)" />
<circle cx="354.64" cy="271.24" r="2" fill="hsl(210, 80%, 65%)" />
<circle cx="172.72" cy="311.56" r="3" fill="hsl(220, 80%, 65%)" />
<circle cx="279.95" cy="158.49" r="4" fill="hsl(230, 80%, 65%)" />
<circle cx="304.36" cy="344.34" r="5" fill="hsl(240, 80%, 65%)" />
<circle cx="160.39" cy="223.43" r="6" fill="hsl(250, 80%, 65%)" />
<circle cx="348.78" cy="215.31" r="2" fill="hsl(260, 80%, 65%)" />
<circle cx="214.95" cy="348.95" r="3" fill="hsl(270, 80%, 65%)" />
<circle cx="223.39" cy="159.46" r="4" fill="hsl(280, 80%, 65%)" />
<circle cx="345.52" cy="305.30" r="5" fill="hsl(290, 80%, 65%)" />
<circle cx="156.40" cy="280.19" r="6" fill="hsl(300, 80%, 65%)" />
<circle cx="313.27" cy="170.64" r="2" fill="hsl(310, 80%, 65%)" />
<circle cx="271.47" cy="357.91" r="3" fill="hsl(320, 80%, 65%)" />
<circle cx="175.52" cy="191.12" r="4" fill="hsl(330, 80%, 65%)" />
<circle cx="359.46" cy="249.46" r="5" fill="hsl(340, 80%, 65%)" />
<circle cx="183.93" cy="330.92" r="6" fill="hsl(350, 80%, 65%)" />
<circle cx="258.54" cy="151.78" r="2" fill="hsl(0, 80%, 65%)" />
<circle cx="324.71" cy="334.78" r="3" fill="hsl(10, 80%, 65%)" />
<circle cx="151.83" cy="244.29" r="4" fill="hsl(20, 80%, 65%)" />
<circle cx="340.95" cy="194.10" r="5" fill="hsl(30, 80%, 65%)" />
<circle cx="235.12" cy="359.31" r="6" fill="hsl(40, 80%, 65%)" />
<circle cx="201.47" cy="165.47" r="2" fill="hsl(50, 80%, 65%)" />
<circle cx="357.63" cy="286.00" r="3" fill="hsl(60, 80%, 65%)" />
<circle cx="160.54" cy="302.66" r="4" fill="hsl(70, 80%, 65%)" />
<circle cx="294.98" cy="156.85" r="5" fill="hsl(80, 80%, 65%)" />
<circle cx="294.34" cy="355.70" r="6" fill="hsl(90, 80%, 65%)" />
<circle cx="160.13" cy="208.25" r="2" fill="hsl(100, 80%, 65%)" />
<circle cx="359.22" cy="226.37" r="3" fill="hsl(110, 80%, 65%)" />
<circle cx="199.76" cy="347.81" r="4" fill="hsl(120, 80%, 65%)" />
<circle cx="235.40" cy="150.04" r="5" fill="hsl(130, 80%, 65%)" />
<circle cx="342.99" cy="320.38" r="6" fill="hsl(140, 80%, 65%)" />
<circle cx="148.09" cy="267.32" r="2" fill="hsl(150, 80%, 65%)" />
<circle cx="328.11" cy="174.56" r="3" fill="hsl(160, 80%, 65%)" />
<circle cx="257.85" cy="365.04" r="4" fill="hsl(170, 80%, 65%)" />
<circle cx="180.79" cy="176.64" r="5" fill="hsl(180, 80%, 65%)" />
<circle cx="365.34" cy="263.73" r="6" fill="hsl(190, 80%, 65%)" />
<circle cx="169.94" cy="324.33" r="2" fill="hsl(200, 80%, 65%)" />
<circle cx="273.35" cy="147.22" r="3" fill="hsl(210, 80%, 65%)" />
<circle cx="316.84" cy="348.16" r="4" fill="hsl(220, 80%, 65%)" />
<circle cx="148.62" cy="229.08" r="5" fill="hsl(230, 80%, 65%)" />
<circle cx="353.61" cy="203.19" r="6" fill="hsl(240, 80%, 65%)" />
<circle cx="219.61" cy="361.13" r="2" fill="hsl(250, 80%, 65%)" />
<circle cx="211.71" cy="153.65" r="3" fill="hsl(260, 80%, 65%)" />
<circle cx="358.04" cy="301.66" r="4" fill="hsl(270, 80%, 65%)" />
<circle cx="149.66" cy="291.34" r="5" fill="hsl(280, 80%, 65%)" />
<circle cx="310.67" cy="157.87" r="6" fill="hsl(290, 80%, 65%)" />
<circle cx="282.04" cy="365.55" r="2" fill="hsl(300, 80%, 65%)" />
<circle cx="162.58" cy="192.66" r="3" fill="hsl(310, 80%, 65%)" />
<circle cx="367.93" cy="239.56" r="4" fill="hsl(320, 80%, 65%)" />
<circle cx="184.40" cy="343.94" r="5" fill="hsl(330, 80%, 65%)" />
<circle cx="249.38" cy="142.53" r="6" fill="hsl(340, 80%, 65%)" />
<circle cx="337.72" cy="335.39" r="2" fill="hsl(350, 80%, 65%)" />
<circle cx="141.85" cy="252.66" r="3" fill="hsl(0, 80%, 65%)" />
<circle cx="342.63" cy="181.19" r="4" fill="hsl(10, 80%, 65%)" />
<circle cx="242.63" cy="369.94" r="5" fill="hsl(20, 80%, 65%)" />
<circle cx="188.74" cy="162.74" r="6" fill="hsl(30, 80%, 65%)" />
<circle cx="368.85" cy="279.39" r="2" fill="hsl(40, 80%, 65%)" />
<circle cx="156.77" cy="315.12" r="3" fill="hsl(50, 80%, 65%)" />
<circle cx="289.31" cy="145.13" r="4" fill="hsl(60, 80%, 65%)" />
<circle cx="306.44" cy="360.49" r="5" fill="hsl(70, 80%, 65%)" />
<circle cx="147.98" cy="212.93" r="6" fill="hsl(80, 80%, 65%)" />
<circle cx="364.99" cy="214.70" r="2" fill="hsl(90, 80%, 65%)" />
<circle cx="203.42" cy="360.30" r="3" fill="hsl(100, 80%, 65%)" />
<circle cx="224.25" cy="143.32" r="4" fill="hsl(110, 80%, 65%)" />
<circle cx="355.75" cy="317.77" r="5" fill="hsl(120, 80%, 65%)" />
<circle cx="140.47" cy="277.88" r="6" fill="hsl(130, 80%, 65%)" />
<circle cx="326.56" cy="161.63" r="2" fill="hsl(140, 80%, 65%)" />
<circle cx="267.74" cy="373.51" r="3" fill="hsl(150, 80%, 65%)" />
<circle cx="167.77" cy="177.11" r="4" fill="hsl(160, 80%, 65%)" />
<circle cx="374.60" cy="254.57" r="5" fill="hsl(170, 80%, 65%)" />
<circle cx="169.33" cy="337.34" r="6" fill="hsl(180, 80%, 65%)" />
<circle cx="264.98" cy="137.23" r="2" fill="hsl(190, 80%, 65%)" />
<circle cx="329.76" cy="349.85" r="3" fill="hsl(200, 80%, 65%)" />
<circle cx="137.97" cy="236.59" r="4" fill="hsl(210, 80%, 65%)" />
<circle cx="356.36" cy="190.45" r="5" fill="hsl(220, 80%, 65%)" />
<circle cx="226.22" cy="372.37" r="6" fill="hsl(230, 80%, 65%)" />
<circle cx="199.23" cy="149.85" r="2" fill="hsl(240, 80%, 65%)" />
<circle cx="369.80" cy="296.01" r="3" fill="hsl(250, 80%, 65%)" />
<circle cx="144.84" cy="303.46" r="4" fill="hsl(260, 80%, 65%)" />
<circle cx="306.01" cy="145.68" r="5" fill="hsl(270, 80%, 65%)" />
<circle cx="293.72" cy="371.36" r="6" fill="hsl(280, 80%, 65%)" />
<circle cx="150.04" cy="196.29" r="2" fill="hsl(290, 80%, 65%)" />
<circle cx="374.70" cy="228.40" r="3" fill="hsl(300, 80%, 65%)" />
<circle cx="186.98" cy="356.74" r="4" fill="hsl(310, 80%, 65%)" />
<circle cx="238.81" cy="134.85" r="5" fill="hsl(320, 80%, 65%)" />
<circle cx="350.70" cy="333.88" r="6" fill="hsl(330, 80%, 65%)" />
<circle cx="133.32" cy="262.56" r="2" fill="hsl(340, 80%, 65%)" />
<circle cx="342.20" cy="168.12" r="3" fill="hsl(350, 80%, 65%)" />
<circle cx="251.79" cy="379.27" r="4" fill="hsl(0, 80%, 65%)" />
<circle cx="175.68" cy="162.07" r="5" fill="hsl(10, 80%, 65%)" />
<circle cx="378.92" cy="271.03" r="6" fill="hsl(20, 80%, 65%)" />
<circle cx="155.01" cy="328.09" r="2" fill="hsl(30, 80%, 65%)" />
<circle cx="281.82" cy="134.39" r="3" fill="hsl(40, 80%, 65%)" />
<circle cx="319.23" cy="363.32" r="4" fill="hsl(50, 80%, 65%)" />
<circle cx="136.65" cy="219.50" r="5" fill="hsl(60, 80%, 65%)" />
<circle cx="368.88" cy="202.19" r="6" fill="hsl(70, 80%, 65%)" />
<circle cx="209.03" cy="372.15" r="2" fill="hsl(80, 80%, 65%)" />
<circle cx="212.09" cy="138.40" r="3" fill="hsl(90, 80%, 65%)" />
<circle cx="368.03" cy="313.16" r="4" fill="hsl(100, 80%, 65%)" />
<circle cx="134.55" cy="289.59" r="5" fill="hsl(110, 80%, 65%)" />
<circle cx="322.99" cy="148.99" r="6" fill="hsl(120, 80%, 65%)" />
<circle cx="278.93" cy="380.39" r="2" fill="hsl(130, 80%, 65%)" />
<circle cx="154.88" cy="179.62" r="3" fill="hsl(140, 80%, 65%)" />
<circle cx="382.39" cy="243.99" r="4" fill="hsl(150, 80%, 65%)" />
<circle cx="170.75" cy="350.41" r="5" fill="hsl(160, 80%, 65%)" />
<circle cx="255.08" cy="128.57" r="6" fill="hsl(170, 80%, 65%)" />
<circle cx="342.92" cy="349.52" r="2" fill="hsl(180, 80%, 65%)" />
<circle cx="128.50" cy="245.73" r="3" fill="hsl(190, 80%, 65%)" />
<circle cx="357.13" cy="177.30" r="4" fill="hsl(200, 80%, 65%)" />
<circle cx="234.55" cy="382.58" r="5" fill="hsl(210, 80%, 65%)" />
<circle cx="186.19" cy="147.98" r="6" fill="hsl(220, 80%, 65%)" />
<circle cx="380.67" cy="288.56" r="2" fill="hsl(230, 80%, 65%)" />
<circle cx="141.87" cy="316.32" r="3" fill="hsl(240, 80%, 65%)" />
<circle cx="299.49" cy="134.21" r="4" fill="hsl(250, 80%, 65%)" />
<circle cx="306.29" cy="375.39" r="5" fill="hsl(260, 80%, 65%)" />
<circle cx="138.06" cy="201.84" r="6" fill="hsl(270, 80%, 65%)" />
<circle cx="379.78" cy="216.20" r="2" fill="hsl(280, 80%, 65%)" />
<circle cx="191.50" cy="369.16" r="3" fill="hsl(290, 80%, 65%)" />
<circle cx="227.07" cy="128.77" r="4" fill="hsl(300, 80%, 65%)" />
<circle cx="363.47" cy="330.41" r="5" fill="hsl(310, 80%, 65%)" />
<circle cx="126.27" cy="273.76" r="6" fill="hsl(320, 80%, 65%)" />
</svg>
