<svg xmlns="http://www.w3.org/2000/svg" width="512" height="512" viewBox="0 0 512 512">
<rect width="100%" height="100%" fill="#0b1020"/>
<circle cx="457" cy="131" r="47" fill="#f8f3c9" opacity="0.95" />
<circle cx="126.0" cy="89.0" r="2.5" fill="white" />
<circle cx="163.0" cy="122.0" r="1.8" fill="white" />
<circle cx="98.0" cy="124.0" r="2.7" fill="white" />
<circle cx="344.0" cy="71.0" r="3.5" fill="white" />
<circle cx="115.0" cy="33.0" r="1.9" fill="white" />
<circle cx="254.0" cy="114.0" r="2.7" fill="white" />
<circle cx="345.0" cy="107.0" r="2.6" fill="white" />
<circle cx="357.0" cy="71.0" r="2.8" fill="white" />
<path d="M 20 430 C 126 417, 172 454, 320 440 S 450 396, 512 426" stroke="#5dade2" stroke-width="6" fill="none" opacity="0.85" />
<line x1="0" y1="390" x2="512" y2="390" stroke="#445566" stroke-width="4" />
<polygon points="167,357 207,297 247,317 267,287 287,307 299,347 267,369 217,373" fill="#1e1e1e" />
<polygon points="242,297 255,275 265,299" fill="#1e1e1e" />
<line x1="297" y1="342" x2="327" y2="317" stroke="#1e1e1e" stroke-width="6" />
</svg>
