<svg xmlns="http://www.w3.org/2000/svg" width="512" height="512" viewBox="0 0 512 512">
<rect width="100%" height="100%" fill="#0b1020"/>
<circle cx="367" cy="126" r="42" fill="#f8f3c9" opacity="0.95" />
<circle cx="307.0" cy="85.0" r="3.0" fill="white" />
<circle cx="375.0" cy="102.0" r="3.3" fill="white" />
<circle cx="261.0" cy="129.0" r="2.0" fill="white" />
<circle cx="92.0" cy="84.0" r="2.4" fill="white" />
<circle cx="76.0" cy="178.0" r="1.8" fill="white" />
<circle cx="50.0" cy="72.0" r="3.1" fill="white" />
<circle cx="321.0" cy="95.0" r="1.6" fill="white" />
<circle cx="204.0" cy="28.0" r="2.5" fill="white" />
<circle cx="440.0" cy="93.0" r="2.0" fill="white" />
<circle cx="113.0" cy="180.0" r="1.9" fill="white" />
<path d="M 20 430 C 138 429, 194 450, 286 433 S 450 394, 512 424" stroke="#5dade2" stroke-width="6" fill="none" opacity="0.85" />
<line x1="0" y1="386" x2="512" y2="386" stroke="#445566" stroke-width="4" />
<polygon points="188,352 228,292 268,312 288,282 308,302 320,342 288,364 238,368" fill="#1e1e1e" />
<polygon points="263,292 276,270 286,294" fill="#1e1e1e" />
<line x1="318" y1="337" x2="348" y2="312" stroke="#1e1e1e" stroke-width="6" />
</svg>
