<svg xmlns="http://www.w3.org/2000/svg" width="512" height="512" viewBox="0 0 512 512">
<rect width="100%" height="100%" fill="black"/>
<circle cx="256.00" cy="256.00" r="2" fill="hsl(0, 80%, 65%)" />
<circle cx="250.17" cy="261.34" r="3" fill="hsl(8, 80%, 65%)" />
<circle cx="256.98" cy="244.87" r="4" fill="hsl(16, 80%, 65%)" />
<circle cx="264.33" cy="266.86" r="5" fill="hsl(24, 80%, 65%)" />
<circle cx="240.44" cy="253.25" r="6" fill="hsl(32, 80%, 65%)" />
<circle cx="270.90" cy="246.52" r="2" fill="hsl(40, 80%, 65%)" />
<circle cx="250.98" cy="274.69" r="3" fill="hsl(48, 80%, 65%)" />
<circle cx="246.37" cy="237.45" r="4" fill="hsl(56, 80%, 65%)" />
<circle cx="276.99" cy="263.66" r="5" fill="hsl(64, 80%, 65%)" />
<circle cx="234.09" cy="265.04" r="6" fill="hsl(72, 80%, 65%)" />
<circle cx="266.59" cy="233.37" r="2" fill="hsl(80, 80%, 65%)" />
<circle cx="263.84" cy="281.00" r="3" fill="hsl(88, 80%, 65%)" />
<circle cx="232.32" cy="242.28" r="4" fill="hsl(96, 80%, 65%)" />
<circle cx="283.82" cy="249.88" r="5" fill="hsl(104, 80%, 65%)" />
<circle cx="239.00" cy="280.18" r="6" fill="hsl(112, 80%, 65%)" />
<circle cx="252.07" cy="225.66" r="2" fill="hsl(120, 80%, 65%)" />
<circle cx="280.16" cy="276.36" r="3" fill="hsl(128, 80%, 65%)" />
<circle cx="223.46" cy="257.35" r="4" fill="hsl(136, 80%, 65%)" />
<circle cx="279.76" cy="232.36" r="5" fill="hsl(144, 80%, 65%)" />
<circle cx="254.41" cy="290.40" r="6" fill="hsl(152, 80%, 65%)" />
<circle cx="233.36" cy="228.87" r="2" fill="hsl(160, 80%, 65%)" />
<circle cx="291.88" cy="260.83" r="3" fill="hsl(168, 80%, 65%)" />
<circle cx="225.58" cy="277.16" r="4" fill="hsl(176, 80%, 65%)" />
<circle cx="264.32" cy="219.04" r="5" fill="hsl(184, 80%, 65%)" />
<circle cx="275.24" cy="289.58" r="6" fill="hsl(192, 80%, 65%)" />
<circle cx="218.37" cy="243.99" r="2" fill="hsl(200, 80%, 65%)" />
<circle cx="292.57" cy="239.11" r="3" fill="hsl(208, 80%, 65%)" />
<circle cx="240.15" cy="293.87" r="4" fill="hsl(216, 80%, 65%)" />
<circle cx="241.85" cy="216.66" r="5" fill="hsl(224, 80%, 65%)" />
<circle cx="293.66" cy="275.79" r="6" fill="hsl(232, 80%, 65%)" />
<circle cx="214.16" cy="267.03" r="2" fill="hsl(240, 80%, 65%)" />
<circle cx="279.79" cy="219.00" r="3" fill="hsl(248, 80%, 65%)" />
<circle cx="263.57" cy="300.04" r="4" fill="hsl(256, 80%, 65%)" />
<circle cx="220.12" cy="228.21" r="5" fill="hsl(264, 80%, 65%)" />
<circle cx="301.91" cy="252.20" r="6" fill="hsl(272, 80%, 65%)" />
<circle cx="224.26" cy="290.31" r="2" fill="hsl(280, 80%, 65%)" />
<circle cx="256.23" cy="208.60" r="3" fill="hsl(288, 80%, 65%)" />
<circle cx="288.29" cy="291.59" r="4" fill="hsl(296, 80%, 65%)" />
<circle cx="207.51" cy="251.51" r="5" fill="hsl(304, 80%, 65%)" />
<circle cx="295.30" cy="226.17" r="6" fill="hsl(312, 80%, 65%)" />
<circle cx="247.06" cy="305.16" r="2" fill="hsl(320, 80%, 65%)" />
<circle cx="229.06" cy="213.19" r="3" fill="hsl(328, 80%, 65%)" />
<circle cx="305.38" cy="269.53" r="4" fill="hsl(336, 80%, 65%)" />
<circle cx="209.91" cy="279.65" r="5" fill="hsl(344, 80%, 65%)" />
<circle cx="274.22" cy="206.87" r="6" fill="hsl(352, 80%, 65%)" />
<circle cx="275.98" cy="305.08" r="2" fill="hsl(0, 80%, 65%)" />
<circle cx="207.58" cy="233.05" r="3" fill="hsl(8, 80%, 65%)" />
<circle cx="307.75" cy="240.04" r="4" fill="hsl(16, 80%, 65%)" />
<circle cx="228.33" cy="303.22" r="5" fill="hsl(24, 80%, 65%)" />
<circle cx="244.39" cy="201.93" r="6" fill="hsl(32, 80%, 65%)" />
<circle cx="301.54" cy="288.35" r="2" fill="hsl(40, 80%, 65%)" />
<circle cx="200.02" cy="262.98" r="3" fill="hsl(48, 80%, 65%)" />
<circle cx="292.92" cy="212.62" r="4" fill="hsl(56, 80%, 65%)" />
<circle cx="258.10" cy="313.47" r="5" fill="hsl(64, 80%, 65%)" />
<circle cx="215.25" cy="214.65" r="6" fill="hsl(72, 80%, 65%)" />
<circle cx="314.51" cy="258.99" r="2" fill="hsl(80, 80%, 65%)" />
<circle cx="210.43" cy="293.65" r="3" fill="hsl(88, 80%, 65%)" />
<circle cx="264.24" cy="196.93" r="4" fill="hsl(96, 80%, 65%)" />
<circle cx="290.12" cy="305.55" r="5" fill="hsl(104, 80%, 65%)" />
<circle cx="196.87" cy="242.39" r="6" fill="hsl(112, 80%, 65%)" />
<circle cx="309.24" cy="225.84" r="2" fill="hsl(120, 80%, 65%)" />
<circle cx="236.96" cy="314.69" r="3" fill="hsl(128, 80%, 65%)" />
<circle cx="230.19" cy="199.41" r="4" fill="hsl(136, 80%, 65%)" />
<circle cx="313.72" cy="280.49" r="5" fill="hsl(144, 80%, 65%)" />
<circle cx="196.43" cy="277.10" r="6" fill="hsl(152, 80%, 65%)" />
<circle cx="285.91" cy="199.77" r="2" fill="hsl(160, 80%, 65%)" />
<circle cx="272.06" cy="318.14" r="3" fill="hsl(168, 80%, 65%)" />
<circle cx="201.78" cy="220.76" r="4" fill="hsl(176, 80%, 65%)" />
<circle cx="320.26" cy="245.28" r="5" fill="hsl(184, 80%, 65%)" />
<circle cx="215.57" cy="307.68" r="6" fill="hsl(192, 80%, 65%)" />
<circle cx="250.86" cy="190.11" r="2" fill="hsl(200, 80%, 65%)" />
<circle cx="304.64" cy="301.44" r="3" fill="hsl(208, 80%, 65%)" />
<circle cx="188.97" cy="255.35" r="4" fill="hsl(216, 80%, 65%)" />
<circle cx="306.21" cy="210.89" r="5" fill="hsl(224, 80%, 65%)" />
<circle cx="249.40" cy="323.64" r="6" fill="hsl(232, 80%, 65%)" />
<circle cx="214.91" cy="201.30" r="2" fill="hsl(240, 80%, 65%)" />
<circle cx="323.70" cy="268.66" r="3" fill="hsl(248, 80%, 65%)" />
<circle cx="197.15" cy="292.63" r="4" fill="hsl(256, 80%, 65%)" />
<circle cx="274.77" cy="188.80" r="5" fill="hsl(264, 80%, 65%)" />
<circle cx="287.75" cy="318.63" r="6" fill="hsl(272, 80%, 65%)" />
<circle cx="189.87" cy="231.12" r="2" fill="hsl(280, 80%, 65%)" />
<circle cx="321.98" cy="229.51" r="3" fill="hsl(288, 80%, 65%)" />
<circle cx="225.05" cy="320.49" r="4" fill="hsl(296, 80%, 65%)" />
<circle cx="235.13" cy="187.12" r="5" fill="hsl(304, 80%, 65%)" />
<circle cx="318.29" cy="292.91" r="6" fill="hsl(312, 80%, 65%)" />
<circle cx="184.72" cy="270.94" r="2" fill="hsl(320, 80%, 65%)" />
<circle cx="298.72" cy="196.48" r="3" fill="hsl(328, 80%, 65%)" />
<circle cx="264.76" cy="329.16" r="4" fill="hsl(336, 80%, 65%)" />
<circle cx="199.80" cy="207.69" r="5" fill="hsl(344, 80%, 65%)" />
<circle cx="330.49" cy="253.65" r="6" fill="hsl(352, 80%, 65%)" />
<circle cx="202.36" cy="308.34" r="2" fill="hsl(0, 80%, 65%)" />
<circle cx="260.22" cy="180.76" r="3" fill="hsl(8, 80%, 65%)" />
<circle cx="303.98" cy="314.65" r="4" fill="hsl(16, 80%, 65%)" />
<circle cx="180.60" cy="245.11" r="5" fill="hsl(24, 80%, 65%)" />
<circle cx="319.29" cy="212.87" r="6" fill="hsl(32, 80%, 65%)" />
<circle cx="238.37" cy="330.95" r="2" fill="hsl(40, 80%, 65%)" />
<circle cx="218.17" cy="188.47" r="3" fill="hsl(48, 80%, 65%)" />
<circle cx="329.89" cy="280.37" r="4" fill="hsl(56, 80%, 65%)" />
<circle cx="184.69" cy="288.11" r="5" fill="hsl(64, 80%, 65%)" />
<circle cx="287.05" cy="183.79" r="6" fill="hsl(72, 80%, 65%)" />
<circle cx="282.01" cy="330.59" r="2" fill="hsl(80, 80%, 65%)" />
<circle cx="186.09" cy="218.38" r="3" fill="hsl(88, 80%, 65%)" />
<circle cx="333.34" cy="236.42" r="4" fill="hsl(96, 80%, 65%)" />
<circle cx="211.98" cy="323.01" r="5" fill="hsl(104, 80%, 65%)" />
<circle cx="243.13" cy="176.47" r="6" fill="hsl(112, 80%, 65%)" />
<circle cx="319.51" cy="306.19" r="2" fill="hsl(120, 80%, 65%)" />
<circle cx="174.88" cy="261.92" r="3" fill="hsl(128, 80%, 65%)" />
<circle cx="312.07" cy="196.56" r="4" fill="hsl(136, 80%, 65%)" />
<circle cx="254.80" cy="338.09" r="5" fill="hsl(144, 80%, 65%)" />
<circle cx="201.18" cy="194.38" r="6" fill="hsl(152, 80%, 65%)" />
<circle cx="338.42" cy="264.45" r="2" fill="hsl(160, 80%, 65%)" />
<circle cx="189.21" cy="305.67" r="3" fill="hsl(168, 80%, 65%)" />
<circle cx="271.77" cy="173.90" r="4" fill="hsl(176, 80%, 65%)" />
<circle cx="300.03" cy="327.51" r="5" fill="hsl(184, 80%, 65%)" />
<circle cx="174.87" cy="232.91" r="6" fill="hsl(192, 80%, 65%)" />
<circle cx="331.74" cy="218.06" r="2" fill="hsl(200, 80%, 65%)" />
<circle cx="225.65" cy="335.49" r="3" fill="hsl(208, 80%, 65%)" />
<circle cx="224.56" cy="176.55" r="4" fill="hsl(216, 80%, 65%)" />
<circle cx="333.18" cy="293.51" r="5" fill="hsl(224, 80%, 65%)" />
<circle cx="173.40" cy="280.59" r="6" fill="hsl(232, 80%, 65%)" />
<circle cx="300.48" cy="181.77" r="2" fill="hsl(240, 80%, 65%)" />
<circle cx="273.41" cy="341.14" r="3" fill="hsl(248, 80%, 65%)" />
<circle cx="185.36" cy="204.78" r="4" fill="hsl(256, 80%, 65%)" />
<circle cx="343.04" cy="246.01" r="5" fill="hsl(264, 80%, 65%)" />
<circle cx="198.33" cy="322.43" r="6" fill="hsl(272, 80%, 65%)" />
<circle cx="253.64" cy="167.71" r="2" fill="hsl(280, 80%, 65%)" />
<circle cx="317.62" cy="319.76" r="3" fill="hsl(288, 80%, 65%)" />
<circle cx="167.14" cy="250.59" r="4" fill="hsl(296, 80%, 65%)" />
<circle cx="325.45" cy="199.75" r="5" fill="hsl(304, 80%, 65%)" />
<circle cx="242.74" cy="344.74" r="6" fill="hsl(312, 80%, 65%)" />
<circle cx="205.64" cy="181.32" r="2" fill="hsl(320, 80%, 65%)" />
<circle cx="343.91" cy="277.13" r="3" fill="hsl(328, 80%, 65%)" />
<circle cx="176.60" cy="299.97" r="4" fill="hsl(336, 80%, 65%)" />
<circle cx="284.96" cy="169.62" r="5" fill="hsl(344, 80%, 65%)" />
<circle cx="293.14" cy="339.57" r="6" fill="hsl(352, 80%, 65%)" />
<circle cx="171.86" cy="219.33" r="2" fill="hsl(0, 80%, 65%)" />
<circle cx="343.14" cy="226.09" r="3" fill="hsl(8, 80%, 65%)" />
<circle cx="211.79" cy="337.21" r="4" fill="hsl(16, 80%, 65%)" />
<circle cx="233.66" cy="165.93" r="5" fill="hsl(24, 80%, 65%)" />
<circle cx="333.60" cy="307.51" r="6" fill="hsl(32, 80%, 65%)" />
<circle cx="163.66" cy="270.48" r="2" fill="hsl(40, 80%, 65%)" />
<circle cx="314.52" cy="182.68" r="3" fill="hsl(48, 80%, 65%)" />
<circle cx="262.40" cy="349.92" r="4" fill="hsl(56, 80%, 65%)" />
<circle cx="187.60" cy="190.84" r="5" fill="hsl(64, 80%, 65%)" />
<circle cx="350.78" cy="257.85" r="6" fill="hsl(72, 80%, 65%)" />
<circle cx="184.62" cy="318.88" r="2" fill="hsl(80, 80%, 65%)" />
<circle cx="266.20" cy="161.09" r="3" fill="hsl(88, 80%, 65%)" />
<circle cx="312.78" cy="333.13" r="4" fill="hsl(96, 80%, 65%)" />
<circle cx="161.71" cy="237.42" r="5" fill="hsl(104, 80%, 65%)" />
<circle cx="338.36" cy="205.84" r="6" fill="hsl(112, 80%, 65%)" />
<circle cx="229.06" cy="348.93" r="2" fill="hsl(120, 80%, 65%)" />
<circle cx="212.95" cy="168.99" r="3" fill="hsl(128, 80%, 65%)" />
<circle cx="346.82" cy="291.19" r="4" fill="hsl(136, 80%, 65%)" />
<circle cx="164.97" cy="291.51" r="5" fill="hsl(144, 80%, 65%)" />
<circle cx="299.28" cy="168.03" r="6" fill="hsl(152, 80%, 65%)" />
<circle cx="283.60" cy="350.40" r="2" fill="hsl(160, 80%, 65%)" />
<circle cx="171.61" cy="204.87" r="3" fill="hsl(168, 80%, 65%)" />
<circle cx="353.07" cy="236.64" r="4" fill="hsl(176, 80%, 65%)" />
<circle cx="197.32" cy="336.10" r="5" fill="hsl(184, 80%, 65%)" />
<circle cx="245.13" cy="156.98" r="6" fill="hsl(192, 80%, 65%)" />
<circle cx="331.14" cy="321.88" r="2" fill="hsl(200, 80%, 65%)" />
<circle cx="155.79" cy="258.19" r="3" fill="hsl(208, 80%, 65%)" />
<circle cx="328.64" cy="186.48" r="4" fill="hsl(216, 80%, 65%)" />
<circle cx="249.38" cy="356.64" r="5" fill="hsl(224, 80%, 65%)" />
<circle cx="192.71" cy="177.08" r="6" fill="hsl(232, 80%, 65%)" />
<circle cx="356.29" cy="271.49" r="2" fill="hsl(240, 80%, 65%)" />
<circle cx="171.33" cy="312.49" r="3" fill="hsl(248, 80%, 65%)" />
<circle cx="280.35" cy="156.86" r="4" fill="hsl(256, 80%, 65%)" />
<circle cx="305.16" cy="345.82" r="5" fill="hsl(264, 80%, 65%)" />
<circle cx="158.79" cy="222.88" r="6" fill="hsl(272, 80%, 65%)" />
<circle cx="350.33" cy="214.63" r="2" fill="hsl(280, 80%, 65%)" />
<circle cx="214.27" cy="350.50" r="3" fill="hsl(288, 80%, 65%)" />
<circle cx="222.84" cy="157.84" r="4" fill="hsl(296, 80%, 65%)" />
<circle cx="347.02" cy="306.13" r="5" fill="hsl(304, 80%, 65%)" />
<circle cx="154.74" cy="280.59" r="6" fill="hsl(312, 80%, 65%)" />
<circle cx="314.22" cy="169.22" r="2" fill="hsl(320, 80%, 65%)" />
<circle cx="271.73" cy="359.62" r="3" fill="hsl(328, 80%, 65%)" />
<circle cx="174.18" cy="190.04" r="4" fill="hsl(336, 80%, 65%)" />
<circle cx="361.19" cy="249.35" r="5" fill="hsl(344, 80%, 65%)" />
<circle cx="182.73" cy="332.17" r="6" fill="hsl(352, 80%, 65%)" />
<circle cx="258.58" cy="150.04" r="2" fill="hsl(0, 80%, 65%)" />
<circle cx="325.86" cy="336.10" r="3" fill="hsl(8, 80%, 65%)" />
<circle cx="150.09" cy="244.10" r="4" fill="hsl(16, 80%, 65%)" />
<circle cx="342.37" cy="193.07" r="5" fill="hsl(24, 80%, 65%)" />
<circle cx="234.77" cy="361.03" r="6" fill="hsl(32, 80%, 65%)" />
<circle cx="200.56" cy="163.96" r="2" fill="hsl(40, 80%, 65%)" />
<circle cx="359.33" cy="286.50" r="3" fill="hsl(48, 80%, 65%)" />
<circle cx="158.94" cy="303.44" r="4" fill="hsl(56, 80%, 65%)" />
<circle cx="295.63" cy="155.19" r="5" fill="hsl(64, 80%, 65%)" />
<circle cx="294.98" cy="357.37" r="6" fill="hsl(72, 80%, 65%)" />
<circle cx="158.53" cy="207.45" r="2" fill="hsl(80, 80%, 65%)" />
<circle cx="360.94" cy="225.88" r="3" fill="hsl(88, 80%, 65%)" />
<circle cx="198.82" cy="349.34" r="4" fill="hsl(96, 80%, 65%)" />
<circle cx="235.06" cy="148.27" r="5" fill="hsl(104, 80%, 65%)" />
<circle cx="344.44" cy="321.46" r="6" fill="hsl(112, 80%, 65%)" />
<circle cx="146.29" cy="267.50" r="2" fill="hsl(120, 80%, 65%)" />
<circle cx="329.32" cy="173.20" r="3" fill="hsl(128, 80%, 65%)" />
<circle cx="257.88" cy="366.86" r="4" fill="hsl(136, 80%, 65%)" />
<circle cx="179.53" cy="175.32" r="5" fill="hsl(144, 80%, 65%)" />
<circle cx="367.16" cy="263.86" r="6" fill="hsl(152, 80%, 65%)" />
<circle cx="168.50" cy="325.47" r="2" fill="hsl(160, 80%, 65%)" />
<circle cx="273.64" cy="145.40" r="3" fill="hsl(168, 80%, 65%)" />
<circle cx="317.86" cy="349.70" r="4" fill="hsl(176, 80%, 65%)" />
<circle cx="146.82" cy="228.63" r="5" fill="hsl(184, 80%, 65%)" />
<circle cx="355.24" cy="202.31" r="6" fill="hsl(192, 80%, 65%)" />
<circle cx="219.00" cy="362.89" r="2" fill="hsl(200, 80%, 65%)" />
<circle cx="210.97" cy="151.94" r="3" fill="hsl(208, 80%, 65%)" />
<circle cx="359.75" cy="302.42" r="4" fill="hsl(216, 80%, 65%)" />
<circle cx="147.88" cy="291.93" r="5" fill="hsl(224, 80%, 65%)" />
<circle cx="311.58" cy="156.23" r="6" fill="hsl(232, 80%, 65%)" />
<circle cx="282.47" cy="367.38" r="2" fill="hsl(240, 80%, 65%)" />
<circle cx="161.02" cy="191.60" r="3" fill="hsl(248, 80%, 65%)" />
<circle cx="369.80" cy="239.29" r="4" fill="hsl(256, 80%, 65%)" />
<circle cx="183.20" cy="345.41" r="5" fill="hsl(264, 80%, 65%)" />
<circle cx="249.27" cy="140.63" r="6" fill="hsl(272, 80%, 65%)" />
<circle cx="339.09" cy="336.71" r="2" fill="hsl(280, 80%, 65%)" />
<circle cx="139.95" cy="252.60" r="3" fill="hsl(288, 80%, 65%)" />
<circle cx="344.07" cy="179.94" r="4" fill="hsl(296, 80%, 65%)" />
<circle cx="242.41" cy="371.84" r="5" fill="hsl(304, 80%, 65%)" />
<circle cx="187.61" cy="161.18" r="6" fill="hsl(312, 80%, 65%)" />
<circle cx="370.74" cy="279.78" r="2" fill="hsl(320, 80%, 65%)" />
<circle cx="155.11" cy="316.11" r="3" fill="hsl(328, 80%, 65%)" />
<circle cx="289.87" cy="143.27" r="4" fill="hsl(336, 80%, 65%)" />
<circle cx="307.29" cy="362.24" r="5" fill="hsl(344, 80%, 65%)" />
<circle cx="146.17" cy="212.21" r="6" fill="hsl(352, 80%, 65%)" />
<circle cx="366.81" cy="214.01" r="2" fill="hsl(0, 80%, 65%)" />
<circle cx="202.54" cy="362.05" r="3" fill="hsl(8, 80%, 65%)" />
<circle cx="223.72" cy="141.44" r="4" fill="hsl(16, 80%, 65%)" />
<circle cx="357.41" cy="318.81" r="5" fill="hsl(24, 80%, 65%)" />
<circle cx="138.54" cy="278.24" r="6" fill="hsl(32, 80%, 65%)" />
<circle cx="327.74" cy="160.05" r="2" fill="hsl(40, 80%, 65%)" />
<circle cx="267.94" cy="375.47" r="3" fill="hsl(48, 80%, 65%)" />
<circle cx="166.30" cy="175.80" r="4" fill="hsl(56, 80%, 65%)" />
<circle cx="376.58" cy="254.55" r="5" fill="hsl(64, 80%, 65%)" />
<circle cx="167.88" cy="338.70" r="6" fill="hsl(72, 80%, 65%)" />
<circle cx="265.13" cy="135.24" r="2" fill="hsl(80, 80%, 65%)" />
<circle cx="331.00" cy="351.41" r="3" fill="hsl(88, 80%, 65%)" />
<circle cx="136.00" cy="236.26" r="4" fill="hsl(96, 80%, 65%)" />
</svg>
