<svg xmlns="http://www.w3.org/2000/svg" width="512" height="512" viewBox="0 0 512 512">
<rect width="100%" height="100%" fill="#0b1020"/>
<circle cx="452" cy="121" r="56" fill="#f8f3c9" opacity="0.95" />
<circle cx="395.0" cy="88.0" r="3.0" fill="white" />
<circle cx="403.0" cy="143.0" r="2.3" fill="white" />
<circle cx="199.0" cy="171.0" r="2.3" fill="white" />
<circle cx="107.0" cy="140.0" r="3.0" fill="white" />
<circle cx="278.0" cy="159.0" r="1.7" fill="white" />
<circle cx="72.0" cy="97.0" r="2.6" fill="white" />
<circle cx="30.0" cy="71.0" r="2.0" fill="white" />
<circle cx="460.0" cy="39.0" r="3.1" fill="white" />
<circle cx="380.0" cy="99.0" r="3.1" fill="white" />
<circle cx="382.0" cy="111.0" r="2.6" fill="white" />
<circle cx="457.0" cy="161.0" r="2.9" fill="white" />
<circle cx="254.0" cy="82.0" r="1.6" fill="white" />
<path d="M 20 430 C 118 429, 162 458, 292 420 S 450 404, 512 434" stroke="#5dade2" stroke-width="7" fill="none" opacity="0.85" />
<line x1="0" y1="393" x2="512" y2="393" stroke="#445566" stroke-width="3" />
<polygon points="159,357 199,297 239,317 259,287 279,307 291,347 259,369 209,373" fill="#1e1e1e" />
<polygon points="234,297 247,275 257,299" fill="#1e1e1e" />
<line x1="289" y1="342" x2="319" y2="317" stroke="#1e1e1e" stroke-width="6" />
</svg>
