<svg xmlns="http://www.w3.org/2000/svg" width="512" height="512" viewBox="0 0 512 512">
<rect width="100%" height="100%" fill="#0b1020"/>
<circle cx="369" cy="103" r="41" fill="#f8f3c9" opacity="0.95" />
<circle cx="116.0" cy="131.0" r="1.8" fill="white" />
<circle cx="26.0" cy="118.0" r="2.0" fill="white" />
<circle cx="168.0" cy="62.0" r="2.1" fill="white" />
<circle cx="244.0" cy="77.0" r="2.2" fill="white" />
<circle cx="488.0" cy="160.0" r="2.6" fill="white" />
<circle cx="226.0" cy="31.0" r="2.7" fill="white" />
<circle cx="408.0" cy="62.0" r="1.5" fill="white" />
<circle cx="63.0" cy="168.0" r="1.8" fill="white" />
<circle cx="310.0" cy="24.0" r="2.5" fill="white" />
<circle cx="102.0" cy="69.0" r="2.3" fill="white" />
<circle cx="413.0" cy="113.0" r="1.8" fill="white" />
<circle cx="293.0" cy="139.0" r="1.5" fill="white" />
<circle cx="328.0" cy="110.0" r="3.4" fill="white" />
<circle cx="309.0" cy="76.0" r="1.6" fill="white" />
<circle cx="154.0" cy="124.0" r="1.6" fill="white" />
<path d="M 20 430 C 127 422, 192 447, 318 427 S 450 393, 512 423" stroke="#5dade2" stroke-width="7" fill="none" opacity="0.85" />
<line x1="0" y1="410" x2="512" y2="410" stroke="#445566" stroke-width="2" />
<polygon points="207,358 247,298 287,318 307,288 327,308 339,348 307,370 257,374" fill="#1e1e1e" />
<polygon points="282,298 295,276 305,300" fill="#1e1e1e" />
<line x1="337" y1="343" x2="367" y2="318" stroke="#1e1e1e" stroke-width="6" />
</svg>
