<svg xmlns="http://www.w3.org/2000/svg" width="512" height="512" viewBox="0 0 512 512">
<rect width="100%" height="100%" fill="#0b1020"/>
<circle cx="371" cy="94" r="40" fill="#f8f3c9" opacity="0.95" />
<circle cx="40.0" cy="57.0" r="3.2" fill="white" />
<circle cx="457.0" cy="76.0" r="1.6" fill="white" />
<circle cx="331.0" cy="84.0" r="1.9" fill="white" />
<circle cx="390.0" cy="92.0" r="1.7" fill="white" />
<circle cx="287.0" cy="81.0" r="1.6" fill="white" />
<circle cx="303.0" cy="28.0" r="2.5" fill="white" />
<circle cx="402.0" cy="80.0" r="3.2" fill="white" />
<circle cx="355.0" cy="105.0" r="2.6" fill="white" />
<circle cx="283.0" cy="180.0" r="2.3" fill="white" />
<circle cx="443.0" cy="146.0" r="2.2" fill="white" />
<circle cx="430.0" cy="85.0" r="2.0" fill="white" />
<circle cx="324.0" cy="72.0" r="2.2" fill="white" />
<path d="M 20 430 C 119 423, 178 440, 299 420 S 450 397, 512 427" stroke="#5dade2" stroke-width="7" fill="none" opacity="0.85" />
<line x1="0" y1="410" x2="512" y2="410" stroke="#445566" stroke-width="4" />
<polygon points="164,365 204,305 244,325 264,295 284,315 296,355 264,377 214,381" fill="#1e1e1e" />
<polygon points="239,305 252,283 262,307" fill="#1e1e1e" />
<line x1="294" y1="350" x2="324" y2="325" stroke="#1e1e1e" stroke-width="6" />
</svg>
