<svg xmlns="http://www.w3.org/2000/svg" width="512" height="512" viewBox="0 0 512 512">
<rect width="100%" height="100%" fill="#0b1020"/>
<circle cx="355" cy="98" r="55" fill="#f8f3c9" opacity="0.95" />
<circle cx="484.0" cy="167.0" r="2.2" fill="white" />
<circle cx="369.0" cy="51.0" r="2.0" fill="white" />
<circle cx="447.0" cy="176.0" r="2.4" fill="white" />
<circle cx="47.0" cy="93.0" r="3.0" fill="white" />
<circle cx="369.0" cy="77.0" r="3.1" fill="white" />
<circle cx="300.0" cy="75.0" r="3.0" fill="white" />
<circle cx="394.0" cy="96.0" r="3.5" fill="white" />
<circle cx="59.0" cy="63.0" r="1.7" fill="white" />
<circle cx="311.0" cy="67.0" r="2.1" fill="white" />
<circle cx="486.0" cy="57.0" r="1.8" fill="white" />
<path d="M 20 430 C 113 418, 179 459, 290 430 S 450 383, 512 413" stroke="#5dade2" stroke-width="7" fill="none" opacity="0.85" />
<line x1="0" y1="412" x2="512" y2="412" stroke="#445566" stroke-width="4" />
<polygon points="210,360 250,300 290,320 310,290 330,310 342,350 310,372 260,376" fill="#1e1e1e" />
<polygon points="285,300 298,278 308,302" fill="#1e1e1e" />
<line x1="340" y1="345" x2="370" y2="320" stroke="#1e1e1e" stroke-width="6" />
</svg>
