<svg xmlns="http://www.w3.org/2000/svg" width="512" height="512" viewBox="0 0 512 512">
<rect width="100%" height="100%" fill="#0b1020"/>
<circle cx="374" cy="89" r="54" fill="#f8f3c9" opacity="0.95" />
<circle cx="278.0" cy="52.0" r="3.2" fill="white" />
<circle cx="285.0" cy="90.0" r="2.3" fill="white" />
<circle cx="229.0" cy="79.0" r="1.5" fill="white" />
<circle cx="282.0" cy="37.0" r="3.3" fill="white" />
<circle cx="420.0" cy="68.0" r="2.1" fill="white" />
<circle cx="311.0" cy="176.0" r="3.4" fill="white" />
<circle cx="32.0" cy="146.0" r="2.3" fill="white" />
<circle cx="236.0" cy="53.0" r="3.2" fill="white" />
<circle cx="449.0" cy="141.0" r="3.3" fill="white" />
<circle cx="330.0" cy="112.0" r="1.7" fill="white" />
<circle cx="277.0" cy="129.0" r="2.9" fill="white" />
<path d="M 20 430 C 102 430, 191 447, 300 435 S 450 401, 512 431" stroke="#5dade2" stroke-width="7" fill="none" opacity="0.85" />
<line x1="0" y1="386" x2="512" y2="386" stroke="#445566" stroke-width="4" />
<polygon points="210,354 250,294 290,314 310,284 330,304 342,344 310,366 260,370" fill="#1e1e1e" />
<polygon points="285,294 298,272 308,296" fill="#1e1e1e" />
<line x1="340" y1="339" x2="370" y2="314" stroke="#1e1e1e" stroke-width="6" />
</svg>
