<svg xmlns="http://www.w3.org/2000/svg" width="512" height="512" viewBox="0 0 512 512">
<rect width="100%" height="100%" fill="#0b1020"/>
<circle cx="459" cy="103" r="49" fill="#f8f3c9" opacity="0.95" />
<circle cx="68.0" cy="159.0" r="2.9" fill="white" />
<circle cx="344.0" cy="71.0" r="1.8" fill="white" />
<circle cx="289.0" cy="103.0" r="3.1" fill="white" />
<circle cx="396.0" cy="101.0" r="1.6" fill="white" />
<circle cx="329.0" cy="103.0" r="2.0" fill="white" />
<circle cx="408.0" cy="83.0" r="1.6" fill="white" />
<circle cx="184.0" cy="153.0" r="2.2" fill="white" />
<path d="M 20 430 C 130 426, 190 460, 301 422 S 450 395, 512 425" stroke="#5dade2" stroke-width="5" fill="none" opacity="0.85" />
<line x1="0" y1="403" x2="512" y2="403" stroke="#445566" stroke-width="2" />
<polygon points="153,350 193,290 233,310 253,280 273,300 285,340 253,362 203,366" fill="#1e1e1e" />
<polygon points="228,290 241,268 251,292" fill="#1e1e1e" />
<line x1="283" y1="335" x2="313" y2="310" stroke="#1e1e1e" stroke-width="6" />
</svg>
