<svg xmlns="http://www.w3.org/2000/svg" width="512" height="512" viewBox="0 0 512 512">
<rect width="100%" height="100%" fill="black"/>
<circle cx="265" cy="131" r="3" fill="hsl(0, 80%, 65%)" />
<circle cx="207" cy="390" r="3" fill="hsl(9, 80%, 65%)" />
<circle cx="95" cy="115" r="5" fill="hsl(18, 80%, 65%)" />
<circle cx="382" cy="125" r="5" fill="hsl(27, 80%, 65%)" />
<circle cx="330" cy="146" r="5" fill="hsl(36, 80%, 65%)" />
<circle cx="204" cy="100" r="5" fill="hsl(45, 80%, 65%)" />
<circle cx="366" cy="148" r="6" fill="hsl(54, 80%, 65%)" />
<circle cx="424" cy="135" r="6" fill="hsl(63, 80%, 65%)" />
<circle cx="177" cy="72" r="5" fill="hsl(72, 80%, 65%)" />
<circle cx="83" cy="350" r="5" fill="hsl(81, 80%, 65%)" />
<circle cx="204" cy="109" r="5" fill="hsl(90, 80%, 65%)" />
<circle cx="313" cy="353" r="7" fill="hsl(99, 80%, 65%)" />
<circle cx="207" cy="274" r="7" fill="hsl(108, 80%, 65%)" />
<circle cx="131" cy="247" r="6" fill="hsl(117, 80%, 65%)" />
<circle cx="126" cy="325" r="8" fill="hsl(126, 80%, 65%)" />
<circle cx="336" cy="314" r="2" fill="hsl(135, 80%, 65%)" />
<circle cx="206" cy="377" r="3" fill="hsl(144, 80%, 65%)" />
<circle cx="99" cy="362" r="3" fill="hsl(153, 80%, 65%)" />
<circle cx="218" cy="370" r="7" fill="hsl(162, 80%, 65%)" />
<circle cx="223" cy="152" r="7" fill="hsl(171, 80%, 65%)" />
<circle cx="267" cy="377" r="8" fill="hsl(180, 80%, 65%)" />
<circle cx="419" cy="298" r="4" fill="hsl(189, 80%, 65%)" />
<circle cx="251" cy="151" r="3" fill="hsl(198, 80%, 65%)" />
<circle cx="366" cy="116" r="2" fill="hsl(207, 80%, 65%)" />
<circle cx="155" cy="110" r="2" fill="hsl(216, 80%, 65%)" />
<circle cx="239" cy="105" r="4" fill="hsl(225, 80%, 65%)" />
<circle cx="197" cy="180" r="7" fill="hsl(234, 80%, 65%)" />
<circle cx="126" cy="361" r="4" fill="hsl(243, 80%, 65%)" />
<circle cx="148" cy="403" r="3" fill="hsl(252, 80%, 65%)" />
<circle cx="360" cy="426" r="7" fill="hsl(261, 80%, 65%)" />
<circle cx="434" cy="325" r="8" fill="hsl(270, 80%, 65%)" />
<circle cx="251" cy="252" r="7" fill="hsl(279, 80%, 65%)" />
<circle cx="229" cy="100" r="7" fill="hsl(288, 80%, 65%)" />
<circle cx="402" cy="130" r="3" fill="hsl(297, 80%, 65%)" />
<circle cx="362" cy="225" r="6" fill="hsl(306, 80%, 65%)" />
<circle cx="378" cy="399" r="7" fill="hsl(315, 80%, 65%)" />
<circle cx="349" cy="158" r="6" fill="hsl(324, 80%, 65%)" />
<circle cx="387" cy="413" r="2" fill="hsl(333, 80%, 65%)" />
<circle cx="345" cy="300" r="2" fill="hsl(342, 80%, 65%)" />
<circle cx="259" cy="315" r="3" fill="hsl(351, 80%, 65%)" />
<circle cx="405" cy="325" r="7" fill="hsl(0, 80%, 65%)" />
<circle cx="87" cy="320" r="4" fill="hsl(9, 80%, 65%)" />
<circle cx="286" cy="142" r="2" fill="hsl(18, 80%, 65%)" />
<circle cx="96" cy="202" r="8" fill="hsl(27, 80%, 65%)" />
<circle cx="317" cy="348" r="6" fill="hsl(36, 80%, 65%)" />
<circle cx="358" cy="322" r="8" fill="hsl(45, 80%, 65%)" />
<circle cx="142" cy="173" r="2" fill="hsl(54, 80%, 65%)" />
<circle cx="249" cy="200" r="3" fill="hsl(63, 80%, 65%)" />
<circle cx="158" cy="165" r="8" fill="hsl(72, 80%, 65%)" />
<circle cx="323" cy="407" r="3" fill="hsl(81, 80%, 65%)" />
<circle cx="81" cy="150" r="5" fill="hsl(90, 80%, 65%)" />
<circle cx="311" cy="342" r="4" fill="hsl(99, 80%, 65%)" />
<circle cx="133" cy="263" r="7" fill="hsl(108, 80%, 65%)" />
<circle cx="161" cy="280" r="4" fill="hsl(117, 80%, 65%)" />
<circle cx="354" cy="362" r="4" fill="hsl(126, 80%, 65%)" />
<circle cx="210" cy="276" r="5" fill="hsl(135, 80%, 65%)" />
<circle cx="134" cy="153" r="2" fill="hsl(144, 80%, 65%)" />
<circle cx="87" cy="194" r="6" fill="hsl(153, 80%, 65%)" />
<circle cx="141" cy="87" r="8" fill="hsl(162, 80%, 65%)" />
<circle cx="364" cy="384" r="5" fill="hsl(171, 80%, 65%)" />
<circle cx="347" cy="300" r="2" fill="hsl(180, 80%, 65%)" />
<circle cx="435" cy="73" r="2" fill="hsl(189, 80%, 65%)" />
<circle cx="198" cy="164" r="3" fill="hsl(198, 80%, 65%)" />
<circle cx="336" cy="345" r="7" fill="hsl(207, 80%, 65%)" />
<circle cx="365" cy="326" r="3" fill="hsl(216, 80%, 65%)" />
<circle cx="283" cy="347" r="8" fill="hsl(225, 80%, 65%)" />
<circle cx="352" cy="317" r="5" fill="hsl(234, 80%, 65%)" />
<circle cx="191" cy="438" r="8" fill="hsl(243, 80%, 65%)" />
<circle cx="285" cy="81" r="8" fill="hsl(252, 80%, 65%)" />
<circle cx="359" cy="346" r="8" fill="hsl(261, 80%, 65%)" />
<circle cx="161" cy="352" r="4" fill="hsl(270, 80%, 65%)" />
<circle cx="156" cy="286" r="5" fill="hsl(279, 80%, 65%)" />
<circle cx="426" cy="354" r="4" fill="hsl(288, 80%, 65%)" />
<circle cx="196" cy="319" r="4" fill="hsl(297, 80%, 65%)" />
<circle cx="425" cy="116" r="8" fill="hsl(306, 80%, 65%)" />
<circle cx="372" cy="414" r="7" fill="hsl(315, 80%, 65%)" />
<circle cx="183" cy="183" r="7" fill="hsl(324, 80%, 65%)" />
<circle cx="256" cy="358" r="2" fill="hsl(333, 80%, 65%)" />
<circle cx="107" cy="290" r="2" fill="hsl(342, 80%, 65%)" />
<circle cx="324" cy="333" r="7" fill="hsl(351, 80%, 65%)" />
<circle cx="86" cy="184" r="3" fill="hsl(0, 80%, 65%)" />
<circle cx="415" cy="440" r="6" fill="hsl(9, 80%, 65%)" />
<circle cx="147" cy="344" r="5" fill="hsl(18, 80%, 65%)" />
<circle cx="193" cy="94" r="4" fill="hsl(27, 80%, 65%)" />
<circle cx="219" cy="345" r="8" fill="hsl(36, 80%, 65%)" />
<circle cx="132" cy="103" r="7" fill="hsl(45, 80%, 65%)" />
<circle cx="93" cy="299" r="3" fill="hsl(54, 80%, 65%)" />
<circle cx="167" cy="287" r="6" fill="hsl(63, 80%, 65%)" />
<circle cx="245" cy="369" r="2" fill="hsl(72, 80%, 65%)" />
<circle cx="425" cy="359" r="4" fill="hsl(81, 80%, 65%)" />
<circle cx="139" cy="116" r="8" fill="hsl(90, 80%, 65%)" />
<circle cx="406" cy="406" r="6" fill="hsl(99, 80%, 65%)" />
<circle cx="256" cy="247" r="8" fill="hsl(108, 80%, 65%)" />
<circle cx="163" cy="178" r="2" fill="hsl(117, 80%, 65%)" />
<circle cx="375" cy="79" r="4" fill="hsl(126, 80%, 65%)" />
<circle cx="321" cy="85" r="5" fill="hsl(135, 80%, 65%)" />
<circle cx="103" cy="216" r="8" fill="hsl(144, 80%, 65%)" />
<circle cx="102" cy="80" r="4" fill="hsl(153, 80%, 65%)" />
<circle cx="145" cy="254" r="8" fill="hsl(162, 80%, 65%)" />
<circle cx="108" cy="173" r="5" fill="hsl(171, 80%, 65%)" />
<circle cx="380" cy="285" r="8" fill="hsl(180, 80%, 65%)" />
<circle cx="397" cy="431" r="3" fill="hsl(189, 80%, 65%)" />
<circle cx="198" cy="372" r="8" fill="hsl(198, 80%, 65%)" />
<circle cx="147" cy="135" r="4" fill="hsl(207, 80%, 65%)" />
<circle cx="224" cy="249" r="8" fill="hsl(216, 80%, 65%)" />
<circle cx="208" cy="72" r="6" fill="hsl(225, 80%, 65%)" />
<circle cx="275" cy="385" r="4" fill="hsl(234, 80%, 65%)" />
<circle cx="196" cy="239" r="3" fill="hsl(243, 80%, 65%)" />
<circle cx="124" cy="272" r="4" fill="hsl(252, 80%, 65%)" />
<circle cx="369" cy="235" r="5" fill="hsl(261, 80%, 65%)" />
<circle cx="291" cy="113" r="5" fill="hsl(270, 80%, 65%)" />
<circle cx="333" cy="167" r="3" fill="hsl(279, 80%, 65%)" />
<circle cx="156" cy="144" r="2" fill="hsl(288, 80%, 65%)" />
<circle cx="373" cy="120" r="6" fill="hsl(297, 80%, 65%)" />
<circle cx="200" cy="312" r="6" fill="hsl(306, 80%, 65%)" />
<circle cx="265" cy="334" r="5" fill="hsl(315, 80%, 65%)" />
<circle cx="221" cy="177" r="3" fill="hsl(324, 80%, 65%)" />
<circle cx="363" cy="202" r="3" fill="hsl(333, 80%, 65%)" />
<circle cx="180" cy="246" r="2" fill="hsl(342, 80%, 65%)" />
<circle cx="387" cy="187" r="7" fill="hsl(351, 80%, 65%)" />
<circle cx="358" cy="245" r="8" fill="hsl(0, 80%, 65%)" />
<circle cx="183" cy="79" r="3" fill="hsl(9, 80%, 65%)" />
<circle cx="265" cy="342" r="4" fill="hsl(18, 80%, 65%)" />
<circle cx="300" cy="437" r="7" fill="hsl(27, 80%, 65%)" />
<circle cx="364" cy="71" r="2" fill="hsl(36, 80%, 65%)" />
<circle cx="335" cy="182" r="8" fill="hsl(45, 80%, 65%)" />
<circle cx="313" cy="426" r="4" fill="hsl(54, 80%, 65%)" />
<circle cx="396" cy="229" r="7" fill="hsl(63, 80%, 65%)" />
<circle cx="172" cy="432" r="2" fill="hsl(72, 80%, 65%)" />
<circle cx="206" cy="265" r="6" fill="hsl(81, 80%, 65%)" />
<circle cx="302" cy="271" r="8" fill="hsl(90, 80%, 65%)" />
<circle cx="376" cy="306" r="7" fill="hsl(99, 80%, 65%)" />
<circle cx="338" cy="316" r="8" fill="hsl(108, 80%, 65%)" />
<circle cx="255" cy="117" r="5" fill="hsl(117, 80%, 65%)" />
<circle cx="119" cy="139" r="2" fill="hsl(126, 80%, 65%)" />
<circle cx="251" cy="193" r="6" fill="hsl(135, 80%, 65%)" />
<circle cx="151" cy="184" r="2" fill="hsl(144, 80%, 65%)" />
<circle cx="76" cy="216" r="4" fill="hsl(153, 80%, 65%)" />
<circle cx="408" cy="362" r="2" fill="hsl(162, 80%, 65%)" />
<circle cx="135" cy="415" r="2" fill="hsl(171, 80%, 65%)" />
<circle cx="93" cy="256" r="6" fill="hsl(180, 80%, 65%)" />
<circle cx="188" cy="438" r="4" fill="hsl(189, 80%, 65%)" />
<circle cx="185" cy="420" r="2" fill="hsl(198, 80%, 65%)" />
<circle cx="144" cy="190" r="2" fill="hsl(207, 80%, 65%)" />
<circle cx="322" cy="389" r="6" fill="hsl(216, 80%, 65%)" />
<circle cx="214" cy="91" r="6" fill="hsl(225, 80%, 65%)" />
<circle cx="119" cy="368" r="2" fill="hsl(234, 80%, 65%)" />
<circle cx="402" cy="271" r="2" fill="hsl(243, 80%, 65%)" />
<circle cx="177" cy="138" r="7" fill="hsl(252, 80%, 65%)" />
<circle cx="418" cy="309" r="2" fill="hsl(261, 80%, 65%)" />
<circle cx="265" cy="284" r="7" fill="hsl(270, 80%, 65%)" />
<circle cx="256" cy="215" r="2" fill="hsl(279, 80%, 65%)" />
<circle cx="231" cy="424" r="6" fill="hsl(288, 80%, 65%)" />
<circle cx="361" cy="112" r="6" fill="hsl(297, 80%, 65%)" />
<circle cx="337" cy="76" r="3" fill="hsl(306, 80%, 65%)" />
<circle cx="113" cy="399" r="2" fill="hsl(315, 80%, 65%)" />
<circle cx="200" cy="200" r="6" fill="hsl(324, 80%, 65%)" />
<circle cx="267" cy="295" r="8" fill="hsl(333, 80%, 65%)" />
<circle cx="383" cy="386" r="8" fill="hsl(342, 80%, 65%)" />
<circle cx="269" cy="229" r="2" fill="hsl(351, 80%, 65%)" />
<circle cx="255" cy="375" r="4" fill="hsl(0, 80%, 65%)" />
<circle cx="186" cy="242" r="4" fill="hsl(9, 80%, 65%)" />
<circle cx="212" cy="288" r="7" fill="hsl(18, 80%, 65%)" />
<circle cx="310" cy="319" r="8" fill="hsl(27, 80%, 65%)" />
<circle cx="332" cy="304" r="6" fill="hsl(36, 80%, 65%)" />
<circle cx="178" cy="274" r="7" fill="hsl(45, 80%, 65%)" />
<circle cx="87" cy="326" r="6" fill="hsl(54, 80%, 65%)" />
<circle cx="203" cy="106" r="4" fill="hsl(63, 80%, 65%)" />
<circle cx="83" cy="255" r="4" fill="hsl(72, 80%, 65%)" />
<circle cx="340" cy="217" r="2" fill="hsl(81, 80%, 65%)" />
<circle cx="402" cy="264" r="3" fill="hsl(90, 80%, 65%)" />
<circle cx="393" cy="397" r="4" fill="hsl(99, 80%, 65%)" />
<circle cx="413" cy="287" r="4" fill="hsl(108, 80%, 65%)" />
<circle cx="403" cy="185" r="7" fill="hsl(117, 80%, 65%)" />
<circle cx="437" cy="189" r="6" fill="hsl(126, 80%, 65%)" />
<circle cx="341" cy="382" r="5" fill="hsl(135, 80%, 65%)" />
<circle cx="218" cy="85" r="5" fill="hsl(144, 80%, 65%)" />
<circle cx="423" cy="284" r="6" fill="hsl(153, 80%, 65%)" />
<circle cx="208" cy="278" r="5" fill="hsl(162, 80%, 65%)" />
<circle cx="211" cy="115" r="2" fill="hsl(171, 80%, 65%)" />
<line x1="413" y1="327" x2="459" y2="262" stroke="#223344" stroke-width="1"/>
<line x1="157" y1="245" x2="150" y2="261" stroke="#223344" stroke-width="1"/>
<line x1="179" y1="369" x2="246" y2="314" stroke="#223344" stroke-width="1"/>
<line x1="326" y1="409" x2="333" y2="412" stroke="#223344" stroke-width="1"/>
<line x1="439" y1="126" x2="401" y2="189" stroke="#223344" stroke-width="1"/>
<line x1="332" y1="382" x2="387" y2="384" stroke="#223344" stroke-width="1"/>
<line x1="366" y1="421" x2="376" y2="374" stroke="#223344" stroke-width="1"/>
<line x1="230" y1="81" x2="271" y2="140" stroke="#223344" stroke-width="1"/>
<line x1="361" y1="159" x2="438" y2="130" stroke="#223344" stroke-width="1"/>
<line x1="117" y1="303" x2="130" y2="259" stroke="#223344" stroke-width="1"/>
<line x1="276" y1="389" x2="230" y2="395" stroke="#223344" stroke-width="1"/>
<line x1="278" y1="294" x2="224" y2="369" stroke="#223344" stroke-width="1"/>
<line x1="234" y1="280" x2="161" y2="203" stroke="#223344" stroke-width="1"/>
<line x1="134" y1="411" x2="168" y2="362" stroke="#223344" stroke-width="1"/>
<line x1="117" y1="344" x2="56" y2="360" stroke="#223344" stroke-width="1"/>
<line x1="219" y1="395" x2="217" y2="420" stroke="#223344" stroke-width="1"/>
<line x1="97" y1="372" x2="121" y2="451" stroke="#223344" stroke-width="1"/>
<line x1="432" y1="407" x2="467" y2="378" stroke="#223344" stroke-width="1"/>
<line x1="65" y1="242" x2="41" y2="216" stroke="#223344" stroke-width="1"/>
<line x1="149" y1="146" x2="107" y2="182" stroke="#223344" stroke-width="1"/>
<line x1="81" y1="62" x2="46" y2="56" stroke="#223344" stroke-width="1"/>
<line x1="209" y1="300" x2="273" y2="370" stroke="#223344" stroke-width="1"/>
<line x1="319" y1="274" x2="257" y2="247" stroke="#223344" stroke-width="1"/>
<line x1="204" y1="448" x2="161" y2="428" stroke="#223344" stroke-width="1"/>
</svg>
