<svg xmlns="http://www.w3.org/2000/svg" width="512" height="512" viewBox="0 0 512 512">
<rect width="100%" height="100%" fill="#0b1020"/>
<circle cx="391" cy="70" r="43" fill="#f8f3c9" opacity="0.95" />
<circle cx="362.0" cy="118.0" r="3.0" fill="white" />
<circle cx="173.0" cy="132.0" r="2.4" fill="white" />
<circle cx="405.0" cy="62.0" r="2.4" fill="white" />
<circle cx="214.0" cy="175.0" r="2.6" fill="white" />
<circle cx="104.0" cy="135.0" r="1.5" fill="white" />
<circle cx="342.0" cy="174.0" r="3.4" fill="white" />
<circle cx="20.0" cy="93.0" r="1.7" fill="white" />
<circle cx="342.0" cy="127.0" r="2.5" fill="white" />
<circle cx="195.0" cy="103.0" r="1.5" fill="white" />
<circle cx="291.0" cy="34.0" r="1.7" fill="white" />
<circle cx="348.0" cy="25.0" r="3.3" fill="white" />
<circle cx="173.0" cy="90.0" r="2.7" fill="white" />
<circle cx="380.0" cy="108.0" r="1.7" fill="white" />
<circle cx="443.0" cy="119.0" r="1.5" fill="white" />
<circle cx="177.0" cy="127.0" r="3.3" fill="white" />
<path d="M 20 430 C 132 423, 164 448, 284 430 S 450 395, 512 425" stroke="#5dade2" stroke-width="6" fill="none" opacity="0.85" />
<line x1="0" y1="411" x2="512" y2="411" stroke="#445566" stroke-width="4" />
<polygon points="202,365 242,305 282,325 302,295 322,315 334,355 302,377 252,381" fill="#1e1e1e" />
<polygon points="277,305 290,283 300,307" fill="#1e1e1e" />
<line x1="332" y1="350" x2="362" y2="325" stroke="#1e1e1e" stroke-width="6" />
</svg>
