<svg xmlns="http://www.w3.org/2000/svg" width="512" height="512" viewBox="0 0 512 512">
<rect width="100%" height="100%" fill="black"/>
<circle cx="256.00" cy="256.00" r="2" fill="hsl(0, 80%, 65%)" />
<circle cx="250.11" cy="261.40" r="3" fill="hsl(8, 80%, 65%)" />
<circle cx="256.99" cy="244.75" r="4" fill="hsl(16, 80%, 65%)" />
<circle cx="264.42" cy="266.98" r="5" fill="hsl(24, 80%, 65%)" />
<circle cx="240.27" cy="253.22" r="6" fill="hsl(32, 80%, 65%)" />
<circle cx="271.07" cy="246.41" r="2" fill="hsl(40, 80%, 65%)" />
<circle cx="250.92" cy="274.90" r="3" fill="hsl(48, 80%, 65%)" />
<circle cx="246.26" cy="237.24" r="4" fill="hsl(56, 80%, 65%)" />
<circle cx="277.23" cy="263.75" r="5" fill="hsl(64, 80%, 65%)" />
<circle cx="233.85" cy="265.14" r="6" fill="hsl(72, 80%, 65%)" />
<circle cx="266.71" cy="233.12" r="2" fill="hsl(80, 80%, 65%)" />
<circle cx="263.93" cy="281.28" r="3" fill="hsl(88, 80%, 65%)" />
<circle cx="232.06" cy="242.12" r="4" fill="hsl(96, 80%, 65%)" />
<circle cx="284.13" cy="249.82" r="5" fill="hsl(104, 80%, 65%)" />
<circle cx="238.81" cy="280.45" r="6" fill="hsl(112, 80%, 65%)" />
<circle cx="252.02" cy="225.32" r="2" fill="hsl(120, 80%, 65%)" />
<circle cx="280.44" cy="276.59" r="3" fill="hsl(128, 80%, 65%)" />
<circle cx="223.09" cy="257.36" r="4" fill="hsl(136, 80%, 65%)" />
<circle cx="280.03" cy="232.09" r="5" fill="hsl(144, 80%, 65%)" />
<circle cx="254.39" cy="290.79" r="6" fill="hsl(152, 80%, 65%)" />
<circle cx="233.11" cy="228.57" r="2" fill="hsl(160, 80%, 65%)" />
<circle cx="292.28" cy="260.88" r="3" fill="hsl(168, 80%, 65%)" />
<circle cx="225.24" cy="277.40" r="4" fill="hsl(176, 80%, 65%)" />
<circle cx="264.41" cy="218.62" r="5" fill="hsl(184, 80%, 65%)" />
<circle cx="275.46" cy="289.96" r="6" fill="hsl(192, 80%, 65%)" />
<circle cx="217.94" cy="243.86" r="2" fill="hsl(200, 80%, 65%)" />
<circle cx="292.98" cy="238.91" r="3" fill="hsl(208, 80%, 65%)" />
<circle cx="239.97" cy="294.29" r="4" fill="hsl(216, 80%, 65%)" />
<circle cx="241.69" cy="216.22" r="5" fill="hsl(224, 80%, 65%)" />
<circle cx="294.08" cy="276.02" r="6" fill="hsl(232, 80%, 65%)" />
<circle cx="213.69" cy="267.15" r="2" fill="hsl(240, 80%, 65%)" />
<circle cx="280.06" cy="218.59" r="3" fill="hsl(248, 80%, 65%)" />
<circle cx="263.65" cy="300.54" r="4" fill="hsl(256, 80%, 65%)" />
<circle cx="219.72" cy="227.90" r="5" fill="hsl(264, 80%, 65%)" />
<circle cx="302.42" cy="252.15" r="6" fill="hsl(272, 80%, 65%)" />
<circle cx="223.90" cy="290.69" r="2" fill="hsl(280, 80%, 65%)" />
<circle cx="256.23" cy="208.07" r="3" fill="hsl(288, 80%, 65%)" />
<circle cx="288.65" cy="291.99" r="4" fill="hsl(296, 80%, 65%)" />
<circle cx="206.96" cy="251.46" r="5" fill="hsl(304, 80%, 65%)" />
<circle cx="295.74" cy="225.84" r="6" fill="hsl(312, 80%, 65%)" />
<circle cx="246.96" cy="305.71" r="2" fill="hsl(320, 80%, 65%)" />
<circle cx="228.75" cy="212.70" r="3" fill="hsl(328, 80%, 65%)" />
<circle cx="305.93" cy="269.68" r="4" fill="hsl(336, 80%, 65%)" />
<circle cx="209.39" cy="279.92" r="5" fill="hsl(344, 80%, 65%)" />
<circle cx="274.42" cy="206.31" r="6" fill="hsl(352, 80%, 65%)" />
<circle cx="276.21" cy="305.64" r="2" fill="hsl(0, 80%, 65%)" />
<circle cx="207.04" cy="232.80" r="3" fill="hsl(8, 80%, 65%)" />
<circle cx="308.34" cy="239.86" r="4" fill="hsl(16, 80%, 65%)" />
<circle cx="228.01" cy="303.75" r="5" fill="hsl(24, 80%, 65%)" />
<circle cx="244.26" cy="201.32" r="6" fill="hsl(32, 80%, 65%)" />
<circle cx="302.05" cy="288.71" r="2" fill="hsl(40, 80%, 65%)" />
<circle cx="199.39" cy="263.06" r="3" fill="hsl(48, 80%, 65%)" />
<circle cx="293.34" cy="212.13" r="4" fill="hsl(56, 80%, 65%)" />
<circle cx="258.12" cy="314.12" r="5" fill="hsl(64, 80%, 65%)" />
<circle cx="214.79" cy="214.19" r="6" fill="hsl(72, 80%, 65%)" />
<circle cx="315.17" cy="259.03" r="2" fill="hsl(80, 80%, 65%)" />
<circle cx="209.91" cy="294.08" r="3" fill="hsl(88, 80%, 65%)" />
<circle cx="264.33" cy="196.26" r="4" fill="hsl(96, 80%, 65%)" />
<circle cx="290.50" cy="306.11" r="5" fill="hsl(104, 80%, 65%)" />
<circle cx="196.20" cy="242.24" r="6" fill="hsl(112, 80%, 65%)" />
<circle cx="309.84" cy="225.50" r="2" fill="hsl(120, 80%, 65%)" />
<circle cx="236.75" cy="315.35" r="3" fill="hsl(128, 80%, 65%)" />
<circle cx="229.89" cy="198.77" r="4" fill="hsl(136, 80%, 65%)" />
<circle cx="314.37" cy="280.77" r="5" fill="hsl(144, 80%, 65%)" />
<circle cx="195.76" cy="277.34" r="6" fill="hsl(152, 80%, 65%)" />
<circle cx="286.24" cy="199.13" r="2" fill="hsl(160, 80%, 65%)" />
<circle cx="272.24" cy="318.84" r="3" fill="hsl(168, 80%, 65%)" />
<circle cx="201.17" cy="220.37" r="4" fill="hsl(176, 80%, 65%)" />
<circle cx="320.98" cy="245.16" r="5" fill="hsl(184, 80%, 65%)" />
<circle cx="215.11" cy="308.27" r="6" fill="hsl(192, 80%, 65%)" />
<circle cx="250.81" cy="189.36" r="2" fill="hsl(200, 80%, 65%)" />
<circle cx="305.19" cy="301.95" r="3" fill="hsl(208, 80%, 65%)" />
<circle cx="188.21" cy="255.34" r="4" fill="hsl(216, 80%, 65%)" />
<circle cx="306.78" cy="210.39" r="5" fill="hsl(224, 80%, 65%)" />
<circle cx="249.32" cy="324.40" r="6" fill="hsl(232, 80%, 65%)" />
<circle cx="214.44" cy="200.69" r="2" fill="hsl(240, 80%, 65%)" />
<circle cx="324.46" cy="268.80" r="3" fill="hsl(248, 80%, 65%)" />
<circle cx="196.49" cy="293.05" r="4" fill="hsl(256, 80%, 65%)" />
<circle cx="274.98" cy="188.04" r="5" fill="hsl(264, 80%, 65%)" />
<circle cx="288.11" cy="319.33" r="6" fill="hsl(272, 80%, 65%)" />
<circle cx="189.12" cy="230.83" r="2" fill="hsl(280, 80%, 65%)" />
<circle cx="322.73" cy="229.22" r="3" fill="hsl(288, 80%, 65%)" />
<circle cx="224.70" cy="321.22" r="4" fill="hsl(296, 80%, 65%)" />
<circle cx="234.90" cy="186.34" r="5" fill="hsl(304, 80%, 65%)" />
<circle cx="318.99" cy="293.33" r="6" fill="hsl(312, 80%, 65%)" />
<circle cx="183.91" cy="271.11" r="2" fill="hsl(320, 80%, 65%)" />
<circle cx="299.20" cy="195.81" r="3" fill="hsl(328, 80%, 65%)" />
<circle cx="264.85" cy="329.99" r="4" fill="hsl(336, 80%, 65%)" />
<circle cx="199.17" cy="207.15" r="5" fill="hsl(344, 80%, 65%)" />
<circle cx="331.33" cy="253.62" r="6" fill="hsl(352, 80%, 65%)" />
<circle cx="201.76" cy="308.93" r="2" fill="hsl(0, 80%, 65%)" />
<circle cx="260.26" cy="179.91" r="3" fill="hsl(8, 80%, 65%)" />
<circle cx="304.52" cy="315.31" r="4" fill="hsl(16, 80%, 65%)" />
<circle cx="179.75" cy="244.98" r="5" fill="hsl(24, 80%, 65%)" />
<circle cx="320.01" cy="212.38" r="6" fill="hsl(32, 80%, 65%)" />
<circle cx="238.17" cy="331.80" r="2" fill="hsl(40, 80%, 65%)" />
<circle cx="217.75" cy="187.71" r="3" fill="hsl(48, 80%, 65%)" />
<circle cx="330.72" cy="280.64" r="4" fill="hsl(56, 80%, 65%)" />
<circle cx="183.89" cy="288.47" r="5" fill="hsl(64, 80%, 65%)" />
<circle cx="287.40" cy="182.98" r="6" fill="hsl(72, 80%, 65%)" />
<circle cx="282.30" cy="331.44" r="2" fill="hsl(80, 80%, 65%)" />
<circle cx="185.30" cy="217.96" r="3" fill="hsl(88, 80%, 65%)" />
<circle cx="334.22" cy="236.20" r="4" fill="hsl(96, 80%, 65%)" />
<circle cx="211.49" cy="323.77" r="5" fill="hsl(104, 80%, 65%)" />
<circle cx="242.98" cy="175.57" r="6" fill="hsl(112, 80%, 65%)" />
<circle cx="320.23" cy="306.75" r="2" fill="hsl(120, 80%, 65%)" />
<circle cx="173.97" cy="261.99" r="3" fill="hsl(128, 80%, 65%)" />
<circle cx="312.71" cy="195.89" r="4" fill="hsl(136, 80%, 65%)" />
<circle cx="254.78" cy="339.02" r="5" fill="hsl(144, 80%, 65%)" />
<circle cx="200.57" cy="193.68" r="6" fill="hsl(152, 80%, 65%)" />
<circle cx="339.35" cy="264.55" r="2" fill="hsl(160, 80%, 65%)" />
<circle cx="188.46" cy="306.23" r="3" fill="hsl(168, 80%, 65%)" />
<circle cx="271.94" cy="172.97" r="4" fill="hsl(176, 80%, 65%)" />
<circle cx="300.53" cy="328.31" r="5" fill="hsl(184, 80%, 65%)" />
<circle cx="173.96" cy="232.65" r="6" fill="hsl(192, 80%, 65%)" />
<circle cx="332.60" cy="217.63" r="2" fill="hsl(200, 80%, 65%)" />
<circle cx="225.30" cy="336.38" r="3" fill="hsl(208, 80%, 65%)" />
<circle cx="224.20" cy="175.65" r="4" fill="hsl(216, 80%, 65%)" />
<circle cx="334.06" cy="293.93" r="5" fill="hsl(224, 80%, 65%)" />
<circle cx="172.47" cy="280.86" r="6" fill="hsl(232, 80%, 65%)" />
<circle cx="300.98" cy="180.93" r="2" fill="hsl(240, 80%, 65%)" />
<circle cx="273.61" cy="342.10" r="3" fill="hsl(248, 80%, 65%)" />
<circle cx="184.56" cy="204.20" r="4" fill="hsl(256, 80%, 65%)" />
<circle cx="344.02" cy="245.90" r="5" fill="hsl(264, 80%, 65%)" />
<circle cx="197.68" cy="323.18" r="6" fill="hsl(272, 80%, 65%)" />
<circle cx="253.62" cy="166.71" r="2" fill="hsl(280, 80%, 65%)" />
<circle cx="318.32" cy="320.48" r="3" fill="hsl(288, 80%, 65%)" />
<circle cx="166.14" cy="250.53" r="4" fill="hsl(296, 80%, 65%)" />
<circle cx="326.24" cy="199.11" r="5" fill="hsl(304, 80%, 65%)" />
<circle cx="242.59" cy="345.74" r="6" fill="hsl(312, 80%, 65%)" />
<circle cx="205.08" cy="180.48" r="2" fill="hsl(320, 80%, 65%)" />
<circle cx="344.91" cy="277.37" r="3" fill="hsl(328, 80%, 65%)" />
<circle cx="175.70" cy="300.46" r="4" fill="hsl(336, 80%, 65%)" />
<circle cx="285.28" cy="168.64" r="5" fill="hsl(344, 80%, 65%)" />
<circle cx="293.56" cy="340.51" r="6" fill="hsl(352, 80%, 65%)" />
<circle cx="170.91" cy="218.92" r="2" fill="hsl(0, 80%, 65%)" />
<circle cx="344.12" cy="225.75" r="3" fill="hsl(8, 80%, 65%)" />
<circle cx="211.29" cy="338.13" r="4" fill="hsl(16, 80%, 65%)" />
<circle cx="233.41" cy="164.91" r="5" fill="hsl(24, 80%, 65%)" />
<circle cx="334.47" cy="308.09" r="6" fill="hsl(32, 80%, 65%)" />
<circle cx="162.61" cy="270.65" r="2" fill="hsl(40, 80%, 65%)" />
<circle cx="315.18" cy="181.86" r="3" fill="hsl(48, 80%, 65%)" />
<circle cx="262.47" cy="350.98" r="4" fill="hsl(56, 80%, 65%)" />
<circle cx="186.83" cy="190.11" r="5" fill="hsl(64, 80%, 65%)" />
<circle cx="351.85" cy="257.87" r="6" fill="hsl(72, 80%, 65%)" />
<circle cx="183.81" cy="319.59" r="2" fill="hsl(80, 80%, 65%)" />
<circle cx="266.31" cy="160.02" r="3" fill="hsl(88, 80%, 65%)" />
<circle cx="313.42" cy="334.00" r="4" fill="hsl(96, 80%, 65%)" />
<circle cx="160.64" cy="237.21" r="5" fill="hsl(104, 80%, 65%)" />
<circle cx="339.29" cy="205.27" r="6" fill="hsl(112, 80%, 65%)" />
<circle cx="228.76" cy="349.98" r="2" fill="hsl(120, 80%, 65%)" />
<circle cx="212.46" cy="168.01" r="3" fill="hsl(128, 80%, 65%)" />
<circle cx="347.84" cy="291.59" r="4" fill="hsl(136, 80%, 65%)" />
<circle cx="163.94" cy="291.92" r="5" fill="hsl(144, 80%, 65%)" />
<circle cx="299.76" cy="167.04" r="6" fill="hsl(152, 80%, 65%)" />
<circle cx="283.91" cy="351.47" r="2" fill="hsl(160, 80%, 65%)" />
<circle cx="170.66" cy="204.29" r="3" fill="hsl(168, 80%, 65%)" />
<circle cx="354.17" cy="236.42" r="4" fill="hsl(176, 80%, 65%)" />
<circle cx="196.65" cy="337.01" r="5" fill="hsl(184, 80%, 65%)" />
<circle cx="245.01" cy="155.86" r="6" fill="hsl(192, 80%, 65%)" />
<circle cx="331.99" cy="322.62" r="2" fill="hsl(200, 80%, 65%)" />
<circle cx="154.66" cy="258.21" r="3" fill="hsl(208, 80%, 65%)" />
<circle cx="329.46" cy="185.69" r="4" fill="hsl(216, 80%, 65%)" />
<circle cx="249.30" cy="357.78" r="5" fill="hsl(224, 80%, 65%)" />
<circle cx="191.99" cy="176.18" r="6" fill="hsl(232, 80%, 65%)" />
<circle cx="357.42" cy="271.67" r="2" fill="hsl(240, 80%, 65%)" />
<circle cx="170.38" cy="313.13" r="3" fill="hsl(248, 80%, 65%)" />
<circle cx="280.62" cy="155.74" r="4" fill="hsl(256, 80%, 65%)" />
<circle cx="305.72" cy="346.83" r="5" fill="hsl(264, 80%, 65%)" />
<circle cx="157.69" cy="222.51" r="6" fill="hsl(272, 80%, 65%)" />
<circle cx="351.39" cy="214.16" r="2" fill="hsl(280, 80%, 65%)" />
<circle cx="213.80" cy="351.57" r="3" fill="hsl(288, 80%, 65%)" />
<circle cx="222.47" cy="156.74" r="4" fill="hsl(296, 80%, 65%)" />
<circle cx="348.04" cy="306.69" r="5" fill="hsl(304, 80%, 65%)" />
<circle cx="153.59" cy="280.87" r="6" fill="hsl(312, 80%, 65%)" />
<circle cx="314.88" cy="168.24" r="2" fill="hsl(320, 80%, 65%)" />
<circle cx="271.91" cy="360.79" r="3" fill="hsl(328, 80%, 65%)" />
<circle cx="173.25" cy="189.29" r="4" fill="hsl(336, 80%, 65%)" />
<circle cx="362.37" cy="249.27" r="5" fill="hsl(344, 80%, 65%)" />
<circle cx="181.90" cy="333.03" r="6" fill="hsl(352, 80%, 65%)" />
<circle cx="258.61" cy="148.85" r="2" fill="hsl(0, 80%, 65%)" />
<circle cx="326.65" cy="337.00" r="3" fill="hsl(8, 80%, 65%)" />
<circle cx="148.90" cy="243.96" r="4" fill="hsl(16, 80%, 65%)" />
<circle cx="343.35" cy="192.36" r="5" fill="hsl(24, 80%, 65%)" />
<circle cx="234.53" cy="362.22" r="6" fill="hsl(32, 80%, 65%)" />
<circle cx="199.93" cy="162.92" r="2" fill="hsl(40, 80%, 65%)" />
<circle cx="360.50" cy="286.84" r="3" fill="hsl(48, 80%, 65%)" />
<circle cx="157.85" cy="303.97" r="4" fill="hsl(56, 80%, 65%)" />
<circle cx="296.07" cy="154.05" r="5" fill="hsl(64, 80%, 65%)" />
<circle cx="295.42" cy="358.51" r="6" fill="hsl(72, 80%, 65%)" />
<circle cx="157.43" cy="206.91" r="2" fill="hsl(80, 80%, 65%)" />
<circle cx="362.12" cy="225.54" r="3" fill="hsl(88, 80%, 65%)" />
<circle cx="198.18" cy="350.40" r="4" fill="hsl(96, 80%, 65%)" />
<circle cx="234.82" cy="147.05" r="5" fill="hsl(104, 80%, 65%)" />
<circle cx="345.44" cy="322.20" r="6" fill="hsl(112, 80%, 65%)" />
<circle cx="145.05" cy="267.63" r="2" fill="hsl(120, 80%, 65%)" />
<circle cx="330.14" cy="172.26" r="3" fill="hsl(128, 80%, 65%)" />
<circle cx="257.90" cy="368.11" r="4" fill="hsl(136, 80%, 65%)" />
<circle cx="178.67" cy="174.41" r="5" fill="hsl(144, 80%, 65%)" />
<circle cx="368.42" cy="263.95" r="6" fill="hsl(152, 80%, 65%)" />
<circle cx="167.51" cy="326.25" r="2" fill="hsl(160, 80%, 65%)" />
<circle cx="273.84" cy="144.15" r="3" fill="hsl(168, 80%, 65%)" />
<circle cx="318.56" cy="350.76" r="4" fill="hsl(176, 80%, 65%)" />
<circle cx="145.59" cy="228.32" r="5" fill="hsl(184, 80%, 65%)" />
<circle cx="356.36" cy="201.70" r="6" fill="hsl(192, 80%, 65%)" />
<circle cx="218.59" cy="364.09" r="2" fill="hsl(200, 80%, 65%)" />
<circle cx="210.46" cy="150.77" r="3" fill="hsl(208, 80%, 65%)" />
<circle cx="360.92" cy="302.95" r="4" fill="hsl(216, 80%, 65%)" />
<circle cx="146.66" cy="292.34" r="5" fill="hsl(224, 80%, 65%)" />
<circle cx="312.21" cy="155.11" r="6" fill="hsl(232, 80%, 65%)" />
<circle cx="282.77" cy="368.63" r="2" fill="hsl(240, 80%, 65%)" />
<circle cx="159.95" cy="190.88" r="3" fill="hsl(248, 80%, 65%)" />
<circle cx="371.09" cy="239.10" r="4" fill="hsl(256, 80%, 65%)" />
<circle cx="182.38" cy="346.41" r="5" fill="hsl(264, 80%, 65%)" />
<circle cx="249.19" cy="139.33" r="6" fill="hsl(272, 80%, 65%)" />
<circle cx="340.02" cy="337.62" r="2" fill="hsl(280, 80%, 65%)" />
<circle cx="138.64" cy="252.56" r="3" fill="hsl(288, 80%, 65%)" />
<circle cx="345.07" cy="179.08" r="4" fill="hsl(296, 80%, 65%)" />
<circle cx="242.25" cy="373.15" r="5" fill="hsl(304, 80%, 65%)" />
<circle cx="186.84" cy="160.11" r="6" fill="hsl(312, 80%, 65%)" />
<circle cx="372.03" cy="280.05" r="2" fill="hsl(320, 80%, 65%)" />
<circle cx="153.97" cy="316.78" r="3" fill="hsl(328, 80%, 65%)" />
<circle cx="290.25" cy="142.00" r="4" fill="hsl(336, 80%, 65%)" />
<circle cx="307.86" cy="363.44" r="5" fill="hsl(344, 80%, 65%)" />
<circle cx="144.94" cy="211.71" r="6" fill="hsl(352, 80%, 65%)" />
<circle cx="368.06" cy="213.54" r="2" fill="hsl(0, 80%, 65%)" />
<circle cx="201.93" cy="363.24" r="3" fill="hsl(8, 80%, 65%)" />
<circle cx="223.35" cy="140.15" r="4" fill="hsl(16, 80%, 65%)" />
<circle cx="358.56" cy="319.51" r="5" fill="hsl(24, 80%, 65%)" />
<circle cx="137.22" cy="278.49" r="6" fill="hsl(32, 80%, 65%)" />
<circle cx="328.55" cy="158.97" r="2" fill="hsl(40, 80%, 65%)" />
<circle cx="268.07" cy="376.82" r="3" fill="hsl(48, 80%, 65%)" />
</svg>
