<svg xmlns="http://www.w3.org/2000/svg" width="512" height="512" viewBox="0 0 512 512">
<rect width="100%" height="100%" fill="#0b1020"/>
<circle cx="341" cy="81" r="50" fill="#f8f3c9" opacity="0.95" />
<circle cx="354.0" cy="104.0" r="2.7" fill="white" />
<circle cx="82.0" cy="93.0" r="3.4" fill="white" />
<circle cx="244.0" cy="141.0" r="1.9" fill="white" />
<circle cx="414.0" cy="35.0" r="2.1" fill="white" />
<circle cx="268.0" cy="167.0" r="3.2" fill="white" />
<circle cx="266.0" cy="178.0" r="3.2" fill="white" />
<circle cx="390.0" cy="146.0" r="2.9" fill="white" />
<circle cx="102.0" cy="63.0" r="2.2" fill="white" />
<circle cx="36.0" cy="72.0" r="2.3" fill="white" />
<circle cx="84.0" cy="166.0" r="2.5" fill="white" />
<circle cx="412.0" cy="60.0" r="2.6" fill="white" />
<circle cx="68.0" cy="32.0" r="1.8" fill="white" />
<circle cx="420.0" cy="107.0" r="3.3" fill="white" />
<path d="M 20 430 C 132 411, 200 459, 317 422 S 450 391, 512 421" stroke="#5dade2" stroke-width="6" fill="none" opacity="0.85" />
<line x1="0" y1="391" x2="512" y2="391" stroke="#445566" stroke-width="2" />
<polygon points="200,352 240,292 280,312 300,282 320,302 332,342 300,364 250,368" fill="#1e1e1e" />
<polygon points="275,292 288,270 298,294" fill="#1e1e1e" />
<line x1="330" y1="337" x2="360" y2="312" stroke="#1e1e1e" stroke-width="6" />
</svg>
