<svg xmlns="http://www.w3.org/2000/svg" width="512" height="512" viewBox="0 0 512 512">
<rect width="100%" height="100%" fill="black"/>
<circle cx="256.00" cy="256.00" r="2" fill="hsl(0, 80%, 65%)" />
<circle cx="250.69" cy="260.87" r="3" fill="hsl(5, 80%, 65%)" />
<circle cx="256.89" cy="245.85" r="4" fill="hsl(10, 80%, 65%)" />
<circle cx="263.59" cy="265.90" r="5" fill="hsl(15, 80%, 65%)" />
<circle cx="241.81" cy="253.49" r="6" fill="hsl(20, 80%, 65%)" />
<circle cx="269.59" cy="247.36" r="2" fill="hsl(25, 80%, 65%)" />
<circle cx="251.42" cy="273.04" r="3" fill="hsl(30, 80%, 65%)" />
<circle cx="247.22" cy="239.09" r="4" fill="hsl(35, 80%, 65%)" />
<circle cx="275.14" cy="262.99" r="5" fill="hsl(40, 80%, 65%)" />
<circle cx="236.03" cy="264.24" r="6" fill="hsl(45, 80%, 65%)" />
<circle cx="265.65" cy="235.37" r="2" fill="hsl(50, 80%, 65%)" />
<circle cx="263.15" cy="278.79" r="3" fill="hsl(55, 80%, 65%)" />
<circle cx="234.41" cy="243.49" r="4" fill="hsl(60, 80%, 65%)" />
<circle cx="281.36" cy="250.42" r="5" fill="hsl(65, 80%, 65%)" />
<circle cx="240.50" cy="278.05" r="6" fill="hsl(70, 80%, 65%)" />
<circle cx="252.42" cy="228.33" r="2" fill="hsl(75, 80%, 65%)" />
<circle cx="278.03" cy="274.57" r="3" fill="hsl(80, 80%, 65%)" />
<circle cx="226.33" cy="257.23" r="4" fill="hsl(85, 80%, 65%)" />
<circle cx="277.66" cy="234.44" r="5" fill="hsl(90, 80%, 65%)" />
<circle cx="254.55" cy="287.36" r="6" fill="hsl(95, 80%, 65%)" />
<circle cx="235.36" cy="231.27" r="2" fill="hsl(100, 80%, 65%)" />
<circle cx="288.71" cy="260.40" r="3" fill="hsl(105, 80%, 65%)" />
<circle cx="228.27" cy="275.30" r="4" fill="hsl(110, 80%, 65%)" />
<circle cx="263.58" cy="222.30" r="5" fill="hsl(115, 80%, 65%)" />
<circle cx="273.54" cy="286.62" r="6" fill="hsl(120, 80%, 65%)" />
<circle cx="221.69" cy="245.05" r="2" fill="hsl(125, 80%, 65%)" />
<circle cx="289.34" cy="240.60" r="3" fill="hsl(130, 80%, 65%)" />
<circle cx="241.55" cy="290.53" r="4" fill="hsl(135, 80%, 65%)" />
<circle cx="243.10" cy="220.14" r="5" fill="hsl(140, 80%, 65%)" />
<circle cx="290.34" cy="274.05" r="6" fill="hsl(145, 80%, 65%)" />
<circle cx="217.85" cy="266.06" r="2" fill="hsl(150, 80%, 65%)" />
<circle cx="277.69" cy="222.27" r="3" fill="hsl(155, 80%, 65%)" />
<circle cx="262.90" cy="296.16" r="4" fill="hsl(160, 80%, 65%)" />
<circle cx="223.29" cy="230.66" r="5" fill="hsl(165, 80%, 65%)" />
<circle cx="297.86" cy="252.53" r="6" fill="hsl(170, 80%, 65%)" />
<circle cx="227.06" cy="287.28" r="2" fill="hsl(175, 80%, 65%)" />
<circle cx="256.21" cy="212.78" r="3" fill="hsl(180, 80%, 65%)" />
<circle cx="285.44" cy="288.45" r="4" fill="hsl(185, 80%, 65%)" />
<circle cx="211.79" cy="251.90" r="5" fill="hsl(190, 80%, 65%)" />
<circle cx="291.83" cy="228.81" r="6" fill="hsl(195, 80%, 65%)" />
<circle cx="247.85" cy="300.82" r="2" fill="hsl(200, 80%, 65%)" />
<circle cx="231.44" cy="216.97" r="3" fill="hsl(205, 80%, 65%)" />
<circle cx="301.02" cy="268.34" r="4" fill="hsl(210, 80%, 65%)" />
<circle cx="213.98" cy="277.56" r="5" fill="hsl(215, 80%, 65%)" />
<circle cx="272.61" cy="211.20" r="6" fill="hsl(220, 80%, 65%)" />
<circle cx="274.22" cy="300.75" r="2" fill="hsl(225, 80%, 65%)" />
<circle cx="211.85" cy="235.08" r="3" fill="hsl(230, 80%, 65%)" />
<circle cx="303.19" cy="241.45" r="4" fill="hsl(235, 80%, 65%)" />
<circle cx="230.77" cy="299.05" r="5" fill="hsl(240, 80%, 65%)" />
<circle cx="245.41" cy="206.70" r="6" fill="hsl(245, 80%, 65%)" />
<circle cx="297.52" cy="285.50" r="2" fill="hsl(250, 80%, 65%)" />
<circle cx="204.96" cy="262.36" r="3" fill="hsl(255, 80%, 65%)" />
<circle cx="289.67" cy="216.45" r="4" fill="hsl(260, 80%, 65%)" />
<circle cx="257.91" cy="308.40" r="5" fill="hsl(265, 80%, 65%)" />
<circle cx="218.85" cy="218.30" r="6" fill="hsl(270, 80%, 65%)" />
<circle cx="309.35" cy="258.73" r="2" fill="hsl(275, 80%, 65%)" />
<circle cx="214.45" cy="290.33" r="3" fill="hsl(280, 80%, 65%)" />
<circle cx="263.51" cy="202.14" r="4" fill="hsl(285, 80%, 65%)" />
<circle cx="287.11" cy="301.18" r="5" fill="hsl(290, 80%, 65%)" />
<circle cx="202.08" cy="243.59" r="6" fill="hsl(295, 80%, 65%)" />
<circle cx="304.54" cy="228.50" r="2" fill="hsl(300, 80%, 65%)" />
<circle cx="238.64" cy="309.51" r="3" fill="hsl(305, 80%, 65%)" />
<circle cx="232.46" cy="204.40" r="4" fill="hsl(310, 80%, 65%)" />
<circle cx="308.63" cy="278.33" r="5" fill="hsl(315, 80%, 65%)" />
<circle cx="201.68" cy="275.24" r="6" fill="hsl(320, 80%, 65%)" />
<circle cx="283.27" cy="204.73" r="2" fill="hsl(325, 80%, 65%)" />
<circle cx="270.64" cy="312.66" r="3" fill="hsl(330, 80%, 65%)" />
<circle cx="206.57" cy="223.87" r="4" fill="hsl(335, 80%, 65%)" />
<circle cx="314.59" cy="246.23" r="5" fill="hsl(340, 80%, 65%)" />
<circle cx="219.13" cy="303.12" r="6" fill="hsl(345, 80%, 65%)" />
<circle cx="251.32" cy="195.92" r="2" fill="hsl(350, 80%, 65%)" />
<circle cx="300.35" cy="297.43" r="3" fill="hsl(355, 80%, 65%)" />
<circle cx="194.89" cy="255.40" r="4" fill="hsl(0, 80%, 65%)" />
<circle cx="301.78" cy="214.87" r="5" fill="hsl(5, 80%, 65%)" />
<circle cx="249.98" cy="317.67" r="6" fill="hsl(10, 80%, 65%)" />
<circle cx="218.53" cy="206.13" r="2" fill="hsl(15, 80%, 65%)" />
<circle cx="317.72" cy="267.54" r="3" fill="hsl(20, 80%, 65%)" />
<circle cx="202.34" cy="289.40" r="4" fill="hsl(25, 80%, 65%)" />
<circle cx="273.11" cy="194.73" r="5" fill="hsl(30, 80%, 65%)" />
<circle cx="284.95" cy="313.10" r="6" fill="hsl(35, 80%, 65%)" />
<circle cx="195.70" cy="233.31" r="2" fill="hsl(40, 80%, 65%)" />
<circle cx="316.16" cy="231.85" r="3" fill="hsl(45, 80%, 65%)" />
<circle cx="227.78" cy="314.80" r="4" fill="hsl(50, 80%, 65%)" />
<circle cx="236.97" cy="193.20" r="5" fill="hsl(55, 80%, 65%)" />
<circle cx="312.79" cy="289.66" r="6" fill="hsl(60, 80%, 65%)" />
<circle cx="191.01" cy="269.63" r="2" fill="hsl(65, 80%, 65%)" />
<circle cx="294.95" cy="201.73" r="3" fill="hsl(70, 80%, 65%)" />
<circle cx="263.98" cy="322.71" r="4" fill="hsl(75, 80%, 65%)" />
<circle cx="204.76" cy="211.95" r="5" fill="hsl(80, 80%, 65%)" />
<circle cx="323.92" cy="253.85" r="6" fill="hsl(85, 80%, 65%)" />
<circle cx="207.10" cy="303.73" r="2" fill="hsl(90, 80%, 65%)" />
<circle cx="259.84" cy="187.40" r="3" fill="hsl(95, 80%, 65%)" />
<circle cx="299.75" cy="309.47" r="4" fill="hsl(100, 80%, 65%)" />
<circle cx="187.25" cy="246.07" r="5" fill="hsl(105, 80%, 65%)" />
<circle cx="313.71" cy="216.68" r="6" fill="hsl(110, 80%, 65%)" />
<circle cx="239.92" cy="324.34" r="2" fill="hsl(115, 80%, 65%)" />
<circle cx="221.51" cy="194.43" r="3" fill="hsl(120, 80%, 65%)" />
<circle cx="323.37" cy="278.22" r="4" fill="hsl(125, 80%, 65%)" />
<circle cx="190.98" cy="285.27" r="5" fill="hsl(130, 80%, 65%)" />
<circle cx="284.31" cy="190.16" r="6" fill="hsl(135, 80%, 65%)" />
<circle cx="279.72" cy="324.01" r="2" fill="hsl(140, 80%, 65%)" />
<circle cx="192.26" cy="221.70" r="3" fill="hsl(145, 80%, 65%)" />
<circle cx="326.52" cy="238.15" r="4" fill="hsl(150, 80%, 65%)" />
<circle cx="215.87" cy="317.10" r="5" fill="hsl(155, 80%, 65%)" />
<circle cx="244.27" cy="183.49" r="6" fill="hsl(160, 80%, 65%)" />
<circle cx="313.91" cy="301.76" r="2" fill="hsl(165, 80%, 65%)" />
<circle cx="182.04" cy="261.40" r="3" fill="hsl(170, 80%, 65%)" />
<circle cx="307.13" cy="201.80" r="4" fill="hsl(175, 80%, 65%)" />
<circle cx="254.90" cy="330.85" r="5" fill="hsl(180, 80%, 65%)" />
<circle cx="206.02" cy="199.81" r="6" fill="hsl(185, 80%, 65%)" />
<circle cx="331.15" cy="263.71" r="2" fill="hsl(190, 80%, 65%)" />
<circle cx="195.11" cy="301.29" r="3" fill="hsl(195, 80%, 65%)" />
<circle cx="270.37" cy="181.14" r="4" fill="hsl(200, 80%, 65%)" />
<circle cx="296.15" cy="321.20" r="5" fill="hsl(205, 80%, 65%)" />
<circle cx="182.03" cy="234.95" r="6" fill="hsl(210, 80%, 65%)" />
<circle cx="325.06" cy="221.41" r="2" fill="hsl(215, 80%, 65%)" />
<circle cx="228.32" cy="328.47" r="3" fill="hsl(220, 80%, 65%)" />
<circle cx="227.33" cy="183.56" r="4" fill="hsl(225, 80%, 65%)" />
<circle cx="326.37" cy="290.20" r="5" fill="hsl(230, 80%, 65%)" />
<circle cx="180.69" cy="278.42" r="6" fill="hsl(235, 80%, 65%)" />
<circle cx="296.56" cy="188.32" r="2" fill="hsl(240, 80%, 65%)" />
<circle cx="271.88" cy="333.62" r="3" fill="hsl(245, 80%, 65%)" />
<circle cx="191.59" cy="209.30" r="4" fill="hsl(250, 80%, 65%)" />
<circle cx="335.36" cy="246.89" r="5" fill="hsl(255, 80%, 65%)" />
<circle cx="203.42" cy="316.57" r="6" fill="hsl(260, 80%, 65%)" />
<circle cx="253.85" cy="175.50" r="2" fill="hsl(265, 80%, 65%)" />
<circle cx="312.19" cy="314.14" r="3" fill="hsl(270, 80%, 65%)" />
<circle cx="174.98" cy="251.06" r="4" fill="hsl(275, 80%, 65%)" />
<circle cx="319.32" cy="204.71" r="5" fill="hsl(280, 80%, 65%)" />
<circle cx="243.91" cy="336.91" r="6" fill="hsl(285, 80%, 65%)" />
<circle cx="210.09" cy="187.91" r="2" fill="hsl(290, 80%, 65%)" />
<circle cx="336.16" cy="275.27" r="3" fill="hsl(295, 80%, 65%)" />
<circle cx="183.60" cy="296.09" r="4" fill="hsl(300, 80%, 65%)" />
<circle cx="282.40" cy="177.24" r="5" fill="hsl(305, 80%, 65%)" />
<circle cx="289.86" cy="332.19" r="6" fill="hsl(310, 80%, 65%)" />
<circle cx="179.28" cy="222.56" r="2" fill="hsl(315, 80%, 65%)" />
<circle cx="335.45" cy="228.73" r="3" fill="hsl(320, 80%, 65%)" />
<circle cx="215.69" cy="330.05" r="4" fill="hsl(325, 80%, 65%)" />
<circle cx="235.63" cy="173.87" r="5" fill="hsl(330, 80%, 65%)" />
<circle cx="326.75" cy="302.97" r="6" fill="hsl(335, 80%, 65%)" />
<circle cx="171.80" cy="269.20" r="2" fill="hsl(340, 80%, 65%)" />
<circle cx="309.35" cy="189.15" r="3" fill="hsl(345, 80%, 65%)" />
<circle cx="261.83" cy="341.63" r="4" fill="hsl(350, 80%, 65%)" />
<circle cx="193.64" cy="196.59" r="5" fill="hsl(355, 80%, 65%)" />
<circle cx="342.42" cy="257.69" r="6" fill="hsl(0, 80%, 65%)" />
<circle cx="190.91" cy="313.33" r="2" fill="hsl(5, 80%, 65%)" />
<circle cx="265.30" cy="169.47" r="3" fill="hsl(10, 80%, 65%)" />
<circle cx="307.77" cy="326.33" r="4" fill="hsl(15, 80%, 65%)" />
<circle cx="170.03" cy="239.06" r="5" fill="hsl(20, 80%, 65%)" />
<circle cx="331.09" cy="210.27" r="6" fill="hsl(25, 80%, 65%)" />
<circle cx="231.44" cy="340.73" r="2" fill="hsl(30, 80%, 65%)" />
<circle cx="216.75" cy="176.67" r="3" fill="hsl(35, 80%, 65%)" />
<circle cx="338.80" cy="288.08" r="4" fill="hsl(40, 80%, 65%)" />
<circle cx="173.00" cy="288.38" r="5" fill="hsl(45, 80%, 65%)" />
<circle cx="295.46" cy="175.80" r="6" fill="hsl(50, 80%, 65%)" />
<circle cx="281.16" cy="342.07" r="2" fill="hsl(55, 80%, 65%)" />
<circle cx="179.06" cy="209.38" r="3" fill="hsl(60, 80%, 65%)" />
<circle cx="344.51" cy="238.34" r="4" fill="hsl(65, 80%, 65%)" />
<circle cx="202.49" cy="329.04" r="5" fill="hsl(70, 80%, 65%)" />
<circle cx="246.09" cy="165.72" r="6" fill="hsl(75, 80%, 65%)" />
<circle cx="324.51" cy="316.06" r="2" fill="hsl(80, 80%, 65%)" />
<circle cx="164.63" cy="257.99" r="3" fill="hsl(85, 80%, 65%)" />
<circle cx="322.23" cy="192.61" r="4" fill="hsl(90, 80%, 65%)" />
<circle cx="249.96" cy="347.76" r="5" fill="hsl(95, 80%, 65%)" />
<circle cx="198.29" cy="184.04" r="6" fill="hsl(100, 80%, 65%)" />
<circle cx="347.44" cy="270.12" r="2" fill="hsl(105, 80%, 65%)" />
<circle cx="178.80" cy="307.51" r="3" fill="hsl(110, 80%, 65%)" />
<circle cx="278.20" cy="165.60" r="4" fill="hsl(115, 80%, 65%)" />
<circle cx="300.83" cy="337.89" r="5" fill="hsl(120, 80%, 65%)" />
<circle cx="167.37" cy="225.81" r="6" fill="hsl(125, 80%, 65%)" />
<circle cx="342.01" cy="218.28" r="2" fill="hsl(130, 80%, 65%)" />
<circle cx="217.95" cy="342.16" r="3" fill="hsl(135, 80%, 65%)" />
<circle cx="225.77" cy="166.50" r="4" fill="hsl(140, 80%, 65%)" />
<circle cx="338.99" cy="301.70" r="5" fill="hsl(145, 80%, 65%)" />
<circle cx="163.67" cy="278.42" r="6" fill="hsl(150, 80%, 65%)" />
<circle cx="309.09" cy="176.87" r="2" fill="hsl(155, 80%, 65%)" />
<circle cx="270.34" cy="350.47" r="3" fill="hsl(160, 80%, 65%)" />
<circle cx="181.40" cy="195.86" r="4" fill="hsl(165, 80%, 65%)" />
<circle cx="351.91" cy="249.94" r="5" fill="hsl(170, 80%, 65%)" />
<circle cx="189.19" cy="325.45" r="6" fill="hsl(175, 80%, 65%)" />
<circle cx="258.36" cy="159.39" r="2" fill="hsl(180, 80%, 65%)" />
<circle cx="319.70" cy="329.03" r="3" fill="hsl(185, 80%, 65%)" />
<circle cx="159.44" cy="245.15" r="4" fill="hsl(190, 80%, 65%)" />
<circle cx="334.75" cy="198.62" r="5" fill="hsl(195, 80%, 65%)" />
<circle cx="236.64" cy="351.77" r="6" fill="hsl(200, 80%, 65%)" />
<circle cx="205.45" cy="172.08" r="2" fill="hsl(205, 80%, 65%)" />
<circle cx="350.22" cy="283.81" r="3" fill="hsl(210, 80%, 65%)" />
<circle cx="167.51" cy="299.25" r="4" fill="hsl(215, 80%, 65%)" />
<circle cx="292.13" cy="164.09" r="5" fill="hsl(220, 80%, 65%)" />
<circle cx="291.54" cy="348.43" r="6" fill="hsl(225, 80%, 65%)" />
<circle cx="167.13" cy="211.74" r="2" fill="hsl(230, 80%, 65%)" />
<circle cx="351.68" cy="228.53" r="3" fill="hsl(235, 80%, 65%)" />
<circle cx="203.87" cy="341.11" r="4" fill="hsl(240, 80%, 65%)" />
<circle cx="236.90" cy="157.77" r="5" fill="hsl(245, 80%, 65%)" />
<circle cx="336.64" cy="315.68" r="6" fill="hsl(250, 80%, 65%)" />
<circle cx="155.97" cy="266.49" r="2" fill="hsl(255, 80%, 65%)" />
<circle cx="322.85" cy="180.50" r="3" fill="hsl(260, 80%, 65%)" />
<circle cx="257.71" cy="357.08" r="4" fill="hsl(265, 80%, 65%)" />
<circle cx="186.28" cy="182.44" r="5" fill="hsl(270, 80%, 65%)" />
<circle cx="357.36" cy="263.17" r="6" fill="hsl(275, 80%, 65%)" />
<circle cx="176.22" cy="319.34" r="2" fill="hsl(280, 80%, 65%)" />
<circle cx="272.08" cy="155.16" r="3" fill="hsl(285, 80%, 65%)" />
<circle cx="312.40" cy="341.43" r="4" fill="hsl(290, 80%, 65%)" />
<circle cx="156.46" cy="231.04" r="5" fill="hsl(295, 80%, 65%)" />
<circle cx="346.48" cy="207.04" r="6" fill="hsl(300, 80%, 65%)" />
<circle cx="222.27" cy="353.46" r="2" fill="hsl(305, 80%, 65%)" />
<circle cx="214.94" cy="161.12" r="3" fill="hsl(310, 80%, 65%)" />
<circle cx="350.59" cy="298.33" r="4" fill="hsl(315, 80%, 65%)" />
<circle cx="157.42" cy="288.76" r="5" fill="hsl(320, 80%, 65%)" />
<circle cx="306.68" cy="165.03" r="6" fill="hsl(325, 80%, 65%)" />
<circle cx="280.14" cy="357.55" r="2" fill="hsl(330, 80%, 65%)" />
<circle cx="169.40" cy="197.28" r="3" fill="hsl(335, 80%, 65%)" />
<circle cx="359.76" cy="240.76" r="4" fill="hsl(340, 80%, 65%)" />
<circle cx="189.63" cy="337.52" r="5" fill="hsl(345, 80%, 65%)" />
<circle cx="249.86" cy="150.81" r="6" fill="hsl(350, 80%, 65%)" />
<circle cx="331.76" cy="329.59" r="2" fill="hsl(355, 80%, 65%)" />
<circle cx="150.19" cy="252.90" r="3" fill="hsl(0, 80%, 65%)" />
<circle cx="336.30" cy="186.65" r="4" fill="hsl(5, 80%, 65%)" />
<circle cx="243.61" cy="361.62" r="5" fill="hsl(10, 80%, 65%)" />
<circle cx="193.65" cy="169.55" r="6" fill="hsl(15, 80%, 65%)" />
<circle cx="360.61" cy="277.68" r="2" fill="hsl(20, 80%, 65%)" />
</svg>
