<svg xmlns="http://www.w3.org/2000/svg" width="512" height="512" viewBox="0 0 512 512">
<rect width="100%" height="100%" fill="#0b1020"/>
<circle cx="450" cy="82" r="49" fill="#f8f3c9" opacity="0.95" />
<circle cx="244.0" cy="83.0" r="2.6" fill="white" />
<circle cx="227.0" cy="131.0" r="2.9" fill="white" />
<circle cx="443.0" cy="35.0" r="1.7" fill="white" />
<circle cx="169.0" cy="140.0" r="2.6" fill="white" />
<circle cx="439.0" cy="169.0" r="2.7" fill="white" />
<circle cx="454.0" cy="72.0" r="2.5" fill="white" />
<path d="M 20 430 C 130 410, 196 458, 311 420 S 450 399, 512 429" stroke="#5dade2" stroke-width="5" fill="none" opacity="0.85" />
<line x1="0" y1="406" x2="512" y2="406" stroke="#445566" stroke-width="3" />
<polygon points="142,354 182,294 222,314 242,284 262,304 274,344 242,366 192,370" fill="#1e1e1e" />
<polygon points="217,294 230,272 240,296" fill="#1e1e1e" />
<line x1="272" y1="339" x2="302" y2="314" stroke="#1e1e1e" stroke-width="6" />
</svg>
