<svg xmlns="http://www.w3.org/2000/svg" width="512" height="512" viewBox="0 0 512 512">
<rect width="100%" height="100%" fill="#0b1020"/>
<circle cx="405" cy="137" r="43" fill="#f8f3c9" opacity="0.95" />
<circle cx="182.0" cy="45.0" r="3.3" fill="white" />
<circle cx="64.0" cy="148.0" r="2.3" fill="white" />
<circle cx="449.0" cy="55.0" r="2.7" fill="white" />
<circle cx="403.0" cy="115.0" r="2.9" fill="white" />
<circle cx="297.0" cy="137.0" r="2.4" fill="white" />
<path d="M 20 430 C 104 410, 187 449, 299 430 S 450 404, 512 434" stroke="#5dade2" stroke-width="5" fill="none" opacity="0.85" />
<line x1="0" y1="390" x2="512" y2="390" stroke="#445566" stroke-width="3" />
<polygon points="192,361 232,301 272,321 292,291 312,311 324,351 292,373 242,377" fill="#1e1e1e" />
<polygon points="267,301 280,279 290,303" fill="#1e1e1e" />
<line x1="322" y1="346" x2="352" y2="321" stroke="#1e1e1e" stroke-width="6" />
</svg>
