<svg xmlns="http://www.w3.org/2000/svg" width="512" height="512" viewBox="0 0 512 512">
<rect width="100%" height="100%" fill="black"/>
<circle cx="256.00" cy="256.00" r="2" fill="hsl(0, 80%, 65%)" />
<circle cx="250.81" cy="260.75" r="3" fill="hsl(6, 80%, 65%)" />
<circle cx="256.87" cy="246.09" r="4" fill="hsl(12, 80%, 65%)" />
<circle cx="263.41" cy="265.67" r="5" fill="hsl(18, 80%, 65%)" />
<circle cx="242.15" cy="253.55" r="6" fill="hsl(24, 80%, 65%)" />
<circle cx="269.27" cy="247.56" r="2" fill="hsl(30, 80%, 65%)" />
<circle cx="251.53" cy="272.63" r="3" fill="hsl(36, 80%, 65%)" />
<circle cx="247.42" cy="239.49" r="4" fill="hsl(42, 80%, 65%)" />
<circle cx="274.68" cy="262.82" r="5" fill="hsl(48, 80%, 65%)" />
<circle cx="236.50" cy="264.05" r="6" fill="hsl(54, 80%, 65%)" />
<circle cx="265.43" cy="235.86" r="2" fill="hsl(60, 80%, 65%)" />
<circle cx="262.98" cy="278.25" r="3" fill="hsl(66, 80%, 65%)" />
<circle cx="234.92" cy="243.79" r="4" fill="hsl(72, 80%, 65%)" />
<circle cx="280.76" cy="250.56" r="5" fill="hsl(78, 80%, 65%)" />
<circle cx="240.87" cy="277.52" r="6" fill="hsl(84, 80%, 65%)" />
<circle cx="252.50" cy="228.99" r="2" fill="hsl(90, 80%, 65%)" />
<circle cx="277.51" cy="274.13" r="3" fill="hsl(96, 80%, 65%)" />
<circle cx="227.03" cy="257.20" r="4" fill="hsl(102, 80%, 65%)" />
<circle cx="277.15" cy="234.95" r="5" fill="hsl(108, 80%, 65%)" />
<circle cx="254.58" cy="286.62" r="6" fill="hsl(114, 80%, 65%)" />
<circle cx="235.85" cy="231.85" r="2" fill="hsl(120, 80%, 65%)" />
<circle cx="287.94" cy="260.30" r="3" fill="hsl(126, 80%, 65%)" />
<circle cx="228.92" cy="274.84" r="4" fill="hsl(132, 80%, 65%)" />
<circle cx="263.40" cy="223.10" r="5" fill="hsl(138, 80%, 65%)" />
<circle cx="273.13" cy="285.89" r="6" fill="hsl(144, 80%, 65%)" />
<circle cx="222.50" cy="245.31" r="2" fill="hsl(150, 80%, 65%)" />
<circle cx="288.55" cy="240.96" r="3" fill="hsl(156, 80%, 65%)" />
<circle cx="241.89" cy="289.71" r="4" fill="hsl(162, 80%, 65%)" />
<circle cx="243.41" cy="220.99" r="5" fill="hsl(168, 80%, 65%)" />
<circle cx="289.52" cy="273.62" r="6" fill="hsl(174, 80%, 65%)" />
<circle cx="218.76" cy="265.82" r="2" fill="hsl(180, 80%, 65%)" />
<circle cx="277.18" cy="223.07" r="3" fill="hsl(186, 80%, 65%)" />
<circle cx="262.74" cy="295.21" r="4" fill="hsl(192, 80%, 65%)" />
<circle cx="224.06" cy="231.26" r="5" fill="hsl(198, 80%, 65%)" />
<circle cx="296.86" cy="252.61" r="6" fill="hsl(204, 80%, 65%)" />
<circle cx="227.75" cy="286.54" r="2" fill="hsl(210, 80%, 65%)" />
<circle cx="256.21" cy="213.81" r="3" fill="hsl(216, 80%, 65%)" />
<circle cx="284.74" cy="287.68" r="4" fill="hsl(222, 80%, 65%)" />
<circle cx="212.84" cy="252.00" r="5" fill="hsl(228, 80%, 65%)" />
<circle cx="290.98" cy="229.45" r="6" fill="hsl(234, 80%, 65%)" />
<circle cx="248.04" cy="299.76" r="2" fill="hsl(240, 80%, 65%)" />
<circle cx="232.02" cy="217.89" r="3" fill="hsl(246, 80%, 65%)" />
<circle cx="299.95" cy="268.05" r="4" fill="hsl(252, 80%, 65%)" />
<circle cx="214.97" cy="277.05" r="5" fill="hsl(258, 80%, 65%)" />
<circle cx="272.22" cy="212.26" r="6" fill="hsl(264, 80%, 65%)" />
<circle cx="273.79" cy="299.69" r="2" fill="hsl(270, 80%, 65%)" />
<circle cx="212.90" cy="235.57" r="3" fill="hsl(276, 80%, 65%)" />
<circle cx="302.07" cy="241.80" r="4" fill="hsl(282, 80%, 65%)" />
<circle cx="231.37" cy="298.03" r="5" fill="hsl(288, 80%, 65%)" />
<circle cx="245.66" cy="207.87" r="6" fill="hsl(294, 80%, 65%)" />
<circle cx="296.54" cy="284.80" r="2" fill="hsl(300, 80%, 65%)" />
<circle cx="206.17" cy="262.21" r="3" fill="hsl(306, 80%, 65%)" />
<circle cx="288.87" cy="217.38" r="4" fill="hsl(312, 80%, 65%)" />
<circle cx="257.87" cy="307.16" r="5" fill="hsl(318, 80%, 65%)" />
<circle cx="219.73" cy="219.19" r="6" fill="hsl(324, 80%, 65%)" />
<circle cx="308.08" cy="258.66" r="2" fill="hsl(330, 80%, 65%)" />
<circle cx="215.43" cy="289.52" r="3" fill="hsl(336, 80%, 65%)" />
<circle cx="263.34" cy="203.42" r="4" fill="hsl(342, 80%, 65%)" />
<circle cx="286.37" cy="300.11" r="5" fill="hsl(348, 80%, 65%)" />
<circle cx="203.36" cy="243.89" r="6" fill="hsl(354, 80%, 65%)" />
<circle cx="303.39" cy="229.15" r="2" fill="hsl(0, 80%, 65%)" />
<circle cx="239.05" cy="308.24" r="3" fill="hsl(6, 80%, 65%)" />
<circle cx="233.02" cy="205.62" r="4" fill="hsl(12, 80%, 65%)" />
<circle cx="307.38" cy="277.80" r="5" fill="hsl(18, 80%, 65%)" />
<circle cx="202.97" cy="274.78" r="6" fill="hsl(24, 80%, 65%)" />
<circle cx="282.62" cy="205.94" r="2" fill="hsl(30, 80%, 65%)" />
<circle cx="270.29" cy="311.31" r="3" fill="hsl(36, 80%, 65%)" />
<circle cx="207.74" cy="224.63" r="4" fill="hsl(42, 80%, 65%)" />
<circle cx="313.20" cy="246.46" r="5" fill="hsl(48, 80%, 65%)" />
<circle cx="220.01" cy="302.01" r="6" fill="hsl(54, 80%, 65%)" />
<circle cx="251.43" cy="197.34" r="2" fill="hsl(60, 80%, 65%)" />
<circle cx="299.30" cy="296.45" r="3" fill="hsl(66, 80%, 65%)" />
<circle cx="196.33" cy="255.42" r="4" fill="hsl(72, 80%, 65%)" />
<circle cx="300.70" cy="215.85" r="5" fill="hsl(78, 80%, 65%)" />
<circle cx="250.12" cy="316.21" r="6" fill="hsl(84, 80%, 65%)" />
<circle cx="219.42" cy="207.31" r="2" fill="hsl(90, 80%, 65%)" />
<circle cx="316.26" cy="267.27" r="3" fill="hsl(96, 80%, 65%)" />
<circle cx="203.61" cy="288.61" r="4" fill="hsl(102, 80%, 65%)" />
<circle cx="272.71" cy="196.18" r="5" fill="hsl(108, 80%, 65%)" />
<circle cx="284.27" cy="311.75" r="6" fill="hsl(114, 80%, 65%)" />
<circle cx="197.13" cy="233.85" r="2" fill="hsl(120, 80%, 65%)" />
<circle cx="314.73" cy="232.42" r="3" fill="hsl(126, 80%, 65%)" />
<circle cx="228.45" cy="313.41" r="4" fill="hsl(132, 80%, 65%)" />
<circle cx="237.42" cy="194.69" r="5" fill="hsl(138, 80%, 65%)" />
<circle cx="311.45" cy="288.86" r="6" fill="hsl(144, 80%, 65%)" />
<circle cx="192.55" cy="269.30" r="2" fill="hsl(150, 80%, 65%)" />
<circle cx="294.03" cy="203.02" r="3" fill="hsl(156, 80%, 65%)" />
<circle cx="263.79" cy="321.13" r="4" fill="hsl(162, 80%, 65%)" />
<circle cx="205.97" cy="213.00" r="5" fill="hsl(168, 80%, 65%)" />
<circle cx="322.31" cy="253.91" r="6" fill="hsl(174, 80%, 65%)" />
<circle cx="208.25" cy="302.59" r="2" fill="hsl(180, 80%, 65%)" />
<circle cx="259.75" cy="189.02" r="3" fill="hsl(186, 80%, 65%)" />
<circle cx="298.71" cy="308.21" r="4" fill="hsl(192, 80%, 65%)" />
<circle cx="188.88" cy="246.30" r="5" fill="hsl(198, 80%, 65%)" />
<circle cx="312.34" cy="217.61" r="6" fill="hsl(204, 80%, 65%)" />
<circle cx="240.30" cy="322.72" r="2" fill="hsl(210, 80%, 65%)" />
<circle cx="222.33" cy="195.89" r="3" fill="hsl(216, 80%, 65%)" />
<circle cx="321.77" cy="277.69" r="4" fill="hsl(222, 80%, 65%)" />
<circle cx="192.52" cy="284.58" r="5" fill="hsl(228, 80%, 65%)" />
<circle cx="283.64" cy="191.72" r="6" fill="hsl(234, 80%, 65%)" />
<circle cx="279.15" cy="322.40" r="2" fill="hsl(240, 80%, 65%)" />
<circle cx="193.76" cy="222.51" r="3" fill="hsl(246, 80%, 65%)" />
<circle cx="324.85" cy="238.57" r="4" fill="hsl(252, 80%, 65%)" />
<circle cx="216.82" cy="315.65" r="5" fill="hsl(258, 80%, 65%)" />
<circle cx="244.54" cy="185.21" r="6" fill="hsl(264, 80%, 65%)" />
<circle cx="312.54" cy="300.68" r="2" fill="hsl(270, 80%, 65%)" />
<circle cx="183.79" cy="261.27" r="3" fill="hsl(276, 80%, 65%)" />
<circle cx="305.92" cy="203.09" r="4" fill="hsl(282, 80%, 65%)" />
<circle cx="254.93" cy="329.07" r="5" fill="hsl(288, 80%, 65%)" />
<circle cx="207.20" cy="201.14" r="6" fill="hsl(294, 80%, 65%)" />
<circle cx="329.37" cy="263.52" r="2" fill="hsl(300, 80%, 65%)" />
<circle cx="196.55" cy="300.21" r="3" fill="hsl(306, 80%, 65%)" />
<circle cx="270.03" cy="182.91" r="4" fill="hsl(312, 80%, 65%)" />
<circle cx="295.19" cy="319.65" r="5" fill="hsl(318, 80%, 65%)" />
<circle cx="183.78" cy="235.45" r="6" fill="hsl(324, 80%, 65%)" />
<circle cx="323.43" cy="222.23" r="2" fill="hsl(330, 80%, 65%)" />
<circle cx="228.98" cy="326.76" r="3" fill="hsl(336, 80%, 65%)" />
<circle cx="228.01" cy="185.27" r="4" fill="hsl(342, 80%, 65%)" />
<circle cx="324.71" cy="289.39" r="5" fill="hsl(348, 80%, 65%)" />
<circle cx="182.48" cy="277.89" r="6" fill="hsl(354, 80%, 65%)" />
<circle cx="295.60" cy="189.92" r="2" fill="hsl(0, 80%, 65%)" />
<circle cx="271.50" cy="331.79" r="3" fill="hsl(6, 80%, 65%)" />
<circle cx="193.12" cy="210.40" r="4" fill="hsl(12, 80%, 65%)" />
<circle cx="333.48" cy="247.11" r="5" fill="hsl(18, 80%, 65%)" />
<circle cx="204.66" cy="315.13" r="6" fill="hsl(24, 80%, 65%)" />
<circle cx="253.90" cy="177.41" r="2" fill="hsl(30, 80%, 65%)" />
<circle cx="310.86" cy="312.76" r="3" fill="hsl(36, 80%, 65%)" />
<circle cx="176.90" cy="251.18" r="4" fill="hsl(42, 80%, 65%)" />
<circle cx="317.82" cy="205.92" r="5" fill="hsl(48, 80%, 65%)" />
<circle cx="244.19" cy="334.99" r="6" fill="hsl(54, 80%, 65%)" />
<circle cx="211.17" cy="189.52" r="2" fill="hsl(60, 80%, 65%)" />
<circle cx="334.26" cy="274.81" r="3" fill="hsl(66, 80%, 65%)" />
<circle cx="185.32" cy="295.14" r="4" fill="hsl(72, 80%, 65%)" />
<circle cx="281.78" cy="179.11" r="5" fill="hsl(78, 80%, 65%)" />
<circle cx="289.06" cy="330.39" r="6" fill="hsl(84, 80%, 65%)" />
<circle cx="181.10" cy="223.36" r="2" fill="hsl(90, 80%, 65%)" />
<circle cx="333.57" cy="229.38" r="3" fill="hsl(96, 80%, 65%)" />
<circle cx="216.64" cy="328.29" r="4" fill="hsl(102, 80%, 65%)" />
<circle cx="236.11" cy="175.82" r="5" fill="hsl(108, 80%, 65%)" />
<circle cx="325.07" cy="301.86" r="6" fill="hsl(114, 80%, 65%)" />
<circle cx="173.80" cy="268.89" r="2" fill="hsl(120, 80%, 65%)" />
<circle cx="308.09" cy="190.74" r="3" fill="hsl(126, 80%, 65%)" />
<circle cx="261.70" cy="339.60" r="4" fill="hsl(132, 80%, 65%)" />
<circle cx="195.11" cy="198.00" r="5" fill="hsl(138, 80%, 65%)" />
<circle cx="340.37" cy="257.65" r="6" fill="hsl(144, 80%, 65%)" />
<circle cx="192.46" cy="311.97" r="2" fill="hsl(150, 80%, 65%)" />
<circle cx="265.08" cy="171.52" r="3" fill="hsl(156, 80%, 65%)" />
<circle cx="306.55" cy="324.66" r="4" fill="hsl(162, 80%, 65%)" />
<circle cx="172.06" cy="239.46" r="5" fill="hsl(168, 80%, 65%)" />
<circle cx="329.31" cy="211.35" r="6" fill="hsl(174, 80%, 65%)" />
<circle cx="232.02" cy="338.72" r="2" fill="hsl(180, 80%, 65%)" />
<circle cx="217.68" cy="178.55" r="3" fill="hsl(186, 80%, 65%)" />
<circle cx="336.84" cy="287.32" r="4" fill="hsl(192, 80%, 65%)" />
<circle cx="174.96" cy="287.61" r="5" fill="hsl(198, 80%, 65%)" />
<circle cx="294.52" cy="177.70" r="6" fill="hsl(204, 80%, 65%)" />
<circle cx="280.57" cy="340.03" r="2" fill="hsl(210, 80%, 65%)" />
<circle cx="180.88" cy="210.49" r="3" fill="hsl(216, 80%, 65%)" />
<circle cx="342.41" cy="238.76" r="4" fill="hsl(222, 80%, 65%)" />
<circle cx="203.76" cy="327.31" r="5" fill="hsl(228, 80%, 65%)" />
<circle cx="246.32" cy="167.86" r="6" fill="hsl(234, 80%, 65%)" />
<circle cx="322.89" cy="314.64" r="2" fill="hsl(240, 80%, 65%)" />
<circle cx="166.79" cy="257.95" r="3" fill="hsl(246, 80%, 65%)" />
<circle cx="320.66" cy="194.11" r="4" fill="hsl(252, 80%, 65%)" />
<circle cx="250.10" cy="345.59" r="5" fill="hsl(258, 80%, 65%)" />
<circle cx="199.66" cy="185.74" r="6" fill="hsl(264, 80%, 65%)" />
<circle cx="345.27" cy="269.79" r="2" fill="hsl(270, 80%, 65%)" />
<circle cx="180.63" cy="306.29" r="3" fill="hsl(276, 80%, 65%)" />
<circle cx="277.67" cy="167.75" r="4" fill="hsl(282, 80%, 65%)" />
<circle cx="299.77" cy="335.95" r="5" fill="hsl(288, 80%, 65%)" />
<circle cx="169.46" cy="226.52" r="6" fill="hsl(294, 80%, 65%)" />
<circle cx="339.97" cy="219.18" r="2" fill="hsl(300, 80%, 65%)" />
<circle cx="218.85" cy="340.12" r="3" fill="hsl(306, 80%, 65%)" />
<circle cx="226.48" cy="168.62" r="4" fill="hsl(312, 80%, 65%)" />
<circle cx="337.02" cy="300.62" r="5" fill="hsl(318, 80%, 65%)" />
<circle cx="165.86" cy="277.89" r="6" fill="hsl(324, 80%, 65%)" />
<circle cx="307.83" cy="178.75" r="2" fill="hsl(330, 80%, 65%)" />
<circle cx="270.00" cy="348.24" r="3" fill="hsl(336, 80%, 65%)" />
<circle cx="183.16" cy="197.28" r="4" fill="hsl(342, 80%, 65%)" />
<circle cx="349.63" cy="250.08" r="5" fill="hsl(348, 80%, 65%)" />
<circle cx="190.77" cy="323.80" r="6" fill="hsl(354, 80%, 65%)" />
<circle cx="258.30" cy="161.68" r="2" fill="hsl(0, 80%, 65%)" />
<circle cx="318.19" cy="327.30" r="3" fill="hsl(6, 80%, 65%)" />
<circle cx="161.72" cy="245.40" r="4" fill="hsl(12, 80%, 65%)" />
<circle cx="332.88" cy="199.98" r="5" fill="hsl(18, 80%, 65%)" />
<circle cx="237.10" cy="349.50" r="6" fill="hsl(24, 80%, 65%)" />
<circle cx="206.65" cy="174.07" r="2" fill="hsl(30, 80%, 65%)" />
<circle cx="347.98" cy="283.15" r="3" fill="hsl(36, 80%, 65%)" />
<circle cx="169.60" cy="298.23" r="4" fill="hsl(42, 80%, 65%)" />
<circle cx="291.28" cy="166.26" r="5" fill="hsl(48, 80%, 65%)" />
<circle cx="290.70" cy="346.24" r="6" fill="hsl(54, 80%, 65%)" />
<circle cx="169.23" cy="212.79" r="2" fill="hsl(60, 80%, 65%)" />
<circle cx="349.41" cy="229.18" r="3" fill="hsl(66, 80%, 65%)" />
<circle cx="205.10" cy="339.09" r="4" fill="hsl(72, 80%, 65%)" />
<circle cx="237.36" cy="160.10" r="5" fill="hsl(78, 80%, 65%)" />
<circle cx="334.73" cy="314.27" r="6" fill="hsl(84, 80%, 65%)" />
<circle cx="158.34" cy="266.24" r="2" fill="hsl(90, 80%, 65%)" />
<circle cx="321.26" cy="182.29" r="3" fill="hsl(96, 80%, 65%)" />
<circle cx="257.67" cy="354.69" r="4" fill="hsl(102, 80%, 65%)" />
<circle cx="187.93" cy="184.18" r="5" fill="hsl(108, 80%, 65%)" />
<circle cx="354.95" cy="263.00" r="6" fill="hsl(114, 80%, 65%)" />
<circle cx="178.11" cy="317.84" r="2" fill="hsl(120, 80%, 65%)" />
<circle cx="271.70" cy="157.55" r="3" fill="hsl(126, 80%, 65%)" />
<circle cx="311.06" cy="339.41" r="4" fill="hsl(132, 80%, 65%)" />
<circle cx="158.81" cy="231.63" r="5" fill="hsl(138, 80%, 65%)" />
<circle cx="344.34" cy="208.20" r="6" fill="hsl(144, 80%, 65%)" />
<circle cx="223.07" cy="351.15" r="2" fill="hsl(150, 80%, 65%)" />
<circle cx="215.91" cy="163.37" r="3" fill="hsl(156, 80%, 65%)" />
<circle cx="348.35" cy="297.32" r="4" fill="hsl(162, 80%, 65%)" />
<circle cx="159.76" cy="287.99" r="5" fill="hsl(168, 80%, 65%)" />
<circle cx="305.48" cy="167.19" r="6" fill="hsl(174, 80%, 65%)" />
<circle cx="279.56" cy="355.14" r="2" fill="hsl(180, 80%, 65%)" />
<circle cx="171.45" cy="198.68" r="3" fill="hsl(186, 80%, 65%)" />
<circle cx="357.30" cy="241.12" r="4" fill="hsl(192, 80%, 65%)" />
<circle cx="191.20" cy="335.59" r="5" fill="hsl(198, 80%, 65%)" />
<circle cx="250.01" cy="153.30" r="6" fill="hsl(204, 80%, 65%)" />
<circle cx="329.96" cy="327.85" r="2" fill="hsl(210, 80%, 65%)" />
<circle cx="152.69" cy="252.98" r="3" fill="hsl(216, 80%, 65%)" />
<circle cx="334.40" cy="188.29" r="4" fill="hsl(222, 80%, 65%)" />
<circle cx="243.90" cy="359.12" r="5" fill="hsl(228, 80%, 65%)" />
<circle cx="195.13" cy="171.59" r="6" fill="hsl(234, 80%, 65%)" />
<circle cx="358.13" cy="277.17" r="2" fill="hsl(240, 80%, 65%)" />
<circle cx="166.19" cy="309.50" r="3" fill="hsl(246, 80%, 65%)" />
<circle cx="286.15" cy="155.65" r="4" fill="hsl(252, 80%, 65%)" />
<circle cx="301.65" cy="350.57" r="5" fill="hsl(258, 80%, 65%)" />
<circle cx="158.24" cy="217.02" r="6" fill="hsl(264, 80%, 65%)" />
<circle cx="354.64" cy="218.62" r="2" fill="hsl(270, 80%, 65%)" />
<circle cx="208.41" cy="350.40" r="3" fill="hsl(276, 80%, 65%)" />
<circle cx="227.26" cy="154.02" r="4" fill="hsl(282, 80%, 65%)" />
<circle cx="346.27" cy="311.91" r="5" fill="hsl(288, 80%, 65%)" />
<circle cx="151.44" cy="275.80" r="6" fill="hsl(294, 80%, 65%)" />
<circle cx="319.86" cy="170.59" r="2" fill="hsl(300, 80%, 65%)" />
<circle cx="266.63" cy="362.35" r="3" fill="hsl(306, 80%, 65%)" />
<circle cx="176.15" cy="184.60" r="4" fill="hsl(312, 80%, 65%)" />
<circle cx="363.33" cy="254.71" r="5" fill="hsl(318, 80%, 65%)" />
<circle cx="177.56" cy="329.62" r="6" fill="hsl(324, 80%, 65%)" />
<circle cx="264.13" cy="148.51" r="2" fill="hsl(330, 80%, 65%)" />
<circle cx="322.76" cy="340.93" r="3" fill="hsl(336, 80%, 65%)" />
<circle cx="149.18" cy="238.43" r="4" fill="hsl(342, 80%, 65%)" />
<circle cx="346.83" cy="196.67" r="5" fill="hsl(348, 80%, 65%)" />
<circle cx="229.05" cy="361.32" r="6" fill="hsl(354, 80%, 65%)" />
<circle cx="204.63" cy="159.93" r="2" fill="hsl(0, 80%, 65%)" />
<circle cx="358.99" cy="292.21" r="3" fill="hsl(6, 80%, 65%)" />
<circle cx="155.39" cy="298.96" r="4" fill="hsl(12, 80%, 65%)" />
<circle cx="301.26" cy="156.16" r="5" fill="hsl(18, 80%, 65%)" />
<circle cx="290.14" cy="360.41" r="6" fill="hsl(24, 80%, 65%)" />
<circle cx="160.11" cy="201.96" r="2" fill="hsl(30, 80%, 65%)" />
<circle cx="363.43" cy="231.02" r="3" fill="hsl(36, 80%, 65%)" />
<circle cx="193.53" cy="347.17" r="4" fill="hsl(42, 80%, 65%)" />
<circle cx="240.44" cy="146.35" r="5" fill="hsl(48, 80%, 65%)" />
<circle cx="341.71" cy="326.48" r="6" fill="hsl(54, 80%, 65%)" />
<circle cx="144.97" cy="261.93" r="2" fill="hsl(60, 80%, 65%)" />
</svg>
