<svg xmlns="http://www.w3.org/2000/svg" width="512" height="512" viewBox="0 0 512 512">
<rect width="100%" height="100%" fill="#0b1020"/>
<circle cx="428" cy="134" r="50" fill="#f8f3c9" opacity="0.95" />
<circle cx="114.0" cy="148.0" r="1.7" fill="white" />
<circle cx="48.0" cy="56.0" r="1.7" fill="white" />
<circle cx="211.0" cy="82.0" r="2.3" fill="white" />
<circle cx="366.0" cy="177.0" r="1.7" fill="white" />
<circle cx="440.0" cy="136.0" r="3.2" fill="white" />
<circle cx="292.0" cy="152.0" r="2.9" fill="white" />
<circle cx="37.0" cy="44.0" r="1.9" fill="white" />
<circle cx="156.0" cy="94.0" r="2.3" fill="white" />
<path d="M 20 430 C 140 419, 184 440, 307 426 S 450 402, 512 432" stroke="#5dade2" stroke-width="6" fill="none" opacity="0.85" />
<line x1="0" y1="409" x2="512" y2="409" stroke="#445566" stroke-width="3" />
<polygon points="182,354 222,294 262,314 282,284 302,304 314,344 282,366 232,370" fill="#1e1e1e" />
<polygon points="257,294 270,272 280,296" fill="#1e1e1e" />
<line x1="312" y1="339" x2="342" y2="314" stroke="#1e1e1e" stroke-width="6" />
</svg>
