<svg xmlns="http://www.w3.org/2000/svg" width="512" height="512" viewBox="0 0 512 512">
<rect width="100%" height="100%" fill="#0b1020"/>
<circle cx="394" cy="96" r="48" fill="#f8f3c9" opacity="0.95" />
<circle cx="166.0" cy="127.0" r="2.7" fill="white" />
<circle cx="198.0" cy="106.0" r="1.9" fill="white" />
<circle cx="206.0" cy="138.0" r="2.6" fill="white" />
<circle cx="182.0" cy="173.0" r="1.6" fill="white" />
<circle cx="95.0" cy="180.0" r="2.3" fill="white" />
<circle cx="36.0" cy="87.0" r="1.7" fill="white" />
<circle cx="184.0" cy="83.0" r="1.7" fill="white" />
<circle cx="181.0" cy="59.0" r="3.2" fill="white" />
<circle cx="462.0" cy="163.0" r="1.9" fill="white" />
<circle cx="415.0" cy="176.0" r="2.8" fill="white" />
<path d="M 20 430 C 139 429, 197 451, 289 436 S 450 401, 512 431" stroke="#5dade2" stroke-width="7" fill="none" opacity="0.85" />
<line x1="0" y1="391" x2="512" y2="391" stroke="#445566" stroke-width="3" />
<polygon points="197,362 237,302 277,322 297,292 317,312 329,352 297,374 247,378" fill="#1e1e1e" />
<polygon points="272,302 285,280 295,304" fill="#1e1e1e" />
<line x1="327" y1="347" x2="357" y2="322" stroke="#1e1e1e" stroke-width="6" />
</svg>
