<svg xmlns="http://www.w3.org/2000/svg" width="512" height="512" viewBox="0 0 512 512">
<rect width="100%" height="100%" fill="#0b1020"/>
<circle cx="441" cy="96" r="45" fill="#f8f3c9" opacity="0.95" />
<circle cx="211.0" cy="86.0" r="1.8" fill="white" />
<circle cx="150.0" cy="117.0" r="2.0" fill="white" />
<circle cx="165.0" cy="52.0" r="1.9" fill="white" />
<circle cx="393.0" cy="155.0" r="2.6" fill="white" />
<circle cx="401.0" cy="131.0" r="1.9" fill="white" />
<circle cx="375.0" cy="93.0" r="2.0" fill="white" />
<circle cx="470.0" cy="23.0" r="2.8" fill="white" />
<circle cx="126.0" cy="135.0" r="1.6" fill="white" />
<circle cx="294.0" cy="110.0" r="2.7" fill="white" />
<circle cx="219.0" cy="99.0" r="3.4" fill="white" />
<path d="M 20 430 C 129 423, 196 443, 315 424 S 450 383, 512 413" stroke="#5dade2" stroke-width="6" fill="none" opacity="0.85" />
<line x1="0" y1="390" x2="512" y2="390" stroke="#445566" stroke-width="3" />
<polygon points="185,357 225,297 265,317 285,287 305,307 317,347 285,369 235,373" fill="#1e1e1e" />
<polygon points="260,297 273,275 283,299" fill="#1e1e1e" />
<line x1="315" y1="342" x2="345" y2="317" stroke="#1e1e1e" stroke-width="6" />
</svg>
