<svg xmlns="http://www.w3.org/2000/svg" width="512" height="512" viewBox="0 0 512 512">
<rect width="100%" height="100%" fill="#0b1020"/>
<circle cx="353" cy="134" r="40" fill="#f8f3c9" opacity="0.95" />
<circle cx="142.0" cy="145.0" r="3.4" fill="white" />
<circle cx="75.0" cy="56.0" r="2.3" fill="white" />
<circle cx="329.0" cy="103.0" r="2.3" fill="white" />
<circle cx="354.0" cy="74.0" r="2.0" fill="white" />
<circle cx="174.0" cy="127.0" r="3.2" fill="white" />
<circle cx="474.0" cy="143.0" r="2.5" fill="white" />
<path d="M 20 430 C 104 420, 190 440, 291 430 S 450 396, 512 426" stroke="#5dade2" stroke-width="6" fill="none" opacity="0.85" />
<line x1="0" y1="404" x2="512" y2="404" stroke="#445566" stroke-width="4" />
<polygon points="193,352 233,292 273,312 293,282 313,302 325,342 293,364 243,368" fill="#1e1e1e" />
<polygon points="268,292 281,270 291,294" fill="#1e1e1e" />
<line x1="323" y1="337" x2="353" y2="312" stroke="#1e1e1e" stroke-width="6" />
</svg>
