<svg xmlns="http://www.w3.org/2000/svg" width="512" height="512" viewBox="0 0 512 512">
<rect width="100%" height="100%" fill="#0b1020"/>
<circle cx="415" cy="102" r="55" fill="#f8f3c9" opacity="0.95" />
<circle cx="460.0" cy="158.0" r="3.4" fill="white" />
<circle cx="165.0" cy="144.0" r="1.9" fill="white" />
<circle cx="384.0" cy="83.0" r="1.9" fill="white" />
<circle cx="253.0" cy="115.0" r="3.3" fill="white" />
<circle cx="492.0" cy="80.0" r="2.0" fill="white" />
<circle cx="171.0" cy="50.0" r="3.3" fill="white" />
<circle cx="208.0" cy="178.0" r="2.3" fill="white" />
<circle cx="353.0" cy="70.0" r="1.9" fill="white" />
<circle cx="324.0" cy="161.0" r="3.4" fill="white" />
<circle cx="24.0" cy="68.0" r="3.1" fill="white" />
<circle cx="298.0" cy="62.0" r="2.0" fill="white" />
<circle cx="407.0" cy="140.0" r="2.0" fill="white" />
<circle cx="450.0" cy="116.0" r="2.4" fill="white" />
<circle cx="254.0" cy="113.0" r="2.3" fill="white" />
<path d="M 20 430 C 104 423, 188 455, 301 439 S 450 393, 512 423" stroke="#5dade2" stroke-width="6" fill="none" opacity="0.85" />
<line x1="0" y1="412" x2="512" y2="412" stroke="#445566" stroke-width="3" />
<polygon points="213,365 253,305 293,325 313,295 333,315 345,355 313,377 263,381" fill="#1e1e1e" />
<polygon points="288,305 301,283 311,307" fill="#1e1e1e" />
<line x1="343" y1="350" x2="373" y2="325" stroke="#1e1e1e" stroke-width="6" />
</svg>
