<svg xmlns="http://www.w3.org/2000/svg" width="512" height="512" viewBox="0 0 512 512">
<rect width="100%" height="100%" fill="black"/>
<circle cx="256" cy="256" r="16" fill="gold" />
<line x1="256" y1="256" x2="457.00" y2="256.00" stroke="hsl(0, 85%, 65%)" stroke-width="3"/>
<circle cx="465.00" cy="256.00" r="5" fill="hsl(0, 85%, 65%)" />
<line x1="256" y1="256" x2="450.69" y2="305.99" stroke="hsl(15, 85%, 65%)" stroke-width="2"/>
<circle cx="472.96" cy="308.97" r="4" fill="hsl(15, 85%, 65%)" />
<line x1="256" y1="256" x2="432.14" y2="352.83" stroke="hsl(14, 85%, 65%)" stroke-width="3"/>
<circle cx="453.17" cy="361.02" r="4" fill="hsl(14, 85%, 65%)" />
<line x1="256" y1="256" x2="402.52" y2="393.59" stroke="hsl(42, 85%, 65%)" stroke-width="2"/>
<circle cx="409.81" cy="405.23" r="5" fill="hsl(42, 85%, 65%)" />
<line x1="256" y1="256" x2="363.70" y2="425.71" stroke="hsl(44, 85%, 65%)" stroke-width="3"/>
<circle cx="373.88" cy="439.22" r="7" fill="hsl(44, 85%, 65%)" />
<line x1="256" y1="256" x2="318.11" y2="447.16" stroke="hsl(50, 85%, 65%)" stroke-width="2"/>
<circle cx="326.15" cy="458.58" r="5" fill="hsl(50, 85%, 65%)" />
<line x1="256" y1="256" x2="268.62" y2="456.60" stroke="hsl(72, 85%, 65%)" stroke-width="3"/>
<circle cx="270.19" cy="477.56" r="3" fill="hsl(72, 85%, 65%)" />
<line x1="256" y1="256" x2="218.34" y2="453.44" stroke="hsl(49, 85%, 65%)" stroke-width="2"/>
<circle cx="216.65" cy="467.19" r="4" fill="hsl(49, 85%, 65%)" />
<line x1="256" y1="256" x2="170.42" y2="437.87" stroke="hsl(88, 85%, 65%)" stroke-width="2"/>
<circle cx="165.31" cy="452.35" r="7" fill="hsl(88, 85%, 65%)" />
<line x1="256" y1="256" x2="127.88" y2="410.87" stroke="hsl(108, 85%, 65%)" stroke-width="1"/>
<line x1="256" y1="256" x2="93.39" y2="374.14" stroke="hsl(140, 85%, 65%)" stroke-width="1"/>
<circle cx="70.74" cy="389.43" r="4" fill="hsl(140, 85%, 65%)" />
<line x1="256" y1="256" x2="69.11" y2="329.99" stroke="hsl(88, 85%, 65%)" stroke-width="1"/>
<circle cx="44.01" cy="338.09" r="4" fill="hsl(88, 85%, 65%)" />
<line x1="256" y1="256" x2="56.58" y2="281.19" stroke="hsl(120, 85%, 65%)" stroke-width="1"/>
<circle cx="37.73" cy="283.82" r="4" fill="hsl(120, 85%, 65%)" />
<line x1="256" y1="256" x2="56.58" y2="230.81" stroke="hsl(91, 85%, 65%)" stroke-width="2"/>
<circle cx="32.77" cy="228.18" r="4" fill="hsl(91, 85%, 65%)" />
<line x1="256" y1="256" x2="69.11" y2="182.01" stroke="hsl(112, 85%, 65%)" stroke-width="2"/>
<circle cx="52.38" cy="171.70" r="7" fill="hsl(112, 85%, 65%)" />
<line x1="256" y1="256" x2="93.39" y2="137.86" stroke="hsl(195, 85%, 65%)" stroke-width="2"/>
<line x1="256" y1="256" x2="127.88" y2="101.13" stroke="hsl(192, 85%, 65%)" stroke-width="2"/>
<circle cx="112.58" cy="91.88" r="3" fill="hsl(192, 85%, 65%)" />
<line x1="256" y1="256" x2="170.42" y2="74.13" stroke="hsl(255, 85%, 65%)" stroke-width="3"/>
<circle cx="161.48" cy="58.75" r="3" fill="hsl(255, 85%, 65%)" />
<line x1="256" y1="256" x2="218.34" y2="58.56" stroke="hsl(198, 85%, 65%)" stroke-width="3"/>
<circle cx="215.15" cy="36.95" r="3" fill="hsl(198, 85%, 65%)" />
<line x1="256" y1="256" x2="268.62" y2="55.40" stroke="hsl(171, 85%, 65%)" stroke-width="2"/>
<line x1="256" y1="256" x2="318.11" y2="64.84" stroke="hsl(180, 85%, 65%)" stroke-width="3"/>
<circle cx="324.91" cy="45.82" r="4" fill="hsl(180, 85%, 65%)" />
<line x1="256" y1="256" x2="363.70" y2="86.29" stroke="hsl(273, 85%, 65%)" stroke-width="1"/>
<circle cx="378.17" cy="66.03" r="7" fill="hsl(273, 85%, 65%)" />
<line x1="256" y1="256" x2="402.52" y2="118.41" stroke="hsl(264, 85%, 65%)" stroke-width="2"/>
<line x1="256" y1="256" x2="432.14" y2="159.17" stroke="hsl(161, 85%, 65%)" stroke-width="2"/>
<line x1="256" y1="256" x2="450.69" y2="206.01" stroke="hsl(288, 85%, 65%)" stroke-width="2"/>
<circle cx="476.84" cy="202.03" r="4" fill="hsl(288, 85%, 65%)" />
</svg>
