<svg xmlns="http://www.w3.org/2000/svg" width="512" height="512" viewBox="0 0 512 512">
<rect width="100%" height="100%" fill="#0b1020"/>
<circle cx="343" cy="71" r="45" fill="#f8f3c9" opacity="0.95" />
<circle cx="230.0" cy="47.0" r="2.8" fill="white" />
<circle cx="158.0" cy="44.0" r="2.8" fill="white" />
<circle cx="40.0" cy="51.0" r="3.0" fill="white" />
<circle cx="64.0" cy="81.0" r="3.3" fill="white" />
<circle cx="150.0" cy="43.0" r="1.7" fill="white" />
<circle cx="305.0" cy="23.0" r="3.0" fill="white" />
<circle cx="359.0" cy="127.0" r="1.9" fill="white" />
<circle cx="285.0" cy="125.0" r="2.5" fill="white" />
<circle cx="55.0" cy="131.0" r="2.2" fill="white" />
<circle cx="251.0" cy="131.0" r="2.9" fill="white" />
<circle cx="465.0" cy="54.0" r="2.8" fill="white" />
<circle cx="121.0" cy="159.0" r="2.5" fill="white" />
<circle cx="201.0" cy="77.0" r="2.0" fill="white" />
<path d="M 20 430 C 116 426, 195 442, 318 431 S 450 393, 512 423" stroke="#5dade2" stroke-width="6" fill="none" opacity="0.85" />
<line x1="0" y1="411" x2="512" y2="411" stroke="#445566" stroke-width="2" />
<polygon points="180,352 220,292 260,312 280,282 300,302 312,342 280,364 230,368" fill="#1e1e1e" />
<polygon points="255,292 268,270 278,294" fill="#1e1e1e" />
<line x1="310" y1="337" x2="340" y2="312" stroke="#1e1e1e" stroke-width="6" />
</svg>
