<svg xmlns="http://www.w3.org/2000/svg" width="512" height="512" viewBox="0 0 512 512">
<rect width="100%" height="100%" fill="black"/>
<circle cx="256.00" cy="256.00" r="2" fill="hsl(0, 80%, 65%)" />
<circle cx="250.45" cy="261.09" r="3" fill="hsl(9, 80%, 65%)" />
<circle cx="256.93" cy="245.39" r="4" fill="hsl(18, 80%, 65%)" />
<circle cx="263.94" cy="266.35" r="5" fill="hsl(27, 80%, 65%)" />
<circle cx="241.17" cy="253.38" r="6" fill="hsl(36, 80%, 65%)" />
<circle cx="270.21" cy="246.96" r="2" fill="hsl(45, 80%, 65%)" />
<circle cx="251.21" cy="273.82" r="3" fill="hsl(54, 80%, 65%)" />
<circle cx="246.82" cy="238.32" r="4" fill="hsl(63, 80%, 65%)" />
<circle cx="276.01" cy="263.31" r="5" fill="hsl(72, 80%, 65%)" />
<circle cx="235.11" cy="264.62" r="6" fill="hsl(81, 80%, 65%)" />
<circle cx="266.10" cy="234.43" r="2" fill="hsl(90, 80%, 65%)" />
<circle cx="263.48" cy="279.84" r="3" fill="hsl(99, 80%, 65%)" />
<circle cx="233.43" cy="242.92" r="4" fill="hsl(108, 80%, 65%)" />
<circle cx="282.52" cy="250.17" r="5" fill="hsl(117, 80%, 65%)" />
<circle cx="239.79" cy="279.05" r="6" fill="hsl(126, 80%, 65%)" />
<circle cx="252.25" cy="227.07" r="2" fill="hsl(135, 80%, 65%)" />
<circle cx="279.04" cy="275.42" r="3" fill="hsl(144, 80%, 65%)" />
<circle cx="224.97" cy="257.28" r="4" fill="hsl(153, 80%, 65%)" />
<circle cx="278.65" cy="233.46" r="5" fill="hsl(162, 80%, 65%)" />
<circle cx="254.48" cy="288.80" r="6" fill="hsl(171, 80%, 65%)" />
<circle cx="234.42" cy="230.14" r="2" fill="hsl(180, 80%, 65%)" />
<circle cx="290.21" cy="260.60" r="3" fill="hsl(189, 80%, 65%)" />
<circle cx="227.00" cy="276.18" r="4" fill="hsl(198, 80%, 65%)" />
<circle cx="263.93" cy="220.76" r="5" fill="hsl(207, 80%, 65%)" />
<circle cx="274.35" cy="288.01" r="6" fill="hsl(216, 80%, 65%)" />
<circle cx="220.12" cy="244.55" r="2" fill="hsl(225, 80%, 65%)" />
<circle cx="290.86" cy="239.89" r="3" fill="hsl(234, 80%, 65%)" />
<circle cx="240.89" cy="292.10" r="4" fill="hsl(243, 80%, 65%)" />
<circle cx="242.51" cy="218.50" r="5" fill="hsl(252, 80%, 65%)" />
<circle cx="291.90" cy="274.87" r="6" fill="hsl(261, 80%, 65%)" />
<circle cx="216.11" cy="266.52" r="2" fill="hsl(270, 80%, 65%)" />
<circle cx="278.68" cy="220.73" r="3" fill="hsl(279, 80%, 65%)" />
<circle cx="263.22" cy="297.99" r="4" fill="hsl(288, 80%, 65%)" />
<circle cx="221.79" cy="229.51" r="5" fill="hsl(297, 80%, 65%)" />
<circle cx="299.77" cy="252.37" r="6" fill="hsl(306, 80%, 65%)" />
<circle cx="225.74" cy="288.71" r="2" fill="hsl(315, 80%, 65%)" />
<circle cx="256.22" cy="210.81" r="3" fill="hsl(324, 80%, 65%)" />
<circle cx="286.78" cy="289.93" r="4" fill="hsl(333, 80%, 65%)" />
<circle cx="209.77" cy="251.72" r="5" fill="hsl(342, 80%, 65%)" />
<circle cx="293.47" cy="227.56" r="6" fill="hsl(351, 80%, 65%)" />
<circle cx="247.47" cy="302.87" r="2" fill="hsl(0, 80%, 65%)" />
<circle cx="230.31" cy="215.18" r="3" fill="hsl(9, 80%, 65%)" />
<circle cx="303.08" cy="268.90" r="4" fill="hsl(18, 80%, 65%)" />
<circle cx="212.06" cy="278.55" r="5" fill="hsl(27, 80%, 65%)" />
<circle cx="273.37" cy="209.16" r="6" fill="hsl(36, 80%, 65%)" />
<circle cx="275.05" cy="302.80" r="2" fill="hsl(45, 80%, 65%)" />
<circle cx="209.84" cy="234.12" r="3" fill="hsl(54, 80%, 65%)" />
<circle cx="305.34" cy="240.79" r="4" fill="hsl(63, 80%, 65%)" />
<circle cx="229.62" cy="301.02" r="5" fill="hsl(72, 80%, 65%)" />
<circle cx="244.93" cy="204.45" r="6" fill="hsl(81, 80%, 65%)" />
<circle cx="299.42" cy="286.84" r="2" fill="hsl(90, 80%, 65%)" />
<circle cx="202.62" cy="262.65" r="3" fill="hsl(99, 80%, 65%)" />
<circle cx="291.20" cy="214.64" r="4" fill="hsl(108, 80%, 65%)" />
<circle cx="258.00" cy="310.80" r="5" fill="hsl(117, 80%, 65%)" />
<circle cx="217.15" cy="216.58" r="6" fill="hsl(126, 80%, 65%)" />
<circle cx="311.78" cy="258.85" r="2" fill="hsl(135, 80%, 65%)" />
<circle cx="212.55" cy="291.90" r="3" fill="hsl(144, 80%, 65%)" />
<circle cx="263.86" cy="199.68" r="4" fill="hsl(153, 80%, 65%)" />
<circle cx="288.53" cy="303.24" r="5" fill="hsl(162, 80%, 65%)" />
<circle cx="199.62" cy="243.03" r="6" fill="hsl(171, 80%, 65%)" />
<circle cx="306.76" cy="227.24" r="2" fill="hsl(180, 80%, 65%)" />
<circle cx="237.85" cy="311.95" r="3" fill="hsl(189, 80%, 65%)" />
<circle cx="231.39" cy="202.04" r="4" fill="hsl(198, 80%, 65%)" />
<circle cx="311.03" cy="279.35" r="5" fill="hsl(207, 80%, 65%)" />
<circle cx="199.20" cy="276.12" r="6" fill="hsl(216, 80%, 65%)" />
<circle cx="284.51" cy="202.39" r="2" fill="hsl(225, 80%, 65%)" />
<circle cx="271.31" cy="315.24" r="3" fill="hsl(234, 80%, 65%)" />
<circle cx="204.31" cy="222.40" r="4" fill="hsl(243, 80%, 65%)" />
<circle cx="317.26" cy="245.78" r="5" fill="hsl(252, 80%, 65%)" />
<circle cx="217.45" cy="305.28" r="6" fill="hsl(261, 80%, 65%)" />
<circle cx="251.10" cy="193.17" r="2" fill="hsl(270, 80%, 65%)" />
<circle cx="302.38" cy="299.32" r="3" fill="hsl(279, 80%, 65%)" />
<circle cx="192.09" cy="255.38" r="4" fill="hsl(288, 80%, 65%)" />
<circle cx="303.87" cy="213.00" r="5" fill="hsl(297, 80%, 65%)" />
<circle cx="249.71" cy="320.48" r="6" fill="hsl(306, 80%, 65%)" />
<circle cx="216.82" cy="203.85" r="2" fill="hsl(315, 80%, 65%)" />
<circle cx="320.54" cy="268.07" r="3" fill="hsl(324, 80%, 65%)" />
<circle cx="199.89" cy="290.93" r="4" fill="hsl(333, 80%, 65%)" />
<circle cx="273.89" cy="191.93" r="5" fill="hsl(342, 80%, 65%)" />
<circle cx="286.27" cy="315.71" r="6" fill="hsl(351, 80%, 65%)" />
<circle cx="192.95" cy="232.27" r="2" fill="hsl(0, 80%, 65%)" />
<circle cx="318.91" cy="230.75" r="3" fill="hsl(9, 80%, 65%)" />
<circle cx="226.49" cy="317.49" r="4" fill="hsl(18, 80%, 65%)" />
<circle cx="236.10" cy="190.33" r="5" fill="hsl(27, 80%, 65%)" />
<circle cx="315.39" cy="291.19" r="6" fill="hsl(36, 80%, 65%)" />
<circle cx="188.04" cy="270.25" r="2" fill="hsl(45, 80%, 65%)" />
<circle cx="296.73" cy="199.26" r="3" fill="hsl(54, 80%, 65%)" />
<circle cx="264.35" cy="325.75" r="4" fill="hsl(63, 80%, 65%)" />
<circle cx="202.42" cy="209.94" r="5" fill="hsl(72, 80%, 65%)" />
<circle cx="327.02" cy="253.76" r="6" fill="hsl(81, 80%, 65%)" />
<circle cx="204.86" cy="305.91" r="2" fill="hsl(90, 80%, 65%)" />
<circle cx="260.02" cy="184.26" r="3" fill="hsl(99, 80%, 65%)" />
<circle cx="301.74" cy="311.92" r="4" fill="hsl(108, 80%, 65%)" />
<circle cx="184.11" cy="245.61" r="5" fill="hsl(117, 80%, 65%)" />
<circle cx="316.35" cy="214.88" r="6" fill="hsl(126, 80%, 65%)" />
<circle cx="239.19" cy="327.46" r="2" fill="hsl(135, 80%, 65%)" />
<circle cx="219.94" cy="191.62" r="3" fill="hsl(144, 80%, 65%)" />
<circle cx="326.45" cy="279.23" r="4" fill="hsl(153, 80%, 65%)" />
<circle cx="188.01" cy="286.61" r="5" fill="hsl(162, 80%, 65%)" />
<circle cx="285.60" cy="187.15" r="6" fill="hsl(171, 80%, 65%)" />
<circle cx="280.80" cy="327.12" r="2" fill="hsl(180, 80%, 65%)" />
<circle cx="189.34" cy="220.13" r="3" fill="hsl(189, 80%, 65%)" />
<circle cx="329.74" cy="237.33" r="4" fill="hsl(198, 80%, 65%)" />
<circle cx="214.03" cy="319.89" r="5" fill="hsl(207, 80%, 65%)" />
<circle cx="243.73" cy="180.18" r="6" fill="hsl(216, 80%, 65%)" />
<circle cx="316.55" cy="303.85" r="2" fill="hsl(225, 80%, 65%)" />
<circle cx="178.66" cy="261.65" r="3" fill="hsl(234, 80%, 65%)" />
<circle cx="309.46" cy="199.33" r="4" fill="hsl(243, 80%, 65%)" />
<circle cx="254.85" cy="334.26" r="5" fill="hsl(252, 80%, 65%)" />
<circle cx="203.74" cy="197.25" r="6" fill="hsl(261, 80%, 65%)" />
<circle cx="334.58" cy="264.06" r="2" fill="hsl(270, 80%, 65%)" />
<circle cx="192.33" cy="303.35" r="3" fill="hsl(279, 80%, 65%)" />
<circle cx="271.03" cy="177.72" r="4" fill="hsl(288, 80%, 65%)" />
<circle cx="297.98" cy="324.18" r="5" fill="hsl(297, 80%, 65%)" />
<circle cx="178.65" cy="233.99" r="6" fill="hsl(306, 80%, 65%)" />
<circle cx="328.22" cy="219.83" r="2" fill="hsl(315, 80%, 65%)" />
<circle cx="227.06" cy="331.78" r="3" fill="hsl(324, 80%, 65%)" />
<circle cx="226.02" cy="180.25" r="4" fill="hsl(333, 80%, 65%)" />
<circle cx="329.59" cy="291.76" r="5" fill="hsl(342, 80%, 65%)" />
<circle cx="177.25" cy="279.44" r="6" fill="hsl(351, 80%, 65%)" />
<circle cx="298.41" cy="185.23" r="2" fill="hsl(0, 80%, 65%)" />
<circle cx="272.60" cy="337.17" r="3" fill="hsl(9, 80%, 65%)" />
<circle cx="188.65" cy="207.16" r="4" fill="hsl(18, 80%, 65%)" />
<circle cx="338.99" cy="246.48" r="5" fill="hsl(27, 80%, 65%)" />
<circle cx="201.02" cy="319.33" r="6" fill="hsl(36, 80%, 65%)" />
<circle cx="253.75" cy="171.82" r="2" fill="hsl(45, 80%, 65%)" />
<circle cx="314.75" cy="316.79" r="3" fill="hsl(54, 80%, 65%)" />
<circle cx="171.28" cy="250.84" r="4" fill="hsl(63, 80%, 65%)" />
<circle cx="322.22" cy="202.37" r="5" fill="hsl(72, 80%, 65%)" />
<circle cx="243.35" cy="340.61" r="6" fill="hsl(81, 80%, 65%)" />
<circle cx="207.99" cy="184.80" r="2" fill="hsl(90, 80%, 65%)" />
<circle cx="339.82" cy="276.15" r="3" fill="hsl(99, 80%, 65%)" />
<circle cx="180.30" cy="297.92" r="4" fill="hsl(108, 80%, 65%)" />
<circle cx="283.61" cy="173.64" r="5" fill="hsl(117, 80%, 65%)" />
<circle cx="291.41" cy="335.67" r="6" fill="hsl(126, 80%, 65%)" />
<circle cx="175.78" cy="221.04" r="2" fill="hsl(135, 80%, 65%)" />
<circle cx="339.08" cy="227.48" r="3" fill="hsl(144, 80%, 65%)" />
<circle cx="213.85" cy="333.43" r="4" fill="hsl(153, 80%, 65%)" />
<circle cx="234.70" cy="170.12" r="5" fill="hsl(162, 80%, 65%)" />
<circle cx="329.98" cy="305.11" r="6" fill="hsl(171, 80%, 65%)" />
<circle cx="167.96" cy="269.81" r="2" fill="hsl(180, 80%, 65%)" />
<circle cx="311.79" cy="186.10" r="3" fill="hsl(189, 80%, 65%)" />
<circle cx="262.10" cy="345.54" r="4" fill="hsl(198, 80%, 65%)" />
<circle cx="190.79" cy="193.88" r="5" fill="hsl(207, 80%, 65%)" />
<circle cx="346.36" cy="257.76" r="6" fill="hsl(216, 80%, 65%)" />
<circle cx="187.94" cy="315.95" r="2" fill="hsl(225, 80%, 65%)" />
<circle cx="265.72" cy="165.51" r="3" fill="hsl(234, 80%, 65%)" />
<circle cx="310.14" cy="329.54" r="4" fill="hsl(243, 80%, 65%)" />
<circle cx="166.10" cy="238.28" r="5" fill="hsl(252, 80%, 65%)" />
<circle cx="334.52" cy="208.18" r="6" fill="hsl(261, 80%, 65%)" />
<circle cx="230.32" cy="344.60" r="2" fill="hsl(270, 80%, 65%)" />
<circle cx="214.95" cy="173.05" r="3" fill="hsl(279, 80%, 65%)" />
<circle cx="342.59" cy="289.55" r="4" fill="hsl(288, 80%, 65%)" />
<circle cx="169.21" cy="289.86" r="5" fill="hsl(297, 80%, 65%)" />
<circle cx="297.26" cy="172.13" r="6" fill="hsl(306, 80%, 65%)" />
<circle cx="282.31" cy="346.00" r="2" fill="hsl(315, 80%, 65%)" />
<circle cx="175.54" cy="207.25" r="3" fill="hsl(324, 80%, 65%)" />
<circle cx="348.55" cy="237.54" r="4" fill="hsl(333, 80%, 65%)" />
<circle cx="200.05" cy="332.37" r="5" fill="hsl(342, 80%, 65%)" />
<circle cx="245.64" cy="161.59" r="6" fill="hsl(351, 80%, 65%)" />
<circle cx="327.64" cy="318.81" r="2" fill="hsl(0, 80%, 65%)" />
<circle cx="160.45" cy="258.08" r="3" fill="hsl(9, 80%, 65%)" />
<circle cx="325.26" cy="189.72" r="4" fill="hsl(18, 80%, 65%)" />
<circle cx="249.68" cy="351.95" r="5" fill="hsl(27, 80%, 65%)" />
<circle cx="195.66" cy="180.75" r="6" fill="hsl(36, 80%, 65%)" />
<circle cx="351.61" cy="270.77" r="2" fill="hsl(45, 80%, 65%)" />
<circle cx="175.28" cy="309.86" r="3" fill="hsl(54, 80%, 65%)" />
<circle cx="279.21" cy="161.48" r="4" fill="hsl(63, 80%, 65%)" />
<circle cx="302.87" cy="341.63" r="5" fill="hsl(72, 80%, 65%)" />
<circle cx="163.32" cy="224.43" r="6" fill="hsl(81, 80%, 65%)" />
<circle cx="345.93" cy="216.56" r="2" fill="hsl(90, 80%, 65%)" />
<circle cx="216.21" cy="346.10" r="3" fill="hsl(99, 80%, 65%)" />
<circle cx="224.39" cy="162.42" r="4" fill="hsl(108, 80%, 65%)" />
<circle cx="342.78" cy="303.79" r="5" fill="hsl(117, 80%, 65%)" />
<circle cx="159.45" cy="279.44" r="6" fill="hsl(126, 80%, 65%)" />
<circle cx="311.51" cy="173.26" r="2" fill="hsl(135, 80%, 65%)" />
<circle cx="271.00" cy="354.79" r="3" fill="hsl(144, 80%, 65%)" />
<circle cx="177.99" cy="193.11" r="4" fill="hsl(153, 80%, 65%)" />
<circle cx="356.29" cy="249.66" r="5" fill="hsl(162, 80%, 65%)" />
<circle cx="186.14" cy="328.62" r="6" fill="hsl(171, 80%, 65%)" />
<circle cx="258.46" cy="154.98" r="2" fill="hsl(180, 80%, 65%)" />
<circle cx="322.61" cy="332.37" r="3" fill="hsl(189, 80%, 65%)" />
<circle cx="155.03" cy="244.65" r="4" fill="hsl(198, 80%, 65%)" />
<circle cx="338.35" cy="196.00" r="5" fill="hsl(207, 80%, 65%)" />
<circle cx="235.76" cy="356.14" r="6" fill="hsl(216, 80%, 65%)" />
<circle cx="203.14" cy="168.25" r="2" fill="hsl(225, 80%, 65%)" />
<circle cx="354.52" cy="285.08" r="3" fill="hsl(234, 80%, 65%)" />
<circle cx="163.47" cy="301.23" r="4" fill="hsl(243, 80%, 65%)" />
<circle cx="293.78" cy="159.89" r="5" fill="hsl(252, 80%, 65%)" />
<circle cx="293.16" cy="352.65" r="6" fill="hsl(261, 80%, 65%)" />
<circle cx="163.07" cy="209.72" r="2" fill="hsl(270, 80%, 65%)" />
<circle cx="356.05" cy="227.28" r="3" fill="hsl(279, 80%, 65%)" />
<circle cx="201.48" cy="344.99" r="4" fill="hsl(288, 80%, 65%)" />
<circle cx="236.03" cy="153.29" r="5" fill="hsl(297, 80%, 65%)" />
<circle cx="340.32" cy="318.41" r="6" fill="hsl(306, 80%, 65%)" />
<circle cx="151.40" cy="266.97" r="2" fill="hsl(315, 80%, 65%)" />
<circle cx="325.90" cy="177.05" r="3" fill="hsl(324, 80%, 65%)" />
<circle cx="257.79" cy="361.70" r="4" fill="hsl(333, 80%, 65%)" />
<circle cx="183.10" cy="179.08" r="5" fill="hsl(342, 80%, 65%)" />
<circle cx="361.98" cy="263.49" r="6" fill="hsl(351, 80%, 65%)" />
<circle cx="172.58" cy="322.23" r="2" fill="hsl(0, 80%, 65%)" />
<circle cx="272.82" cy="150.55" r="3" fill="hsl(9, 80%, 65%)" />
<circle cx="314.98" cy="345.34" r="4" fill="hsl(18, 80%, 65%)" />
<circle cx="151.91" cy="229.90" r="5" fill="hsl(27, 80%, 65%)" />
<circle cx="350.61" cy="204.81" r="6" fill="hsl(36, 80%, 65%)" />
<circle cx="220.73" cy="357.91" r="2" fill="hsl(45, 80%, 65%)" />
<circle cx="213.07" cy="156.79" r="3" fill="hsl(54, 80%, 65%)" />
<circle cx="354.91" cy="300.26" r="4" fill="hsl(63, 80%, 65%)" />
<circle cx="152.92" cy="290.26" r="5" fill="hsl(72, 80%, 65%)" />
<circle cx="308.99" cy="160.88" r="6" fill="hsl(81, 80%, 65%)" />
<circle cx="281.24" cy="362.19" r="2" fill="hsl(90, 80%, 65%)" />
<circle cx="165.45" cy="194.60" r="3" fill="hsl(99, 80%, 65%)" />
<circle cx="364.50" cy="240.07" r="4" fill="hsl(108, 80%, 65%)" />
<circle cx="186.59" cy="341.24" r="5" fill="hsl(117, 80%, 65%)" />
<circle cx="249.58" cy="146.01" r="6" fill="hsl(126, 80%, 65%)" />
<circle cx="335.22" cy="332.95" r="2" fill="hsl(135, 80%, 65%)" />
<circle cx="145.35" cy="252.76" r="3" fill="hsl(144, 80%, 65%)" />
<circle cx="339.97" cy="183.48" r="4" fill="hsl(153, 80%, 65%)" />
<circle cx="243.04" cy="366.45" r="5" fill="hsl(162, 80%, 65%)" />
<circle cx="190.80" cy="165.60" r="6" fill="hsl(171, 80%, 65%)" />
<circle cx="365.39" cy="278.67" r="2" fill="hsl(180, 80%, 65%)" />
<circle cx="159.81" cy="313.31" r="3" fill="hsl(189, 80%, 65%)" />
<circle cx="288.29" cy="148.52" r="4" fill="hsl(198, 80%, 65%)" />
<circle cx="304.90" cy="357.29" r="5" fill="hsl(207, 80%, 65%)" />
<circle cx="151.29" cy="214.25" r="6" fill="hsl(216, 80%, 65%)" />
<circle cx="361.65" cy="215.97" r="2" fill="hsl(225, 80%, 65%)" />
<circle cx="205.03" cy="357.11" r="3" fill="hsl(234, 80%, 65%)" />
<circle cx="225.22" cy="146.78" r="4" fill="hsl(243, 80%, 65%)" />
<circle cx="352.69" cy="315.88" r="5" fill="hsl(252, 80%, 65%)" />
<circle cx="144.01" cy="277.20" r="6" fill="hsl(261, 80%, 65%)" />
<circle cx="324.40" cy="164.52" r="2" fill="hsl(270, 80%, 65%)" />
<circle cx="267.38" cy="369.91" r="3" fill="hsl(279, 80%, 65%)" />
<circle cx="170.48" cy="179.53" r="4" fill="hsl(288, 80%, 65%)" />
<circle cx="370.96" cy="254.61" r="5" fill="hsl(297, 80%, 65%)" />
<circle cx="171.99" cy="334.85" r="6" fill="hsl(306, 80%, 65%)" />
<circle cx="264.71" cy="140.87" r="2" fill="hsl(315, 80%, 65%)" />
<circle cx="327.50" cy="346.97" r="3" fill="hsl(324, 80%, 65%)" />
<circle cx="141.59" cy="237.18" r="4" fill="hsl(333, 80%, 65%)" />
<circle cx="353.28" cy="192.46" r="5" fill="hsl(342, 80%, 65%)" />
<circle cx="227.13" cy="368.80" r="6" fill="hsl(351, 80%, 65%)" />
<circle cx="200.98" cy="153.11" r="2" fill="hsl(0, 80%, 65%)" />
<circle cx="366.31" cy="294.78" r="3" fill="hsl(9, 80%, 65%)" />
<circle cx="148.24" cy="302.01" r="4" fill="hsl(18, 80%, 65%)" />
<circle cx="304.48" cy="149.07" r="5" fill="hsl(27, 80%, 65%)" />
<circle cx="292.56" cy="367.83" r="6" fill="hsl(36, 80%, 65%)" />
<circle cx="153.29" cy="198.12" r="2" fill="hsl(45, 80%, 65%)" />
<circle cx="371.06" cy="229.25" r="3" fill="hsl(54, 80%, 65%)" />
<circle cx="189.09" cy="353.65" r="4" fill="hsl(63, 80%, 65%)" />
<circle cx="239.34" cy="138.56" r="5" fill="hsl(72, 80%, 65%)" />
<circle cx="347.80" cy="331.49" r="6" fill="hsl(81, 80%, 65%)" />
<circle cx="137.08" cy="262.36" r="2" fill="hsl(90, 80%, 65%)" />
<circle cx="339.56" cy="170.82" r="3" fill="hsl(99, 80%, 65%)" />
<circle cx="251.92" cy="375.49" r="4" fill="hsl(108, 80%, 65%)" />
<circle cx="178.14" cy="164.95" r="5" fill="hsl(117, 80%, 65%)" />
<circle cx="375.15" cy="270.57" r="6" fill="hsl(126, 80%, 65%)" />
<circle cx="158.11" cy="325.88" r="2" fill="hsl(135, 80%, 65%)" />
<circle cx="281.03" cy="138.12" r="3" fill="hsl(144, 80%, 65%)" />
<circle cx="317.29" cy="360.03" r="4" fill="hsl(153, 80%, 65%)" />
<circle cx="140.31" cy="220.62" r="5" fill="hsl(162, 80%, 65%)" />
<circle cx="365.42" cy="203.84" r="6" fill="hsl(171, 80%, 65%)" />
<circle cx="210.47" cy="368.59" r="2" fill="hsl(180, 80%, 65%)" />
<circle cx="213.44" cy="142.01" r="3" fill="hsl(189, 80%, 65%)" />
<circle cx="364.59" cy="311.41" r="4" fill="hsl(198, 80%, 65%)" />
<circle cx="138.27" cy="288.56" r="5" fill="hsl(207, 80%, 65%)" />
<circle cx="320.94" cy="152.27" r="6" fill="hsl(216, 80%, 65%)" />
<circle cx="278.22" cy="376.58" r="2" fill="hsl(225, 80%, 65%)" />
<circle cx="157.98" cy="181.96" r="3" fill="hsl(234, 80%, 65%)" />
<circle cx="378.52" cy="244.36" r="4" fill="hsl(243, 80%, 65%)" />
<circle cx="173.37" cy="347.51" r="5" fill="hsl(252, 80%, 65%)" />
<circle cx="255.11" cy="132.47" r="6" fill="hsl(261, 80%, 65%)" />
<circle cx="340.25" cy="346.65" r="2" fill="hsl(270, 80%, 65%)" />
<circle cx="132.41" cy="246.05" r="3" fill="hsl(279, 80%, 65%)" />
<circle cx="354.03" cy="179.71" r="4" fill="hsl(288, 80%, 65%)" />
<circle cx="235.20" cy="378.70" r="5" fill="hsl(297, 80%, 65%)" />
<circle cx="188.33" cy="151.29" r="6" fill="hsl(306, 80%, 65%)" />
<circle cx="376.85" cy="287.56" r="2" fill="hsl(315, 80%, 65%)" />
<circle cx="145.37" cy="314.47" r="3" fill="hsl(324, 80%, 65%)" />
<circle cx="298.15" cy="137.95" r="4" fill="hsl(333, 80%, 65%)" />
<circle cx="304.75" cy="371.73" r="5" fill="hsl(342, 80%, 65%)" />
<circle cx="141.67" cy="203.50" r="6" fill="hsl(351, 80%, 65%)" />
</svg>
