<svg xmlns="http://www.w3.org/2000/svg" width="512" height="512" viewBox="0 0 512 512">
<rect width="100%" height="100%" fill="#0b1020"/>
<circle cx="360" cy="138" r="42" fill="#f8f3c9" opacity="0.95" />
<circle cx="24.0" cy="29.0" r="1.7" fill="white" />
<circle cx="347.0" cy="58.0" r="1.5" fill="white" />
<circle cx="228.0" cy="94.0" r="2.6" fill="white" />
<circle cx="199.0" cy="98.0" r="2.9" fill="white" />
<circle cx="37.0" cy="56.0" r="3.5" fill="white" />
<circle cx="198.0" cy="128.0" r="2.4" fill="white" />
<path d="M 20 430 C 127 424, 176 443, 317 428 S 450 390, 512 420" stroke="#5dade2" stroke-width="8" fill="none" opacity="0.85" />
<line x1="0" y1="401" x2="512" y2="401" stroke="#445566" stroke-width="3" />
<polygon points="205,353 245,293 285,313 305,283 325,303 337,343 305,365 255,369" fill="#1e1e1e" />
<polygon points="280,293 293,271 303,295" fill="#1e1e1e" />
<line x1="335" y1="338" x2="365" y2="313" stroke="#1e1e1e" stroke-width="6" />
</svg>
