<svg xmlns="http://www.w3.org/2000/svg" width="512" height="512" viewBox="0 0 512 512">
<rect width="100%" height="100%" fill="black"/>
<circle cx="256.00" cy="256.00" r="2" fill="hsl(0, 80%, 65%)" />
<circle cx="250.84" cy="260.72" r="3" fill="hsl(6, 80%, 65%)" />
<circle cx="256.86" cy="246.15" r="4" fill="hsl(12, 80%, 65%)" />
<circle cx="263.37" cy="265.61" r="5" fill="hsl(18, 80%, 65%)" />
<circle cx="242.23" cy="253.56" r="6" fill="hsl(24, 80%, 65%)" />
<circle cx="269.19" cy="247.61" r="2" fill="hsl(30, 80%, 65%)" />
<circle cx="251.55" cy="272.54" r="3" fill="hsl(36, 80%, 65%)" />
<circle cx="247.47" cy="239.58" r="4" fill="hsl(42, 80%, 65%)" />
<circle cx="274.58" cy="262.79" r="5" fill="hsl(48, 80%, 65%)" />
<circle cx="236.61" cy="264.01" r="6" fill="hsl(54, 80%, 65%)" />
<circle cx="265.37" cy="235.97" r="2" fill="hsl(60, 80%, 65%)" />
<circle cx="262.94" cy="278.13" r="3" fill="hsl(66, 80%, 65%)" />
<circle cx="235.04" cy="243.85" r="4" fill="hsl(72, 80%, 65%)" />
<circle cx="280.63" cy="250.59" r="5" fill="hsl(78, 80%, 65%)" />
<circle cx="240.95" cy="277.41" r="6" fill="hsl(84, 80%, 65%)" />
<circle cx="252.52" cy="229.14" r="2" fill="hsl(90, 80%, 65%)" />
<circle cx="277.39" cy="274.03" r="3" fill="hsl(96, 80%, 65%)" />
<circle cx="227.19" cy="257.19" r="4" fill="hsl(102, 80%, 65%)" />
<circle cx="277.03" cy="235.07" r="5" fill="hsl(108, 80%, 65%)" />
<circle cx="254.59" cy="286.45" r="6" fill="hsl(114, 80%, 65%)" />
<circle cx="235.96" cy="231.99" r="2" fill="hsl(120, 80%, 65%)" />
<circle cx="287.76" cy="260.27" r="3" fill="hsl(126, 80%, 65%)" />
<circle cx="229.07" cy="274.73" r="4" fill="hsl(132, 80%, 65%)" />
<circle cx="263.36" cy="223.28" r="5" fill="hsl(138, 80%, 65%)" />
<circle cx="273.03" cy="285.73" r="6" fill="hsl(144, 80%, 65%)" />
<circle cx="222.69" cy="245.37" r="2" fill="hsl(150, 80%, 65%)" />
<circle cx="288.37" cy="241.04" r="3" fill="hsl(156, 80%, 65%)" />
<circle cx="241.97" cy="289.52" r="4" fill="hsl(162, 80%, 65%)" />
<circle cx="243.48" cy="221.18" r="5" fill="hsl(168, 80%, 65%)" />
<circle cx="289.34" cy="273.52" r="6" fill="hsl(174, 80%, 65%)" />
<circle cx="218.96" cy="265.76" r="2" fill="hsl(180, 80%, 65%)" />
<circle cx="277.06" cy="223.25" r="3" fill="hsl(186, 80%, 65%)" />
<circle cx="262.70" cy="294.99" r="4" fill="hsl(192, 80%, 65%)" />
<circle cx="224.24" cy="231.40" r="5" fill="hsl(198, 80%, 65%)" />
<circle cx="296.64" cy="252.63" r="6" fill="hsl(204, 80%, 65%)" />
<circle cx="227.90" cy="286.37" r="2" fill="hsl(210, 80%, 65%)" />
<circle cx="256.20" cy="214.04" r="3" fill="hsl(216, 80%, 65%)" />
<circle cx="284.58" cy="287.51" r="4" fill="hsl(222, 80%, 65%)" />
<circle cx="213.07" cy="252.02" r="5" fill="hsl(228, 80%, 65%)" />
<circle cx="290.79" cy="229.60" r="6" fill="hsl(234, 80%, 65%)" />
<circle cx="248.08" cy="299.52" r="2" fill="hsl(240, 80%, 65%)" />
<circle cx="232.15" cy="218.10" r="3" fill="hsl(246, 80%, 65%)" />
<circle cx="299.71" cy="267.98" r="4" fill="hsl(252, 80%, 65%)" />
<circle cx="215.20" cy="276.94" r="5" fill="hsl(258, 80%, 65%)" />
<circle cx="272.13" cy="212.50" r="6" fill="hsl(264, 80%, 65%)" />
<circle cx="273.69" cy="299.45" r="2" fill="hsl(270, 80%, 65%)" />
<circle cx="213.14" cy="235.69" r="3" fill="hsl(276, 80%, 65%)" />
<circle cx="301.82" cy="241.87" r="4" fill="hsl(282, 80%, 65%)" />
<circle cx="231.50" cy="297.80" r="5" fill="hsl(288, 80%, 65%)" />
<circle cx="245.72" cy="208.14" r="6" fill="hsl(294, 80%, 65%)" />
<circle cx="296.31" cy="284.64" r="2" fill="hsl(300, 80%, 65%)" />
<circle cx="206.44" cy="262.18" r="3" fill="hsl(306, 80%, 65%)" />
<circle cx="288.69" cy="217.60" r="4" fill="hsl(312, 80%, 65%)" />
<circle cx="257.86" cy="306.88" r="5" fill="hsl(318, 80%, 65%)" />
<circle cx="219.93" cy="219.40" r="6" fill="hsl(324, 80%, 65%)" />
<circle cx="307.80" cy="258.65" r="2" fill="hsl(330, 80%, 65%)" />
<circle cx="215.66" cy="289.33" r="3" fill="hsl(336, 80%, 65%)" />
<circle cx="263.30" cy="203.71" r="4" fill="hsl(342, 80%, 65%)" />
<circle cx="286.21" cy="299.87" r="5" fill="hsl(348, 80%, 65%)" />
<circle cx="203.65" cy="243.95" r="6" fill="hsl(354, 80%, 65%)" />
<circle cx="303.13" cy="229.30" r="2" fill="hsl(0, 80%, 65%)" />
<circle cx="239.15" cy="307.96" r="3" fill="hsl(6, 80%, 65%)" />
<circle cx="233.15" cy="205.90" r="4" fill="hsl(12, 80%, 65%)" />
<circle cx="307.10" cy="277.68" r="5" fill="hsl(18, 80%, 65%)" />
<circle cx="203.26" cy="274.68" r="6" fill="hsl(24, 80%, 65%)" />
<circle cx="282.47" cy="206.22" r="2" fill="hsl(30, 80%, 65%)" />
<circle cx="270.21" cy="311.01" r="3" fill="hsl(36, 80%, 65%)" />
<circle cx="208.00" cy="224.81" r="4" fill="hsl(42, 80%, 65%)" />
<circle cx="312.88" cy="246.51" r="5" fill="hsl(48, 80%, 65%)" />
<circle cx="220.21" cy="301.75" r="6" fill="hsl(54, 80%, 65%)" />
<circle cx="251.45" cy="197.67" r="2" fill="hsl(60, 80%, 65%)" />
<circle cx="299.06" cy="296.23" r="3" fill="hsl(66, 80%, 65%)" />
<circle cx="196.66" cy="255.42" r="4" fill="hsl(72, 80%, 65%)" />
<circle cx="300.45" cy="216.07" r="5" fill="hsl(78, 80%, 65%)" />
<circle cx="250.16" cy="315.88" r="6" fill="hsl(84, 80%, 65%)" />
<circle cx="219.62" cy="207.58" r="2" fill="hsl(90, 80%, 65%)" />
<circle cx="315.93" cy="267.20" r="3" fill="hsl(96, 80%, 65%)" />
<circle cx="203.90" cy="288.43" r="4" fill="hsl(102, 80%, 65%)" />
<circle cx="272.62" cy="196.51" r="5" fill="hsl(108, 80%, 65%)" />
<circle cx="284.11" cy="311.44" r="6" fill="hsl(114, 80%, 65%)" />
<circle cx="197.46" cy="233.97" r="2" fill="hsl(120, 80%, 65%)" />
<circle cx="314.41" cy="232.55" r="3" fill="hsl(126, 80%, 65%)" />
<circle cx="228.60" cy="313.09" r="4" fill="hsl(132, 80%, 65%)" />
<circle cx="237.53" cy="195.02" r="5" fill="hsl(138, 80%, 65%)" />
<circle cx="311.14" cy="288.68" r="6" fill="hsl(144, 80%, 65%)" />
<circle cx="192.90" cy="269.23" r="2" fill="hsl(150, 80%, 65%)" />
<circle cx="293.82" cy="203.31" r="3" fill="hsl(156, 80%, 65%)" />
<circle cx="263.75" cy="320.77" r="4" fill="hsl(162, 80%, 65%)" />
<circle cx="206.25" cy="213.23" r="5" fill="hsl(168, 80%, 65%)" />
<circle cx="321.94" cy="253.92" r="6" fill="hsl(174, 80%, 65%)" />
<circle cx="208.52" cy="302.34" r="2" fill="hsl(180, 80%, 65%)" />
<circle cx="259.73" cy="189.39" r="3" fill="hsl(186, 80%, 65%)" />
<circle cx="298.47" cy="307.92" r="4" fill="hsl(192, 80%, 65%)" />
<circle cx="189.25" cy="246.36" r="5" fill="hsl(198, 80%, 65%)" />
<circle cx="312.03" cy="217.82" r="6" fill="hsl(204, 80%, 65%)" />
<circle cx="240.39" cy="322.35" r="2" fill="hsl(210, 80%, 65%)" />
<circle cx="222.51" cy="196.22" r="3" fill="hsl(216, 80%, 65%)" />
<circle cx="321.41" cy="277.57" r="4" fill="hsl(222, 80%, 65%)" />
<circle cx="192.87" cy="284.42" r="5" fill="hsl(228, 80%, 65%)" />
<circle cx="283.49" cy="192.08" r="6" fill="hsl(234, 80%, 65%)" />
<circle cx="279.03" cy="322.04" r="2" fill="hsl(240, 80%, 65%)" />
<circle cx="194.11" cy="222.70" r="3" fill="hsl(246, 80%, 65%)" />
<circle cx="324.47" cy="238.66" r="4" fill="hsl(252, 80%, 65%)" />
<circle cx="217.03" cy="315.32" r="5" fill="hsl(258, 80%, 65%)" />
<circle cx="244.61" cy="185.60" r="6" fill="hsl(264, 80%, 65%)" />
<circle cx="312.23" cy="300.43" r="2" fill="hsl(270, 80%, 65%)" />
<circle cx="184.19" cy="261.24" r="3" fill="hsl(276, 80%, 65%)" />
<circle cx="305.64" cy="203.38" r="4" fill="hsl(282, 80%, 65%)" />
<circle cx="254.94" cy="328.67" r="5" fill="hsl(288, 80%, 65%)" />
<circle cx="207.47" cy="201.45" r="6" fill="hsl(294, 80%, 65%)" />
<circle cx="328.97" cy="263.48" r="2" fill="hsl(300, 80%, 65%)" />
<circle cx="196.88" cy="299.97" r="3" fill="hsl(306, 80%, 65%)" />
<circle cx="269.96" cy="183.32" r="4" fill="hsl(312, 80%, 65%)" />
<circle cx="294.98" cy="319.30" r="5" fill="hsl(318, 80%, 65%)" />
<circle cx="184.18" cy="235.56" r="6" fill="hsl(324, 80%, 65%)" />
<circle cx="323.05" cy="222.41" r="2" fill="hsl(330, 80%, 65%)" />
<circle cx="229.13" cy="326.37" r="3" fill="hsl(336, 80%, 65%)" />
<circle cx="228.16" cy="185.66" r="4" fill="hsl(342, 80%, 65%)" />
<circle cx="324.33" cy="289.20" r="5" fill="hsl(348, 80%, 65%)" />
<circle cx="182.88" cy="277.76" r="6" fill="hsl(354, 80%, 65%)" />
<circle cx="295.38" cy="190.29" r="2" fill="hsl(0, 80%, 65%)" />
<circle cx="271.42" cy="331.37" r="3" fill="hsl(6, 80%, 65%)" />
<circle cx="193.47" cy="210.65" r="4" fill="hsl(12, 80%, 65%)" />
<circle cx="333.06" cy="247.16" r="5" fill="hsl(18, 80%, 65%)" />
<circle cx="204.95" cy="314.81" r="6" fill="hsl(24, 80%, 65%)" />
<circle cx="253.91" cy="177.84" r="2" fill="hsl(30, 80%, 65%)" />
<circle cx="310.55" cy="312.45" r="3" fill="hsl(36, 80%, 65%)" />
<circle cx="177.33" cy="251.21" r="4" fill="hsl(42, 80%, 65%)" />
<circle cx="317.48" cy="206.20" r="5" fill="hsl(48, 80%, 65%)" />
<circle cx="244.26" cy="334.56" r="6" fill="hsl(54, 80%, 65%)" />
<circle cx="211.42" cy="189.89" r="2" fill="hsl(60, 80%, 65%)" />
<circle cx="333.83" cy="274.71" r="3" fill="hsl(66, 80%, 65%)" />
<circle cx="185.71" cy="294.92" r="4" fill="hsl(72, 80%, 65%)" />
<circle cx="281.63" cy="179.53" r="5" fill="hsl(78, 80%, 65%)" />
<circle cx="288.88" cy="329.98" r="6" fill="hsl(84, 80%, 65%)" />
<circle cx="181.51" cy="223.54" r="2" fill="hsl(90, 80%, 65%)" />
<circle cx="333.14" cy="229.52" r="3" fill="hsl(96, 80%, 65%)" />
<circle cx="216.86" cy="327.89" r="4" fill="hsl(102, 80%, 65%)" />
<circle cx="236.22" cy="176.26" r="5" fill="hsl(108, 80%, 65%)" />
<circle cx="324.69" cy="301.60" r="6" fill="hsl(114, 80%, 65%)" />
<circle cx="174.25" cy="268.82" r="2" fill="hsl(120, 80%, 65%)" />
<circle cx="307.80" cy="191.10" r="3" fill="hsl(126, 80%, 65%)" />
<circle cx="261.66" cy="339.14" r="4" fill="hsl(132, 80%, 65%)" />
<circle cx="195.45" cy="198.32" r="5" fill="hsl(138, 80%, 65%)" />
<circle cx="339.91" cy="257.64" r="6" fill="hsl(144, 80%, 65%)" />
<circle cx="192.81" cy="311.66" r="2" fill="hsl(150, 80%, 65%)" />
<circle cx="265.03" cy="171.98" r="3" fill="hsl(156, 80%, 65%)" />
<circle cx="306.27" cy="324.28" r="4" fill="hsl(162, 80%, 65%)" />
<circle cx="172.53" cy="239.55" r="5" fill="hsl(168, 80%, 65%)" />
<circle cx="328.91" cy="211.60" r="6" fill="hsl(174, 80%, 65%)" />
<circle cx="232.15" cy="338.27" r="2" fill="hsl(180, 80%, 65%)" />
<circle cx="217.89" cy="178.98" r="3" fill="hsl(186, 80%, 65%)" />
<circle cx="336.40" cy="287.15" r="4" fill="hsl(192, 80%, 65%)" />
<circle cx="175.41" cy="287.44" r="5" fill="hsl(198, 80%, 65%)" />
<circle cx="294.31" cy="178.13" r="6" fill="hsl(204, 80%, 65%)" />
<circle cx="280.43" cy="339.57" r="2" fill="hsl(210, 80%, 65%)" />
<circle cx="181.29" cy="210.74" r="3" fill="hsl(216, 80%, 65%)" />
<circle cx="341.93" cy="238.86" r="4" fill="hsl(222, 80%, 65%)" />
<circle cx="204.05" cy="326.91" r="5" fill="hsl(228, 80%, 65%)" />
<circle cx="246.38" cy="168.34" r="6" fill="hsl(234, 80%, 65%)" />
<circle cx="322.52" cy="314.32" r="2" fill="hsl(240, 80%, 65%)" />
<circle cx="167.28" cy="257.94" r="3" fill="hsl(246, 80%, 65%)" />
<circle cx="320.31" cy="194.46" r="4" fill="hsl(252, 80%, 65%)" />
<circle cx="250.14" cy="345.09" r="5" fill="hsl(258, 80%, 65%)" />
<circle cx="199.97" cy="186.13" r="6" fill="hsl(264, 80%, 65%)" />
<circle cx="344.78" cy="269.71" r="2" fill="hsl(270, 80%, 65%)" />
<circle cx="181.05" cy="306.01" r="3" fill="hsl(276, 80%, 65%)" />
<circle cx="277.55" cy="168.23" r="4" fill="hsl(282, 80%, 65%)" />
<circle cx="299.52" cy="335.51" r="5" fill="hsl(288, 80%, 65%)" />
<circle cx="169.94" cy="226.68" r="6" fill="hsl(294, 80%, 65%)" />
<circle cx="339.51" cy="219.38" r="2" fill="hsl(300, 80%, 65%)" />
<circle cx="219.05" cy="339.66" r="3" fill="hsl(306, 80%, 65%)" />
<circle cx="226.65" cy="169.11" r="4" fill="hsl(312, 80%, 65%)" />
<circle cx="336.57" cy="300.37" r="5" fill="hsl(318, 80%, 65%)" />
<circle cx="166.36" cy="277.77" r="6" fill="hsl(324, 80%, 65%)" />
<circle cx="307.54" cy="179.17" r="2" fill="hsl(330, 80%, 65%)" />
<circle cx="269.93" cy="347.73" r="3" fill="hsl(336, 80%, 65%)" />
<circle cx="183.56" cy="197.61" r="4" fill="hsl(342, 80%, 65%)" />
<circle cx="349.12" cy="250.11" r="5" fill="hsl(348, 80%, 65%)" />
<circle cx="191.13" cy="323.43" r="6" fill="hsl(354, 80%, 65%)" />
<circle cx="258.29" cy="162.20" r="2" fill="hsl(0, 80%, 65%)" />
<circle cx="317.84" cy="326.91" r="3" fill="hsl(6, 80%, 65%)" />
<circle cx="162.24" cy="245.46" r="4" fill="hsl(12, 80%, 65%)" />
<circle cx="332.46" cy="200.29" r="5" fill="hsl(18, 80%, 65%)" />
<circle cx="237.20" cy="348.98" r="6" fill="hsl(24, 80%, 65%)" />
<circle cx="206.92" cy="174.52" r="2" fill="hsl(30, 80%, 65%)" />
<circle cx="347.48" cy="283.00" r="3" fill="hsl(36, 80%, 65%)" />
<circle cx="170.08" cy="298.00" r="4" fill="hsl(42, 80%, 65%)" />
<circle cx="291.08" cy="166.76" r="5" fill="hsl(48, 80%, 65%)" />
<circle cx="290.51" cy="345.74" r="6" fill="hsl(54, 80%, 65%)" />
<circle cx="169.71" cy="213.02" r="2" fill="hsl(60, 80%, 65%)" />
<circle cx="348.90" cy="229.33" r="3" fill="hsl(66, 80%, 65%)" />
<circle cx="205.38" cy="338.63" r="4" fill="hsl(72, 80%, 65%)" />
<circle cx="237.46" cy="160.63" r="5" fill="hsl(78, 80%, 65%)" />
<circle cx="334.30" cy="313.95" r="6" fill="hsl(84, 80%, 65%)" />
<circle cx="158.87" cy="266.18" r="2" fill="hsl(90, 80%, 65%)" />
<circle cx="320.90" cy="182.70" r="3" fill="hsl(96, 80%, 65%)" />
<circle cx="257.66" cy="354.14" r="4" fill="hsl(102, 80%, 65%)" />
<circle cx="188.31" cy="184.57" r="5" fill="hsl(108, 80%, 65%)" />
<circle cx="354.41" cy="262.96" r="6" fill="hsl(114, 80%, 65%)" />
<circle cx="178.54" cy="317.50" r="2" fill="hsl(120, 80%, 65%)" />
<circle cx="271.61" cy="158.09" r="3" fill="hsl(126, 80%, 65%)" />
<circle cx="310.76" cy="338.95" r="4" fill="hsl(132, 80%, 65%)" />
<circle cx="159.35" cy="231.77" r="5" fill="hsl(138, 80%, 65%)" />
<circle cx="343.85" cy="208.47" r="6" fill="hsl(144, 80%, 65%)" />
<circle cx="223.25" cy="350.62" r="2" fill="hsl(150, 80%, 65%)" />
<circle cx="216.14" cy="163.88" r="3" fill="hsl(156, 80%, 65%)" />
<circle cx="347.84" cy="297.10" r="4" fill="hsl(162, 80%, 65%)" />
<circle cx="160.29" cy="287.81" r="5" fill="hsl(168, 80%, 65%)" />
<circle cx="305.21" cy="167.68" r="6" fill="hsl(174, 80%, 65%)" />
<circle cx="279.43" cy="354.60" r="2" fill="hsl(180, 80%, 65%)" />
<circle cx="171.92" cy="198.99" r="3" fill="hsl(186, 80%, 65%)" />
<circle cx="356.75" cy="241.21" r="4" fill="hsl(192, 80%, 65%)" />
<circle cx="191.56" cy="335.15" r="5" fill="hsl(198, 80%, 65%)" />
<circle cx="250.04" cy="153.87" r="6" fill="hsl(204, 80%, 65%)" />
<circle cx="329.55" cy="327.45" r="2" fill="hsl(210, 80%, 65%)" />
<circle cx="153.26" cy="252.99" r="3" fill="hsl(216, 80%, 65%)" />
<circle cx="333.97" cy="188.66" r="4" fill="hsl(222, 80%, 65%)" />
<circle cx="243.97" cy="358.55" r="5" fill="hsl(228, 80%, 65%)" />
<circle cx="195.46" cy="172.06" r="6" fill="hsl(234, 80%, 65%)" />
<circle cx="357.57" cy="277.05" r="2" fill="hsl(240, 80%, 65%)" />
<circle cx="166.68" cy="309.21" r="3" fill="hsl(246, 80%, 65%)" />
<circle cx="285.98" cy="156.21" r="4" fill="hsl(252, 80%, 65%)" />
<circle cx="301.40" cy="350.05" r="5" fill="hsl(258, 80%, 65%)" />
<circle cx="158.78" cy="217.23" r="6" fill="hsl(264, 80%, 65%)" />
<circle cx="354.10" cy="218.83" r="2" fill="hsl(270, 80%, 65%)" />
<circle cx="208.67" cy="349.88" r="3" fill="hsl(276, 80%, 65%)" />
<circle cx="227.42" cy="154.58" r="4" fill="hsl(282, 80%, 65%)" />
<circle cx="345.78" cy="311.60" r="5" fill="hsl(288, 80%, 65%)" />
<circle cx="152.02" cy="275.69" r="6" fill="hsl(294, 80%, 65%)" />
<circle cx="319.51" cy="171.06" r="2" fill="hsl(300, 80%, 65%)" />
<circle cx="266.57" cy="361.76" r="3" fill="hsl(306, 80%, 65%)" />
<circle cx="176.59" cy="185.00" r="4" fill="hsl(312, 80%, 65%)" />
<circle cx="362.74" cy="254.71" r="5" fill="hsl(318, 80%, 65%)" />
<circle cx="177.99" cy="329.21" r="6" fill="hsl(324, 80%, 65%)" />
<circle cx="264.08" cy="149.10" r="2" fill="hsl(330, 80%, 65%)" />
<circle cx="322.39" cy="340.47" r="3" fill="hsl(336, 80%, 65%)" />
<circle cx="149.76" cy="238.53" r="4" fill="hsl(342, 80%, 65%)" />
<circle cx="346.33" cy="197.00" r="5" fill="hsl(348, 80%, 65%)" />
<circle cx="229.19" cy="360.74" r="6" fill="hsl(354, 80%, 65%)" />
<circle cx="204.91" cy="160.46" r="2" fill="hsl(0, 80%, 65%)" />
<circle cx="358.42" cy="292.01" r="3" fill="hsl(6, 80%, 65%)" />
<circle cx="155.95" cy="298.72" r="4" fill="hsl(12, 80%, 65%)" />
<circle cx="301.01" cy="156.71" r="5" fill="hsl(18, 80%, 65%)" />
<circle cx="289.95" cy="359.83" r="6" fill="hsl(24, 80%, 65%)" />
<circle cx="160.63" cy="202.26" r="2" fill="hsl(30, 80%, 65%)" />
<circle cx="362.84" cy="231.16" r="3" fill="hsl(36, 80%, 65%)" />
<circle cx="193.88" cy="346.67" r="4" fill="hsl(42, 80%, 65%)" />
<circle cx="240.53" cy="146.96" r="5" fill="hsl(48, 80%, 65%)" />
<circle cx="341.23" cy="326.10" r="6" fill="hsl(54, 80%, 65%)" />
<circle cx="145.58" cy="261.90" r="2" fill="hsl(60, 80%, 65%)" />
<circle cx="333.59" cy="176.90" r="3" fill="hsl(66, 80%, 65%)" />
<circle cx="252.21" cy="366.95" r="4" fill="hsl(72, 80%, 65%)" />
<circle cx="183.70" cy="171.46" r="5" fill="hsl(78, 80%, 65%)" />
<circle cx="366.63" cy="269.53" r="6" fill="hsl(84, 80%, 65%)" />
<circle cx="165.11" cy="320.88" r="2" fill="hsl(90, 80%, 65%)" />
<circle cx="279.24" cy="146.54" r="3" fill="hsl(96, 80%, 65%)" />
<circle cx="312.91" cy="352.60" r="4" fill="hsl(102, 80%, 65%)" />
<circle cx="148.58" cy="223.15" r="5" fill="hsl(108, 80%, 65%)" />
<circle cx="357.59" cy="207.57" r="6" fill="hsl(114, 80%, 65%)" />
<circle cx="213.72" cy="360.54" r="2" fill="hsl(120, 80%, 65%)" />
<circle cx="216.48" cy="150.15" r="3" fill="hsl(126, 80%, 65%)" />
<circle cx="356.83" cy="307.45" r="4" fill="hsl(132, 80%, 65%)" />
<circle cx="146.69" cy="286.23" r="5" fill="hsl(138, 80%, 65%)" />
<circle cx="316.30" cy="159.69" r="6" fill="hsl(144, 80%, 65%)" />
<circle cx="276.63" cy="367.96" r="2" fill="hsl(150, 80%, 65%)" />
<circle cx="164.99" cy="187.25" r="3" fill="hsl(156, 80%, 65%)" />
<circle cx="369.76" cy="245.19" r="4" fill="hsl(162, 80%, 65%)" />
<circle cx="179.27" cy="340.97" r="5" fill="hsl(168, 80%, 65%)" />
<circle cx="255.18" cy="141.30" r="6" fill="hsl(174, 80%, 65%)" />
<circle cx="334.23" cy="340.17" r="2" fill="hsl(180, 80%, 65%)" />
<circle cx="141.24" cy="246.76" r="3" fill="hsl(186, 80%, 65%)" />
<circle cx="347.03" cy="185.17" r="4" fill="hsl(192, 80%, 65%)" />
<circle cx="236.69" cy="369.93" r="5" fill="hsl(198, 80%, 65%)" />
<circle cx="193.17" cy="158.77" r="6" fill="hsl(204, 80%, 65%)" />
<circle cx="368.21" cy="285.30" r="2" fill="hsl(210, 80%, 65%)" />
<circle cx="153.28" cy="310.29" r="3" fill="hsl(216, 80%, 65%)" />
<circle cx="295.14" cy="146.38" r="4" fill="hsl(222, 80%, 65%)" />
<circle cx="301.26" cy="363.46" r="5" fill="hsl(228, 80%, 65%)" />
<circle cx="149.84" cy="207.25" r="6" fill="hsl(234, 80%, 65%)" />
<circle cx="367.40" cy="220.18" r="2" fill="hsl(240, 80%, 65%)" />
<circle cx="197.95" cy="357.85" r="3" fill="hsl(246, 80%, 65%)" />
<circle cx="229.96" cy="141.48" r="4" fill="hsl(252, 80%, 65%)" />
<circle cx="352.73" cy="322.97" r="5" fill="hsl(258, 80%, 65%)" />
<circle cx="139.23" cy="271.98" r="6" fill="hsl(264, 80%, 65%)" />
<circle cx="331.44" cy="165.18" r="2" fill="hsl(270, 80%, 65%)" />
<circle cx="261.74" cy="374.13" r="3" fill="hsl(276, 80%, 65%)" />
<circle cx="171.83" cy="172.62" r="4" fill="hsl(282, 80%, 65%)" />
<circle cx="374.59" cy="260.63" r="5" fill="hsl(288, 80%, 65%)" />
</svg>
