<svg xmlns="http://www.w3.org/2000/svg" width="512" height="512" viewBox="0 0 512 512">
<rect width="100%" height="100%" fill="#0b1020"/>
<circle cx="364" cy="65" r="40" fill="#f8f3c9" opacity="0.95" />
<circle cx="341.0" cy="87.0" r="2.1" fill="white" />
<circle cx="243.0" cy="95.0" r="3.3" fill="white" />
<circle cx="50.0" cy="113.0" r="2.3" fill="white" />
<circle cx="31.0" cy="77.0" r="2.3" fill="white" />
<circle cx="359.0" cy="108.0" r="2.6" fill="white" />
<circle cx="418.0" cy="107.0" r="2.3" fill="white" />
<circle cx="460.0" cy="63.0" r="2.7" fill="white" />
<circle cx="235.0" cy="51.0" r="1.7" fill="white" />
<circle cx="171.0" cy="20.0" r="2.1" fill="white" />
<circle cx="235.0" cy="175.0" r="1.7" fill="white" />
<circle cx="322.0" cy="112.0" r="2.5" fill="white" />
<path d="M 20 430 C 114 417, 192 455, 320 428 S 450 405, 512 435" stroke="#5dade2" stroke-width="7" fill="none" opacity="0.85" />
<line x1="0" y1="394" x2="512" y2="394" stroke="#445566" stroke-width="4" />
<polygon points="212,357 252,297 292,317 312,287 332,307 344,347 312,369 262,373" fill="#1e1e1e" />
<polygon points="287,297 300,275 310,299" fill="#1e1e1e" />
<line x1="342" y1="342" x2="372" y2="317" stroke="#1e1e1e" stroke-width="6" />
</svg>
