<svg xmlns="http://www.w3.org/2000/svg" width="512" height="512" viewBox="0 0 512 512">
<rect width="100%" height="100%" fill="#0b1020"/>
<circle cx="355" cy="134" r="40" fill="#f8f3c9" opacity="0.95" />
<circle cx="379.0" cy="106.0" r="2.9" fill="white" />
<circle cx="122.0" cy="70.0" r="2.1" fill="white" />
<circle cx="406.0" cy="47.0" r="2.7" fill="white" />
<circle cx="179.0" cy="22.0" r="2.7" fill="white" />
<circle cx="172.0" cy="124.0" r="2.2" fill="white" />
<circle cx="99.0" cy="29.0" r="2.1" fill="white" />
<circle cx="182.0" cy="117.0" r="2.9" fill="white" />
<circle cx="128.0" cy="102.0" r="2.9" fill="white" />
<circle cx="278.0" cy="165.0" r="3.4" fill="white" />
<circle cx="330.0" cy="64.0" r="3.2" fill="white" />
<circle cx="309.0" cy="175.0" r="3.2" fill="white" />
<path d="M 20 430 C 118 430, 196 451, 283 430 S 450 390, 512 420" stroke="#5dade2" stroke-width="8" fill="none" opacity="0.85" />
<line x1="0" y1="414" x2="512" y2="414" stroke="#445566" stroke-width="3" />
<polygon points="198,355 238,295 278,315 298,285 318,305 330,345 298,367 248,371" fill="#1e1e1e" />
<polygon points="273,295 286,273 296,297" fill="#1e1e1e" />
<line x1="328" y1="340" x2="358" y2="315" stroke="#1e1e1e" stroke-width="6" />
</svg>
