<svg xmlns="http://www.w3.org/2000/svg" width="512" height="512" viewBox="0 0 512 512">
<rect width="100%" height="100%" fill="black"/>
<circle cx="256.00" cy="256.00" r="2" fill="hsl(0, 80%, 65%)" />
<circle cx="250.83" cy="260.73" r="3" fill="hsl(6, 80%, 65%)" />
<circle cx="256.87" cy="246.13" r="4" fill="hsl(12, 80%, 65%)" />
<circle cx="263.38" cy="265.63" r="5" fill="hsl(18, 80%, 65%)" />
<circle cx="242.20" cy="253.56" r="6" fill="hsl(24, 80%, 65%)" />
<circle cx="269.22" cy="247.59" r="2" fill="hsl(30, 80%, 65%)" />
<circle cx="251.54" cy="272.57" r="3" fill="hsl(36, 80%, 65%)" />
<circle cx="247.46" cy="239.55" r="4" fill="hsl(42, 80%, 65%)" />
<circle cx="274.62" cy="262.80" r="5" fill="hsl(48, 80%, 65%)" />
<circle cx="236.57" cy="264.02" r="6" fill="hsl(54, 80%, 65%)" />
<circle cx="265.39" cy="235.93" r="2" fill="hsl(60, 80%, 65%)" />
<circle cx="262.96" cy="278.17" r="3" fill="hsl(66, 80%, 65%)" />
<circle cx="235.00" cy="243.83" r="4" fill="hsl(72, 80%, 65%)" />
<circle cx="280.67" cy="250.58" r="5" fill="hsl(78, 80%, 65%)" />
<circle cx="240.92" cy="277.45" r="6" fill="hsl(84, 80%, 65%)" />
<circle cx="252.51" cy="229.09" r="2" fill="hsl(90, 80%, 65%)" />
<circle cx="277.43" cy="274.06" r="3" fill="hsl(96, 80%, 65%)" />
<circle cx="227.13" cy="257.19" r="4" fill="hsl(102, 80%, 65%)" />
<circle cx="277.07" cy="235.03" r="5" fill="hsl(108, 80%, 65%)" />
<circle cx="254.59" cy="286.51" r="6" fill="hsl(114, 80%, 65%)" />
<circle cx="235.92" cy="231.94" r="2" fill="hsl(120, 80%, 65%)" />
<circle cx="287.82" cy="260.28" r="3" fill="hsl(126, 80%, 65%)" />
<circle cx="229.02" cy="274.77" r="4" fill="hsl(132, 80%, 65%)" />
<circle cx="263.38" cy="223.22" r="5" fill="hsl(138, 80%, 65%)" />
<circle cx="273.07" cy="285.78" r="6" fill="hsl(144, 80%, 65%)" />
<circle cx="222.62" cy="245.35" r="2" fill="hsl(150, 80%, 65%)" />
<circle cx="288.43" cy="241.01" r="3" fill="hsl(156, 80%, 65%)" />
<circle cx="241.94" cy="289.59" r="4" fill="hsl(162, 80%, 65%)" />
<circle cx="243.45" cy="221.11" r="5" fill="hsl(168, 80%, 65%)" />
<circle cx="289.40" cy="273.55" r="6" fill="hsl(174, 80%, 65%)" />
<circle cx="218.89" cy="265.78" r="2" fill="hsl(180, 80%, 65%)" />
<circle cx="277.10" cy="223.19" r="3" fill="hsl(186, 80%, 65%)" />
<circle cx="262.71" cy="295.06" r="4" fill="hsl(192, 80%, 65%)" />
<circle cx="224.18" cy="231.35" r="5" fill="hsl(198, 80%, 65%)" />
<circle cx="296.72" cy="252.63" r="6" fill="hsl(204, 80%, 65%)" />
<circle cx="227.85" cy="286.43" r="2" fill="hsl(210, 80%, 65%)" />
<circle cx="256.21" cy="213.96" r="3" fill="hsl(216, 80%, 65%)" />
<circle cx="284.64" cy="287.57" r="4" fill="hsl(222, 80%, 65%)" />
<circle cx="212.99" cy="252.01" r="5" fill="hsl(228, 80%, 65%)" />
<circle cx="290.86" cy="229.55" r="6" fill="hsl(234, 80%, 65%)" />
<circle cx="248.07" cy="299.60" r="2" fill="hsl(240, 80%, 65%)" />
<circle cx="232.10" cy="218.03" r="3" fill="hsl(246, 80%, 65%)" />
<circle cx="299.79" cy="268.00" r="4" fill="hsl(252, 80%, 65%)" />
<circle cx="215.12" cy="276.98" r="5" fill="hsl(258, 80%, 65%)" />
<circle cx="272.16" cy="212.42" r="6" fill="hsl(264, 80%, 65%)" />
<circle cx="273.72" cy="299.53" r="2" fill="hsl(270, 80%, 65%)" />
<circle cx="213.06" cy="235.65" r="3" fill="hsl(276, 80%, 65%)" />
<circle cx="301.90" cy="241.85" r="4" fill="hsl(282, 80%, 65%)" />
<circle cx="231.45" cy="297.88" r="5" fill="hsl(288, 80%, 65%)" />
<circle cx="245.70" cy="208.05" r="6" fill="hsl(294, 80%, 65%)" />
<circle cx="296.39" cy="284.69" r="2" fill="hsl(300, 80%, 65%)" />
<circle cx="206.35" cy="262.19" r="3" fill="hsl(306, 80%, 65%)" />
<circle cx="288.75" cy="217.52" r="4" fill="hsl(312, 80%, 65%)" />
<circle cx="257.86" cy="306.98" r="5" fill="hsl(318, 80%, 65%)" />
<circle cx="219.86" cy="219.33" r="6" fill="hsl(324, 80%, 65%)" />
<circle cx="307.90" cy="258.65" r="2" fill="hsl(330, 80%, 65%)" />
<circle cx="215.58" cy="289.40" r="3" fill="hsl(336, 80%, 65%)" />
<circle cx="263.31" cy="203.61" r="4" fill="hsl(342, 80%, 65%)" />
<circle cx="286.26" cy="299.95" r="5" fill="hsl(348, 80%, 65%)" />
<circle cx="203.55" cy="243.93" r="6" fill="hsl(354, 80%, 65%)" />
<circle cx="303.22" cy="229.25" r="2" fill="hsl(0, 80%, 65%)" />
<circle cx="239.11" cy="308.05" r="3" fill="hsl(6, 80%, 65%)" />
<circle cx="233.10" cy="205.80" r="4" fill="hsl(12, 80%, 65%)" />
<circle cx="307.20" cy="277.72" r="5" fill="hsl(18, 80%, 65%)" />
<circle cx="203.16" cy="274.71" r="6" fill="hsl(24, 80%, 65%)" />
<circle cx="282.52" cy="206.12" r="2" fill="hsl(30, 80%, 65%)" />
<circle cx="270.24" cy="311.11" r="3" fill="hsl(36, 80%, 65%)" />
<circle cx="207.91" cy="224.75" r="4" fill="hsl(42, 80%, 65%)" />
<circle cx="312.99" cy="246.49" r="5" fill="hsl(48, 80%, 65%)" />
<circle cx="220.14" cy="301.84" r="6" fill="hsl(54, 80%, 65%)" />
<circle cx="251.44" cy="197.55" r="2" fill="hsl(60, 80%, 65%)" />
<circle cx="299.14" cy="296.30" r="3" fill="hsl(66, 80%, 65%)" />
<circle cx="196.55" cy="255.42" r="4" fill="hsl(72, 80%, 65%)" />
<circle cx="300.54" cy="215.99" r="5" fill="hsl(78, 80%, 65%)" />
<circle cx="250.14" cy="315.99" r="6" fill="hsl(84, 80%, 65%)" />
<circle cx="219.55" cy="207.49" r="2" fill="hsl(90, 80%, 65%)" />
<circle cx="316.04" cy="267.23" r="3" fill="hsl(96, 80%, 65%)" />
<circle cx="203.80" cy="288.49" r="4" fill="hsl(102, 80%, 65%)" />
<circle cx="272.65" cy="196.40" r="5" fill="hsl(108, 80%, 65%)" />
<circle cx="284.16" cy="311.55" r="6" fill="hsl(114, 80%, 65%)" />
<circle cx="197.34" cy="233.93" r="2" fill="hsl(120, 80%, 65%)" />
<circle cx="314.52" cy="232.51" r="3" fill="hsl(126, 80%, 65%)" />
<circle cx="228.55" cy="313.20" r="4" fill="hsl(132, 80%, 65%)" />
<circle cx="237.49" cy="194.91" r="5" fill="hsl(138, 80%, 65%)" />
<circle cx="311.25" cy="288.74" r="6" fill="hsl(144, 80%, 65%)" />
<circle cx="192.77" cy="269.25" r="2" fill="hsl(150, 80%, 65%)" />
<circle cx="293.89" cy="203.21" r="3" fill="hsl(156, 80%, 65%)" />
<circle cx="263.77" cy="320.89" r="4" fill="hsl(162, 80%, 65%)" />
<circle cx="206.16" cy="213.15" r="5" fill="hsl(168, 80%, 65%)" />
<circle cx="322.07" cy="253.91" r="6" fill="hsl(174, 80%, 65%)" />
<circle cx="208.43" cy="302.43" r="2" fill="hsl(180, 80%, 65%)" />
<circle cx="259.74" cy="189.26" r="3" fill="hsl(186, 80%, 65%)" />
<circle cx="298.55" cy="308.02" r="4" fill="hsl(192, 80%, 65%)" />
<circle cx="189.12" cy="246.34" r="5" fill="hsl(198, 80%, 65%)" />
<circle cx="312.14" cy="217.75" r="6" fill="hsl(204, 80%, 65%)" />
<circle cx="240.36" cy="322.48" r="2" fill="hsl(210, 80%, 65%)" />
<circle cx="222.45" cy="196.10" r="3" fill="hsl(216, 80%, 65%)" />
<circle cx="321.54" cy="277.61" r="4" fill="hsl(222, 80%, 65%)" />
<circle cx="192.75" cy="284.48" r="5" fill="hsl(228, 80%, 65%)" />
<circle cx="283.54" cy="191.95" r="6" fill="hsl(234, 80%, 65%)" />
<circle cx="279.07" cy="322.16" r="2" fill="hsl(240, 80%, 65%)" />
<circle cx="193.99" cy="222.63" r="3" fill="hsl(246, 80%, 65%)" />
<circle cx="324.60" cy="238.63" r="4" fill="hsl(252, 80%, 65%)" />
<circle cx="216.96" cy="315.44" r="5" fill="hsl(258, 80%, 65%)" />
<circle cx="244.58" cy="185.46" r="6" fill="hsl(264, 80%, 65%)" />
<circle cx="312.33" cy="300.51" r="2" fill="hsl(270, 80%, 65%)" />
<circle cx="184.05" cy="261.25" r="3" fill="hsl(276, 80%, 65%)" />
<circle cx="305.74" cy="203.28" r="4" fill="hsl(282, 80%, 65%)" />
<circle cx="254.93" cy="328.81" r="5" fill="hsl(288, 80%, 65%)" />
<circle cx="207.38" cy="201.34" r="6" fill="hsl(294, 80%, 65%)" />
<circle cx="329.10" cy="263.50" r="2" fill="hsl(300, 80%, 65%)" />
<circle cx="196.76" cy="300.05" r="3" fill="hsl(306, 80%, 65%)" />
<circle cx="269.98" cy="183.18" r="4" fill="hsl(312, 80%, 65%)" />
<circle cx="295.05" cy="319.42" r="5" fill="hsl(318, 80%, 65%)" />
<circle cx="184.04" cy="235.52" r="6" fill="hsl(324, 80%, 65%)" />
<circle cx="323.18" cy="222.35" r="2" fill="hsl(330, 80%, 65%)" />
<circle cx="229.08" cy="326.50" r="3" fill="hsl(336, 80%, 65%)" />
<circle cx="228.11" cy="185.53" r="4" fill="hsl(342, 80%, 65%)" />
<circle cx="324.46" cy="289.27" r="5" fill="hsl(348, 80%, 65%)" />
<circle cx="182.74" cy="277.81" r="6" fill="hsl(354, 80%, 65%)" />
<circle cx="295.45" cy="190.16" r="2" fill="hsl(0, 80%, 65%)" />
<circle cx="271.45" cy="331.51" r="3" fill="hsl(6, 80%, 65%)" />
<circle cx="193.35" cy="210.57" r="4" fill="hsl(12, 80%, 65%)" />
<circle cx="333.20" cy="247.14" r="5" fill="hsl(18, 80%, 65%)" />
<circle cx="204.85" cy="314.92" r="6" fill="hsl(24, 80%, 65%)" />
<circle cx="253.91" cy="177.69" r="2" fill="hsl(30, 80%, 65%)" />
<circle cx="310.66" cy="312.56" r="3" fill="hsl(36, 80%, 65%)" />
<circle cx="177.18" cy="251.20" r="4" fill="hsl(42, 80%, 65%)" />
<circle cx="317.60" cy="206.11" r="5" fill="hsl(48, 80%, 65%)" />
<circle cx="244.23" cy="334.71" r="6" fill="hsl(54, 80%, 65%)" />
<circle cx="211.34" cy="189.76" r="2" fill="hsl(60, 80%, 65%)" />
<circle cx="333.98" cy="274.74" r="3" fill="hsl(66, 80%, 65%)" />
<circle cx="185.57" cy="295.00" r="4" fill="hsl(72, 80%, 65%)" />
<circle cx="281.68" cy="179.38" r="5" fill="hsl(78, 80%, 65%)" />
<circle cx="288.94" cy="330.12" r="6" fill="hsl(84, 80%, 65%)" />
<circle cx="181.37" cy="223.47" r="2" fill="hsl(90, 80%, 65%)" />
<circle cx="333.29" cy="229.47" r="3" fill="hsl(96, 80%, 65%)" />
<circle cx="216.79" cy="328.03" r="4" fill="hsl(102, 80%, 65%)" />
<circle cx="236.19" cy="176.11" r="5" fill="hsl(108, 80%, 65%)" />
<circle cx="324.82" cy="301.69" r="6" fill="hsl(114, 80%, 65%)" />
<circle cx="174.10" cy="268.84" r="2" fill="hsl(120, 80%, 65%)" />
<circle cx="307.90" cy="190.97" r="3" fill="hsl(126, 80%, 65%)" />
<circle cx="261.68" cy="339.30" r="4" fill="hsl(132, 80%, 65%)" />
<circle cx="195.33" cy="198.21" r="5" fill="hsl(138, 80%, 65%)" />
<circle cx="340.07" cy="257.64" r="6" fill="hsl(144, 80%, 65%)" />
<circle cx="192.69" cy="311.77" r="2" fill="hsl(150, 80%, 65%)" />
<circle cx="265.05" cy="171.82" r="3" fill="hsl(156, 80%, 65%)" />
<circle cx="306.36" cy="324.41" r="4" fill="hsl(162, 80%, 65%)" />
<circle cx="172.37" cy="239.52" r="5" fill="hsl(168, 80%, 65%)" />
<circle cx="329.05" cy="211.51" r="6" fill="hsl(174, 80%, 65%)" />
<circle cx="232.11" cy="338.42" r="2" fill="hsl(180, 80%, 65%)" />
<circle cx="217.81" cy="178.83" r="3" fill="hsl(186, 80%, 65%)" />
<circle cx="336.55" cy="287.21" r="4" fill="hsl(192, 80%, 65%)" />
<circle cx="175.26" cy="287.50" r="5" fill="hsl(198, 80%, 65%)" />
<circle cx="294.38" cy="177.98" r="6" fill="hsl(204, 80%, 65%)" />
<circle cx="280.48" cy="339.73" r="2" fill="hsl(210, 80%, 65%)" />
<circle cx="181.15" cy="210.65" r="3" fill="hsl(216, 80%, 65%)" />
<circle cx="342.10" cy="238.83" r="4" fill="hsl(222, 80%, 65%)" />
<circle cx="203.95" cy="327.05" r="5" fill="hsl(228, 80%, 65%)" />
<circle cx="246.36" cy="168.18" r="6" fill="hsl(234, 80%, 65%)" />
<circle cx="322.64" cy="314.43" r="2" fill="hsl(240, 80%, 65%)" />
<circle cx="167.11" cy="257.94" r="3" fill="hsl(246, 80%, 65%)" />
<circle cx="320.43" cy="194.34" r="4" fill="hsl(252, 80%, 65%)" />
<circle cx="250.13" cy="345.26" r="5" fill="hsl(258, 80%, 65%)" />
<circle cx="199.86" cy="186.00" r="6" fill="hsl(264, 80%, 65%)" />
<circle cx="344.95" cy="269.74" r="2" fill="hsl(270, 80%, 65%)" />
<circle cx="180.90" cy="306.10" r="3" fill="hsl(276, 80%, 65%)" />
<circle cx="277.59" cy="168.06" r="4" fill="hsl(282, 80%, 65%)" />
<circle cx="299.61" cy="335.66" r="5" fill="hsl(288, 80%, 65%)" />
<circle cx="169.78" cy="226.63" r="6" fill="hsl(294, 80%, 65%)" />
<circle cx="339.67" cy="219.31" r="2" fill="hsl(300, 80%, 65%)" />
<circle cx="218.98" cy="339.82" r="3" fill="hsl(306, 80%, 65%)" />
<circle cx="226.59" cy="168.94" r="4" fill="hsl(312, 80%, 65%)" />
<circle cx="336.73" cy="300.46" r="5" fill="hsl(318, 80%, 65%)" />
<circle cx="166.18" cy="277.81" r="6" fill="hsl(324, 80%, 65%)" />
<circle cx="307.64" cy="179.03" r="2" fill="hsl(330, 80%, 65%)" />
<circle cx="269.95" cy="347.90" r="3" fill="hsl(336, 80%, 65%)" />
<circle cx="183.43" cy="197.49" r="4" fill="hsl(342, 80%, 65%)" />
<circle cx="349.30" cy="250.10" r="5" fill="hsl(348, 80%, 65%)" />
<circle cx="191.01" cy="323.56" r="6" fill="hsl(354, 80%, 65%)" />
<circle cx="258.29" cy="162.02" r="2" fill="hsl(0, 80%, 65%)" />
<circle cx="317.96" cy="327.04" r="3" fill="hsl(6, 80%, 65%)" />
<circle cx="162.06" cy="245.44" r="4" fill="hsl(12, 80%, 65%)" />
<circle cx="332.61" cy="200.18" r="5" fill="hsl(18, 80%, 65%)" />
<circle cx="237.17" cy="349.16" r="6" fill="hsl(24, 80%, 65%)" />
<circle cx="206.82" cy="174.36" r="2" fill="hsl(30, 80%, 65%)" />
<circle cx="347.65" cy="283.05" r="3" fill="hsl(36, 80%, 65%)" />
<circle cx="169.92" cy="298.08" r="4" fill="hsl(42, 80%, 65%)" />
<circle cx="291.15" cy="166.59" r="5" fill="hsl(48, 80%, 65%)" />
<circle cx="290.57" cy="345.91" r="6" fill="hsl(54, 80%, 65%)" />
<circle cx="169.55" cy="212.94" r="2" fill="hsl(60, 80%, 65%)" />
<circle cx="349.08" cy="229.28" r="3" fill="hsl(66, 80%, 65%)" />
<circle cx="205.28" cy="338.79" r="4" fill="hsl(72, 80%, 65%)" />
<circle cx="237.42" cy="160.45" r="5" fill="hsl(78, 80%, 65%)" />
<circle cx="334.44" cy="314.06" r="6" fill="hsl(84, 80%, 65%)" />
<circle cx="158.69" cy="266.20" r="2" fill="hsl(90, 80%, 65%)" />
<circle cx="321.03" cy="182.56" r="3" fill="hsl(96, 80%, 65%)" />
<circle cx="257.67" cy="354.33" r="4" fill="hsl(102, 80%, 65%)" />
<circle cx="188.18" cy="184.44" r="5" fill="hsl(108, 80%, 65%)" />
<circle cx="354.60" cy="262.97" r="6" fill="hsl(114, 80%, 65%)" />
<circle cx="178.39" cy="317.61" r="2" fill="hsl(120, 80%, 65%)" />
<circle cx="271.64" cy="157.90" r="3" fill="hsl(126, 80%, 65%)" />
<circle cx="310.87" cy="339.11" r="4" fill="hsl(132, 80%, 65%)" />
<circle cx="159.17" cy="231.72" r="5" fill="hsl(138, 80%, 65%)" />
<circle cx="344.02" cy="208.38" r="6" fill="hsl(144, 80%, 65%)" />
<circle cx="223.19" cy="350.80" r="2" fill="hsl(150, 80%, 65%)" />
<circle cx="216.06" cy="163.71" r="3" fill="hsl(156, 80%, 65%)" />
<circle cx="348.02" cy="297.18" r="4" fill="hsl(162, 80%, 65%)" />
<circle cx="160.10" cy="287.87" r="5" fill="hsl(168, 80%, 65%)" />
<circle cx="305.30" cy="167.51" r="6" fill="hsl(174, 80%, 65%)" />
<circle cx="279.48" cy="354.79" r="2" fill="hsl(180, 80%, 65%)" />
<circle cx="171.76" cy="198.88" r="3" fill="hsl(186, 80%, 65%)" />
<circle cx="356.94" cy="241.18" r="4" fill="hsl(192, 80%, 65%)" />
<circle cx="191.43" cy="335.30" r="5" fill="hsl(198, 80%, 65%)" />
<circle cx="250.03" cy="153.67" r="6" fill="hsl(204, 80%, 65%)" />
<circle cx="329.69" cy="327.59" r="2" fill="hsl(210, 80%, 65%)" />
<circle cx="153.07" cy="252.99" r="3" fill="hsl(216, 80%, 65%)" />
<circle cx="334.12" cy="188.54" r="4" fill="hsl(222, 80%, 65%)" />
<circle cx="243.94" cy="358.75" r="5" fill="hsl(228, 80%, 65%)" />
<circle cx="195.35" cy="171.90" r="6" fill="hsl(234, 80%, 65%)" />
<circle cx="357.77" cy="277.09" r="2" fill="hsl(240, 80%, 65%)" />
<circle cx="166.51" cy="309.31" r="3" fill="hsl(246, 80%, 65%)" />
<circle cx="286.04" cy="156.02" r="4" fill="hsl(252, 80%, 65%)" />
<circle cx="301.49" cy="350.23" r="5" fill="hsl(258, 80%, 65%)" />
<circle cx="158.59" cy="217.16" r="6" fill="hsl(264, 80%, 65%)" />
<circle cx="354.28" cy="218.76" r="2" fill="hsl(270, 80%, 65%)" />
<circle cx="208.58" cy="350.06" r="3" fill="hsl(276, 80%, 65%)" />
<circle cx="227.37" cy="154.39" r="4" fill="hsl(282, 80%, 65%)" />
<circle cx="345.95" cy="311.71" r="5" fill="hsl(288, 80%, 65%)" />
<circle cx="151.82" cy="275.73" r="6" fill="hsl(294, 80%, 65%)" />
<circle cx="319.63" cy="170.90" r="2" fill="hsl(300, 80%, 65%)" />
<circle cx="266.59" cy="361.97" r="3" fill="hsl(306, 80%, 65%)" />
<circle cx="176.44" cy="184.86" r="4" fill="hsl(312, 80%, 65%)" />
<circle cx="362.95" cy="254.71" r="5" fill="hsl(318, 80%, 65%)" />
<circle cx="177.85" cy="329.35" r="6" fill="hsl(324, 80%, 65%)" />
<circle cx="264.10" cy="148.89" r="2" fill="hsl(330, 80%, 65%)" />
<circle cx="322.52" cy="340.63" r="3" fill="hsl(336, 80%, 65%)" />
<circle cx="149.56" cy="238.49" r="4" fill="hsl(342, 80%, 65%)" />
<circle cx="346.50" cy="196.89" r="5" fill="hsl(348, 80%, 65%)" />
<circle cx="229.14" cy="360.94" r="6" fill="hsl(354, 80%, 65%)" />
<circle cx="204.81" cy="160.28" r="2" fill="hsl(0, 80%, 65%)" />
<circle cx="358.62" cy="292.08" r="3" fill="hsl(6, 80%, 65%)" />
<circle cx="155.76" cy="298.80" r="4" fill="hsl(12, 80%, 65%)" />
<circle cx="301.10" cy="156.52" r="5" fill="hsl(18, 80%, 65%)" />
<circle cx="290.01" cy="360.03" r="6" fill="hsl(24, 80%, 65%)" />
<circle cx="160.45" cy="202.16" r="2" fill="hsl(30, 80%, 65%)" />
<circle cx="363.04" cy="231.11" r="3" fill="hsl(36, 80%, 65%)" />
<circle cx="193.76" cy="346.84" r="4" fill="hsl(42, 80%, 65%)" />
<circle cx="240.50" cy="146.75" r="5" fill="hsl(48, 80%, 65%)" />
<circle cx="341.40" cy="326.23" r="6" fill="hsl(54, 80%, 65%)" />
<circle cx="145.37" cy="261.91" r="2" fill="hsl(60, 80%, 65%)" />
<circle cx="333.74" cy="176.75" r="3" fill="hsl(66, 80%, 65%)" />
<circle cx="252.20" cy="367.16" r="4" fill="hsl(72, 80%, 65%)" />
<circle cx="183.57" cy="171.30" r="5" fill="hsl(78, 80%, 65%)" />
<circle cx="366.84" cy="269.56" r="6" fill="hsl(84, 80%, 65%)" />
<circle cx="164.93" cy="321.01" r="2" fill="hsl(90, 80%, 65%)" />
<circle cx="279.28" cy="146.34" r="3" fill="hsl(96, 80%, 65%)" />
<circle cx="313.02" cy="352.78" r="4" fill="hsl(102, 80%, 65%)" />
<circle cx="148.37" cy="223.09" r="5" fill="hsl(108, 80%, 65%)" />
<circle cx="357.79" cy="207.47" r="6" fill="hsl(114, 80%, 65%)" />
<circle cx="213.64" cy="360.74" r="2" fill="hsl(120, 80%, 65%)" />
<circle cx="216.41" cy="149.95" r="3" fill="hsl(126, 80%, 65%)" />
<circle cx="357.02" cy="307.55" r="4" fill="hsl(132, 80%, 65%)" />
<circle cx="146.48" cy="286.29" r="5" fill="hsl(138, 80%, 65%)" />
<circle cx="316.41" cy="159.50" r="6" fill="hsl(144, 80%, 65%)" />
<circle cx="276.67" cy="368.17" r="2" fill="hsl(150, 80%, 65%)" />
<circle cx="164.81" cy="187.12" r="3" fill="hsl(156, 80%, 65%)" />
<circle cx="369.98" cy="245.17" r="4" fill="hsl(162, 80%, 65%)" />
<circle cx="179.13" cy="341.14" r="5" fill="hsl(168, 80%, 65%)" />
<circle cx="255.17" cy="141.08" r="6" fill="hsl(174, 80%, 65%)" />
<circle cx="334.38" cy="340.34" r="2" fill="hsl(180, 80%, 65%)" />
<circle cx="141.03" cy="246.74" r="3" fill="hsl(186, 80%, 65%)" />
<circle cx="347.20" cy="185.03" r="4" fill="hsl(192, 80%, 65%)" />
<circle cx="236.65" cy="370.14" r="5" fill="hsl(198, 80%, 65%)" />
<circle cx="193.05" cy="158.59" r="6" fill="hsl(204, 80%, 65%)" />
<circle cx="368.42" cy="285.36" r="2" fill="hsl(210, 80%, 65%)" />
<circle cx="153.08" cy="310.39" r="3" fill="hsl(216, 80%, 65%)" />
<circle cx="295.22" cy="146.18" r="4" fill="hsl(222, 80%, 65%)" />
<circle cx="301.35" cy="363.67" r="5" fill="hsl(228, 80%, 65%)" />
<circle cx="149.64" cy="207.16" r="6" fill="hsl(234, 80%, 65%)" />
<circle cx="367.62" cy="220.11" r="2" fill="hsl(240, 80%, 65%)" />
<circle cx="197.84" cy="358.04" r="3" fill="hsl(246, 80%, 65%)" />
<circle cx="229.91" cy="141.26" r="4" fill="hsl(252, 80%, 65%)" />
<circle cx="352.91" cy="323.10" r="5" fill="hsl(258, 80%, 65%)" />
<circle cx="139.01" cy="272.02" r="6" fill="hsl(264, 80%, 65%)" />
<circle cx="331.58" cy="165.01" r="2" fill="hsl(270, 80%, 65%)" />
</svg>
