<svg xmlns="http://www.w3.org/2000/svg" width="512" height="512" viewBox="0 0 512 512">
<rect width="100%" height="100%" fill="black"/>
<circle cx="256.00" cy="256.00" r="2" fill="hsl(0, 80%, 65%)" />
<circle cx="250.39" cy="261.14" r="3" fill="hsl(8, 80%, 65%)" />
<circle cx="256.94" cy="245.29" r="4" fill="hsl(16, 80%, 65%)" />
<circle cx="264.01" cy="266.45" r="5" fill="hsl(24, 80%, 65%)" />
<circle cx="241.02" cy="253.35" r="6" fill="hsl(32, 80%, 65%)" />
<circle cx="270.35" cy="246.87" r="2" fill="hsl(40, 80%, 65%)" />
<circle cx="251.16" cy="273.99" r="3" fill="hsl(48, 80%, 65%)" />
<circle cx="246.73" cy="238.14" r="4" fill="hsl(56, 80%, 65%)" />
<circle cx="276.20" cy="263.38" r="5" fill="hsl(64, 80%, 65%)" />
<circle cx="234.91" cy="264.71" r="6" fill="hsl(72, 80%, 65%)" />
<circle cx="266.19" cy="234.22" r="2" fill="hsl(80, 80%, 65%)" />
<circle cx="263.55" cy="280.07" r="3" fill="hsl(88, 80%, 65%)" />
<circle cx="233.21" cy="242.79" r="4" fill="hsl(96, 80%, 65%)" />
<circle cx="282.78" cy="250.11" r="5" fill="hsl(104, 80%, 65%)" />
<circle cx="239.63" cy="279.28" r="6" fill="hsl(112, 80%, 65%)" />
<circle cx="252.21" cy="226.79" r="2" fill="hsl(120, 80%, 65%)" />
<circle cx="279.26" cy="275.60" r="3" fill="hsl(128, 80%, 65%)" />
<circle cx="224.67" cy="257.30" r="4" fill="hsl(136, 80%, 65%)" />
<circle cx="278.87" cy="233.24" r="5" fill="hsl(144, 80%, 65%)" />
<circle cx="254.47" cy="289.11" r="6" fill="hsl(152, 80%, 65%)" />
<circle cx="234.21" cy="229.89" r="2" fill="hsl(160, 80%, 65%)" />
<circle cx="290.54" cy="260.65" r="3" fill="hsl(168, 80%, 65%)" />
<circle cx="226.72" cy="276.37" r="4" fill="hsl(176, 80%, 65%)" />
<circle cx="264.00" cy="220.42" r="5" fill="hsl(184, 80%, 65%)" />
<circle cx="274.52" cy="288.33" r="6" fill="hsl(192, 80%, 65%)" />
<circle cx="219.77" cy="244.44" r="2" fill="hsl(200, 80%, 65%)" />
<circle cx="291.20" cy="239.74" r="3" fill="hsl(208, 80%, 65%)" />
<circle cx="240.74" cy="292.45" r="4" fill="hsl(216, 80%, 65%)" />
<circle cx="242.38" cy="218.13" r="5" fill="hsl(224, 80%, 65%)" />
<circle cx="292.25" cy="275.05" r="6" fill="hsl(232, 80%, 65%)" />
<circle cx="215.72" cy="266.62" r="2" fill="hsl(240, 80%, 65%)" />
<circle cx="278.90" cy="220.38" r="3" fill="hsl(248, 80%, 65%)" />
<circle cx="263.29" cy="298.40" r="4" fill="hsl(256, 80%, 65%)" />
<circle cx="221.46" cy="229.25" r="5" fill="hsl(264, 80%, 65%)" />
<circle cx="300.19" cy="252.34" r="6" fill="hsl(272, 80%, 65%)" />
<circle cx="225.45" cy="289.03" r="2" fill="hsl(280, 80%, 65%)" />
<circle cx="256.22" cy="210.37" r="3" fill="hsl(288, 80%, 65%)" />
<circle cx="287.08" cy="290.26" r="4" fill="hsl(296, 80%, 65%)" />
<circle cx="209.32" cy="251.67" r="5" fill="hsl(304, 80%, 65%)" />
<circle cx="293.83" cy="227.29" r="6" fill="hsl(312, 80%, 65%)" />
<circle cx="247.39" cy="303.32" r="2" fill="hsl(320, 80%, 65%)" />
<circle cx="230.06" cy="214.79" r="3" fill="hsl(328, 80%, 65%)" />
<circle cx="303.53" cy="269.03" r="4" fill="hsl(336, 80%, 65%)" />
<circle cx="211.63" cy="278.77" r="5" fill="hsl(344, 80%, 65%)" />
<circle cx="273.54" cy="208.70" r="6" fill="hsl(352, 80%, 65%)" />
<circle cx="275.24" cy="303.25" r="2" fill="hsl(0, 80%, 65%)" />
<circle cx="209.39" cy="233.91" r="3" fill="hsl(8, 80%, 65%)" />
<circle cx="305.82" cy="240.64" r="4" fill="hsl(16, 80%, 65%)" />
<circle cx="229.36" cy="301.46" r="5" fill="hsl(24, 80%, 65%)" />
<circle cx="244.82" cy="203.95" r="6" fill="hsl(32, 80%, 65%)" />
<circle cx="299.84" cy="287.14" r="2" fill="hsl(40, 80%, 65%)" />
<circle cx="202.11" cy="262.72" r="3" fill="hsl(48, 80%, 65%)" />
<circle cx="291.55" cy="214.24" r="4" fill="hsl(56, 80%, 65%)" />
<circle cx="258.02" cy="311.33" r="5" fill="hsl(64, 80%, 65%)" />
<circle cx="216.77" cy="216.20" r="6" fill="hsl(72, 80%, 65%)" />
<circle cx="312.33" cy="258.88" r="2" fill="hsl(80, 80%, 65%)" />
<circle cx="212.13" cy="292.25" r="3" fill="hsl(88, 80%, 65%)" />
<circle cx="263.93" cy="199.13" r="4" fill="hsl(96, 80%, 65%)" />
<circle cx="288.85" cy="303.70" r="5" fill="hsl(104, 80%, 65%)" />
<circle cx="199.07" cy="242.90" r="6" fill="hsl(112, 80%, 65%)" />
<circle cx="307.25" cy="226.96" r="2" fill="hsl(120, 80%, 65%)" />
<circle cx="237.67" cy="312.50" r="3" fill="hsl(128, 80%, 65%)" />
<circle cx="231.15" cy="201.52" r="4" fill="hsl(136, 80%, 65%)" />
<circle cx="311.57" cy="279.57" r="5" fill="hsl(144, 80%, 65%)" />
<circle cx="198.65" cy="276.31" r="6" fill="hsl(152, 80%, 65%)" />
<circle cx="284.79" cy="201.87" r="2" fill="hsl(160, 80%, 65%)" />
<circle cx="271.46" cy="315.82" r="3" fill="hsl(168, 80%, 65%)" />
<circle cx="203.81" cy="222.08" r="4" fill="hsl(176, 80%, 65%)" />
<circle cx="317.86" cy="245.68" r="5" fill="hsl(184, 80%, 65%)" />
<circle cx="217.08" cy="305.76" r="6" fill="hsl(192, 80%, 65%)" />
<circle cx="251.06" cy="192.56" r="2" fill="hsl(200, 80%, 65%)" />
<circle cx="302.83" cy="299.74" r="3" fill="hsl(208, 80%, 65%)" />
<circle cx="191.47" cy="255.37" r="4" fill="hsl(216, 80%, 65%)" />
<circle cx="304.34" cy="212.58" r="5" fill="hsl(224, 80%, 65%)" />
<circle cx="249.65" cy="321.11" r="6" fill="hsl(232, 80%, 65%)" />
<circle cx="216.44" cy="203.34" r="2" fill="hsl(240, 80%, 65%)" />
<circle cx="321.17" cy="268.18" r="3" fill="hsl(248, 80%, 65%)" />
<circle cx="199.35" cy="291.27" r="4" fill="hsl(256, 80%, 65%)" />
<circle cx="274.07" cy="191.31" r="5" fill="hsl(264, 80%, 65%)" />
<circle cx="286.57" cy="316.29" r="6" fill="hsl(272, 80%, 65%)" />
<circle cx="192.34" cy="232.04" r="2" fill="hsl(280, 80%, 65%)" />
<circle cx="319.52" cy="230.50" r="3" fill="hsl(288, 80%, 65%)" />
<circle cx="226.20" cy="318.09" r="4" fill="hsl(296, 80%, 65%)" />
<circle cx="235.91" cy="189.69" r="5" fill="hsl(304, 80%, 65%)" />
<circle cx="315.96" cy="291.54" r="6" fill="hsl(312, 80%, 65%)" />
<circle cx="187.38" cy="270.39" r="2" fill="hsl(320, 80%, 65%)" />
<circle cx="297.12" cy="198.70" r="3" fill="hsl(328, 80%, 65%)" />
<circle cx="264.43" cy="326.43" r="4" fill="hsl(336, 80%, 65%)" />
<circle cx="201.90" cy="209.49" r="5" fill="hsl(344, 80%, 65%)" />
<circle cx="327.71" cy="253.74" r="6" fill="hsl(352, 80%, 65%)" />
<circle cx="204.37" cy="306.39" r="2" fill="hsl(0, 80%, 65%)" />
<circle cx="260.06" cy="183.57" r="3" fill="hsl(8, 80%, 65%)" />
<circle cx="302.19" cy="312.46" r="4" fill="hsl(16, 80%, 65%)" />
<circle cx="183.41" cy="245.51" r="5" fill="hsl(24, 80%, 65%)" />
<circle cx="316.93" cy="214.48" r="6" fill="hsl(32, 80%, 65%)" />
<circle cx="239.03" cy="328.15" r="2" fill="hsl(40, 80%, 65%)" />
<circle cx="219.59" cy="190.99" r="3" fill="hsl(48, 80%, 65%)" />
<circle cx="327.13" cy="279.46" r="4" fill="hsl(56, 80%, 65%)" />
<circle cx="187.35" cy="286.91" r="5" fill="hsl(64, 80%, 65%)" />
<circle cx="285.89" cy="186.49" r="6" fill="hsl(72, 80%, 65%)" />
<circle cx="281.04" cy="327.81" r="2" fill="hsl(80, 80%, 65%)" />
<circle cx="188.70" cy="219.78" r="3" fill="hsl(88, 80%, 65%)" />
<circle cx="330.46" cy="237.15" r="4" fill="hsl(96, 80%, 65%)" />
<circle cx="213.63" cy="320.51" r="5" fill="hsl(104, 80%, 65%)" />
<circle cx="243.61" cy="179.44" r="6" fill="hsl(112, 80%, 65%)" />
<circle cx="317.14" cy="304.31" r="2" fill="hsl(120, 80%, 65%)" />
<circle cx="177.91" cy="261.70" r="3" fill="hsl(128, 80%, 65%)" />
<circle cx="309.98" cy="198.78" r="4" fill="hsl(136, 80%, 65%)" />
<circle cx="254.84" cy="335.02" r="5" fill="hsl(144, 80%, 65%)" />
<circle cx="203.23" cy="196.68" r="6" fill="hsl(152, 80%, 65%)" />
<circle cx="335.35" cy="264.14" r="2" fill="hsl(160, 80%, 65%)" />
<circle cx="191.71" cy="303.81" r="3" fill="hsl(168, 80%, 65%)" />
<circle cx="271.18" cy="176.96" r="4" fill="hsl(176, 80%, 65%)" />
<circle cx="298.39" cy="324.84" r="5" fill="hsl(184, 80%, 65%)" />
<circle cx="177.90" cy="233.78" r="6" fill="hsl(192, 80%, 65%)" />
<circle cx="328.92" cy="219.47" r="2" fill="hsl(200, 80%, 65%)" />
<circle cx="226.78" cy="332.52" r="3" fill="hsl(208, 80%, 65%)" />
<circle cx="225.73" cy="179.51" r="4" fill="hsl(216, 80%, 65%)" />
<circle cx="330.30" cy="292.11" r="5" fill="hsl(224, 80%, 65%)" />
<circle cx="176.49" cy="279.67" r="6" fill="hsl(232, 80%, 65%)" />
<circle cx="298.82" cy="184.54" r="2" fill="hsl(240, 80%, 65%)" />
<circle cx="272.76" cy="337.96" r="3" fill="hsl(248, 80%, 65%)" />
<circle cx="188.00" cy="206.69" r="4" fill="hsl(256, 80%, 65%)" />
<circle cx="339.79" cy="246.39" r="5" fill="hsl(264, 80%, 65%)" />
<circle cx="200.48" cy="319.95" r="6" fill="hsl(272, 80%, 65%)" />
<circle cx="253.73" cy="171.00" r="2" fill="hsl(280, 80%, 65%)" />
<circle cx="315.32" cy="317.38" r="3" fill="hsl(288, 80%, 65%)" />
<circle cx="170.46" cy="250.79" r="4" fill="hsl(296, 80%, 65%)" />
<circle cx="322.86" cy="201.85" r="5" fill="hsl(304, 80%, 65%)" />
<circle cx="243.23" cy="341.43" r="6" fill="hsl(312, 80%, 65%)" />
<circle cx="207.52" cy="184.11" r="2" fill="hsl(320, 80%, 65%)" />
<circle cx="340.63" cy="276.34" r="3" fill="hsl(328, 80%, 65%)" />
<circle cx="179.56" cy="298.33" r="4" fill="hsl(336, 80%, 65%)" />
<circle cx="283.88" cy="172.84" r="5" fill="hsl(344, 80%, 65%)" />
<circle cx="291.75" cy="336.45" r="6" fill="hsl(352, 80%, 65%)" />
<circle cx="175.00" cy="220.70" r="2" fill="hsl(0, 80%, 65%)" />
<circle cx="339.88" cy="227.21" r="3" fill="hsl(8, 80%, 65%)" />
<circle cx="213.44" cy="334.18" r="4" fill="hsl(16, 80%, 65%)" />
<circle cx="234.50" cy="169.29" r="5" fill="hsl(24, 80%, 65%)" />
<circle cx="330.70" cy="305.59" r="6" fill="hsl(32, 80%, 65%)" />
<circle cx="167.10" cy="269.94" r="2" fill="hsl(40, 80%, 65%)" />
<circle cx="312.33" cy="185.42" r="3" fill="hsl(48, 80%, 65%)" />
<circle cx="262.16" cy="346.41" r="4" fill="hsl(56, 80%, 65%)" />
<circle cx="190.15" cy="193.27" r="5" fill="hsl(64, 80%, 65%)" />
<circle cx="347.24" cy="257.78" r="6" fill="hsl(72, 80%, 65%)" />
<circle cx="187.28" cy="316.53" r="2" fill="hsl(80, 80%, 65%)" />
<circle cx="265.82" cy="164.64" r="3" fill="hsl(88, 80%, 65%)" />
<circle cx="310.66" cy="330.25" r="4" fill="hsl(96, 80%, 65%)" />
<circle cx="165.23" cy="238.11" r="5" fill="hsl(104, 80%, 65%)" />
<circle cx="335.28" cy="207.71" r="6" fill="hsl(112, 80%, 65%)" />
<circle cx="230.07" cy="345.46" r="2" fill="hsl(120, 80%, 65%)" />
<circle cx="214.55" cy="172.24" r="3" fill="hsl(128, 80%, 65%)" />
<circle cx="343.43" cy="289.88" r="4" fill="hsl(136, 80%, 65%)" />
<circle cx="168.36" cy="290.19" r="5" fill="hsl(144, 80%, 65%)" />
<circle cx="297.66" cy="171.32" r="6" fill="hsl(152, 80%, 65%)" />
<circle cx="282.57" cy="346.88" r="2" fill="hsl(160, 80%, 65%)" />
<circle cx="174.76" cy="206.78" r="3" fill="hsl(168, 80%, 65%)" />
<circle cx="349.45" cy="237.36" r="4" fill="hsl(176, 80%, 65%)" />
<circle cx="199.51" cy="333.11" r="5" fill="hsl(184, 80%, 65%)" />
<circle cx="245.53" cy="160.68" r="6" fill="hsl(192, 80%, 65%)" />
<circle cx="328.33" cy="319.42" r="2" fill="hsl(200, 80%, 65%)" />
<circle cx="159.53" cy="258.11" r="3" fill="hsl(208, 80%, 65%)" />
<circle cx="325.93" cy="189.07" r="4" fill="hsl(216, 80%, 65%)" />
<circle cx="249.62" cy="352.88" r="5" fill="hsl(224, 80%, 65%)" />
<circle cx="195.07" cy="180.02" r="6" fill="hsl(232, 80%, 65%)" />
<circle cx="352.54" cy="270.91" r="2" fill="hsl(240, 80%, 65%)" />
<circle cx="174.49" cy="310.38" r="3" fill="hsl(248, 80%, 65%)" />
<circle cx="279.44" cy="160.56" r="4" fill="hsl(256, 80%, 65%)" />
<circle cx="303.33" cy="342.47" r="5" fill="hsl(264, 80%, 65%)" />
<circle cx="162.42" cy="224.12" r="6" fill="hsl(272, 80%, 65%)" />
<circle cx="346.81" cy="216.18" r="2" fill="hsl(280, 80%, 65%)" />
<circle cx="215.82" cy="346.97" r="3" fill="hsl(288, 80%, 65%)" />
<circle cx="224.08" cy="161.51" r="4" fill="hsl(296, 80%, 65%)" />
<circle cx="343.62" cy="304.25" r="5" fill="hsl(304, 80%, 65%)" />
<circle cx="158.52" cy="279.67" r="6" fill="hsl(312, 80%, 65%)" />
<circle cx="312.05" cy="172.46" r="2" fill="hsl(320, 80%, 65%)" />
<circle cx="271.15" cy="355.75" r="3" fill="hsl(328, 80%, 65%)" />
<circle cx="177.23" cy="192.50" r="4" fill="hsl(336, 80%, 65%)" />
<circle cx="357.26" cy="249.60" r="5" fill="hsl(344, 80%, 65%)" />
<circle cx="185.46" cy="329.33" r="6" fill="hsl(352, 80%, 65%)" />
<circle cx="258.49" cy="154.00" r="2" fill="hsl(0, 80%, 65%)" />
<circle cx="323.25" cy="333.11" r="3" fill="hsl(8, 80%, 65%)" />
<circle cx="154.05" cy="244.54" r="4" fill="hsl(16, 80%, 65%)" />
<circle cx="339.15" cy="195.42" r="5" fill="hsl(24, 80%, 65%)" />
<circle cx="235.56" cy="357.11" r="6" fill="hsl(32, 80%, 65%)" />
<circle cx="202.63" cy="167.40" r="2" fill="hsl(40, 80%, 65%)" />
<circle cx="355.48" cy="285.36" r="3" fill="hsl(48, 80%, 65%)" />
<circle cx="162.57" cy="301.67" r="4" fill="hsl(56, 80%, 65%)" />
<circle cx="294.15" cy="158.96" r="5" fill="hsl(64, 80%, 65%)" />
<circle cx="293.52" cy="353.59" r="6" fill="hsl(72, 80%, 65%)" />
<circle cx="162.17" cy="209.27" r="2" fill="hsl(80, 80%, 65%)" />
<circle cx="357.02" cy="227.00" r="3" fill="hsl(88, 80%, 65%)" />
<circle cx="200.96" cy="345.86" r="4" fill="hsl(96, 80%, 65%)" />
<circle cx="235.84" cy="152.29" r="5" fill="hsl(104, 80%, 65%)" />
<circle cx="341.14" cy="319.02" r="6" fill="hsl(112, 80%, 65%)" />
<circle cx="150.38" cy="267.07" r="2" fill="hsl(120, 80%, 65%)" />
<circle cx="326.58" cy="176.29" r="3" fill="hsl(128, 80%, 65%)" />
<circle cx="257.81" cy="362.73" r="4" fill="hsl(136, 80%, 65%)" />
<circle cx="182.39" cy="178.33" r="5" fill="hsl(144, 80%, 65%)" />
<circle cx="363.01" cy="263.57" r="6" fill="hsl(152, 80%, 65%)" />
<circle cx="171.77" cy="322.87" r="2" fill="hsl(160, 80%, 65%)" />
<circle cx="272.98" cy="149.53" r="3" fill="hsl(168, 80%, 65%)" />
<circle cx="315.55" cy="346.20" r="4" fill="hsl(176, 80%, 65%)" />
<circle cx="150.90" cy="229.65" r="5" fill="hsl(184, 80%, 65%)" />
<circle cx="351.53" cy="204.31" r="6" fill="hsl(192, 80%, 65%)" />
<circle cx="220.39" cy="358.90" r="2" fill="hsl(200, 80%, 65%)" />
<circle cx="212.65" cy="155.83" r="3" fill="hsl(208, 80%, 65%)" />
<circle cx="355.87" cy="300.69" r="4" fill="hsl(216, 80%, 65%)" />
<circle cx="151.92" cy="290.59" r="5" fill="hsl(224, 80%, 65%)" />
<circle cx="309.51" cy="159.96" r="6" fill="hsl(232, 80%, 65%)" />
<circle cx="281.48" cy="363.22" r="2" fill="hsl(240, 80%, 65%)" />
<circle cx="164.57" cy="194.01" r="3" fill="hsl(248, 80%, 65%)" />
<circle cx="365.55" cy="239.91" r="4" fill="hsl(256, 80%, 65%)" />
<circle cx="185.92" cy="342.07" r="5" fill="hsl(264, 80%, 65%)" />
<circle cx="249.52" cy="144.94" r="6" fill="hsl(272, 80%, 65%)" />
<circle cx="335.98" cy="333.70" r="2" fill="hsl(280, 80%, 65%)" />
<circle cx="144.28" cy="252.73" r="3" fill="hsl(288, 80%, 65%)" />
<circle cx="340.79" cy="182.78" r="4" fill="hsl(296, 80%, 65%)" />
<circle cx="242.91" cy="367.52" r="5" fill="hsl(304, 80%, 65%)" />
<circle cx="190.17" cy="164.72" r="6" fill="hsl(312, 80%, 65%)" />
<circle cx="366.45" cy="278.89" r="2" fill="hsl(320, 80%, 65%)" />
<circle cx="158.87" cy="313.86" r="3" fill="hsl(328, 80%, 65%)" />
<circle cx="288.61" cy="147.48" r="4" fill="hsl(336, 80%, 65%)" />
<circle cx="305.37" cy="358.27" r="5" fill="hsl(344, 80%, 65%)" />
<circle cx="150.27" cy="213.84" r="6" fill="hsl(352, 80%, 65%)" />
<circle cx="362.67" cy="215.58" r="2" fill="hsl(0, 80%, 65%)" />
</svg>
