<svg xmlns="http://www.w3.org/2000/svg" width="512" height="512" viewBox="0 0 512 512">
<rect width="100%" height="100%" fill="#0b1020"/>
<circle cx="401" cy="97" r="43" fill="#f8f3c9" opacity="0.95" />
<circle cx="195.0" cy="36.0" r="2.1" fill="white" />
<circle cx="458.0" cy="77.0" r="2.0" fill="white" />
<circle cx="28.0" cy="82.0" r="3.0" fill="white" />
<circle cx="466.0" cy="125.0" r="2.7" fill="white" />
<circle cx="243.0" cy="179.0" r="1.6" fill="white" />
<circle cx="66.0" cy="39.0" r="2.3" fill="white" />
<circle cx="288.0" cy="55.0" r="1.8" fill="white" />
<path d="M 20 430 C 106 421, 178 454, 286 422 S 450 389, 512 419" stroke="#5dade2" stroke-width="6" fill="none" opacity="0.85" />
<line x1="0" y1="386" x2="512" y2="386" stroke="#445566" stroke-width="3" />
<polygon points="175,351 215,291 255,311 275,281 295,301 307,341 275,363 225,367" fill="#1e1e1e" />
<polygon points="250,291 263,269 273,293" fill="#1e1e1e" />
<line x1="305" y1="336" x2="335" y2="311" stroke="#1e1e1e" stroke-width="6" />
</svg>
