<svg xmlns="http://www.w3.org/2000/svg" width="512" height="512" viewBox="0 0 512 512">
<rect width="100%" height="100%" fill="#0b1020"/>
<circle cx="362" cy="91" r="42" fill="#f8f3c9" opacity="0.95" />
<circle cx="432.0" cy="93.0" r="3.3" fill="white" />
<circle cx="117.0" cy="103.0" r="2.9" fill="white" />
<circle cx="86.0" cy="120.0" r="2.6" fill="white" />
<circle cx="346.0" cy="47.0" r="3.1" fill="white" />
<circle cx="337.0" cy="42.0" r="1.8" fill="white" />
<path d="M 20 430 C 126 414, 190 457, 307 423 S 450 388, 512 418" stroke="#5dade2" stroke-width="8" fill="none" opacity="0.85" />
<line x1="0" y1="390" x2="512" y2="390" stroke="#445566" stroke-width="2" />
<polygon points="213,365 253,305 293,325 313,295 333,315 345,355 313,377 263,381" fill="#1e1e1e" />
<polygon points="288,305 301,283 311,307" fill="#1e1e1e" />
<line x1="343" y1="350" x2="373" y2="325" stroke="#1e1e1e" stroke-width="6" />
</svg>
