<svg xmlns="http://www.w3.org/2000/svg" width="512" height="512" viewBox="0 0 512 512">
<rect width="100%" height="100%" fill="#0b1020"/>
<circle cx="382" cy="100" r="50" fill="#f8f3c9" opacity="0.95" />
<circle cx="162.0" cy="95.0" r="3.2" fill="white" />
<circle cx="37.0" cy="141.0" r="2.0" fill="white" />
<circle cx="59.0" cy="162.0" r="2.2" fill="white" />
<circle cx="34.0" cy="130.0" r="1.8" fill="white" />
<circle cx="55.0" cy="119.0" r="3.4" fill="white" />
<circle cx="50.0" cy="163.0" r="3.0" fill="white" />
<circle cx="220.0" cy="45.0" r="2.2" fill="white" />
<circle cx="371.0" cy="147.0" r="3.2" fill="white" />
<circle cx="326.0" cy="155.0" r="3.2" fill="white" />
<circle cx="79.0" cy="148.0" r="3.2" fill="white" />
<circle cx="345.0" cy="59.0" r="3.4" fill="white" />
<circle cx="196.0" cy="107.0" r="2.1" fill="white" />
<path d="M 20 430 C 136 422, 195 458, 280 432 S 450 404, 512 434" stroke="#5dade2" stroke-width="6" fill="none" opacity="0.85" />
<line x1="0" y1="413" x2="512" y2="413" stroke="#445566" stroke-width="3" />
<polygon points="144,360 184,300 224,320 244,290 264,310 276,350 244,372 194,376" fill="#1e1e1e" />
<polygon points="219,300 232,278 242,302" fill="#1e1e1e" />
<line x1="274" y1="345" x2="304" y2="320" stroke="#1e1e1e" stroke-width="6" />
</svg>
