<svg xmlns="http://www.w3.org/2000/svg" width="512" height="512" viewBox="0 0 512 512">
<rect width="100%" height="100%" fill="#0b1020"/>
<circle cx="358" cy="101" r="52" fill="#f8f3c9" opacity="0.95" />
<circle cx="402.0" cy="155.0" r="2.0" fill="white" />
<circle cx="389.0" cy="69.0" r="2.1" fill="white" />
<circle cx="184.0" cy="132.0" r="2.6" fill="white" />
<circle cx="389.0" cy="169.0" r="2.1" fill="white" />
<circle cx="300.0" cy="143.0" r="1.8" fill="white" />
<circle cx="355.0" cy="63.0" r="2.3" fill="white" />
<circle cx="32.0" cy="86.0" r="2.8" fill="white" />
<circle cx="289.0" cy="100.0" r="1.8" fill="white" />
<circle cx="394.0" cy="122.0" r="1.9" fill="white" />
<circle cx="471.0" cy="168.0" r="2.2" fill="white" />
<circle cx="166.0" cy="131.0" r="2.9" fill="white" />
<path d="M 20 430 C 107 417, 175 448, 294 421 S 450 375, 512 405" stroke="#5dade2" stroke-width="8" fill="none" opacity="0.85" />
<line x1="0" y1="394" x2="512" y2="394" stroke="#445566" stroke-width="2" />
<polygon points="177,362 217,302 257,322 277,292 297,312 309,352 277,374 227,378" fill="#1e1e1e" />
<polygon points="252,302 265,280 275,304" fill="#1e1e1e" />
<line x1="307" y1="347" x2="337" y2="322" stroke="#1e1e1e" stroke-width="6" />
</svg>
