<svg xmlns="http://www.w3.org/2000/svg" width="512" height="512" viewBox="0 0 512 512">
<rect width="100%" height="100%" fill="#0b1020"/>
<circle cx="369" cy="65" r="41" fill="#f8f3c9" opacity="0.95" />
<circle cx="280.0" cy="113.0" r="2.1" fill="white" />
<circle cx="333.0" cy="101.0" r="2.4" fill="white" />
<circle cx="106.0" cy="156.0" r="3.2" fill="white" />
<circle cx="150.0" cy="65.0" r="3.4" fill="white" />
<circle cx="314.0" cy="51.0" r="2.1" fill="white" />
<path d="M 20 430 C 122 428, 192 451, 314 437 S 450 380, 512 410" stroke="#5dade2" stroke-width="6" fill="none" opacity="0.85" />
<line x1="0" y1="398" x2="512" y2="398" stroke="#445566" stroke-width="3" />
<polygon points="147,357 187,297 227,317 247,287 267,307 279,347 247,369 197,373" fill="#1e1e1e" />
<polygon points="222,297 235,275 245,299" fill="#1e1e1e" />
<line x1="277" y1="342" x2="307" y2="317" stroke="#1e1e1e" stroke-width="6" />
</svg>
