<svg xmlns="http://www.w3.org/2000/svg" width="512" height="512" viewBox="0 0 512 512">
<rect width="100%" height="100%" fill="#0b1020"/>
<circle cx="425" cy="79" r="46" fill="#f8f3c9" opacity="0.95" />
<circle cx="475.0" cy="50.0" r="2.4" fill="white" />
<circle cx="389.0" cy="28.0" r="2.6" fill="white" />
<circle cx="33.0" cy="126.0" r="2.7" fill="white" />
<circle cx="193.0" cy="166.0" r="2.8" fill="white" />
<circle cx="131.0" cy="133.0" r="3.4" fill="white" />
<circle cx="26.0" cy="148.0" r="2.4" fill="white" />
<circle cx="88.0" cy="45.0" r="1.8" fill="white" />
<path d="M 20 430 C 130 412, 177 444, 320 433 S 450 393, 512 423" stroke="#5dade2" stroke-width="7" fill="none" opacity="0.85" />
<line x1="0" y1="411" x2="512" y2="411" stroke="#445566" stroke-width="3" />
<polygon points="150,361 190,301 230,321 250,291 270,311 282,351 250,373 200,377" fill="#1e1e1e" />
<polygon points="225,301 238,279 248,303" fill="#1e1e1e" />
<line x1="280" y1="346" x2="310" y2="321" stroke="#1e1e1e" stroke-width="6" />
</svg>
