<svg xmlns="http://www.w3.org/2000/svg" width="512" height="512" viewBox="0 0 512 512">
<rect width="100%" height="100%" fill="#0b1020"/>
<circle cx="452" cy="69" r="46" fill="#f8f3c9" opacity="0.95" />
<circle cx="84.0" cy="105.0" r="2.2" fill="white" />
<circle cx="325.0" cy="146.0" r="2.9" fill="white" />
<circle cx="438.0" cy="56.0" r="2.1" fill="white" />
<circle cx="203.0" cy="62.0" r="1.8" fill="white" />
<circle cx="269.0" cy="137.0" r="1.9" fill="white" />
<circle cx="230.0" cy="164.0" r="2.0" fill="white" />
<circle cx="218.0" cy="28.0" r="2.2" fill="white" />
<circle cx="450.0" cy="161.0" r="2.6" fill="white" />
<circle cx="55.0" cy="92.0" r="2.9" fill="white" />
<circle cx="160.0" cy="127.0" r="2.8" fill="white" />
<circle cx="81.0" cy="135.0" r="1.8" fill="white" />
<path d="M 20 430 C 103 413, 197 453, 316 437 S 450 393, 512 423" stroke="#5dade2" stroke-width="6" fill="none" opacity="0.85" />
<line x1="0" y1="411" x2="512" y2="411" stroke="#445566" stroke-width="2" />
<polygon points="191,351 231,291 271,311 291,281 311,301 323,341 291,363 241,367" fill="#1e1e1e" />
<polygon points="266,291 279,269 289,293" fill="#1e1e1e" />
<line x1="321" y1="336" x2="351" y2="311" stroke="#1e1e1e" stroke-width="6" />
</svg>
