<svg xmlns="http://www.w3.org/2000/svg" width="512" height="512" viewBox="0 0 512 512">
<rect width="100%" height="100%" fill="#0b1020"/>
<circle cx="418" cy="68" r="54" fill="#f8f3c9" opacity="0.95" />
<circle cx="365.0" cy="105.0" r="2.7" fill="white" />
<circle cx="69.0" cy="90.0" r="2.1" fill="white" />
<circle cx="293.0" cy="100.0" r="1.6" fill="white" />
<circle cx="218.0" cy="66.0" r="2.3" fill="white" />
<circle cx="262.0" cy="77.0" r="2.9" fill="white" />
<circle cx="360.0" cy="126.0" r="3.2" fill="white" />
<circle cx="345.0" cy="26.0" r="1.6" fill="white" />
<circle cx="394.0" cy="77.0" r="1.7" fill="white" />
<circle cx="434.0" cy="127.0" r="2.4" fill="white" />
<circle cx="484.0" cy="120.0" r="2.6" fill="white" />
<circle cx="50.0" cy="95.0" r="2.7" fill="white" />
<circle cx="392.0" cy="90.0" r="1.6" fill="white" />
<path d="M 20 430 C 107 416, 176 445, 295 430 S 450 381, 512 411" stroke="#5dade2" stroke-width="8" fill="none" opacity="0.85" />
<line x1="0" y1="395" x2="512" y2="395" stroke="#445566" stroke-width="3" />
<polygon points="171,357 211,297 251,317 271,287 291,307 303,347 271,369 221,373" fill="#1e1e1e" />
<polygon points="246,297 259,275 269,299" fill="#1e1e1e" />
<line x1="301" y1="342" x2="331" y2="317" stroke="#1e1e1e" stroke-width="6" />
</svg>
