<svg xmlns="http://www.w3.org/2000/svg" width="512" height="512" viewBox="0 0 512 512">
<rect width="100%" height="100%" fill="#0b1020"/>
<circle cx="386" cy="66" r="46" fill="#f8f3c9" opacity="0.95" />
<circle cx="161.0" cy="112.0" r="3.0" fill="white" />
<circle cx="330.0" cy="88.0" r="2.9" fill="white" />
<circle cx="339.0" cy="24.0" r="2.1" fill="white" />
<circle cx="309.0" cy="118.0" r="3.3" fill="white" />
<circle cx="488.0" cy="129.0" r="1.8" fill="white" />
<circle cx="120.0" cy="91.0" r="2.8" fill="white" />
<circle cx="187.0" cy="157.0" r="2.9" fill="white" />
<circle cx="280.0" cy="107.0" r="3.2" fill="white" />
<circle cx="30.0" cy="29.0" r="2.2" fill="white" />
<circle cx="100.0" cy="95.0" r="1.8" fill="white" />
<circle cx="286.0" cy="176.0" r="2.5" fill="white" />
<circle cx="440.0" cy="137.0" r="2.9" fill="white" />
<path d="M 20 430 C 122 428, 165 444, 290 428 S 450 381, 512 411" stroke="#5dade2" stroke-width="5" fill="none" opacity="0.85" />
<line x1="0" y1="387" x2="512" y2="387" stroke="#445566" stroke-width="2" />
<polygon points="160,364 200,304 240,324 260,294 280,314 292,354 260,376 210,380" fill="#1e1e1e" />
<polygon points="235,304 248,282 258,306" fill="#1e1e1e" />
<line x1="290" y1="349" x2="320" y2="324" stroke="#1e1e1e" stroke-width="6" />
</svg>
