<svg xmlns="http://www.w3.org/2000/svg" width="512" height="512" viewBox="0 0 512 512">
<rect width="100%" height="100%" fill="#0b1020"/>
<circle cx="392" cy="111" r="42" fill="#f8f3c9" opacity="0.95" />
<circle cx="247.0" cy="55.0" r="2.8" fill="white" />
<circle cx="461.0" cy="54.0" r="3.1" fill="white" />
<circle cx="458.0" cy="102.0" r="2.4" fill="white" />
<circle cx="276.0" cy="79.0" r="3.3" fill="white" />
<circle cx="398.0" cy="33.0" r="2.6" fill="white" />
<circle cx="153.0" cy="127.0" r="1.7" fill="white" />
<path d="M 20 430 C 132 423, 198 445, 291 425 S 450 398, 512 428" stroke="#5dade2" stroke-width="8" fill="none" opacity="0.85" />
<line x1="0" y1="394" x2="512" y2="394" stroke="#445566" stroke-width="2" />
<polygon points="146,357 186,297 226,317 246,287 266,307 278,347 246,369 196,373" fill="#1e1e1e" />
<polygon points="221,297 234,275 244,299" fill="#1e1e1e" />
<line x1="276" y1="342" x2="306" y2="317" stroke="#1e1e1e" stroke-width="6" />
</svg>
