<svg xmlns="http://www.w3.org/2000/svg" width="512" height="512" viewBox="0 0 512 512">
<rect width="100%" height="100%" fill="#0b1020"/>
<circle cx="453" cy="66" r="49" fill="#f8f3c9" opacity="0.95" />
<circle cx="47.0" cy="87.0" r="2.0" fill="white" />
<circle cx="469.0" cy="163.0" r="3.4" fill="white" />
<circle cx="98.0" cy="58.0" r="2.8" fill="white" />
<circle cx="380.0" cy="149.0" r="3.4" fill="white" />
<circle cx="261.0" cy="60.0" r="1.6" fill="white" />
<circle cx="128.0" cy="24.0" r="2.1" fill="white" />
<circle cx="286.0" cy="112.0" r="1.9" fill="white" />
<circle cx="283.0" cy="42.0" r="2.5" fill="white" />
<circle cx="413.0" cy="162.0" r="2.9" fill="white" />
<circle cx="271.0" cy="164.0" r="2.8" fill="white" />
<circle cx="403.0" cy="29.0" r="2.7" fill="white" />
<circle cx="426.0" cy="147.0" r="3.4" fill="white" />
<circle cx="374.0" cy="65.0" r="2.0" fill="white" />
<path d="M 20 430 C 133 417, 174 452, 312 427 S 450 400, 512 430" stroke="#5dade2" stroke-width="8" fill="none" opacity="0.85" />
<line x1="0" y1="407" x2="512" y2="407" stroke="#445566" stroke-width="3" />
<polygon points="148,351 188,291 228,311 248,281 268,301 280,341 248,363 198,367" fill="#1e1e1e" />
<polygon points="223,291 236,269 246,293" fill="#1e1e1e" />
<line x1="278" y1="336" x2="308" y2="311" stroke="#1e1e1e" stroke-width="6" />
</svg>
