<svg xmlns="http://www.w3.org/2000/svg" width="512" height="512" viewBox="0 0 512 512">
<rect width="100%" height="100%" fill="#0b1020"/>
<circle cx="440" cy="93" r="42" fill="#f8f3c9" opacity="0.95" />
<circle cx="27.0" cy="90.0" r="2.0" fill="white" />
<circle cx="239.0" cy="151.0" r="2.4" fill="white" />
<circle cx="36.0" cy="104.0" r="3.0" fill="white" />
<circle cx="27.0" cy="124.0" r="2.0" fill="white" />
<circle cx="29.0" cy="84.0" r="2.4" fill="white" />
<circle cx="41.0" cy="173.0" r="2.8" fill="white" />
<circle cx="411.0" cy="178.0" r="3.4" fill="white" />
<circle cx="306.0" cy="168.0" r="2.7" fill="white" />
<circle cx="160.0" cy="158.0" r="1.8" fill="white" />
<circle cx="277.0" cy="125.0" r="2.5" fill="white" />
<circle cx="21.0" cy="28.0" r="1.6" fill="white" />
<circle cx="23.0" cy="24.0" r="2.7" fill="white" />
<circle cx="460.0" cy="113.0" r="3.3" fill="white" />
<circle cx="86.0" cy="90.0" r="2.6" fill="white" />
<circle cx="359.0" cy="43.0" r="2.7" fill="white" />
<path d="M 20 430 C 106 419, 179 454, 301 422 S 450 386, 512 416" stroke="#5dade2" stroke-width="8" fill="none" opacity="0.85" />
<line x1="0" y1="405" x2="512" y2="405" stroke="#445566" stroke-width="3" />
<polygon points="210,362 250,302 290,322 310,292 330,312 342,352 310,374 260,378" fill="#1e1e1e" />
<polygon points="285,302 298,280 308,304" fill="#1e1e1e" />
<line x1="340" y1="347" x2="370" y2="322" stroke="#1e1e1e" stroke-width="6" />
</svg>
