<svg xmlns="http://www.w3.org/2000/svg" width="512" height="512" viewBox="0 0 512 512">
<rect width="100%" height="100%" fill="#0b1020"/>
<circle cx="433" cy="103" r="45" fill="#f8f3c9" opacity="0.95" />
<circle cx="480.0" cy="60.0" r="2.8" fill="white" />
<circle cx="213.0" cy="106.0" r="3.0" fill="white" />
<circle cx="246.0" cy="168.0" r="2.9" fill="white" />
<circle cx="52.0" cy="22.0" r="2.0" fill="white" />
<circle cx="398.0" cy="65.0" r="2.3" fill="white" />
<path d="M 20 430 C 131 429, 194 443, 294 424 S 450 385, 512 415" stroke="#5dade2" stroke-width="5" fill="none" opacity="0.85" />
<line x1="0" y1="412" x2="512" y2="412" stroke="#445566" stroke-width="2" />
<polygon points="200,350 240,290 280,310 300,280 320,300 332,340 300,362 250,366" fill="#1e1e1e" />
<polygon points="275,290 288,268 298,292" fill="#1e1e1e" />
<line x1="330" y1="335" x2="360" y2="310" stroke="#1e1e1e" stroke-width="6" />
</svg>
