<svg xmlns="http://www.w3.org/2000/svg" width="512" height="512" viewBox="0 0 512 512">
<rect width="100%" height="100%" fill="#0b1020"/>
<circle cx="460" cy="103" r="51" fill="#f8f3c9" opacity="0.95" />
<circle cx="422.0" cy="70.0" r="3.4" fill="white" />
<circle cx="217.0" cy="114.0" r="2.1" fill="white" />
<circle cx="75.0" cy="38.0" r="2.5" fill="white" />
<circle cx="474.0" cy="106.0" r="3.3" fill="white" />
<circle cx="370.0" cy="100.0" r="2.2" fill="white" />
<circle cx="349.0" cy="90.0" r="3.0" fill="white" />
<circle cx="185.0" cy="60.0" r="2.1" fill="white" />
<circle cx="479.0" cy="110.0" r="1.5" fill="white" />
<circle cx="331.0" cy="87.0" r="1.7" fill="white" />
<circle cx="267.0" cy="58.0" r="2.9" fill="white" />
<circle cx="37.0" cy="22.0" r="2.9" fill="white" />
<circle cx="301.0" cy="113.0" r="2.1" fill="white" />
<path d="M 20 430 C 118 428, 179 446, 300 428 S 450 396, 512 426" stroke="#5dade2" stroke-width="5" fill="none" opacity="0.85" />
<line x1="0" y1="398" x2="512" y2="398" stroke="#445566" stroke-width="3" />
<polygon points="183,358 223,298 263,318 283,288 303,308 315,348 283,370 233,374" fill="#1e1e1e" />
<polygon points="258,298 271,276 281,300" fill="#1e1e1e" />
<line x1="313" y1="343" x2="343" y2="318" stroke="#1e1e1e" stroke-width="6" />
</svg>
