<svg xmlns="http://www.w3.org/2000/svg" width="512" height="512" viewBox="0 0 512 512">
<rect width="100%" height="100%" fill="black"/>
<circle cx="256.00" cy="256.00" r="2" fill="hsl(0, 80%, 65%)" />
<circle cx="250.29" cy="261.23" r="3" fill="hsl(10, 80%, 65%)" />
<circle cx="256.96" cy="245.10" r="4" fill="hsl(20, 80%, 65%)" />
<circle cx="264.15" cy="266.64" r="5" fill="hsl(30, 80%, 65%)" />
<circle cx="240.76" cy="253.30" r="6" fill="hsl(40, 80%, 65%)" />
<circle cx="270.60" cy="246.71" r="2" fill="hsl(50, 80%, 65%)" />
<circle cx="251.08" cy="274.30" r="3" fill="hsl(60, 80%, 65%)" />
<circle cx="246.56" cy="237.83" r="4" fill="hsl(70, 80%, 65%)" />
<circle cx="276.56" cy="263.51" r="5" fill="hsl(80, 80%, 65%)" />
<circle cx="234.54" cy="264.86" r="6" fill="hsl(90, 80%, 65%)" />
<circle cx="266.37" cy="233.84" r="2" fill="hsl(100, 80%, 65%)" />
<circle cx="263.68" cy="280.49" r="3" fill="hsl(110, 80%, 65%)" />
<circle cx="232.81" cy="242.56" r="4" fill="hsl(120, 80%, 65%)" />
<circle cx="283.25" cy="250.01" r="5" fill="hsl(130, 80%, 65%)" />
<circle cx="239.35" cy="279.69" r="6" fill="hsl(140, 80%, 65%)" />
<circle cx="252.15" cy="226.28" r="2" fill="hsl(150, 80%, 65%)" />
<circle cx="279.67" cy="275.95" r="3" fill="hsl(160, 80%, 65%)" />
<circle cx="224.12" cy="257.32" r="4" fill="hsl(170, 80%, 65%)" />
<circle cx="279.27" cy="232.84" r="5" fill="hsl(180, 80%, 65%)" />
<circle cx="254.44" cy="289.69" r="6" fill="hsl(190, 80%, 65%)" />
<circle cx="233.83" cy="229.43" r="2" fill="hsl(200, 80%, 65%)" />
<circle cx="291.14" cy="260.73" r="3" fill="hsl(210, 80%, 65%)" />
<circle cx="226.21" cy="276.73" r="4" fill="hsl(220, 80%, 65%)" />
<circle cx="264.15" cy="219.79" r="5" fill="hsl(230, 80%, 65%)" />
<circle cx="274.85" cy="288.89" r="6" fill="hsl(240, 80%, 65%)" />
<circle cx="219.14" cy="244.24" r="2" fill="hsl(250, 80%, 65%)" />
<circle cx="291.82" cy="239.45" r="3" fill="hsl(260, 80%, 65%)" />
<circle cx="240.48" cy="293.09" r="4" fill="hsl(270, 80%, 65%)" />
<circle cx="242.14" cy="217.47" r="5" fill="hsl(280, 80%, 65%)" />
<circle cx="292.89" cy="275.39" r="6" fill="hsl(290, 80%, 65%)" />
<circle cx="215.02" cy="266.80" r="2" fill="hsl(300, 80%, 65%)" />
<circle cx="279.30" cy="219.76" r="3" fill="hsl(310, 80%, 65%)" />
<circle cx="263.41" cy="299.14" r="4" fill="hsl(320, 80%, 65%)" />
<circle cx="220.85" cy="228.78" r="5" fill="hsl(330, 80%, 65%)" />
<circle cx="300.97" cy="252.27" r="6" fill="hsl(340, 80%, 65%)" />
<circle cx="224.91" cy="289.61" r="2" fill="hsl(350, 80%, 65%)" />
<circle cx="256.23" cy="209.57" r="3" fill="hsl(0, 80%, 65%)" />
<circle cx="287.63" cy="290.86" r="4" fill="hsl(10, 80%, 65%)" />
<circle cx="208.50" cy="251.60" r="5" fill="hsl(20, 80%, 65%)" />
<circle cx="294.49" cy="226.78" r="6" fill="hsl(30, 80%, 65%)" />
<circle cx="247.24" cy="304.15" r="2" fill="hsl(40, 80%, 65%)" />
<circle cx="229.61" cy="214.06" r="3" fill="hsl(50, 80%, 65%)" />
<circle cx="304.37" cy="269.26" r="4" fill="hsl(60, 80%, 65%)" />
<circle cx="210.85" cy="279.17" r="5" fill="hsl(70, 80%, 65%)" />
<circle cx="273.84" cy="207.87" r="6" fill="hsl(80, 80%, 65%)" />
<circle cx="275.57" cy="304.08" r="2" fill="hsl(90, 80%, 65%)" />
<circle cx="208.57" cy="233.52" r="3" fill="hsl(100, 80%, 65%)" />
<circle cx="306.70" cy="240.37" r="4" fill="hsl(110, 80%, 65%)" />
<circle cx="228.89" cy="302.25" r="5" fill="hsl(120, 80%, 65%)" />
<circle cx="244.63" cy="203.04" r="6" fill="hsl(130, 80%, 65%)" />
<circle cx="300.61" cy="287.69" r="2" fill="hsl(140, 80%, 65%)" />
<circle cx="201.16" cy="262.83" r="3" fill="hsl(150, 80%, 65%)" />
<circle cx="292.17" cy="213.51" r="4" fill="hsl(160, 80%, 65%)" />
<circle cx="258.05" cy="312.30" r="5" fill="hsl(170, 80%, 65%)" />
<circle cx="216.09" cy="215.50" r="6" fill="hsl(180, 80%, 65%)" />
<circle cx="313.31" cy="258.93" r="2" fill="hsl(190, 80%, 65%)" />
<circle cx="211.36" cy="292.88" r="3" fill="hsl(200, 80%, 65%)" />
<circle cx="264.07" cy="198.14" r="4" fill="hsl(210, 80%, 65%)" />
<circle cx="289.42" cy="304.54" r="5" fill="hsl(220, 80%, 65%)" />
<circle cx="198.07" cy="242.67" r="6" fill="hsl(230, 80%, 65%)" />
<circle cx="308.15" cy="226.45" r="2" fill="hsl(240, 80%, 65%)" />
<circle cx="237.35" cy="313.49" r="3" fill="hsl(250, 80%, 65%)" />
<circle cx="230.71" cy="200.56" r="4" fill="hsl(260, 80%, 65%)" />
<circle cx="312.54" cy="279.99" r="5" fill="hsl(270, 80%, 65%)" />
<circle cx="197.65" cy="276.67" r="6" fill="hsl(280, 80%, 65%)" />
<circle cx="285.29" cy="200.92" r="2" fill="hsl(290, 80%, 65%)" />
<circle cx="271.73" cy="316.87" r="3" fill="hsl(300, 80%, 65%)" />
<circle cx="202.89" cy="221.48" r="4" fill="hsl(310, 80%, 65%)" />
<circle cx="318.94" cy="245.50" r="5" fill="hsl(320, 80%, 65%)" />
<circle cx="216.39" cy="306.63" r="6" fill="hsl(330, 80%, 65%)" />
<circle cx="250.97" cy="191.45" r="2" fill="hsl(340, 80%, 65%)" />
<circle cx="303.65" cy="300.51" r="3" fill="hsl(350, 80%, 65%)" />
<circle cx="190.34" cy="255.36" r="4" fill="hsl(0, 80%, 65%)" />
<circle cx="305.19" cy="211.82" r="5" fill="hsl(10, 80%, 65%)" />
<circle cx="249.53" cy="322.25" r="6" fill="hsl(20, 80%, 65%)" />
<circle cx="215.75" cy="202.42" r="2" fill="hsl(30, 80%, 65%)" />
<circle cx="322.31" cy="268.40" r="3" fill="hsl(40, 80%, 65%)" />
<circle cx="198.35" cy="291.88" r="4" fill="hsl(50, 80%, 65%)" />
<circle cx="274.39" cy="190.18" r="5" fill="hsl(60, 80%, 65%)" />
<circle cx="287.10" cy="317.34" r="6" fill="hsl(70, 80%, 65%)" />
<circle cx="191.22" cy="231.62" r="2" fill="hsl(80, 80%, 65%)" />
<circle cx="320.63" cy="230.06" r="3" fill="hsl(90, 80%, 65%)" />
<circle cx="225.68" cy="319.17" r="4" fill="hsl(100, 80%, 65%)" />
<circle cx="235.56" cy="188.53" r="5" fill="hsl(110, 80%, 65%)" />
<circle cx="317.01" cy="292.16" r="6" fill="hsl(120, 80%, 65%)" />
<circle cx="186.17" cy="270.64" r="2" fill="hsl(130, 80%, 65%)" />
<circle cx="297.84" cy="197.70" r="3" fill="hsl(140, 80%, 65%)" />
<circle cx="264.58" cy="327.67" r="4" fill="hsl(150, 80%, 65%)" />
<circle cx="200.95" cy="208.68" r="5" fill="hsl(160, 80%, 65%)" />
<circle cx="328.97" cy="253.70" r="6" fill="hsl(170, 80%, 65%)" />
<circle cx="203.46" cy="307.27" r="2" fill="hsl(180, 80%, 65%)" />
<circle cx="260.13" cy="182.30" r="3" fill="hsl(190, 80%, 65%)" />
<circle cx="303.00" cy="313.45" r="4" fill="hsl(200, 80%, 65%)" />
<circle cx="182.14" cy="245.33" r="5" fill="hsl(210, 80%, 65%)" />
<circle cx="318.00" cy="213.75" r="6" fill="hsl(220, 80%, 65%)" />
<circle cx="238.73" cy="329.42" r="2" fill="hsl(230, 80%, 65%)" />
<circle cx="218.95" cy="189.85" r="3" fill="hsl(240, 80%, 65%)" />
<circle cx="328.38" cy="279.87" r="4" fill="hsl(250, 80%, 65%)" />
<circle cx="186.15" cy="287.45" r="5" fill="hsl(260, 80%, 65%)" />
<circle cx="286.42" cy="185.27" r="6" fill="hsl(270, 80%, 65%)" />
<circle cx="281.48" cy="329.07" r="2" fill="hsl(280, 80%, 65%)" />
<circle cx="187.52" cy="219.15" r="3" fill="hsl(290, 80%, 65%)" />
<circle cx="331.76" cy="236.82" r="4" fill="hsl(300, 80%, 65%)" />
<circle cx="212.88" cy="321.64" r="5" fill="hsl(310, 80%, 65%)" />
<circle cx="243.39" cy="178.10" r="6" fill="hsl(320, 80%, 65%)" />
<circle cx="318.21" cy="305.16" r="2" fill="hsl(330, 80%, 65%)" />
<circle cx="176.54" cy="261.80" r="3" fill="hsl(340, 80%, 65%)" />
<circle cx="310.93" cy="197.77" r="4" fill="hsl(350, 80%, 65%)" />
<circle cx="254.82" cy="336.41" r="5" fill="hsl(0, 80%, 65%)" />
<circle cx="202.30" cy="195.64" r="6" fill="hsl(10, 80%, 65%)" />
<circle cx="336.74" cy="264.28" r="2" fill="hsl(20, 80%, 65%)" />
<circle cx="190.58" cy="304.65" r="3" fill="hsl(30, 80%, 65%)" />
<circle cx="271.44" cy="175.58" r="4" fill="hsl(40, 80%, 65%)" />
<circle cx="299.13" cy="326.05" r="5" fill="hsl(50, 80%, 65%)" />
<circle cx="176.53" cy="233.39" r="6" fill="hsl(60, 80%, 65%)" />
<circle cx="330.20" cy="218.83" r="2" fill="hsl(70, 80%, 65%)" />
<circle cx="226.27" cy="333.86" r="3" fill="hsl(80, 80%, 65%)" />
<circle cx="225.20" cy="178.17" r="4" fill="hsl(90, 80%, 65%)" />
<circle cx="331.61" cy="292.74" r="5" fill="hsl(100, 80%, 65%)" />
<circle cx="175.09" cy="280.08" r="6" fill="hsl(110, 80%, 65%)" />
<circle cx="299.57" cy="183.29" r="2" fill="hsl(120, 80%, 65%)" />
<circle cx="273.06" cy="339.39" r="3" fill="hsl(130, 80%, 65%)" />
<circle cx="186.81" cy="205.82" r="4" fill="hsl(140, 80%, 65%)" />
<circle cx="341.26" cy="246.22" r="5" fill="hsl(150, 80%, 65%)" />
<circle cx="199.51" cy="321.07" r="6" fill="hsl(160, 80%, 65%)" />
<circle cx="253.69" cy="169.51" r="2" fill="hsl(170, 80%, 65%)" />
<circle cx="316.36" cy="318.46" r="3" fill="hsl(180, 80%, 65%)" />
<circle cx="168.96" cy="250.70" r="4" fill="hsl(190, 80%, 65%)" />
<circle cx="324.03" cy="200.90" r="5" fill="hsl(200, 80%, 65%)" />
<circle cx="243.01" cy="342.92" r="6" fill="hsl(210, 80%, 65%)" />
<circle cx="206.67" cy="182.85" r="2" fill="hsl(220, 80%, 65%)" />
<circle cx="342.12" cy="276.70" r="3" fill="hsl(230, 80%, 65%)" />
<circle cx="178.22" cy="299.07" r="4" fill="hsl(240, 80%, 65%)" />
<circle cx="284.37" cy="171.39" r="5" fill="hsl(250, 80%, 65%)" />
<circle cx="292.38" cy="337.86" r="6" fill="hsl(260, 80%, 65%)" />
<circle cx="173.58" cy="220.08" r="2" fill="hsl(270, 80%, 65%)" />
<circle cx="341.35" cy="226.70" r="3" fill="hsl(280, 80%, 65%)" />
<circle cx="212.69" cy="335.55" r="4" fill="hsl(290, 80%, 65%)" />
<circle cx="234.12" cy="167.77" r="5" fill="hsl(300, 80%, 65%)" />
<circle cx="332.01" cy="306.46" r="6" fill="hsl(310, 80%, 65%)" />
<circle cx="165.55" cy="270.19" r="2" fill="hsl(320, 80%, 65%)" />
<circle cx="313.32" cy="184.18" r="3" fill="hsl(330, 80%, 65%)" />
<circle cx="262.27" cy="348.00" r="4" fill="hsl(340, 80%, 65%)" />
<circle cx="189.00" cy="192.17" r="5" fill="hsl(350, 80%, 65%)" />
<circle cx="348.84" cy="257.81" r="6" fill="hsl(0, 80%, 65%)" />
<circle cx="186.08" cy="317.59" r="2" fill="hsl(10, 80%, 65%)" />
<circle cx="265.99" cy="163.03" r="3" fill="hsl(20, 80%, 65%)" />
<circle cx="311.62" cy="331.56" r="4" fill="hsl(30, 80%, 65%)" />
<circle cx="163.64" cy="237.80" r="5" fill="hsl(40, 80%, 65%)" />
<circle cx="336.67" cy="206.87" r="6" fill="hsl(50, 80%, 65%)" />
<circle cx="229.62" cy="347.03" r="2" fill="hsl(60, 80%, 65%)" />
<circle cx="213.83" cy="170.77" r="3" fill="hsl(70, 80%, 65%)" />
<circle cx="344.96" cy="290.47" r="4" fill="hsl(80, 80%, 65%)" />
<circle cx="166.83" cy="290.79" r="5" fill="hsl(90, 80%, 65%)" />
<circle cx="298.39" cy="169.83" r="6" fill="hsl(100, 80%, 65%)" />
<circle cx="283.03" cy="348.47" r="2" fill="hsl(110, 80%, 65%)" />
<circle cx="173.34" cy="205.92" r="3" fill="hsl(120, 80%, 65%)" />
<circle cx="351.09" cy="237.03" r="4" fill="hsl(130, 80%, 65%)" />
<circle cx="198.52" cy="334.46" r="5" fill="hsl(140, 80%, 65%)" />
<circle cx="245.35" cy="159.01" r="6" fill="hsl(150, 80%, 65%)" />
<circle cx="329.60" cy="320.53" r="2" fill="hsl(160, 80%, 65%)" />
<circle cx="157.84" cy="258.14" r="3" fill="hsl(170, 80%, 65%)" />
<circle cx="327.16" cy="187.90" r="4" fill="hsl(180, 80%, 65%)" />
<circle cx="249.51" cy="354.58" r="5" fill="hsl(190, 80%, 65%)" />
<circle cx="194.00" cy="178.69" r="6" fill="hsl(200, 80%, 65%)" />
<circle cx="354.23" cy="271.17" r="2" fill="hsl(210, 80%, 65%)" />
<circle cx="173.06" cy="311.33" r="3" fill="hsl(220, 80%, 65%)" />
<circle cx="279.85" cy="158.88" r="4" fill="hsl(230, 80%, 65%)" />
<circle cx="304.16" cy="343.98" r="5" fill="hsl(240, 80%, 65%)" />
<circle cx="160.78" cy="223.56" r="6" fill="hsl(250, 80%, 65%)" />
<circle cx="348.40" cy="215.48" r="2" fill="hsl(260, 80%, 65%)" />
<circle cx="215.12" cy="348.57" r="3" fill="hsl(270, 80%, 65%)" />
<circle cx="223.52" cy="159.85" r="4" fill="hsl(280, 80%, 65%)" />
<circle cx="345.15" cy="305.10" r="5" fill="hsl(290, 80%, 65%)" />
<circle cx="156.81" cy="280.09" r="6" fill="hsl(300, 80%, 65%)" />
<circle cx="313.03" cy="170.99" r="2" fill="hsl(310, 80%, 65%)" />
<circle cx="271.41" cy="357.50" r="3" fill="hsl(320, 80%, 65%)" />
<circle cx="175.85" cy="191.39" r="4" fill="hsl(330, 80%, 65%)" />
<circle cx="359.04" cy="249.49" r="5" fill="hsl(340, 80%, 65%)" />
<circle cx="184.22" cy="330.61" r="6" fill="hsl(350, 80%, 65%)" />
<circle cx="258.53" cy="152.21" r="2" fill="hsl(0, 80%, 65%)" />
<circle cx="324.43" cy="334.46" r="3" fill="hsl(10, 80%, 65%)" />
<circle cx="152.26" cy="244.34" r="4" fill="hsl(20, 80%, 65%)" />
<circle cx="340.60" cy="194.35" r="5" fill="hsl(30, 80%, 65%)" />
<circle cx="235.20" cy="358.89" r="6" fill="hsl(40, 80%, 65%)" />
<circle cx="201.69" cy="165.84" r="2" fill="hsl(50, 80%, 65%)" />
<circle cx="357.22" cy="285.88" r="3" fill="hsl(60, 80%, 65%)" />
<circle cx="160.93" cy="302.47" r="4" fill="hsl(70, 80%, 65%)" />
<circle cx="294.82" cy="157.25" r="5" fill="hsl(80, 80%, 65%)" />
<circle cx="294.18" cy="355.30" r="6" fill="hsl(90, 80%, 65%)" />
<circle cx="160.52" cy="208.45" r="2" fill="hsl(100, 80%, 65%)" />
<circle cx="358.79" cy="226.49" r="3" fill="hsl(110, 80%, 65%)" />
<circle cx="199.99" cy="347.43" r="4" fill="hsl(120, 80%, 65%)" />
<circle cx="235.48" cy="150.47" r="5" fill="hsl(130, 80%, 65%)" />
<circle cx="342.63" cy="320.12" r="6" fill="hsl(140, 80%, 65%)" />
<circle cx="148.53" cy="267.27" r="2" fill="hsl(150, 80%, 65%)" />
<circle cx="327.82" cy="174.89" r="3" fill="hsl(160, 80%, 65%)" />
<circle cx="257.84" cy="364.60" r="4" fill="hsl(170, 80%, 65%)" />
<circle cx="181.10" cy="176.97" r="5" fill="hsl(180, 80%, 65%)" />
<circle cx="364.89" cy="263.70" r="6" fill="hsl(190, 80%, 65%)" />
<circle cx="170.29" cy="324.05" r="2" fill="hsl(200, 80%, 65%)" />
<circle cx="273.28" cy="147.66" r="3" fill="hsl(210, 80%, 65%)" />
<circle cx="316.59" cy="347.78" r="4" fill="hsl(220, 80%, 65%)" />
<circle cx="149.06" cy="229.19" r="5" fill="hsl(230, 80%, 65%)" />
<circle cx="353.21" cy="203.40" r="6" fill="hsl(240, 80%, 65%)" />
<circle cx="219.76" cy="360.70" r="2" fill="hsl(250, 80%, 65%)" />
<circle cx="211.89" cy="154.07" r="3" fill="hsl(260, 80%, 65%)" />
<circle cx="357.62" cy="301.47" r="4" fill="hsl(270, 80%, 65%)" />
<circle cx="150.09" cy="291.20" r="5" fill="hsl(280, 80%, 65%)" />
<circle cx="310.45" cy="158.27" r="6" fill="hsl(290, 80%, 65%)" />
<circle cx="281.93" cy="365.10" r="2" fill="hsl(300, 80%, 65%)" />
<circle cx="162.96" cy="192.92" r="3" fill="hsl(310, 80%, 65%)" />
<circle cx="367.48" cy="239.63" r="4" fill="hsl(320, 80%, 65%)" />
<circle cx="184.69" cy="343.58" r="5" fill="hsl(330, 80%, 65%)" />
<circle cx="249.41" cy="142.99" r="6" fill="hsl(340, 80%, 65%)" />
<circle cx="337.39" cy="335.06" r="2" fill="hsl(350, 80%, 65%)" />
<circle cx="142.32" cy="252.67" r="3" fill="hsl(0, 80%, 65%)" />
<circle cx="342.27" cy="181.49" r="4" fill="hsl(10, 80%, 65%)" />
<circle cx="242.68" cy="369.48" r="5" fill="hsl(20, 80%, 65%)" />
<circle cx="189.01" cy="163.12" r="6" fill="hsl(30, 80%, 65%)" />
<circle cx="368.39" cy="279.29" r="2" fill="hsl(40, 80%, 65%)" />
<circle cx="157.17" cy="314.88" r="3" fill="hsl(50, 80%, 65%)" />
<circle cx="289.18" cy="145.58" r="4" fill="hsl(60, 80%, 65%)" />
<circle cx="306.24" cy="360.07" r="5" fill="hsl(70, 80%, 65%)" />
</svg>
