<svg xmlns="http://www.w3.org/2000/svg" width="512" height="512" viewBox="0 0 512 512">
<rect width="100%" height="100%" fill="#0b1020"/>
<circle cx="458" cy="120" r="46" fill="#f8f3c9" opacity="0.95" />
<circle cx="368.0" cy="123.0" r="1.9" fill="white" />
<circle cx="340.0" cy="39.0" r="2.0" fill="white" />
<circle cx="142.0" cy="82.0" r="2.3" fill="white" />
<circle cx="267.0" cy="165.0" r="2.2" fill="white" />
<circle cx="398.0" cy="143.0" r="2.6" fill="white" />
<circle cx="355.0" cy="103.0" r="3.1" fill="white" />
<circle cx="425.0" cy="163.0" r="2.5" fill="white" />
<circle cx="187.0" cy="49.0" r="3.3" fill="white" />
<path d="M 20 430 C 126 417, 189 449, 316 426 S 450 392, 512 422" stroke="#5dade2" stroke-width="6" fill="none" opacity="0.85" />
<line x1="0" y1="409" x2="512" y2="409" stroke="#445566" stroke-width="3" />
<polygon points="178,350 218,290 258,310 278,280 298,300 310,340 278,362 228,366" fill="#1e1e1e" />
<polygon points="253,290 266,268 276,292" fill="#1e1e1e" />
<line x1="308" y1="335" x2="338" y2="310" stroke="#1e1e1e" stroke-width="6" />
</svg>
