<svg xmlns="http://www.w3.org/2000/svg" width="512" height="512" viewBox="0 0 512 512">
<rect width="100%" height="100%" fill="#0b1020"/>
<circle cx="443" cy="140" r="54" fill="#f8f3c9" opacity="0.95" />
<circle cx="147.0" cy="171.0" r="3.4" fill="white" />
<circle cx="451.0" cy="54.0" r="3.2" fill="white" />
<circle cx="490.0" cy="97.0" r="1.9" fill="white" />
<circle cx="404.0" cy="47.0" r="2.4" fill="white" />
<circle cx="373.0" cy="48.0" r="3.2" fill="white" />
<circle cx="437.0" cy="150.0" r="3.3" fill="white" />
<circle cx="446.0" cy="66.0" r="2.9" fill="white" />
<path d="M 20 430 C 121 410, 160 446, 309 426 S 450 400, 512 430" stroke="#5dade2" stroke-width="5" fill="none" opacity="0.85" />
<line x1="0" y1="387" x2="512" y2="387" stroke="#445566" stroke-width="3" />
<polygon points="219,365 259,305 299,325 319,295 339,315 351,355 319,377 269,381" fill="#1e1e1e" />
<polygon points="294,305 307,283 317,307" fill="#1e1e1e" />
<line x1="349" y1="350" x2="379" y2="325" stroke="#1e1e1e" stroke-width="6" />
</svg>
