<svg xmlns="http://www.w3.org/2000/svg" width="512" height="512" viewBox="0 0 512 512">
<rect width="100%" height="100%" fill="#0b1020"/>
<circle cx="449" cy="101" r="56" fill="#f8f3c9" opacity="0.95" />
<circle cx="96.0" cy="155.0" r="2.0" fill="white" />
<circle cx="317.0" cy="60.0" r="1.9" fill="white" />
<circle cx="167.0" cy="153.0" r="2.9" fill="white" />
<circle cx="203.0" cy="133.0" r="2.0" fill="white" />
<circle cx="76.0" cy="170.0" r="3.4" fill="white" />
<circle cx="483.0" cy="151.0" r="2.7" fill="white" />
<path d="M 20 430 C 137 410, 165 453, 313 436 S 450 405, 512 435" stroke="#5dade2" stroke-width="5" fill="none" opacity="0.85" />
<line x1="0" y1="412" x2="512" y2="412" stroke="#445566" stroke-width="3" />
<polygon points="191,350 231,290 271,310 291,280 311,300 323,340 291,362 241,366" fill="#1e1e1e" />
<polygon points="266,290 279,268 289,292" fill="#1e1e1e" />
<line x1="321" y1="335" x2="351" y2="310" stroke="#1e1e1e" stroke-width="6" />
</svg>
