<svg xmlns="http://www.w3.org/2000/svg" width="512" height="512" viewBox="0 0 512 512">
<rect width="100%" height="100%" fill="#0b1020"/>
<circle cx="414" cy="135" r="50" fill="#f8f3c9" opacity="0.95" />
<circle cx="24.0" cy="94.0" r="3.1" fill="white" />
<circle cx="415.0" cy="39.0" r="1.7" fill="white" />
<circle cx="426.0" cy="62.0" r="3.5" fill="white" />
<circle cx="487.0" cy="27.0" r="2.4" fill="white" />
<circle cx="181.0" cy="74.0" r="2.2" fill="white" />
<circle cx="206.0" cy="130.0" r="2.0" fill="white" />
<circle cx="288.0" cy="102.0" r="1.9" fill="white" />
<circle cx="430.0" cy="91.0" r="2.2" fill="white" />
<circle cx="106.0" cy="110.0" r="2.7" fill="white" />
<circle cx="145.0" cy="110.0" r="2.9" fill="white" />
<circle cx="364.0" cy="159.0" r="1.5" fill="white" />
<circle cx="26.0" cy="109.0" r="2.9" fill="white" />
<circle cx="434.0" cy="105.0" r="1.7" fill="white" />
<circle cx="242.0" cy="132.0" r="3.4" fill="white" />
<circle cx="372.0" cy="38.0" r="3.2" fill="white" />
<path d="M 20 430 C 138 416, 175 451, 294 433 S 450 400, 512 430" stroke="#5dade2" stroke-width="6" fill="none" opacity="0.85" />
<line x1="0" y1="386" x2="512" y2="386" stroke="#445566" stroke-width="4" />
<polygon points="147,358 187,298 227,318 247,288 267,308 279,348 247,370 197,374" fill="#1e1e1e" />
<polygon points="222,298 235,276 245,300" fill="#1e1e1e" />
<line x1="277" y1="343" x2="307" y2="318" stroke="#1e1e1e" stroke-width="6" />
</svg>
