<svg xmlns="http://www.w3.org/2000/svg" width="512" height="512" viewBox="0 0 512 512">
<rect width="100%" height="100%" fill="#0b1020"/>
<circle cx="409" cy="70" r="41" fill="#f8f3c9" opacity="0.95" />
<circle cx="255.0" cy="62.0" r="2.6" fill="white" />
<circle cx="183.0" cy="36.0" r="2.7" fill="white" />
<circle cx="370.0" cy="148.0" r="3.1" fill="white" />
<circle cx="430.0" cy="83.0" r="1.7" fill="white" />
<circle cx="360.0" cy="54.0" r="3.1" fill="white" />
<circle cx="427.0" cy="82.0" r="2.1" fill="white" />
<circle cx="302.0" cy="50.0" r="3.0" fill="white" />
<circle cx="265.0" cy="52.0" r="1.6" fill="white" />
<circle cx="290.0" cy="116.0" r="3.4" fill="white" />
<circle cx="57.0" cy="161.0" r="1.7" fill="white" />
<circle cx="317.0" cy="84.0" r="3.5" fill="white" />
<circle cx="356.0" cy="155.0" r="1.8" fill="white" />
<circle cx="154.0" cy="138.0" r="1.9" fill="white" />
<circle cx="104.0" cy="95.0" r="1.7" fill="white" />
<path d="M 20 430 C 118 421, 192 453, 307 428 S 450 404, 512 434" stroke="#5dade2" stroke-width="6" fill="none" opacity="0.85" />
<line x1="0" y1="410" x2="512" y2="410" stroke="#445566" stroke-width="3" />
<polygon points="157,363 197,303 237,323 257,293 277,313 289,353 257,375 207,379" fill="#1e1e1e" />
<polygon points="232,303 245,281 255,305" fill="#1e1e1e" />
<line x1="287" y1="348" x2="317" y2="323" stroke="#1e1e1e" stroke-width="6" />
</svg>
