<svg xmlns="http://www.w3.org/2000/svg" width="512" height="512" viewBox="0 0 512 512">
<rect width="100%" height="100%" fill="#0b1020"/>
<circle cx="385" cy="84" r="50" fill="#f8f3c9" opacity="0.95" />
<circle cx="475.0" cy="82.0" r="2.7" fill="white" />
<circle cx="128.0" cy="59.0" r="2.6" fill="white" />
<circle cx="339.0" cy="24.0" r="2.9" fill="white" />
<circle cx="356.0" cy="135.0" r="2.9" fill="white" />
<circle cx="183.0" cy="68.0" r="2.4" fill="white" />
<path d="M 20 430 C 113 417, 196 454, 317 420 S 450 396, 512 426" stroke="#5dade2" stroke-width="6" fill="none" opacity="0.85" />
<line x1="0" y1="413" x2="512" y2="413" stroke="#445566" stroke-width="4" />
<polygon points="191,356 231,296 271,316 291,286 311,306 323,346 291,368 241,372" fill="#1e1e1e" />
<polygon points="266,296 279,274 289,298" fill="#1e1e1e" />
<line x1="321" y1="341" x2="351" y2="316" stroke="#1e1e1e" stroke-width="6" />
</svg>
