<svg xmlns="http://www.w3.org/2000/svg" width="512" height="512" viewBox="0 0 512 512">
<rect width="100%" height="100%" fill="black"/>
<circle cx="256.00" cy="256.00" r="2" fill="hsl(0, 80%, 65%)" />
<circle cx="250.38" cy="261.14" r="3" fill="hsl(8, 80%, 65%)" />
<circle cx="256.94" cy="245.27" r="4" fill="hsl(16, 80%, 65%)" />
<circle cx="264.03" cy="266.47" r="5" fill="hsl(24, 80%, 65%)" />
<circle cx="241.00" cy="253.35" r="6" fill="hsl(32, 80%, 65%)" />
<circle cx="270.37" cy="246.86" r="2" fill="hsl(40, 80%, 65%)" />
<circle cx="251.16" cy="274.02" r="3" fill="hsl(48, 80%, 65%)" />
<circle cx="246.71" cy="238.12" r="4" fill="hsl(56, 80%, 65%)" />
<circle cx="276.23" cy="263.39" r="5" fill="hsl(64, 80%, 65%)" />
<circle cx="234.88" cy="264.72" r="6" fill="hsl(72, 80%, 65%)" />
<circle cx="266.21" cy="234.19" r="2" fill="hsl(80, 80%, 65%)" />
<circle cx="263.56" cy="280.10" r="3" fill="hsl(88, 80%, 65%)" />
<circle cx="233.17" cy="242.77" r="4" fill="hsl(96, 80%, 65%)" />
<circle cx="282.82" cy="250.10" r="5" fill="hsl(104, 80%, 65%)" />
<circle cx="239.61" cy="279.31" r="6" fill="hsl(112, 80%, 65%)" />
<circle cx="252.21" cy="226.75" r="2" fill="hsl(120, 80%, 65%)" />
<circle cx="279.29" cy="275.63" r="3" fill="hsl(128, 80%, 65%)" />
<circle cx="224.63" cy="257.30" r="4" fill="hsl(136, 80%, 65%)" />
<circle cx="278.90" cy="233.21" r="5" fill="hsl(144, 80%, 65%)" />
<circle cx="254.47" cy="289.16" r="6" fill="hsl(152, 80%, 65%)" />
<circle cx="234.18" cy="229.85" r="2" fill="hsl(160, 80%, 65%)" />
<circle cx="290.59" cy="260.65" r="3" fill="hsl(168, 80%, 65%)" />
<circle cx="226.68" cy="276.40" r="4" fill="hsl(176, 80%, 65%)" />
<circle cx="264.02" cy="220.37" r="5" fill="hsl(184, 80%, 65%)" />
<circle cx="274.55" cy="288.37" r="6" fill="hsl(192, 80%, 65%)" />
<circle cx="219.72" cy="244.43" r="2" fill="hsl(200, 80%, 65%)" />
<circle cx="291.25" cy="239.71" r="3" fill="hsl(208, 80%, 65%)" />
<circle cx="240.72" cy="292.51" r="4" fill="hsl(216, 80%, 65%)" />
<circle cx="242.36" cy="218.08" r="5" fill="hsl(224, 80%, 65%)" />
<circle cx="292.30" cy="275.08" r="6" fill="hsl(232, 80%, 65%)" />
<circle cx="215.66" cy="266.63" r="2" fill="hsl(240, 80%, 65%)" />
<circle cx="278.93" cy="220.33" r="3" fill="hsl(248, 80%, 65%)" />
<circle cx="263.30" cy="298.46" r="4" fill="hsl(256, 80%, 65%)" />
<circle cx="221.41" cy="229.21" r="5" fill="hsl(264, 80%, 65%)" />
<circle cx="300.26" cy="252.33" r="6" fill="hsl(272, 80%, 65%)" />
<circle cx="225.40" cy="289.07" r="2" fill="hsl(280, 80%, 65%)" />
<circle cx="256.22" cy="210.31" r="3" fill="hsl(288, 80%, 65%)" />
<circle cx="287.13" cy="290.31" r="4" fill="hsl(296, 80%, 65%)" />
<circle cx="209.25" cy="251.67" r="5" fill="hsl(304, 80%, 65%)" />
<circle cx="293.89" cy="227.25" r="6" fill="hsl(312, 80%, 65%)" />
<circle cx="247.38" cy="303.39" r="2" fill="hsl(320, 80%, 65%)" />
<circle cx="230.03" cy="214.73" r="3" fill="hsl(328, 80%, 65%)" />
<circle cx="303.60" cy="269.05" r="4" fill="hsl(336, 80%, 65%)" />
<circle cx="211.57" cy="278.80" r="5" fill="hsl(344, 80%, 65%)" />
<circle cx="273.56" cy="208.63" r="6" fill="hsl(352, 80%, 65%)" />
<circle cx="275.26" cy="303.32" r="2" fill="hsl(0, 80%, 65%)" />
<circle cx="209.32" cy="233.88" r="3" fill="hsl(8, 80%, 65%)" />
<circle cx="305.89" cy="240.62" r="4" fill="hsl(16, 80%, 65%)" />
<circle cx="229.32" cy="301.52" r="5" fill="hsl(24, 80%, 65%)" />
<circle cx="244.81" cy="203.88" r="6" fill="hsl(32, 80%, 65%)" />
<circle cx="299.90" cy="287.19" r="2" fill="hsl(40, 80%, 65%)" />
<circle cx="202.03" cy="262.73" r="3" fill="hsl(48, 80%, 65%)" />
<circle cx="291.60" cy="214.18" r="4" fill="hsl(56, 80%, 65%)" />
<circle cx="258.02" cy="311.41" r="5" fill="hsl(64, 80%, 65%)" />
<circle cx="216.72" cy="216.14" r="6" fill="hsl(72, 80%, 65%)" />
<circle cx="312.41" cy="258.88" r="2" fill="hsl(80, 80%, 65%)" />
<circle cx="212.07" cy="292.30" r="3" fill="hsl(88, 80%, 65%)" />
<circle cx="263.95" cy="199.05" r="4" fill="hsl(96, 80%, 65%)" />
<circle cx="288.89" cy="303.77" r="5" fill="hsl(104, 80%, 65%)" />
<circle cx="198.99" cy="242.88" r="6" fill="hsl(112, 80%, 65%)" />
<circle cx="307.33" cy="226.92" r="2" fill="hsl(120, 80%, 65%)" />
<circle cx="237.65" cy="312.58" r="3" fill="hsl(128, 80%, 65%)" />
<circle cx="231.11" cy="201.44" r="4" fill="hsl(136, 80%, 65%)" />
<circle cx="311.65" cy="279.61" r="5" fill="hsl(144, 80%, 65%)" />
<circle cx="198.57" cy="276.34" r="6" fill="hsl(152, 80%, 65%)" />
<circle cx="284.83" cy="201.79" r="2" fill="hsl(160, 80%, 65%)" />
<circle cx="271.48" cy="315.90" r="3" fill="hsl(168, 80%, 65%)" />
<circle cx="203.73" cy="222.03" r="4" fill="hsl(176, 80%, 65%)" />
<circle cx="317.95" cy="245.66" r="5" fill="hsl(184, 80%, 65%)" />
<circle cx="217.02" cy="305.83" r="6" fill="hsl(192, 80%, 65%)" />
<circle cx="251.05" cy="192.47" r="2" fill="hsl(200, 80%, 65%)" />
<circle cx="302.89" cy="299.81" r="3" fill="hsl(208, 80%, 65%)" />
<circle cx="191.38" cy="255.37" r="4" fill="hsl(216, 80%, 65%)" />
<circle cx="304.41" cy="212.52" r="5" fill="hsl(224, 80%, 65%)" />
<circle cx="249.64" cy="321.20" r="6" fill="hsl(232, 80%, 65%)" />
<circle cx="216.38" cy="203.27" r="2" fill="hsl(240, 80%, 65%)" />
<circle cx="321.26" cy="268.20" r="3" fill="hsl(248, 80%, 65%)" />
<circle cx="199.27" cy="291.32" r="4" fill="hsl(256, 80%, 65%)" />
<circle cx="274.09" cy="191.22" r="5" fill="hsl(264, 80%, 65%)" />
<circle cx="286.61" cy="316.37" r="6" fill="hsl(272, 80%, 65%)" />
<circle cx="192.25" cy="232.01" r="2" fill="hsl(280, 80%, 65%)" />
<circle cx="319.61" cy="230.47" r="3" fill="hsl(288, 80%, 65%)" />
<circle cx="226.16" cy="318.18" r="4" fill="hsl(296, 80%, 65%)" />
<circle cx="235.88" cy="189.60" r="5" fill="hsl(304, 80%, 65%)" />
<circle cx="316.05" cy="291.59" r="6" fill="hsl(312, 80%, 65%)" />
<circle cx="187.28" cy="270.41" r="2" fill="hsl(320, 80%, 65%)" />
<circle cx="297.18" cy="198.62" r="3" fill="hsl(328, 80%, 65%)" />
<circle cx="264.44" cy="326.53" r="4" fill="hsl(336, 80%, 65%)" />
<circle cx="201.82" cy="209.43" r="5" fill="hsl(344, 80%, 65%)" />
<circle cx="327.81" cy="253.73" r="6" fill="hsl(352, 80%, 65%)" />
<circle cx="204.29" cy="306.46" r="2" fill="hsl(0, 80%, 65%)" />
<circle cx="260.06" cy="183.46" r="3" fill="hsl(8, 80%, 65%)" />
<circle cx="302.25" cy="312.54" r="4" fill="hsl(16, 80%, 65%)" />
<circle cx="183.31" cy="245.50" r="5" fill="hsl(24, 80%, 65%)" />
<circle cx="317.02" cy="214.42" r="6" fill="hsl(32, 80%, 65%)" />
<circle cx="239.00" cy="328.26" r="2" fill="hsl(40, 80%, 65%)" />
<circle cx="219.53" cy="190.90" r="3" fill="hsl(48, 80%, 65%)" />
<circle cx="327.23" cy="279.49" r="4" fill="hsl(56, 80%, 65%)" />
<circle cx="187.25" cy="286.95" r="5" fill="hsl(64, 80%, 65%)" />
<circle cx="285.93" cy="186.39" r="6" fill="hsl(72, 80%, 65%)" />
<circle cx="281.08" cy="327.91" r="2" fill="hsl(80, 80%, 65%)" />
<circle cx="188.60" cy="219.73" r="3" fill="hsl(88, 80%, 65%)" />
<circle cx="330.56" cy="237.12" r="4" fill="hsl(96, 80%, 65%)" />
<circle cx="213.57" cy="320.60" r="5" fill="hsl(104, 80%, 65%)" />
<circle cx="243.59" cy="179.33" r="6" fill="hsl(112, 80%, 65%)" />
<circle cx="317.23" cy="304.38" r="2" fill="hsl(120, 80%, 65%)" />
<circle cx="177.80" cy="261.71" r="3" fill="hsl(128, 80%, 65%)" />
<circle cx="310.06" cy="198.70" r="4" fill="hsl(136, 80%, 65%)" />
<circle cx="254.84" cy="335.14" r="5" fill="hsl(144, 80%, 65%)" />
<circle cx="203.15" cy="196.59" r="6" fill="hsl(152, 80%, 65%)" />
<circle cx="335.46" cy="264.15" r="2" fill="hsl(160, 80%, 65%)" />
<circle cx="191.62" cy="303.88" r="3" fill="hsl(168, 80%, 65%)" />
<circle cx="271.20" cy="176.85" r="4" fill="hsl(176, 80%, 65%)" />
<circle cx="298.45" cy="324.94" r="5" fill="hsl(184, 80%, 65%)" />
<circle cx="177.79" cy="233.74" r="6" fill="hsl(192, 80%, 65%)" />
<circle cx="329.02" cy="219.42" r="2" fill="hsl(200, 80%, 65%)" />
<circle cx="226.74" cy="332.63" r="3" fill="hsl(208, 80%, 65%)" />
<circle cx="225.69" cy="179.40" r="4" fill="hsl(216, 80%, 65%)" />
<circle cx="330.41" cy="292.16" r="5" fill="hsl(224, 80%, 65%)" />
<circle cx="176.37" cy="279.70" r="6" fill="hsl(232, 80%, 65%)" />
<circle cx="298.88" cy="184.44" r="2" fill="hsl(240, 80%, 65%)" />
<circle cx="272.79" cy="338.07" r="3" fill="hsl(248, 80%, 65%)" />
<circle cx="187.90" cy="206.62" r="4" fill="hsl(256, 80%, 65%)" />
<circle cx="339.91" cy="246.37" r="5" fill="hsl(264, 80%, 65%)" />
<circle cx="200.40" cy="320.04" r="6" fill="hsl(272, 80%, 65%)" />
<circle cx="253.73" cy="170.88" r="2" fill="hsl(280, 80%, 65%)" />
<circle cx="315.41" cy="317.47" r="3" fill="hsl(288, 80%, 65%)" />
<circle cx="170.33" cy="250.78" r="4" fill="hsl(296, 80%, 65%)" />
<circle cx="322.96" cy="201.77" r="5" fill="hsl(304, 80%, 65%)" />
<circle cx="243.21" cy="341.55" r="6" fill="hsl(312, 80%, 65%)" />
<circle cx="207.45" cy="184.00" r="2" fill="hsl(320, 80%, 65%)" />
<circle cx="340.75" cy="276.37" r="3" fill="hsl(328, 80%, 65%)" />
<circle cx="179.45" cy="298.39" r="4" fill="hsl(336, 80%, 65%)" />
<circle cx="283.92" cy="172.72" r="5" fill="hsl(344, 80%, 65%)" />
<circle cx="291.80" cy="336.56" r="6" fill="hsl(352, 80%, 65%)" />
<circle cx="174.88" cy="220.65" r="2" fill="hsl(0, 80%, 65%)" />
<circle cx="340.00" cy="227.17" r="3" fill="hsl(8, 80%, 65%)" />
<circle cx="213.38" cy="334.29" r="4" fill="hsl(16, 80%, 65%)" />
<circle cx="234.46" cy="169.16" r="5" fill="hsl(24, 80%, 65%)" />
<circle cx="330.81" cy="305.66" r="6" fill="hsl(32, 80%, 65%)" />
<circle cx="166.98" cy="269.96" r="2" fill="hsl(40, 80%, 65%)" />
<circle cx="312.41" cy="185.32" r="3" fill="hsl(48, 80%, 65%)" />
<circle cx="262.17" cy="346.54" r="4" fill="hsl(56, 80%, 65%)" />
<circle cx="190.06" cy="193.18" r="5" fill="hsl(64, 80%, 65%)" />
<circle cx="347.37" cy="257.78" r="6" fill="hsl(72, 80%, 65%)" />
<circle cx="187.18" cy="316.62" r="2" fill="hsl(80, 80%, 65%)" />
<circle cx="265.83" cy="164.50" r="3" fill="hsl(88, 80%, 65%)" />
<circle cx="310.74" cy="330.36" r="4" fill="hsl(96, 80%, 65%)" />
<circle cx="165.10" cy="238.08" r="5" fill="hsl(104, 80%, 65%)" />
<circle cx="335.40" cy="207.64" r="6" fill="hsl(112, 80%, 65%)" />
<circle cx="230.03" cy="345.59" r="2" fill="hsl(120, 80%, 65%)" />
<circle cx="214.49" cy="172.12" r="3" fill="hsl(128, 80%, 65%)" />
<circle cx="343.55" cy="289.92" r="4" fill="hsl(136, 80%, 65%)" />
<circle cx="168.24" cy="290.24" r="5" fill="hsl(144, 80%, 65%)" />
<circle cx="297.72" cy="171.20" r="6" fill="hsl(152, 80%, 65%)" />
<circle cx="282.61" cy="347.01" r="2" fill="hsl(160, 80%, 65%)" />
<circle cx="174.65" cy="206.71" r="3" fill="hsl(168, 80%, 65%)" />
<circle cx="349.58" cy="237.33" r="4" fill="hsl(176, 80%, 65%)" />
<circle cx="199.43" cy="333.22" r="5" fill="hsl(184, 80%, 65%)" />
<circle cx="245.52" cy="160.54" r="6" fill="hsl(192, 80%, 65%)" />
<circle cx="328.44" cy="319.51" r="2" fill="hsl(200, 80%, 65%)" />
<circle cx="159.39" cy="258.11" r="3" fill="hsl(208, 80%, 65%)" />
<circle cx="326.03" cy="188.98" r="4" fill="hsl(216, 80%, 65%)" />
<circle cx="249.61" cy="353.02" r="5" fill="hsl(224, 80%, 65%)" />
<circle cx="194.98" cy="179.91" r="6" fill="hsl(232, 80%, 65%)" />
<circle cx="352.68" cy="270.93" r="2" fill="hsl(240, 80%, 65%)" />
<circle cx="174.38" cy="310.46" r="3" fill="hsl(248, 80%, 65%)" />
<circle cx="279.47" cy="160.42" r="4" fill="hsl(256, 80%, 65%)" />
<circle cx="303.40" cy="342.59" r="5" fill="hsl(264, 80%, 65%)" />
<circle cx="162.28" cy="224.07" r="6" fill="hsl(272, 80%, 65%)" />
<circle cx="346.94" cy="216.12" r="2" fill="hsl(280, 80%, 65%)" />
<circle cx="215.77" cy="347.10" r="3" fill="hsl(288, 80%, 65%)" />
<circle cx="224.04" cy="161.37" r="4" fill="hsl(296, 80%, 65%)" />
<circle cx="343.74" cy="304.32" r="5" fill="hsl(304, 80%, 65%)" />
<circle cx="158.38" cy="279.71" r="6" fill="hsl(312, 80%, 65%)" />
<circle cx="312.13" cy="172.34" r="2" fill="hsl(320, 80%, 65%)" />
<circle cx="271.17" cy="355.89" r="3" fill="hsl(328, 80%, 65%)" />
<circle cx="177.12" cy="192.41" r="4" fill="hsl(336, 80%, 65%)" />
<circle cx="357.41" cy="249.59" r="5" fill="hsl(344, 80%, 65%)" />
<circle cx="185.36" cy="329.43" r="6" fill="hsl(352, 80%, 65%)" />
<circle cx="258.49" cy="153.85" r="2" fill="hsl(0, 80%, 65%)" />
<circle cx="323.35" cy="333.22" r="3" fill="hsl(8, 80%, 65%)" />
<circle cx="153.90" cy="244.52" r="4" fill="hsl(16, 80%, 65%)" />
<circle cx="339.27" cy="195.33" r="5" fill="hsl(24, 80%, 65%)" />
<circle cx="235.53" cy="357.26" r="6" fill="hsl(32, 80%, 65%)" />
<circle cx="202.55" cy="167.27" r="2" fill="hsl(40, 80%, 65%)" />
<circle cx="355.62" cy="285.40" r="3" fill="hsl(48, 80%, 65%)" />
<circle cx="162.43" cy="301.73" r="4" fill="hsl(56, 80%, 65%)" />
<circle cx="294.20" cy="158.82" r="5" fill="hsl(64, 80%, 65%)" />
<circle cx="293.58" cy="353.72" r="6" fill="hsl(72, 80%, 65%)" />
<circle cx="162.03" cy="209.20" r="2" fill="hsl(80, 80%, 65%)" />
<circle cx="357.17" cy="226.96" r="3" fill="hsl(88, 80%, 65%)" />
<circle cx="200.88" cy="345.99" r="4" fill="hsl(96, 80%, 65%)" />
<circle cx="235.81" cy="152.14" r="5" fill="hsl(104, 80%, 65%)" />
<circle cx="341.26" cy="319.11" r="6" fill="hsl(112, 80%, 65%)" />
<circle cx="150.23" cy="267.09" r="2" fill="hsl(120, 80%, 65%)" />
<circle cx="326.68" cy="176.17" r="3" fill="hsl(128, 80%, 65%)" />
<circle cx="257.81" cy="362.88" r="4" fill="hsl(136, 80%, 65%)" />
<circle cx="182.28" cy="178.22" r="5" fill="hsl(144, 80%, 65%)" />
<circle cx="363.17" cy="263.58" r="6" fill="hsl(152, 80%, 65%)" />
<circle cx="171.65" cy="322.97" r="2" fill="hsl(160, 80%, 65%)" />
<circle cx="273.00" cy="149.37" r="3" fill="hsl(168, 80%, 65%)" />
<circle cx="315.63" cy="346.33" r="4" fill="hsl(176, 80%, 65%)" />
<circle cx="150.75" cy="229.61" r="5" fill="hsl(184, 80%, 65%)" />
<circle cx="351.67" cy="204.24" r="6" fill="hsl(192, 80%, 65%)" />
<circle cx="220.33" cy="359.04" r="2" fill="hsl(200, 80%, 65%)" />
<circle cx="212.59" cy="155.68" r="3" fill="hsl(208, 80%, 65%)" />
<circle cx="356.02" cy="300.75" r="4" fill="hsl(216, 80%, 65%)" />
<circle cx="151.77" cy="290.64" r="5" fill="hsl(224, 80%, 65%)" />
<circle cx="309.58" cy="159.82" r="6" fill="hsl(232, 80%, 65%)" />
<circle cx="281.52" cy="363.37" r="2" fill="hsl(240, 80%, 65%)" />
<circle cx="164.44" cy="193.92" r="3" fill="hsl(248, 80%, 65%)" />
<circle cx="365.71" cy="239.89" r="4" fill="hsl(256, 80%, 65%)" />
<circle cx="185.82" cy="342.19" r="5" fill="hsl(264, 80%, 65%)" />
<circle cx="249.51" cy="144.78" r="6" fill="hsl(272, 80%, 65%)" />
<circle cx="336.10" cy="333.81" r="2" fill="hsl(280, 80%, 65%)" />
<circle cx="144.12" cy="252.72" r="3" fill="hsl(288, 80%, 65%)" />
<circle cx="340.91" cy="182.67" r="4" fill="hsl(296, 80%, 65%)" />
<circle cx="242.90" cy="367.68" r="5" fill="hsl(304, 80%, 65%)" />
<circle cx="190.07" cy="164.59" r="6" fill="hsl(312, 80%, 65%)" />
<circle cx="366.61" cy="278.92" r="2" fill="hsl(320, 80%, 65%)" />
<circle cx="158.73" cy="313.95" r="3" fill="hsl(328, 80%, 65%)" />
<circle cx="288.65" cy="147.33" r="4" fill="hsl(336, 80%, 65%)" />
<circle cx="305.44" cy="358.42" r="5" fill="hsl(344, 80%, 65%)" />
<circle cx="150.12" cy="213.78" r="6" fill="hsl(352, 80%, 65%)" />
<circle cx="362.83" cy="215.52" r="2" fill="hsl(0, 80%, 65%)" />
<circle cx="204.46" cy="358.23" r="3" fill="hsl(8, 80%, 65%)" />
<circle cx="224.88" cy="145.56" r="4" fill="hsl(16, 80%, 65%)" />
<circle cx="353.77" cy="316.55" r="5" fill="hsl(24, 80%, 65%)" />
<circle cx="142.76" cy="277.44" r="6" fill="hsl(32, 80%, 65%)" />
<circle cx="325.16" cy="163.50" r="2" fill="hsl(40, 80%, 65%)" />
<circle cx="267.51" cy="371.18" r="3" fill="hsl(48, 80%, 65%)" />
<circle cx="169.53" cy="178.68" r="4" fill="hsl(56, 80%, 65%)" />
<circle cx="372.24" cy="254.60" r="5" fill="hsl(64, 80%, 65%)" />
<circle cx="171.05" cy="335.72" r="6" fill="hsl(72, 80%, 65%)" />
<circle cx="264.80" cy="139.58" r="2" fill="hsl(80, 80%, 65%)" />
<circle cx="328.30" cy="347.98" r="3" fill="hsl(88, 80%, 65%)" />
<circle cx="140.31" cy="236.97" r="4" fill="hsl(96, 80%, 65%)" />
<circle cx="354.37" cy="191.75" r="5" fill="hsl(104, 80%, 65%)" />
<circle cx="226.81" cy="370.06" r="6" fill="hsl(112, 80%, 65%)" />
<circle cx="200.36" cy="151.96" r="2" fill="hsl(120, 80%, 65%)" />
<circle cx="367.54" cy="295.22" r="3" fill="hsl(128, 80%, 65%)" />
<circle cx="147.04" cy="302.52" r="4" fill="hsl(136, 80%, 65%)" />
<circle cx="305.02" cy="147.87" r="5" fill="hsl(144, 80%, 65%)" />
<circle cx="292.97" cy="369.07" r="6" fill="hsl(152, 80%, 65%)" />
<circle cx="152.15" cy="197.48" r="2" fill="hsl(160, 80%, 65%)" />
<circle cx="372.35" cy="228.95" r="3" fill="hsl(168, 80%, 65%)" />
<circle cx="188.35" cy="354.74" r="4" fill="hsl(176, 80%, 65%)" />
<circle cx="239.15" cy="137.25" r="5" fill="hsl(184, 80%, 65%)" />
<circle cx="348.82" cy="332.33" r="6" fill="hsl(192, 80%, 65%)" />
<circle cx="135.75" cy="262.43" r="2" fill="hsl(200, 80%, 65%)" />
<circle cx="340.49" cy="169.87" r="3" fill="hsl(208, 80%, 65%)" />
<circle cx="251.87" cy="376.83" r="4" fill="hsl(216, 80%, 65%)" />
<circle cx="177.27" cy="163.94" r="5" fill="hsl(224, 80%, 65%)" />
<circle cx="376.48" cy="270.73" r="6" fill="hsl(232, 80%, 65%)" />
<circle cx="157.02" cy="326.66" r="2" fill="hsl(240, 80%, 65%)" />
<circle cx="281.31" cy="136.80" r="3" fill="hsl(248, 80%, 65%)" />
<circle cx="317.97" cy="361.19" r="4" fill="hsl(256, 80%, 65%)" />
<circle cx="139.02" cy="220.23" r="5" fill="hsl(264, 80%, 65%)" />
<circle cx="366.64" cy="203.26" r="6" fill="hsl(272, 80%, 65%)" />
<circle cx="209.96" cy="369.84" r="2" fill="hsl(280, 80%, 65%)" />
<circle cx="212.96" cy="140.73" r="3" fill="hsl(288, 80%, 65%)" />
<circle cx="365.80" cy="312.03" r="4" fill="hsl(296, 80%, 65%)" />
<circle cx="136.96" cy="288.92" r="5" fill="hsl(304, 80%, 65%)" />
<circle cx="321.66" cy="151.12" r="6" fill="hsl(312, 80%, 65%)" />
<circle cx="278.47" cy="377.92" r="2" fill="hsl(320, 80%, 65%)" />
<circle cx="156.89" cy="181.14" r="3" fill="hsl(328, 80%, 65%)" />
<circle cx="379.89" cy="244.23" r="4" fill="hsl(336, 80%, 65%)" />
<circle cx="172.44" cy="348.54" r="5" fill="hsl(344, 80%, 65%)" />
<circle cx="255.10" cy="131.09" r="6" fill="hsl(352, 80%, 65%)" />
<circle cx="341.19" cy="347.67" r="2" fill="hsl(0, 80%, 65%)" />
<circle cx="131.03" cy="245.94" r="3" fill="hsl(8, 80%, 65%)" />
<circle cx="355.13" cy="178.86" r="4" fill="hsl(16, 80%, 65%)" />
<circle cx="234.97" cy="380.06" r="5" fill="hsl(24, 80%, 65%)" />
<circle cx="187.58" cy="150.12" r="6" fill="hsl(32, 80%, 65%)" />
<circle cx="378.20" cy="287.91" r="2" fill="hsl(40, 80%, 65%)" />
<circle cx="144.14" cy="315.12" r="3" fill="hsl(48, 80%, 65%)" />
<circle cx="298.62" cy="136.63" r="4" fill="hsl(56, 80%, 65%)" />
<circle cx="305.29" cy="373.02" r="5" fill="hsl(64, 80%, 65%)" />
<circle cx="140.40" cy="202.91" r="6" fill="hsl(72, 80%, 65%)" />
<circle cx="377.32" cy="216.99" r="2" fill="hsl(80, 80%, 65%)" />
<circle cx="192.78" cy="366.91" r="3" fill="hsl(88, 80%, 65%)" />
<circle cx="227.64" cy="131.29" r="4" fill="hsl(96, 80%, 65%)" />
<circle cx="361.34" cy="328.93" r="5" fill="hsl(104, 80%, 65%)" />
<circle cx="128.84" cy="273.41" r="6" fill="hsl(112, 80%, 65%)" />
<circle cx="338.15" cy="157.10" r="2" fill="hsl(120, 80%, 65%)" />
<circle cx="262.25" cy="384.64" r="3" fill="hsl(128, 80%, 65%)" />
<circle cx="164.34" cy="165.20" r="4" fill="hsl(136, 80%, 65%)" />
<circle cx="385.15" cy="261.04" r="5" fill="hsl(144, 80%, 65%)" />
<circle cx="157.19" cy="339.66" r="6" fill="hsl(152, 80%, 65%)" />
<circle cx="272.37" cy="127.34" r="2" fill="hsl(160, 80%, 65%)" />
<circle cx="330.96" cy="362.11" r="3" fill="hsl(168, 80%, 65%)" />
<circle cx="128.83" cy="228.35" r="4" fill="hsl(176, 80%, 65%)" />
<circle cx="368.64" cy="190.38" r="5" fill="hsl(184, 80%, 65%)" />
<circle cx="217.21" cy="380.69" r="6" fill="hsl(192, 80%, 65%)" />
<circle cx="200.29" cy="137.65" r="2" fill="hsl(200, 80%, 65%)" />
<circle cx="377.23" cy="305.72" r="3" fill="hsl(208, 80%, 65%)" />
<circle cx="132.82" cy="301.31" r="4" fill="hsl(216, 80%, 65%)" />
<circle cx="316.33" cy="139.19" r="5" fill="hsl(224, 80%, 65%)" />
</svg>
