<svg xmlns="http://www.w3.org/2000/svg" width="512" height="512" viewBox="0 0 512 512">
<rect width="100%" height="100%" fill="#0b1020"/>
<circle cx="389" cy="74" r="52" fill="#f8f3c9" opacity="0.95" />
<circle cx="380.0" cy="55.0" r="3.0" fill="white" />
<circle cx="363.0" cy="131.0" r="2.8" fill="white" />
<circle cx="299.0" cy="140.0" r="3.4" fill="white" />
<circle cx="157.0" cy="126.0" r="2.3" fill="white" />
<circle cx="170.0" cy="51.0" r="3.4" fill="white" />
<circle cx="47.0" cy="177.0" r="2.1" fill="white" />
<circle cx="71.0" cy="112.0" r="2.2" fill="white" />
<circle cx="292.0" cy="47.0" r="3.4" fill="white" />
<path d="M 20 430 C 112 425, 163 452, 302 420 S 450 381, 512 411" stroke="#5dade2" stroke-width="7" fill="none" opacity="0.85" />
<line x1="0" y1="414" x2="512" y2="414" stroke="#445566" stroke-width="2" />
<polygon points="167,360 207,300 247,320 267,290 287,310 299,350 267,372 217,376" fill="#1e1e1e" />
<polygon points="242,300 255,278 265,302" fill="#1e1e1e" />
<line x1="297" y1="345" x2="327" y2="320" stroke="#1e1e1e" stroke-width="6" />
</svg>
