<svg xmlns="http://www.w3.org/2000/svg" width="512" height="512" viewBox="0 0 512 512">
<rect width="100%" height="100%" fill="#0b1020"/>
<circle cx="364" cy="120" r="46" fill="#f8f3c9" opacity="0.95" />
<circle cx="352.0" cy="69.0" r="2.8" fill="white" />
<circle cx="168.0" cy="120.0" r="1.7" fill="white" />
<circle cx="207.0" cy="20.0" r="3.3" fill="white" />
<circle cx="336.0" cy="52.0" r="1.6" fill="white" />
<circle cx="181.0" cy="87.0" r="1.7" fill="white" />
<circle cx="248.0" cy="105.0" r="1.8" fill="white" />
<circle cx="435.0" cy="109.0" r="2.1" fill="white" />
<circle cx="447.0" cy="127.0" r="1.7" fill="white" />
<circle cx="176.0" cy="103.0" r="2.9" fill="white" />
<circle cx="251.0" cy="123.0" r="2.4" fill="white" />
<circle cx="206.0" cy="150.0" r="2.6" fill="white" />
<path d="M 20 430 C 107 414, 173 451, 302 437 S 450 403, 512 433" stroke="#5dade2" stroke-width="5" fill="none" opacity="0.85" />
<line x1="0" y1="385" x2="512" y2="385" stroke="#445566" stroke-width="3" />
<polygon points="183,363 223,303 263,323 283,293 303,313 315,353 283,375 233,379" fill="#1e1e1e" />
<polygon points="258,303 271,281 281,305" fill="#1e1e1e" />
<line x1="313" y1="348" x2="343" y2="323" stroke="#1e1e1e" stroke-width="6" />
</svg>
