<svg xmlns="http://www.w3.org/2000/svg" width="512" height="512" viewBox="0 0 512 512">
<rect width="100%" height="100%" fill="black"/>
<circle cx="256.00" cy="256.00" r="2" fill="hsl(0, 80%, 65%)" />
<circle cx="250.29" cy="261.23" r="3" fill="hsl(8, 80%, 65%)" />
<circle cx="256.96" cy="245.08" r="4" fill="hsl(16, 80%, 65%)" />
<circle cx="264.17" cy="266.65" r="5" fill="hsl(24, 80%, 65%)" />
<circle cx="240.74" cy="253.30" r="6" fill="hsl(32, 80%, 65%)" />
<circle cx="270.62" cy="246.70" r="2" fill="hsl(40, 80%, 65%)" />
<circle cx="251.07" cy="274.33" r="3" fill="hsl(48, 80%, 65%)" />
<circle cx="246.55" cy="237.80" r="4" fill="hsl(56, 80%, 65%)" />
<circle cx="276.59" cy="263.52" r="5" fill="hsl(64, 80%, 65%)" />
<circle cx="234.51" cy="264.87" r="6" fill="hsl(72, 80%, 65%)" />
<circle cx="266.39" cy="233.80" r="2" fill="hsl(80, 80%, 65%)" />
<circle cx="263.69" cy="280.52" r="3" fill="hsl(88, 80%, 65%)" />
<circle cx="232.77" cy="242.54" r="4" fill="hsl(96, 80%, 65%)" />
<circle cx="283.29" cy="250.00" r="5" fill="hsl(104, 80%, 65%)" />
<circle cx="239.32" cy="279.72" r="6" fill="hsl(112, 80%, 65%)" />
<circle cx="252.14" cy="226.24" r="2" fill="hsl(120, 80%, 65%)" />
<circle cx="279.70" cy="275.98" r="3" fill="hsl(128, 80%, 65%)" />
<circle cx="224.08" cy="257.32" r="4" fill="hsl(136, 80%, 65%)" />
<circle cx="279.31" cy="232.81" r="5" fill="hsl(144, 80%, 65%)" />
<circle cx="254.44" cy="289.74" r="6" fill="hsl(152, 80%, 65%)" />
<circle cx="233.80" cy="229.39" r="2" fill="hsl(160, 80%, 65%)" />
<circle cx="291.20" cy="260.74" r="3" fill="hsl(168, 80%, 65%)" />
<circle cx="226.16" cy="276.76" r="4" fill="hsl(176, 80%, 65%)" />
<circle cx="264.16" cy="219.74" r="5" fill="hsl(184, 80%, 65%)" />
<circle cx="274.88" cy="288.94" r="6" fill="hsl(192, 80%, 65%)" />
<circle cx="219.09" cy="244.22" r="2" fill="hsl(200, 80%, 65%)" />
<circle cx="291.87" cy="239.43" r="3" fill="hsl(208, 80%, 65%)" />
<circle cx="240.45" cy="293.15" r="4" fill="hsl(216, 80%, 65%)" />
<circle cx="242.12" cy="217.41" r="5" fill="hsl(224, 80%, 65%)" />
<circle cx="292.94" cy="275.42" r="6" fill="hsl(232, 80%, 65%)" />
<circle cx="214.96" cy="266.82" r="2" fill="hsl(240, 80%, 65%)" />
<circle cx="279.34" cy="219.71" r="3" fill="hsl(248, 80%, 65%)" />
<circle cx="263.43" cy="299.20" r="4" fill="hsl(256, 80%, 65%)" />
<circle cx="220.80" cy="228.74" r="5" fill="hsl(264, 80%, 65%)" />
<circle cx="301.03" cy="252.27" r="6" fill="hsl(272, 80%, 65%)" />
<circle cx="224.87" cy="289.65" r="2" fill="hsl(280, 80%, 65%)" />
<circle cx="256.23" cy="209.50" r="3" fill="hsl(288, 80%, 65%)" />
<circle cx="287.67" cy="290.91" r="4" fill="hsl(296, 80%, 65%)" />
<circle cx="208.43" cy="251.59" r="5" fill="hsl(304, 80%, 65%)" />
<circle cx="294.55" cy="226.74" r="6" fill="hsl(312, 80%, 65%)" />
<circle cx="247.23" cy="304.22" r="2" fill="hsl(320, 80%, 65%)" />
<circle cx="229.57" cy="214.00" r="3" fill="hsl(328, 80%, 65%)" />
<circle cx="304.44" cy="269.27" r="4" fill="hsl(336, 80%, 65%)" />
<circle cx="210.79" cy="279.20" r="5" fill="hsl(344, 80%, 65%)" />
<circle cx="273.87" cy="207.80" r="6" fill="hsl(352, 80%, 65%)" />
<circle cx="275.60" cy="304.15" r="2" fill="hsl(0, 80%, 65%)" />
<circle cx="208.50" cy="233.49" r="3" fill="hsl(8, 80%, 65%)" />
<circle cx="306.77" cy="240.35" r="4" fill="hsl(16, 80%, 65%)" />
<circle cx="228.85" cy="302.32" r="5" fill="hsl(24, 80%, 65%)" />
<circle cx="244.61" cy="202.96" r="6" fill="hsl(32, 80%, 65%)" />
<circle cx="300.67" cy="287.73" r="2" fill="hsl(40, 80%, 65%)" />
<circle cx="201.08" cy="262.84" r="3" fill="hsl(48, 80%, 65%)" />
<circle cx="292.22" cy="213.45" r="4" fill="hsl(56, 80%, 65%)" />
<circle cx="258.06" cy="312.38" r="5" fill="hsl(64, 80%, 65%)" />
<circle cx="216.03" cy="215.44" r="6" fill="hsl(72, 80%, 65%)" />
<circle cx="313.40" cy="258.93" r="2" fill="hsl(80, 80%, 65%)" />
<circle cx="211.29" cy="292.94" r="3" fill="hsl(88, 80%, 65%)" />
<circle cx="264.08" cy="198.05" r="4" fill="hsl(96, 80%, 65%)" />
<circle cx="289.47" cy="304.61" r="5" fill="hsl(104, 80%, 65%)" />
<circle cx="197.99" cy="242.65" r="6" fill="hsl(112, 80%, 65%)" />
<circle cx="308.23" cy="226.41" r="2" fill="hsl(120, 80%, 65%)" />
<circle cx="237.32" cy="313.57" r="3" fill="hsl(128, 80%, 65%)" />
<circle cx="230.68" cy="200.48" r="4" fill="hsl(136, 80%, 65%)" />
<circle cx="312.62" cy="280.02" r="5" fill="hsl(144, 80%, 65%)" />
<circle cx="197.56" cy="276.70" r="6" fill="hsl(152, 80%, 65%)" />
<circle cx="285.34" cy="200.84" r="2" fill="hsl(160, 80%, 65%)" />
<circle cx="271.75" cy="316.96" r="3" fill="hsl(168, 80%, 65%)" />
<circle cx="202.81" cy="221.43" r="4" fill="hsl(176, 80%, 65%)" />
<circle cx="319.03" cy="245.48" r="5" fill="hsl(184, 80%, 65%)" />
<circle cx="216.34" cy="306.70" r="6" fill="hsl(192, 80%, 65%)" />
<circle cx="250.96" cy="191.36" r="2" fill="hsl(200, 80%, 65%)" />
<circle cx="303.72" cy="300.58" r="3" fill="hsl(208, 80%, 65%)" />
<circle cx="190.25" cy="255.36" r="4" fill="hsl(216, 80%, 65%)" />
<circle cx="305.26" cy="211.75" r="5" fill="hsl(224, 80%, 65%)" />
<circle cx="249.52" cy="322.35" r="6" fill="hsl(232, 80%, 65%)" />
<circle cx="215.69" cy="202.34" r="2" fill="hsl(240, 80%, 65%)" />
<circle cx="322.41" cy="268.42" r="3" fill="hsl(248, 80%, 65%)" />
<circle cx="198.27" cy="291.94" r="4" fill="hsl(256, 80%, 65%)" />
<circle cx="274.41" cy="190.08" r="5" fill="hsl(264, 80%, 65%)" />
<circle cx="287.15" cy="317.43" r="6" fill="hsl(272, 80%, 65%)" />
<circle cx="191.13" cy="231.59" r="2" fill="hsl(280, 80%, 65%)" />
<circle cx="320.73" cy="230.02" r="3" fill="hsl(288, 80%, 65%)" />
<circle cx="225.64" cy="319.27" r="4" fill="hsl(296, 80%, 65%)" />
<circle cx="235.53" cy="188.43" r="5" fill="hsl(304, 80%, 65%)" />
<circle cx="317.10" cy="292.21" r="6" fill="hsl(312, 80%, 65%)" />
<circle cx="186.07" cy="270.66" r="2" fill="hsl(320, 80%, 65%)" />
<circle cx="297.90" cy="197.62" r="3" fill="hsl(328, 80%, 65%)" />
<circle cx="264.59" cy="327.77" r="4" fill="hsl(336, 80%, 65%)" />
<circle cx="200.87" cy="208.61" r="5" fill="hsl(344, 80%, 65%)" />
<circle cx="329.07" cy="253.69" r="6" fill="hsl(352, 80%, 65%)" />
<circle cx="203.38" cy="307.35" r="2" fill="hsl(0, 80%, 65%)" />
<circle cx="260.14" cy="182.19" r="3" fill="hsl(8, 80%, 65%)" />
<circle cx="303.07" cy="313.53" r="4" fill="hsl(16, 80%, 65%)" />
<circle cx="182.03" cy="245.31" r="5" fill="hsl(24, 80%, 65%)" />
<circle cx="318.09" cy="213.69" r="6" fill="hsl(32, 80%, 65%)" />
<circle cx="238.70" cy="329.53" r="2" fill="hsl(40, 80%, 65%)" />
<circle cx="218.89" cy="189.76" r="3" fill="hsl(48, 80%, 65%)" />
<circle cx="328.48" cy="279.91" r="4" fill="hsl(56, 80%, 65%)" />
<circle cx="186.05" cy="287.50" r="5" fill="hsl(64, 80%, 65%)" />
<circle cx="286.46" cy="185.17" r="6" fill="hsl(72, 80%, 65%)" />
<circle cx="281.52" cy="329.17" r="2" fill="hsl(80, 80%, 65%)" />
<circle cx="187.42" cy="219.10" r="3" fill="hsl(88, 80%, 65%)" />
<circle cx="331.87" cy="236.79" r="4" fill="hsl(96, 80%, 65%)" />
<circle cx="212.82" cy="321.74" r="5" fill="hsl(104, 80%, 65%)" />
<circle cx="243.37" cy="177.99" r="6" fill="hsl(112, 80%, 65%)" />
<circle cx="318.30" cy="305.23" r="2" fill="hsl(120, 80%, 65%)" />
<circle cx="176.43" cy="261.81" r="3" fill="hsl(128, 80%, 65%)" />
<circle cx="311.01" cy="197.69" r="4" fill="hsl(136, 80%, 65%)" />
<circle cx="254.82" cy="336.53" r="5" fill="hsl(144, 80%, 65%)" />
<circle cx="202.23" cy="195.55" r="6" fill="hsl(152, 80%, 65%)" />
<circle cx="336.85" cy="264.29" r="2" fill="hsl(160, 80%, 65%)" />
<circle cx="190.49" cy="304.72" r="3" fill="hsl(168, 80%, 65%)" />
<circle cx="271.47" cy="175.46" r="4" fill="hsl(176, 80%, 65%)" />
<circle cx="299.19" cy="326.15" r="5" fill="hsl(184, 80%, 65%)" />
<circle cx="176.42" cy="233.35" r="6" fill="hsl(192, 80%, 65%)" />
<circle cx="330.30" cy="218.78" r="2" fill="hsl(200, 80%, 65%)" />
<circle cx="226.22" cy="333.97" r="3" fill="hsl(208, 80%, 65%)" />
<circle cx="225.15" cy="178.06" r="4" fill="hsl(216, 80%, 65%)" />
<circle cx="331.72" cy="292.79" r="5" fill="hsl(224, 80%, 65%)" />
<circle cx="174.98" cy="280.12" r="6" fill="hsl(232, 80%, 65%)" />
<circle cx="299.64" cy="183.18" r="2" fill="hsl(240, 80%, 65%)" />
<circle cx="273.08" cy="339.52" r="3" fill="hsl(248, 80%, 65%)" />
<circle cx="186.71" cy="205.75" r="4" fill="hsl(256, 80%, 65%)" />
<circle cx="341.39" cy="246.20" r="5" fill="hsl(264, 80%, 65%)" />
<circle cx="199.43" cy="321.16" r="6" fill="hsl(272, 80%, 65%)" />
<circle cx="253.69" cy="169.39" r="2" fill="hsl(280, 80%, 65%)" />
<circle cx="316.45" cy="318.55" r="3" fill="hsl(288, 80%, 65%)" />
<circle cx="168.83" cy="250.69" r="4" fill="hsl(296, 80%, 65%)" />
<circle cx="324.13" cy="200.82" r="5" fill="hsl(304, 80%, 65%)" />
<circle cx="242.99" cy="343.05" r="6" fill="hsl(312, 80%, 65%)" />
<circle cx="206.60" cy="182.74" r="2" fill="hsl(320, 80%, 65%)" />
<circle cx="342.24" cy="276.73" r="3" fill="hsl(328, 80%, 65%)" />
<circle cx="178.11" cy="299.13" r="4" fill="hsl(336, 80%, 65%)" />
<circle cx="284.41" cy="171.26" r="5" fill="hsl(344, 80%, 65%)" />
<circle cx="292.43" cy="337.98" r="6" fill="hsl(352, 80%, 65%)" />
<circle cx="173.46" cy="220.03" r="2" fill="hsl(0, 80%, 65%)" />
<circle cx="341.48" cy="226.66" r="3" fill="hsl(8, 80%, 65%)" />
<circle cx="212.63" cy="335.67" r="4" fill="hsl(16, 80%, 65%)" />
<circle cx="234.09" cy="167.64" r="5" fill="hsl(24, 80%, 65%)" />
<circle cx="332.12" cy="306.53" r="6" fill="hsl(32, 80%, 65%)" />
<circle cx="165.41" cy="270.21" r="2" fill="hsl(40, 80%, 65%)" />
<circle cx="313.40" cy="184.08" r="3" fill="hsl(48, 80%, 65%)" />
<circle cx="262.28" cy="348.13" r="4" fill="hsl(56, 80%, 65%)" />
<circle cx="188.90" cy="192.08" r="5" fill="hsl(64, 80%, 65%)" />
<circle cx="348.98" cy="257.81" r="6" fill="hsl(72, 80%, 65%)" />
<circle cx="185.97" cy="317.68" r="2" fill="hsl(80, 80%, 65%)" />
<circle cx="266.00" cy="162.90" r="3" fill="hsl(88, 80%, 65%)" />
<circle cx="311.70" cy="331.67" r="4" fill="hsl(96, 80%, 65%)" />
<circle cx="163.50" cy="237.77" r="5" fill="hsl(104, 80%, 65%)" />
<circle cx="336.79" cy="206.80" r="6" fill="hsl(112, 80%, 65%)" />
<circle cx="229.58" cy="347.16" r="2" fill="hsl(120, 80%, 65%)" />
<circle cx="213.77" cy="170.65" r="3" fill="hsl(128, 80%, 65%)" />
<circle cx="345.09" cy="290.52" r="4" fill="hsl(136, 80%, 65%)" />
<circle cx="166.70" cy="290.84" r="5" fill="hsl(144, 80%, 65%)" />
<circle cx="298.45" cy="169.71" r="6" fill="hsl(152, 80%, 65%)" />
<circle cx="283.07" cy="348.60" r="2" fill="hsl(160, 80%, 65%)" />
<circle cx="173.22" cy="205.84" r="3" fill="hsl(168, 80%, 65%)" />
<circle cx="351.22" cy="237.00" r="4" fill="hsl(176, 80%, 65%)" />
<circle cx="198.43" cy="334.58" r="5" fill="hsl(184, 80%, 65%)" />
<circle cx="245.34" cy="158.87" r="6" fill="hsl(192, 80%, 65%)" />
<circle cx="329.71" cy="320.62" r="2" fill="hsl(200, 80%, 65%)" />
<circle cx="157.69" cy="258.15" r="3" fill="hsl(208, 80%, 65%)" />
<circle cx="327.26" cy="187.80" r="4" fill="hsl(216, 80%, 65%)" />
<circle cx="249.50" cy="354.73" r="5" fill="hsl(224, 80%, 65%)" />
<circle cx="193.91" cy="178.58" r="6" fill="hsl(232, 80%, 65%)" />
<circle cx="354.38" cy="271.20" r="2" fill="hsl(240, 80%, 65%)" />
<circle cx="172.94" cy="311.41" r="3" fill="hsl(248, 80%, 65%)" />
<circle cx="279.88" cy="158.74" r="4" fill="hsl(256, 80%, 65%)" />
<circle cx="304.23" cy="344.11" r="5" fill="hsl(264, 80%, 65%)" />
<circle cx="160.64" cy="223.51" r="6" fill="hsl(272, 80%, 65%)" />
<circle cx="348.53" cy="215.42" r="2" fill="hsl(280, 80%, 65%)" />
<circle cx="215.06" cy="348.70" r="3" fill="hsl(288, 80%, 65%)" />
<circle cx="223.47" cy="159.71" r="4" fill="hsl(296, 80%, 65%)" />
<circle cx="345.28" cy="305.17" r="5" fill="hsl(304, 80%, 65%)" />
<circle cx="156.66" cy="280.12" r="6" fill="hsl(312, 80%, 65%)" />
<circle cx="313.12" cy="170.87" r="2" fill="hsl(320, 80%, 65%)" />
<circle cx="271.43" cy="357.64" r="3" fill="hsl(328, 80%, 65%)" />
<circle cx="175.73" cy="191.29" r="4" fill="hsl(336, 80%, 65%)" />
<circle cx="359.19" cy="249.48" r="5" fill="hsl(344, 80%, 65%)" />
<circle cx="184.12" cy="330.72" r="6" fill="hsl(352, 80%, 65%)" />
<circle cx="258.54" cy="152.06" r="2" fill="hsl(0, 80%, 65%)" />
<circle cx="324.53" cy="334.57" r="3" fill="hsl(8, 80%, 65%)" />
<circle cx="152.11" cy="244.32" r="4" fill="hsl(16, 80%, 65%)" />
<circle cx="340.73" cy="194.26" r="5" fill="hsl(24, 80%, 65%)" />
<circle cx="235.17" cy="359.03" r="6" fill="hsl(32, 80%, 65%)" />
<circle cx="201.61" cy="165.71" r="2" fill="hsl(40, 80%, 65%)" />
<circle cx="357.37" cy="285.92" r="3" fill="hsl(48, 80%, 65%)" />
<circle cx="160.79" cy="302.54" r="4" fill="hsl(56, 80%, 65%)" />
<circle cx="294.87" cy="157.11" r="5" fill="hsl(64, 80%, 65%)" />
<circle cx="294.24" cy="355.44" r="6" fill="hsl(72, 80%, 65%)" />
<circle cx="160.38" cy="208.38" r="2" fill="hsl(80, 80%, 65%)" />
<circle cx="358.94" cy="226.45" r="3" fill="hsl(88, 80%, 65%)" />
<circle cx="199.91" cy="347.57" r="4" fill="hsl(96, 80%, 65%)" />
<circle cx="235.45" cy="150.32" r="5" fill="hsl(104, 80%, 65%)" />
<circle cx="342.76" cy="320.21" r="6" fill="hsl(112, 80%, 65%)" />
<circle cx="148.37" cy="267.29" r="2" fill="hsl(120, 80%, 65%)" />
<circle cx="327.92" cy="174.77" r="3" fill="hsl(128, 80%, 65%)" />
<circle cx="257.84" cy="364.75" r="4" fill="hsl(136, 80%, 65%)" />
<circle cx="180.99" cy="176.85" r="5" fill="hsl(144, 80%, 65%)" />
<circle cx="365.05" cy="263.71" r="6" fill="hsl(152, 80%, 65%)" />
<circle cx="170.17" cy="324.15" r="2" fill="hsl(160, 80%, 65%)" />
<circle cx="273.30" cy="147.50" r="3" fill="hsl(168, 80%, 65%)" />
<circle cx="316.68" cy="347.92" r="4" fill="hsl(176, 80%, 65%)" />
<circle cx="148.90" cy="229.15" r="5" fill="hsl(184, 80%, 65%)" />
<circle cx="353.35" cy="203.33" r="6" fill="hsl(192, 80%, 65%)" />
<circle cx="219.71" cy="360.85" r="2" fill="hsl(200, 80%, 65%)" />
<circle cx="211.83" cy="153.92" r="3" fill="hsl(208, 80%, 65%)" />
<circle cx="357.77" cy="301.54" r="4" fill="hsl(216, 80%, 65%)" />
<circle cx="149.94" cy="291.25" r="5" fill="hsl(224, 80%, 65%)" />
<circle cx="310.52" cy="158.13" r="6" fill="hsl(232, 80%, 65%)" />
<circle cx="281.97" cy="365.26" r="2" fill="hsl(240, 80%, 65%)" />
<circle cx="162.83" cy="192.83" r="3" fill="hsl(248, 80%, 65%)" />
<circle cx="367.64" cy="239.61" r="4" fill="hsl(256, 80%, 65%)" />
<circle cx="184.59" cy="343.70" r="5" fill="hsl(264, 80%, 65%)" />
<circle cx="249.40" cy="142.83" r="6" fill="hsl(272, 80%, 65%)" />
<circle cx="337.50" cy="335.18" r="2" fill="hsl(280, 80%, 65%)" />
<circle cx="142.15" cy="252.67" r="3" fill="hsl(288, 80%, 65%)" />
<circle cx="342.40" cy="181.38" r="4" fill="hsl(296, 80%, 65%)" />
<circle cx="242.67" cy="369.64" r="5" fill="hsl(304, 80%, 65%)" />
<circle cx="188.92" cy="162.99" r="6" fill="hsl(312, 80%, 65%)" />
<circle cx="368.55" cy="279.32" r="2" fill="hsl(320, 80%, 65%)" />
<circle cx="157.03" cy="314.96" r="3" fill="hsl(328, 80%, 65%)" />
<circle cx="289.23" cy="145.42" r="4" fill="hsl(336, 80%, 65%)" />
</svg>
