<svg xmlns="http://www.w3.org/2000/svg" width="512" height="512" viewBox="0 0 512 512">
<rect width="100%" height="100%" fill="black"/>
<circle cx="256.00" cy="256.00" r="2" fill="hsl(0, 80%, 65%)" />
<circle cx="251.19" cy="260.41" r="3" fill="hsl(7, 80%, 65%)" />
<circle cx="256.81" cy="246.80" r="4" fill="hsl(14, 80%, 65%)" />
<circle cx="262.88" cy="264.97" r="5" fill="hsl(21, 80%, 65%)" />
<circle cx="243.14" cy="253.73" r="6" fill="hsl(28, 80%, 65%)" />
<circle cx="268.32" cy="248.16" r="2" fill="hsl(35, 80%, 65%)" />
<circle cx="251.85" cy="271.44" r="3" fill="hsl(42, 80%, 65%)" />
<circle cx="248.04" cy="240.67" r="4" fill="hsl(49, 80%, 65%)" />
<circle cx="273.35" cy="262.33" r="5" fill="hsl(56, 80%, 65%)" />
<circle cx="237.90" cy="263.47" r="6" fill="hsl(63, 80%, 65%)" />
<circle cx="264.75" cy="237.30" r="2" fill="hsl(70, 80%, 65%)" />
<circle cx="262.48" cy="276.66" r="3" fill="hsl(77, 80%, 65%)" />
<circle cx="236.43" cy="244.66" r="4" fill="hsl(84, 80%, 65%)" />
<circle cx="278.99" cy="250.95" r="5" fill="hsl(91, 80%, 65%)" />
<circle cx="241.95" cy="275.98" r="6" fill="hsl(98, 80%, 65%)" />
<circle cx="252.75" cy="230.92" r="2" fill="hsl(105, 80%, 65%)" />
<circle cx="275.97" cy="272.83" r="3" fill="hsl(112, 80%, 65%)" />
<circle cx="229.10" cy="257.11" r="4" fill="hsl(119, 80%, 65%)" />
<circle cx="275.63" cy="236.46" r="5" fill="hsl(126, 80%, 65%)" />
<circle cx="254.69" cy="284.43" r="6" fill="hsl(133, 80%, 65%)" />
<circle cx="237.29" cy="233.58" r="2" fill="hsl(140, 80%, 65%)" />
<circle cx="285.65" cy="259.99" r="3" fill="hsl(147, 80%, 65%)" />
<circle cx="230.86" cy="273.49" r="4" fill="hsl(154, 80%, 65%)" />
<circle cx="262.87" cy="225.45" r="5" fill="hsl(161, 80%, 65%)" />
<circle cx="271.90" cy="283.75" r="6" fill="hsl(168, 80%, 65%)" />
<circle cx="224.90" cy="246.08" r="2" fill="hsl(175, 80%, 65%)" />
<circle cx="286.22" cy="242.04" r="3" fill="hsl(182, 80%, 65%)" />
<circle cx="242.90" cy="287.30" r="4" fill="hsl(189, 80%, 65%)" />
<circle cx="244.31" cy="223.49" r="5" fill="hsl(196, 80%, 65%)" />
<circle cx="287.12" cy="272.36" r="6" fill="hsl(203, 80%, 65%)" />
<circle cx="221.42" cy="265.11" r="2" fill="hsl(210, 80%, 65%)" />
<circle cx="275.66" cy="225.42" r="3" fill="hsl(217, 80%, 65%)" />
<circle cx="262.26" cy="292.40" r="4" fill="hsl(224, 80%, 65%)" />
<circle cx="226.35" cy="233.04" r="5" fill="hsl(231, 80%, 65%)" />
<circle cx="293.94" cy="252.86" r="6" fill="hsl(238, 80%, 65%)" />
<circle cx="229.77" cy="284.35" r="2" fill="hsl(245, 80%, 65%)" />
<circle cx="256.19" cy="216.83" r="3" fill="hsl(252, 80%, 65%)" />
<circle cx="282.68" cy="285.41" r="4" fill="hsl(259, 80%, 65%)" />
<circle cx="215.92" cy="252.29" r="5" fill="hsl(266, 80%, 65%)" />
<circle cx="288.48" cy="231.35" r="6" fill="hsl(273, 80%, 65%)" />
<circle cx="248.61" cy="296.63" r="2" fill="hsl(280, 80%, 65%)" />
<circle cx="233.73" cy="220.62" r="3" fill="hsl(287, 80%, 65%)" />
<circle cx="296.81" cy="267.18" r="4" fill="hsl(294, 80%, 65%)" />
<circle cx="217.91" cy="275.55" r="5" fill="hsl(301, 80%, 65%)" />
<circle cx="271.05" cy="215.39" r="6" fill="hsl(308, 80%, 65%)" />
<circle cx="272.51" cy="296.56" r="2" fill="hsl(315, 80%, 65%)" />
<circle cx="215.99" cy="237.04" r="3" fill="hsl(322, 80%, 65%)" />
<circle cx="298.77" cy="242.81" r="4" fill="hsl(329, 80%, 65%)" />
<circle cx="233.13" cy="295.03" r="5" fill="hsl(336, 80%, 65%)" />
<circle cx="246.40" cy="211.32" r="6" fill="hsl(343, 80%, 65%)" />
<circle cx="293.64" cy="282.74" r="2" fill="hsl(350, 80%, 65%)" />
<circle cx="209.73" cy="261.77" r="3" fill="hsl(357, 80%, 65%)" />
<circle cx="286.52" cy="220.15" r="4" fill="hsl(4, 80%, 65%)" />
<circle cx="257.73" cy="303.50" r="5" fill="hsl(11, 80%, 65%)" />
<circle cx="222.32" cy="221.83" r="6" fill="hsl(18, 80%, 65%)" />
<circle cx="304.36" cy="258.47" r="2" fill="hsl(25, 80%, 65%)" />
<circle cx="218.34" cy="287.12" r="3" fill="hsl(32, 80%, 65%)" />
<circle cx="262.81" cy="207.18" r="4" fill="hsl(39, 80%, 65%)" />
<circle cx="284.20" cy="296.95" r="5" fill="hsl(46, 80%, 65%)" />
<circle cx="207.13" cy="244.75" r="6" fill="hsl(53, 80%, 65%)" />
<circle cx="300.00" cy="231.07" r="2" fill="hsl(60, 80%, 65%)" />
<circle cx="240.26" cy="304.50" r="3" fill="hsl(67, 80%, 65%)" />
<circle cx="234.67" cy="209.23" r="4" fill="hsl(74, 80%, 65%)" />
<circle cx="303.71" cy="276.24" r="5" fill="hsl(81, 80%, 65%)" />
<circle cx="206.77" cy="273.44" r="6" fill="hsl(88, 80%, 65%)" />
<circle cx="280.72" cy="209.53" r="2" fill="hsl(95, 80%, 65%)" />
<circle cx="269.27" cy="307.35" r="3" fill="hsl(102, 80%, 65%)" />
<circle cx="211.19" cy="226.88" r="4" fill="hsl(109, 80%, 65%)" />
<circle cx="309.10" cy="247.14" r="5" fill="hsl(116, 80%, 65%)" />
<circle cx="222.58" cy="298.72" r="6" fill="hsl(123, 80%, 65%)" />
<circle cx="251.76" cy="201.54" r="2" fill="hsl(130, 80%, 65%)" />
<circle cx="296.20" cy="293.56" r="3" fill="hsl(137, 80%, 65%)" />
<circle cx="200.60" cy="255.46" r="4" fill="hsl(144, 80%, 65%)" />
<circle cx="297.50" cy="218.72" r="5" fill="hsl(151, 80%, 65%)" />
<circle cx="250.54" cy="311.90" r="6" fill="hsl(158, 80%, 65%)" />
<circle cx="222.04" cy="210.79" r="2" fill="hsl(165, 80%, 65%)" />
<circle cx="311.95" cy="266.46" r="3" fill="hsl(172, 80%, 65%)" />
<circle cx="207.36" cy="286.28" r="4" fill="hsl(179, 80%, 65%)" />
<circle cx="271.51" cy="200.46" r="5" fill="hsl(186, 80%, 65%)" />
<circle cx="282.24" cy="307.76" r="6" fill="hsl(193, 80%, 65%)" />
<circle cx="201.35" cy="235.43" r="2" fill="hsl(200, 80%, 65%)" />
<circle cx="310.53" cy="234.11" r="3" fill="hsl(207, 80%, 65%)" />
<circle cx="230.42" cy="309.30" r="4" fill="hsl(214, 80%, 65%)" />
<circle cx="238.75" cy="199.07" r="5" fill="hsl(221, 80%, 65%)" />
<circle cx="307.48" cy="286.51" r="6" fill="hsl(228, 80%, 65%)" />
<circle cx="197.09" cy="268.35" r="2" fill="hsl(235, 80%, 65%)" />
<circle cx="291.30" cy="206.81" r="3" fill="hsl(242, 80%, 65%)" />
<circle cx="263.24" cy="316.47" r="4" fill="hsl(249, 80%, 65%)" />
<circle cx="209.56" cy="216.07" r="5" fill="hsl(256, 80%, 65%)" />
<circle cx="317.56" cy="254.06" r="6" fill="hsl(263, 80%, 65%)" />
<circle cx="211.67" cy="299.26" r="2" fill="hsl(270, 80%, 65%)" />
<circle cx="259.48" cy="193.82" r="3" fill="hsl(277, 80%, 65%)" />
<circle cx="295.65" cy="304.47" r="4" fill="hsl(284, 80%, 65%)" />
<circle cx="193.68" cy="247.00" r="5" fill="hsl(291, 80%, 65%)" />
<circle cx="308.31" cy="220.36" r="6" fill="hsl(298, 80%, 65%)" />
<circle cx="241.43" cy="317.95" r="2" fill="hsl(305, 80%, 65%)" />
<circle cx="224.74" cy="200.19" r="3" fill="hsl(312, 80%, 65%)" />
<circle cx="317.07" cy="276.14" r="4" fill="hsl(319, 80%, 65%)" />
<circle cx="197.07" cy="282.53" r="5" fill="hsl(326, 80%, 65%)" />
<circle cx="281.66" cy="196.32" r="6" fill="hsl(333, 80%, 65%)" />
<circle cx="277.50" cy="317.65" r="2" fill="hsl(340, 80%, 65%)" />
<circle cx="198.22" cy="224.91" r="3" fill="hsl(347, 80%, 65%)" />
<circle cx="319.92" cy="239.82" r="4" fill="hsl(354, 80%, 65%)" />
<circle cx="219.62" cy="311.38" r="5" fill="hsl(1, 80%, 65%)" />
<circle cx="245.36" cy="190.27" r="6" fill="hsl(8, 80%, 65%)" />
<circle cx="308.49" cy="297.48" r="2" fill="hsl(15, 80%, 65%)" />
<circle cx="188.96" cy="260.90" r="3" fill="hsl(22, 80%, 65%)" />
<circle cx="302.34" cy="206.87" r="4" fill="hsl(29, 80%, 65%)" />
<circle cx="255.01" cy="323.84" r="5" fill="hsl(36, 80%, 65%)" />
<circle cx="210.70" cy="205.07" r="6" fill="hsl(43, 80%, 65%)" />
<circle cx="324.12" cy="262.98" r="2" fill="hsl(50, 80%, 65%)" />
<circle cx="200.80" cy="297.05" r="3" fill="hsl(57, 80%, 65%)" />
<circle cx="269.03" cy="188.14" r="4" fill="hsl(64, 80%, 65%)" />
<circle cx="292.39" cy="315.10" r="5" fill="hsl(71, 80%, 65%)" />
<circle cx="188.95" cy="236.92" r="6" fill="hsl(78, 80%, 65%)" />
<circle cx="318.60" cy="224.64" r="2" fill="hsl(85, 80%, 65%)" />
<circle cx="230.91" cy="321.69" r="3" fill="hsl(92, 80%, 65%)" />
<circle cx="230.01" cy="190.33" r="4" fill="hsl(99, 80%, 65%)" />
<circle cx="319.79" cy="287.00" r="5" fill="hsl(106, 80%, 65%)" />
<circle cx="187.74" cy="276.32" r="6" fill="hsl(113, 80%, 65%)" />
<circle cx="292.76" cy="194.65" r="2" fill="hsl(120, 80%, 65%)" />
<circle cx="270.39" cy="326.36" r="3" fill="hsl(127, 80%, 65%)" />
<circle cx="197.62" cy="213.67" r="4" fill="hsl(134, 80%, 65%)" />
<circle cx="327.94" cy="247.75" r="5" fill="hsl(141, 80%, 65%)" />
<circle cx="208.34" cy="310.90" r="6" fill="hsl(148, 80%, 65%)" />
<circle cx="254.05" cy="183.03" r="2" fill="hsl(155, 80%, 65%)" />
<circle cx="306.93" cy="308.70" r="3" fill="hsl(162, 80%, 65%)" />
<circle cx="182.56" cy="251.53" r="4" fill="hsl(169, 80%, 65%)" />
<circle cx="313.40" cy="209.51" r="5" fill="hsl(176, 80%, 65%)" />
<circle cx="245.04" cy="329.34" r="6" fill="hsl(183, 80%, 65%)" />
<circle cx="214.38" cy="194.28" r="2" fill="hsl(190, 80%, 65%)" />
<circle cx="328.66" cy="273.47" r="3" fill="hsl(197, 80%, 65%)" />
<circle cx="190.38" cy="292.34" r="4" fill="hsl(204, 80%, 65%)" />
<circle cx="279.93" cy="184.61" r="5" fill="hsl(211, 80%, 65%)" />
<circle cx="286.69" cy="325.07" r="6" fill="hsl(218, 80%, 65%)" />
<circle cx="186.46" cy="225.69" r="2" fill="hsl(225, 80%, 65%)" />
<circle cx="328.02" cy="231.28" r="3" fill="hsl(232, 80%, 65%)" />
<circle cx="219.46" cy="323.12" r="4" fill="hsl(239, 80%, 65%)" />
<circle cx="237.54" cy="181.56" r="5" fill="hsl(246, 80%, 65%)" />
<circle cx="320.13" cy="298.57" r="6" fill="hsl(253, 80%, 65%)" />
<circle cx="179.68" cy="267.97" r="2" fill="hsl(260, 80%, 65%)" />
<circle cx="304.36" cy="195.41" r="3" fill="hsl(267, 80%, 65%)" />
<circle cx="261.29" cy="333.62" r="4" fill="hsl(274, 80%, 65%)" />
<circle cx="199.47" cy="202.15" r="5" fill="hsl(281, 80%, 65%)" />
<circle cx="334.33" cy="257.53" r="6" fill="hsl(288, 80%, 65%)" />
<circle cx="197.00" cy="307.96" r="2" fill="hsl(295, 80%, 65%)" />
<circle cx="264.43" cy="177.56" r="3" fill="hsl(302, 80%, 65%)" />
<circle cx="302.93" cy="319.75" r="4" fill="hsl(309, 80%, 65%)" />
<circle cx="178.07" cy="240.64" r="5" fill="hsl(316, 80%, 65%)" />
<circle cx="324.07" cy="214.55" r="6" fill="hsl(323, 80%, 65%)" />
<circle cx="233.74" cy="332.80" r="2" fill="hsl(330, 80%, 65%)" />
<circle cx="220.42" cy="184.09" r="3" fill="hsl(337, 80%, 65%)" />
<circle cx="331.06" cy="285.08" r="4" fill="hsl(344, 80%, 65%)" />
<circle cx="180.76" cy="285.35" r="5" fill="hsl(351, 80%, 65%)" />
<circle cx="291.77" cy="183.30" r="6" fill="hsl(358, 80%, 65%)" />
<circle cx="278.81" cy="334.02" r="2" fill="hsl(5, 80%, 65%)" />
<circle cx="186.26" cy="213.74" r="3" fill="hsl(12, 80%, 65%)" />
<circle cx="336.23" cy="240.00" r="4" fill="hsl(19, 80%, 65%)" />
<circle cx="207.50" cy="322.20" r="5" fill="hsl(26, 80%, 65%)" />
<circle cx="247.02" cy="174.17" r="6" fill="hsl(33, 80%, 65%)" />
<circle cx="318.10" cy="310.44" r="2" fill="hsl(40, 80%, 65%)" />
<circle cx="173.18" cy="257.81" r="3" fill="hsl(47, 80%, 65%)" />
<circle cx="316.04" cy="198.54" r="4" fill="hsl(54, 80%, 65%)" />
<circle cx="250.53" cy="339.18" r="5" fill="hsl(61, 80%, 65%)" />
<circle cx="203.69" cy="190.77" r="6" fill="hsl(68, 80%, 65%)" />
<circle cx="338.88" cy="268.80" r="2" fill="hsl(75, 80%, 65%)" />
<circle cx="186.03" cy="302.69" r="3" fill="hsl(82, 80%, 65%)" />
<circle cx="276.12" cy="174.06" r="4" fill="hsl(89, 80%, 65%)" />
<circle cx="296.63" cy="330.23" r="5" fill="hsl(96, 80%, 65%)" />
<circle cx="175.66" cy="228.63" r="6" fill="hsl(103, 80%, 65%)" />
<circle cx="333.96" cy="221.81" r="2" fill="hsl(110, 80%, 65%)" />
<circle cx="221.51" cy="334.10" r="3" fill="hsl(117, 80%, 65%)" />
<circle cx="228.60" cy="174.88" r="4" fill="hsl(124, 80%, 65%)" />
<circle cx="331.22" cy="297.43" r="5" fill="hsl(131, 80%, 65%)" />
<circle cx="172.31" cy="276.32" r="6" fill="hsl(138, 80%, 65%)" />
<circle cx="304.12" cy="184.28" r="2" fill="hsl(145, 80%, 65%)" />
<circle cx="269.00" cy="341.63" r="3" fill="hsl(152, 80%, 65%)" />
<circle cx="188.38" cy="201.48" r="4" fill="hsl(159, 80%, 65%)" />
<circle cx="342.93" cy="250.50" r="5" fill="hsl(166, 80%, 65%)" />
<circle cx="195.44" cy="318.95" r="6" fill="hsl(173, 80%, 65%)" />
<circle cx="258.14" cy="168.43" r="2" fill="hsl(180, 80%, 65%)" />
<circle cx="313.74" cy="322.20" r="3" fill="hsl(187, 80%, 65%)" />
<circle cx="168.47" cy="246.16" r="4" fill="hsl(194, 80%, 65%)" />
<circle cx="327.38" cy="203.99" r="5" fill="hsl(201, 80%, 65%)" />
<circle cx="238.45" cy="342.81" r="6" fill="hsl(208, 80%, 65%)" />
<circle cx="210.18" cy="179.93" r="2" fill="hsl(215, 80%, 65%)" />
<circle cx="341.40" cy="281.21" r="3" fill="hsl(222, 80%, 65%)" />
<circle cx="175.79" cy="295.21" r="4" fill="hsl(229, 80%, 65%)" />
<circle cx="288.75" cy="172.69" r="5" fill="hsl(236, 80%, 65%)" />
<circle cx="288.21" cy="339.78" r="6" fill="hsl(243, 80%, 65%)" />
<circle cx="175.44" cy="215.88" r="2" fill="hsl(250, 80%, 65%)" />
<circle cx="342.73" cy="231.10" r="3" fill="hsl(257, 80%, 65%)" />
<circle cx="208.74" cy="333.14" r="4" fill="hsl(264, 80%, 65%)" />
<circle cx="238.69" cy="166.96" r="5" fill="hsl(271, 80%, 65%)" />
<circle cx="329.09" cy="310.10" r="6" fill="hsl(278, 80%, 65%)" />
<circle cx="165.33" cy="265.51" r="2" fill="hsl(285, 80%, 65%)" />
<circle cx="316.59" cy="187.56" r="3" fill="hsl(292, 80%, 65%)" />
<circle cx="257.55" cy="347.62" r="4" fill="hsl(299, 80%, 65%)" />
<circle cx="192.80" cy="189.32" r="5" fill="hsl(306, 80%, 65%)" />
<circle cx="347.87" cy="262.50" r="6" fill="hsl(313, 80%, 65%)" />
<circle cx="183.69" cy="313.41" r="2" fill="hsl(320, 80%, 65%)" />
<circle cx="270.58" cy="164.59" r="3" fill="hsl(327, 80%, 65%)" />
<circle cx="307.12" cy="333.44" r="4" fill="hsl(334, 80%, 65%)" />
<circle cx="165.77" cy="233.38" r="5" fill="hsl(341, 80%, 65%)" />
<circle cx="338.02" cy="211.62" r="6" fill="hsl(348, 80%, 65%)" />
<circle cx="225.42" cy="344.34" r="2" fill="hsl(355, 80%, 65%)" />
<circle cx="218.78" cy="170.00" r="3" fill="hsl(2, 80%, 65%)" />
<circle cx="341.74" cy="294.37" r="4" fill="hsl(9, 80%, 65%)" />
<circle cx="166.64" cy="285.70" r="5" fill="hsl(16, 80%, 65%)" />
<circle cx="301.94" cy="173.55" r="6" fill="hsl(23, 80%, 65%)" />
<circle cx="277.88" cy="348.05" r="2" fill="hsl(30, 80%, 65%)" />
<circle cx="177.50" cy="202.78" r="3" fill="hsl(37, 80%, 65%)" />
<circle cx="350.05" cy="242.19" r="4" fill="hsl(44, 80%, 65%)" />
<circle cx="195.84" cy="329.89" r="5" fill="hsl(51, 80%, 65%)" />
<circle cx="250.44" cy="160.65" r="6" fill="hsl(58, 80%, 65%)" />
<circle cx="324.67" cy="322.70" r="2" fill="hsl(65, 80%, 65%)" />
<circle cx="160.09" cy="253.19" r="3" fill="hsl(72, 80%, 65%)" />
<circle cx="328.79" cy="193.14" r="4" fill="hsl(79, 80%, 65%)" />
<circle cx="244.77" cy="351.74" r="5" fill="hsl(86, 80%, 65%)" />
<circle cx="199.48" cy="177.64" r="6" fill="hsl(93, 80%, 65%)" />
<circle cx="350.82" cy="275.65" r="2" fill="hsl(100, 80%, 65%)" />
<circle cx="172.62" cy="305.68" r="3" fill="hsl(107, 80%, 65%)" />
<circle cx="283.99" cy="162.84" r="4" fill="hsl(114, 80%, 65%)" />
<circle cx="298.39" cy="343.80" r="5" fill="hsl(121, 80%, 65%)" />
<circle cx="165.23" cy="219.81" r="6" fill="hsl(128, 80%, 65%)" />
<circle cx="347.58" cy="221.30" r="2" fill="hsl(135, 80%, 65%)" />
<circle cx="211.82" cy="343.64" r="3" fill="hsl(142, 80%, 65%)" />
<circle cx="229.32" cy="161.32" r="4" fill="hsl(149, 80%, 65%)" />
<circle cx="339.81" cy="307.91" r="5" fill="hsl(156, 80%, 65%)" />
<circle cx="158.92" cy="274.38" r="6" fill="hsl(163, 80%, 65%)" />
<circle cx="315.29" cy="176.70" r="2" fill="hsl(170, 80%, 65%)" />
<circle cx="265.87" cy="354.74" r="3" fill="hsl(177, 80%, 65%)" />
<circle cx="181.87" cy="189.71" r="4" fill="hsl(184, 80%, 65%)" />
<circle cx="355.65" cy="254.80" r="5" fill="hsl(191, 80%, 65%)" />
<circle cx="183.18" cy="324.35" r="6" fill="hsl(198, 80%, 65%)" />
<circle cx="263.55" cy="156.20" r="2" fill="hsl(205, 80%, 65%)" />
<circle cx="317.98" cy="334.86" r="3" fill="hsl(212, 80%, 65%)" />
<circle cx="156.82" cy="239.69" r="4" fill="hsl(219, 80%, 65%)" />
<circle cx="340.33" cy="200.92" r="5" fill="hsl(226, 80%, 65%)" />
<circle cx="230.97" cy="353.78" r="6" fill="hsl(233, 80%, 65%)" />
<circle cx="208.30" cy="166.81" r="2" fill="hsl(240, 80%, 65%)" />
<circle cx="351.62" cy="289.62" r="3" fill="hsl(247, 80%, 65%)" />
<circle cx="162.59" cy="295.88" r="4" fill="hsl(254, 80%, 65%)" />
<circle cx="298.02" cy="163.30" r="5" fill="hsl(261, 80%, 65%)" />
<circle cx="287.69" cy="352.94" r="6" fill="hsl(268, 80%, 65%)" />
<circle cx="166.97" cy="205.83" r="2" fill="hsl(275, 80%, 65%)" />
<circle cx="355.74" cy="232.81" r="3" fill="hsl(282, 80%, 65%)" />
<circle cx="198.00" cy="340.65" r="4" fill="hsl(289, 80%, 65%)" />
<circle cx="241.56" cy="154.20" r="5" fill="hsl(296, 80%, 65%)" />
<circle cx="335.57" cy="321.44" r="6" fill="hsl(303, 80%, 65%)" />
<circle cx="152.92" cy="261.51" r="2" fill="hsl(310, 80%, 65%)" />
<circle cx="328.43" cy="182.16" r="3" fill="hsl(317, 80%, 65%)" />
</svg>
