<svg xmlns="http://www.w3.org/2000/svg" width="512" height="512" viewBox="0 0 512 512">
<rect width="100%" height="100%" fill="#0b1020"/>
<circle cx="389" cy="83" r="55" fill="#f8f3c9" opacity="0.95" />
<circle cx="138.0" cy="94.0" r="1.8" fill="white" />
<circle cx="383.0" cy="165.0" r="3.1" fill="white" />
<circle cx="472.0" cy="178.0" r="2.2" fill="white" />
<circle cx="122.0" cy="70.0" r="3.4" fill="white" />
<circle cx="392.0" cy="106.0" r="2.8" fill="white" />
<circle cx="219.0" cy="24.0" r="3.1" fill="white" />
<circle cx="238.0" cy="57.0" r="1.7" fill="white" />
<circle cx="242.0" cy="88.0" r="2.4" fill="white" />
<path d="M 20 430 C 107 418, 186 452, 292 437 S 450 385, 512 415" stroke="#5dade2" stroke-width="8" fill="none" opacity="0.85" />
<line x1="0" y1="387" x2="512" y2="387" stroke="#445566" stroke-width="3" />
<polygon points="183,363 223,303 263,323 283,293 303,313 315,353 283,375 233,379" fill="#1e1e1e" />
<polygon points="258,303 271,281 281,305" fill="#1e1e1e" />
<line x1="313" y1="348" x2="343" y2="323" stroke="#1e1e1e" stroke-width="6" />
</svg>
