<svg xmlns="http://www.w3.org/2000/svg" width="512" height="512" viewBox="0 0 512 512">
<rect width="100%" height="100%" fill="#0b1020"/>
<circle cx="389" cy="95" r="41" fill="#f8f3c9" opacity="0.95" />
<circle cx="114.0" cy="86.0" r="2.9" fill="white" />
<circle cx="285.0" cy="116.0" r="3.2" fill="white" />
<circle cx="278.0" cy="28.0" r="2.8" fill="white" />
<circle cx="82.0" cy="42.0" r="1.9" fill="white" />
<circle cx="411.0" cy="128.0" r="2.5" fill="white" />
<circle cx="477.0" cy="34.0" r="1.7" fill="white" />
<circle cx="136.0" cy="107.0" r="2.4" fill="white" />
<circle cx="228.0" cy="138.0" r="3.4" fill="white" />
<path d="M 20 430 C 107 423, 172 460, 287 427 S 450 387, 512 417" stroke="#5dade2" stroke-width="7" fill="none" opacity="0.85" />
<line x1="0" y1="385" x2="512" y2="385" stroke="#445566" stroke-width="4" />
<polygon points="206,351 246,291 286,311 306,281 326,301 338,341 306,363 256,367" fill="#1e1e1e" />
<polygon points="281,291 294,269 304,293" fill="#1e1e1e" />
<line x1="336" y1="336" x2="366" y2="311" stroke="#1e1e1e" stroke-width="6" />
</svg>
