<svg xmlns="http://www.w3.org/2000/svg" width="512" height="512" viewBox="0 0 512 512">
<rect width="100%" height="100%" fill="#0b1020"/>
<circle cx="422" cy="119" r="52" fill="#f8f3c9" opacity="0.95" />
<circle cx="400.0" cy="127.0" r="1.9" fill="white" />
<circle cx="300.0" cy="139.0" r="2.0" fill="white" />
<circle cx="261.0" cy="25.0" r="2.3" fill="white" />
<circle cx="439.0" cy="141.0" r="1.5" fill="white" />
<circle cx="483.0" cy="110.0" r="1.7" fill="white" />
<circle cx="275.0" cy="138.0" r="2.3" fill="white" />
<circle cx="435.0" cy="58.0" r="1.6" fill="white" />
<path d="M 20 430 C 121 423, 186 454, 310 430 S 450 401, 512 431" stroke="#5dade2" stroke-width="6" fill="none" opacity="0.85" />
<line x1="0" y1="411" x2="512" y2="411" stroke="#445566" stroke-width="2" />
<polygon points="188,362 228,302 268,322 288,292 308,312 320,352 288,374 238,378" fill="#1e1e1e" />
<polygon points="263,302 276,280 286,304" fill="#1e1e1e" />
<line x1="318" y1="347" x2="348" y2="322" stroke="#1e1e1e" stroke-width="6" />
</svg>
