<svg xmlns="http://www.w3.org/2000/svg" width="512" height="512" viewBox="0 0 512 512">
<rect width="100%" height="100%" fill="#0b1020"/>
<circle cx="414" cy="122" r="54" fill="#f8f3c9" opacity="0.95" />
<circle cx="133.0" cy="122.0" r="1.9" fill="white" />
<circle cx="276.0" cy="165.0" r="3.0" fill="white" />
<circle cx="154.0" cy="94.0" r="3.3" fill="white" />
<circle cx="395.0" cy="59.0" r="3.3" fill="white" />
<circle cx="58.0" cy="160.0" r="2.1" fill="white" />
<circle cx="117.0" cy="40.0" r="1.7" fill="white" />
<circle cx="425.0" cy="136.0" r="2.5" fill="white" />
<path d="M 20 430 C 108 414, 177 453, 292 423 S 450 383, 512 413" stroke="#5dade2" stroke-width="6" fill="none" opacity="0.85" />
<line x1="0" y1="413" x2="512" y2="413" stroke="#445566" stroke-width="4" />
<polygon points="177,361 217,301 257,321 277,291 297,311 309,351 277,373 227,377" fill="#1e1e1e" />
<polygon points="252,301 265,279 275,303" fill="#1e1e1e" />
<line x1="307" y1="346" x2="337" y2="321" stroke="#1e1e1e" stroke-width="6" />
</svg>
