<svg xmlns="http://www.w3.org/2000/svg" width="512" height="512" viewBox="0 0 512 512">
<rect width="100%" height="100%" fill="black"/>
<circle cx="229" cy="188" r="3" fill="hsl(0, 80%, 65%)" />
<circle cx="431" cy="152" r="8" fill="hsl(9, 80%, 65%)" />
<circle cx="403" cy="390" r="7" fill="hsl(18, 80%, 65%)" />
<circle cx="339" cy="424" r="7" fill="hsl(27, 80%, 65%)" />
<circle cx="211" cy="203" r="8" fill="hsl(36, 80%, 65%)" />
<circle cx="208" cy="302" r="7" fill="hsl(45, 80%, 65%)" />
<circle cx="280" cy="187" r="2" fill="hsl(54, 80%, 65%)" />
<circle cx="336" cy="75" r="5" fill="hsl(63, 80%, 65%)" />
<circle cx="305" cy="192" r="3" fill="hsl(72, 80%, 65%)" />
<circle cx="202" cy="77" r="8" fill="hsl(81, 80%, 65%)" />
<circle cx="215" cy="96" r="7" fill="hsl(90, 80%, 65%)" />
<circle cx="233" cy="179" r="6" fill="hsl(99, 80%, 65%)" />
<circle cx="231" cy="188" r="8" fill="hsl(108, 80%, 65%)" />
<circle cx="116" cy="354" r="4" fill="hsl(117, 80%, 65%)" />
<circle cx="84" cy="110" r="5" fill="hsl(126, 80%, 65%)" />
<circle cx="316" cy="227" r="5" fill="hsl(135, 80%, 65%)" />
<circle cx="337" cy="299" r="6" fill="hsl(144, 80%, 65%)" />
<circle cx="251" cy="217" r="6" fill="hsl(153, 80%, 65%)" />
<circle cx="187" cy="75" r="5" fill="hsl(162, 80%, 65%)" />
<circle cx="103" cy="292" r="4" fill="hsl(171, 80%, 65%)" />
<circle cx="388" cy="182" r="8" fill="hsl(180, 80%, 65%)" />
<circle cx="173" cy="381" r="3" fill="hsl(189, 80%, 65%)" />
<circle cx="262" cy="267" r="2" fill="hsl(198, 80%, 65%)" />
<circle cx="162" cy="179" r="2" fill="hsl(207, 80%, 65%)" />
<circle cx="359" cy="199" r="3" fill="hsl(216, 80%, 65%)" />
<circle cx="270" cy="314" r="2" fill="hsl(225, 80%, 65%)" />
<circle cx="311" cy="409" r="8" fill="hsl(234, 80%, 65%)" />
<circle cx="341" cy="417" r="5" fill="hsl(243, 80%, 65%)" />
<circle cx="327" cy="213" r="7" fill="hsl(252, 80%, 65%)" />
<circle cx="301" cy="162" r="2" fill="hsl(261, 80%, 65%)" />
<circle cx="437" cy="201" r="4" fill="hsl(270, 80%, 65%)" />
<circle cx="323" cy="402" r="2" fill="hsl(279, 80%, 65%)" />
<circle cx="232" cy="396" r="8" fill="hsl(288, 80%, 65%)" />
<circle cx="131" cy="347" r="5" fill="hsl(297, 80%, 65%)" />
<circle cx="212" cy="138" r="5" fill="hsl(306, 80%, 65%)" />
<circle cx="141" cy="262" r="3" fill="hsl(315, 80%, 65%)" />
<circle cx="352" cy="223" r="5" fill="hsl(324, 80%, 65%)" />
<circle cx="92" cy="182" r="5" fill="hsl(333, 80%, 65%)" />
<circle cx="405" cy="127" r="3" fill="hsl(342, 80%, 65%)" />
<circle cx="135" cy="181" r="6" fill="hsl(351, 80%, 65%)" />
<circle cx="409" cy="89" r="8" fill="hsl(0, 80%, 65%)" />
<circle cx="185" cy="120" r="4" fill="hsl(9, 80%, 65%)" />
<circle cx="154" cy="268" r="4" fill="hsl(18, 80%, 65%)" />
<circle cx="269" cy="249" r="4" fill="hsl(27, 80%, 65%)" />
<circle cx="166" cy="403" r="8" fill="hsl(36, 80%, 65%)" />
<circle cx="431" cy="391" r="3" fill="hsl(45, 80%, 65%)" />
<circle cx="224" cy="242" r="3" fill="hsl(54, 80%, 65%)" />
<circle cx="293" cy="412" r="4" fill="hsl(63, 80%, 65%)" />
<circle cx="273" cy="352" r="8" fill="hsl(72, 80%, 65%)" />
<circle cx="379" cy="244" r="7" fill="hsl(81, 80%, 65%)" />
<circle cx="260" cy="306" r="8" fill="hsl(90, 80%, 65%)" />
<circle cx="436" cy="223" r="8" fill="hsl(99, 80%, 65%)" />
<circle cx="430" cy="151" r="7" fill="hsl(108, 80%, 65%)" />
<circle cx="339" cy="362" r="5" fill="hsl(117, 80%, 65%)" />
<circle cx="165" cy="173" r="6" fill="hsl(126, 80%, 65%)" />
<circle cx="335" cy="349" r="2" fill="hsl(135, 80%, 65%)" />
<circle cx="297" cy="235" r="2" fill="hsl(144, 80%, 65%)" />
<circle cx="263" cy="355" r="6" fill="hsl(153, 80%, 65%)" />
<circle cx="339" cy="130" r="8" fill="hsl(162, 80%, 65%)" />
<circle cx="423" cy="369" r="4" fill="hsl(171, 80%, 65%)" />
<circle cx="100" cy="82" r="6" fill="hsl(180, 80%, 65%)" />
<circle cx="233" cy="200" r="6" fill="hsl(189, 80%, 65%)" />
<circle cx="186" cy="333" r="6" fill="hsl(198, 80%, 65%)" />
<circle cx="348" cy="437" r="8" fill="hsl(207, 80%, 65%)" />
<circle cx="259" cy="331" r="5" fill="hsl(216, 80%, 65%)" />
<circle cx="428" cy="331" r="4" fill="hsl(225, 80%, 65%)" />
<circle cx="384" cy="265" r="2" fill="hsl(234, 80%, 65%)" />
<circle cx="429" cy="370" r="3" fill="hsl(243, 80%, 65%)" />
<circle cx="96" cy="301" r="8" fill="hsl(252, 80%, 65%)" />
<circle cx="217" cy="150" r="6" fill="hsl(261, 80%, 65%)" />
<circle cx="283" cy="381" r="7" fill="hsl(270, 80%, 65%)" />
<circle cx="310" cy="358" r="8" fill="hsl(279, 80%, 65%)" />
<circle cx="146" cy="323" r="6" fill="hsl(288, 80%, 65%)" />
<circle cx="309" cy="378" r="4" fill="hsl(297, 80%, 65%)" />
<circle cx="211" cy="369" r="3" fill="hsl(306, 80%, 65%)" />
<circle cx="411" cy="354" r="5" fill="hsl(315, 80%, 65%)" />
<circle cx="208" cy="267" r="7" fill="hsl(324, 80%, 65%)" />
<circle cx="248" cy="351" r="8" fill="hsl(333, 80%, 65%)" />
<circle cx="355" cy="71" r="8" fill="hsl(342, 80%, 65%)" />
<circle cx="121" cy="176" r="2" fill="hsl(351, 80%, 65%)" />
<circle cx="280" cy="220" r="6" fill="hsl(0, 80%, 65%)" />
<circle cx="348" cy="309" r="2" fill="hsl(9, 80%, 65%)" />
<circle cx="312" cy="109" r="7" fill="hsl(18, 80%, 65%)" />
<circle cx="163" cy="129" r="4" fill="hsl(27, 80%, 65%)" />
<circle cx="283" cy="377" r="7" fill="hsl(36, 80%, 65%)" />
<circle cx="283" cy="300" r="7" fill="hsl(45, 80%, 65%)" />
<circle cx="85" cy="205" r="7" fill="hsl(54, 80%, 65%)" />
<circle cx="267" cy="436" r="3" fill="hsl(63, 80%, 65%)" />
<circle cx="277" cy="157" r="2" fill="hsl(72, 80%, 65%)" />
<circle cx="147" cy="365" r="3" fill="hsl(81, 80%, 65%)" />
<circle cx="328" cy="375" r="3" fill="hsl(90, 80%, 65%)" />
<circle cx="317" cy="256" r="7" fill="hsl(99, 80%, 65%)" />
<circle cx="201" cy="221" r="4" fill="hsl(108, 80%, 65%)" />
<circle cx="428" cy="153" r="3" fill="hsl(117, 80%, 65%)" />
<circle cx="378" cy="191" r="6" fill="hsl(126, 80%, 65%)" />
<circle cx="72" cy="416" r="2" fill="hsl(135, 80%, 65%)" />
<circle cx="143" cy="222" r="6" fill="hsl(144, 80%, 65%)" />
<circle cx="316" cy="310" r="8" fill="hsl(153, 80%, 65%)" />
<circle cx="109" cy="333" r="4" fill="hsl(162, 80%, 65%)" />
<circle cx="322" cy="120" r="7" fill="hsl(171, 80%, 65%)" />
<circle cx="371" cy="335" r="8" fill="hsl(180, 80%, 65%)" />
<circle cx="216" cy="187" r="7" fill="hsl(189, 80%, 65%)" />
<circle cx="419" cy="280" r="5" fill="hsl(198, 80%, 65%)" />
<circle cx="328" cy="274" r="5" fill="hsl(207, 80%, 65%)" />
<circle cx="376" cy="208" r="2" fill="hsl(216, 80%, 65%)" />
<circle cx="118" cy="208" r="6" fill="hsl(225, 80%, 65%)" />
<circle cx="347" cy="392" r="5" fill="hsl(234, 80%, 65%)" />
<circle cx="359" cy="175" r="4" fill="hsl(243, 80%, 65%)" />
<circle cx="374" cy="189" r="4" fill="hsl(252, 80%, 65%)" />
<circle cx="238" cy="312" r="6" fill="hsl(261, 80%, 65%)" />
<circle cx="123" cy="263" r="5" fill="hsl(270, 80%, 65%)" />
<circle cx="208" cy="341" r="5" fill="hsl(279, 80%, 65%)" />
<circle cx="259" cy="76" r="3" fill="hsl(288, 80%, 65%)" />
<circle cx="223" cy="155" r="6" fill="hsl(297, 80%, 65%)" />
<circle cx="248" cy="135" r="2" fill="hsl(306, 80%, 65%)" />
<circle cx="100" cy="287" r="6" fill="hsl(315, 80%, 65%)" />
<circle cx="122" cy="79" r="7" fill="hsl(324, 80%, 65%)" />
<circle cx="141" cy="122" r="8" fill="hsl(333, 80%, 65%)" />
<circle cx="206" cy="86" r="6" fill="hsl(342, 80%, 65%)" />
<circle cx="313" cy="380" r="7" fill="hsl(351, 80%, 65%)" />
<circle cx="232" cy="424" r="8" fill="hsl(0, 80%, 65%)" />
<circle cx="379" cy="310" r="8" fill="hsl(9, 80%, 65%)" />
<circle cx="413" cy="279" r="4" fill="hsl(18, 80%, 65%)" />
<circle cx="306" cy="424" r="7" fill="hsl(27, 80%, 65%)" />
<circle cx="433" cy="182" r="7" fill="hsl(36, 80%, 65%)" />
<circle cx="294" cy="149" r="3" fill="hsl(45, 80%, 65%)" />
<circle cx="227" cy="95" r="5" fill="hsl(54, 80%, 65%)" />
<circle cx="344" cy="160" r="4" fill="hsl(63, 80%, 65%)" />
<circle cx="259" cy="141" r="6" fill="hsl(72, 80%, 65%)" />
<circle cx="425" cy="402" r="8" fill="hsl(81, 80%, 65%)" />
<circle cx="132" cy="410" r="7" fill="hsl(90, 80%, 65%)" />
<circle cx="265" cy="360" r="4" fill="hsl(99, 80%, 65%)" />
<circle cx="162" cy="417" r="2" fill="hsl(108, 80%, 65%)" />
<circle cx="192" cy="196" r="3" fill="hsl(117, 80%, 65%)" />
<circle cx="120" cy="357" r="4" fill="hsl(126, 80%, 65%)" />
<circle cx="274" cy="237" r="5" fill="hsl(135, 80%, 65%)" />
<circle cx="311" cy="352" r="6" fill="hsl(144, 80%, 65%)" />
<circle cx="395" cy="240" r="6" fill="hsl(153, 80%, 65%)" />
<circle cx="434" cy="334" r="2" fill="hsl(162, 80%, 65%)" />
<circle cx="326" cy="321" r="2" fill="hsl(171, 80%, 65%)" />
<circle cx="380" cy="251" r="5" fill="hsl(180, 80%, 65%)" />
<circle cx="330" cy="423" r="2" fill="hsl(189, 80%, 65%)" />
<circle cx="193" cy="123" r="4" fill="hsl(198, 80%, 65%)" />
<circle cx="242" cy="299" r="8" fill="hsl(207, 80%, 65%)" />
<circle cx="318" cy="162" r="6" fill="hsl(216, 80%, 65%)" />
<circle cx="250" cy="172" r="6" fill="hsl(225, 80%, 65%)" />
<circle cx="112" cy="212" r="3" fill="hsl(234, 80%, 65%)" />
<circle cx="311" cy="311" r="5" fill="hsl(243, 80%, 65%)" />
<circle cx="321" cy="354" r="4" fill="hsl(252, 80%, 65%)" />
<circle cx="330" cy="226" r="7" fill="hsl(261, 80%, 65%)" />
<circle cx="200" cy="209" r="6" fill="hsl(270, 80%, 65%)" />
<circle cx="102" cy="416" r="3" fill="hsl(279, 80%, 65%)" />
<circle cx="77" cy="157" r="3" fill="hsl(288, 80%, 65%)" />
<circle cx="413" cy="235" r="7" fill="hsl(297, 80%, 65%)" />
<circle cx="218" cy="151" r="8" fill="hsl(306, 80%, 65%)" />
<circle cx="340" cy="400" r="6" fill="hsl(315, 80%, 65%)" />
<circle cx="341" cy="273" r="3" fill="hsl(324, 80%, 65%)" />
<circle cx="433" cy="195" r="5" fill="hsl(333, 80%, 65%)" />
<circle cx="397" cy="90" r="5" fill="hsl(342, 80%, 65%)" />
<circle cx="157" cy="263" r="3" fill="hsl(351, 80%, 65%)" />
<circle cx="252" cy="105" r="2" fill="hsl(0, 80%, 65%)" />
<circle cx="431" cy="237" r="5" fill="hsl(9, 80%, 65%)" />
<circle cx="152" cy="194" r="2" fill="hsl(18, 80%, 65%)" />
<circle cx="199" cy="361" r="2" fill="hsl(27, 80%, 65%)" />
<circle cx="92" cy="263" r="4" fill="hsl(36, 80%, 65%)" />
<circle cx="296" cy="386" r="8" fill="hsl(45, 80%, 65%)" />
<circle cx="322" cy="146" r="6" fill="hsl(54, 80%, 65%)" />
<circle cx="185" cy="407" r="2" fill="hsl(63, 80%, 65%)" />
<circle cx="440" cy="102" r="4" fill="hsl(72, 80%, 65%)" />
<circle cx="244" cy="416" r="4" fill="hsl(81, 80%, 65%)" />
<circle cx="389" cy="78" r="5" fill="hsl(90, 80%, 65%)" />
<circle cx="279" cy="78" r="4" fill="hsl(99, 80%, 65%)" />
<circle cx="145" cy="136" r="3" fill="hsl(108, 80%, 65%)" />
<circle cx="378" cy="107" r="2" fill="hsl(117, 80%, 65%)" />
<circle cx="133" cy="313" r="4" fill="hsl(126, 80%, 65%)" />
<circle cx="174" cy="404" r="7" fill="hsl(135, 80%, 65%)" />
<circle cx="141" cy="292" r="7" fill="hsl(144, 80%, 65%)" />
<circle cx="329" cy="311" r="3" fill="hsl(153, 80%, 65%)" />
<circle cx="103" cy="298" r="5" fill="hsl(162, 80%, 65%)" />
<circle cx="194" cy="409" r="4" fill="hsl(171, 80%, 65%)" />
<line x1="380" y1="96" x2="352" y2="136" stroke="#223344" stroke-width="1"/>
<line x1="122" y1="324" x2="108" y2="250" stroke="#223344" stroke-width="1"/>
<line x1="148" y1="161" x2="113" y2="124" stroke="#223344" stroke-width="1"/>
<line x1="418" y1="69" x2="380" y2="113" stroke="#223344" stroke-width="1"/>
<line x1="317" y1="110" x2="314" y2="76" stroke="#223344" stroke-width="1"/>
<line x1="309" y1="168" x2="262" y2="247" stroke="#223344" stroke-width="1"/>
<line x1="113" y1="119" x2="80" y2="139" stroke="#223344" stroke-width="1"/>
<line x1="374" y1="365" x2="332" y2="391" stroke="#223344" stroke-width="1"/>
<line x1="380" y1="415" x2="435" y2="420" stroke="#223344" stroke-width="1"/>
<line x1="95" y1="398" x2="142" y2="423" stroke="#223344" stroke-width="1"/>
<line x1="299" y1="351" x2="263" y2="346" stroke="#223344" stroke-width="1"/>
<line x1="158" y1="402" x2="117" y2="365" stroke="#223344" stroke-width="1"/>
<line x1="193" y1="201" x2="205" y2="122" stroke="#223344" stroke-width="1"/>
<line x1="380" y1="383" x2="413" y2="398" stroke="#223344" stroke-width="1"/>
<line x1="376" y1="414" x2="451" y2="468" stroke="#223344" stroke-width="1"/>
<line x1="331" y1="264" x2="320" y2="289" stroke="#223344" stroke-width="1"/>
<line x1="276" y1="180" x2="245" y2="242" stroke="#223344" stroke-width="1"/>
<line x1="193" y1="257" x2="118" y2="272" stroke="#223344" stroke-width="1"/>
<line x1="111" y1="383" x2="164" y2="392" stroke="#223344" stroke-width="1"/>
<line x1="238" y1="358" x2="283" y2="294" stroke="#223344" stroke-width="1"/>
<line x1="443" y1="373" x2="428" y2="326" stroke="#223344" stroke-width="1"/>
<line x1="330" y1="304" x2="353" y2="329" stroke="#223344" stroke-width="1"/>
<line x1="309" y1="157" x2="303" y2="156" stroke="#223344" stroke-width="1"/>
<line x1="67" y1="338" x2="0" y2="372" stroke="#223344" stroke-width="1"/>
</svg>
