<svg xmlns="http://www.w3.org/2000/svg" width="512" height="512" viewBox="0 0 512 512">
<rect width="100%" height="100%" fill="#0b1020"/>
<circle cx="418" cy="89" r="49" fill="#f8f3c9" opacity="0.95" />
<circle cx="72.0" cy="129.0" r="3.1" fill="white" />
<circle cx="45.0" cy="119.0" r="3.3" fill="white" />
<circle cx="249.0" cy="81.0" r="2.4" fill="white" />
<circle cx="291.0" cy="57.0" r="2.5" fill="white" />
<circle cx="268.0" cy="48.0" r="3.1" fill="white" />
<circle cx="367.0" cy="134.0" r="2.8" fill="white" />
<circle cx="300.0" cy="121.0" r="1.8" fill="white" />
<circle cx="149.0" cy="173.0" r="1.8" fill="white" />
<circle cx="158.0" cy="175.0" r="2.9" fill="white" />
<circle cx="300.0" cy="144.0" r="2.3" fill="white" />
<circle cx="350.0" cy="73.0" r="1.8" fill="white" />
<circle cx="24.0" cy="125.0" r="3.0" fill="white" />
<path d="M 20 430 C 103 421, 179 460, 293 429 S 450 404, 512 434" stroke="#5dade2" stroke-width="6" fill="none" opacity="0.85" />
<line x1="0" y1="413" x2="512" y2="413" stroke="#445566" stroke-width="4" />
<polygon points="206,360 246,300 286,320 306,290 326,310 338,350 306,372 256,376" fill="#1e1e1e" />
<polygon points="281,300 294,278 304,302" fill="#1e1e1e" />
<line x1="336" y1="345" x2="366" y2="320" stroke="#1e1e1e" stroke-width="6" />
</svg>
