<svg xmlns="http://www.w3.org/2000/svg" width="512" height="512" viewBox="0 0 512 512">
<rect width="100%" height="100%" fill="black"/>
<circle cx="256" cy="256" r="16" fill="gold" />
<line x1="256" y1="256" x2="441.00" y2="256.00" stroke="hsl(0, 85%, 65%)" stroke-width="2"/>
<line x1="256" y1="256" x2="439.28" y2="281.19" stroke="hsl(13, 85%, 65%)" stroke-width="2"/>
<circle cx="454.14" cy="282.96" r="7" fill="hsl(13, 85%, 65%)" />
<line x1="256" y1="256" x2="434.14" y2="305.91" stroke="hsl(18, 85%, 65%)" stroke-width="2"/>
<circle cx="445.69" cy="311.85" r="3" fill="hsl(18, 85%, 65%)" />
<line x1="256" y1="256" x2="425.68" y2="329.70" stroke="hsl(36, 85%, 65%)" stroke-width="3"/>
<circle cx="446.78" cy="333.29" r="3" fill="hsl(36, 85%, 65%)" />
<line x1="256" y1="256" x2="414.07" y2="352.12" stroke="hsl(40, 85%, 65%)" stroke-width="3"/>
<circle cx="427.74" cy="358.36" r="4" fill="hsl(40, 85%, 65%)" />
<line x1="256" y1="256" x2="399.51" y2="372.75" stroke="hsl(40, 85%, 65%)" stroke-width="2"/>
<circle cx="407.26" cy="384.74" r="4" fill="hsl(40, 85%, 65%)" />
<line x1="256" y1="256" x2="382.27" y2="391.20" stroke="hsl(60, 85%, 65%)" stroke-width="1"/>
<circle cx="400.02" cy="405.82" r="7" fill="hsl(60, 85%, 65%)" />
<line x1="256" y1="256" x2="362.69" y2="407.14" stroke="hsl(91, 85%, 65%)" stroke-width="3"/>
<circle cx="373.07" cy="419.39" r="4" fill="hsl(91, 85%, 65%)" />
<line x1="256" y1="256" x2="341.11" y2="420.26" stroke="hsl(120, 85%, 65%)" stroke-width="1"/>
<circle cx="348.93" cy="438.02" r="7" fill="hsl(120, 85%, 65%)" />
<line x1="256" y1="256" x2="317.95" y2="430.32" stroke="hsl(126, 85%, 65%)" stroke-width="3"/>
<circle cx="326.66" cy="451.99" r="6" fill="hsl(126, 85%, 65%)" />
<line x1="256" y1="256" x2="293.64" y2="437.13" stroke="hsl(80, 85%, 65%)" stroke-width="3"/>
<circle cx="298.93" cy="454.75" r="4" fill="hsl(80, 85%, 65%)" />
<line x1="256" y1="256" x2="268.62" y2="440.57" stroke="hsl(132, 85%, 65%)" stroke-width="1"/>
<circle cx="269.38" cy="465.51" r="6" fill="hsl(132, 85%, 65%)" />
<line x1="256" y1="256" x2="243.38" y2="440.57" stroke="hsl(132, 85%, 65%)" stroke-width="3"/>
<circle cx="242.56" cy="457.53" r="5" fill="hsl(132, 85%, 65%)" />
<line x1="256" y1="256" x2="218.36" y2="437.13" stroke="hsl(91, 85%, 65%)" stroke-width="3"/>
<circle cx="213.48" cy="444.96" r="3" fill="hsl(91, 85%, 65%)" />
<line x1="256" y1="256" x2="194.05" y2="430.32" stroke="hsl(140, 85%, 65%)" stroke-width="2"/>
<line x1="256" y1="256" x2="170.89" y2="420.26" stroke="hsl(165, 85%, 65%)" stroke-width="3"/>
<circle cx="158.01" cy="440.68" r="3" fill="hsl(165, 85%, 65%)" />
<line x1="256" y1="256" x2="149.31" y2="407.14" stroke="hsl(240, 85%, 65%)" stroke-width="3"/>
<circle cx="141.24" cy="417.76" r="3" fill="hsl(240, 85%, 65%)" />
<line x1="256" y1="256" x2="129.73" y2="391.20" stroke="hsl(204, 85%, 65%)" stroke-width="1"/>
<circle cx="112.66" cy="400.71" r="7" fill="hsl(204, 85%, 65%)" />
<line x1="256" y1="256" x2="112.49" y2="372.75" stroke="hsl(252, 85%, 65%)" stroke-width="2"/>
<circle cx="96.98" cy="390.42" r="5" fill="hsl(252, 85%, 65%)" />
<line x1="256" y1="256" x2="97.93" y2="352.12" stroke="hsl(247, 85%, 65%)" stroke-width="1"/>
<circle cx="91.10" cy="358.36" r="5" fill="hsl(247, 85%, 65%)" />
<line x1="256" y1="256" x2="86.32" y2="329.70" stroke="hsl(300, 85%, 65%)" stroke-width="3"/>
<line x1="256" y1="256" x2="77.86" y2="305.91" stroke="hsl(147, 85%, 65%)" stroke-width="1"/>
<circle cx="58.60" cy="310.50" r="6" fill="hsl(147, 85%, 65%)" />
<line x1="256" y1="256" x2="72.72" y2="281.19" stroke="hsl(176, 85%, 65%)" stroke-width="3"/>
<circle cx="62.82" cy="282.96" r="6" fill="hsl(176, 85%, 65%)" />
<line x1="256" y1="256" x2="71.00" y2="256.00" stroke="hsl(230, 85%, 65%)" stroke-width="3"/>
<line x1="256" y1="256" x2="72.72" y2="230.81" stroke="hsl(0, 85%, 65%)" stroke-width="3"/>
<line x1="256" y1="256" x2="77.86" y2="206.09" stroke="hsl(225, 85%, 65%)" stroke-width="3"/>
<circle cx="54.75" cy="200.42" r="4" fill="hsl(225, 85%, 65%)" />
<line x1="256" y1="256" x2="86.32" y2="182.30" stroke="hsl(234, 85%, 65%)" stroke-width="3"/>
<circle cx="67.97" cy="177.12" r="5" fill="hsl(234, 85%, 65%)" />
<line x1="256" y1="256" x2="97.93" y2="159.88" stroke="hsl(297, 85%, 65%)" stroke-width="3"/>
<circle cx="83.41" cy="155.20" r="4" fill="hsl(297, 85%, 65%)" />
<line x1="256" y1="256" x2="112.49" y2="139.25" stroke="hsl(4, 85%, 65%)" stroke-width="1"/>
<circle cx="103.18" cy="123.47" r="7" fill="hsl(4, 85%, 65%)" />
<line x1="256" y1="256" x2="129.73" y2="120.80" stroke="hsl(319, 85%, 65%)" stroke-width="3"/>
<circle cx="124.27" cy="113.49" r="3" fill="hsl(319, 85%, 65%)" />
<line x1="256" y1="256" x2="149.31" y2="104.86" stroke="hsl(30, 85%, 65%)" stroke-width="1"/>
<circle cx="141.82" cy="95.06" r="4" fill="hsl(30, 85%, 65%)" />
<line x1="256" y1="256" x2="170.89" y2="91.74" stroke="hsl(310, 85%, 65%)" stroke-width="1"/>
<line x1="256" y1="256" x2="194.05" y2="81.68" stroke="hsl(56, 85%, 65%)" stroke-width="1"/>
<circle cx="186.01" cy="65.66" r="3" fill="hsl(56, 85%, 65%)" />
<line x1="256" y1="256" x2="218.36" y2="74.87" stroke="hsl(264, 85%, 65%)" stroke-width="3"/>
<line x1="256" y1="256" x2="243.38" y2="71.43" stroke="hsl(340, 85%, 65%)" stroke-width="1"/>
<circle cx="242.56" cy="48.48" r="6" fill="hsl(340, 85%, 65%)" />
<line x1="256" y1="256" x2="268.62" y2="71.43" stroke="hsl(60, 85%, 65%)" stroke-width="3"/>
<line x1="256" y1="256" x2="293.64" y2="74.87" stroke="hsl(324, 85%, 65%)" stroke-width="3"/>
<circle cx="297.10" cy="61.16" r="6" fill="hsl(324, 85%, 65%)" />
<line x1="256" y1="256" x2="317.95" y2="81.68" stroke="hsl(121, 85%, 65%)" stroke-width="1"/>
<circle cx="325.99" cy="70.37" r="5" fill="hsl(121, 85%, 65%)" />
<line x1="256" y1="256" x2="341.11" y2="91.74" stroke="hsl(266, 85%, 65%)" stroke-width="1"/>
<circle cx="348.01" cy="69.54" r="6" fill="hsl(266, 85%, 65%)" />
<line x1="256" y1="256" x2="362.69" y2="104.86" stroke="hsl(273, 85%, 65%)" stroke-width="1"/>
<circle cx="367.30" cy="95.87" r="7" fill="hsl(273, 85%, 65%)" />
<line x1="256" y1="256" x2="382.27" y2="120.80" stroke="hsl(240, 85%, 65%)" stroke-width="2"/>
<circle cx="389.78" cy="103.99" r="6" fill="hsl(240, 85%, 65%)" />
<line x1="256" y1="256" x2="399.51" y2="139.25" stroke="hsl(214, 85%, 65%)" stroke-width="3"/>
<circle cx="408.04" cy="133.57" r="4" fill="hsl(214, 85%, 65%)" />
<line x1="256" y1="256" x2="414.07" y2="159.88" stroke="hsl(228, 85%, 65%)" stroke-width="2"/>
<circle cx="431.16" cy="153.64" r="3" fill="hsl(228, 85%, 65%)" />
<line x1="256" y1="256" x2="425.68" y2="182.30" stroke="hsl(301, 85%, 65%)" stroke-width="3"/>
<line x1="256" y1="256" x2="434.14" y2="206.09" stroke="hsl(308, 85%, 65%)" stroke-width="2"/>
<circle cx="450.51" cy="203.39" r="7" fill="hsl(308, 85%, 65%)" />
<line x1="256" y1="256" x2="439.28" y2="230.81" stroke="hsl(0, 85%, 65%)" stroke-width="3"/>
</svg>
