<svg xmlns="http://www.w3.org/2000/svg" width="512" height="512" viewBox="0 0 512 512">
<rect width="100%" height="100%" fill="black"/>
<polyline points="262.00,256.00 262.95,257.92 263.22,260.33 262.63,262.97 261.10,265.55 258.63,267.75 255.34,269.23 251.45,269.72 247.28,269.01 243.21,267.00 239.65,263.70 237.00,259.26 235.62,253.95 235.78,248.15 237.64,242.31 241.22,236.96 246.38,232.59 252.83,229.67 260.15,228.58 267.81,229.59 275.20,232.77 281.70,238.04 286.70,245.15 289.68,253.65 290.27,262.97 288.25,272.41 283.59,281.23 276.49,288.70 267.37,294.14 256.80,297.00 245.53,296.90 234.39,293.67 224.27,287.38 215.99,278.36 210.30,267.16 207.77,254.52 208.76,241.35 213.37,228.62 221.42,217.34 232.46,208.43 245.78,202.68 260.48,200.69 275.49,202.75 289.70,208.91 301.98,218.85 311.34,231.99 316.93,247.46 318.20,264.19 314.87,280.96 307.02,296.52 295.07,309.64 279.76,319.25 262.12,324.50 243.40,324.84 224.96,320.06 208.19,310.36 194.41,296.29 184.74,278.76 180.04,258.96 180.83,238.31 187.22,218.31 198.91,200.48 215.19,186.21 234.98,176.69 256.93,172.75 279.45,174.85 300.88,183.03 319.62,196.83 334.17,215.40 343.35,237.48 346.33,261.54 342.72,285.84 332.61,308.58 316.57,328.04 295.65,342.69 271.26,351.32 245.14,353.14 219.16,347.84 195.25,335.63 175.24,317.26 160.70,293.93 152.83,267.25 152.38,239.12 159.55,211.57 173.98,186.66 194.78,166.29 220.55,152.06 249.51,145.17 279.57,146.27 308.56,155.48 334.31,172.27 354.85,195.57 368.55,223.81 374.26,255.01 371.40,286.92 360.01,317.21 340.74,343.61 314.86,364.11 284.15,377.07 250.76,381.40 217.12,376.60 185.68,362.86 158.80,341.01 138.55,312.51 126.54,279.33 123.81,243.82 130.72,208.56 146.96,176.13 171.48,148.98 202.64,129.19 238.26,118.35 275.81,117.41 312.56,126.62 345.80,145.47 373.02,172.75 392.13,206.59 401.59,244.62 400.53,284.11 388.86,322.20 367.27,356.07 337.18,383.15 300.66,401.36 260.28,409.21 218.94,405.97 179.67,391.69 145.37,367.26 118.65,334.29 101.56,295.09 95.52,252.43 101.14,209.39 118.18,169.10 145.55,134.58 181.42,108.43 223.27,92.69 268.13,88.68 312.75,96.85 353.86,116.78 388.40,147.18 413.74,185.97 427.90,230.43 429.69,277.38 418.80,323.42 395.85,365.17 362.36,399.50 320.64,423.81 273.63,436.18 224.70,435.54 177.40,421.76 135.22,395.69 101.32,359.06 78.28,314.41 67.93,264.92 71.19,214.14 88.00,165.77 117.31,123.37 157.12,90.13 204.65,68.59 256.53,60.48 309.02,66.55 358.28,86.54 400.68,119.15 433.02,162.16 452.82,212.54 458.48,266.71 449.43,320.75 426.13,370.69 390.14,412.86 343.92,444.06 290.74,461.89 234.41,464.90 179.00,452.68 128.58,425.97 86.89,386.53 57.07,337.12 41.43,281.23 41.29,222.87 56.82,166.27 87.06,115.60 129.97,74.61 182.55,46.42 241.07,33.21 301.31,36.12 358.90,55.12 409.60,88.98 449.63,135.39 475.95,191.10 486.50,252.13 480.34,314.09 457.75,372.46 420.20,422.94 370.27,461.76 311.50,485.97 248.07,493.64 184.58,484.06 125.65,457.74 75.63,416.44 38.27,363.02 16.43,301.25 11.83,235.57 25.01,170.73 55.17,111.47 100.26,62.17 157.16,26.53 221.82,7.28 289.60,5.99 355.58,22.91 414.93,57.00 463.25,105.92 496.92,166.26 513.33,233.70 511.14,303.41 490.31,370.31 452.21,429.50 399.45,476.58 335.74,508.02 265.64,521.36 194.19,515.49 126.59,490.63 67.82,448.45 22.24,391.86" fill="none" stroke="cyan" stroke-width="2"/>
</svg>
