<svg xmlns="http://www.w3.org/2000/svg" width="512" height="512" viewBox="0 0 512 512">
<rect width="100%" height="100%" fill="#0b1020"/>
<circle cx="451" cy="101" r="49" fill="#f8f3c9" opacity="0.95" />
<circle cx="33.0" cy="138.0" r="2.4" fill="white" />
<circle cx="479.0" cy="174.0" r="3.4" fill="white" />
<circle cx="109.0" cy="132.0" r="3.1" fill="white" />
<circle cx="304.0" cy="28.0" r="2.8" fill="white" />
<circle cx="117.0" cy="117.0" r="1.8" fill="white" />
<circle cx="260.0" cy="119.0" r="2.6" fill="white" />
<circle cx="327.0" cy="159.0" r="1.6" fill="white" />
<circle cx="330.0" cy="38.0" r="1.9" fill="white" />
<circle cx="47.0" cy="124.0" r="2.9" fill="white" />
<circle cx="114.0" cy="96.0" r="3.2" fill="white" />
<circle cx="245.0" cy="67.0" r="2.7" fill="white" />
<circle cx="330.0" cy="102.0" r="2.8" fill="white" />
<circle cx="410.0" cy="126.0" r="1.8" fill="white" />
<path d="M 20 430 C 106 421, 186 459, 282 433 S 450 394, 512 424" stroke="#5dade2" stroke-width="7" fill="none" opacity="0.85" />
<line x1="0" y1="408" x2="512" y2="408" stroke="#445566" stroke-width="3" />
<polygon points="189,365 229,305 269,325 289,295 309,315 321,355 289,377 239,381" fill="#1e1e1e" />
<polygon points="264,305 277,283 287,307" fill="#1e1e1e" />
<line x1="319" y1="350" x2="349" y2="325" stroke="#1e1e1e" stroke-width="6" />
</svg>
