<svg xmlns="http://www.w3.org/2000/svg" width="512" height="512" viewBox="0 0 512 512">
<rect width="100%" height="100%" fill="#0b1020"/>
<circle cx="349" cy="109" r="56" fill="#f8f3c9" opacity="0.95" />
<circle cx="436.0" cy="31.0" r="3.2" fill="white" />
<circle cx="482.0" cy="120.0" r="2.5" fill="white" />
<circle cx="37.0" cy="152.0" r="3.4" fill="white" />
<circle cx="475.0" cy="76.0" r="2.8" fill="white" />
<circle cx="200.0" cy="41.0" r="3.3" fill="white" />
<circle cx="413.0" cy="71.0" r="2.3" fill="white" />
<circle cx="202.0" cy="89.0" r="3.1" fill="white" />
<circle cx="352.0" cy="61.0" r="2.2" fill="white" />
<circle cx="350.0" cy="25.0" r="2.5" fill="white" />
<circle cx="68.0" cy="165.0" r="2.8" fill="white" />
<circle cx="168.0" cy="151.0" r="2.9" fill="white" />
<circle cx="403.0" cy="101.0" r="3.1" fill="white" />
<circle cx="249.0" cy="61.0" r="1.9" fill="white" />
<circle cx="209.0" cy="154.0" r="1.8" fill="white" />
<path d="M 20 430 C 111 422, 199 441, 281 425 S 450 380, 512 410" stroke="#5dade2" stroke-width="7" fill="none" opacity="0.85" />
<line x1="0" y1="409" x2="512" y2="409" stroke="#445566" stroke-width="4" />
<polygon points="207,364 247,304 287,324 307,294 327,314 339,354 307,376 257,380" fill="#1e1e1e" />
<polygon points="282,304 295,282 305,306" fill="#1e1e1e" />
<line x1="337" y1="349" x2="367" y2="324" stroke="#1e1e1e" stroke-width="6" />
</svg>
