<svg xmlns="http://www.w3.org/2000/svg" width="512" height="512" viewBox="0 0 512 512">
<rect width="100%" height="100%" fill="black"/>
<circle cx="256.00" cy="256.00" r="2" fill="hsl(0, 80%, 65%)" />
<circle cx="250.75" cy="260.81" r="3" fill="hsl(6, 80%, 65%)" />
<circle cx="256.88" cy="245.96" r="4" fill="hsl(12, 80%, 65%)" />
<circle cx="263.51" cy="265.79" r="5" fill="hsl(18, 80%, 65%)" />
<circle cx="241.97" cy="253.52" r="6" fill="hsl(24, 80%, 65%)" />
<circle cx="269.44" cy="247.45" r="2" fill="hsl(30, 80%, 65%)" />
<circle cx="251.47" cy="272.86" r="3" fill="hsl(36, 80%, 65%)" />
<circle cx="247.31" cy="239.27" r="4" fill="hsl(42, 80%, 65%)" />
<circle cx="274.93" cy="262.91" r="5" fill="hsl(48, 80%, 65%)" />
<circle cx="236.24" cy="264.16" r="6" fill="hsl(54, 80%, 65%)" />
<circle cx="265.55" cy="235.59" r="2" fill="hsl(60, 80%, 65%)" />
<circle cx="263.07" cy="278.55" r="3" fill="hsl(66, 80%, 65%)" />
<circle cx="234.64" cy="243.62" r="4" fill="hsl(72, 80%, 65%)" />
<circle cx="281.09" cy="250.48" r="5" fill="hsl(78, 80%, 65%)" />
<circle cx="240.67" cy="277.81" r="6" fill="hsl(84, 80%, 65%)" />
<circle cx="252.45" cy="228.63" r="2" fill="hsl(90, 80%, 65%)" />
<circle cx="277.79" cy="274.37" r="3" fill="hsl(96, 80%, 65%)" />
<circle cx="226.65" cy="257.21" r="4" fill="hsl(102, 80%, 65%)" />
<circle cx="277.43" cy="234.68" r="5" fill="hsl(108, 80%, 65%)" />
<circle cx="254.57" cy="287.03" r="6" fill="hsl(114, 80%, 65%)" />
<circle cx="235.58" cy="231.53" r="2" fill="hsl(120, 80%, 65%)" />
<circle cx="288.36" cy="260.35" r="3" fill="hsl(126, 80%, 65%)" />
<circle cx="228.57" cy="275.09" r="4" fill="hsl(132, 80%, 65%)" />
<circle cx="263.50" cy="222.66" r="5" fill="hsl(138, 80%, 65%)" />
<circle cx="273.35" cy="286.29" r="6" fill="hsl(144, 80%, 65%)" />
<circle cx="222.06" cy="245.17" r="2" fill="hsl(150, 80%, 65%)" />
<circle cx="288.98" cy="240.76" r="3" fill="hsl(156, 80%, 65%)" />
<circle cx="241.71" cy="290.15" r="4" fill="hsl(162, 80%, 65%)" />
<circle cx="243.24" cy="220.52" r="5" fill="hsl(168, 80%, 65%)" />
<circle cx="289.97" cy="273.85" r="6" fill="hsl(174, 80%, 65%)" />
<circle cx="218.26" cy="265.95" r="2" fill="hsl(180, 80%, 65%)" />
<circle cx="277.46" cy="222.63" r="3" fill="hsl(186, 80%, 65%)" />
<circle cx="262.83" cy="295.72" r="4" fill="hsl(192, 80%, 65%)" />
<circle cx="223.64" cy="230.94" r="5" fill="hsl(198, 80%, 65%)" />
<circle cx="297.41" cy="252.57" r="6" fill="hsl(204, 80%, 65%)" />
<circle cx="227.37" cy="286.94" r="2" fill="hsl(210, 80%, 65%)" />
<circle cx="256.21" cy="213.25" r="3" fill="hsl(216, 80%, 65%)" />
<circle cx="285.12" cy="288.10" r="4" fill="hsl(222, 80%, 65%)" />
<circle cx="212.26" cy="251.95" r="5" fill="hsl(228, 80%, 65%)" />
<circle cx="291.44" cy="229.10" r="6" fill="hsl(234, 80%, 65%)" />
<circle cx="247.93" cy="300.34" r="2" fill="hsl(240, 80%, 65%)" />
<circle cx="231.70" cy="217.39" r="3" fill="hsl(246, 80%, 65%)" />
<circle cx="300.54" cy="268.21" r="4" fill="hsl(252, 80%, 65%)" />
<circle cx="214.43" cy="277.33" r="5" fill="hsl(258, 80%, 65%)" />
<circle cx="272.43" cy="211.68" r="6" fill="hsl(264, 80%, 65%)" />
<circle cx="274.02" cy="300.27" r="2" fill="hsl(270, 80%, 65%)" />
<circle cx="212.33" cy="235.30" r="3" fill="hsl(276, 80%, 65%)" />
<circle cx="302.68" cy="241.61" r="4" fill="hsl(282, 80%, 65%)" />
<circle cx="231.04" cy="298.59" r="5" fill="hsl(288, 80%, 65%)" />
<circle cx="245.53" cy="207.23" r="6" fill="hsl(294, 80%, 65%)" />
<circle cx="297.08" cy="285.18" r="2" fill="hsl(300, 80%, 65%)" />
<circle cx="205.51" cy="262.29" r="3" fill="hsl(306, 80%, 65%)" />
<circle cx="289.30" cy="216.87" r="4" fill="hsl(312, 80%, 65%)" />
<circle cx="257.89" cy="307.84" r="5" fill="hsl(318, 80%, 65%)" />
<circle cx="219.25" cy="218.71" r="6" fill="hsl(324, 80%, 65%)" />
<circle cx="308.77" cy="258.70" r="2" fill="hsl(330, 80%, 65%)" />
<circle cx="214.89" cy="289.96" r="3" fill="hsl(336, 80%, 65%)" />
<circle cx="263.43" cy="202.72" r="4" fill="hsl(342, 80%, 65%)" />
<circle cx="286.77" cy="300.69" r="5" fill="hsl(348, 80%, 65%)" />
<circle cx="202.66" cy="243.73" r="6" fill="hsl(354, 80%, 65%)" />
<circle cx="304.02" cy="228.79" r="2" fill="hsl(0, 80%, 65%)" />
<circle cx="238.83" cy="308.93" r="3" fill="hsl(6, 80%, 65%)" />
<circle cx="232.72" cy="204.95" r="4" fill="hsl(12, 80%, 65%)" />
<circle cx="308.06" cy="278.09" r="5" fill="hsl(18, 80%, 65%)" />
<circle cx="202.27" cy="275.03" r="6" fill="hsl(24, 80%, 65%)" />
<circle cx="282.97" cy="205.28" r="2" fill="hsl(30, 80%, 65%)" />
<circle cx="270.48" cy="312.05" r="3" fill="hsl(36, 80%, 65%)" />
<circle cx="207.10" cy="224.22" r="4" fill="hsl(42, 80%, 65%)" />
<circle cx="313.96" cy="246.33" r="5" fill="hsl(48, 80%, 65%)" />
<circle cx="219.53" cy="302.62" r="6" fill="hsl(54, 80%, 65%)" />
<circle cx="251.37" cy="196.57" r="2" fill="hsl(60, 80%, 65%)" />
<circle cx="299.87" cy="296.99" r="3" fill="hsl(66, 80%, 65%)" />
<circle cx="195.54" cy="255.41" r="4" fill="hsl(72, 80%, 65%)" />
<circle cx="301.29" cy="215.32" r="5" fill="hsl(78, 80%, 65%)" />
<circle cx="250.05" cy="317.00" r="6" fill="hsl(84, 80%, 65%)" />
<circle cx="218.93" cy="206.67" r="2" fill="hsl(90, 80%, 65%)" />
<circle cx="317.06" cy="267.42" r="3" fill="hsl(96, 80%, 65%)" />
<circle cx="202.92" cy="289.04" r="4" fill="hsl(102, 80%, 65%)" />
<circle cx="272.93" cy="195.39" r="5" fill="hsl(108, 80%, 65%)" />
<circle cx="284.64" cy="312.49" r="6" fill="hsl(114, 80%, 65%)" />
<circle cx="196.35" cy="233.55" r="2" fill="hsl(120, 80%, 65%)" />
<circle cx="315.51" cy="232.11" r="3" fill="hsl(126, 80%, 65%)" />
<circle cx="228.08" cy="314.17" r="4" fill="hsl(132, 80%, 65%)" />
<circle cx="237.18" cy="193.87" r="5" fill="hsl(138, 80%, 65%)" />
<circle cx="312.18" cy="289.29" r="6" fill="hsl(144, 80%, 65%)" />
<circle cx="191.71" cy="269.48" r="2" fill="hsl(150, 80%, 65%)" />
<circle cx="294.53" cy="202.32" r="3" fill="hsl(156, 80%, 65%)" />
<circle cx="263.90" cy="321.99" r="4" fill="hsl(162, 80%, 65%)" />
<circle cx="205.31" cy="212.43" r="5" fill="hsl(168, 80%, 65%)" />
<circle cx="323.19" cy="253.88" r="6" fill="hsl(174, 80%, 65%)" />
<circle cx="207.62" cy="303.21" r="2" fill="hsl(180, 80%, 65%)" />
<circle cx="259.80" cy="188.14" r="3" fill="hsl(186, 80%, 65%)" />
<circle cx="299.27" cy="308.90" r="4" fill="hsl(192, 80%, 65%)" />
<circle cx="187.99" cy="246.17" r="5" fill="hsl(198, 80%, 65%)" />
<circle cx="313.09" cy="217.10" r="6" fill="hsl(204, 80%, 65%)" />
<circle cx="240.10" cy="323.60" r="2" fill="hsl(210, 80%, 65%)" />
<circle cx="221.88" cy="195.09" r="3" fill="hsl(216, 80%, 65%)" />
<circle cx="322.65" cy="277.98" r="4" fill="hsl(222, 80%, 65%)" />
<circle cx="191.68" cy="284.96" r="5" fill="hsl(228, 80%, 65%)" />
<circle cx="284.01" cy="190.87" r="6" fill="hsl(234, 80%, 65%)" />
<circle cx="279.46" cy="323.28" r="2" fill="hsl(240, 80%, 65%)" />
<circle cx="192.94" cy="222.07" r="3" fill="hsl(246, 80%, 65%)" />
<circle cx="325.76" cy="238.34" r="4" fill="hsl(252, 80%, 65%)" />
<circle cx="216.30" cy="316.44" r="5" fill="hsl(258, 80%, 65%)" />
<circle cx="244.39" cy="184.27" r="6" fill="hsl(264, 80%, 65%)" />
<circle cx="313.29" cy="301.27" r="2" fill="hsl(270, 80%, 65%)" />
<circle cx="182.84" cy="261.34" r="3" fill="hsl(276, 80%, 65%)" />
<circle cx="306.58" cy="202.39" r="4" fill="hsl(282, 80%, 65%)" />
<circle cx="254.92" cy="330.04" r="5" fill="hsl(288, 80%, 65%)" />
<circle cx="206.56" cy="200.42" r="6" fill="hsl(294, 80%, 65%)" />
<circle cx="330.34" cy="263.62" r="2" fill="hsl(300, 80%, 65%)" />
<circle cx="195.76" cy="300.80" r="3" fill="hsl(306, 80%, 65%)" />
<circle cx="270.22" cy="181.95" r="4" fill="hsl(312, 80%, 65%)" />
<circle cx="295.71" cy="320.50" r="5" fill="hsl(318, 80%, 65%)" />
<circle cx="182.83" cy="235.18" r="6" fill="hsl(324, 80%, 65%)" />
<circle cx="324.32" cy="221.78" r="2" fill="hsl(330, 80%, 65%)" />
<circle cx="228.62" cy="327.69" r="3" fill="hsl(336, 80%, 65%)" />
<circle cx="227.64" cy="184.34" r="4" fill="hsl(342, 80%, 65%)" />
<circle cx="325.62" cy="289.83" r="5" fill="hsl(348, 80%, 65%)" />
<circle cx="181.50" cy="278.17" r="6" fill="hsl(354, 80%, 65%)" />
<circle cx="296.12" cy="189.05" r="2" fill="hsl(0, 80%, 65%)" />
<circle cx="271.71" cy="332.79" r="3" fill="hsl(6, 80%, 65%)" />
<circle cx="192.29" cy="209.80" r="4" fill="hsl(12, 80%, 65%)" />
<circle cx="334.51" cy="246.99" r="5" fill="hsl(18, 80%, 65%)" />
<circle cx="203.98" cy="315.92" r="6" fill="hsl(24, 80%, 65%)" />
<circle cx="253.87" cy="176.36" r="2" fill="hsl(30, 80%, 65%)" />
<circle cx="311.58" cy="313.51" r="3" fill="hsl(36, 80%, 65%)" />
<circle cx="175.85" cy="251.12" r="4" fill="hsl(42, 80%, 65%)" />
<circle cx="318.64" cy="205.26" r="5" fill="hsl(48, 80%, 65%)" />
<circle cx="244.04" cy="336.04" r="6" fill="hsl(54, 80%, 65%)" />
<circle cx="210.58" cy="188.64" r="2" fill="hsl(60, 80%, 65%)" />
<circle cx="335.29" cy="275.06" r="3" fill="hsl(66, 80%, 65%)" />
<circle cx="184.38" cy="295.66" r="4" fill="hsl(72, 80%, 65%)" />
<circle cx="282.12" cy="178.09" r="5" fill="hsl(78, 80%, 65%)" />
<circle cx="289.50" cy="331.37" r="6" fill="hsl(84, 80%, 65%)" />
<circle cx="180.11" cy="222.92" r="2" fill="hsl(90, 80%, 65%)" />
<circle cx="334.59" cy="229.02" r="3" fill="hsl(96, 80%, 65%)" />
<circle cx="216.12" cy="329.25" r="4" fill="hsl(102, 80%, 65%)" />
<circle cx="235.85" cy="174.76" r="5" fill="hsl(108, 80%, 65%)" />
<circle cx="325.99" cy="302.46" r="6" fill="hsl(114, 80%, 65%)" />
<circle cx="172.71" cy="269.06" r="2" fill="hsl(120, 80%, 65%)" />
<circle cx="308.78" cy="189.87" r="3" fill="hsl(126, 80%, 65%)" />
<circle cx="261.77" cy="340.71" r="4" fill="hsl(132, 80%, 65%)" />
<circle cx="194.31" cy="197.23" r="5" fill="hsl(138, 80%, 65%)" />
<circle cx="341.49" cy="257.67" r="6" fill="hsl(144, 80%, 65%)" />
<circle cx="191.61" cy="312.71" r="2" fill="hsl(150, 80%, 65%)" />
<circle cx="265.20" cy="170.40" r="3" fill="hsl(156, 80%, 65%)" />
<circle cx="307.22" cy="325.57" r="4" fill="hsl(162, 80%, 65%)" />
<circle cx="170.95" cy="239.24" r="5" fill="hsl(168, 80%, 65%)" />
<circle cx="330.28" cy="210.76" r="6" fill="hsl(174, 80%, 65%)" />
<circle cx="231.71" cy="339.82" r="2" fill="hsl(180, 80%, 65%)" />
<circle cx="217.17" cy="177.52" r="3" fill="hsl(186, 80%, 65%)" />
<circle cx="337.91" cy="287.74" r="4" fill="hsl(192, 80%, 65%)" />
<circle cx="173.89" cy="288.03" r="5" fill="hsl(198, 80%, 65%)" />
<circle cx="295.03" cy="176.66" r="6" fill="hsl(204, 80%, 65%)" />
<circle cx="280.89" cy="341.15" r="2" fill="hsl(210, 80%, 65%)" />
<circle cx="179.89" cy="209.88" r="3" fill="hsl(216, 80%, 65%)" />
<circle cx="343.56" cy="238.53" r="4" fill="hsl(222, 80%, 65%)" />
<circle cx="203.07" cy="328.25" r="5" fill="hsl(228, 80%, 65%)" />
<circle cx="246.19" cy="166.69" r="6" fill="hsl(234, 80%, 65%)" />
<circle cx="323.77" cy="315.42" r="2" fill="hsl(240, 80%, 65%)" />
<circle cx="165.61" cy="257.97" r="3" fill="hsl(246, 80%, 65%)" />
<circle cx="321.52" cy="193.30" r="4" fill="hsl(252, 80%, 65%)" />
<circle cx="250.03" cy="346.77" r="5" fill="hsl(258, 80%, 65%)" />
<circle cx="198.91" cy="184.81" r="6" fill="hsl(264, 80%, 65%)" />
<circle cx="346.45" cy="269.97" r="2" fill="hsl(270, 80%, 65%)" />
<circle cx="179.63" cy="306.95" r="3" fill="hsl(276, 80%, 65%)" />
<circle cx="277.96" cy="166.58" r="4" fill="hsl(282, 80%, 65%)" />
<circle cx="300.34" cy="337.01" r="5" fill="hsl(288, 80%, 65%)" />
<circle cx="168.32" cy="226.13" r="6" fill="hsl(294, 80%, 65%)" />
<circle cx="341.08" cy="218.69" r="2" fill="hsl(300, 80%, 65%)" />
<circle cx="218.36" cy="341.23" r="3" fill="hsl(306, 80%, 65%)" />
<circle cx="226.09" cy="167.47" r="4" fill="hsl(312, 80%, 65%)" />
<circle cx="338.09" cy="301.21" r="5" fill="hsl(318, 80%, 65%)" />
<circle cx="164.66" cy="278.18" r="6" fill="hsl(324, 80%, 65%)" />
<circle cx="308.52" cy="177.73" r="2" fill="hsl(330, 80%, 65%)" />
<circle cx="270.19" cy="349.46" r="3" fill="hsl(336, 80%, 65%)" />
<circle cx="182.20" cy="196.50" r="4" fill="hsl(342, 80%, 65%)" />
<circle cx="350.87" cy="250.00" r="5" fill="hsl(348, 80%, 65%)" />
<circle cx="189.91" cy="324.70" r="6" fill="hsl(354, 80%, 65%)" />
<circle cx="258.33" cy="160.43" r="2" fill="hsl(0, 80%, 65%)" />
<circle cx="319.01" cy="328.24" r="3" fill="hsl(6, 80%, 65%)" />
<circle cx="160.48" cy="245.26" r="4" fill="hsl(12, 80%, 65%)" />
<circle cx="333.90" cy="199.24" r="5" fill="hsl(18, 80%, 65%)" />
<circle cx="236.85" cy="350.74" r="6" fill="hsl(24, 80%, 65%)" />
<circle cx="205.99" cy="172.98" r="2" fill="hsl(30, 80%, 65%)" />
<circle cx="349.20" cy="283.51" r="3" fill="hsl(36, 80%, 65%)" />
<circle cx="168.46" cy="298.79" r="4" fill="hsl(42, 80%, 65%)" />
<circle cx="291.74" cy="165.08" r="5" fill="hsl(48, 80%, 65%)" />
<circle cx="291.16" cy="347.43" r="6" fill="hsl(54, 80%, 65%)" />
<circle cx="168.08" cy="212.21" r="2" fill="hsl(60, 80%, 65%)" />
<circle cx="350.65" cy="228.83" r="3" fill="hsl(66, 80%, 65%)" />
<circle cx="204.43" cy="340.19" r="4" fill="hsl(72, 80%, 65%)" />
<circle cx="237.11" cy="158.83" r="5" fill="hsl(78, 80%, 65%)" />
<circle cx="335.77" cy="315.04" r="6" fill="hsl(84, 80%, 65%)" />
<circle cx="157.04" cy="266.38" r="2" fill="hsl(90, 80%, 65%)" />
<circle cx="322.13" cy="181.31" r="3" fill="hsl(96, 80%, 65%)" />
<circle cx="257.69" cy="355.99" r="4" fill="hsl(102, 80%, 65%)" />
<circle cx="187.03" cy="183.23" r="5" fill="hsl(108, 80%, 65%)" />
<circle cx="356.26" cy="263.09" r="6" fill="hsl(114, 80%, 65%)" />
<circle cx="177.08" cy="318.66" r="2" fill="hsl(120, 80%, 65%)" />
<circle cx="271.91" cy="156.24" r="3" fill="hsl(126, 80%, 65%)" />
<circle cx="311.79" cy="340.51" r="4" fill="hsl(132, 80%, 65%)" />
<circle cx="157.53" cy="231.31" r="5" fill="hsl(138, 80%, 65%)" />
<circle cx="345.51" cy="207.57" r="6" fill="hsl(144, 80%, 65%)" />
<circle cx="222.63" cy="352.41" r="2" fill="hsl(150, 80%, 65%)" />
<circle cx="215.38" cy="162.14" r="3" fill="hsl(156, 80%, 65%)" />
<circle cx="349.57" cy="297.87" r="4" fill="hsl(162, 80%, 65%)" />
<circle cx="158.48" cy="288.41" r="5" fill="hsl(168, 80%, 65%)" />
<circle cx="306.13" cy="166.01" r="6" fill="hsl(174, 80%, 65%)" />
<circle cx="279.88" cy="356.46" r="2" fill="hsl(180, 80%, 65%)" />
<circle cx="170.33" cy="197.92" r="3" fill="hsl(186, 80%, 65%)" />
<circle cx="358.65" cy="240.93" r="4" fill="hsl(192, 80%, 65%)" />
<circle cx="190.34" cy="336.64" r="5" fill="hsl(198, 80%, 65%)" />
<circle cx="249.93" cy="151.94" r="6" fill="hsl(204, 80%, 65%)" />
<circle cx="330.94" cy="328.80" r="2" fill="hsl(210, 80%, 65%)" />
<circle cx="151.32" cy="252.94" r="3" fill="hsl(216, 80%, 65%)" />
<circle cx="335.44" cy="187.39" r="4" fill="hsl(222, 80%, 65%)" />
<circle cx="243.74" cy="360.49" r="5" fill="hsl(228, 80%, 65%)" />
<circle cx="194.32" cy="170.48" r="6" fill="hsl(234, 80%, 65%)" />
<circle cx="359.49" cy="277.45" r="2" fill="hsl(240, 80%, 65%)" />
<circle cx="165.00" cy="310.21" r="3" fill="hsl(246, 80%, 65%)" />
<circle cx="286.55" cy="154.33" r="4" fill="hsl(252, 80%, 65%)" />
<circle cx="302.26" cy="351.82" r="5" fill="hsl(258, 80%, 65%)" />
<circle cx="156.94" cy="216.50" r="6" fill="hsl(264, 80%, 65%)" />
<circle cx="355.95" cy="218.13" r="2" fill="hsl(270, 80%, 65%)" />
<circle cx="207.78" cy="351.65" r="3" fill="hsl(276, 80%, 65%)" />
<circle cx="226.88" cy="152.67" r="4" fill="hsl(282, 80%, 65%)" />
<circle cx="347.47" cy="312.65" r="5" fill="hsl(288, 80%, 65%)" />
<circle cx="150.06" cy="276.06" r="6" fill="hsl(294, 80%, 65%)" />
<circle cx="320.71" cy="169.46" r="2" fill="hsl(300, 80%, 65%)" />
<circle cx="266.77" cy="363.76" r="3" fill="hsl(306, 80%, 65%)" />
<circle cx="175.10" cy="183.66" r="4" fill="hsl(312, 80%, 65%)" />
<circle cx="364.76" cy="254.69" r="5" fill="hsl(318, 80%, 65%)" />
<circle cx="176.52" cy="330.59" r="6" fill="hsl(324, 80%, 65%)" />
<circle cx="264.24" cy="147.08" r="2" fill="hsl(330, 80%, 65%)" />
<circle cx="323.64" cy="342.06" r="3" fill="hsl(336, 80%, 65%)" />
<circle cx="147.76" cy="238.20" r="4" fill="hsl(342, 80%, 65%)" />
<circle cx="348.03" cy="195.89" r="5" fill="hsl(348, 80%, 65%)" />
<circle cx="228.69" cy="362.72" r="6" fill="hsl(354, 80%, 65%)" />
<circle cx="203.95" cy="158.66" r="2" fill="hsl(0, 80%, 65%)" />
<circle cx="360.35" cy="292.69" r="3" fill="hsl(6, 80%, 65%)" />
<circle cx="154.06" cy="299.53" r="4" fill="hsl(12, 80%, 65%)" />
<circle cx="301.86" cy="154.84" r="5" fill="hsl(18, 80%, 65%)" />
<circle cx="290.59" cy="361.79" r="6" fill="hsl(24, 80%, 65%)" />
<circle cx="158.84" cy="201.25" r="2" fill="hsl(30, 80%, 65%)" />
<circle cx="364.85" cy="230.69" r="3" fill="hsl(36, 80%, 65%)" />
<circle cx="192.70" cy="348.38" r="4" fill="hsl(42, 80%, 65%)" />
<circle cx="240.24" cy="144.90" r="5" fill="hsl(48, 80%, 65%)" />
<circle cx="342.84" cy="327.42" r="6" fill="hsl(54, 80%, 65%)" />
<circle cx="143.50" cy="262.01" r="2" fill="hsl(60, 80%, 65%)" />
<circle cx="335.05" cy="175.41" r="3" fill="hsl(66, 80%, 65%)" />
<circle cx="252.14" cy="369.05" r="4" fill="hsl(72, 80%, 65%)" />
<circle cx="182.34" cy="169.87" r="5" fill="hsl(78, 80%, 65%)" />
<circle cx="368.72" cy="269.78" r="6" fill="hsl(84, 80%, 65%)" />
<circle cx="163.39" cy="322.11" r="2" fill="hsl(90, 80%, 65%)" />
<circle cx="279.68" cy="144.48" r="3" fill="hsl(96, 80%, 65%)" />
<circle cx="313.98" cy="354.42" r="4" fill="hsl(102, 80%, 65%)" />
<circle cx="146.55" cy="222.53" r="5" fill="hsl(108, 80%, 65%)" />
<circle cx="359.51" cy="206.65" r="6" fill="hsl(114, 80%, 65%)" />
<circle cx="212.93" cy="362.51" r="2" fill="hsl(120, 80%, 65%)" />
<circle cx="215.74" cy="148.16" r="3" fill="hsl(126, 80%, 65%)" />
<circle cx="358.73" cy="308.42" r="4" fill="hsl(132, 80%, 65%)" />
<circle cx="144.63" cy="286.80" r="5" fill="hsl(138, 80%, 65%)" />
<circle cx="317.44" cy="157.87" r="6" fill="hsl(144, 80%, 65%)" />
<circle cx="277.02" cy="370.07" r="2" fill="hsl(150, 80%, 65%)" />
<circle cx="163.27" cy="185.96" r="3" fill="hsl(156, 80%, 65%)" />
<circle cx="371.91" cy="244.99" r="4" fill="hsl(162, 80%, 65%)" />
<circle cx="177.83" cy="342.58" r="5" fill="hsl(168, 80%, 65%)" />
<circle cx="255.16" cy="139.14" r="6" fill="hsl(174, 80%, 65%)" />
<circle cx="335.71" cy="341.76" r="2" fill="hsl(180, 80%, 65%)" />
<circle cx="139.08" cy="246.58" r="3" fill="hsl(186, 80%, 65%)" />
<circle cx="348.74" cy="183.83" r="4" fill="hsl(192, 80%, 65%)" />
<circle cx="236.33" cy="372.07" r="5" fill="hsl(198, 80%, 65%)" />
<circle cx="191.98" cy="156.94" r="6" fill="hsl(204, 80%, 65%)" />
<circle cx="370.33" cy="285.85" r="2" fill="hsl(210, 80%, 65%)" />
<circle cx="151.34" cy="311.31" r="3" fill="hsl(216, 80%, 65%)" />
<circle cx="295.88" cy="144.32" r="4" fill="hsl(222, 80%, 65%)" />
<circle cx="302.12" cy="365.49" r="5" fill="hsl(228, 80%, 65%)" />
<circle cx="147.84" cy="206.33" r="6" fill="hsl(234, 80%, 65%)" />
<circle cx="369.51" cy="219.50" r="2" fill="hsl(240, 80%, 65%)" />
<circle cx="196.85" cy="359.77" r="3" fill="hsl(246, 80%, 65%)" />
<circle cx="229.47" cy="139.32" r="4" fill="hsl(252, 80%, 65%)" />
</svg>
