<svg xmlns="http://www.w3.org/2000/svg" width="512" height="512" viewBox="0 0 512 512">
<rect width="100%" height="100%" fill="#0b1020"/>
<circle cx="439" cy="92" r="50" fill="#f8f3c9" opacity="0.95" />
<circle cx="152.0" cy="80.0" r="2.3" fill="white" />
<circle cx="129.0" cy="84.0" r="1.9" fill="white" />
<circle cx="132.0" cy="127.0" r="2.7" fill="white" />
<circle cx="27.0" cy="43.0" r="3.3" fill="white" />
<circle cx="173.0" cy="124.0" r="2.8" fill="white" />
<path d="M 20 430 C 111 424, 186 449, 286 439 S 450 387, 512 417" stroke="#5dade2" stroke-width="8" fill="none" opacity="0.85" />
<line x1="0" y1="391" x2="512" y2="391" stroke="#445566" stroke-width="2" />
<polygon points="176,362 216,302 256,322 276,292 296,312 308,352 276,374 226,378" fill="#1e1e1e" />
<polygon points="251,302 264,280 274,304" fill="#1e1e1e" />
<line x1="306" y1="347" x2="336" y2="322" stroke="#1e1e1e" stroke-width="6" />
</svg>
