<svg xmlns="http://www.w3.org/2000/svg" width="512" height="512" viewBox="0 0 512 512">
<rect width="100%" height="100%" fill="#0b1020"/>
<circle cx="391" cy="93" r="56" fill="#f8f3c9" opacity="0.95" />
<circle cx="329.0" cy="127.0" r="2.7" fill="white" />
<circle cx="169.0" cy="86.0" r="3.2" fill="white" />
<circle cx="172.0" cy="89.0" r="2.7" fill="white" />
<circle cx="460.0" cy="158.0" r="3.1" fill="white" />
<circle cx="491.0" cy="100.0" r="1.7" fill="white" />
<circle cx="217.0" cy="31.0" r="2.8" fill="white" />
<path d="M 20 430 C 118 423, 185 446, 303 423 S 450 398, 512 428" stroke="#5dade2" stroke-width="8" fill="none" opacity="0.85" />
<line x1="0" y1="414" x2="512" y2="414" stroke="#445566" stroke-width="4" />
<polygon points="200,354 240,294 280,314 300,284 320,304 332,344 300,366 250,370" fill="#1e1e1e" />
<polygon points="275,294 288,272 298,296" fill="#1e1e1e" />
<line x1="330" y1="339" x2="360" y2="314" stroke="#1e1e1e" stroke-width="6" />
</svg>
