<svg xmlns="http://www.w3.org/2000/svg" width="512" height="512" viewBox="0 0 512 512">
<rect width="100%" height="100%" fill="#0b1020"/>
<circle cx="349" cy="80" r="47" fill="#f8f3c9" opacity="0.95" />
<circle cx="83.0" cy="129.0" r="3.5" fill="white" />
<circle cx="477.0" cy="23.0" r="2.5" fill="white" />
<circle cx="86.0" cy="36.0" r="2.7" fill="white" />
<circle cx="256.0" cy="137.0" r="1.5" fill="white" />
<circle cx="20.0" cy="151.0" r="2.7" fill="white" />
<circle cx="138.0" cy="97.0" r="1.9" fill="white" />
<circle cx="204.0" cy="94.0" r="3.2" fill="white" />
<path d="M 20 430 C 127 418, 169 453, 320 420 S 450 378, 512 408" stroke="#5dade2" stroke-width="7" fill="none" opacity="0.85" />
<line x1="0" y1="393" x2="512" y2="393" stroke="#445566" stroke-width="4" />
<polygon points="195,353 235,293 275,313 295,283 315,303 327,343 295,365 245,369" fill="#1e1e1e" />
<polygon points="270,293 283,271 293,295" fill="#1e1e1e" />
<line x1="325" y1="338" x2="355" y2="313" stroke="#1e1e1e" stroke-width="6" />
</svg>
