<svg xmlns="http://www.w3.org/2000/svg" width="512" height="512" viewBox="0 0 512 512">
<rect width="100%" height="100%" fill="#0b1020"/>
<circle cx="414" cy="93" r="51" fill="#f8f3c9" opacity="0.95" />
<circle cx="259.0" cy="55.0" r="2.5" fill="white" />
<circle cx="241.0" cy="21.0" r="3.3" fill="white" />
<circle cx="51.0" cy="132.0" r="1.6" fill="white" />
<circle cx="122.0" cy="170.0" r="3.2" fill="white" />
<circle cx="107.0" cy="139.0" r="2.6" fill="white" />
<path d="M 20 430 C 125 414, 198 451, 281 436 S 450 402, 512 432" stroke="#5dade2" stroke-width="5" fill="none" opacity="0.85" />
<line x1="0" y1="408" x2="512" y2="408" stroke="#445566" stroke-width="4" />
<polygon points="182,355 222,295 262,315 282,285 302,305 314,345 282,367 232,371" fill="#1e1e1e" />
<polygon points="257,295 270,273 280,297" fill="#1e1e1e" />
<line x1="312" y1="340" x2="342" y2="315" stroke="#1e1e1e" stroke-width="6" />
</svg>
