<svg xmlns="http://www.w3.org/2000/svg" width="512" height="512" viewBox="0 0 512 512">
<rect width="100%" height="100%" fill="#0b1020"/>
<circle cx="420" cy="127" r="40" fill="#f8f3c9" opacity="0.95" />
<circle cx="317.0" cy="173.0" r="3.4" fill="white" />
<circle cx="22.0" cy="41.0" r="2.2" fill="white" />
<circle cx="295.0" cy="82.0" r="2.4" fill="white" />
<circle cx="434.0" cy="165.0" r="3.0" fill="white" />
<circle cx="351.0" cy="174.0" r="3.5" fill="white" />
<circle cx="406.0" cy="99.0" r="2.2" fill="white" />
<circle cx="395.0" cy="115.0" r="3.5" fill="white" />
<circle cx="343.0" cy="75.0" r="3.2" fill="white" />
<circle cx="228.0" cy="76.0" r="1.6" fill="white" />
<circle cx="140.0" cy="49.0" r="3.4" fill="white" />
<circle cx="253.0" cy="128.0" r="3.2" fill="white" />
<circle cx="126.0" cy="132.0" r="2.6" fill="white" />
<circle cx="181.0" cy="120.0" r="2.9" fill="white" />
<circle cx="31.0" cy="124.0" r="3.2" fill="white" />
<circle cx="57.0" cy="124.0" r="2.5" fill="white" />
<path d="M 20 430 C 128 411, 160 452, 289 424 S 450 392, 512 422" stroke="#5dade2" stroke-width="7" fill="none" opacity="0.85" />
<line x1="0" y1="400" x2="512" y2="400" stroke="#445566" stroke-width="2" />
<polygon points="219,356 259,296 299,316 319,286 339,306 351,346 319,368 269,372" fill="#1e1e1e" />
<polygon points="294,296 307,274 317,298" fill="#1e1e1e" />
<line x1="349" y1="341" x2="379" y2="316" stroke="#1e1e1e" stroke-width="6" />
</svg>
