<svg xmlns="http://www.w3.org/2000/svg" width="512" height="512" viewBox="0 0 512 512">
<rect width="100%" height="100%" fill="#0b1020"/>
<circle cx="350" cy="68" r="42" fill="#f8f3c9" opacity="0.95" />
<circle cx="188.0" cy="106.0" r="3.2" fill="white" />
<circle cx="173.0" cy="50.0" r="2.4" fill="white" />
<circle cx="149.0" cy="149.0" r="2.1" fill="white" />
<circle cx="455.0" cy="73.0" r="3.3" fill="white" />
<circle cx="192.0" cy="164.0" r="2.6" fill="white" />
<path d="M 20 430 C 126 417, 187 455, 296 425 S 450 375, 512 405" stroke="#5dade2" stroke-width="6" fill="none" opacity="0.85" />
<line x1="0" y1="405" x2="512" y2="405" stroke="#445566" stroke-width="3" />
<polygon points="162,357 202,297 242,317 262,287 282,307 294,347 262,369 212,373" fill="#1e1e1e" />
<polygon points="237,297 250,275 260,299" fill="#1e1e1e" />
<line x1="292" y1="342" x2="322" y2="317" stroke="#1e1e1e" stroke-width="6" />
</svg>
