<svg xmlns="http://www.w3.org/2000/svg" width="512" height="512" viewBox="0 0 512 512">
<rect width="100%" height="100%" fill="#0b1020"/>
<circle cx="377" cy="63" r="42" fill="#f8f3c9" opacity="0.95" />
<circle cx="354.0" cy="136.0" r="2.6" fill="white" />
<circle cx="163.0" cy="90.0" r="3.4" fill="white" />
<circle cx="103.0" cy="165.0" r="1.5" fill="white" />
<circle cx="95.0" cy="122.0" r="1.9" fill="white" />
<circle cx="310.0" cy="53.0" r="2.4" fill="white" />
<circle cx="175.0" cy="145.0" r="1.8" fill="white" />
<circle cx="476.0" cy="105.0" r="2.3" fill="white" />
<circle cx="228.0" cy="146.0" r="2.6" fill="white" />
<circle cx="125.0" cy="46.0" r="3.5" fill="white" />
<path d="M 20 430 C 103 430, 179 453, 318 421 S 450 384, 512 414" stroke="#5dade2" stroke-width="7" fill="none" opacity="0.85" />
<line x1="0" y1="405" x2="512" y2="405" stroke="#445566" stroke-width="2" />
<polygon points="153,364 193,304 233,324 253,294 273,314 285,354 253,376 203,380" fill="#1e1e1e" />
<polygon points="228,304 241,282 251,306" fill="#1e1e1e" />
<line x1="283" y1="349" x2="313" y2="324" stroke="#1e1e1e" stroke-width="6" />
</svg>
