<svg xmlns="http://www.w3.org/2000/svg" width="512" height="512" viewBox="0 0 512 512">
<rect width="100%" height="100%" fill="black"/>
<circle cx="256.00" cy="256.00" r="2" fill="hsl(0, 80%, 65%)" />
<circle cx="250.87" cy="260.70" r="3" fill="hsl(6, 80%, 65%)" />
<circle cx="256.86" cy="246.21" r="4" fill="hsl(12, 80%, 65%)" />
<circle cx="263.33" cy="265.56" r="5" fill="hsl(18, 80%, 65%)" />
<circle cx="242.31" cy="253.58" r="6" fill="hsl(24, 80%, 65%)" />
<circle cx="269.12" cy="247.66" r="2" fill="hsl(30, 80%, 65%)" />
<circle cx="251.58" cy="272.44" r="3" fill="hsl(36, 80%, 65%)" />
<circle cx="247.52" cy="239.68" r="4" fill="hsl(42, 80%, 65%)" />
<circle cx="274.47" cy="262.74" r="5" fill="hsl(48, 80%, 65%)" />
<circle cx="236.72" cy="263.96" r="6" fill="hsl(54, 80%, 65%)" />
<circle cx="265.32" cy="236.09" r="2" fill="hsl(60, 80%, 65%)" />
<circle cx="262.90" cy="278.00" r="3" fill="hsl(66, 80%, 65%)" />
<circle cx="235.17" cy="243.93" r="4" fill="hsl(72, 80%, 65%)" />
<circle cx="280.48" cy="250.62" r="5" fill="hsl(78, 80%, 65%)" />
<circle cx="241.04" cy="277.28" r="6" fill="hsl(84, 80%, 65%)" />
<circle cx="252.54" cy="229.30" r="2" fill="hsl(90, 80%, 65%)" />
<circle cx="277.26" cy="273.92" r="3" fill="hsl(96, 80%, 65%)" />
<circle cx="227.36" cy="257.18" r="4" fill="hsl(102, 80%, 65%)" />
<circle cx="276.91" cy="235.20" r="5" fill="hsl(108, 80%, 65%)" />
<circle cx="254.60" cy="286.27" r="6" fill="hsl(114, 80%, 65%)" />
<circle cx="236.08" cy="232.13" r="2" fill="hsl(120, 80%, 65%)" />
<circle cx="287.57" cy="260.25" r="3" fill="hsl(126, 80%, 65%)" />
<circle cx="229.24" cy="274.62" r="4" fill="hsl(132, 80%, 65%)" />
<circle cx="263.32" cy="223.47" r="5" fill="hsl(138, 80%, 65%)" />
<circle cx="272.93" cy="285.55" r="6" fill="hsl(144, 80%, 65%)" />
<circle cx="222.89" cy="245.44" r="2" fill="hsl(150, 80%, 65%)" />
<circle cx="288.18" cy="241.13" r="3" fill="hsl(156, 80%, 65%)" />
<circle cx="242.06" cy="289.32" r="4" fill="hsl(162, 80%, 65%)" />
<circle cx="243.55" cy="221.39" r="5" fill="hsl(168, 80%, 65%)" />
<circle cx="289.14" cy="273.42" r="6" fill="hsl(174, 80%, 65%)" />
<circle cx="219.18" cy="265.70" r="2" fill="hsl(180, 80%, 65%)" />
<circle cx="276.93" cy="223.44" r="3" fill="hsl(186, 80%, 65%)" />
<circle cx="262.66" cy="294.76" r="4" fill="hsl(192, 80%, 65%)" />
<circle cx="224.43" cy="231.55" r="5" fill="hsl(198, 80%, 65%)" />
<circle cx="296.40" cy="252.65" r="6" fill="hsl(204, 80%, 65%)" />
<circle cx="228.07" cy="286.19" r="2" fill="hsl(210, 80%, 65%)" />
<circle cx="256.20" cy="214.29" r="3" fill="hsl(216, 80%, 65%)" />
<circle cx="284.41" cy="287.32" r="4" fill="hsl(222, 80%, 65%)" />
<circle cx="213.33" cy="252.05" r="5" fill="hsl(228, 80%, 65%)" />
<circle cx="290.58" cy="229.75" r="6" fill="hsl(234, 80%, 65%)" />
<circle cx="248.13" cy="299.26" r="2" fill="hsl(240, 80%, 65%)" />
<circle cx="232.29" cy="218.33" r="3" fill="hsl(246, 80%, 65%)" />
<circle cx="299.45" cy="267.91" r="4" fill="hsl(252, 80%, 65%)" />
<circle cx="215.44" cy="276.81" r="5" fill="hsl(258, 80%, 65%)" />
<circle cx="272.03" cy="212.76" r="6" fill="hsl(264, 80%, 65%)" />
<circle cx="273.58" cy="299.19" r="2" fill="hsl(270, 80%, 65%)" />
<circle cx="213.39" cy="235.81" r="3" fill="hsl(276, 80%, 65%)" />
<circle cx="301.54" cy="241.96" r="4" fill="hsl(282, 80%, 65%)" />
<circle cx="231.65" cy="297.55" r="5" fill="hsl(288, 80%, 65%)" />
<circle cx="245.78" cy="208.42" r="6" fill="hsl(294, 80%, 65%)" />
<circle cx="296.07" cy="284.47" r="2" fill="hsl(300, 80%, 65%)" />
<circle cx="206.74" cy="262.14" r="3" fill="hsl(306, 80%, 65%)" />
<circle cx="288.49" cy="217.83" r="4" fill="hsl(312, 80%, 65%)" />
<circle cx="257.84" cy="306.57" r="5" fill="hsl(318, 80%, 65%)" />
<circle cx="220.14" cy="219.62" r="6" fill="hsl(324, 80%, 65%)" />
<circle cx="307.49" cy="258.63" r="2" fill="hsl(330, 80%, 65%)" />
<circle cx="215.90" cy="289.13" r="3" fill="hsl(336, 80%, 65%)" />
<circle cx="263.25" cy="204.02" r="4" fill="hsl(342, 80%, 65%)" />
<circle cx="286.02" cy="299.60" r="5" fill="hsl(348, 80%, 65%)" />
<circle cx="203.96" cy="244.03" r="6" fill="hsl(354, 80%, 65%)" />
<circle cx="302.85" cy="229.46" r="2" fill="hsl(0, 80%, 65%)" />
<circle cx="239.25" cy="307.64" r="3" fill="hsl(6, 80%, 65%)" />
<circle cx="233.28" cy="206.20" r="4" fill="hsl(12, 80%, 65%)" />
<circle cx="306.79" cy="277.55" r="5" fill="hsl(18, 80%, 65%)" />
<circle cx="203.58" cy="274.57" r="6" fill="hsl(24, 80%, 65%)" />
<circle cx="282.32" cy="206.52" r="2" fill="hsl(30, 80%, 65%)" />
<circle cx="270.13" cy="310.68" r="3" fill="hsl(36, 80%, 65%)" />
<circle cx="208.29" cy="224.99" r="4" fill="hsl(42, 80%, 65%)" />
<circle cx="312.54" cy="246.57" r="5" fill="hsl(48, 80%, 65%)" />
<circle cx="220.42" cy="301.48" r="6" fill="hsl(54, 80%, 65%)" />
<circle cx="251.48" cy="198.02" r="2" fill="hsl(60, 80%, 65%)" />
<circle cx="298.80" cy="295.99" r="3" fill="hsl(66, 80%, 65%)" />
<circle cx="197.02" cy="255.42" r="4" fill="hsl(72, 80%, 65%)" />
<circle cx="300.18" cy="216.31" r="5" fill="hsl(78, 80%, 65%)" />
<circle cx="250.19" cy="315.52" r="6" fill="hsl(84, 80%, 65%)" />
<circle cx="219.84" cy="207.87" r="2" fill="hsl(90, 80%, 65%)" />
<circle cx="315.57" cy="267.14" r="3" fill="hsl(96, 80%, 65%)" />
<circle cx="204.21" cy="288.24" r="4" fill="hsl(102, 80%, 65%)" />
<circle cx="272.52" cy="196.87" r="5" fill="hsl(108, 80%, 65%)" />
<circle cx="283.94" cy="311.11" r="6" fill="hsl(114, 80%, 65%)" />
<circle cx="197.81" cy="234.10" r="2" fill="hsl(120, 80%, 65%)" />
<circle cx="314.06" cy="232.69" r="3" fill="hsl(126, 80%, 65%)" />
<circle cx="228.76" cy="312.75" r="4" fill="hsl(132, 80%, 65%)" />
<circle cx="237.64" cy="195.39" r="5" fill="hsl(138, 80%, 65%)" />
<circle cx="310.81" cy="288.48" r="6" fill="hsl(144, 80%, 65%)" />
<circle cx="193.27" cy="269.15" r="2" fill="hsl(150, 80%, 65%)" />
<circle cx="293.59" cy="203.63" r="3" fill="hsl(156, 80%, 65%)" />
<circle cx="263.70" cy="320.38" r="4" fill="hsl(162, 80%, 65%)" />
<circle cx="206.55" cy="213.49" r="5" fill="hsl(168, 80%, 65%)" />
<circle cx="321.55" cy="253.93" r="6" fill="hsl(174, 80%, 65%)" />
<circle cx="208.80" cy="302.06" r="2" fill="hsl(180, 80%, 65%)" />
<circle cx="259.71" cy="189.79" r="3" fill="hsl(186, 80%, 65%)" />
<circle cx="298.22" cy="307.61" r="4" fill="hsl(192, 80%, 65%)" />
<circle cx="189.65" cy="246.41" r="5" fill="hsl(198, 80%, 65%)" />
<circle cx="311.70" cy="218.05" r="6" fill="hsl(204, 80%, 65%)" />
<circle cx="240.48" cy="321.95" r="2" fill="hsl(210, 80%, 65%)" />
<circle cx="222.71" cy="196.58" r="3" fill="hsl(216, 80%, 65%)" />
<circle cx="321.02" cy="277.44" r="4" fill="hsl(222, 80%, 65%)" />
<circle cx="193.25" cy="284.25" r="5" fill="hsl(228, 80%, 65%)" />
<circle cx="283.32" cy="192.46" r="6" fill="hsl(234, 80%, 65%)" />
<circle cx="278.89" cy="321.64" r="2" fill="hsl(240, 80%, 65%)" />
<circle cx="194.48" cy="222.90" r="3" fill="hsl(246, 80%, 65%)" />
<circle cx="324.06" cy="238.77" r="4" fill="hsl(252, 80%, 65%)" />
<circle cx="217.27" cy="314.97" r="5" fill="hsl(258, 80%, 65%)" />
<circle cx="244.67" cy="186.02" r="6" fill="hsl(264, 80%, 65%)" />
<circle cx="311.89" cy="300.16" r="2" fill="hsl(270, 80%, 65%)" />
<circle cx="184.62" cy="261.21" r="3" fill="hsl(276, 80%, 65%)" />
<circle cx="305.34" cy="203.69" r="4" fill="hsl(282, 80%, 65%)" />
<circle cx="254.94" cy="328.23" r="5" fill="hsl(288, 80%, 65%)" />
<circle cx="207.76" cy="201.77" r="6" fill="hsl(294, 80%, 65%)" />
<circle cx="328.53" cy="263.44" r="2" fill="hsl(300, 80%, 65%)" />
<circle cx="197.23" cy="299.71" r="3" fill="hsl(306, 80%, 65%)" />
<circle cx="269.87" cy="183.75" r="4" fill="hsl(312, 80%, 65%)" />
<circle cx="294.75" cy="318.92" r="5" fill="hsl(318, 80%, 65%)" />
<circle cx="184.61" cy="235.68" r="6" fill="hsl(324, 80%, 65%)" />
<circle cx="322.65" cy="222.61" r="2" fill="hsl(330, 80%, 65%)" />
<circle cx="229.29" cy="325.94" r="3" fill="hsl(336, 80%, 65%)" />
<circle cx="228.33" cy="186.08" r="4" fill="hsl(342, 80%, 65%)" />
<circle cx="323.92" cy="289.00" r="5" fill="hsl(348, 80%, 65%)" />
<circle cx="183.32" cy="277.63" r="6" fill="hsl(354, 80%, 65%)" />
<circle cx="295.14" cy="190.68" r="2" fill="hsl(0, 80%, 65%)" />
<circle cx="271.32" cy="330.92" r="3" fill="hsl(6, 80%, 65%)" />
<circle cx="193.84" cy="210.93" r="4" fill="hsl(12, 80%, 65%)" />
<circle cx="332.59" cy="247.21" r="5" fill="hsl(18, 80%, 65%)" />
<circle cx="205.25" cy="314.45" r="6" fill="hsl(24, 80%, 65%)" />
<circle cx="253.93" cy="178.31" r="2" fill="hsl(30, 80%, 65%)" />
<circle cx="310.23" cy="312.11" r="3" fill="hsl(36, 80%, 65%)" />
<circle cx="177.81" cy="251.24" r="4" fill="hsl(42, 80%, 65%)" />
<circle cx="317.12" cy="206.50" r="5" fill="hsl(48, 80%, 65%)" />
<circle cx="244.33" cy="334.09" r="6" fill="hsl(54, 80%, 65%)" />
<circle cx="211.69" cy="190.28" r="2" fill="hsl(60, 80%, 65%)" />
<circle cx="333.36" cy="274.60" r="3" fill="hsl(66, 80%, 65%)" />
<circle cx="186.13" cy="294.69" r="4" fill="hsl(72, 80%, 65%)" />
<circle cx="281.48" cy="179.99" r="5" fill="hsl(78, 80%, 65%)" />
<circle cx="288.68" cy="329.54" r="6" fill="hsl(84, 80%, 65%)" />
<circle cx="181.96" cy="223.73" r="2" fill="hsl(90, 80%, 65%)" />
<circle cx="332.68" cy="229.68" r="3" fill="hsl(96, 80%, 65%)" />
<circle cx="217.10" cy="327.46" r="4" fill="hsl(102, 80%, 65%)" />
<circle cx="236.34" cy="176.74" r="5" fill="hsl(108, 80%, 65%)" />
<circle cx="324.28" cy="301.33" r="6" fill="hsl(114, 80%, 65%)" />
<circle cx="174.74" cy="268.74" r="2" fill="hsl(120, 80%, 65%)" />
<circle cx="307.49" cy="191.48" r="3" fill="hsl(126, 80%, 65%)" />
<circle cx="261.63" cy="338.65" r="4" fill="hsl(132, 80%, 65%)" />
<circle cx="195.81" cy="198.66" r="5" fill="hsl(138, 80%, 65%)" />
<circle cx="339.40" cy="257.63" r="6" fill="hsl(144, 80%, 65%)" />
<circle cx="193.19" cy="311.33" r="2" fill="hsl(150, 80%, 65%)" />
<circle cx="264.97" cy="172.49" r="3" fill="hsl(156, 80%, 65%)" />
<circle cx="305.97" cy="323.87" r="4" fill="hsl(162, 80%, 65%)" />
<circle cx="173.03" cy="239.65" r="5" fill="hsl(168, 80%, 65%)" />
<circle cx="328.47" cy="211.86" r="6" fill="hsl(174, 80%, 65%)" />
<circle cx="232.30" cy="337.77" r="2" fill="hsl(180, 80%, 65%)" />
<circle cx="218.12" cy="179.44" r="3" fill="hsl(186, 80%, 65%)" />
<circle cx="335.91" cy="286.97" r="4" fill="hsl(192, 80%, 65%)" />
<circle cx="175.89" cy="287.25" r="5" fill="hsl(198, 80%, 65%)" />
<circle cx="294.08" cy="178.59" r="6" fill="hsl(204, 80%, 65%)" />
<circle cx="280.29" cy="339.07" r="2" fill="hsl(210, 80%, 65%)" />
<circle cx="181.74" cy="211.01" r="3" fill="hsl(216, 80%, 65%)" />
<circle cx="341.42" cy="238.96" r="4" fill="hsl(222, 80%, 65%)" />
<circle cx="204.36" cy="326.49" r="5" fill="hsl(228, 80%, 65%)" />
<circle cx="246.43" cy="168.87" r="6" fill="hsl(234, 80%, 65%)" />
<circle cx="322.12" cy="313.97" r="2" fill="hsl(240, 80%, 65%)" />
<circle cx="167.82" cy="257.92" r="3" fill="hsl(246, 80%, 65%)" />
<circle cx="319.92" cy="194.82" r="4" fill="hsl(252, 80%, 65%)" />
<circle cx="250.17" cy="344.56" r="5" fill="hsl(258, 80%, 65%)" />
<circle cx="200.31" cy="186.55" r="6" fill="hsl(264, 80%, 65%)" />
<circle cx="344.25" cy="269.63" r="2" fill="hsl(270, 80%, 65%)" />
<circle cx="181.50" cy="305.71" r="3" fill="hsl(276, 80%, 65%)" />
<circle cx="277.42" cy="168.76" r="4" fill="hsl(282, 80%, 65%)" />
<circle cx="299.26" cy="335.04" r="5" fill="hsl(288, 80%, 65%)" />
<circle cx="170.46" cy="226.86" r="6" fill="hsl(294, 80%, 65%)" />
<circle cx="339.01" cy="219.60" r="2" fill="hsl(300, 80%, 65%)" />
<circle cx="219.28" cy="339.15" r="3" fill="hsl(306, 80%, 65%)" />
<circle cx="226.82" cy="169.63" r="4" fill="hsl(312, 80%, 65%)" />
<circle cx="336.09" cy="300.11" r="5" fill="hsl(318, 80%, 65%)" />
<circle cx="166.89" cy="277.64" r="6" fill="hsl(324, 80%, 65%)" />
<circle cx="307.24" cy="179.64" r="2" fill="hsl(330, 80%, 65%)" />
<circle cx="269.84" cy="347.18" r="3" fill="hsl(336, 80%, 65%)" />
<circle cx="184.00" cy="197.96" r="4" fill="hsl(342, 80%, 65%)" />
<circle cx="348.56" cy="250.15" r="5" fill="hsl(348, 80%, 65%)" />
<circle cx="191.52" cy="323.03" r="6" fill="hsl(354, 80%, 65%)" />
<circle cx="258.27" cy="162.76" r="2" fill="hsl(0, 80%, 65%)" />
<circle cx="317.47" cy="326.48" r="3" fill="hsl(6, 80%, 65%)" />
<circle cx="162.81" cy="245.53" r="4" fill="hsl(12, 80%, 65%)" />
<circle cx="332.00" cy="200.62" r="5" fill="hsl(18, 80%, 65%)" />
<circle cx="237.32" cy="348.43" r="6" fill="hsl(24, 80%, 65%)" />
<circle cx="207.21" cy="175.01" r="2" fill="hsl(30, 80%, 65%)" />
<circle cx="346.93" cy="282.84" r="3" fill="hsl(36, 80%, 65%)" />
<circle cx="170.60" cy="297.74" r="4" fill="hsl(42, 80%, 65%)" />
<circle cx="290.87" cy="167.29" r="5" fill="hsl(48, 80%, 65%)" />
<circle cx="290.30" cy="345.20" r="6" fill="hsl(54, 80%, 65%)" />
<circle cx="170.23" cy="213.28" r="2" fill="hsl(60, 80%, 65%)" />
<circle cx="348.34" cy="229.49" r="3" fill="hsl(66, 80%, 65%)" />
<circle cx="205.68" cy="338.14" r="4" fill="hsl(72, 80%, 65%)" />
<circle cx="237.57" cy="161.20" r="5" fill="hsl(78, 80%, 65%)" />
<circle cx="333.83" cy="313.60" r="6" fill="hsl(84, 80%, 65%)" />
<circle cx="159.46" cy="266.12" r="2" fill="hsl(90, 80%, 65%)" />
<circle cx="320.51" cy="183.14" r="3" fill="hsl(96, 80%, 65%)" />
<circle cx="257.65" cy="353.56" r="4" fill="hsl(102, 80%, 65%)" />
<circle cx="188.71" cy="185.00" r="5" fill="hsl(108, 80%, 65%)" />
<circle cx="353.82" cy="262.92" r="6" fill="hsl(114, 80%, 65%)" />
<circle cx="179.01" cy="317.13" r="2" fill="hsl(120, 80%, 65%)" />
<circle cx="271.52" cy="158.67" r="3" fill="hsl(126, 80%, 65%)" />
<circle cx="310.43" cy="338.45" r="4" fill="hsl(132, 80%, 65%)" />
<circle cx="159.93" cy="231.91" r="5" fill="hsl(138, 80%, 65%)" />
<circle cx="343.32" cy="208.75" r="6" fill="hsl(144, 80%, 65%)" />
<circle cx="223.45" cy="350.06" r="2" fill="hsl(150, 80%, 65%)" />
<circle cx="216.37" cy="164.43" r="3" fill="hsl(156, 80%, 65%)" />
<circle cx="347.29" cy="296.85" r="4" fill="hsl(162, 80%, 65%)" />
<circle cx="160.86" cy="287.62" r="5" fill="hsl(168, 80%, 65%)" />
<circle cx="304.91" cy="168.21" r="6" fill="hsl(174, 80%, 65%)" />
<circle cx="279.29" cy="354.01" r="2" fill="hsl(180, 80%, 65%)" />
<circle cx="172.42" cy="199.33" r="3" fill="hsl(186, 80%, 65%)" />
<circle cx="356.14" cy="241.29" r="4" fill="hsl(192, 80%, 65%)" />
<circle cx="191.94" cy="334.67" r="5" fill="hsl(198, 80%, 65%)" />
<circle cx="250.08" cy="154.48" r="6" fill="hsl(204, 80%, 65%)" />
<circle cx="329.11" cy="327.02" r="2" fill="hsl(210, 80%, 65%)" />
<circle cx="153.88" cy="253.01" r="3" fill="hsl(216, 80%, 65%)" />
<circle cx="333.50" cy="189.07" r="4" fill="hsl(222, 80%, 65%)" />
<circle cx="244.04" cy="357.94" r="5" fill="hsl(228, 80%, 65%)" />
<circle cx="195.82" cy="172.56" r="6" fill="hsl(234, 80%, 65%)" />
<circle cx="356.96" cy="276.92" r="2" fill="hsl(240, 80%, 65%)" />
</svg>
