<svg xmlns="http://www.w3.org/2000/svg" width="512" height="512" viewBox="0 0 512 512">
<rect width="100%" height="100%" fill="#0b1020"/>
<circle cx="368" cy="126" r="56" fill="#f8f3c9" opacity="0.95" />
<circle cx="406.0" cy="98.0" r="2.7" fill="white" />
<circle cx="259.0" cy="154.0" r="2.5" fill="white" />
<circle cx="126.0" cy="20.0" r="3.2" fill="white" />
<circle cx="326.0" cy="77.0" r="2.0" fill="white" />
<circle cx="82.0" cy="174.0" r="2.3" fill="white" />
<circle cx="382.0" cy="88.0" r="2.2" fill="white" />
<circle cx="322.0" cy="150.0" r="3.3" fill="white" />
<circle cx="384.0" cy="55.0" r="1.9" fill="white" />
<circle cx="426.0" cy="88.0" r="2.1" fill="white" />
<circle cx="320.0" cy="175.0" r="2.0" fill="white" />
<circle cx="203.0" cy="83.0" r="3.2" fill="white" />
<circle cx="263.0" cy="50.0" r="2.8" fill="white" />
<circle cx="415.0" cy="167.0" r="2.4" fill="white" />
<path d="M 20 430 C 104 425, 181 452, 280 432 S 450 400, 512 430" stroke="#5dade2" stroke-width="5" fill="none" opacity="0.85" />
<line x1="0" y1="408" x2="512" y2="408" stroke="#445566" stroke-width="2" />
<polygon points="174,365 214,305 254,325 274,295 294,315 306,355 274,377 224,381" fill="#1e1e1e" />
<polygon points="249,305 262,283 272,307" fill="#1e1e1e" />
<line x1="304" y1="350" x2="334" y2="325" stroke="#1e1e1e" stroke-width="6" />
</svg>
