<svg xmlns="http://www.w3.org/2000/svg" width="512" height="512" viewBox="0 0 512 512">
<rect width="100%" height="100%" fill="#0b1020"/>
<circle cx="443" cy="123" r="45" fill="#f8f3c9" opacity="0.95" />
<circle cx="361.0" cy="71.0" r="1.9" fill="white" />
<circle cx="259.0" cy="119.0" r="2.7" fill="white" />
<circle cx="135.0" cy="160.0" r="3.0" fill="white" />
<circle cx="471.0" cy="44.0" r="2.7" fill="white" />
<circle cx="410.0" cy="172.0" r="3.3" fill="white" />
<circle cx="351.0" cy="124.0" r="3.4" fill="white" />
<circle cx="99.0" cy="117.0" r="1.8" fill="white" />
<circle cx="436.0" cy="145.0" r="3.2" fill="white" />
<circle cx="340.0" cy="137.0" r="1.7" fill="white" />
<circle cx="308.0" cy="150.0" r="1.7" fill="white" />
<circle cx="441.0" cy="22.0" r="1.5" fill="white" />
<circle cx="269.0" cy="148.0" r="2.0" fill="white" />
<path d="M 20 430 C 100 414, 196 450, 309 425 S 450 379, 512 409" stroke="#5dade2" stroke-width="6" fill="none" opacity="0.85" />
<line x1="0" y1="415" x2="512" y2="415" stroke="#445566" stroke-width="2" />
<polygon points="179,365 219,305 259,325 279,295 299,315 311,355 279,377 229,381" fill="#1e1e1e" />
<polygon points="254,305 267,283 277,307" fill="#1e1e1e" />
<line x1="309" y1="350" x2="339" y2="325" stroke="#1e1e1e" stroke-width="6" />
</svg>
