<svg xmlns="http://www.w3.org/2000/svg" width="512" height="512" viewBox="0 0 512 512">
<rect width="100%" height="100%" fill="#0b1020"/>
<circle cx="357" cy="100" r="50" fill="#f8f3c9" opacity="0.95" />
<circle cx="142.0" cy="43.0" r="3.5" fill="white" />
<circle cx="184.0" cy="49.0" r="3.2" fill="white" />
<circle cx="417.0" cy="110.0" r="1.7" fill="white" />
<circle cx="212.0" cy="27.0" r="1.9" fill="white" />
<circle cx="130.0" cy="173.0" r="1.8" fill="white" />
<circle cx="109.0" cy="23.0" r="2.7" fill="white" />
<circle cx="163.0" cy="143.0" r="2.3" fill="white" />
<circle cx="233.0" cy="91.0" r="3.2" fill="white" />
<circle cx="268.0" cy="130.0" r="2.1" fill="white" />
<circle cx="230.0" cy="45.0" r="2.6" fill="white" />
<path d="M 20 430 C 129 419, 182 456, 312 435 S 450 403, 512 433" stroke="#5dade2" stroke-width="5" fill="none" opacity="0.85" />
<line x1="0" y1="407" x2="512" y2="407" stroke="#445566" stroke-width="2" />
<polygon points="203,357 243,297 283,317 303,287 323,307 335,347 303,369 253,373" fill="#1e1e1e" />
<polygon points="278,297 291,275 301,299" fill="#1e1e1e" />
<line x1="333" y1="342" x2="363" y2="317" stroke="#1e1e1e" stroke-width="6" />
</svg>
