<svg xmlns="http://www.w3.org/2000/svg" width="512" height="512" viewBox="0 0 512 512">
<rect width="100%" height="100%" fill="#0b1020"/>
<circle cx="433" cy="127" r="40" fill="#f8f3c9" opacity="0.95" />
<circle cx="469.0" cy="57.0" r="3.0" fill="white" />
<circle cx="277.0" cy="177.0" r="2.7" fill="white" />
<circle cx="33.0" cy="155.0" r="1.6" fill="white" />
<circle cx="160.0" cy="67.0" r="2.9" fill="white" />
<circle cx="325.0" cy="162.0" r="3.4" fill="white" />
<circle cx="212.0" cy="61.0" r="3.0" fill="white" />
<circle cx="81.0" cy="41.0" r="3.3" fill="white" />
<path d="M 20 430 C 109 424, 185 455, 306 430 S 450 376, 512 406" stroke="#5dade2" stroke-width="5" fill="none" opacity="0.85" />
<line x1="0" y1="402" x2="512" y2="402" stroke="#445566" stroke-width="2" />
<polygon points="214,358 254,298 294,318 314,288 334,308 346,348 314,370 264,374" fill="#1e1e1e" />
<polygon points="289,298 302,276 312,300" fill="#1e1e1e" />
<line x1="344" y1="343" x2="374" y2="318" stroke="#1e1e1e" stroke-width="6" />
</svg>
