<svg xmlns="http://www.w3.org/2000/svg" width="512" height="512" viewBox="0 0 512 512">
<rect width="100%" height="100%" fill="#0b1020"/>
<circle cx="342" cy="133" r="51" fill="#f8f3c9" opacity="0.95" />
<circle cx="270.0" cy="83.0" r="2.8" fill="white" />
<circle cx="128.0" cy="72.0" r="3.5" fill="white" />
<circle cx="389.0" cy="92.0" r="3.3" fill="white" />
<circle cx="196.0" cy="43.0" r="1.7" fill="white" />
<circle cx="141.0" cy="52.0" r="1.8" fill="white" />
<path d="M 20 430 C 102 421, 192 458, 300 421 S 450 386, 512 416" stroke="#5dade2" stroke-width="7" fill="none" opacity="0.85" />
<line x1="0" y1="386" x2="512" y2="386" stroke="#445566" stroke-width="2" />
<polygon points="209,363 249,303 289,323 309,293 329,313 341,353 309,375 259,379" fill="#1e1e1e" />
<polygon points="284,303 297,281 307,305" fill="#1e1e1e" />
<line x1="339" y1="348" x2="369" y2="323" stroke="#1e1e1e" stroke-width="6" />
</svg>
