<svg xmlns="http://www.w3.org/2000/svg" width="512" height="512" viewBox="0 0 512 512">
<rect width="100%" height="100%" fill="#0b1020"/>
<circle cx="417" cy="81" r="45" fill="#f8f3c9" opacity="0.95" />
<circle cx="396.0" cy="106.0" r="2.3" fill="white" />
<circle cx="155.0" cy="138.0" r="3.3" fill="white" />
<circle cx="441.0" cy="44.0" r="3.2" fill="white" />
<circle cx="262.0" cy="119.0" r="3.1" fill="white" />
<circle cx="204.0" cy="30.0" r="2.7" fill="white" />
<circle cx="478.0" cy="113.0" r="2.5" fill="white" />
<circle cx="439.0" cy="154.0" r="2.3" fill="white" />
<circle cx="367.0" cy="132.0" r="2.0" fill="white" />
<circle cx="25.0" cy="77.0" r="3.4" fill="white" />
<circle cx="428.0" cy="177.0" r="1.5" fill="white" />
<path d="M 20 430 C 114 414, 181 455, 287 427 S 450 385, 512 415" stroke="#5dade2" stroke-width="7" fill="none" opacity="0.85" />
<line x1="0" y1="415" x2="512" y2="415" stroke="#445566" stroke-width="2" />
<polygon points="204,361 244,301 284,321 304,291 324,311 336,351 304,373 254,377" fill="#1e1e1e" />
<polygon points="279,301 292,279 302,303" fill="#1e1e1e" />
<line x1="334" y1="346" x2="364" y2="321" stroke="#1e1e1e" stroke-width="6" />
</svg>
