<svg xmlns="http://www.w3.org/2000/svg" width="512" height="512" viewBox="0 0 512 512">
<rect width="100%" height="100%" fill="#0b1020"/>
<circle cx="368" cy="96" r="52" fill="#f8f3c9" opacity="0.95" />
<circle cx="334.0" cy="73.0" r="1.9" fill="white" />
<circle cx="191.0" cy="113.0" r="2.0" fill="white" />
<circle cx="348.0" cy="44.0" r="1.9" fill="white" />
<circle cx="28.0" cy="68.0" r="1.7" fill="white" />
<circle cx="335.0" cy="128.0" r="2.9" fill="white" />
<circle cx="193.0" cy="139.0" r="1.8" fill="white" />
<circle cx="303.0" cy="64.0" r="2.0" fill="white" />
<circle cx="131.0" cy="28.0" r="2.4" fill="white" />
<circle cx="433.0" cy="158.0" r="3.1" fill="white" />
<circle cx="447.0" cy="74.0" r="1.7" fill="white" />
<circle cx="169.0" cy="64.0" r="3.4" fill="white" />
<path d="M 20 430 C 139 416, 162 460, 291 425 S 450 377, 512 407" stroke="#5dade2" stroke-width="6" fill="none" opacity="0.85" />
<line x1="0" y1="390" x2="512" y2="390" stroke="#445566" stroke-width="3" />
<polygon points="195,357 235,297 275,317 295,287 315,307 327,347 295,369 245,373" fill="#1e1e1e" />
<polygon points="270,297 283,275 293,299" fill="#1e1e1e" />
<line x1="325" y1="342" x2="355" y2="317" stroke="#1e1e1e" stroke-width="6" />
</svg>
