<svg xmlns="http://www.w3.org/2000/svg" width="512" height="512" viewBox="0 0 512 512">
<rect width="100%" height="100%" fill="#0b1020"/>
<circle cx="401" cy="63" r="43" fill="#f8f3c9" opacity="0.95" />
<circle cx="333.0" cy="177.0" r="3.3" fill="white" />
<circle cx="126.0" cy="91.0" r="2.7" fill="white" />
<circle cx="29.0" cy="111.0" r="1.8" fill="white" />
<circle cx="190.0" cy="155.0" r="3.2" fill="white" />
<circle cx="326.0" cy="30.0" r="1.8" fill="white" />
<circle cx="349.0" cy="44.0" r="1.8" fill="white" />
<circle cx="241.0" cy="102.0" r="3.0" fill="white" />
<circle cx="364.0" cy="96.0" r="2.9" fill="white" />
<circle cx="131.0" cy="95.0" r="2.3" fill="white" />
<circle cx="350.0" cy="143.0" r="1.5" fill="white" />
<circle cx="177.0" cy="67.0" r="1.8" fill="white" />
<path d="M 20 430 C 100 419, 199 459, 319 438 S 450 391, 512 421" stroke="#5dade2" stroke-width="8" fill="none" opacity="0.85" />
<line x1="0" y1="395" x2="512" y2="395" stroke="#445566" stroke-width="4" />
<polygon points="159,359 199,299 239,319 259,289 279,309 291,349 259,371 209,375" fill="#1e1e1e" />
<polygon points="234,299 247,277 257,301" fill="#1e1e1e" />
<line x1="289" y1="344" x2="319" y2="319" stroke="#1e1e1e" stroke-width="6" />
</svg>
