<svg xmlns="http://www.w3.org/2000/svg" width="512" height="512" viewBox="0 0 512 512">
<rect width="100%" height="100%" fill="#0b1020"/>
<circle cx="431" cy="90" r="48" fill="#f8f3c9" opacity="0.95" />
<circle cx="24.0" cy="44.0" r="3.3" fill="white" />
<circle cx="41.0" cy="73.0" r="2.0" fill="white" />
<circle cx="417.0" cy="132.0" r="3.2" fill="white" />
<circle cx="34.0" cy="45.0" r="2.5" fill="white" />
<circle cx="443.0" cy="51.0" r="3.5" fill="white" />
<circle cx="192.0" cy="67.0" r="1.9" fill="white" />
<circle cx="310.0" cy="163.0" r="2.2" fill="white" />
<circle cx="159.0" cy="151.0" r="3.2" fill="white" />
<circle cx="185.0" cy="153.0" r="2.6" fill="white" />
<circle cx="29.0" cy="37.0" r="2.6" fill="white" />
<circle cx="61.0" cy="171.0" r="3.2" fill="white" />
<circle cx="330.0" cy="174.0" r="1.6" fill="white" />
<circle cx="324.0" cy="177.0" r="2.4" fill="white" />
<path d="M 20 430 C 103 424, 160 456, 318 438 S 450 385, 512 415" stroke="#5dade2" stroke-width="8" fill="none" opacity="0.85" />
<line x1="0" y1="403" x2="512" y2="403" stroke="#445566" stroke-width="4" />
<polygon points="185,361 225,301 265,321 285,291 305,311 317,351 285,373 235,377" fill="#1e1e1e" />
<polygon points="260,301 273,279 283,303" fill="#1e1e1e" />
<line x1="315" y1="346" x2="345" y2="321" stroke="#1e1e1e" stroke-width="6" />
</svg>
