<svg xmlns="http://www.w3.org/2000/svg" width="512" height="512" viewBox="0 0 512 512">
<rect width="100%" height="100%" fill="#0b1020"/>
<circle cx="413" cy="109" r="47" fill="#f8f3c9" opacity="0.95" />
<circle cx="193.0" cy="45.0" r="1.8" fill="white" />
<circle cx="205.0" cy="134.0" r="2.9" fill="white" />
<circle cx="313.0" cy="49.0" r="3.3" fill="white" />
<circle cx="381.0" cy="148.0" r="2.9" fill="white" />
<circle cx="368.0" cy="123.0" r="3.4" fill="white" />
<path d="M 20 430 C 100 430, 169 446, 289 434 S 450 395, 512 425" stroke="#5dade2" stroke-width="6" fill="none" opacity="0.85" />
<line x1="0" y1="407" x2="512" y2="407" stroke="#445566" stroke-width="3" />
<polygon points="161,359 201,299 241,319 261,289 281,309 293,349 261,371 211,375" fill="#1e1e1e" />
<polygon points="236,299 249,277 259,301" fill="#1e1e1e" />
<line x1="291" y1="344" x2="321" y2="319" stroke="#1e1e1e" stroke-width="6" />
</svg>
