<svg xmlns="http://www.w3.org/2000/svg" width="512" height="512" viewBox="0 0 512 512">
<rect width="100%" height="100%" fill="black"/>
<polyline points="0.00,256.00 4.00,258.93 8.00,261.84 12.00,264.69 16.00,267.46 20.00,270.13 24.00,272.67 28.00,275.06 32.00,277.27 36.00,279.29 40.00,281.09 44.00,282.67 48.00,284.00 52.00,285.07 56.00,285.88 60.00,286.42 64.00,286.68 68.00,286.65 72.00,286.35 76.00,285.77 80.00,284.92 84.00,283.80 88.00,282.43 92.00,280.81 96.00,278.97 100.00,276.92 104.00,274.68 108.00,272.27 112.00,269.70 116.00,267.02 120.00,264.23 124.00,261.37 128.00,258.45 132.00,255.52 136.00,252.59 140.00,249.69 144.00,246.85 148.00,244.09 152.00,241.44 156.00,238.93 160.00,236.57 164.00,234.39 168.00,232.40 172.00,230.63 176.00,229.10 180.00,227.81 184.00,226.78 188.00,226.01 192.00,225.52 196.00,225.31 200.00,225.38 204.00,225.73 208.00,226.35 212.00,227.25 216.00,228.41 220.00,229.82 224.00,231.47 228.00,233.35 232.00,235.43 236.00,237.70 240.00,240.14 244.00,242.73 248.00,245.43 252.00,248.23 256.00,251.11 260.00,254.02 264.00,256.96 268.00,259.89 272.00,262.78 276.00,265.61 280.00,268.35 284.00,270.98 288.00,273.47 292.00,275.80 296.00,277.95 300.00,279.90 304.00,281.63 308.00,283.13 312.00,284.38 316.00,285.37 320.00,286.09 324.00,286.53 328.00,286.70 332.00,286.58 336.00,286.19 340.00,285.52 344.00,284.58 348.00,283.38 352.00,281.92 356.00,280.23 360.00,278.32 364.00,276.21 368.00,273.91 372.00,271.44 376.00,268.84 380.00,266.12 384.00,263.30 388.00,260.42 392.00,257.50 396.00,254.56 400.00,251.64 404.00,248.75 408.00,245.94 412.00,243.21 416.00,240.61 420.00,238.14 424.00,235.84 428.00,233.72 432.00,231.80 436.00,230.11 440.00,228.65 444.00,227.44 448.00,226.50 452.00,225.82 456.00,225.42 460.00,225.30 464.00,225.46 468.00,225.90 472.00,226.62 476.00,227.60 480.00,228.84 484.00,230.34 488.00,232.06 492.00,234.01 496.00,236.16 500.00,238.48 504.00,240.97 508.00,243.60 512.00,246.34" fill="none" stroke="#66ccff" stroke-width="2"/>
<polyline points="0.00,312.71 4.00,314.55 8.00,315.86 12.00,316.62 16.00,316.84 20.00,316.50 24.00,315.60 28.00,314.17 32.00,312.20 36.00,309.73 40.00,306.76 44.00,303.33 48.00,299.47 52.00,295.22 56.00,290.61 60.00,285.68 64.00,280.48 68.00,275.06 72.00,269.46 76.00,263.75 80.00,257.96 84.00,252.15 88.00,246.38 92.00,240.70 96.00,235.16 100.00,229.80 104.00,224.69 108.00,219.86 112.00,215.36 116.00,211.23 120.00,207.50 124.00,204.22 128.00,201.41 132.00,199.10 136.00,197.31 140.00,196.05 144.00,195.33 148.00,195.17 152.00,195.56 156.00,196.51 160.00,197.99 164.00,200.01 168.00,202.53 172.00,205.54 176.00,209.01 180.00,212.91 184.00,217.20 188.00,221.84 192.00,226.80 196.00,232.02 200.00,237.46 204.00,243.06 208.00,248.79 212.00,254.58 216.00,260.39 220.00,266.15 224.00,271.82 228.00,277.35 232.00,282.68 236.00,287.77 240.00,292.58 244.00,297.04 248.00,301.14 252.00,304.82 256.00,308.06 260.00,310.82 264.00,313.09 268.00,314.83 272.00,316.04 276.00,316.71 280.00,316.82 284.00,316.37 288.00,315.38 292.00,313.84 296.00,311.78 300.00,309.21 304.00,306.16 308.00,302.65 312.00,298.71 316.00,294.38 320.00,289.71 324.00,284.73 328.00,279.49 332.00,274.03 336.00,268.41 340.00,262.67 344.00,256.88 348.00,251.08 352.00,245.32 356.00,239.66 360.00,234.14 364.00,228.83 368.00,223.77 372.00,218.99 376.00,214.56 380.00,210.50 384.00,206.86 388.00,203.66 392.00,200.94 396.00,198.73 400.00,197.03 404.00,195.87 408.00,195.26 412.00,195.20 416.00,195.70 420.00,196.74 424.00,198.33 428.00,200.44 432.00,203.05 436.00,206.15 440.00,209.70 444.00,213.68 448.00,218.04 452.00,222.74 456.00,227.75 460.00,233.01 464.00,238.49 468.00,244.12 472.00,249.86 476.00,255.66 480.00,261.46 484.00,267.21 488.00,272.86 492.00,278.36 496.00,283.65 500.00,288.69 504.00,293.43 508.00,297.84 512.00,301.86" fill="none" stroke="#ff66cc" stroke-width="2"/>
<polyline points="0.00,319.98 4.00,310.92 8.00,301.04 12.00,290.47 16.00,279.37 20.00,267.93 24.00,256.30 28.00,244.67 32.00,233.21 36.00,222.10 40.00,211.50 44.00,201.57 48.00,192.47 52.00,184.32 56.00,177.26 60.00,171.39 64.00,166.80 68.00,163.56 72.00,161.72 76.00,161.31 80.00,162.32 84.00,164.76 88.00,168.57 92.00,173.71 96.00,180.09 100.00,187.62 104.00,196.18 108.00,205.65 112.00,215.88 116.00,226.72 120.00,238.00 124.00,249.55 128.00,261.20 132.00,272.77 136.00,284.09 140.00,294.98 144.00,305.28 148.00,314.84 152.00,323.51 156.00,331.15 160.00,337.66 164.00,342.94 168.00,346.90 172.00,349.48 176.00,350.65 180.00,350.39 184.00,348.70 188.00,345.61 192.00,341.16 196.00,335.43 200.00,328.49 204.00,320.46 208.00,311.45 212.00,301.61 216.00,291.07 220.00,280.00 224.00,268.57 228.00,256.95 232.00,245.32 236.00,233.85 240.00,222.71 244.00,212.07 248.00,202.10 252.00,192.95 256.00,184.75 260.00,177.63 264.00,171.69 268.00,167.03 272.00,163.71 276.00,161.79 280.00,161.29 284.00,162.23 288.00,164.58 292.00,168.32 296.00,173.39 300.00,179.70 304.00,187.17 308.00,195.68 312.00,205.10 316.00,215.29 320.00,226.10 324.00,237.36 328.00,248.90 332.00,260.55 336.00,272.13 340.00,283.46 344.00,294.38 348.00,304.72 352.00,314.33 356.00,323.05 360.00,330.76 364.00,337.33 368.00,342.68 372.00,346.71 376.00,349.37 380.00,350.62 384.00,350.44 388.00,348.83 392.00,345.82 396.00,341.45 400.00,335.78 404.00,328.91 408.00,320.94 412.00,311.98 416.00,302.18 420.00,291.67 424.00,280.63 428.00,269.22 432.00,257.60 436.00,245.97 440.00,234.48 444.00,223.32 448.00,212.65 452.00,202.64 456.00,193.44 460.00,185.18 464.00,177.99 468.00,171.99 472.00,167.25 476.00,163.86 480.00,161.86 484.00,161.28 488.00,162.14 492.00,164.42 496.00,168.08 500.00,173.07 504.00,179.32 508.00,186.72 512.00,195.18" fill="none" stroke="#ffee66" stroke-width="2"/>
<line x1="0" y1="256" x2="512" y2="256" stroke="#223344" stroke-width="1"/>
</svg>
