<svg xmlns="http://www.w3.org/2000/svg" width="512" height="512" viewBox="0 0 512 512">
<rect width="100%" height="100%" fill="#0b1020"/>
<circle cx="457" cy="84" r="56" fill="#f8f3c9" opacity="0.95" />
<circle cx="127.0" cy="120.0" r="2.4" fill="white" />
<circle cx="301.0" cy="93.0" r="2.5" fill="white" />
<circle cx="119.0" cy="127.0" r="3.5" fill="white" />
<circle cx="33.0" cy="90.0" r="1.6" fill="white" />
<circle cx="454.0" cy="138.0" r="1.7" fill="white" />
<circle cx="128.0" cy="114.0" r="2.5" fill="white" />
<circle cx="428.0" cy="140.0" r="3.1" fill="white" />
<path d="M 20 430 C 124 426, 171 448, 282 437 S 450 375, 512 405" stroke="#5dade2" stroke-width="6" fill="none" opacity="0.85" />
<line x1="0" y1="386" x2="512" y2="386" stroke="#445566" stroke-width="3" />
<polygon points="220,358 260,298 300,318 320,288 340,308 352,348 320,370 270,374" fill="#1e1e1e" />
<polygon points="295,298 308,276 318,300" fill="#1e1e1e" />
<line x1="350" y1="343" x2="380" y2="318" stroke="#1e1e1e" stroke-width="6" />
</svg>
