<svg xmlns="http://www.w3.org/2000/svg" width="512" height="512" viewBox="0 0 512 512">
<rect width="100%" height="100%" fill="#0b1020"/>
<circle cx="386" cy="84" r="40" fill="#f8f3c9" opacity="0.95" />
<circle cx="267.0" cy="54.0" r="2.3" fill="white" />
<circle cx="458.0" cy="94.0" r="1.7" fill="white" />
<circle cx="70.0" cy="179.0" r="1.6" fill="white" />
<circle cx="377.0" cy="170.0" r="2.1" fill="white" />
<circle cx="384.0" cy="25.0" r="2.2" fill="white" />
<circle cx="364.0" cy="69.0" r="2.3" fill="white" />
<circle cx="180.0" cy="120.0" r="2.3" fill="white" />
<circle cx="465.0" cy="22.0" r="2.9" fill="white" />
<circle cx="469.0" cy="83.0" r="3.0" fill="white" />
<circle cx="40.0" cy="153.0" r="2.3" fill="white" />
<path d="M 20 430 C 115 417, 167 446, 295 426 S 450 378, 512 408" stroke="#5dade2" stroke-width="5" fill="none" opacity="0.85" />
<line x1="0" y1="407" x2="512" y2="407" stroke="#445566" stroke-width="4" />
<polygon points="172,361 212,301 252,321 272,291 292,311 304,351 272,373 222,377" fill="#1e1e1e" />
<polygon points="247,301 260,279 270,303" fill="#1e1e1e" />
<line x1="302" y1="346" x2="332" y2="321" stroke="#1e1e1e" stroke-width="6" />
</svg>
