<svg xmlns="http://www.w3.org/2000/svg" width="512" height="512" viewBox="0 0 512 512">
<rect width="100%" height="100%" fill="#0b1020"/>
<circle cx="351" cy="86" r="44" fill="#f8f3c9" opacity="0.95" />
<circle cx="385.0" cy="96.0" r="2.0" fill="white" />
<circle cx="408.0" cy="125.0" r="1.8" fill="white" />
<circle cx="403.0" cy="158.0" r="1.7" fill="white" />
<circle cx="440.0" cy="140.0" r="2.4" fill="white" />
<circle cx="381.0" cy="53.0" r="3.3" fill="white" />
<circle cx="303.0" cy="166.0" r="1.6" fill="white" />
<circle cx="56.0" cy="134.0" r="3.5" fill="white" />
<circle cx="431.0" cy="180.0" r="2.3" fill="white" />
<circle cx="408.0" cy="157.0" r="1.9" fill="white" />
<circle cx="195.0" cy="154.0" r="2.2" fill="white" />
<circle cx="446.0" cy="22.0" r="1.7" fill="white" />
<path d="M 20 430 C 114 429, 195 460, 295 434 S 450 403, 512 433" stroke="#5dade2" stroke-width="7" fill="none" opacity="0.85" />
<line x1="0" y1="406" x2="512" y2="406" stroke="#445566" stroke-width="4" />
<polygon points="146,364 186,304 226,324 246,294 266,314 278,354 246,376 196,380" fill="#1e1e1e" />
<polygon points="221,304 234,282 244,306" fill="#1e1e1e" />
<line x1="276" y1="349" x2="306" y2="324" stroke="#1e1e1e" stroke-width="6" />
</svg>
