<svg xmlns="http://www.w3.org/2000/svg" width="512" height="512" viewBox="0 0 512 512">
<rect width="100%" height="100%" fill="black"/>
<circle cx="220" cy="275" r="2" fill="hsl(0, 80%, 65%)" />
<circle cx="144" cy="396" r="7" fill="hsl(9, 80%, 65%)" />
<circle cx="336" cy="121" r="8" fill="hsl(18, 80%, 65%)" />
<circle cx="221" cy="196" r="2" fill="hsl(27, 80%, 65%)" />
<circle cx="429" cy="231" r="3" fill="hsl(36, 80%, 65%)" />
<circle cx="335" cy="435" r="5" fill="hsl(45, 80%, 65%)" />
<circle cx="121" cy="220" r="7" fill="hsl(54, 80%, 65%)" />
<circle cx="217" cy="411" r="3" fill="hsl(63, 80%, 65%)" />
<circle cx="167" cy="84" r="8" fill="hsl(72, 80%, 65%)" />
<circle cx="291" cy="344" r="6" fill="hsl(81, 80%, 65%)" />
<circle cx="358" cy="113" r="2" fill="hsl(90, 80%, 65%)" />
<circle cx="109" cy="374" r="4" fill="hsl(99, 80%, 65%)" />
<circle cx="401" cy="251" r="2" fill="hsl(108, 80%, 65%)" />
<circle cx="297" cy="99" r="5" fill="hsl(117, 80%, 65%)" />
<circle cx="123" cy="143" r="2" fill="hsl(126, 80%, 65%)" />
<circle cx="112" cy="346" r="5" fill="hsl(135, 80%, 65%)" />
<circle cx="212" cy="194" r="5" fill="hsl(144, 80%, 65%)" />
<circle cx="163" cy="247" r="4" fill="hsl(153, 80%, 65%)" />
<circle cx="353" cy="86" r="6" fill="hsl(162, 80%, 65%)" />
<circle cx="180" cy="431" r="6" fill="hsl(171, 80%, 65%)" />
<circle cx="96" cy="261" r="7" fill="hsl(180, 80%, 65%)" />
<circle cx="287" cy="339" r="7" fill="hsl(189, 80%, 65%)" />
<circle cx="295" cy="110" r="2" fill="hsl(198, 80%, 65%)" />
<circle cx="180" cy="272" r="8" fill="hsl(207, 80%, 65%)" />
<circle cx="72" cy="422" r="4" fill="hsl(216, 80%, 65%)" />
<circle cx="261" cy="411" r="4" fill="hsl(225, 80%, 65%)" />
<circle cx="310" cy="388" r="3" fill="hsl(234, 80%, 65%)" />
<circle cx="137" cy="91" r="4" fill="hsl(243, 80%, 65%)" />
<circle cx="304" cy="398" r="4" fill="hsl(252, 80%, 65%)" />
<circle cx="334" cy="333" r="6" fill="hsl(261, 80%, 65%)" />
<circle cx="177" cy="129" r="7" fill="hsl(270, 80%, 65%)" />
<circle cx="248" cy="336" r="7" fill="hsl(279, 80%, 65%)" />
<circle cx="198" cy="360" r="4" fill="hsl(288, 80%, 65%)" />
<circle cx="99" cy="302" r="2" fill="hsl(297, 80%, 65%)" />
<circle cx="335" cy="325" r="5" fill="hsl(306, 80%, 65%)" />
<circle cx="97" cy="425" r="7" fill="hsl(315, 80%, 65%)" />
<circle cx="152" cy="424" r="5" fill="hsl(324, 80%, 65%)" />
<circle cx="399" cy="212" r="6" fill="hsl(333, 80%, 65%)" />
<circle cx="372" cy="214" r="4" fill="hsl(342, 80%, 65%)" />
<circle cx="301" cy="414" r="3" fill="hsl(351, 80%, 65%)" />
<circle cx="217" cy="309" r="7" fill="hsl(0, 80%, 65%)" />
<circle cx="269" cy="378" r="3" fill="hsl(9, 80%, 65%)" />
<circle cx="184" cy="167" r="4" fill="hsl(18, 80%, 65%)" />
<circle cx="334" cy="93" r="4" fill="hsl(27, 80%, 65%)" />
<circle cx="172" cy="329" r="7" fill="hsl(36, 80%, 65%)" />
<circle cx="222" cy="168" r="3" fill="hsl(45, 80%, 65%)" />
<circle cx="236" cy="76" r="3" fill="hsl(54, 80%, 65%)" />
<circle cx="288" cy="307" r="3" fill="hsl(63, 80%, 65%)" />
<circle cx="174" cy="77" r="7" fill="hsl(72, 80%, 65%)" />
<circle cx="98" cy="384" r="3" fill="hsl(81, 80%, 65%)" />
<circle cx="97" cy="374" r="7" fill="hsl(90, 80%, 65%)" />
<circle cx="325" cy="432" r="4" fill="hsl(99, 80%, 65%)" />
<circle cx="134" cy="125" r="4" fill="hsl(108, 80%, 65%)" />
<circle cx="385" cy="238" r="5" fill="hsl(117, 80%, 65%)" />
<circle cx="416" cy="316" r="4" fill="hsl(126, 80%, 65%)" />
<circle cx="406" cy="262" r="4" fill="hsl(135, 80%, 65%)" />
<circle cx="294" cy="355" r="3" fill="hsl(144, 80%, 65%)" />
<circle cx="136" cy="93" r="2" fill="hsl(153, 80%, 65%)" />
<circle cx="235" cy="81" r="2" fill="hsl(162, 80%, 65%)" />
<circle cx="179" cy="213" r="8" fill="hsl(171, 80%, 65%)" />
<circle cx="74" cy="410" r="6" fill="hsl(180, 80%, 65%)" />
<circle cx="404" cy="212" r="7" fill="hsl(189, 80%, 65%)" />
<circle cx="101" cy="420" r="7" fill="hsl(198, 80%, 65%)" />
<circle cx="159" cy="154" r="2" fill="hsl(207, 80%, 65%)" />
<circle cx="406" cy="117" r="7" fill="hsl(216, 80%, 65%)" />
<circle cx="236" cy="171" r="8" fill="hsl(225, 80%, 65%)" />
<circle cx="126" cy="332" r="8" fill="hsl(234, 80%, 65%)" />
<circle cx="342" cy="294" r="5" fill="hsl(243, 80%, 65%)" />
<circle cx="404" cy="111" r="6" fill="hsl(252, 80%, 65%)" />
<circle cx="312" cy="254" r="8" fill="hsl(261, 80%, 65%)" />
<circle cx="339" cy="207" r="5" fill="hsl(270, 80%, 65%)" />
<circle cx="370" cy="113" r="2" fill="hsl(279, 80%, 65%)" />
<circle cx="131" cy="161" r="2" fill="hsl(288, 80%, 65%)" />
<circle cx="112" cy="147" r="6" fill="hsl(297, 80%, 65%)" />
<circle cx="210" cy="244" r="7" fill="hsl(306, 80%, 65%)" />
<circle cx="345" cy="330" r="4" fill="hsl(315, 80%, 65%)" />
<circle cx="80" cy="367" r="2" fill="hsl(324, 80%, 65%)" />
<circle cx="70" cy="128" r="2" fill="hsl(333, 80%, 65%)" />
<circle cx="360" cy="128" r="3" fill="hsl(342, 80%, 65%)" />
<circle cx="189" cy="160" r="3" fill="hsl(351, 80%, 65%)" />
<circle cx="411" cy="403" r="6" fill="hsl(0, 80%, 65%)" />
<circle cx="152" cy="325" r="8" fill="hsl(9, 80%, 65%)" />
<circle cx="243" cy="434" r="6" fill="hsl(18, 80%, 65%)" />
<circle cx="226" cy="109" r="7" fill="hsl(27, 80%, 65%)" />
<circle cx="299" cy="263" r="7" fill="hsl(36, 80%, 65%)" />
<circle cx="342" cy="172" r="3" fill="hsl(45, 80%, 65%)" />
<circle cx="105" cy="212" r="6" fill="hsl(54, 80%, 65%)" />
<circle cx="173" cy="217" r="6" fill="hsl(63, 80%, 65%)" />
<circle cx="162" cy="135" r="8" fill="hsl(72, 80%, 65%)" />
<circle cx="437" cy="376" r="8" fill="hsl(81, 80%, 65%)" />
<circle cx="310" cy="141" r="2" fill="hsl(90, 80%, 65%)" />
<circle cx="184" cy="311" r="5" fill="hsl(99, 80%, 65%)" />
<circle cx="357" cy="187" r="2" fill="hsl(108, 80%, 65%)" />
<circle cx="274" cy="180" r="8" fill="hsl(117, 80%, 65%)" />
<circle cx="378" cy="78" r="2" fill="hsl(126, 80%, 65%)" />
<circle cx="430" cy="76" r="7" fill="hsl(135, 80%, 65%)" />
<circle cx="286" cy="162" r="4" fill="hsl(144, 80%, 65%)" />
<circle cx="299" cy="413" r="7" fill="hsl(153, 80%, 65%)" />
<circle cx="281" cy="437" r="3" fill="hsl(162, 80%, 65%)" />
<circle cx="230" cy="78" r="3" fill="hsl(171, 80%, 65%)" />
<circle cx="218" cy="414" r="5" fill="hsl(180, 80%, 65%)" />
<circle cx="100" cy="135" r="7" fill="hsl(189, 80%, 65%)" />
<circle cx="413" cy="420" r="6" fill="hsl(198, 80%, 65%)" />
<circle cx="182" cy="353" r="5" fill="hsl(207, 80%, 65%)" />
<circle cx="282" cy="275" r="4" fill="hsl(216, 80%, 65%)" />
<circle cx="205" cy="122" r="4" fill="hsl(225, 80%, 65%)" />
<circle cx="391" cy="134" r="6" fill="hsl(234, 80%, 65%)" />
<circle cx="384" cy="379" r="5" fill="hsl(243, 80%, 65%)" />
<circle cx="91" cy="411" r="6" fill="hsl(252, 80%, 65%)" />
<circle cx="91" cy="434" r="5" fill="hsl(261, 80%, 65%)" />
<circle cx="336" cy="228" r="3" fill="hsl(270, 80%, 65%)" />
<circle cx="382" cy="86" r="7" fill="hsl(279, 80%, 65%)" />
<circle cx="160" cy="81" r="5" fill="hsl(288, 80%, 65%)" />
<circle cx="207" cy="178" r="2" fill="hsl(297, 80%, 65%)" />
<circle cx="383" cy="86" r="5" fill="hsl(306, 80%, 65%)" />
<circle cx="107" cy="348" r="2" fill="hsl(315, 80%, 65%)" />
<circle cx="102" cy="167" r="5" fill="hsl(324, 80%, 65%)" />
<circle cx="156" cy="164" r="6" fill="hsl(333, 80%, 65%)" />
<circle cx="410" cy="142" r="3" fill="hsl(342, 80%, 65%)" />
<circle cx="298" cy="397" r="6" fill="hsl(351, 80%, 65%)" />
<circle cx="279" cy="87" r="2" fill="hsl(0, 80%, 65%)" />
<circle cx="387" cy="336" r="3" fill="hsl(9, 80%, 65%)" />
<circle cx="375" cy="188" r="2" fill="hsl(18, 80%, 65%)" />
<circle cx="268" cy="71" r="5" fill="hsl(27, 80%, 65%)" />
<circle cx="193" cy="426" r="4" fill="hsl(36, 80%, 65%)" />
<circle cx="382" cy="436" r="6" fill="hsl(45, 80%, 65%)" />
<circle cx="333" cy="360" r="6" fill="hsl(54, 80%, 65%)" />
<circle cx="95" cy="426" r="7" fill="hsl(63, 80%, 65%)" />
<circle cx="120" cy="181" r="7" fill="hsl(72, 80%, 65%)" />
<circle cx="347" cy="386" r="7" fill="hsl(81, 80%, 65%)" />
<circle cx="174" cy="431" r="3" fill="hsl(90, 80%, 65%)" />
<circle cx="134" cy="81" r="2" fill="hsl(99, 80%, 65%)" />
<circle cx="189" cy="367" r="8" fill="hsl(108, 80%, 65%)" />
<circle cx="91" cy="200" r="4" fill="hsl(117, 80%, 65%)" />
<circle cx="416" cy="122" r="2" fill="hsl(126, 80%, 65%)" />
<circle cx="243" cy="285" r="3" fill="hsl(135, 80%, 65%)" />
<circle cx="136" cy="355" r="8" fill="hsl(144, 80%, 65%)" />
<circle cx="147" cy="260" r="2" fill="hsl(153, 80%, 65%)" />
<circle cx="422" cy="141" r="8" fill="hsl(162, 80%, 65%)" />
<circle cx="213" cy="419" r="2" fill="hsl(171, 80%, 65%)" />
<circle cx="126" cy="214" r="7" fill="hsl(180, 80%, 65%)" />
<circle cx="89" cy="346" r="8" fill="hsl(189, 80%, 65%)" />
<circle cx="72" cy="231" r="2" fill="hsl(198, 80%, 65%)" />
<circle cx="325" cy="371" r="2" fill="hsl(207, 80%, 65%)" />
<circle cx="154" cy="411" r="8" fill="hsl(216, 80%, 65%)" />
<circle cx="320" cy="109" r="4" fill="hsl(225, 80%, 65%)" />
<circle cx="118" cy="176" r="8" fill="hsl(234, 80%, 65%)" />
<circle cx="236" cy="426" r="5" fill="hsl(243, 80%, 65%)" />
<circle cx="83" cy="84" r="4" fill="hsl(252, 80%, 65%)" />
<circle cx="142" cy="247" r="3" fill="hsl(261, 80%, 65%)" />
<circle cx="140" cy="260" r="7" fill="hsl(270, 80%, 65%)" />
<circle cx="240" cy="323" r="6" fill="hsl(279, 80%, 65%)" />
<circle cx="146" cy="105" r="3" fill="hsl(288, 80%, 65%)" />
<circle cx="284" cy="297" r="8" fill="hsl(297, 80%, 65%)" />
<circle cx="275" cy="120" r="3" fill="hsl(306, 80%, 65%)" />
<circle cx="191" cy="275" r="2" fill="hsl(315, 80%, 65%)" />
<circle cx="402" cy="86" r="8" fill="hsl(324, 80%, 65%)" />
<circle cx="115" cy="368" r="2" fill="hsl(333, 80%, 65%)" />
<circle cx="185" cy="140" r="8" fill="hsl(342, 80%, 65%)" />
<circle cx="384" cy="336" r="8" fill="hsl(351, 80%, 65%)" />
<circle cx="424" cy="233" r="5" fill="hsl(0, 80%, 65%)" />
<circle cx="248" cy="267" r="6" fill="hsl(9, 80%, 65%)" />
<circle cx="369" cy="84" r="8" fill="hsl(18, 80%, 65%)" />
<circle cx="402" cy="295" r="5" fill="hsl(27, 80%, 65%)" />
<circle cx="361" cy="204" r="5" fill="hsl(36, 80%, 65%)" />
<circle cx="208" cy="147" r="3" fill="hsl(45, 80%, 65%)" />
<circle cx="186" cy="373" r="4" fill="hsl(54, 80%, 65%)" />
<circle cx="428" cy="247" r="5" fill="hsl(63, 80%, 65%)" />
<circle cx="204" cy="392" r="6" fill="hsl(72, 80%, 65%)" />
<circle cx="311" cy="435" r="7" fill="hsl(81, 80%, 65%)" />
<circle cx="329" cy="206" r="4" fill="hsl(90, 80%, 65%)" />
<circle cx="244" cy="335" r="5" fill="hsl(99, 80%, 65%)" />
<circle cx="227" cy="295" r="8" fill="hsl(108, 80%, 65%)" />
<circle cx="286" cy="184" r="6" fill="hsl(117, 80%, 65%)" />
<circle cx="211" cy="385" r="3" fill="hsl(126, 80%, 65%)" />
<circle cx="179" cy="107" r="6" fill="hsl(135, 80%, 65%)" />
<circle cx="277" cy="166" r="4" fill="hsl(144, 80%, 65%)" />
<circle cx="146" cy="196" r="2" fill="hsl(153, 80%, 65%)" />
<circle cx="122" cy="326" r="4" fill="hsl(162, 80%, 65%)" />
<circle cx="373" cy="244" r="2" fill="hsl(171, 80%, 65%)" />
<line x1="395" y1="346" x2="343" y2="384" stroke="#223344" stroke-width="1"/>
<line x1="241" y1="188" x2="191" y2="227" stroke="#223344" stroke-width="1"/>
<line x1="413" y1="67" x2="377" y2="92" stroke="#223344" stroke-width="1"/>
<line x1="365" y1="291" x2="386" y2="334" stroke="#223344" stroke-width="1"/>
<line x1="325" y1="69" x2="400" y2="141" stroke="#223344" stroke-width="1"/>
<line x1="148" y1="376" x2="127" y2="373" stroke="#223344" stroke-width="1"/>
<line x1="172" y1="389" x2="177" y2="379" stroke="#223344" stroke-width="1"/>
<line x1="197" y1="62" x2="229" y2="80" stroke="#223344" stroke-width="1"/>
<line x1="430" y1="81" x2="483" y2="88" stroke="#223344" stroke-width="1"/>
<line x1="226" y1="143" x2="175" y2="184" stroke="#223344" stroke-width="1"/>
<line x1="320" y1="78" x2="382" y2="115" stroke="#223344" stroke-width="1"/>
<line x1="338" y1="193" x2="384" y2="124" stroke="#223344" stroke-width="1"/>
<line x1="71" y1="69" x2="61" y2="-5" stroke="#223344" stroke-width="1"/>
<line x1="267" y1="272" x2="233" y2="282" stroke="#223344" stroke-width="1"/>
<line x1="298" y1="172" x2="311" y2="99" stroke="#223344" stroke-width="1"/>
<line x1="155" y1="87" x2="172" y2="134" stroke="#223344" stroke-width="1"/>
<line x1="229" y1="316" x2="263" y2="255" stroke="#223344" stroke-width="1"/>
<line x1="409" y1="105" x2="410" y2="91" stroke="#223344" stroke-width="1"/>
<line x1="396" y1="199" x2="443" y2="278" stroke="#223344" stroke-width="1"/>
<line x1="389" y1="76" x2="448" y2="125" stroke="#223344" stroke-width="1"/>
<line x1="244" y1="88" x2="205" y2="75" stroke="#223344" stroke-width="1"/>
<line x1="183" y1="444" x2="121" y2="465" stroke="#223344" stroke-width="1"/>
<line x1="366" y1="373" x2="290" y2="440" stroke="#223344" stroke-width="1"/>
<line x1="438" y1="105" x2="454" y2="151" stroke="#223344" stroke-width="1"/>
</svg>
