<svg xmlns="http://www.w3.org/2000/svg" width="512" height="512" viewBox="0 0 512 512">
<rect width="100%" height="100%" fill="#0b1020"/>
<circle cx="341" cy="119" r="52" fill="#f8f3c9" opacity="0.95" />
<circle cx="430.0" cy="128.0" r="1.6" fill="white" />
<circle cx="437.0" cy="162.0" r="1.8" fill="white" />
<circle cx="265.0" cy="130.0" r="2.0" fill="white" />
<circle cx="153.0" cy="25.0" r="1.5" fill="white" />
<circle cx="170.0" cy="22.0" r="2.1" fill="white" />
<circle cx="429.0" cy="117.0" r="2.7" fill="white" />
<circle cx="331.0" cy="153.0" r="3.4" fill="white" />
<circle cx="320.0" cy="88.0" r="3.2" fill="white" />
<circle cx="118.0" cy="104.0" r="3.0" fill="white" />
<path d="M 20 430 C 139 418, 184 442, 298 420 S 450 401, 512 431" stroke="#5dade2" stroke-width="5" fill="none" opacity="0.85" />
<line x1="0" y1="399" x2="512" y2="399" stroke="#445566" stroke-width="4" />
<polygon points="217,350 257,290 297,310 317,280 337,300 349,340 317,362 267,366" fill="#1e1e1e" />
<polygon points="292,290 305,268 315,292" fill="#1e1e1e" />
<line x1="347" y1="335" x2="377" y2="310" stroke="#1e1e1e" stroke-width="6" />
</svg>
