<svg xmlns="http://www.w3.org/2000/svg" width="512" height="512" viewBox="0 0 512 512">
<rect width="100%" height="100%" fill="#0b1020"/>
<circle cx="429" cy="83" r="43" fill="#f8f3c9" opacity="0.95" />
<circle cx="478.0" cy="49.0" r="3.4" fill="white" />
<circle cx="207.0" cy="93.0" r="3.1" fill="white" />
<circle cx="475.0" cy="89.0" r="2.0" fill="white" />
<circle cx="29.0" cy="87.0" r="2.9" fill="white" />
<circle cx="239.0" cy="99.0" r="2.4" fill="white" />
<circle cx="488.0" cy="44.0" r="2.3" fill="white" />
<circle cx="126.0" cy="121.0" r="2.3" fill="white" />
<circle cx="276.0" cy="118.0" r="2.8" fill="white" />
<circle cx="479.0" cy="167.0" r="2.6" fill="white" />
<circle cx="373.0" cy="59.0" r="3.4" fill="white" />
<circle cx="66.0" cy="164.0" r="1.8" fill="white" />
<path d="M 20 430 C 126 422, 180 446, 300 422 S 450 399, 512 429" stroke="#5dade2" stroke-width="7" fill="none" opacity="0.85" />
<line x1="0" y1="401" x2="512" y2="401" stroke="#445566" stroke-width="2" />
<polygon points="142,359 182,299 222,319 242,289 262,309 274,349 242,371 192,375" fill="#1e1e1e" />
<polygon points="217,299 230,277 240,301" fill="#1e1e1e" />
<line x1="272" y1="344" x2="302" y2="319" stroke="#1e1e1e" stroke-width="6" />
</svg>
