<svg xmlns="http://www.w3.org/2000/svg" width="512" height="512" viewBox="0 0 512 512">
<rect width="100%" height="100%" fill="#0b1020"/>
<circle cx="360" cy="97" r="54" fill="#f8f3c9" opacity="0.95" />
<circle cx="357.0" cy="83.0" r="3.2" fill="white" />
<circle cx="467.0" cy="21.0" r="1.6" fill="white" />
<circle cx="211.0" cy="123.0" r="2.3" fill="white" />
<circle cx="92.0" cy="48.0" r="2.6" fill="white" />
<circle cx="396.0" cy="159.0" r="1.6" fill="white" />
<circle cx="366.0" cy="83.0" r="2.3" fill="white" />
<circle cx="371.0" cy="64.0" r="2.3" fill="white" />
<circle cx="91.0" cy="21.0" r="3.3" fill="white" />
<circle cx="94.0" cy="103.0" r="2.0" fill="white" />
<circle cx="195.0" cy="41.0" r="3.1" fill="white" />
<circle cx="475.0" cy="96.0" r="3.1" fill="white" />
<circle cx="257.0" cy="154.0" r="2.0" fill="white" />
<path d="M 20 430 C 126 417, 183 442, 312 432 S 450 389, 512 419" stroke="#5dade2" stroke-width="5" fill="none" opacity="0.85" />
<line x1="0" y1="396" x2="512" y2="396" stroke="#445566" stroke-width="4" />
<polygon points="160,355 200,295 240,315 260,285 280,305 292,345 260,367 210,371" fill="#1e1e1e" />
<polygon points="235,295 248,273 258,297" fill="#1e1e1e" />
<line x1="290" y1="340" x2="320" y2="315" stroke="#1e1e1e" stroke-width="6" />
</svg>
