<svg xmlns="http://www.w3.org/2000/svg" width="512" height="512" viewBox="0 0 512 512">
<rect width="100%" height="100%" fill="black"/>
<circle cx="256.00" cy="256.00" r="2" fill="hsl(0, 80%, 65%)" />
<circle cx="250.78" cy="260.78" r="3" fill="hsl(9, 80%, 65%)" />
<circle cx="256.87" cy="246.04" r="4" fill="hsl(18, 80%, 65%)" />
<circle cx="263.45" cy="265.72" r="5" fill="hsl(27, 80%, 65%)" />
<circle cx="242.07" cy="253.54" r="6" fill="hsl(36, 80%, 65%)" />
<circle cx="269.34" cy="247.51" r="2" fill="hsl(45, 80%, 65%)" />
<circle cx="251.50" cy="272.73" r="3" fill="hsl(54, 80%, 65%)" />
<circle cx="247.38" cy="239.39" r="4" fill="hsl(63, 80%, 65%)" />
<circle cx="274.79" cy="262.86" r="5" fill="hsl(72, 80%, 65%)" />
<circle cx="236.39" cy="264.10" r="6" fill="hsl(81, 80%, 65%)" />
<circle cx="265.48" cy="235.74" r="2" fill="hsl(90, 80%, 65%)" />
<circle cx="263.02" cy="278.38" r="3" fill="hsl(99, 80%, 65%)" />
<circle cx="234.80" cy="243.72" r="4" fill="hsl(108, 80%, 65%)" />
<circle cx="280.91" cy="250.52" r="5" fill="hsl(117, 80%, 65%)" />
<circle cx="240.78" cy="277.65" r="6" fill="hsl(126, 80%, 65%)" />
<circle cx="252.48" cy="228.84" r="2" fill="hsl(135, 80%, 65%)" />
<circle cx="277.63" cy="274.23" r="3" fill="hsl(144, 80%, 65%)" />
<circle cx="226.86" cy="257.20" r="4" fill="hsl(153, 80%, 65%)" />
<circle cx="277.27" cy="234.83" r="5" fill="hsl(162, 80%, 65%)" />
<circle cx="254.58" cy="286.80" r="6" fill="hsl(171, 80%, 65%)" />
<circle cx="235.73" cy="231.72" r="2" fill="hsl(180, 80%, 65%)" />
<circle cx="288.12" cy="260.32" r="3" fill="hsl(189, 80%, 65%)" />
<circle cx="228.77" cy="274.95" r="4" fill="hsl(198, 80%, 65%)" />
<circle cx="263.44" cy="222.91" r="5" fill="hsl(207, 80%, 65%)" />
<circle cx="273.23" cy="286.06" r="6" fill="hsl(216, 80%, 65%)" />
<circle cx="222.31" cy="245.25" r="2" fill="hsl(225, 80%, 65%)" />
<circle cx="288.74" cy="240.87" r="3" fill="hsl(234, 80%, 65%)" />
<circle cx="241.81" cy="289.90" r="4" fill="hsl(243, 80%, 65%)" />
<circle cx="243.33" cy="220.78" r="5" fill="hsl(252, 80%, 65%)" />
<circle cx="289.71" cy="273.72" r="6" fill="hsl(261, 80%, 65%)" />
<circle cx="218.54" cy="265.87" r="2" fill="hsl(270, 80%, 65%)" />
<circle cx="277.30" cy="222.88" r="3" fill="hsl(279, 80%, 65%)" />
<circle cx="262.78" cy="295.43" r="4" fill="hsl(288, 80%, 65%)" />
<circle cx="223.88" cy="231.12" r="5" fill="hsl(297, 80%, 65%)" />
<circle cx="297.10" cy="252.60" r="6" fill="hsl(306, 80%, 65%)" />
<circle cx="227.59" cy="286.71" r="2" fill="hsl(315, 80%, 65%)" />
<circle cx="256.21" cy="213.57" r="3" fill="hsl(324, 80%, 65%)" />
<circle cx="284.90" cy="287.86" r="4" fill="hsl(333, 80%, 65%)" />
<circle cx="212.59" cy="251.98" r="5" fill="hsl(342, 80%, 65%)" />
<circle cx="291.18" cy="229.30" r="6" fill="hsl(351, 80%, 65%)" />
<circle cx="247.99" cy="300.01" r="2" fill="hsl(0, 80%, 65%)" />
<circle cx="231.88" cy="217.67" r="3" fill="hsl(9, 80%, 65%)" />
<circle cx="300.21" cy="268.11" r="4" fill="hsl(18, 80%, 65%)" />
<circle cx="214.74" cy="277.17" r="5" fill="hsl(27, 80%, 65%)" />
<circle cx="272.31" cy="212.01" r="6" fill="hsl(36, 80%, 65%)" />
<circle cx="273.89" cy="299.94" r="2" fill="hsl(45, 80%, 65%)" />
<circle cx="212.65" cy="235.46" r="3" fill="hsl(54, 80%, 65%)" />
<circle cx="302.33" cy="241.71" r="4" fill="hsl(63, 80%, 65%)" />
<circle cx="231.22" cy="298.27" r="5" fill="hsl(72, 80%, 65%)" />
<circle cx="245.61" cy="207.60" r="6" fill="hsl(81, 80%, 65%)" />
<circle cx="296.77" cy="284.96" r="2" fill="hsl(90, 80%, 65%)" />
<circle cx="205.88" cy="262.25" r="3" fill="hsl(99, 80%, 65%)" />
<circle cx="289.06" cy="217.16" r="4" fill="hsl(108, 80%, 65%)" />
<circle cx="257.88" cy="307.45" r="5" fill="hsl(117, 80%, 65%)" />
<circle cx="219.52" cy="218.98" r="6" fill="hsl(126, 80%, 65%)" />
<circle cx="308.38" cy="258.68" r="2" fill="hsl(135, 80%, 65%)" />
<circle cx="215.20" cy="289.71" r="3" fill="hsl(144, 80%, 65%)" />
<circle cx="263.38" cy="203.12" r="4" fill="hsl(153, 80%, 65%)" />
<circle cx="286.55" cy="300.36" r="5" fill="hsl(162, 80%, 65%)" />
<circle cx="203.06" cy="243.82" r="6" fill="hsl(171, 80%, 65%)" />
<circle cx="303.66" cy="228.99" r="2" fill="hsl(180, 80%, 65%)" />
<circle cx="238.95" cy="308.54" r="3" fill="hsl(189, 80%, 65%)" />
<circle cx="232.89" cy="205.33" r="4" fill="hsl(198, 80%, 65%)" />
<circle cx="307.68" cy="277.92" r="5" fill="hsl(207, 80%, 65%)" />
<circle cx="202.67" cy="274.89" r="6" fill="hsl(216, 80%, 65%)" />
<circle cx="282.77" cy="205.66" r="2" fill="hsl(225, 80%, 65%)" />
<circle cx="270.37" cy="311.63" r="3" fill="hsl(234, 80%, 65%)" />
<circle cx="207.46" cy="224.45" r="4" fill="hsl(243, 80%, 65%)" />
<circle cx="313.53" cy="246.40" r="5" fill="hsl(252, 80%, 65%)" />
<circle cx="219.80" cy="302.27" r="6" fill="hsl(261, 80%, 65%)" />
<circle cx="251.40" cy="197.01" r="2" fill="hsl(270, 80%, 65%)" />
<circle cx="299.55" cy="296.68" r="3" fill="hsl(279, 80%, 65%)" />
<circle cx="195.99" cy="255.41" r="4" fill="hsl(288, 80%, 65%)" />
<circle cx="300.95" cy="215.62" r="5" fill="hsl(297, 80%, 65%)" />
<circle cx="250.09" cy="316.55" r="6" fill="hsl(306, 80%, 65%)" />
<circle cx="219.21" cy="207.03" r="2" fill="hsl(315, 80%, 65%)" />
<circle cx="316.61" cy="267.33" r="3" fill="hsl(324, 80%, 65%)" />
<circle cx="203.31" cy="288.80" r="4" fill="hsl(333, 80%, 65%)" />
<circle cx="272.80" cy="195.84" r="5" fill="hsl(342, 80%, 65%)" />
<circle cx="284.43" cy="312.07" r="6" fill="hsl(351, 80%, 65%)" />
<circle cx="196.79" cy="233.72" r="2" fill="hsl(0, 80%, 65%)" />
<circle cx="315.07" cy="232.29" r="3" fill="hsl(9, 80%, 65%)" />
<circle cx="228.29" cy="313.74" r="4" fill="hsl(18, 80%, 65%)" />
<circle cx="237.32" cy="194.33" r="5" fill="hsl(27, 80%, 65%)" />
<circle cx="311.76" cy="289.05" r="6" fill="hsl(36, 80%, 65%)" />
<circle cx="192.18" cy="269.38" r="2" fill="hsl(45, 80%, 65%)" />
<circle cx="294.24" cy="202.72" r="3" fill="hsl(54, 80%, 65%)" />
<circle cx="263.84" cy="321.50" r="4" fill="hsl(63, 80%, 65%)" />
<circle cx="205.69" cy="212.75" r="5" fill="hsl(72, 80%, 65%)" />
<circle cx="322.69" cy="253.89" r="6" fill="hsl(81, 80%, 65%)" />
<circle cx="207.98" cy="302.86" r="2" fill="hsl(90, 80%, 65%)" />
<circle cx="259.77" cy="188.64" r="3" fill="hsl(99, 80%, 65%)" />
<circle cx="298.95" cy="308.51" r="4" fill="hsl(108, 80%, 65%)" />
<circle cx="188.50" cy="246.25" r="5" fill="hsl(117, 80%, 65%)" />
<circle cx="312.67" cy="217.39" r="6" fill="hsl(126, 80%, 65%)" />
<circle cx="240.21" cy="323.10" r="2" fill="hsl(135, 80%, 65%)" />
<circle cx="222.14" cy="195.54" r="3" fill="hsl(144, 80%, 65%)" />
<circle cx="322.15" cy="277.82" r="4" fill="hsl(153, 80%, 65%)" />
<circle cx="192.16" cy="284.74" r="5" fill="hsl(162, 80%, 65%)" />
<circle cx="283.80" cy="191.35" r="6" fill="hsl(171, 80%, 65%)" />
<circle cx="279.29" cy="322.78" r="2" fill="hsl(180, 80%, 65%)" />
<circle cx="193.41" cy="222.32" r="3" fill="hsl(189, 80%, 65%)" />
<circle cx="325.24" cy="238.47" r="4" fill="hsl(198, 80%, 65%)" />
<circle cx="216.59" cy="315.99" r="5" fill="hsl(207, 80%, 65%)" />
<circle cx="244.48" cy="184.80" r="6" fill="hsl(216, 80%, 65%)" />
<circle cx="312.86" cy="300.93" r="2" fill="hsl(225, 80%, 65%)" />
<circle cx="183.38" cy="261.30" r="3" fill="hsl(234, 80%, 65%)" />
<circle cx="306.20" cy="202.78" r="4" fill="hsl(243, 80%, 65%)" />
<circle cx="254.92" cy="329.49" r="5" fill="hsl(252, 80%, 65%)" />
<circle cx="206.92" cy="200.83" r="6" fill="hsl(261, 80%, 65%)" />
<circle cx="329.79" cy="263.57" r="2" fill="hsl(270, 80%, 65%)" />
<circle cx="196.21" cy="300.47" r="3" fill="hsl(279, 80%, 65%)" />
<circle cx="270.11" cy="182.49" r="4" fill="hsl(288, 80%, 65%)" />
<circle cx="295.42" cy="320.02" r="5" fill="hsl(297, 80%, 65%)" />
<circle cx="183.37" cy="235.33" r="6" fill="hsl(306, 80%, 65%)" />
<circle cx="323.81" cy="222.03" r="2" fill="hsl(315, 80%, 65%)" />
<circle cx="228.83" cy="327.16" r="3" fill="hsl(324, 80%, 65%)" />
<circle cx="227.85" cy="184.87" r="4" fill="hsl(333, 80%, 65%)" />
<circle cx="325.10" cy="289.58" r="5" fill="hsl(342, 80%, 65%)" />
<circle cx="182.05" cy="278.01" r="6" fill="hsl(351, 80%, 65%)" />
<circle cx="295.82" cy="189.54" r="2" fill="hsl(0, 80%, 65%)" />
<circle cx="271.59" cy="332.22" r="3" fill="hsl(9, 80%, 65%)" />
<circle cx="192.76" cy="210.14" r="4" fill="hsl(18, 80%, 65%)" />
<circle cx="333.93" cy="247.06" r="5" fill="hsl(27, 80%, 65%)" />
<circle cx="204.37" cy="315.47" r="6" fill="hsl(36, 80%, 65%)" />
<circle cx="253.89" cy="176.96" r="2" fill="hsl(45, 80%, 65%)" />
<circle cx="311.17" cy="313.09" r="3" fill="hsl(54, 80%, 65%)" />
<circle cx="176.44" cy="251.15" r="4" fill="hsl(63, 80%, 65%)" />
<circle cx="318.18" cy="205.64" r="5" fill="hsl(72, 80%, 65%)" />
<circle cx="244.12" cy="335.45" r="6" fill="hsl(81, 80%, 65%)" />
<circle cx="210.92" cy="189.14" r="2" fill="hsl(90, 80%, 65%)" />
<circle cx="334.71" cy="274.92" r="3" fill="hsl(99, 80%, 65%)" />
<circle cx="184.91" cy="295.36" r="4" fill="hsl(108, 80%, 65%)" />
<circle cx="281.92" cy="178.67" r="5" fill="hsl(117, 80%, 65%)" />
<circle cx="289.25" cy="330.82" r="6" fill="hsl(126, 80%, 65%)" />
<circle cx="180.67" cy="223.17" r="2" fill="hsl(135, 80%, 65%)" />
<circle cx="334.01" cy="229.22" r="3" fill="hsl(144, 80%, 65%)" />
<circle cx="216.42" cy="328.71" r="4" fill="hsl(153, 80%, 65%)" />
<circle cx="236.00" cy="175.36" r="5" fill="hsl(162, 80%, 65%)" />
<circle cx="325.47" cy="302.12" r="6" fill="hsl(171, 80%, 65%)" />
<circle cx="173.33" cy="268.97" r="2" fill="hsl(180, 80%, 65%)" />
<circle cx="308.39" cy="190.36" r="3" fill="hsl(189, 80%, 65%)" />
<circle cx="261.73" cy="340.08" r="4" fill="hsl(198, 80%, 65%)" />
<circle cx="194.76" cy="197.66" r="5" fill="hsl(207, 80%, 65%)" />
<circle cx="340.85" cy="257.66" r="6" fill="hsl(216, 80%, 65%)" />
<circle cx="192.09" cy="312.29" r="2" fill="hsl(225, 80%, 65%)" />
<circle cx="265.13" cy="171.03" r="3" fill="hsl(234, 80%, 65%)" />
<circle cx="306.84" cy="325.06" r="4" fill="hsl(243, 80%, 65%)" />
<circle cx="171.58" cy="239.36" r="5" fill="hsl(252, 80%, 65%)" />
<circle cx="329.73" cy="211.09" r="6" fill="hsl(261, 80%, 65%)" />
<circle cx="231.89" cy="339.20" r="2" fill="hsl(270, 80%, 65%)" />
<circle cx="217.46" cy="178.11" r="3" fill="hsl(279, 80%, 65%)" />
<circle cx="337.31" cy="287.50" r="4" fill="hsl(288, 80%, 65%)" />
<circle cx="174.50" cy="287.80" r="5" fill="hsl(297, 80%, 65%)" />
<circle cx="294.74" cy="177.25" r="6" fill="hsl(306, 80%, 65%)" />
<circle cx="280.71" cy="340.51" r="2" fill="hsl(315, 80%, 65%)" />
<circle cx="180.45" cy="210.23" r="3" fill="hsl(324, 80%, 65%)" />
<circle cx="342.91" cy="238.66" r="4" fill="hsl(333, 80%, 65%)" />
<circle cx="203.46" cy="327.71" r="5" fill="hsl(342, 80%, 65%)" />
<circle cx="246.27" cy="167.35" r="6" fill="hsl(351, 80%, 65%)" />
<circle cx="323.27" cy="314.98" r="2" fill="hsl(0, 80%, 65%)" />
<circle cx="166.28" cy="257.96" r="3" fill="hsl(9, 80%, 65%)" />
<circle cx="321.03" cy="193.76" r="4" fill="hsl(18, 80%, 65%)" />
<circle cx="250.07" cy="346.10" r="5" fill="hsl(27, 80%, 65%)" />
<circle cx="199.34" cy="185.34" r="6" fill="hsl(36, 80%, 65%)" />
<circle cx="345.78" cy="269.87" r="2" fill="hsl(45, 80%, 65%)" />
<circle cx="180.20" cy="306.57" r="3" fill="hsl(54, 80%, 65%)" />
<circle cx="277.80" cy="167.24" r="4" fill="hsl(63, 80%, 65%)" />
<circle cx="300.02" cy="336.41" r="5" fill="hsl(72, 80%, 65%)" />
<circle cx="168.97" cy="226.35" r="6" fill="hsl(81, 80%, 65%)" />
<circle cx="340.45" cy="218.96" r="2" fill="hsl(90, 80%, 65%)" />
<circle cx="218.64" cy="340.60" r="3" fill="hsl(99, 80%, 65%)" />
<circle cx="226.32" cy="168.12" r="4" fill="hsl(108, 80%, 65%)" />
<circle cx="337.48" cy="300.88" r="5" fill="hsl(117, 80%, 65%)" />
<circle cx="165.34" cy="278.01" r="6" fill="hsl(126, 80%, 65%)" />
<circle cx="308.13" cy="178.31" r="2" fill="hsl(135, 80%, 65%)" />
<circle cx="270.08" cy="348.76" r="3" fill="hsl(144, 80%, 65%)" />
<circle cx="182.75" cy="196.95" r="4" fill="hsl(153, 80%, 65%)" />
<circle cx="350.17" cy="250.05" r="5" fill="hsl(162, 80%, 65%)" />
<circle cx="190.40" cy="324.19" r="6" fill="hsl(171, 80%, 65%)" />
<circle cx="258.31" cy="161.14" r="2" fill="hsl(180, 80%, 65%)" />
<circle cx="318.54" cy="327.71" r="3" fill="hsl(189, 80%, 65%)" />
<circle cx="161.18" cy="245.34" r="4" fill="hsl(198, 80%, 65%)" />
<circle cx="333.32" cy="199.66" r="5" fill="hsl(207, 80%, 65%)" />
<circle cx="236.99" cy="350.03" r="6" fill="hsl(216, 80%, 65%)" />
<circle cx="206.36" cy="173.60" r="2" fill="hsl(225, 80%, 65%)" />
<circle cx="348.51" cy="283.30" r="3" fill="hsl(234, 80%, 65%)" />
<circle cx="169.11" cy="298.47" r="4" fill="hsl(243, 80%, 65%)" />
<circle cx="291.48" cy="165.75" r="5" fill="hsl(252, 80%, 65%)" />
<circle cx="290.90" cy="346.75" r="6" fill="hsl(261, 80%, 65%)" />
<circle cx="168.74" cy="212.54" r="2" fill="hsl(270, 80%, 65%)" />
<circle cx="349.95" cy="229.03" r="3" fill="hsl(279, 80%, 65%)" />
<circle cx="204.81" cy="339.57" r="4" fill="hsl(288, 80%, 65%)" />
<circle cx="237.25" cy="159.55" r="5" fill="hsl(297, 80%, 65%)" />
<circle cx="335.18" cy="314.60" r="6" fill="hsl(306, 80%, 65%)" />
<circle cx="157.78" cy="266.30" r="2" fill="hsl(315, 80%, 65%)" />
<circle cx="321.64" cy="181.87" r="3" fill="hsl(324, 80%, 65%)" />
<circle cx="257.68" cy="355.25" r="4" fill="hsl(333, 80%, 65%)" />
<circle cx="187.54" cy="183.77" r="5" fill="hsl(342, 80%, 65%)" />
<circle cx="355.52" cy="263.04" r="6" fill="hsl(351, 80%, 65%)" />
<circle cx="177.67" cy="318.19" r="2" fill="hsl(0, 80%, 65%)" />
<circle cx="271.79" cy="156.98" r="3" fill="hsl(9, 80%, 65%)" />
<circle cx="311.38" cy="339.89" r="4" fill="hsl(18, 80%, 65%)" />
<circle cx="158.26" cy="231.49" r="5" fill="hsl(27, 80%, 65%)" />
<circle cx="344.84" cy="207.93" r="6" fill="hsl(36, 80%, 65%)" />
<circle cx="222.88" cy="351.69" r="2" fill="hsl(45, 80%, 65%)" />
<circle cx="215.68" cy="162.84" r="3" fill="hsl(54, 80%, 65%)" />
<circle cx="348.88" cy="297.56" r="4" fill="hsl(63, 80%, 65%)" />
<circle cx="159.21" cy="288.17" r="5" fill="hsl(72, 80%, 65%)" />
<circle cx="305.76" cy="166.68" r="6" fill="hsl(81, 80%, 65%)" />
<circle cx="279.70" cy="355.71" r="2" fill="hsl(90, 80%, 65%)" />
<circle cx="170.97" cy="198.35" r="3" fill="hsl(99, 80%, 65%)" />
<circle cx="357.88" cy="241.04" r="4" fill="hsl(108, 80%, 65%)" />
<circle cx="190.83" cy="336.04" r="5" fill="hsl(117, 80%, 65%)" />
<circle cx="249.97" cy="152.71" r="6" fill="hsl(126, 80%, 65%)" />
<circle cx="330.38" cy="328.26" r="2" fill="hsl(135, 80%, 65%)" />
<circle cx="152.10" cy="252.96" r="3" fill="hsl(144, 80%, 65%)" />
<circle cx="334.85" cy="187.90" r="4" fill="hsl(153, 80%, 65%)" />
<circle cx="243.83" cy="359.71" r="5" fill="hsl(162, 80%, 65%)" />
<circle cx="194.78" cy="171.11" r="6" fill="hsl(171, 80%, 65%)" />
<circle cx="358.72" cy="277.29" r="2" fill="hsl(180, 80%, 65%)" />
<circle cx="165.67" cy="309.81" r="3" fill="hsl(189, 80%, 65%)" />
<circle cx="286.32" cy="155.08" r="4" fill="hsl(198, 80%, 65%)" />
</svg>
