<svg xmlns="http://www.w3.org/2000/svg" width="512" height="512" viewBox="0 0 512 512">
<rect width="100%" height="100%" fill="#0b1020"/>
<circle cx="396" cy="61" r="47" fill="#f8f3c9" opacity="0.95" />
<circle cx="28.0" cy="23.0" r="3.5" fill="white" />
<circle cx="383.0" cy="121.0" r="2.8" fill="white" />
<circle cx="223.0" cy="126.0" r="3.1" fill="white" />
<circle cx="441.0" cy="114.0" r="1.8" fill="white" />
<circle cx="411.0" cy="29.0" r="3.3" fill="white" />
<circle cx="97.0" cy="26.0" r="3.5" fill="white" />
<circle cx="166.0" cy="52.0" r="1.8" fill="white" />
<circle cx="420.0" cy="136.0" r="2.8" fill="white" />
<circle cx="296.0" cy="147.0" r="2.5" fill="white" />
<path d="M 20 430 C 125 411, 200 443, 318 432 S 450 376, 512 406" stroke="#5dade2" stroke-width="7" fill="none" opacity="0.85" />
<line x1="0" y1="387" x2="512" y2="387" stroke="#445566" stroke-width="3" />
<polygon points="150,363 190,303 230,323 250,293 270,313 282,353 250,375 200,379" fill="#1e1e1e" />
<polygon points="225,303 238,281 248,305" fill="#1e1e1e" />
<line x1="280" y1="348" x2="310" y2="323" stroke="#1e1e1e" stroke-width="6" />
</svg>
