<svg xmlns="http://www.w3.org/2000/svg" width="512" height="512" viewBox="0 0 512 512">
<rect width="100%" height="100%" fill="#0b1020"/>
<circle cx="416" cy="108" r="46" fill="#f8f3c9" opacity="0.95" />
<circle cx="151.0" cy="120.0" r="3.3" fill="white" />
<circle cx="477.0" cy="128.0" r="1.8" fill="white" />
<circle cx="380.0" cy="73.0" r="2.0" fill="white" />
<circle cx="239.0" cy="74.0" r="3.4" fill="white" />
<circle cx="183.0" cy="29.0" r="2.6" fill="white" />
<circle cx="334.0" cy="136.0" r="2.8" fill="white" />
<circle cx="468.0" cy="74.0" r="2.1" fill="white" />
<circle cx="165.0" cy="126.0" r="2.8" fill="white" />
<circle cx="209.0" cy="29.0" r="3.4" fill="white" />
<circle cx="301.0" cy="132.0" r="1.9" fill="white" />
<circle cx="209.0" cy="72.0" r="2.6" fill="white" />
<circle cx="23.0" cy="103.0" r="2.6" fill="white" />
<path d="M 20 430 C 104 412, 169 440, 282 420 S 450 382, 512 412" stroke="#5dade2" stroke-width="7" fill="none" opacity="0.85" />
<line x1="0" y1="401" x2="512" y2="401" stroke="#445566" stroke-width="4" />
<polygon points="218,362 258,302 298,322 318,292 338,312 350,352 318,374 268,378" fill="#1e1e1e" />
<polygon points="293,302 306,280 316,304" fill="#1e1e1e" />
<line x1="348" y1="347" x2="378" y2="322" stroke="#1e1e1e" stroke-width="6" />
</svg>
