<svg xmlns="http://www.w3.org/2000/svg" width="512" height="512" viewBox="0 0 512 512">
<rect width="100%" height="100%" fill="#0b1020"/>
<circle cx="366" cy="100" r="44" fill="#f8f3c9" opacity="0.95" />
<circle cx="94.0" cy="50.0" r="1.5" fill="white" />
<circle cx="412.0" cy="143.0" r="3.0" fill="white" />
<circle cx="48.0" cy="105.0" r="3.1" fill="white" />
<circle cx="131.0" cy="157.0" r="2.4" fill="white" />
<circle cx="101.0" cy="139.0" r="2.6" fill="white" />
<circle cx="22.0" cy="79.0" r="3.3" fill="white" />
<circle cx="197.0" cy="67.0" r="2.0" fill="white" />
<circle cx="112.0" cy="49.0" r="2.7" fill="white" />
<circle cx="293.0" cy="168.0" r="3.4" fill="white" />
<circle cx="383.0" cy="120.0" r="2.4" fill="white" />
<circle cx="66.0" cy="159.0" r="2.9" fill="white" />
<circle cx="178.0" cy="103.0" r="2.6" fill="white" />
<path d="M 20 430 C 107 414, 198 444, 286 440 S 450 385, 512 415" stroke="#5dade2" stroke-width="7" fill="none" opacity="0.85" />
<line x1="0" y1="390" x2="512" y2="390" stroke="#445566" stroke-width="3" />
<polygon points="191,359 231,299 271,319 291,289 311,309 323,349 291,371 241,375" fill="#1e1e1e" />
<polygon points="266,299 279,277 289,301" fill="#1e1e1e" />
<line x1="321" y1="344" x2="351" y2="319" stroke="#1e1e1e" stroke-width="6" />
</svg>
