<svg xmlns="http://www.w3.org/2000/svg" width="512" height="512" viewBox="0 0 512 512">
<rect width="100%" height="100%" fill="black"/>
<circle cx="256.00" cy="256.00" r="2" fill="hsl(0, 80%, 65%)" />
<circle cx="250.78" cy="260.78" r="3" fill="hsl(8, 80%, 65%)" />
<circle cx="256.88" cy="246.03" r="4" fill="hsl(16, 80%, 65%)" />
<circle cx="263.46" cy="265.73" r="5" fill="hsl(24, 80%, 65%)" />
<circle cx="242.06" cy="253.53" r="6" fill="hsl(32, 80%, 65%)" />
<circle cx="269.36" cy="247.50" r="2" fill="hsl(40, 80%, 65%)" />
<circle cx="251.50" cy="272.75" r="3" fill="hsl(48, 80%, 65%)" />
<circle cx="247.37" cy="239.38" r="4" fill="hsl(56, 80%, 65%)" />
<circle cx="274.81" cy="262.87" r="5" fill="hsl(64, 80%, 65%)" />
<circle cx="236.37" cy="264.10" r="6" fill="hsl(72, 80%, 65%)" />
<circle cx="265.49" cy="235.72" r="2" fill="hsl(80, 80%, 65%)" />
<circle cx="263.03" cy="278.40" r="3" fill="hsl(88, 80%, 65%)" />
<circle cx="234.78" cy="243.70" r="4" fill="hsl(96, 80%, 65%)" />
<circle cx="280.93" cy="250.52" r="5" fill="hsl(104, 80%, 65%)" />
<circle cx="240.76" cy="277.67" r="6" fill="hsl(112, 80%, 65%)" />
<circle cx="252.48" cy="228.81" r="2" fill="hsl(120, 80%, 65%)" />
<circle cx="277.65" cy="274.25" r="3" fill="hsl(128, 80%, 65%)" />
<circle cx="226.83" cy="257.21" r="4" fill="hsl(136, 80%, 65%)" />
<circle cx="277.29" cy="234.81" r="5" fill="hsl(144, 80%, 65%)" />
<circle cx="254.57" cy="286.83" r="6" fill="hsl(152, 80%, 65%)" />
<circle cx="235.71" cy="231.69" r="2" fill="hsl(160, 80%, 65%)" />
<circle cx="288.15" cy="260.33" r="3" fill="hsl(168, 80%, 65%)" />
<circle cx="228.74" cy="274.97" r="4" fill="hsl(176, 80%, 65%)" />
<circle cx="263.45" cy="222.87" r="5" fill="hsl(184, 80%, 65%)" />
<circle cx="273.24" cy="286.09" r="6" fill="hsl(192, 80%, 65%)" />
<circle cx="222.28" cy="245.24" r="2" fill="hsl(200, 80%, 65%)" />
<circle cx="288.77" cy="240.86" r="3" fill="hsl(208, 80%, 65%)" />
<circle cx="241.80" cy="289.94" r="4" fill="hsl(216, 80%, 65%)" />
<circle cx="243.32" cy="220.75" r="5" fill="hsl(224, 80%, 65%)" />
<circle cx="289.75" cy="273.74" r="6" fill="hsl(232, 80%, 65%)" />
<circle cx="218.50" cy="265.88" r="2" fill="hsl(240, 80%, 65%)" />
<circle cx="277.32" cy="222.84" r="3" fill="hsl(248, 80%, 65%)" />
<circle cx="262.78" cy="295.47" r="4" fill="hsl(256, 80%, 65%)" />
<circle cx="223.85" cy="231.10" r="5" fill="hsl(264, 80%, 65%)" />
<circle cx="297.14" cy="252.59" r="6" fill="hsl(272, 80%, 65%)" />
<circle cx="227.56" cy="286.75" r="2" fill="hsl(280, 80%, 65%)" />
<circle cx="256.21" cy="213.52" r="3" fill="hsl(288, 80%, 65%)" />
<circle cx="284.93" cy="287.90" r="4" fill="hsl(296, 80%, 65%)" />
<circle cx="212.54" cy="251.97" r="5" fill="hsl(304, 80%, 65%)" />
<circle cx="291.22" cy="229.27" r="6" fill="hsl(312, 80%, 65%)" />
<circle cx="247.99" cy="300.05" r="2" fill="hsl(320, 80%, 65%)" />
<circle cx="231.86" cy="217.63" r="3" fill="hsl(328, 80%, 65%)" />
<circle cx="300.25" cy="268.13" r="4" fill="hsl(336, 80%, 65%)" />
<circle cx="214.70" cy="277.20" r="5" fill="hsl(344, 80%, 65%)" />
<circle cx="272.32" cy="211.97" r="6" fill="hsl(352, 80%, 65%)" />
<circle cx="273.91" cy="299.99" r="2" fill="hsl(0, 80%, 65%)" />
<circle cx="212.61" cy="235.44" r="3" fill="hsl(8, 80%, 65%)" />
<circle cx="302.38" cy="241.70" r="4" fill="hsl(16, 80%, 65%)" />
<circle cx="231.20" cy="298.32" r="5" fill="hsl(24, 80%, 65%)" />
<circle cx="245.60" cy="207.55" r="6" fill="hsl(32, 80%, 65%)" />
<circle cx="296.81" cy="284.99" r="2" fill="hsl(40, 80%, 65%)" />
<circle cx="205.83" cy="262.25" r="3" fill="hsl(48, 80%, 65%)" />
<circle cx="289.09" cy="217.12" r="4" fill="hsl(56, 80%, 65%)" />
<circle cx="257.88" cy="307.51" r="5" fill="hsl(64, 80%, 65%)" />
<circle cx="219.48" cy="218.94" r="6" fill="hsl(72, 80%, 65%)" />
<circle cx="308.44" cy="258.68" r="2" fill="hsl(80, 80%, 65%)" />
<circle cx="215.16" cy="289.75" r="3" fill="hsl(88, 80%, 65%)" />
<circle cx="263.39" cy="203.06" r="4" fill="hsl(96, 80%, 65%)" />
<circle cx="286.58" cy="300.41" r="5" fill="hsl(104, 80%, 65%)" />
<circle cx="203.00" cy="243.81" r="6" fill="hsl(112, 80%, 65%)" />
<circle cx="303.71" cy="228.97" r="2" fill="hsl(120, 80%, 65%)" />
<circle cx="238.94" cy="308.60" r="3" fill="hsl(128, 80%, 65%)" />
<circle cx="232.87" cy="205.28" r="4" fill="hsl(136, 80%, 65%)" />
<circle cx="307.73" cy="277.95" r="5" fill="hsl(144, 80%, 65%)" />
<circle cx="202.61" cy="274.91" r="6" fill="hsl(152, 80%, 65%)" />
<circle cx="282.80" cy="205.60" r="2" fill="hsl(160, 80%, 65%)" />
<circle cx="270.39" cy="311.69" r="3" fill="hsl(168, 80%, 65%)" />
<circle cx="207.41" cy="224.42" r="4" fill="hsl(176, 80%, 65%)" />
<circle cx="313.59" cy="246.39" r="5" fill="hsl(184, 80%, 65%)" />
<circle cx="219.76" cy="302.32" r="6" fill="hsl(192, 80%, 65%)" />
<circle cx="251.40" cy="196.95" r="2" fill="hsl(200, 80%, 65%)" />
<circle cx="299.59" cy="296.72" r="3" fill="hsl(208, 80%, 65%)" />
<circle cx="195.93" cy="255.41" r="4" fill="hsl(216, 80%, 65%)" />
<circle cx="301.00" cy="215.58" r="5" fill="hsl(224, 80%, 65%)" />
<circle cx="250.08" cy="316.61" r="6" fill="hsl(232, 80%, 65%)" />
<circle cx="219.17" cy="206.98" r="2" fill="hsl(240, 80%, 65%)" />
<circle cx="316.67" cy="267.34" r="3" fill="hsl(248, 80%, 65%)" />
<circle cx="203.26" cy="288.83" r="4" fill="hsl(256, 80%, 65%)" />
<circle cx="272.82" cy="195.78" r="5" fill="hsl(264, 80%, 65%)" />
<circle cx="284.46" cy="312.12" r="6" fill="hsl(272, 80%, 65%)" />
<circle cx="196.73" cy="233.70" r="2" fill="hsl(280, 80%, 65%)" />
<circle cx="315.13" cy="232.26" r="3" fill="hsl(288, 80%, 65%)" />
<circle cx="228.26" cy="313.80" r="4" fill="hsl(296, 80%, 65%)" />
<circle cx="237.30" cy="194.27" r="5" fill="hsl(304, 80%, 65%)" />
<circle cx="311.82" cy="289.08" r="6" fill="hsl(312, 80%, 65%)" />
<circle cx="192.12" cy="269.39" r="2" fill="hsl(320, 80%, 65%)" />
<circle cx="294.28" cy="202.66" r="3" fill="hsl(328, 80%, 65%)" />
<circle cx="263.85" cy="321.57" r="4" fill="hsl(336, 80%, 65%)" />
<circle cx="205.64" cy="212.71" r="5" fill="hsl(344, 80%, 65%)" />
<circle cx="322.76" cy="253.89" r="6" fill="hsl(352, 80%, 65%)" />
<circle cx="207.93" cy="302.91" r="2" fill="hsl(0, 80%, 65%)" />
<circle cx="259.78" cy="188.57" r="3" fill="hsl(8, 80%, 65%)" />
<circle cx="299.00" cy="308.56" r="4" fill="hsl(16, 80%, 65%)" />
<circle cx="188.43" cy="246.24" r="5" fill="hsl(24, 80%, 65%)" />
<circle cx="312.72" cy="217.35" r="6" fill="hsl(32, 80%, 65%)" />
<circle cx="240.20" cy="323.17" r="2" fill="hsl(40, 80%, 65%)" />
<circle cx="222.10" cy="195.48" r="3" fill="hsl(48, 80%, 65%)" />
<circle cx="322.22" cy="277.84" r="4" fill="hsl(56, 80%, 65%)" />
<circle cx="192.09" cy="284.77" r="5" fill="hsl(64, 80%, 65%)" />
<circle cx="283.83" cy="191.29" r="6" fill="hsl(72, 80%, 65%)" />
<circle cx="279.31" cy="322.85" r="2" fill="hsl(80, 80%, 65%)" />
<circle cx="193.34" cy="222.29" r="3" fill="hsl(88, 80%, 65%)" />
<circle cx="325.31" cy="238.45" r="4" fill="hsl(96, 80%, 65%)" />
<circle cx="216.55" cy="316.05" r="5" fill="hsl(104, 80%, 65%)" />
<circle cx="244.47" cy="184.73" r="6" fill="hsl(112, 80%, 65%)" />
<circle cx="312.92" cy="300.98" r="2" fill="hsl(120, 80%, 65%)" />
<circle cx="183.30" cy="261.31" r="3" fill="hsl(128, 80%, 65%)" />
<circle cx="306.25" cy="202.73" r="4" fill="hsl(136, 80%, 65%)" />
<circle cx="254.92" cy="329.57" r="5" fill="hsl(144, 80%, 65%)" />
<circle cx="206.87" cy="200.77" r="6" fill="hsl(152, 80%, 65%)" />
<circle cx="329.87" cy="263.57" r="2" fill="hsl(160, 80%, 65%)" />
<circle cx="196.15" cy="300.51" r="3" fill="hsl(168, 80%, 65%)" />
<circle cx="270.13" cy="182.42" r="4" fill="hsl(176, 80%, 65%)" />
<circle cx="295.46" cy="320.08" r="5" fill="hsl(184, 80%, 65%)" />
<circle cx="183.30" cy="235.31" r="6" fill="hsl(192, 80%, 65%)" />
<circle cx="323.88" cy="222.00" r="2" fill="hsl(200, 80%, 65%)" />
<circle cx="228.80" cy="327.23" r="3" fill="hsl(208, 80%, 65%)" />
<circle cx="227.82" cy="184.79" r="4" fill="hsl(216, 80%, 65%)" />
<circle cx="325.17" cy="289.61" r="5" fill="hsl(224, 80%, 65%)" />
<circle cx="181.98" cy="278.03" r="6" fill="hsl(232, 80%, 65%)" />
<circle cx="295.86" cy="189.48" r="2" fill="hsl(240, 80%, 65%)" />
<circle cx="271.61" cy="332.30" r="3" fill="hsl(248, 80%, 65%)" />
<circle cx="192.69" cy="210.09" r="4" fill="hsl(256, 80%, 65%)" />
<circle cx="334.01" cy="247.05" r="5" fill="hsl(264, 80%, 65%)" />
<circle cx="204.32" cy="315.53" r="6" fill="hsl(272, 80%, 65%)" />
<circle cx="253.89" cy="176.87" r="2" fill="hsl(280, 80%, 65%)" />
<circle cx="311.23" cy="313.14" r="3" fill="hsl(288, 80%, 65%)" />
<circle cx="176.36" cy="251.15" r="4" fill="hsl(296, 80%, 65%)" />
<circle cx="318.24" cy="205.59" r="5" fill="hsl(304, 80%, 65%)" />
<circle cx="244.11" cy="335.53" r="6" fill="hsl(312, 80%, 65%)" />
<circle cx="210.87" cy="189.07" r="2" fill="hsl(320, 80%, 65%)" />
<circle cx="334.79" cy="274.94" r="3" fill="hsl(328, 80%, 65%)" />
<circle cx="184.84" cy="295.40" r="4" fill="hsl(336, 80%, 65%)" />
<circle cx="281.95" cy="178.59" r="5" fill="hsl(344, 80%, 65%)" />
<circle cx="289.28" cy="330.89" r="6" fill="hsl(352, 80%, 65%)" />
<circle cx="180.59" cy="223.14" r="2" fill="hsl(0, 80%, 65%)" />
<circle cx="334.09" cy="229.20" r="3" fill="hsl(8, 80%, 65%)" />
<circle cx="216.38" cy="328.78" r="4" fill="hsl(16, 80%, 65%)" />
<circle cx="235.98" cy="175.28" r="5" fill="hsl(24, 80%, 65%)" />
<circle cx="325.54" cy="302.17" r="6" fill="hsl(32, 80%, 65%)" />
<circle cx="173.24" cy="268.98" r="2" fill="hsl(40, 80%, 65%)" />
<circle cx="308.44" cy="190.29" r="3" fill="hsl(48, 80%, 65%)" />
<circle cx="261.73" cy="340.17" r="4" fill="hsl(56, 80%, 65%)" />
<circle cx="194.70" cy="197.60" r="5" fill="hsl(64, 80%, 65%)" />
<circle cx="340.94" cy="257.66" r="6" fill="hsl(72, 80%, 65%)" />
<circle cx="192.03" cy="312.35" r="2" fill="hsl(80, 80%, 65%)" />
<circle cx="265.14" cy="170.94" r="3" fill="hsl(88, 80%, 65%)" />
<circle cx="306.89" cy="325.13" r="4" fill="hsl(96, 80%, 65%)" />
<circle cx="171.50" cy="239.35" r="5" fill="hsl(104, 80%, 65%)" />
<circle cx="329.81" cy="211.05" r="6" fill="hsl(112, 80%, 65%)" />
<circle cx="231.86" cy="339.28" r="2" fill="hsl(120, 80%, 65%)" />
<circle cx="217.42" cy="178.03" r="3" fill="hsl(128, 80%, 65%)" />
<circle cx="337.39" cy="287.54" r="4" fill="hsl(136, 80%, 65%)" />
<circle cx="174.42" cy="287.83" r="5" fill="hsl(144, 80%, 65%)" />
<circle cx="294.78" cy="177.17" r="6" fill="hsl(152, 80%, 65%)" />
<circle cx="280.73" cy="340.60" r="2" fill="hsl(160, 80%, 65%)" />
<circle cx="180.37" cy="210.18" r="3" fill="hsl(168, 80%, 65%)" />
<circle cx="342.99" cy="238.65" r="4" fill="hsl(176, 80%, 65%)" />
<circle cx="203.41" cy="327.79" r="5" fill="hsl(184, 80%, 65%)" />
<circle cx="246.26" cy="167.26" r="6" fill="hsl(192, 80%, 65%)" />
<circle cx="323.34" cy="315.04" r="2" fill="hsl(200, 80%, 65%)" />
<circle cx="166.19" cy="257.96" r="3" fill="hsl(208, 80%, 65%)" />
<circle cx="321.10" cy="193.70" r="4" fill="hsl(216, 80%, 65%)" />
<circle cx="250.06" cy="346.19" r="5" fill="hsl(224, 80%, 65%)" />
<circle cx="199.28" cy="185.27" r="6" fill="hsl(232, 80%, 65%)" />
<circle cx="345.87" cy="269.88" r="2" fill="hsl(240, 80%, 65%)" />
<circle cx="180.12" cy="306.63" r="3" fill="hsl(248, 80%, 65%)" />
<circle cx="277.82" cy="167.15" r="4" fill="hsl(256, 80%, 65%)" />
<circle cx="300.06" cy="336.49" r="5" fill="hsl(264, 80%, 65%)" />
<circle cx="168.88" cy="226.32" r="6" fill="hsl(272, 80%, 65%)" />
<circle cx="340.54" cy="218.93" r="2" fill="hsl(280, 80%, 65%)" />
<circle cx="218.60" cy="340.69" r="3" fill="hsl(288, 80%, 65%)" />
<circle cx="226.29" cy="168.03" r="4" fill="hsl(296, 80%, 65%)" />
<circle cx="337.57" cy="300.92" r="5" fill="hsl(304, 80%, 65%)" />
<circle cx="165.25" cy="278.04" r="6" fill="hsl(312, 80%, 65%)" />
<circle cx="308.18" cy="178.23" r="2" fill="hsl(320, 80%, 65%)" />
<circle cx="270.10" cy="348.86" r="3" fill="hsl(328, 80%, 65%)" />
<circle cx="182.67" cy="196.89" r="4" fill="hsl(336, 80%, 65%)" />
<circle cx="350.27" cy="250.04" r="5" fill="hsl(344, 80%, 65%)" />
<circle cx="190.33" cy="324.26" r="6" fill="hsl(352, 80%, 65%)" />
<circle cx="258.32" cy="161.04" r="2" fill="hsl(0, 80%, 65%)" />
<circle cx="318.61" cy="327.78" r="3" fill="hsl(8, 80%, 65%)" />
<circle cx="161.09" cy="245.33" r="4" fill="hsl(16, 80%, 65%)" />
<circle cx="333.40" cy="199.60" r="5" fill="hsl(24, 80%, 65%)" />
<circle cx="236.97" cy="350.13" r="6" fill="hsl(32, 80%, 65%)" />
<circle cx="206.31" cy="173.51" r="2" fill="hsl(40, 80%, 65%)" />
<circle cx="348.61" cy="283.33" r="3" fill="hsl(48, 80%, 65%)" />
<circle cx="169.02" cy="298.51" r="4" fill="hsl(56, 80%, 65%)" />
<circle cx="291.51" cy="165.66" r="5" fill="hsl(64, 80%, 65%)" />
<circle cx="290.93" cy="346.85" r="6" fill="hsl(72, 80%, 65%)" />
<circle cx="168.65" cy="212.49" r="2" fill="hsl(80, 80%, 65%)" />
<circle cx="350.05" cy="229.00" r="3" fill="hsl(88, 80%, 65%)" />
<circle cx="204.76" cy="339.65" r="4" fill="hsl(96, 80%, 65%)" />
<circle cx="237.23" cy="159.45" r="5" fill="hsl(104, 80%, 65%)" />
<circle cx="335.26" cy="314.66" r="6" fill="hsl(112, 80%, 65%)" />
<circle cx="157.68" cy="266.31" r="2" fill="hsl(120, 80%, 65%)" />
<circle cx="321.70" cy="181.79" r="3" fill="hsl(128, 80%, 65%)" />
<circle cx="257.68" cy="355.35" r="4" fill="hsl(136, 80%, 65%)" />
<circle cx="187.47" cy="183.69" r="5" fill="hsl(144, 80%, 65%)" />
<circle cx="355.62" cy="263.05" r="6" fill="hsl(152, 80%, 65%)" />
<circle cx="177.59" cy="318.26" r="2" fill="hsl(160, 80%, 65%)" />
<circle cx="271.81" cy="156.88" r="3" fill="hsl(168, 80%, 65%)" />
<circle cx="311.44" cy="339.97" r="4" fill="hsl(176, 80%, 65%)" />
<circle cx="158.16" cy="231.47" r="5" fill="hsl(184, 80%, 65%)" />
<circle cx="344.94" cy="207.88" r="6" fill="hsl(192, 80%, 65%)" />
<circle cx="222.85" cy="351.79" r="2" fill="hsl(200, 80%, 65%)" />
<circle cx="215.64" cy="162.74" r="3" fill="hsl(208, 80%, 65%)" />
<circle cx="348.98" cy="297.60" r="4" fill="hsl(216, 80%, 65%)" />
<circle cx="159.11" cy="288.20" r="5" fill="hsl(224, 80%, 65%)" />
<circle cx="305.81" cy="166.59" r="6" fill="hsl(232, 80%, 65%)" />
<circle cx="279.72" cy="355.81" r="2" fill="hsl(240, 80%, 65%)" />
<circle cx="170.88" cy="198.29" r="3" fill="hsl(248, 80%, 65%)" />
<circle cx="357.99" cy="241.02" r="4" fill="hsl(256, 80%, 65%)" />
<circle cx="190.76" cy="336.12" r="5" fill="hsl(264, 80%, 65%)" />
<circle cx="249.97" cy="152.61" r="6" fill="hsl(272, 80%, 65%)" />
<circle cx="330.46" cy="328.33" r="2" fill="hsl(280, 80%, 65%)" />
<circle cx="151.99" cy="252.95" r="3" fill="hsl(288, 80%, 65%)" />
<circle cx="334.93" cy="187.83" r="4" fill="hsl(296, 80%, 65%)" />
<circle cx="243.82" cy="359.82" r="5" fill="hsl(304, 80%, 65%)" />
<circle cx="194.71" cy="171.02" r="6" fill="hsl(312, 80%, 65%)" />
<circle cx="358.82" cy="277.31" r="2" fill="hsl(320, 80%, 65%)" />
<circle cx="165.58" cy="309.87" r="3" fill="hsl(328, 80%, 65%)" />
<circle cx="286.35" cy="154.98" r="4" fill="hsl(336, 80%, 65%)" />
<circle cx="301.96" cy="351.21" r="5" fill="hsl(344, 80%, 65%)" />
<circle cx="157.58" cy="216.75" r="6" fill="hsl(352, 80%, 65%)" />
<circle cx="355.31" cy="218.37" r="2" fill="hsl(0, 80%, 65%)" />
<circle cx="208.09" cy="351.04" r="3" fill="hsl(8, 80%, 65%)" />
<circle cx="227.07" cy="153.33" r="4" fill="hsl(16, 80%, 65%)" />
<circle cx="346.88" cy="312.29" r="5" fill="hsl(24, 80%, 65%)" />
<circle cx="150.73" cy="275.93" r="6" fill="hsl(32, 80%, 65%)" />
<circle cx="320.30" cy="170.01" r="2" fill="hsl(40, 80%, 65%)" />
<circle cx="266.70" cy="363.07" r="3" fill="hsl(48, 80%, 65%)" />
<circle cx="175.61" cy="184.12" r="4" fill="hsl(56, 80%, 65%)" />
<circle cx="364.06" cy="254.70" r="5" fill="hsl(64, 80%, 65%)" />
<circle cx="177.03" cy="330.11" r="6" fill="hsl(72, 80%, 65%)" />
</svg>
