<svg xmlns="http://www.w3.org/2000/svg" width="512" height="512" viewBox="0 0 512 512">
<rect width="100%" height="100%" fill="#0b1020"/>
<circle cx="382" cy="101" r="44" fill="#f8f3c9" opacity="0.95" />
<circle cx="168.0" cy="137.0" r="1.6" fill="white" />
<circle cx="62.0" cy="180.0" r="2.3" fill="white" />
<circle cx="377.0" cy="177.0" r="1.5" fill="white" />
<circle cx="177.0" cy="54.0" r="2.5" fill="white" />
<circle cx="206.0" cy="90.0" r="2.6" fill="white" />
<circle cx="101.0" cy="143.0" r="2.1" fill="white" />
<path d="M 20 430 C 119 426, 164 457, 298 427 S 450 378, 512 408" stroke="#5dade2" stroke-width="5" fill="none" opacity="0.85" />
<line x1="0" y1="410" x2="512" y2="410" stroke="#445566" stroke-width="3" />
<polygon points="149,352 189,292 229,312 249,282 269,302 281,342 249,364 199,368" fill="#1e1e1e" />
<polygon points="224,292 237,270 247,294" fill="#1e1e1e" />
<line x1="279" y1="337" x2="309" y2="312" stroke="#1e1e1e" stroke-width="6" />
</svg>
